<?xml version="1.0" encoding="UTF-8"?>
<svg width="48px" height="48px" viewBox="0 0 48 48" version="1.1" xmlns="http://www.w3.org/2000/svg"
		 xmlns:xlink="http://www.w3.org/1999/xlink">
	<!-- Generator: Sketch 43.1 (39012) - http://www.bohemiancoding.com/sketch -->
	<title>african</title>
	<desc>Created with Sketch.</desc>
	<defs></defs>
	<g id="UI-KIT" stroke="none" stroke-width="1" fill="none" fill-rule="evenodd">
		<g id="african" fill-rule="nonzero" fill="#455A64">
			<path
				d="M40.25,36.7990327 C40.25,39.0166079 38.464359,40.8204612 36.2666667,40.8204612 L11.7333333,40.8204612 C9.5356409,40.8204612 7.75,39.0166079 7.75,36.7990327 L7.75,12.0153592 C7.75,9.79778394 9.5356409,7.99393061 11.7333333,7.99393061 L36.2666667,7.99393061 C38.464359,7.99393061 40.25,9.79778398 40.25,12.0153592 L40.25,36.7990327 Z M38.6833333,36.7990327 L38.6833333,12.0153592 C38.6833333,10.6511541 37.6145737,9.57148163 36.2666667,9.57148163 L11.7333333,9.57148163 C10.3854264,9.57148163 9.31666667,10.6511542 9.31666667,12.0153592 L9.31666667,36.7990327 C9.31666667,38.1632377 10.3854264,39.2429102 11.7333333,39.2429102 L36.2666667,39.2429102 C37.6145737,39.2429102 38.6833333,38.1632377 38.6833333,36.7990327 Z"
				id="Shape"></path>
			<polygon id="Shape"
							 points="40.25 19.4429102 40.25 21.0204612 23.3790367 21.0204612 23.2013648 20.9463382 11.471156 9.09641972 12.5770704 7.97907236 23.9252599 19.4429102"></polygon>
			<polygon id="Shape"
							 points="12.5770714 40.8691287 11.471157 39.7517813 23.2013638 27.9017281 23.3790367 27.8276041 40.25 27.8276041 40.25 29.4051551 23.9252608 29.4051551"></polygon>
			<polygon id="Shape"
							 points="7.67115606 14.6188687 8.77707031 13.5015214 19.572737 24.4071948 8.77707144 35.3130063 7.67115486 34.1956567 17.3607268 24.4073294"></polygon>
		</g>
	</g>
</svg>
