<?xml version="1.0" encoding="UTF-8"?>
<svg width="48px" height="48px" viewBox="0 0 48 48" version="1.1" xmlns="http://www.w3.org/2000/svg"
		 xmlns:xlink="http://www.w3.org/1999/xlink">
	<!-- Generator: Sketch 43.1 (39012) - http://www.bohemiancoding.com/sketch -->
	<title>american</title>
	<desc>Created with Sketch.</desc>
	<defs></defs>
	<g id="UI-KIT" stroke="none" stroke-width="1" fill="none" fill-rule="evenodd">
		<g id="american" fill-rule="nonzero" fill="#455A64">
			<path
				d="M39.6644394,28.0251547 C39.8175716,27.9236059 39.1459847,28.3958434 38.7327881,28.66509 C38.0360201,29.1191169 37.2730464,29.5677448 36.4546486,29.987279 C35.1609882,30.6504463 33.8493208,31.1784124 32.5497455,31.522218 C30.8756816,31.964011 29.3733541,31.7494698 26.4580604,30.9209277 C23.797006,30.1488873 22.4874146,29.9534865 21.0791948,30.3203217 C19.8209458,30.6836899 18.5035047,31.3691722 17.2045993,32.3479434 C16.8743673,32.5825773 16.4511866,32.5264513 16.2200894,32.2046245 C15.9838971,31.8757022 16.0404371,31.4538928 16.3619419,31.2255062 C17.8825948,30.0808215 19.3411099,29.3251916 20.7446234,28.9661952 C22.4497354,28.5252082 23.900805,28.7334605 26.8358304,29.5676104 C29.4968848,30.3396508 30.8064762,30.5350517 32.2167176,30.1676555 C34.4524837,29.5725128 36.6204701,28.437546 38.4868494,27.1787362 L38.1016246,25.8201548 C36.2900507,27.0463514 34.0543037,28.1723195 31.8246709,28.7593974 C30.1195589,29.2003843 28.6684893,28.9921321 25.7334638,28.1579822 C23.0724094,27.3859418 21.762818,27.1905409 20.3545983,27.5573761 C19.0963493,27.9207443 17.7789081,28.6062266 16.4773495,29.5868196 C16.3409138,29.6772961 16.2012422,29.7236074 16.0597845,29.7236074 C15.8271527,29.7236074 15.6365536,29.6288113 15.4954928,29.4416789 C15.2593005,29.1127567 15.3158405,28.6909473 15.6373453,28.4625607 C17.1579982,27.317876 18.6165133,26.562246 20.0200268,26.2032496 C21.7251388,25.7622627 23.1762084,25.9705149 26.1112339,26.8046648 C28.7722882,27.5767052 30.0818797,27.7721061 31.4912115,27.4049567 C33.7538714,26.7797606 35.8396109,25.6735503 37.7628035,24.3753915 L37.3357254,22.8177116 C35.4785397,24.0761788 33.312065,25.1717574 31.0598189,25.7561957 C29.354707,26.1971826 27.9036373,25.9889304 24.9686119,25.1547805 C22.3075575,24.3827401 20.9979661,24.1873392 19.5897463,24.5541745 C18.3314973,24.9175426 17.0140562,25.6030249 15.7124975,26.5836179 C15.5760619,26.6740944 15.4363903,26.7204057 15.2949326,26.7204057 C15.0623008,26.7204057 14.8717016,26.6256096 14.7306409,26.4384772 C14.4944486,26.109555 14.5509886,25.6877456 14.8724934,25.459359 C16.3931463,24.3146743 17.8516614,23.5590443 19.2551749,23.2000479 C20.9602869,22.759061 22.4113565,22.9673132 25.346382,23.8014631 C28.0074363,24.5735035 29.3170277,24.7689044 30.7263595,24.401755 C32.9890195,23.7765589 35.0747589,22.6703486 36.9979516,21.3721898 L36.5708735,19.8145099 C34.7136878,21.0729772 32.5472131,22.1685557 30.294967,22.752994 C28.589855,23.193981 27.1387854,22.9857287 24.20376,22.1515788 C21.5427056,21.3795384 20.2331142,21.1841375 18.8248944,21.5509728 C17.5666454,21.9143409 16.2492043,22.5998233 14.9476456,23.5804162 C14.8112099,23.6708928 14.6715383,23.717204 14.5300807,23.717204 C14.2974488,23.717204 14.1068497,23.6224079 13.965789,23.4352755 C13.7295967,23.1063533 13.7861366,22.6845439 14.1076415,22.4561573 C15.6282944,21.3114726 17.0868095,20.5558426 18.4912289,20.1966165 C19.2337556,20.0119655 20.0340517,19.955574 20.8372491,20.020992 L18.7982438,12.4151183 C17.9328632,12.2983502 17.1754865,12.3209403 16.4483764,12.5017324 C14.1538997,13.127035 12.0888494,14.6796951 10.3998334,16.3835391 L17.8877491,44.2148142 C17.9814489,44.5876333 17.7490697,44.9632544 17.4184794,45.030855 C17.3829276,45.066219 17.3373311,45.0847735 17.2838009,45.0936481 C17.2522665,45.0988761 17.2254547,45.1000883 17.1869348,45.1 C16.887574,45.1 16.6164606,44.8977392 16.5268141,44.5855873 L8.91705777,16.389189 C8.8707593,16.1589197 8.91917344,15.9301674 9.06533871,15.7379819 C8.93561929,15.867016 9.49841516,15.2693535 9.84421678,14.9328397 C10.4278274,14.3649042 11.0752427,13.8044154 11.7815748,13.2800941 C13.1530689,12.2620128 14.5813168,11.5028264 16.0347457,11.1071558 C17.7398577,10.6661689 19.1909274,10.8744211 22.1259528,11.708571 C24.7870072,12.4806114 26.0965986,12.6760123 27.5074016,12.3084684 C29.0501521,11.9073798 30.6230484,11.2142243 32.1373676,10.3463864 C33.0627795,9.81604398 34.0383626,9.15636065 34.1551574,9.04159835 C34.3504703,8.89588753 34.5886303,8.85848199 34.798041,8.94358721 C35.0388489,8.99149434 35.230895,9.18252583 35.2776684,9.41618454 L40.066578,27.2697109 C40.1761854,27.5519143 40.0219447,27.8686552 39.6644394,28.0251547 Z M21.5353808,17.2454362 C22.1473156,17.3748439 22.6617557,17.5032413 23.7764227,17.7950598 C26.4374771,18.5671002 27.7470685,18.762501 29.1564003,18.3953516 C31.4190603,17.7701555 33.5047997,16.6639452 35.4279924,15.3657865 L35.0009143,13.8081065 C33.1437263,15.0665743 30.9771408,16.1621781 28.719481,16.747854 C28.0365626,16.8837161 27.4940414,16.9499895 26.9689883,16.9499895 C25.7358024,16.9499895 24.6104131,16.7183805 22.5921424,16.1447572 C22.0625511,15.982667 21.5817281,15.848055 21.1492203,15.743875 L21.5353808,17.2454362 Z M27.8796451,13.7033463 C26.1745332,14.1443332 24.7234635,13.936081 21.7889638,13.102082 C21.6484097,13.0619767 21.6484097,13.0619767 21.5098696,13.0223383 C21.3720613,12.9831199 21.3165567,12.9674893 21.2351599,12.9451082 C20.8616103,12.8423961 20.5629706,12.7734934 20.2633797,12.7264488 L20.6885492,14.2419239 C21.3011302,14.3714369 21.8155013,14.4998062 22.9310601,14.7918581 C25.5921145,15.5638985 26.9017059,15.7592994 28.3106897,15.3922468 C30.5482729,14.7652716 32.7249207,13.6157532 34.5829819,12.362334 L34.1548423,10.7652926 C32.3435798,11.9910281 30.1085574,13.1164582 27.8796451,13.7033463 Z M24.0065302,20.6026689 C24.2929568,20.681395 24.4201712,20.7159444 24.58153,20.7582188 C27.2425844,21.5302591 28.5521758,21.72566 29.96293,21.3581288 C32.1984018,20.7630631 34.3665935,19.6279326 36.2330962,18.3689755 L35.8060215,16.8113082 C33.9488336,18.069776 31.7822481,19.1653798 29.5245882,19.7510557 C28.8416699,19.8869178 28.2991487,19.9531912 27.7740956,19.9531912 C26.5409096,19.9531912 25.4155204,19.7215822 23.3972497,19.1479589 C22.8680863,18.9859996 22.3876125,18.8514743 21.9553763,18.7473293 L22.339235,20.2052285 C22.7931986,20.2795132 23.1812762,20.3758429 24.0065302,20.6026689 Z M17.5397597,14.8348431 C17.0570412,14.9641811 16.5611634,14.6796267 16.432372,14.1989481 C16.3035806,13.7182695 16.5907577,13.223906 17.0734762,13.094568 C17.5561948,12.96523 18.0520726,13.2497844 18.180864,13.730463 C18.3096554,14.2111416 18.0224782,14.7055051 17.5397597,14.8348431 Z M18.1447133,17.1627329 C17.6619948,17.2920708 17.166117,17.0075164 17.0373256,16.5268378 C16.9085341,16.0461593 17.1957113,15.5517957 17.6784298,15.4224577 C18.1611484,15.2931198 18.6570262,15.5776742 18.7858176,16.0583528 C18.914609,16.5390313 18.6274318,17.0333949 18.1447133,17.1627329 Z M18.7885495,19.4801795 C18.305831,19.6095174 17.8099532,19.324963 17.6811618,18.8442845 C17.5523704,18.3636059 17.8395475,17.8692423 18.3222661,17.7399044 C18.8049846,17.6105664 19.3008624,17.8951208 19.4296538,18.3757994 C19.5584452,18.8564779 19.2712681,19.3508415 18.7885495,19.4801795 Z M15.2419714,15.6396051 C14.7592529,15.768943 14.2633751,15.4843886 14.1345837,15.00371 C14.0057923,14.5230315 14.2929694,14.0286679 14.775688,13.89933 C15.2584065,13.769992 15.7542843,14.0545464 15.8830757,14.535225 C16.0118671,15.0159035 15.72469,15.5102671 15.2419714,15.6396051 Z M15.8858077,17.9570917 C15.4030891,18.0864297 14.9072113,17.8018753 14.7784199,17.3211967 C14.6496285,16.8405181 14.9368057,16.3461546 15.4195242,16.2168166 C15.9022428,16.0874786 16.3981206,16.372033 16.526912,16.8527116 C16.6557034,17.3333902 16.3685262,17.8277537 15.8858077,17.9570917 Z M16.4907613,20.2849815 C16.0080427,20.4143194 15.5121649,20.129765 15.3833735,19.6490864 C15.2545821,19.1684079 15.5417593,18.6740443 16.0244778,18.5447063 C16.5071963,18.4153684 17.0030742,18.6999228 17.1318656,19.1806014 C17.260657,19.6612799 16.9734798,20.1556435 16.4907613,20.2849815 Z M13.0679161,16.8401329 C12.5851975,16.9694709 12.0893197,16.6849165 11.9605283,16.2042379 C11.8317369,15.7235593 12.1189141,15.2291958 12.6016326,15.0998578 C13.0843511,14.9705198 13.5802289,15.2550743 13.7090203,15.7357528 C13.8378117,16.2164314 13.5506346,16.710795 13.0679161,16.8401329 Z M13.7117926,19.1575795 C13.229074,19.2869175 12.7331962,19.0023631 12.6044048,18.5216845 C12.4756134,18.041006 12.7627906,17.5466424 13.2455091,17.4173044 C13.7282276,17.2879665 14.2241054,17.5725209 14.3528968,18.0531995 C14.4816883,18.533878 14.1945111,19.0282416 13.7117926,19.1575795 Z M14.3167462,21.4854292 C13.8340276,21.6147672 13.3381498,21.3302128 13.2093584,20.8495342 C13.080567,20.3688557 13.3677442,19.8744921 13.8504627,19.7451541 C14.3331812,19.6158162 14.829059,19.9003706 14.9578504,20.3810491 C15.0866418,20.8617277 14.7994647,21.3560913 14.3167462,21.4854292 Z"
				id="Combined-Shape"></path>
		</g>
	</g>
</svg>
