<?xml version="1.0" encoding="UTF-8"?>
<svg width="48px" height="48px" viewBox="0 0 48 48" version="1.1" xmlns="http://www.w3.org/2000/svg"
		 xmlns:xlink="http://www.w3.org/1999/xlink">
	<!-- Generator: Sketch 43.1 (39012) - http://www.bohemiancoding.com/sketch -->
	<title>argentinean-green</title>
	<desc>Created with Sketch.</desc>
	<defs></defs>
	<g id="UI-KIT" stroke="none" stroke-width="1" fill="none" fill-rule="evenodd">
		<g id="argentinean-green">
			<polygon id="Shape" fill="#39CE7B" fill-rule="nonzero"
							 points="7.75 19.2214143 40.25 19.2214143 40.25 30.3816184 7.75 30.3816184"></polygon>
			<polygon id="Shape" fill="#39CE7B" fill-rule="nonzero"
							 points="7.75 18.4326388 40.25 18.4326388 40.25 20.0101898 7.75 20.0101898"></polygon>
			<path
				d="M36.2666667,7.99393061 C38.4643759,7.99393061 40.25,9.79777541 40.25,12.0153592 L40.25,36.7991673 C40.25,39.0167282 38.4643985,40.8204612 36.2666667,40.8204612 L11.7333333,40.8204612 C9.53560154,40.8204612 7.75,39.0167282 7.75,36.7991673 L7.75,12.0153592 C7.75,9.79777541 9.53562414,7.99393061 11.7333333,7.99393061 L36.2666667,7.99393061 Z M9.31666667,12.0153592 L9.31666667,36.7991673 C9.31666667,38.1633632 10.3854425,39.2430449 11.7333333,39.2430449 L36.2666667,39.2430449 C37.6145575,39.2430449 38.6833333,38.1633632 38.6833333,36.7991673 L38.6833333,12.0153592 C38.6833333,10.6511335 37.6145278,9.57134694 36.2666667,9.57134694 L11.7333333,9.57134694 C10.3854722,9.57134694 9.31666667,10.6511335 9.31666667,12.0153592 Z"
				id="Shape" fill="#39CE7B" fill-rule="nonzero"></path>
			<path
				d="M24.5791667,23.5126939 C24.4001787,23.498551 24.2231347,23.5685918 24.075,23.6907592 L24.0681,23.6974939 L24.0649667,23.706249 C24.0463067,23.7567592 24.0318933,23.8088857 24.0226467,23.8618878 C23.9874133,24.0644673 24.0256467,24.2770143 24.1316313,24.4816816 L24.1527247,24.5220898 L24.184758,24.4897633 C24.1872913,24.4897633 24.1949913,24.4816816 24.202078,24.4783143 C24.2091647,24.4715796 24.2177313,24.4715796 24.2131447,24.4715796 L24.277858,24.471849 L24.2404847,24.4186449 C24.128102,24.2582245 24.085888,24.1062898 24.110146,23.9677571 C24.1223727,23.8975816 24.152686,23.8301 24.1995993,23.765851 C24.3912187,23.5871796 24.7450727,23.6199776 25.0330627,23.871451 L25.040616,23.8815531 L25.1430893,23.8748184 L25.079156,23.8189204 C24.9327027,23.6202469 24.756284,23.5226612 24.579156,23.5089224 L24.5791667,23.5126939 Z M24.5741,23.5800408 C24.6346667,23.5867755 24.69452,23.6110204 24.754048,23.6386327 C24.6402193,23.598898 24.5292033,23.586102 24.4248813,23.6015918 C24.474568,23.5914898 24.5240127,23.576 24.5741,23.5800408 L24.5741,23.5800408 Z M24.1462353,23.726049 C24.1217753,23.7597224 24.1152087,23.7977061 24.098842,23.8335347 C24.106122,23.8018816 24.1135353,23.7695551 24.124622,23.7386429 C24.131402,23.7319082 24.1393487,23.7312347 24.1462353,23.7258469 L24.1462353,23.726049 Z"
				id="Shape" fill="#FFFFFF" fill-rule="nonzero"></path>
			<path
				d="M24.589844,23.7357469 C24.416074,23.7358143 24.3598747,23.7835633 24.2828127,23.8486204 C24.2468193,23.8789265 24.222486,23.889702 24.205078,23.8950898 C24.1963647,23.8950898 24.189298,23.9018245 24.1812513,23.9018245 C24.173198,23.9018245 24.1618647,23.9085592 24.1507847,23.9173143 L24.1506513,23.9173143 C24.1396247,23.9287633 24.1363647,23.9415592 24.135938,23.9530082 C24.135538,23.9644571 24.1378713,23.9752327 24.1429713,23.9853347 C24.148038,23.9954367 24.1564313,24.0062122 24.1701847,24.0122735 C24.183938,24.0190082 24.201818,24.0190082 24.215238,24.0122735 C24.2409847,23.9994776 24.297344,23.9705184 24.3773473,23.9031041 C24.4469627,23.8445122 24.5118427,23.8451857 24.5898473,23.8451857 C24.6974807,23.8451857 24.781168,23.8903082 24.842972,23.9354306 C24.873872,23.9583286 24.8989253,23.9805531 24.919014,23.9973898 C24.9290607,24.0061449 24.9376607,24.0135531 24.9471407,24.0189408 C24.951874,24.0189408 24.9567073,24.0256755 24.9639407,24.0270224 C24.971174,24.0270224 24.9828407,24.0337571 24.9944073,24.0270224 C25.0069607,24.0202878 25.0144207,24.0054714 25.015374,23.9953694 C25.0163073,23.9859408 25.014374,23.9792061 25.012374,23.9731449 C25.0083073,23.9610224 25.0019473,23.9495735 24.993234,23.937451 C24.9758073,23.9125327 24.948814,23.8829 24.9123747,23.8543449 C24.839524,23.7964265 24.728652,23.7405959 24.5899787,23.7405286 L24.5898453,23.7405286 L24.589844,23.7357469 Z"
				id="Shape" fill="#FFFFFF" fill-rule="nonzero"></path>
			<path
				d="M24.582682,23.8270694 C24.6652493,23.8270694 24.7328127,23.8954265 24.7328127,23.9788694 C24.7328127,24.0622449 24.6652493,24.1306694 24.582682,24.1306694 C24.5001153,24.1306694 24.432422,24.0622449 24.432422,23.9788694 C24.432422,23.8954265 24.5001153,23.8270694 24.582682,23.8270694 Z M24.582682,23.8944163 C24.536142,23.8944163 24.4990887,23.9321306 24.4990887,23.9788694 C24.4990887,24.0260122 24.536142,24.0633224 24.582682,24.0633224 C24.629222,24.0633224 24.666146,24.0256082 24.666146,23.9788694 C24.666146,23.9317265 24.6292193,23.8944163 24.582682,23.8944163 Z"
				id="Shape" fill="#FFFFFF" fill-rule="nonzero"></path>
			<path
				d="M24.226302,23.998198 C24.220302,23.998198 24.2138087,23.9986694 24.2059887,24.0049327 C24.1981687,24.0049327 24.1880287,24.0150347 24.182942,24.0264837 C24.1778753,24.0379327 24.1792753,24.0500551 24.182142,24.0581367 C24.1850087,24.0662184 24.1890887,24.0722796 24.193862,24.0783408 C24.2129487,24.1025857 24.246802,24.1275041 24.3131333,24.1680469 C24.4558933,24.2545878 24.6920153,24.2649592 24.9219873,24.087298 L25.0195133,24.0119367 L24.897638,24.0267531 L24.893238,24.0272918 L24.8891713,24.0272918 C24.6337227,24.1305347 24.488998,24.1273694 24.396984,24.0811694 C24.346004,24.0555776 24.314822,24.0367204 24.2915153,24.023251 C24.2682087,24.0097816 24.2503553,23.9990061 24.226282,23.9990061 L24.226302,23.998198 Z"
				id="Shape" fill="#FFFFFF" fill-rule="nonzero"></path>
			<path
				d="M24.1875,24.4021449 L24.13164,24.5146143 C24.12724,24.5233694 24.1134667,24.5462673 24.0914067,24.5651245 C24.0696533,24.5839816 24.0401533,24.598798 24.0000007,24.6008184 C23.9598407,24.6008184 23.9304767,24.5833082 23.9087247,24.5651245 C23.8866647,24.5462673 23.8727513,24.5233694 23.868358,24.5146143 L23.8126313,24.4022796 L23.805338,24.5277469 C23.803938,24.5519918 23.784378,24.570849 23.760678,24.570849 C23.735478,24.570849 23.7161447,24.5513184 23.7161447,24.5257265 C23.7161447,24.5061959 23.7277647,24.4886857 23.745178,24.4826245 L23.7341113,24.417298 L23.7311113,24.417298 L23.7281113,24.4178367 C23.726178,24.4181735 23.7252447,24.4178367 23.7233113,24.4178367 L23.7230447,24.4178367 C23.718978,24.4178367 23.7170447,24.4245714 23.713278,24.4252449 C23.6511447,24.4447755 23.605856,24.5000673 23.605856,24.5666735 C23.605856,24.6503857 23.6747587,24.7172612 23.756898,24.7172612 C23.7957913,24.7172612 23.8302227,24.6990776 23.8578093,24.6721388 C23.9077893,24.6990776 23.9617073,24.7051388 23.9915333,24.7058122 C23.998,24.7060143 24.00508,24.7058122 24.00768,24.7058122 L24.0079467,24.7058122 L24.0082133,24.7058122 C24.03798,24.7052735 24.0921327,24.6984041 24.1421973,24.6721388 C24.169784,24.6990776 24.2042173,24.7172612 24.2431087,24.7172612 C24.3252487,24.7172612 24.3942807,24.6505878 24.3942807,24.5666735 C24.3942807,24.5 24.3490007,24.4453816 24.2871193,24.4255143 C24.283186,24.4255143 24.2813193,24.4187796 24.2770927,24.4181061 L24.2766927,24.4181061 C24.2747593,24.417702 24.273826,24.4181061 24.2718927,24.4181061 L24.2548393,24.4827592 C24.2722527,24.4894939 24.2838727,24.5063306 24.2838727,24.5258612 C24.2838727,24.5514531 24.264526,24.5709837 24.2393393,24.5709837 C24.215626,24.5709837 24.1962127,24.5521265 24.194806,24.5278816 L24.1875127,24.4022796 L24.1875,24.4021449 Z M23.6891927,24.6080245 C23.7087593,24.6255347 23.732846,24.6383306 23.7606773,24.6383306 C23.786764,24.6383306 23.8092173,24.6262082 23.8282553,24.6107184 L23.8245887,24.6174531 C23.808822,24.640351 23.7844487,24.6531469 23.7568807,24.6531469 C23.725934,24.6531469 23.703874,24.6342898 23.689172,24.6100449 L23.6891927,24.6080245 Z M24.3109373,24.6080245 C24.296244,24.6322694 24.2740573,24.6511265 24.2430987,24.6511265 C24.215532,24.6511265 24.191292,24.6383306 24.1755207,24.6154327 L24.171854,24.608698 C24.190874,24.6241878 24.213274,24.6363102 24.239302,24.6363102 C24.2671753,24.6363102 24.2913353,24.6235143 24.3109167,24.6060041 L24.3109373,24.6080245 Z"
				id="Shape" fill="#FFFFFF" fill-rule="nonzero"></path>
			<path
				d="M23.861198,24.7667612 C23.786158,24.7667612 23.7309427,24.8031286 23.684896,24.8446143 C23.6388493,24.8863694 23.5982793,24.9337143 23.5444013,24.9700143 L23.5752613,25.0292796 C23.577328,25.0292796 23.579128,25.0292796 23.581128,25.0225449 L23.5813947,25.022949 C23.5822613,25.0223429 23.5825947,25.022949 23.5834613,25.022949 C23.6523633,24.9926429 23.7024727,24.9441531 23.7864567,24.8956633 C23.82331,24.8741122 23.8536853,24.8768061 23.8867167,24.8848878 C23.91975,24.8929694 23.9508633,24.9111531 23.9903627,24.9111531 L23.9921627,24.9111531 C24.031656,24.9111531 24.0627753,24.8929694 24.0958087,24.8848878 C24.128842,24.8768061 24.159082,24.8741122 24.1959387,24.8956633 C24.2802527,24.9441531 24.332028,24.9931143 24.4010167,25.0230837 C24.4018167,25.0236224 24.40215,25.0230837 24.40295,25.0230837 L24.4032167,25.0226796 C24.4052167,25.0226796 24.4070833,25.0226796 24.4090833,25.0294143 L24.4399433,24.970149 C24.3859967,24.9337816 24.3449347,24.886302 24.2984067,24.8446143 C24.25188,24.8028592 24.1963613,24.7668959 24.1213233,24.7668959 C24.0870567,24.7668959 24.0404193,24.7830592 23.9912453,24.8066306 C23.942052,24.7837327 23.8954067,24.7668959 23.8611673,24.7668959 L23.861198,24.7667612 Z"
				id="Shape" fill="#FFFFFF" fill-rule="nonzero"></path>
			<path
				d="M24.1160153,24.9214571 C24.0572887,24.9214571 24.0236987,24.9376204 23.9920573,24.9376204 L23.9902573,24.9376204 C23.950584,24.9376204 23.906678,24.9187633 23.8174707,24.9221306 L23.8174707,24.9219959 L23.8173373,24.9219959 L23.8173373,24.9221306 C23.816604,24.9221306 23.8166707,24.9219959 23.8158707,24.9219959 C23.762664,24.9219959 23.6922613,24.9361388 23.5963393,24.9644245 C23.5952727,24.9646939 23.5946727,24.9645592 23.593606,24.9648286 L23.593606,24.9649633 C23.5925393,24.9653 23.5922727,24.9651653 23.5912727,24.965502 L23.6080727,25.0308286 C23.7210167,25.0052367 23.785312,25.0119714 23.8365887,25.0240939 C23.887862,25.0362163 23.9298727,25.0584408 23.9902347,25.0584408 L23.9920347,25.0584408 C24.0523947,25.0584408 24.0945353,25.0368898 24.1458107,25.0240939 C24.197084,25.0119714 24.2612493,25.0052367 24.374196,25.0308286 L24.390996,24.965502 C24.389796,24.9651653 24.3897293,24.965502 24.3885293,24.965098 L24.3886627,24.9648286 C24.3858627,24.9642224 24.384396,24.9644918 24.3816293,24.9648286 C24.2569067,24.9284612 24.1727247,24.9190327 24.116004,24.9224 L24.1160153,24.9214571 Z"
				id="Shape" fill="#FFFFFF" fill-rule="nonzero"></path>
			<path
				d="M23.6121093,24.9626061 C23.5971493,24.9628082 23.579756,24.9630102 23.5602893,24.9626061 L23.5600227,25.0299531 C23.6896307,25.0420755 23.70897,25.0764224 23.7468713,25.1205347 C23.7658247,25.1427592 23.7894247,25.168351 23.8274707,25.1858612 C23.8655173,25.2040449 23.9160247,25.2141469 23.9904913,25.2141469 L23.9924247,25.2141469 C24.0668933,25.2141469 24.1175293,25.2040449 24.155706,25.1858612 C24.1938793,25.1676776 24.2176327,25.1420857 24.2368253,25.1205347 C24.2752053,25.0767592 24.295232,25.0422776 24.4248467,25.0298184 L24.4247133,24.9624714 C24.42198,24.962202 24.42118,24.9624714 24.4184467,24.9630102 L24.4184467,24.9624714 C24.4174467,24.9625388 24.4172467,24.9630102 24.4162467,24.9631449 C24.3475133,24.9564102 24.2951287,24.9631449 24.2560907,24.9752673 C24.2149907,24.9894102 24.1872227,25.0123082 24.1650747,25.0331857 C24.1207813,25.0742673 24.1013613,25.1061898 23.9924187,25.1061898 L23.9904853,25.1061898 C23.88831,25.1061898 23.8660073,25.0785776 23.826944,25.0415367 C23.7878773,25.0044959 23.7324247,24.9590367 23.6121,24.9605184 L23.6121093,24.9626061 Z"
				id="Shape" fill="#FFFFFF" fill-rule="nonzero"></path>
			<path
				d="M23.992708,25.1525245 C23.8489407,25.1525245 23.7327253,25.2690347 23.727474,25.4130224 C23.7273407,25.4136959 23.7266073,25.4130224 23.7264073,25.4130224 L23.727074,25.4131571 C23.7270073,25.4131571 23.7255407,25.4198918 23.7255407,25.4212388 L23.791294,25.4293204 C23.813474,25.3349673 23.896798,25.2685633 23.992726,25.2685633 C24.0889007,25.2685633 24.171884,25.3352367 24.1940287,25.4293204 L24.200162,25.4549122 L24.226462,25.4549122 L24.2597953,25.4549122 L24.2686487,25.4549122 L24.258882,25.4131571 C24.2587487,25.4124837 24.2580153,25.4131571 24.2578153,25.4131571 C24.2525487,25.2691694 24.1364647,25.1527265 23.9927107,25.1527265 L23.992708,25.1525245 Z"
				id="Shape" fill="#FFFFFF" fill-rule="nonzero"></path>
			<path
				d="M23.4208333,23.5126939 C23.2437053,23.5261633 23.0672867,23.6240184 22.9208333,23.8226918 L22.8569,23.8785898 L22.9416653,23.8785898 L22.959372,23.8791286 L22.9669253,23.8690265 C23.2549153,23.6175531 23.6089,23.5847551 23.8005187,23.7634265 C23.847432,23.8274061 23.8777487,23.8951571 23.889972,23.9653327 C23.914232,24.1039327 23.8720187,24.2558 23.7596333,24.4162204 L23.7221333,24.4694245 L23.78698,24.4691551 C23.78238,24.4691551 23.79098,24.4691551 23.7980467,24.4758898 C23.8051333,24.4826245 23.81272,24.4853184 23.8152333,24.4873388 L23.8473933,24.5196653 L23.8683533,24.4792571 C23.9743293,24.2745898 24.0127,24.0621102 23.977468,23.8594633 C23.968228,23.8062592 23.953808,23.7543347 23.935148,23.7038918 L23.9320147,23.6951367 L23.9249813,23.688402 C23.7768467,23.5659653 23.5998027,23.4963286 23.4208147,23.5102694 L23.4208333,23.5126939 Z M23.4260333,23.5800408 C23.4761667,23.5733061 23.525652,23.5914898 23.5753827,23.6015918 C23.471088,23.5867755 23.3600253,23.6015918 23.246216,23.6386327 C23.305676,23.6110204 23.3655367,23.5840816 23.4260333,23.5800408 Z M23.853898,23.7261837 C23.860738,23.7329184 23.8686447,23.7329184 23.8753847,23.7389796 C23.886438,23.7699592 23.8938913,23.8016122 23.9011647,23.833602 C23.8848313,23.7979082 23.8782647,23.7598571 23.853898,23.7265204 L23.853898,23.7261837 Z"
				id="Shape" fill="#FFFFFF" fill-rule="nonzero"></path>
			<path
				d="M23.410156,23.7357469 C23.2714833,23.7358143 23.1606107,23.7916449 23.0877607,23.8495633 C23.0513207,23.8785224 23.024194,23.9074816 23.0067707,23.9326694 C22.9980573,23.9454653 22.9916773,23.9562408 22.9876307,23.9683633 C22.9856307,23.975098 22.9838307,23.9811592 22.984764,23.9905878 C22.9856973,24.0000163 22.9931707,24.0155061 23.0057307,24.0222408 C23.0172973,24.0289755 23.0288373,24.0289755 23.0360707,24.0222408 C23.043304,24.0222408 23.0482573,24.0155061 23.0529973,24.0141592 C23.0624707,24.0074245 23.0710773,24.0006898 23.081124,23.9926082 C23.1012173,23.9757714 23.1261307,23.9528735 23.1570353,23.930649 C23.218842,23.8855265 23.3026567,23.8404041 23.4102907,23.8404041 C23.4882953,23.8404041 23.5530447,23.8404041 23.62266,23.8983224 C23.702734,23.9658714 23.759136,23.9944265 23.7849,24.0074918 C23.79832,24.0142265 23.8160667,24.0155735 23.82982,24.0074918 C23.8435733,24.0007571 23.8520867,23.9906551 23.85716,23.9805531 C23.8622267,23.970451 23.8644867,23.9596755 23.86406,23.9482265 C23.86366,23.9367776 23.8603933,23.9233082 23.8493467,23.9125327 C23.8382667,23.9010837 23.8268,23.8990633 23.8187467,23.8970429 C23.8107,23.8970429 23.80376,23.8903082 23.7950467,23.8903082 C23.77762,23.8835735 23.7532467,23.8741449 23.717182,23.8438388 C23.64012,23.7791857 23.5840507,23.7310327 23.4102813,23.7309653 L23.410148,23.7309653 L23.410156,23.7357469 Z"
				id="Shape" fill="#FFFFFF" fill-rule="nonzero"></path>
			<path
				d="M23.417448,23.8270694 C23.3348813,23.8270694 23.2671873,23.8954265 23.2671873,23.9788694 C23.2671873,24.0622449 23.3348813,24.1306694 23.417448,24.1306694 C23.5000147,24.1306694 23.567708,24.0622449 23.567708,23.9788694 C23.567708,23.8954265 23.5000147,23.8270694 23.417448,23.8270694 Z M23.417448,23.8944163 C23.463988,23.8944163 23.5010413,23.9321306 23.5010413,23.9788694 C23.5010413,24.0260122 23.463988,24.0633224 23.417448,24.0633224 C23.370908,24.0633224 23.333854,24.0256082 23.333854,23.9788694 C23.333854,23.9317265 23.370914,23.8944163 23.417448,23.8944163 Z"
				id="Shape" fill="#FFFFFF" fill-rule="nonzero"></path>
			<path
				d="M23.773698,23.998198 C23.7496247,23.998198 23.731898,24.0089735 23.7085913,24.0224429 C23.6852847,24.0359122 23.6539713,24.0547694 23.602992,24.0803612 C23.510978,24.1268306 23.3663833,24.130198 23.1109347,24.0264837 L23.1069347,24.0264837 L22.980632,24.0109939 L23.0781587,24.0863551 C23.30813,24.2640163 23.544252,24.2536449 23.6870127,24.1671041 C23.753346,24.1266959 23.7872007,24.1017776 23.8062833,24.077398 C23.8110833,24.0706633 23.81513,24.0652755 23.8180033,24.0571939 C23.82087,24.0491122 23.8223367,24.0369898 23.8172033,24.0255408 C23.8121367,24.0140918 23.80185,24.0066837 23.7940233,24.0039898 C23.7862033,24.0039898 23.77973,23.9972551 23.77371,23.9972551 L23.773698,23.998198 Z M23.086068,24.0893184 L23.094268,24.0893184 C23.0943293,24.0893184 23.0943347,24.0894531 23.0944013,24.0894531 L23.086068,24.0894531 L23.086068,24.0893184 Z"
				id="Shape" fill="#FFFFFF" fill-rule="nonzero"></path>
			<path
				d="M24.013676,20.0604898 C23.9987481,20.0616876 23.9869083,20.0736911 23.985776,20.0887755 L23.8153033,22.4989878 C23.7434847,22.3199122 23.6437733,22.0506592 23.5891553,21.7935959 C23.5556487,21.6358694 23.604842,21.4566592 23.564942,21.2791327 C23.5092887,21.0314306 23.384556,20.8594939 23.2784873,20.5915878 C23.258794,20.541751 23.258914,20.4447714 23.2672073,20.363349 C23.2754873,20.2819939 23.2896473,20.2153878 23.2896473,20.2153878 C23.2925202,20.2023839 23.2867631,20.1889923 23.2753952,20.1822362 C23.2640274,20.1754801 23.2496436,20.1769016 23.2397873,20.1857551 C23.2397873,20.1857551 23.2031007,20.2187551 23.1641633,20.2628673 C23.1252367,20.3073163 23.0822913,20.3607898 23.070974,20.4175633 C23.0390673,20.5775122 23.086714,20.7311306 23.1446953,20.8802367 C23.202682,21.0293429 23.2713753,21.1754857 23.2914267,21.3208204 C23.3221467,21.5438061 23.2752667,21.7811367 23.3136267,22.0175918 C23.3450733,22.2114163 23.4394013,22.3832184 23.4761433,22.5624286 C23.4824767,22.5934082 23.48791,22.6425041 23.4919367,22.6842592 C23.4839633,22.6842592 23.4758833,22.6909939 23.4679567,22.6916673 L22.3749613,20.3863816 C22.3678002,20.3722161 22.3511158,20.3659207 22.3365155,20.3718751 C22.3219152,20.3778294 22.3142335,20.3940619 22.3188147,20.4092796 L23.0993527,22.7280347 C22.9700653,22.5869429 22.7759613,22.3638224 22.6313873,22.1363245 C22.5451327,22.0006204 22.5288433,21.8152816 22.4296913,21.6632122 C22.291372,21.4510694 22.1146147,21.3345592 21.9220787,21.1214061 C21.8863187,21.0816714 21.8527947,20.9909551 21.832214,20.9117551 C21.811634,20.8326224 21.8017007,20.7652082 21.8017007,20.7652082 C21.7998144,20.7520917 21.7898094,20.7416785 21.7768874,20.7393827 C21.7639654,20.7370869 21.7510437,20.7434268 21.7448407,20.7551061 C21.7448407,20.7551061 21.721954,20.7988816 21.700914,20.8542408 C21.679874,20.9094653 21.658274,20.9749265 21.667434,21.0321041 C21.6932407,21.193198 21.791336,21.3201469 21.897502,21.439149 C22.0036747,21.5580837 22.1187573,21.6704184 22.1881087,21.7993878 C22.2944753,21.9971857 22.3332053,22.2361327 22.451418,22.4438306 C22.5483033,22.614151 22.6964327,22.7415041 22.79319,22.8962 C22.8047833,22.9150571 22.8191767,22.9426694 22.8331967,22.9702143 L21.0195027,21.3402837 C21.007469,21.3299836 20.9896356,21.3306939 20.9784421,21.3419192 C20.9672486,21.3531445 20.9664149,21.3711542 20.9765227,21.3833857 L22.5932733,23.2271429 C22.431912,23.153398 22.1176253,23.0013959 21.8694807,22.825351 C21.73882,22.7326816 21.65445,22.5675469 21.5057487,22.4646408 C21.2982853,22.3211245 21.0910153,22.2805143 20.833,22.156798 C20.7850667,22.1339 20.720008,22.0625796 20.6713167,21.9971857 C20.6226367,21.9318592 20.5882167,21.8732 20.5882167,21.8732 C20.5814982,21.8617697 20.5682614,21.8560053 20.5554221,21.8589186 C20.5425828,21.8618319 20.5330576,21.8727611 20.5318233,21.8859959 C20.5318233,21.8859959 20.5270233,21.9351592 20.5282233,21.9943571 C20.5294233,22.0536224 20.5340233,22.122451 20.5638433,22.1718837 C20.6480373,22.3111571 20.786296,22.3911653 20.9291193,22.460802 C21.0719427,22.5303714 21.2206373,22.5903102 21.3331007,22.683249 C21.5056213,22.8256878 21.6308427,23.0321061 21.818042,23.1792592 C21.971478,23.2998102 22.1563373,23.3611633 22.303816,23.4674367 C22.3389027,23.4923551 22.3878827,23.5370061 22.4188507,23.5654939 L20.067858,22.7579367 C20.0528684,22.7533899 20.0369115,22.7610855 20.0309862,22.775719 C20.0250608,22.7903525 20.0311045,22.8071392 20.0449513,22.8145082 L22.26868,23.8903755 C22.0880447,23.8903755 21.7509713,23.8735388 21.4603653,23.8127918 C21.304,23.7804653 21.1614867,23.6625408 20.9845593,23.6278571 C20.7377153,23.5793673 20.5316127,23.6278571 20.2461667,23.6157347 C20.19314,23.6157347 20.10527,23.5746531 20.0348553,23.5341776 C19.9644467,23.4937694 19.9099747,23.4537653 19.9099747,23.4537653 C19.8993223,23.4458329 19.8848135,23.4457752 19.8740997,23.4536225 C19.8633858,23.4614699 19.8589297,23.4754184 19.8630813,23.4881122 C19.8630813,23.4881122 19.8780947,23.5352551 19.9024947,23.5890653 C19.9268947,23.6429429 19.9582013,23.7043633 20.0050627,23.7377 C20.1371153,23.831649 20.2954867,23.8495633 20.4539187,23.8560286 C20.61235,23.8627633 20.7723987,23.8560286 20.9121467,23.8977837 C21.1265213,23.9590694 21.3225767,24.0982755 21.55225,24.1580796 C21.7404947,24.2072429 21.9342647,24.1890592 22.1113867,24.2275143 C22.1413133,24.234249 22.1875333,24.2483918 22.2265367,24.2611878 L19.7512533,24.3802571 C19.7352161,24.381063 19.7225661,24.3943321 19.722372,24.4105518 C19.722178,24.4267715 19.7345067,24.4403456 19.75052,24.4415429 L22.1361753,24.6136143 C21.958926,24.6861469 21.6925773,24.786898 21.4382633,24.8420551 C21.2821593,24.8757286 21.1047513,24.8258918 20.9289853,24.8663 C20.683776,24.922198 20.513486,25.0486082 20.248286,25.1557571 C20.1990327,25.1759612 20.10308,25.1752878 20.0224907,25.1672061 C19.9419013,25.158451 19.876002,25.1443082 19.876002,25.1443082 C19.8630959,25.1413992 19.849809,25.1472539 19.8431393,25.1587885 C19.8364695,25.1703231 19.8379478,25.1848906 19.8467953,25.1948184 C19.8467953,25.1948184 19.8793287,25.2318592 19.9231307,25.2711898 C19.966944,25.310251 20.0199487,25.3538918 20.0761467,25.3653408 C20.2344933,25.3976673 20.3866773,25.3491776 20.5342593,25.2908551 C20.681836,25.2322633 20.826422,25.1630306 20.9702967,25.1427592 C21.1910167,25.1117796 21.4260633,25.1589224 21.6601373,25.1205347 C21.85198,25.0888816 22.022088,24.993451 22.1994473,24.9563429 C22.225154,24.9496082 22.264614,24.9462408 22.3011887,24.9422 C22.304322,24.952302 22.3078887,24.9617306 22.3111553,24.9718327 L20.044928,26.0683082 C20.0310812,26.0756771 20.0250375,26.0924638 20.0309628,26.1070974 C20.0368882,26.1217309 20.0528451,26.1294264 20.0678347,26.1248796 L22.272928,25.3674959 C22.1386627,25.5025939 21.9536393,25.6774265 21.765194,25.8134 C21.635268,25.9071469 21.45298,25.9327388 21.3075553,26.0402918 C21.104668,26.1903408 20.998046,26.3744673 20.7968547,26.5792694 C20.7594813,26.6169837 20.6713353,26.6556408 20.5940893,26.6803571 C20.5168487,26.7052755 20.450682,26.7180714 20.450682,26.7180714 C20.4378119,26.7206839 20.4280565,26.7313484 20.4264924,26.7445153 C20.4249283,26.7576821 20.4319091,26.7703755 20.443802,26.7759898 C20.443802,26.7759898 20.488202,26.7968673 20.543872,26.8157245 C20.5995453,26.8339082 20.665288,26.8527653 20.7213527,26.8406429 C20.8793347,26.8069694 21.0000153,26.7015041 21.1123933,26.5884959 C21.2247653,26.4754878 21.3302327,26.3536571 21.4542867,26.2772857 C21.64461,26.1601694 21.878812,26.1092551 22.078356,25.9797469 C22.2418993,25.8735408 22.36055,25.7178347 22.5086913,25.6125041 C22.5341647,25.5943204 22.576408,25.5700755 22.612688,25.5498714 L20.9644767,27.4295918 C20.9543856,27.4418236 20.9552252,27.4598186 20.9664104,27.4710373 C20.9775956,27.482256 20.9954144,27.4829752 21.00745,27.4726939 L22.8393113,25.8264653 C22.7695833,25.9911959 22.625982,26.3111612 22.4571747,26.5650592 C22.3681733,26.6990122 22.2063867,26.7877755 22.107684,26.9401143 C21.9699727,27.1525939 21.9342573,27.3627837 21.8171933,27.6259082 C21.7954467,27.6750714 21.726228,27.7420816 21.6625053,27.7926592 C21.5987853,27.8431694 21.5415393,27.8791327 21.5415393,27.8791327 C21.5304848,27.88617 21.5251198,27.8995574 21.5282149,27.9123815 C21.53131,27.9252056 21.5421723,27.9345963 21.5551927,27.9357041 C21.5551927,27.9357041 21.6040727,27.9424388 21.6626293,27.9357041 C21.7211827,27.9357041 21.7892113,27.926949 21.83749,27.8959694 C21.9735487,27.8080143 22.0498833,27.6666531 22.115758,27.5209816 C22.1816247,27.3752429 22.237976,27.2238469 22.3275433,27.1082796 C22.4649567,26.9310898 22.6665007,26.8002347 22.808212,26.6080939 C22.924358,26.4506367 22.9812187,26.2626714 23.083264,26.1114776 C23.0957307,26.0932939 23.1156507,26.0683755 23.1357373,26.0435918 L22.3419067,28.4024184 C22.3373255,28.4176361 22.3450072,28.4338686 22.3596075,28.4398229 C22.3742078,28.4457773 22.3908922,28.4394818 22.3980533,28.4253163 L23.4631433,26.1788918 C23.4599433,26.3613347 23.4463167,26.7017735 23.3863407,26.9954061 C23.3540807,27.153402 23.237506,27.2974571 23.2031647,27.4761959 C23.1552513,27.7255816 23.200898,27.9336837 23.191058,28.2219959 C23.189258,28.2758735 23.150278,28.3643673 23.1102133,28.4354857 C23.07014,28.5066041 23.0306753,28.5617612 23.0306753,28.5617612 C23.0230794,28.5725018 23.0231292,28.5869449 23.030799,28.5976318 C23.0384687,28.6083188 23.0520417,28.6128575 23.0645087,28.6089041 C23.0645087,28.6089041 23.1111753,28.5934143 23.1644627,28.5691694 C23.2177493,28.544251 23.2784153,28.5132714 23.3114253,28.4657245 C23.4044627,28.3323102 23.422284,28.1722265 23.4287147,28.0121429 C23.4351813,27.8521265 23.4305813,27.6904265 23.470268,27.5492673 C23.531128,27.3326796 23.668748,27.1346122 23.727998,26.902602 C23.7765647,26.7124143 23.758858,26.5167041 23.7967287,26.3377633 C23.8031287,26.3074571 23.8173287,26.2610551 23.8300887,26.2217918 L23.9479673,28.7219796 C23.9489768,28.7381546 23.9622573,28.7507514 23.9783007,28.7507514 C23.994344,28.7507514 24.0076246,28.7381546 24.008634,28.7219796 L24.1791007,26.3117 C24.2509253,26.4907755 24.3506367,26.7600959 24.4052487,27.0170918 C24.4387553,27.1748184 24.3895687,27.3540286 24.4294687,27.5315551 C24.485122,27.7793245 24.6099707,27.9511939 24.7160393,28.2191 C24.7357327,28.2689367 24.735486,28.3659163 24.7271993,28.4473388 C24.7189193,28.5287612 24.704766,28.5953 24.704766,28.5953 C24.7018931,28.6083039 24.7076503,28.6216954 24.7190181,28.6284515 C24.7303859,28.6352076 24.7447697,28.6337862 24.754626,28.6249327 C24.754626,28.6249327 24.791306,28.5919327 24.8302433,28.5478204 C24.8691767,28.5033714 24.9121153,28.4499653 24.9234333,28.3931918 C24.9553333,28.2332429 24.9076933,28.0794898 24.849712,27.930451 C24.7917253,27.7813449 24.7231533,27.6352694 24.703102,27.4899347 C24.672382,27.266949 24.719142,27.0296184 24.680782,26.7931633 C24.6493353,26.5994061 24.5551293,26.427402 24.5183873,26.2482592 C24.5121873,26.2179531 24.5066007,26.1694633 24.502594,26.1281796 C24.510754,26.1281796 24.519054,26.1214449 24.5271673,26.1207714 L25.6194447,28.4244408 C25.6266058,28.4386063 25.6432902,28.4449017 25.6578905,28.4389474 C25.6724908,28.432993 25.6801725,28.4167605 25.6755913,28.4015429 L24.895054,26.0826531 C25.0243353,26.2237449 25.2184213,26.4469327 25.3630253,26.674498 C25.4492793,26.810202 25.4656847,26.9954735 25.5648367,27.1474755 C25.703156,27.3596184 25.879798,27.4763306 26.072334,27.6894163 C26.108094,27.729151 26.141618,27.8198673 26.1621987,27.8990673 C26.1827787,27.9782 26.1927053,28.0456143 26.1927053,28.0456143 C26.1945245,28.0588121 26.2045627,28.069318 26.2175547,28.0716214 C26.2305467,28.0739248 26.2435263,28.0674997 26.2496853,28.0557163 C26.2496853,28.0557163 26.2724453,28.0119408 26.2934987,27.956649 C26.314532,27.9014245 26.336132,27.8359633 26.326972,27.7787857 C26.3011653,27.6176918 26.203076,27.4907429 26.0969093,27.3717408 C25.9907373,27.2528061 25.8756487,27.1403367 25.8062973,27.0113673 C25.6999307,26.8135694 25.6612067,26.5747571 25.542994,26.3670592 C25.4461087,26.1968061 25.2979733,26.0693857 25.201216,25.9146898 C25.1896427,25.8965061 25.175216,25.8688939 25.1612093,25.8408102 L26.9749093,27.4706061 C26.9869449,27.4808875 27.0047637,27.4801682 27.0159489,27.4689495 C27.0271341,27.4577308 27.0279737,27.4397358 27.0178827,27.4275041 L25.4012533,25.5838143 C25.5626447,25.6575592 25.876828,25.8094265 26.124924,25.9854041 C26.2555853,26.0780735 26.3399613,26.2434102 26.488662,26.346249 C26.696126,26.4897653 26.9033893,26.5302408 27.1614047,26.6539571 C27.209338,26.6768551 27.2744027,26.7483102 27.3230947,26.8137041 C27.3717747,26.8790306 27.4061947,26.9377571 27.4061947,26.9377571 C27.4129154,26.9491816 27.4261488,26.9549414 27.4389843,26.9520286 C27.4518197,26.9491159 27.4613432,26.9381918 27.4625813,26.9249612 C27.4625813,26.9249612 27.4673813,26.875798 27.4661813,26.816398 C27.4649813,26.7571327 27.4603813,26.6884388 27.430568,26.6390061 C27.346374,26.4998 27.2081093,26.4197245 27.0652867,26.3501551 C26.9224633,26.2805857 26.7737687,26.2204449 26.6613053,26.1275735 C26.488784,25.9850673 26.3635633,25.7787837 26.176364,25.631698 C26.032714,25.5187571 25.8619493,25.4572694 25.7196733,25.3627816 L27.9321273,26.1227918 C27.9471193,26.1273482 27.9630848,26.1196548 27.9690135,26.1050172 C27.9749423,26.0903796 27.9688944,26.0735871 27.9550407,26.0662204 L25.7310687,24.9902857 C25.9116187,24.9902857 26.24885,25.0071224 26.539626,25.0678694 C26.6959913,25.1001959 26.8386207,25.2181878 27.015548,25.2529388 C27.262392,25.3014286 27.4683727,25.2529388 27.7538187,25.2650612 C27.8068453,25.2650612 27.8947153,25.3061429 27.96513,25.3467531 C28.0355387,25.3871612 28.090132,25.4272327 28.090132,25.4272327 C28.1007872,25.4350665 28.1152259,25.4350712 28.1258861,25.4272443 C28.1365462,25.4194173 28.1409989,25.4055422 28.136912,25.3928857 C28.136912,25.3928857 28.121892,25.3457429 28.0974987,25.2919327 C28.0730987,25.2380551 28.041912,25.1768367 27.9950527,25.1435 C27.8629993,25.0494837 27.7045133,25.031502 27.5460813,25.0249694 C27.3876493,25.0182347 27.2275947,25.0249694 27.0878467,24.9832143 C26.873472,24.9219286 26.6774227,24.7827224 26.4477493,24.722851 C26.2595047,24.6736878 26.0657287,24.6918714 25.8886067,24.653551 C25.8588333,24.6468163 25.8127093,24.6326735 25.7738153,24.6198776 L28.24874,24.5008082 C28.2647773,24.5000023 28.2774272,24.4867333 28.2776213,24.4705135 C28.2778154,24.4542938 28.2654866,24.4407197 28.2494733,24.4395224 L25.863702,24.2673163 C26.0409453,24.1947163 26.30747,24.0939653 26.5618513,24.0388082 C26.7179553,24.0051347 26.8953627,24.0549714 27.0711293,24.0145633 C27.316338,23.9586653 27.4865127,23.8323224 27.7517127,23.7251735 C27.8009727,23.7049694 27.897034,23.7056429 27.977624,23.7137245 C28.0582133,23.7218061 28.124112,23.7366224 28.124112,23.7366224 C28.136998,23.7394619 28.1502262,23.7335817 28.1568593,23.7220657 C28.1634923,23.7105498 28.1620163,23.6960264 28.1532053,23.6861122 C28.1532053,23.6861122 28.120672,23.6490714 28.0768707,23.6098082 C28.0330573,23.5707469 27.980046,23.5269714 27.923848,23.5155898 C27.7655013,23.4832633 27.613318,23.5317531 27.4657353,23.5900082 C27.3181587,23.6486 27.1735793,23.7180347 27.029704,23.7382388 C26.808984,23.7692184 26.5740533,23.7220755 26.3399793,23.7604633 C26.148136,23.7921163 25.9779067,23.8875469 25.8005473,23.9246551 C25.7793673,23.9313898 25.7487807,23.9327367 25.7181653,23.9367776 C25.7148987,23.9246551 25.7112587,23.9118592 25.7077187,23.8997367 L27.9550733,22.8124878 C27.968927,22.805121 27.9749749,22.7883285 27.9690462,22.773691 C27.9631175,22.7590534 27.947152,22.7513599 27.93216,22.7559163 L25.6160747,23.5514857 C25.73915,23.4216408 25.98369,23.1747469 26.2292273,22.9975571 C26.3591533,22.9038102 26.5414413,22.8780837 26.686866,22.7705306 C26.8897533,22.6204816 26.9963753,22.4365571 27.1975667,22.2317551 C27.23494,22.1933673 27.3230793,22.1553163 27.400326,22.1306673 C27.4775667,22.105749 27.5437327,22.0929531 27.5437327,22.0929531 C27.5566184,22.0903757 27.5664069,22.0797273 27.5679989,22.0665552 C27.5695909,22.053383 27.562626,22.0406683 27.5507327,22.0350347 C27.5507327,22.0350347 27.5062127,22.0141571 27.4505413,21.9953 C27.394868,21.9771163 27.3291313,21.9582592 27.2730667,21.9703816 C27.1150847,22.0047286 26.994404,22.1095878 26.882026,22.2225959 C26.769654,22.3355367 26.6641867,22.4573 26.5401327,22.5336714 C26.3498087,22.6507878 26.1156013,22.7016347 25.9160573,22.8312102 C25.752514,22.937349 25.6338633,23.0931224 25.4857213,23.1983857 C25.4602013,23.2165694 25.4179327,23.2408143 25.3816093,23.2616918 L27.0299427,21.3818367 C27.0400337,21.369605 27.0391941,21.35161 27.0280089,21.3403913 C27.0168237,21.3291726 26.9990049,21.3284533 26.9869693,21.3387347 L25.154986,22.985098 C25.224678,22.8204347 25.36837,22.500402 25.537244,22.2463694 C25.626246,22.1124837 25.7880327,22.0237204 25.8867353,21.8713816 C26.0244467,21.6588347 26.060162,21.4487122 26.177226,21.1855204 C26.1989727,21.1363571 26.2681847,21.0693469 26.3319073,21.0188367 C26.3956273,20.9683265 26.452874,20.9323633 26.452874,20.9323633 C26.4639285,20.9253259 26.4692935,20.9119385 26.4661984,20.8991144 C26.4631034,20.8862903 26.452241,20.8768996 26.4392207,20.8757918 C26.4392207,20.8757918 26.3903473,20.8690571 26.33179,20.8757918 C26.2732367,20.8757918 26.2052073,20.8845469 26.1569233,20.9155265 C26.0208647,21.0034143 25.944536,21.1447755 25.8786613,21.2905143 C25.8127947,21.4361857 25.7564367,21.587649 25.666876,21.703149 C25.529462,21.8804061 25.3279187,22.0111939 25.1862073,22.2033347 C25.0700607,22.3608592 25.013194,22.5488245 24.9111487,22.699951 C24.898662,22.7181347 24.8786953,22.7437265 24.858562,22.7681061 L25.652514,20.4091449 C25.6571159,20.3939193 25.649435,20.3776659 25.6348219,20.3717071 C25.6202089,20.3657482 25.6035111,20.3720606 25.5963607,20.3862469 L24.53127,22.6328735 C24.53447,22.450498 24.5480833,22.1097224 24.6080793,21.8159551 C24.6403393,21.6580265 24.7569133,21.5140388 24.7912547,21.3353 C24.839168,21.0859816 24.7935213,20.8778796 24.8033613,20.5895 C24.8051613,20.5362959 24.8441413,20.4471959 24.8842,20.3760102 C24.92428,20.3048918 24.963738,20.2497347 24.963738,20.2497347 C24.9713339,20.2389941 24.9712841,20.224551 24.9636144,20.2138641 C24.9559446,20.2031772 24.9423716,20.1986385 24.9299047,20.2025918 C24.9299047,20.2025918 24.883238,20.2174082 24.82995,20.2423265 C24.7766633,20.2672449 24.715992,20.2982245 24.6829813,20.3458388 C24.58995,20.4791857 24.5721233,20.639202 24.5656927,20.7992184 C24.559226,20.959302 24.563826,21.121002 24.5241393,21.2621612 C24.4632793,21.478749 24.3256647,21.6768837 24.2664153,21.9088939 C24.2178487,22.0990816 24.2356753,22.2948592 24.1978,22.4737327 C24.1914,22.5040388 24.1771,22.5505082 24.16432,22.5898388 L24.0464353,20.0895163 C24.0459955,20.0812484 24.0422687,20.0735104 24.0361005,20.0680578 C24.0299324,20.0626053 24.0218458,20.0599005 24.0136753,20.0605571 L24.013676,20.0604898 Z M24.0000227,22.7937653 C24.8832133,22.7937653 25.597184,23.515051 25.597184,24.4072633 C25.597184,25.2994082 24.8832133,26.0208286 24.0000227,26.0208286 C23.1168313,26.0208286 22.4028547,25.2994082 22.4028547,24.4072633 C22.4028547,23.515051 23.1168313,22.7937653 24.0000227,22.7937653 Z"
				id="Shape" fill="#FFFFFF"></path>
		</g>
	</g>
</svg>
