<?xml version="1.0" encoding="UTF-8"?>
<svg width="48px" height="48px" viewBox="0 0 48 48" version="1.1" xmlns="http://www.w3.org/2000/svg"
		 xmlns:xlink="http://www.w3.org/1999/xlink">
	<!-- Generator: Sketch 43.1 (39012) - http://www.bohemiancoding.com/sketch -->
	<title>bagel-green</title>
	<desc>Created with Sketch.</desc>
	<defs></defs>
	<g id="UI-KIT" stroke="none" stroke-width="1" fill="none" fill-rule="evenodd">
		<g id="bagel-green" fill-rule="nonzero" fill="#39CE7B">
			<path
				d="M39.9267898,28.234425 C39.7247401,29.2545042 39.1201514,30.1437231 38.255056,30.7065278 C38.4674354,31.7175332 38.2641915,32.7734917 37.6835156,33.6359292 C37.1179159,34.4785502 36.2372305,35.0605856 35.243799,35.2571105 C35.044696,36.2521847 34.4607507,37.1321817 33.6167105,37.6961898 C32.7535646,38.27353 31.6980045,38.4745858 30.6881984,38.2616408 C30.1240871,39.1261111 29.2340739,39.7291261 28.2135645,39.9292761 C27.9717367,39.9763599 27.7263926,40 27.4814789,40 C26.4963965,40 25.5425456,39.6191927 24.8351426,38.9418455 L24.477681,38.6525021 C24.0613254,38.6840021 23.6947296,38.7001858 23.3399775,38.7001858 C14.8811883,38.7001858 8,31.814306 8,23.3497406 C8,21.5763066 8.30288445,19.8419748 8.8879682,18.2025963 C8.83684043,18.1405242 8.79780839,18.0745714 8.7710186,18.0007015 C8.4535881,17.125118 8.31737072,16.2053105 8.36594912,15.2673034 C8.46270191,13.4115804 9.27631918,11.7036206 10.6561804,10.4599471 C12.035279,9.21728478 13.8190579,8.58528616 15.6730314,8.68110858 C16.356341,8.71687686 17.0291289,8.85443562 17.6760637,9.08881879 C19.4688924,8.37303425 21.3808952,8 23.3399775,8 C31.7988316,8 38.6799516,14.8855911 38.6803071,23.3497406 C38.6803071,23.6938787 38.6650386,24.0488682 38.6353855,24.4460619 L39.157464,25.0990181 C39.2275228,25.1851209 39.241795,25.2030843 39.2556475,25.2221764 L39.2938101,25.3160607 C39.8940674,26.1084763 40.1341804,27.1927772 39.9267898,28.234425 Z M19.8627357,35.5781658 C19.9364335,35.5781658 20.0108132,35.5670125 20.0833463,35.5449788 L21.7909819,35.0170902 C22.186724,34.8949042 22.4085467,34.4751438 22.2861469,34.079165 C22.1644065,33.6839022 21.745854,33.4631009 21.349535,33.583131 L19.6417807,34.1110557 C19.2460386,34.2332416 19.0242159,34.6530021 19.1466157,35.0489809 C19.2442114,35.3652979 19.5365515,35.5781658 19.8627357,35.5781658 Z M9.85685154,15.6810868 L9.87080529,16.0173064 C11.1859719,13.6073849 13.1282933,11.5853322 15.4815115,10.1746281 C14.0685725,10.1286629 12.7147239,10.6237772 11.6598757,11.5747417 C10.5771633,12.5504832 9.93959918,13.8890736 9.86384377,15.345506 C9.85799861,15.4572329 9.85567958,15.5691066 9.85685154,15.6810868 Z M26.6381484,38.3387499 C27.0469396,38.4978185 27.4931758,38.5409184 27.9253109,38.4568225 C28.5536724,38.3336876 29.0969216,37.9601544 29.4387982,37.4308965 C28.5406278,37.8221783 27.6034645,38.1263577 26.6381484,38.3387499 Z M30.8161177,36.7471437 C31.4810209,36.9443054 32.2014138,36.8380496 32.7833547,36.4487352 C33.4115866,36.0286419 33.7986496,35.3226854 33.8185153,34.5603288 C33.8186305,34.5557595 33.8187863,34.5512004 33.8189825,34.5466519 C32.9137684,35.3955005 31.90591,36.1359166 30.8161177,36.7471437 Z M34.5510063,33.829352 C35.3114047,33.8127962 36.0182065,33.4270933 36.4394589,32.7992642 C36.8339931,32.212941 36.9398918,31.4856897 36.7368774,30.8158756 C36.125544,31.9098671 35.3845863,32.9215065 34.5348559,33.8298959 C34.5402248,33.8296582 34.5456085,33.8294767 34.5510063,33.829352 Z M38.4563384,27.9427478 C38.5451608,27.4958224 38.4976264,27.0346096 38.3264269,26.6149829 C38.1127208,27.5994115 37.8040044,28.5543204 37.4049629,29.46921 C37.9465781,29.1293842 38.3298864,28.5804131 38.4563384,27.9427478 Z M23.3399775,26.322097 C24.9768797,26.322097 26.3088674,24.988703 26.3092027,23.3500929 C26.3092027,21.7115953 24.9769987,20.3780888 23.3399775,20.3780888 C21.7025841,20.3780888 20.3700483,21.7116156 20.3700483,23.3500929 C20.3700483,24.9885702 21.7025841,26.322097 23.3399775,26.322097 Z M32.2763272,31.9644004 C32.3879575,31.9644004 32.4991341,31.9392937 32.6021269,31.8899101 C32.9755804,31.7096544 33.1316595,31.2610868 32.9511235,30.8883461 L32.1743201,29.2780558 C31.9938442,28.9045601 31.5457577,28.7485766 31.1729582,28.929608 C30.8000502,29.1096005 30.6438499,29.5574647 30.8242136,29.9307281 L31.6007244,31.5404366 C31.7280913,31.8026365 31.9913496,31.9644004 32.2763272,31.9644004 Z M25.5766703,33.1091635 C25.5828083,33.5189271 25.9165662,33.8478982 26.3349536,33.8478982 L28.1239688,33.8218156 C28.5384429,33.8152255 28.8689832,33.4744174 28.862838,33.0602131 C28.8576458,32.651468 28.5290294,32.3376457 28.1099451,32.321432 L26.3154781,32.3481089 C25.9011796,32.3538179 25.5700834,32.6947873 25.5766703,33.1091635 Z M10.4849172,24.0240443 C10.4910546,24.4342079 10.8254102,24.7636409 11.2435549,24.7636409 L13.0326286,24.7368529 C13.4470442,24.7302636 13.7775845,24.3894555 13.7714392,23.9752512 C13.7657828,23.5642263 13.4276371,23.2394495 13.01391,23.2363633 L11.2234055,23.2627944 C10.8093687,23.2689453 10.4787715,23.6098161 10.4849172,24.0240443 Z M18.801751,14.6652466 C19.0634693,14.6652466 19.3085882,14.5290994 19.4459649,14.2999858 L20.3637476,12.7661592 C20.5763242,12.4106034 20.4609692,11.9499624 20.1056186,11.7370491 C19.7501103,11.5242177 19.2896214,11.6398241 19.0768994,11.9957672 L18.1592275,13.5294087 C17.9463378,13.8847539 18.0618594,14.3455178 18.4173565,14.5585189 C18.5349595,14.6289559 18.6676367,14.6652466 18.801751,14.6652466 Z M33.3591371,16.9031111 C33.7306252,16.9031111 34.0485461,16.628868 34.1011834,16.25755 C34.1591569,15.8470706 33.8735978,15.4675664 33.4631981,15.4100282 L31.6951296,15.1606501 C31.2843296,15.1031173 30.9056846,15.3886138 30.8481639,15.7989965 C30.7906348,16.2094388 31.0759284,16.5887707 31.4861816,16.6462882 L33.2542501,16.8956663 C33.2880351,16.9006786 33.3232829,16.9031111 33.3591371,16.9031111 Z M34.9918004,24.6681803 C35.4058748,24.6681803 35.7420931,24.3317381 35.7416539,23.9177674 L35.7405979,22.131209 C35.740598,21.7170148 35.4043856,21.3813939 34.9900403,21.3813939 C34.5757884,21.3813939 34.2405387,21.7172742 34.2405387,22.1316491 L34.2419468,23.9183944 C34.2423858,24.3326321 34.5778464,24.6681803 34.9918004,24.6681803 Z M14.7327654,32.0478844 C15.1138322,32.0478844 15.4363029,31.7592706 15.4768596,31.3774354 L15.6690308,29.6013121 C15.7133332,29.1895962 15.4161402,28.8200284 15.0047352,28.7743351 C14.5913975,28.7307714 14.2223781,29.0280278 14.1780773,29.4401672 L13.9862351,31.2165056 C13.941478,31.6283689 14.2390491,31.9986786 14.6508625,32.0434898 C14.6912473,32.0469788 14.6912473,32.0469788 14.7327654,32.0478844 Z M25.7203288,13.2823007 L25.7326494,13.2823007 L27.5217816,13.2463408 C27.9359558,13.2379991 28.2645538,12.895606 28.2566509,12.4813047 C28.2481759,12.0608386 27.9084458,11.7272863 27.4881173,11.7463654 L25.7057235,11.7821725 C25.2913927,11.7909657 24.9624365,12.1334548 24.9712126,12.5475233 C24.9790998,12.9557527 25.3123219,13.2823007 25.7203288,13.2823007 Z M13.021954,20.2780488 C13.0115873,20.278104 13.0115873,20.278104 12.9862416,20.2736503 C12.934414,20.2640232 12.934414,20.2640232 12.8740525,20.1297943 L13.0229731,20.2784008 C13.4372608,20.2775225 13.7722465,19.9414992 13.7718075,19.5272839 L13.7696954,17.7402853 C13.7692564,17.3264986 13.433484,16.9909102 13.0191378,16.9909102 C12.6047035,16.9913494 12.2695492,17.3276777 12.2699883,17.7420275 L12.2721005,19.5286738 C12.2725392,19.9427044 12.6082035,20.2780488 13.021954,20.2780488 Z M17.0092318,26.836996 C17.1532686,26.8387072 17.2927815,26.79861 17.4133818,26.7231281 C17.6287696,26.5883085 17.7635894,26.3529368 17.7661578,26.0942113 C17.7701065,25.6797624 17.4383276,25.3412475 17.0242247,25.3368532 L15.7948885,25.3245235 C15.3806849,25.3201281 15.0410766,25.6532991 15.0375655,26.0678767 C15.0327406,26.4812761 15.3653404,26.8206233 15.7795007,26.8250181 L17.0092318,26.836996 Z M23.741279,32.0743034 C24.0356486,32.0743034 24.306217,31.9017167 24.4276924,31.6276782 L24.9258199,30.5028865 C25.0939489,30.1246744 24.9230839,29.6809729 24.5445,29.5135292 C24.1663176,29.3440203 23.7226716,29.5156667 23.5546855,29.8954272 L23.0566048,31.0201132 C22.8887796,31.3986306 23.059583,31.8421722 23.438335,32.0094962 C23.5350661,32.0522764 23.6385356,32.0743034 23.741279,32.0743034 Z M19.2618395,31.9143805 C19.4420037,31.9143805 19.6168739,31.8500083 19.7553046,31.7290146 C20.0670453,31.4561697 20.0986908,30.9818509 19.8260038,30.670315 L19.0167903,29.7443303 C18.7441228,29.4319379 18.2697588,29.4003832 17.9583995,29.6741575 C17.6469826,29.9458396 17.6153105,30.4202864 17.8880321,30.7318619 L18.6972455,31.6578465 C18.8414795,31.822734 19.0472252,31.9143805 19.2618395,31.9143805 Z M17.9699305,17.9676202 C18.1504188,17.9676202 18.3250264,17.9032604 18.4632149,17.7821044 C18.7750292,17.5095792 18.8065416,17.0352185 18.5337427,16.7235547 L17.7245108,15.7979012 C17.4513861,15.4854881 16.9774329,15.4536799 16.6661384,15.7273973 C16.3547255,15.9995154 16.3230667,16.4738982 16.595771,16.7854539 L17.405376,17.7111315 C17.5497703,17.8761413 17.7554025,17.9676202 17.9699305,17.9676202 Z M26.6134005,18.1578369 C26.6547903,18.1578369 26.6952915,18.1545685 26.736412,18.1477106 L27.9489027,17.9473141 C28.3572379,17.8795794 28.6334947,17.4931876 28.5654954,17.0844813 C28.4988216,16.6758275 28.1123776,16.3988934 27.7034714,16.4670165 L26.4913003,16.6674184 C26.0829263,16.7351595 25.8063707,17.1215892 25.8743625,17.53025 C25.9338212,17.8933232 26.248621,18.1578369 26.6134005,18.1578369 Z M31.9183241,25.9049412 C32.0587776,25.9049412 32.1969854,25.8655556 32.3186746,25.7892348 C32.668495,25.5668771 32.7726489,25.1043862 32.5519813,24.7545071 L31.8954167,23.7149296 C31.6758239,23.3644858 31.2125704,23.2603237 30.861841,23.4815447 C30.5111139,23.7024873 30.406561,24.1656798 30.6282491,24.5162241 L31.2843695,25.5549512 C31.4226285,25.7752893 31.6628897,25.9049412 31.9183241,25.9049412 Z M28.3361806,29.1611696 C28.5141392,29.1611696 28.6856815,29.0994465 28.8224061,28.9818706 L29.758189,28.1855762 C30.0735288,27.9170513 30.1115347,27.4435624 29.8430166,27.1278874 C29.574882,26.8129493 29.101177,26.7747285 28.7864432,27.0431111 L27.8501903,27.839808 C27.5349276,28.1073884 27.4967162,28.581743 27.7650653,28.8968565 C27.9093768,29.0664714 28.1183482,29.1611696 28.3361806,29.1611696 Z M15.9468783,21.4270987 C16.0958437,21.4270987 16.2418936,21.3830621 16.3672914,21.2978377 L17.3845141,20.6078495 C17.7272989,20.3755142 17.8168871,19.9090735 17.5846787,19.5660196 C17.3523506,19.2227889 16.8859995,19.1329888 16.5428642,19.3657034 L15.525521,20.0557734 C15.1829931,20.2886716 15.0935834,20.755025 15.3257083,21.0979557 C15.4673278,21.3064592 15.7000989,21.4270987 15.9468783,21.4270987 Z M31.7599156,20.5447045 C31.9409958,20.5447045 32.1170827,20.4794608 32.2559062,20.3572148 C32.5663769,20.0825711 32.5955499,19.6087024 32.3215959,19.2981023 L31.5077,18.3758713 C31.2328232,18.0652205 30.7598489,18.0359113 30.4491799,18.3103426 C30.139219,18.5844848 30.1097813,19.0582451 30.3831648,19.369135 L31.1975994,20.2912257 C31.3415593,20.4545174 31.5459797,20.5447045 31.7599156,20.5447045 Z M22.4923162,16.4934407 C22.6693096,16.4934407 22.8409013,16.4313562 22.9781647,16.3141126 L23.9139936,15.5174771 C24.228854,15.2489865 24.2669734,14.7760461 23.9993076,14.4603415 C23.7306111,14.1444565 23.2573193,14.1064158 22.9419526,14.3749636 L22.0062839,15.1717626 C21.6907004,15.4401213 21.6525551,15.9136548 21.9211462,16.2294156 C22.0655107,16.3990927 22.2741094,16.4934407 22.4923162,16.4934407 Z"
				id="Combined-Shape"></path>
		</g>
	</g>
</svg>
