<?xml version="1.0" encoding="UTF-8"?>
<svg width="48px" height="48px" viewBox="0 0 48 48" version="1.1" xmlns="http://www.w3.org/2000/svg"
		 xmlns:xlink="http://www.w3.org/1999/xlink">
	<!-- Generator: Sketch 43.1 (39012) - http://www.bohemiancoding.com/sketch -->
	<title>bakery</title>
	<desc>Created with Sketch.</desc>
	<defs></defs>
	<g id="UI-KIT" stroke="none" stroke-width="1" fill="none" fill-rule="evenodd">
		<g id="bakery" fill-rule="nonzero" fill="#455A64">
			<path
				d="M40.0896773,29.8528166 C39.6749878,28.7537439 39.0123928,27.6653443 38.0475505,26.6560426 C35.3124907,23.7949529 30.6985204,22.0808266 23.75,22.0808266 C16.8162173,22.0808266 12.2056662,23.7943766 9.46574338,26.6546289 C8.49913176,27.6636912 7.833865,28.7518419 7.41597095,29.8506572 C7.15569171,30.5350383 7.03546138,31.0937261 7.00414881,31.4379891 L7,31.5211644 C7,35.3938407 9.14440843,37.0261587 13.1707193,37.4004749 C14.0551391,37.4826972 14.7783088,37.5 16.27,37.5 L31.23,37.5 C32.7216912,37.5 33.4448609,37.4826972 34.3292807,37.4004749 C38.3555916,37.0261587 40.5,35.3938407 40.5002092,31.5313905 L40.4967074,31.4458529 C40.4651628,31.0904574 40.346624,30.5338156 40.0896773,29.8528166 Z M25.3564257,23.6952389 L25.5695454,23.7058615 C27.093078,23.7817995 28.4836929,23.9523535 29.7452506,24.2117496 L30.0128141,24.2667649 L29.9343697,24.52842 L28.6063148,28.95821 C28.4809252,29.3761374 28.7114882,29.8173107 29.1179808,29.9434646 C29.1926022,29.9665343 29.2679757,29.977989 29.34232,29.977989 C29.6771114,29.977989 29.9783848,29.7546068 30.0783191,29.4208177 L31.5086167,24.652124 L31.7508235,24.729148 C34.5620694,25.6231494 36.5030327,27.0066511 37.7189541,28.6939211 C38.1636663,29.3110246 38.4842798,29.9341446 38.7000701,30.5396368 C38.8451288,30.9466609 38.9248385,31.2916948 38.9593142,31.5792685 C38.935995,35.0115303 37.0317145,35.9237215 31.23034,35.9237215 L16.27034,35.9237215 C10.4708097,35.9237215 8.56599882,35.0122109 8.54259246,31.5478928 C8.58067744,31.2661002 8.67246922,30.8892508 8.83881172,30.4482346 C9.0855399,29.7940955 9.4512911,29.1268786 9.95781033,28.4734516 C11.3402167,26.6901004 13.5428759,25.2795815 16.7297212,24.4517001 L17.1597083,24.3399976 L15.7740348,28.95821 C15.6486327,29.3761791 15.8792465,29.8172968 16.2862715,29.943536 C16.3604519,29.9665479 16.4357356,29.977989 16.51038,29.977989 C16.8450733,29.977989 17.1460782,29.7546959 17.2460443,29.4208003 L18.8695392,24.0093984 L19.0263097,23.9858535 C20.3663997,23.7845897 21.838018,23.6748613 23.4403407,23.6623034 L23.7791044,23.6596485 L22.1894948,28.95821 C22.0640927,29.3761791 22.2947065,29.8172968 22.7017315,29.943536 C22.7759119,29.9665479 22.8511956,29.977989 22.92584,29.977989 C23.2605333,29.977989 23.5615382,29.7546959 23.6615055,29.4207966 L25.3067683,23.9372103 C25.3082889,23.9263256 25.3564257,23.6952389 25.3564257,23.6952389 Z M20.0069902,17.9058136 C20.795453,16.8756942 20.6908037,16.0109639 19.8967128,14.0466542 C19.111854,12.1051814 18.9449271,11.0907335 19.6388433,10 L18.3623286,10 C17.5738931,11.0303446 17.6785916,11.8952686 18.4727523,13.8594561 C19.2577566,15.8009973 19.4247024,16.815311 18.7306049,17.9058136 L20.0069902,17.9058136 Z M24.5725098,17.9058136 C25.3608913,16.8757905 25.2561891,16.011135 24.4619852,14.0469877 C23.6768893,12.1053657 23.5099447,11.0908186 24.2042331,10 L22.9271686,10 C22.1387331,11.0303446 22.2434316,11.8952686 23.0375923,13.8594561 C23.8225966,15.8009973 23.9895424,16.815311 23.2954449,17.9058136 L24.5725098,17.9058136 Z M29.1380299,17.9058136 C29.9264386,16.8757584 29.821754,16.011078 29.0275877,14.0468765 C28.2425709,12.1053042 28.0756322,11.0907902 28.7697965,10 L27.4926886,10 C26.7042531,11.0303446 26.8089516,11.8952686 27.6031123,13.8594561 C28.3881166,15.8009973 28.5550624,16.815311 27.8609649,17.9058136 L29.1380299,17.9058136 Z"
				id="Combined-Shape"></path>
		</g>
	</g>
</svg>
