<?xml version="1.0" encoding="UTF-8"?>
<svg width="48px" height="48px" viewBox="0 0 48 48" version="1.1" xmlns="http://www.w3.org/2000/svg"
		 xmlns:xlink="http://www.w3.org/1999/xlink">
	<!-- Generator: Sketch 43.1 (39012) - http://www.bohemiancoding.com/sketch -->
	<title>bakery-green</title>
	<desc>Created with Sketch.</desc>
	<defs></defs>
	<g id="UI-KIT" stroke="none" stroke-width="1" fill="none" fill-rule="evenodd">
		<g id="bakery-green">
			<path
				d="M40.3396773,30.1028166 C39.9249878,29.0037439 39.2623928,27.9153443 38.2975505,26.9060426 C35.5624907,24.0449529 30.9485204,22.3308266 24,22.3308266 C17.0662173,22.3308266 12.4556662,24.0443766 9.71574338,26.9046289 C8.74913176,27.9136912 8.083865,29.0018419 7.66597095,30.1006572 C7.40569171,30.7850383 7.28546138,31.3437261 7.25414881,31.6879891 L7.25,31.7711644 C7.25,35.6438407 9.39440843,37.2761587 13.4207193,37.6504749 C14.3051391,37.7326972 15.0283088,37.75 16.52,37.75 L31.48,37.75 C32.9716912,37.75 33.6948609,37.7326972 34.5792807,37.6504749 C38.6055916,37.2761587 40.75,35.6438407 40.7502092,31.7813905 L40.7467074,31.6958529 C40.7151628,31.3404574 40.596624,30.7838156 40.3396773,30.1028166 Z"
				id="Combined-Shape" fill="#39CE7B" fill-rule="nonzero"></path>
			<path
				d="M40.99626,31.6798082 C40.96226,31.2877376 39.98102,22.0808266 24,22.0808266 C8.05264,22.0808266 7.03978,31.2846232 7.00442,31.6763477 L7,31.7711644 C7,38 12.729,38 16.52,38 L31.48,38 C35.271,38 41,38 41,31.7711644 L40.99626,31.6798082 Z M31.48034,35.9237215 L16.52034,35.9237215 C11.37716,35.9237215 9.06652,35.330944 9.04034,31.8313765 C9.11344,31.290506 9.93998,26.7887881 17.04258,24.9436686 L15.78458,29.136367 C15.62002,29.6848506 15.9233,30.2651704 16.4622,30.4323108 C16.56148,30.463109 16.66178,30.477989 16.76038,30.477989 C17.19728,30.477989 17.60154,30.1900784 17.7355,29.7426403 L19.31344,24.4830808 C20.60374,24.2892948 22.0586,24.1750995 23.6923,24.1622958 L22.20004,29.136367 C22.03548,29.6848506 22.33876,30.2651704 22.87766,30.4323108 C22.97694,30.463109 23.07724,30.477989 23.17584,30.477989 C23.61274,30.477989 24.017,30.1900784 24.15096,29.7426403 L25.79928,24.2488074 C25.80336,24.2346195 25.80404,24.2200855 25.8071,24.2055516 C27.36226,24.283066 28.73484,24.4578194 29.9449,24.7066268 L28.61686,29.136367 C28.4523,29.6848506 28.75558,30.2651704 29.29414,30.4323108 C29.39376,30.463109 29.49406,30.477989 29.59232,30.477989 C30.02922,30.477989 30.43382,30.1900784 30.56778,29.7426403 L31.92506,25.2173913 C38.1831,27.2075043 38.89846,31.3510641 38.95932,31.82757 C38.93552,35.3305979 36.62522,35.9237215 31.48034,35.9237215 Z M18.49098,18.4058136 C20.75674,15.6042218 16.22522,12.8022839 18.49098,10 L20.37832,10 C18.11324,12.8022839 22.64408,15.6042218 20.37832,18.4058136 L18.49098,18.4058136 Z M23.05582,18.4058136 C25.32158,15.6042218 20.79006,12.8022839 23.05582,10 L24.94384,10 C22.67774,12.8022839 27.2096,15.6042218 24.94384,18.4058136 L23.05582,18.4058136 Z M27.62134,18.4058136 C29.8871,15.6042218 25.35558,12.8022839 27.62134,10 L29.50936,10 C27.2436,12.8022839 31.77512,15.6042218 29.50936,18.4058136 L27.62134,18.4058136 Z"
				id="Combined-Shape-Copy-3" fill="#FFFFFF" fill-rule="nonzero"></path>
			<path
				d="M40.3396773,30.1028166 C40.596624,30.7838156 40.7151628,31.3404574 40.7467074,31.6958529 L40.7502092,31.7813905 C40.75,35.6438407 38.6055916,37.2761587 34.5792807,37.6504749 C33.6948609,37.7326972 32.9716912,37.75 31.48,37.75 L16.52,37.75 C15.0283088,37.75 14.3051391,37.7326972 13.4207193,37.6504749 C9.39440843,37.2761587 7.25,35.6438407 7.25,31.7711644 L7.25414881,31.6879891 C7.28546138,31.3437261 7.40569171,30.7850383 7.66597095,30.1006572 C8.083865,29.0018419 8.74913176,27.9136912 9.71574338,26.9046289 C12.4556662,24.0443766 17.0662173,22.3308266 24,22.3308266 C30.9485204,22.3308266 35.5624907,24.0449529 38.2975505,26.9060426 C39.2623928,27.9153443 39.9249878,29.0037439 40.3396773,30.1028166 Z M25.6064257,23.9452389 L25.5969409,23.9902888 L23.7025562,23.9125062 C22.088018,23.9248613 20.6163997,24.0345897 19.2763097,24.2358535 L16.9928855,24.6986574 C13.7928759,25.5295815 11.5902167,26.9401004 10.2078103,28.7234516 C9.7012911,29.3768786 9.3355399,30.0440955 9.08881172,30.6982346 C8.92246922,31.1392508 8.83067744,31.5161002 8.79259246,31.7978928 C8.81599882,35.2622109 10.7208097,36.1737215 16.52034,36.1737215 L31.48034,36.1737215 C37.2817145,36.1737215 39.185995,35.2615303 39.2093142,31.8292685 C39.1748385,31.5416948 39.0951288,31.1966609 38.9500701,30.7896368 C38.7342798,30.1841446 38.4136663,29.5610246 37.9689541,28.9439211 C36.7530327,27.2566511 34.8120694,25.8731494 32.0008235,24.979148 L30.0073415,24.4645502 C28.7336929,24.2023535 27.343078,24.0317995 25.8195454,23.9558615 L25.6064257,23.9452389 Z M20.2569902,18.1558136 L18.9806049,18.1558136 C19.6747024,17.065311 19.5077566,16.0509973 18.7227523,14.1094561 C17.9285916,12.1452686 17.8238931,11.2803446 18.6123286,10.25 L19.8888433,10.25 C19.1949271,11.3407335 19.361854,12.3551814 20.1467128,14.2966542 C20.9408037,16.2609639 21.045453,17.1256942 20.2569902,18.1558136 Z M24.8225098,18.1558136 L23.5454449,18.1558136 C24.2395424,17.065311 24.0725966,16.0509973 23.2875923,14.1094561 C22.4934316,12.1452686 22.3887331,11.2803446 23.1771686,10.25 L24.4542331,10.25 C23.7599447,11.3408186 23.9268893,12.3553657 24.7119852,14.2969877 C25.5061891,16.261135 25.6108913,17.1257905 24.8225098,18.1558136 Z M29.3880299,18.1558136 L28.1109649,18.1558136 C28.8050624,17.065311 28.6381166,16.0509973 27.8531123,14.1094561 C27.0589516,12.1452686 26.9542531,11.2803446 27.7426886,10.25 L29.0197965,10.25 C28.3256322,11.3407902 28.4925709,12.3553042 29.2775877,14.2968765 C30.071754,16.261078 30.1764386,17.1257584 29.3880299,18.1558136 Z"
				id="Combined-Shape-Copy-2" fill="#39CE7B" fill-rule="nonzero"></path>
			<polygon id="Path-13" fill="#39CE7B"
							 points="16.8357439 25.2162977 19.8867594 24.7245972 23.5761229 24.4217745 25.8980208 24.5270929 29.8385778 24.9760481 32.8441441 25.7709576 33.2548602 24.6488915 24.3051118 22.935729 15.8845306 24.1439296 15.8004561 25.3323025"></polygon>
			<polygon id="Path-12" fill="#39CE7B"
							 points="16.7563668 25.555585 17.1190664 24.2841985 13.2772198 25.0256561 10.2875788 27.8450221 8.56877051 30.6070761 8.02444431 33.1401587 9.029482 35.420736 11.5052525 36.4722878 37.6149135 36.286785 39.7180172 33.7179862 39.7506878 30.6236883 37.8887378 27.1384502 32.417512 24.4647177 31.7865255 25.5780115 31.117331 31.5805507 14.734386 30.352079"></polygon>
		</g>
	</g>
</svg>
