<?xml version="1.0" encoding="UTF-8"?>
<svg width="48px" height="48px" viewBox="0 0 48 48" version="1.1" xmlns="http://www.w3.org/2000/svg"
		 xmlns:xlink="http://www.w3.org/1999/xlink">
	<!-- Generator: Sketch 43.1 (39012) - http://www.bohemiancoding.com/sketch -->
	<title>bar-grill</title>
	<desc>Created with Sketch.</desc>
	<defs></defs>
	<g id="UI-KIT" stroke="none" stroke-width="1" fill="none" fill-rule="evenodd">
		<g id="bar-grill" fill="#455A64">
			<path
				d="M38.1163435,16.9956873 L10.8033241,16.9956873 C10.3213296,16.9956873 10,17.3118491 10,17.7860919 C10,18.2603347 10.3213296,18.5764965 10.8033241,18.5764965 L11.6869806,18.5764965 C11.9279778,21.8171556 13.2936288,24.7416528 15.5429363,26.8757453 L12.0083102,39.60126 C11.9279778,39.9964624 12.1689751,40.4707051 12.5706371,40.5497456 L12.8116343,40.5497456 C13.132964,40.5497456 13.4542936,40.3126242 13.6149584,39.9964624 L16.8282548,27.9823118 C18.7562327,29.4050401 21.0858726,30.2744853 23.6565097,30.4325662 L23.6565097,42.2095954 C23.6565097,42.6838381 23.9778393,43 24.4598338,43 C24.9418283,43 25.2631579,42.6838381 25.2631579,42.2095954 L25.2631579,30.4325662 C27.833795,30.2744853 30.1634349,29.4050401 32.0914127,27.9823118 L35.3850416,40.0755028 C35.465374,40.3916647 35.7867036,40.6287861 36.1883657,40.6287861 L36.4293629,40.6287861 C36.8310249,40.5497456 37.0720222,40.0755028 36.9916898,39.6803005 L33.4570637,26.9547858 C35.7063712,24.8206932 37.0720222,21.896196 37.3130194,18.655537 L38.1966759,18.655537 C38.6786704,18.655537 39,18.3393751 39,17.8651324 C38.9196676,17.3908896 38.598338,16.9956873 38.1163435,16.9956873 Z M24.4598338,28.8517569 C18.5152355,28.8517569 13.6952909,24.3464504 13.2936288,18.5764965 L35.7063712,18.5764965 C35.2243767,24.3464504 30.4044321,28.8517569 24.4598338,28.8517569 Z M19.2382271,13.6759878 C18.7562327,12.3322999 18.7562327,10.830531 19.1578947,9.48684315 C19.5595568,8.38027665 19.5595568,7.19466969 19.0775623,6.08810319 C18.9168975,5.69290087 19.0775623,5.21865808 19.4792244,5.06057715 C19.8808864,4.90249622 20.3628809,5.06057715 20.5235457,5.45577947 C21.2465374,6.95754829 21.2465374,8.53835758 20.6842105,10.0401264 C20.3628809,11.0676524 20.3628809,12.1742189 20.6842105,13.1227045 C20.8448753,13.5179068 20.6038781,13.9921496 20.2022161,14.1502305 C20.1218837,14.229271 20.0415512,14.229271 19.9612188,14.229271 C19.6398892,14.229271 19.3185596,13.9921496 19.2382271,13.6759878 Z M23.6565097,13.6759878 C23.1745152,12.3322999 23.1745152,10.830531 23.6565097,9.56588361 C24.0581717,8.45931712 24.0581717,7.27371015 23.5761773,6.16714365 C23.4155125,5.77194133 23.5761773,5.29769854 23.9778393,5.13961762 C24.3795014,4.98153669 24.8614958,5.13961762 25.0221607,5.53481994 C25.6648199,6.95754829 25.7451524,8.61739804 25.1024931,10.0401264 C24.7811634,11.0676524 24.7811634,12.1742189 25.1024931,13.1227045 C25.2631579,13.5179068 25.0221607,13.9921496 24.6204986,14.1502305 C24.5401662,14.229271 24.4598338,14.229271 24.3795014,14.229271 C24.0581717,14.229271 23.7368421,13.9921496 23.6565097,13.6759878 Z M27.9944598,13.6759878 C27.5124654,12.3322999 27.5927978,10.830531 27.9141274,9.48684315 C28.3157895,8.38027665 28.3157895,7.19466969 27.833795,6.08810319 C27.6731302,5.69290087 27.833795,5.21865808 28.2354571,5.06057715 C28.6371191,4.90249622 29.1191136,5.06057715 29.2797784,5.45577947 C30.0027701,6.95754829 30.0027701,8.53835758 29.4404432,10.0401264 C29.1191136,11.0676524 29.1191136,12.0951785 29.4404432,13.1227045 C29.601108,13.5179068 29.3601108,13.9921496 28.9584488,14.1502305 C28.8781163,14.229271 28.7977839,14.229271 28.7174515,14.229271 C28.3961219,14.229271 28.0747922,13.9921496 27.9944598,13.6759878 Z"
				id="Combined-Shape"></path>
		</g>
	</g>
</svg>
