<?xml version="1.0" encoding="UTF-8"?>
<svg width="48px" height="48px" viewBox="0 0 48 48" version="1.1" xmlns="http://www.w3.org/2000/svg"
		 xmlns:xlink="http://www.w3.org/1999/xlink">
	<!-- Generator: Sketch 43.1 (39012) - http://www.bohemiancoding.com/sketch -->
	<title>bar-pub-green</title>
	<desc>Created with Sketch.</desc>
	<defs></defs>
	<g id="UI-KIT" stroke="none" stroke-width="1" fill="none" fill-rule="evenodd">
		<g id="bar-pub-green" fill-rule="nonzero" fill="#39CE7B">
			<path
				d="M26.5595416,19.2438984 C27.3709881,19.5672684 28.8951623,19.9895306 30,19 C31.116527,18 30.2368568,19.093859 31.116527,16.9615385 C31.2742626,16.5791875 31.7090204,16.3983794 32.0875857,16.5576923 C32.4535159,16.7116879 32.6329967,17.1271108 32.5021069,17.5 L34.2772277,17.5 C35.7764491,17.5 37,18.7357864 37,20.25 L37,24.15 C37,26.0069667 36.2726562,27.7952774 34.9755743,29.1053301 L31.8366604,32.2756331 C31.8839485,32.7428829 31.9349782,33.2117291 31.9894525,33.6812252 C32.1088353,34.7101459 32.236731,35.6712049 32.3645534,36.5376135 C32.40922,36.8403737 32.4506539,37.1094905 32.4877811,37.3416235 C32.5099167,37.4800239 32.5256004,37.5747852 32.5337575,37.6225698 C32.5747526,37.862719 32.4976699,38.1080135 32.3270595,38.2803301 C31.5816071,39.0332371 30.0369375,39.4627279 27.8215435,39.7312336 C26.8488819,39.8491202 25.8112359,39.9245778 24.7742337,39.9664727 C24.4117694,39.9811163 24.075038,39.9905344 23.7724309,39.9957738 C23.6661246,39.9976144 23.5715349,39.9988004 23.4897152,39.9994615 C23.4399453,39.9998636 23.4050681,40 23.3861386,40 C23.3672091,40 23.3323319,39.9998636 23.2825621,39.9994615 C23.2007423,39.9988004 23.1061526,39.9976144 22.9998463,39.9957738 C22.6972393,39.9905344 22.3605078,39.9811163 21.9980435,39.9664727 C20.9610413,39.9245778 19.9233954,39.8491202 18.9507337,39.7312336 C16.7353397,39.4627279 15.1906702,39.0332371 14.4452177,38.2803301 C14.2805725,38.1140384 14.2026875,37.8793756 14.2348337,37.6464557 C14.2368767,37.6316553 14.2410196,37.6013799 14.2470155,37.5571688 C14.2570562,37.4831317 14.2687172,37.3963241 14.2818632,37.2974662 C14.3194762,37.0146181 14.36141,36.692198 14.4065836,36.3359723 C14.5356922,35.317858 14.6648125,34.233535 14.7852911,33.1292463 C14.893459,32.1377956 14.9894229,31.1771501 15.0699388,30.2647908 C15.0879128,30.0611195 15.1050683,29.8603765 15.1213769,29.6627159 C15.1554349,29.2499331 15.5143578,28.9431921 15.9230536,28.9775907 C16.3317494,29.0119892 17.034058,27.5872172 17,28 C16.9834513,28.2005706 17,24 17,24 C17.5374993,23.9206553 19.1273068,24.0498027 20.1683168,24.0557187 L20.1683168,34 C20.1683168,34.4142136 20.5007787,34.75 20.9108911,34.75 C21.3210035,34.75 21.6534653,34.4142136 21.6534653,34 L21.6534653,24 C21.6534653,23.932585 21.6446588,23.8672474 21.6281442,23.8050968 C23.4481868,23.178582 24.503805,22.2440293 25.1188119,21.3652141 L25.1188119,34 C25.1188119,34.4142136 25.4512737,34.75 25.8613861,34.75 C26.2714986,34.75 26.6039604,34.4142136 26.6039604,34 L26.6039604,19.5 C26.6039604,19.4100566 26.5882845,19.3238111 26.5595416,19.2438984 Z M31.6613546,30.3313717 L33.9254158,28.0446699 C34.9428647,27.0170465 35.5148515,25.61071 35.5148515,24.15 L35.5148515,20.25 C35.5148515,19.5642136 34.9562242,19 34.2772277,19 L32.024469,19 C31.5798885,20.8383011 31.3995776,23.2926167 31.453709,26.2099546 C31.4783583,27.5383928 31.5504082,28.9212312 31.6613546,30.3313717 Z M20.3663366,24.5 C19.5914875,24.5 18.6994392,24.3852144 17.9405941,24.186642 L17.9405941,27.625 C17.9405941,29.1609257 17.258006,30.25 15.8366337,30.25 C14.4116697,30.25 13.2376238,29.0642136 13.2376238,27.625 L13.2376238,19.8812261 C12.4361947,19.0126241 12,18.0330282 12,17 C12,15.5580086 12.8260371,14.135124 14.2638931,12.9561012 C14.5435943,10.9929383 16.1903598,9.5 18.1881188,9.5 C18.9657674,9.5 19.6938395,9.72298873 20.3240122,10.1368112 C20.9698248,8.84790855 22.2838075,8 23.7574257,8 C25.0105225,8 26.149071,8.60895748 26.865028,9.5989937 C27.1770295,9.53301686 27.5044946,9.5 27.8415842,9.5 C29.9154142,9.5 31.703541,10.8546368 32.322907,12.8040596 C33.8639922,14.0282651 34.7722772,15.5175211 34.7722772,17 C34.7722772,17.524339 34.669237,18.0286811 34.4550865,18.4921641 C34.2816559,18.8675174 33.8397913,19.0298023 33.4681544,18.8546374 C33.0965174,18.6794725 32.9358394,18.2331892 33.1092699,17.8578359 C33.2282716,17.6002823 33.2871287,17.3121995 33.2871287,17 C33.2871287,15.9972788 32.5552903,14.8462255 31.2342892,13.8512206 C31.0991026,13.7493953 31.0022586,13.6041274 30.9596901,13.4393164 C30.5900069,12.0080261 29.3234811,11 27.8415842,11 C27.454442,11 27.0975755,11.0609186 26.7904382,11.1772469 C26.4371947,11.3110379 26.0407653,11.1560462 25.8687797,10.8169069 C25.4598463,10.0105292 24.6573404,9.5 23.7574257,9.5 C22.7160198,9.5 21.80263,10.1918928 21.4968656,11.1955644 C21.4123169,11.4730954 21.1767516,11.6763974 20.8921446,11.7174621 C20.8234064,11.7273801 20.7706207,11.7354274 20.6525177,11.7537788 C20.5292841,11.7729274 20.4727463,11.7815467 20.3970951,11.7924621 C20.1836607,11.8232577 19.9675117,11.7588419 19.8048178,11.6159541 C19.3479675,11.2147204 18.7971546,11 18.1881188,11 C16.8663276,11 15.7888916,12.0472562 15.7116267,13.3934054 C15.6990147,13.6131378 15.5914746,13.8161836 15.4175039,13.9487371 C14.1605972,14.9064118 13.4851485,16.0045926 13.4851485,17 C13.4851485,17.6854917 13.8220524,18.3760455 14.4968776,19.0363198 C14.6412657,19.1775945 14.7227723,19.3719594 14.7227723,19.575 L14.7227723,27.625 C14.7227723,28.2357864 15.2318946,28.75 15.8366337,28.75 C16.2587531,28.75 16.4554455,28.4361757 16.4554455,27.625 L16.4554455,23.125 C16.4554455,22.5632547 17.0443602,22.200894 17.5385962,22.4585345 C18.1304639,22.7670694 19.3853318,23 20.3663366,23 C22.8321754,23 24.7722772,21.3985458 24.7722772,19.5 C24.7722772,19.2662744 24.738916,19.0352243 24.6746803,18.7973381 C24.5156969,18.2085693 25.0823798,17.6847321 25.6489958,17.8966884 C26.2484133,18.120915 27.0326832,18.25 27.8663366,18.25 C28.8207572,18.25 29.7114437,18.0699343 30.347599,17.7680622 C30.8543025,17.5276183 31.0841584,17.2718019 31.0841584,17.125 C31.0841584,16.7107864 31.4166202,16.375 31.8267327,16.375 C32.2368451,16.375 32.5693069,16.7107864 32.5693069,17.125 C32.5693069,18.7209261 30.400671,19.75 27.8663366,19.75 C27.3076467,19.75 26.7627716,19.7010285 26.2561116,19.6076499 C26.1889009,22.3574122 23.5523106,24.5 20.3663366,24.5 Z M19.9207921,15 C19.9207921,14.5857864 20.2532539,14.25 20.6633663,14.25 C21.0734788,14.25 21.4059406,14.5857864 21.4059406,15 C21.4059406,16.7892136 19.9596174,18.25 18.1881188,18.25 C17.7780064,18.25 17.4455446,17.9142136 17.4455446,17.5 C17.4455446,17.0857864 17.7780064,16.75 18.1881188,16.75 C19.1393925,16.75 19.9207921,15.9607864 19.9207921,15 Z"
				id="Combined-Shape"></path>
		</g>
	</g>
</svg>
