<?xml version="1.0" encoding="UTF-8"?>
<svg width="48px" height="48px" viewBox="0 0 48 48" version="1.1" xmlns="http://www.w3.org/2000/svg"
		 xmlns:xlink="http://www.w3.org/1999/xlink">
	<!-- Generator: Sketch 43.1 (39012) - http://www.bohemiancoding.com/sketch -->
	<title>bbq</title>
	<desc>Created with Sketch.</desc>
	<defs></defs>
	<g id="UI-KIT" stroke="none" stroke-width="1" fill="none" fill-rule="evenodd">
		<g id="bbq" fill-rule="nonzero" fill="#455A64">
			<path
				d="M23.825988,11.5763553 C23.825988,10.4540379 23.4287835,9.85898415 22.3683212,8.9186523 C22.2756551,8.83657203 22.1847163,8.75412073 22.0916614,8.66797834 C21.4920218,8.11208413 21.2407987,7.67557905 21.2407987,6.98934362 C21.24039,6.27504161 21.5011018,5.84430873 22.1610651,5.24444467 C22.2200026,5.19098877 22.2628263,5.1527288 22.3678861,5.05943504 C22.4240719,5.00966766 22.4704007,4.96843838 22.5119205,4.93115806 L22.1722692,4.57302587 L21.8275264,4.20954875 C21.7917948,4.24158043 21.7494623,4.27930645 21.6922999,4.33014932 C21.5258103,4.47798057 21.4499561,4.54638935 21.3561216,4.63488327 C20.6015406,5.34651689 20.2349322,6.01148592 20.2349322,6.9892578 C20.2349322,8.11225133 20.6323876,8.70775038 21.6931376,9.64833732 C21.980031,9.90292953 22.1231465,10.0375971 22.2669899,10.1969083 C22.640289,10.6093211 22.8201214,11.0224708 22.8201214,11.5763553 C22.8201214,12.160128 22.6324561,12.5723184 22.2087884,13.0184567 C22.1089981,13.1234085 21.9974907,13.2308503 21.8561915,13.3592109 L22.5284247,14.0918723 C23.4549611,13.2496993 23.825988,12.6492287 23.825988,11.5763553 Z M28.337994,11.5763553 C28.337994,10.4540379 27.9407895,9.85898415 26.8803272,8.9186523 C26.7876611,8.83657203 26.6967223,8.75412073 26.6036674,8.66797834 C26.0040279,8.11208413 25.7528047,7.67557905 25.7528047,6.98934362 C25.7523961,6.27504161 26.0131078,5.84430873 26.6730711,5.24444467 C26.7320086,5.19098877 26.7748323,5.1527288 26.8798921,5.05943504 C26.936078,5.00966766 26.9824067,4.96843838 27.0239265,4.93115805 L26.6842752,4.57302587 L26.3395324,4.20954875 C26.3038008,4.24158043 26.2614683,4.27930645 26.2043059,4.33014932 C26.0378163,4.47798057 25.9619621,4.54638935 25.8681276,4.63488327 C25.1135466,5.34651689 24.7469382,6.01148592 24.7469382,6.9892578 C24.7469382,8.11225133 25.1443936,8.70775038 26.2051436,9.64833732 C26.492037,9.90292953 26.6351526,10.0375971 26.7789959,10.1969083 C27.152295,10.6093211 27.3321275,11.0224708 27.3321275,11.5763553 C27.3321275,12.160128 27.1444621,12.5723184 26.7207945,13.0184567 C26.6210041,13.1234085 26.5094967,13.2308503 26.3681975,13.3592109 L27.0404307,14.0918723 C27.9669671,13.2496993 28.337994,12.6492287 28.337994,11.5763553 Z M32.85,11.5764008 C32.849659,10.4538112 32.4527451,9.85912021 31.3922371,8.91813881 C31.2996671,8.83614377 31.2087283,8.75369247 31.1156734,8.66755008 C30.5160339,8.11165587 30.2648107,7.67515078 30.2648107,6.98882954 C30.2648107,6.2749094 30.5256363,5.84422943 31.1856306,5.24433718 C31.2444498,5.19098877 31.2872735,5.1527288 31.3923332,5.05943504 C31.4485191,5.00966766 31.4948478,4.96843837 31.5363677,4.93115805 L31.1967667,4.57307891 L30.8515916,4.20950106 C30.8158488,4.24154299 30.7735027,4.27928122 30.7163119,4.33014932 C30.5498223,4.47798057 30.4739681,4.54638935 30.3801336,4.63488327 C29.6255526,5.34651689 29.2589442,6.01148592 29.2589442,6.9892578 C29.2589442,8.11225133 29.6563996,8.70775038 30.7171496,9.64833732 C31.004043,9.90292953 31.1471586,10.0375971 31.2910019,10.1969083 C31.6643011,10.6093211 31.8441335,11.0224708 31.8441335,11.5763553 C31.8441335,12.160128 31.6564681,12.5723184 31.2328005,13.0184567 C31.1330101,13.1234085 31.0215028,13.2308503 30.8802035,13.3592109 L31.5524368,14.0918723 C32.4789731,13.2496993 32.85,12.6492304 32.85,11.5764008 Z M27.8674388,37.2993292 L28.0550901,37.2202598 C29.4627369,36.6271282 30.3966593,35.2629481 30.3966593,33.7345499 L30.3966593,21.8914762 C30.3962498,20.3629879 29.4626695,18.9992511 28.0550549,18.4057113 L27.8674738,18.3266152 L30.0149764,15.7759859 L23.0699221,15.7759859 L25.2174776,18.3270915 L25.0298421,18.4061544 C23.6223404,18.9992248 22.688708,20.3633266 22.688708,21.8918642 L22.688708,23.6438777 L22.538708,23.7938777 L15.9105977,23.7938777 C13.6687036,23.7938777 11.756806,25.3797431 11.3541216,27.5263066 L11.2066933,27.6486498 L0.87028759,27.6486498 C0.472200909,27.6486498 0.15,27.9657539 0.15,28.3551706 C0.15,28.7445874 0.472200909,29.0616915 0.87028759,29.0616915 L11.2066933,29.0616915 L11.3541226,29.1840399 C11.7567448,31.3306918 13.668803,32.9164636 15.9105977,32.9164636 L22.538708,32.9164636 L22.688708,33.0664636 L22.688708,33.7341216 C22.688708,35.2625114 23.6221888,36.6262754 25.0298772,37.2198463 L25.2174616,37.2989438 L23.0695276,39.85 L30.0149764,39.85 L27.8674388,37.2993292 Z M24.1292832,27.8485386 L24.1292832,21.891436 C24.1292832,20.5798023 25.2121616,19.5140535 26.5424661,19.5140535 C27.8727706,19.5140535 28.955649,20.5798023 28.955649,21.891436 L28.955649,33.7341216 C28.955649,35.0457554 27.8727706,36.1115041 26.5424661,36.1115041 C25.2121616,36.1115041 24.1292832,35.0457554 24.1292832,33.7341216 L24.1599771,28.7700284 C24.1464347,28.7910853 24.1464347,28.7910853 24.1456223,28.7936437 C24.1490456,28.7853038 24.1490456,28.7853038 24.1353752,28.8498114 L24.1660691,27.9505911 C24.1494568,27.9248189 24.1490555,27.9241964 24.1458647,27.9164314 C24.1455909,27.9149621 24.1426303,27.9029032 24.1292832,27.8485386 Z M26.2915205,37.5710839 L26.411886,37.517799 C26.4430166,37.5192852 26.4430166,37.5192852 26.4708866,37.5211945 C26.5113632,37.5238916 26.5246329,37.5245459 26.5424661,37.5245459 C26.5602993,37.5245459 26.573569,37.5238916 26.6101996,37.5214571 C26.6419155,37.5192852 26.6419155,37.5192852 26.6730461,37.517799 L26.7934116,37.5710839 L27.8826457,38.8647904 L25.2022865,38.8647904 L26.2915205,37.5710839 Z M26.7934116,18.0544738 L26.6730461,18.1077586 C26.6419155,18.1062725 26.6419155,18.1062725 26.6140455,18.1043631 C26.573569,18.101666 26.5602993,18.1010118 26.5424661,18.1010118 C26.5246329,18.1010118 26.5113632,18.101666 26.4747325,18.1041005 C26.4430166,18.1062725 26.4430166,18.1062725 26.411886,18.1077586 L26.2915205,18.0544738 L25.2022865,16.7607672 L27.8826457,16.7607672 L26.7934116,18.0544738 Z M22.538708,27.6486498 L12.7898031,27.6486498 L12.8485542,27.4550842 C13.2501358,26.1320055 14.4903265,25.2069194 15.9105977,25.2069194 L22.538708,25.2069194 L22.688708,25.3569194 L22.688708,27.4986498 L22.538708,27.6486498 Z M22.538708,31.5034219 L15.9105977,31.5034219 C14.4905266,31.5034219 13.2502059,30.5781088 12.8485584,29.2552709 L12.7897827,29.0616915 L22.538708,29.0616915 L22.688708,29.2116915 L22.688708,31.3534219 L22.538708,31.5034219 Z"
				id="Combined-Shape"></path>
		</g>
	</g>
</svg>
