<?xml version="1.0" encoding="UTF-8"?>
<svg width="48px" height="48px" viewBox="0 0 48 48" version="1.1" xmlns="http://www.w3.org/2000/svg"
		 xmlns:xlink="http://www.w3.org/1999/xlink">
	<!-- Generator: Sketch 43.1 (39012) - http://www.bohemiancoding.com/sketch -->
	<title>brazilian-green</title>
	<desc>Created with Sketch.</desc>
	<defs></defs>
	<g id="UI-KIT" stroke="none" stroke-width="1" fill="none" fill-rule="evenodd">
		<g id="brazilian-green">
			<path
				d="M36.2666667,7.75 C38.4643759,7.75 40.25,9.55384479 40.25,11.7714286 L40.25,36.5552367 C40.25,38.7727976 38.4643985,40.5765306 36.2666667,40.5765306 L11.7333333,40.5765306 C9.53560154,40.5765306 7.75,38.7727976 7.75,36.5552367 L7.75,11.7714286 C7.75,9.55384479 9.53562414,7.75 11.7333333,7.75 L36.2666667,7.75 Z"
				id="Shape" fill="#39CE7B" fill-rule="nonzero"></path>
			<polygon id="Shape" fill="#FFFFFF" fill-rule="nonzero"
							 points="23.8941361 16.2019927 24.1081859 16.2020015 37.0782465 24.4186808 24.108197 32.6365501 23.8941192 32.6365552 11.838301 24.9987607 10.9215192 24.4187985"></polygon>
			<polygon id="Path" fill="#FFFFFF"
							 points="24.0012137 17.1733812 35.4376332 24.4186628 24.0012137 31.6651775 12.5623669 24.4186628 24.0012137 17.1733812"></polygon>
			<path
				d="M24,19.6699034 C26.7346202,19.6699034 28.9618965,21.8806159 28.9618965,24.5961966 C28.9618965,27.3126611 26.7347028,29.5236034 24,29.5236034 C21.2624159,29.5236034 19.0346414,27.3132046 19.0346414,24.5961966 C19.0346414,21.8800725 21.2624985,19.6699034 24,19.6699034 Z M24,20.9240069 C21.948022,20.9240069 20.2956143,22.5633769 20.2956143,24.5961966 C20.2956143,26.630171 21.9476778,28.2695 24,28.2695 C26.0489112,28.2695 27.700923,26.6294211 27.700923,24.5961965 C27.7009236,22.5641269 26.0485673,20.9240069 24,20.9240069 Z"
				id="Shape" fill="#39CE7B" fill-rule="nonzero"></path>
			<path
				d="M28.8130447,25.065899 C28.7862667,25.3273847 28.7383479,25.5851969 28.6702833,25.8342358 L28.564612,26.2199428 L28.3254449,26.0182145 L28.258403,25.9616667 C26.3273924,24.3259611 23.8549927,23.4505677 21.2665583,23.5412884 C20.7093356,23.5615643 20.1562133,23.6268962 19.6060107,23.7355021 L19.211375,23.8137796 L19.2872895,23.5081166 L19.3082654,23.4236593 C19.3713772,23.1704423 19.45587,22.9221971 19.5600201,22.6829088 L19.5720629,22.6553571 L19.7167622,22.5392109 L19.7523764,22.5323012 C20.2535759,22.4490282 20.7425478,22.3985817 21.2311861,22.3829276 C21.3751848,22.377855 21.5125893,22.3764793 21.7495594,22.3764793 C24.3107694,22.4023344 26.744567,23.2786283 28.7175874,24.840038 L28.8760896,24.9654735 L28.7143715,25.1654304 L28.5588648,25.0396621 L28.5799777,24.8407796 L28.8333442,24.8676763 L28.8130447,25.065899 Z"
				id="Shape" fill="#39CE7B" fill-rule="nonzero"></path>
			<polyline id="Shape" fill="#39CE7B" fill-rule="nonzero"
								points="25.5093331 22.8049828 25.5551226 22.9386379 25.695437 22.9386379 25.5815185 23.0213517 25.6245308 23.1536586 25.5092232 23.0722931 25.3953054 23.1536586 25.4410949 23.0213517 25.3271765 22.9386379 25.4674902 22.9386379 25.509167 22.8049828"></polyline>
			<polyline id="Shape" fill="#39CE7B" fill-rule="nonzero"
								points="24.0186704 26.6184345 24.0616826 26.7520897 24.2033856 26.7520897 24.0894678 26.8335138 24.1325923 26.967169 24.0186739 26.8844552 23.9047555 26.967169 23.9477678 26.8335138 23.8338494 26.7520897 23.9755529 26.7520897 24.0185652 26.6184345"></polyline>
			<polyline id="Shape" fill="#39CE7B" fill-rule="nonzero"
								points="27.3959315 26.1484724 27.4403856 26.2862897 27.5848676 26.2862897 27.4681707 26.3690034 27.5126248 26.5040655 27.395928 26.4213517 27.2806203 26.5040655 27.3236326 26.3690034 27.208325 26.2862897 27.3514171 26.2862897 27.3958712 26.1484724"></polyline>
			<polyline id="Shape" fill="#39CE7B" fill-rule="nonzero"
								points="26.4095654 27.1766207 26.4387976 27.2647862 26.5319326 27.2647862 26.4569137 27.3187172 26.4860337 27.4069414 26.4096806 27.3530103 26.3346617 27.4069414 26.3638881 27.3187172 26.2888692 27.2647862 26.3818925 27.2647862 26.409677 27.1766207"></polyline>
			<polyline id="Shape" fill="#39CE7B" fill-rule="nonzero"
								points="25.8705381 27.3378276 25.9025476 27.4343172 26.0025738 27.4343172 25.9206637 27.4923517 25.9526733 27.5873759 25.8706527 27.5280517 25.7900758 27.5873759 25.8206376 27.4923517 25.7387275 27.4343172 25.8401985 27.4343172 25.8707603 27.3378276"></polyline>
			<polyline id="Shape" fill="#39CE7B" fill-rule="nonzero"
								points="25.4482065 27.7071966 25.487106 27.8284828 25.6163065 27.8284828 25.5107229 27.9043379 25.5523997 28.0242172 25.448262 27.9498276 25.3426796 28.0242172 25.3843564 27.9043379 25.2787734 27.8284828 25.4079739 27.8284828 25.448203 27.7071966"></polyline>
			<polyline id="Shape" fill="#39CE7B" fill-rule="nonzero"
								points="25.0744985 27.2151931 25.1050603 27.3075793 25.2050864 27.3075793 25.1245095 27.3638552 25.156519 27.4575897 25.0744979 27.3995552 24.9952552 27.4575897 25.025817 27.3638552 24.9465749 27.3075793 25.043822 27.3075793 25.0743838 27.2151931"></polyline>
			<polyline id="Shape" fill="#39CE7B" fill-rule="nonzero"
								points="26.4331828 27.6010931 26.4734178 27.7182172 26.59845 27.7182172 26.495646 27.7913172 26.5345456 27.9085 26.4330747 27.8368069 26.3330491 27.9085 26.3719487 27.7913172 26.2704784 27.7182172 26.3955106 27.7182172 26.4329624 27.6010931"></polyline>
			<polyline id="Shape" fill="#39CE7B" fill-rule="nonzero"
								points="24.0131135 28.3591172 24.0270057 28.4019103 24.0714598 28.4019103 24.0353375 28.4282897 24.0492298 28.4710828 24.0131075 28.4447034 23.9769853 28.4710828 23.9908775 28.4282897 23.9547553 28.4019103 24.0005448 28.4019103 24.0131016 28.3591172"></polyline>
			<polyline id="Shape" fill="#39CE7B" fill-rule="nonzero"
								points="25.27594 24.2410724 25.3078372 24.3375034 25.4093081 24.3375034 25.3273981 24.3968276 25.3594076 24.4947241 25.2760528 24.4354586 25.1940311 24.4947241 25.2245929 24.3968276 25.1426823 24.3375034 25.2441532 24.3375034 25.2761627 24.2410724"></polyline>
			<polyline id="Shape" fill="#39CE7B" fill-rule="nonzero"
								points="24.0158919 25.2815897 24.0505665 25.3835897 24.158928 25.3835897 24.0700156 25.4469586 24.1046902 25.5489586 24.0157785 25.485531 23.9296452 25.5489586 23.9629843 25.4469586 23.8754056 25.3835897 23.9837677 25.3835897 24.0157773 25.2815897"></polyline>
			<polyline id="Shape" fill="#39CE7B" fill-rule="nonzero"
								points="24.5757588 25.7115724 24.6104333 25.820431 24.7271302 25.820431 24.6339952 25.8879034 24.6701175 25.9967034 24.5756489 25.929231 24.4811802 25.9967034 24.518632 25.8879034 24.4227186 25.820431 24.5394155 25.820431 24.5755378 25.7115724"></polyline>
			<polyline id="Shape" fill="#39CE7B" fill-rule="nonzero"
								points="23.533823 25.7253483 23.560272 25.8122241 23.653407 25.8122241 23.5783875 25.8643966 23.6061721 25.9525621 23.5339311 25.8974586 23.4589116 25.9525621 23.4866962 25.8643966 23.4130104 25.8122241 23.5033675 25.8122241 23.5339293 25.7253483"></polyline>
			<polyline id="Shape" fill="#39CE7B" fill-rule="nonzero"
								points="23.7644382 26.1140034 23.7825555 26.1732103 23.8436827 26.1732103 23.7936681 26.2077966 23.813115 26.2640724 23.7645481 26.2294862 23.7145336 26.2640724 23.7339804 26.2077966 23.6854136 26.1732103 23.7450954 26.1732103 23.7645481 26.1140034"></polyline>
			<polyline id="Shape" fill="#39CE7B" fill-rule="nonzero"
								points="20.2951767 23.7095586 20.3396308 23.8432138 20.4799445 23.8432138 20.3660267 23.9245793 20.4091512 24.0582931 20.2952328 23.9769276 20.1813144 24.0582931 20.2257685 23.9245793 20.1118507 23.8432138 20.2521644 23.8432138 20.295289 23.7095586"></polyline>
			<polyline id="Shape" fill="#39CE7B" fill-rule="nonzero"
								points="22.1501319 24.7000138 22.1848065 24.8088138 22.3015027 24.8088138 22.2070341 24.8762862 22.2444859 24.9865517 22.1500173 24.9190793 22.0541033 24.9865517 22.0916674 24.8762862 21.9971987 24.8088138 22.1138956 24.8088138 22.1500179 24.7000138"></polyline>
			<polyline id="Shape" fill="#39CE7B" fill-rule="nonzero"
								points="20.4997057 25.6316724 20.542718 25.7667345 20.6844215 25.7667345 20.5705031 25.8493897 20.6135154 25.9831034 20.499597 25.8991 20.3842893 25.9831034 20.4273016 25.8493897 20.3133832 25.7667345 20.4550867 25.7667345 20.4995408 25.6316724"></polyline>
			<polyline id="Shape" fill="#39CE7B" fill-rule="nonzero"
								points="20.9664931 25.4331828 20.9887231 25.5006552 21.0581857 25.5006552 21.0012811 25.5416897 21.0235111 25.6078724 20.9666066 25.5662517 20.909702 25.6078724 20.931932 25.5416897 20.8750275 25.5006552 20.9444895 25.5006552 20.9667195 25.4331828"></polyline>
			<polyline id="Shape" fill="#39CE7B" fill-rule="nonzero"
								points="21.5096893 26.1346966 21.5458115 26.2490655 21.6666755 26.2490655 21.5694284 26.3194103 21.6055507 26.432431 21.5096373 26.3620862 21.4096111 26.432431 21.4485107 26.3194103 21.3498182 26.2490655 21.4706828 26.2490655 21.5095823 26.1346966"></polyline>
			<polyline id="Shape" fill="#39CE7B" fill-rule="nonzero"
								points="22.075113 27.0126 22.1181253 27.1462552 22.2598283 27.1462552 22.1459099 27.2276793 22.1890344 27.3599276 22.075116 27.2785621 21.9611976 27.3599276 22.0043221 27.2276793 21.8904043 27.1462552 22.0321067 27.1462552 22.0752312 27.0126"></polyline>
			<polyline id="Shape" fill="#39CE7B" fill-rule="nonzero"
								points="21.351315 26.6115172 21.3902145 26.7245379 21.5096899 26.7245379 21.4124422 26.7948828 21.4500063 26.9079034 21.3513144 26.8376759 21.2553998 26.9079034 21.2915221 26.7948828 21.1942744 26.7245379 21.315139 26.7245379 21.3512612 26.6115172"></polyline>
		</g>
	</g>
</svg>
