<?xml version="1.0" encoding="UTF-8"?>
<svg width="48px" height="48px" viewBox="0 0 48 48" version="1.1" xmlns="http://www.w3.org/2000/svg"
		 xmlns:xlink="http://www.w3.org/1999/xlink">
	<!-- Generator: Sketch 43.1 (39012) - http://www.bohemiancoding.com/sketch -->
	<title>breakfast-diner-green</title>
	<desc>Created with Sketch.</desc>
	<defs></defs>
	<g id="UI-KIT" stroke="none" stroke-width="1" fill="none" fill-rule="evenodd">
		<g id="breakfast-diner-green" fill="#39CE7B">
			<path
				d="M36.9615128,16.4268833 C37.1954695,16.1986999 37.3266701,15.8537297 37.2381363,15.5145091 C37.204714,15.2618903 37.0749355,15.0416125 36.85129,14.9338093 C32.715092,10.3913427 26.2784384,8.14328704 20.2862314,9.30073384 C20.0042744,9.35535411 19.8236513,9.50555988 19.728362,9.69673085 C19.6195614,9.85232677 19.5758279,10.052122 19.6323615,10.2860549 C16.3829234,11.2386757 13.5498429,13.1234346 11.3926768,15.7969534 C11.2956097,15.9173336 11.2372983,16.0449007 11.2063648,16.1731865 C11.1085866,16.471442 11.1455645,16.8092253 11.3556989,17.0442362 C9.8420915,19.0339235 8.45577362,21.119915 8.04866052,23.6576019 C8.03692713,23.7301893 8.03372712,23.7999021 8.03692713,23.86674 C8.03514934,23.8778797 8.03123821,23.887582 8.02981599,23.899081 C7.63621406,27.3042241 11.2244982,29.0650093 13.7777552,27.0375909 C13.8065553,27.0174676 13.8364221,26.998063 13.8627333,26.9754244 C15.1601619,25.8413349 16.5173241,24.5699761 18.2033768,24.1189995 C18.2058657,24.1322952 18.2097768,24.1448722 18.2122657,24.158168 C18.273066,24.4725939 18.4508446,24.6590934 18.6688013,24.7453359 C18.6887125,24.7543195 18.7096903,24.7618658 18.7306682,24.7690526 C18.7434683,24.7730054 18.7562683,24.7765989 18.769424,24.779833 C18.8590244,24.8060651 18.9564471,24.8222355 19.0680921,24.816486 C22.0860624,24.6619681 24.7587865,25.8406162 26.7577296,28.1156227 C27.0439532,28.4411883 27.3995105,28.4634676 27.6917786,28.3193707 C28.9202291,30.4111117 29.0300963,33.0918174 28.7452949,35.4606126 C28.7367615,35.5306846 28.7406726,35.5964446 28.7516949,35.6593298 C28.7762284,38.7259709 32.1604227,39.928695 34.4199893,38.2171399 C34.4743895,38.1840802 34.5259453,38.1474271 34.5718122,38.1046652 C37.2832921,35.5773994 38.3709419,32.09356 38.9110334,28.5224 C38.9288113,28.5231187 38.9462336,28.5259934 38.964367,28.5259934 C38.9985005,28.5263528 39.0312118,28.5209626 39.0646341,28.5177285 C39.0870343,28.5155725 39.1090788,28.5152131 39.1314789,28.5112603 C39.153879,28.5073075 39.1752125,28.5008394 39.1969015,28.4950898 C39.4973474,28.4246584 39.7725487,28.2223478 39.8817048,27.8849239 C39.9378829,27.7476545 39.9588607,27.6028389 39.9414384,27.4634134 C40.2692623,23.4628375 39.2132571,19.659182 36.9615128,16.4268833 Z"
				id="Shape"></path>
		</g>
	</g>
</svg>
