<?xml version="1.0" encoding="UTF-8"?>
<svg width="48px" height="48px" viewBox="0 0 48 48" version="1.1" xmlns="http://www.w3.org/2000/svg"
		 xmlns:xlink="http://www.w3.org/1999/xlink">
	<!-- Generator: Sketch 43.1 (39012) - http://www.bohemiancoding.com/sketch -->
	<title>brew-hops-green</title>
	<desc>Created with Sketch.</desc>
	<defs></defs>
	<g id="UI-KIT" stroke="none" stroke-width="1" fill="none" fill-rule="evenodd">
		<g id="brew-hops-green" fill-rule="nonzero" fill="#39CE7B">
			<path
				d="M36,22.1942222 C36,16.1115556 31.3221538,11.1302222 25.3846154,10.676 L25.3846154,8.88888889 C25.3846154,8.39822222 24.9883077,8 24.5,8 C24.0116923,8 23.6153846,8.39822222 23.6153846,8.88888889 L23.6153846,10.676 C17.6778462,11.1302222 13,16.1115556 13,22.1942222 C13.3631346,22.1942222 13.7209615,22.1737778 14.07525,22.1404444 C13.5834038,24.9928889 14.1880385,27.8613333 15.6538462,30.2222222 C16.0912885,30.0791111 16.5185577,29.9075556 16.9356538,29.7133333 C17.1422115,31.8488889 17.9299615,33.8706667 19.1923077,35.5555556 C19.7279423,35.3266667 20.2436731,35.0551111 20.7381731,34.7484444 C21.4755,36.8413333 22.7926923,38.6582222 24.5,40 C26.2073077,38.6577778 27.5174231,36.8368889 28.2543077,34.7435556 C28.7510192,35.052 29.2694038,35.3253333 29.8076923,35.5555556 C31.0700385,33.8706667 31.8582308,31.8493333 32.0647885,29.7133333 C32.4814423,29.908 32.9087115,30.0791111 33.3461538,30.2222222 C34.8115192,27.8613333 35.4165962,24.9928889 34.9243077,22.1404444 C35.2790385,22.1733333 35.6373077,22.1942222 36,22.1942222 Z M26.0905385,23.1862222 C26.3479615,23.8964444 26.6704038,24.5635556 27.0432692,25.1884444 C26.7584231,27.1826667 25.8813269,29.028 24.5,30.4933333 C23.1186731,29.028 22.2415769,27.1831111 21.9567308,25.188 C22.3300385,24.5635556 22.6524808,23.8964444 22.9094615,23.1862222 C22.9289231,23.132 22.9426346,23.0768889 22.9612115,23.0226667 C23.4468654,23.3862222 23.9586154,23.7164444 24.5,24 C25.0413846,23.7164444 25.5531346,23.3862222 26.0387885,23.0226667 C26.0573654,23.0768889 26.0710769,23.132 26.0905385,23.1862222 Z M16.4694615,27.9706667 C15.6290769,26.0235556 15.4490577,23.8728889 15.9488654,21.8066667 C17.44475,21.408 18.8220962,20.7168889 20.0136731,19.7937778 C20.4418269,20.4928889 20.9434038,21.1404444 21.50425,21.7311111 C21.4308269,22.0155556 21.3485577,22.2986667 21.2468269,22.5786667 C20.3865385,24.9537778 18.6823269,26.8595556 16.4694615,27.9706667 Z M19.8093269,33.2413333 C19.05475,31.8426667 18.6703846,30.2964444 18.6553462,28.7244444 C19.3431346,28.2462222 19.9818269,27.6924444 20.5563846,27.0671111 C20.9619808,28.4417778 21.6148269,29.7071111 22.4636154,30.8164444 C21.7417692,31.7768889 20.8469808,32.6013333 19.8093269,33.2413333 Z M24.5,37.604 C23.4313846,36.4711111 22.6692885,35.1097778 22.2451154,33.6284444 C22.7559808,33.1822222 23.2270385,32.6875556 23.6574038,32.1533333 C23.9272115,32.4111111 24.2063077,32.6577778 24.5,32.8888889 C24.7936923,32.6577778 25.0727885,32.4106667 25.3421538,32.1528889 C25.7725192,32.6866667 26.2435769,33.1813333 26.7544423,33.628 C26.3302692,35.1088889 25.5686154,36.4711111 24.5,37.604 Z M29.1906731,33.2413333 C28.1530192,32.6017778 27.2591154,31.7773333 26.5368269,30.8168889 C27.3847308,29.7084444 28.0397885,28.4435556 28.4449423,27.0688889 C29.0195,27.6933333 29.6573077,28.2466667 30.3446538,28.7244444 C30.3300577,30.2964444 29.9456923,31.8426667 29.1906731,33.2413333 Z M32.5305385,27.9706667 C30.3176731,26.8595556 28.6134615,24.9537778 27.7527308,22.5782222 C27.6514423,22.2982222 27.5687308,22.0151111 27.49575,21.7306667 C28.0570385,21.14 28.5581731,20.4924444 28.9863269,19.7933333 C30.1779038,20.7164444 31.5556923,21.4075556 33.0511346,21.8062222 C33.5509423,23.8728889 33.3713654,26.0235556 32.5305385,27.9706667 Z"
				id="Shape"></path>
		</g>
	</g>
</svg>
