<?xml version="1.0" encoding="UTF-8"?>
<svg width="48px" height="48px" viewBox="0 0 48 48" version="1.1" xmlns="http://www.w3.org/2000/svg"
		 xmlns:xlink="http://www.w3.org/1999/xlink">
	<!-- Generator: Sketch 43.1 (39012) - http://www.bohemiancoding.com/sketch -->
	<title>british-green</title>
	<desc>Created with Sketch.</desc>
	<defs></defs>
	<g id="UI-KIT" stroke="none" stroke-width="1" fill="none" fill-rule="evenodd">
		<g id="british-green" fill="#39CE7B">
			<path
				d="M11.8433594,8.26669388 L11.0899739,9.02946531 L21.8,19.8231592 L21.8,18.3009837 L11.8433594,8.26669388 L11.8433594,8.26669388 Z M36.0895833,8.26669388 L26.2,18.2333673 L26.2,19.7552735 L36.8428387,9.02946531 L36.0895833,8.26669388 Z M8.77708333,11.4324041 L8.02291667,12.1943673 L17.91237,22.1847469 L19.4208333,22.1847469 L8.77708333,11.4324041 L8.77708333,11.4324041 Z M39.1557293,11.4324041 L28.5119793,22.1847469 L30.0205727,22.1847469 L39.910026,12.1943673 L39.1557293,11.4324041 L39.1557293,11.4324041 Z M17.86875,26.6296449 L8.02291667,36.5524082 L8.77617187,37.3151796 L19.378906,26.6296449 L17.86875,26.6296449 L17.86875,26.6296449 Z M28.553776,26.6296449 L39.1566407,37.3151796 L39.910026,36.5524082 L30.0641927,26.6296449 L28.553776,26.6296449 L28.553776,26.6296449 Z M21.8,28.9652367 L11.0890625,39.7854653 L11.8433594,40.5474286 L21.8,30.4892306 L21.8,28.9652367 Z M26.2,29.0330551 L26.2,30.557049 L36.0895833,40.5474286 L36.84375,39.7854653 L26.2,29.0330551 L26.2,29.0330551 Z"
				id="Shape"></path>
			<polygon id="Shape"
							 points="21.2666667 8.24386327 21.2666667 21.6459041 8 21.6459041 8 22.7234551 22.3333333 22.7234551 22.3333333 8.24386327"></polygon>
			<rect id="Rectangle" x="9" y="22" width="30" height="5"></rect>
			<rect id="Rectangle-Copy"
						transform="translate(24.000000, 24.044987) rotate(-90.000000) translate(-24.000000, -24.044987) "
						x="8.544987" y="21.544987" width="30.910026" height="5"></rect>
			<polygon id="Shape"
							 points="25.6666667 8.24386327 25.6666667 22.7234551 40 22.7234551 40 21.6459041 26.7333333 21.6459041 26.7333333 8.24386327 25.6666667 8.24386327"></polygon>
			<polygon id="Shape"
							 points="8 26.090802 8 27.1683531 21.2666667 27.1683531 21.2666667 40.5703939 22.3333333 40.5703939 22.3333333 26.090802"></polygon>
			<polygon id="Shape"
							 points="25.6666667 26.090802 25.6666667 40.5703939 26.7333333 40.5703939 26.7333333 27.1683531 40 27.1683531 40 26.090802"></polygon>
			<path
				d="M11.7333333,8.24393061 C9.67426667,8.24393061 8,9.93528163 8,12.0153592 L8,36.7991673 C8,38.8792449 9.67426667,40.5704612 11.7333333,40.5704612 L36.2666667,40.5704612 C38.3257333,40.5704612 40,38.8792449 40,36.7991673 L40,12.0153592 C40,9.93528163 38.3257333,8.24393061 36.2666667,8.24393061 L11.7333333,8.24393061 L11.7333333,8.24393061 Z M11.7333333,9.32134694 L36.2666667,9.32134694 C37.7532,9.32134694 38.9333333,10.5136571 38.9333333,12.0153592 L38.9333333,36.7991673 C38.9333333,38.3008694 37.7532,39.4930449 36.2666667,39.4930449 L11.7333333,39.4930449 C10.2468,39.4930449 9.06666667,38.3008694 9.06666667,36.7991673 L9.06666667,12.0153592 C9.06666667,10.5136571 10.2468,9.32134694 11.7333333,9.32134694 L11.7333333,9.32134694 Z"
				id="Shape" fill-rule="nonzero"></path>
		</g>
	</g>
</svg>
