<?xml version="1.0" encoding="UTF-8"?>
<svg width="48px" height="48px" viewBox="0 0 48 48" version="1.1" xmlns="http://www.w3.org/2000/svg"
		 xmlns:xlink="http://www.w3.org/1999/xlink">
	<!-- Generator: Sketch 43.1 (39012) - http://www.bohemiancoding.com/sketch -->
	<title>buffet</title>
	<desc>Created with Sketch.</desc>
	<defs></defs>
	<g id="UI-KIT" stroke="none" stroke-width="1" fill="none" fill-rule="evenodd">
		<g id="buffet" fill-rule="nonzero" fill="#455A64">
			<path
				d="M15.525,40.55 L6.375,20.225 L32.475,8.45 L41.625,28.775 L15.525,40.55 Z M8.325,20.975 L16.275,38.6 L39.675,28.025 L31.725,10.4 L8.325,20.975 Z"
				id="Shape"></path>
			<path
				d="M38.25,24.8 L33.975,15.35 L35.4,14.675 C35.775,14.525 36.15,14.45 36.525,14.45 C37.65,14.45 38.625,15.125 39.075,16.1 L41.025,20.45 C41.625,21.875 41.025,23.525 39.6,24.125 L38.25,24.8 Z M35.925,16.1 L39,22.85 L39.15,22.775 C39.45,22.625 39.75,22.4 39.825,22.025 C39.975,21.725 39.975,21.35 39.825,20.975 L37.875,16.625 C37.575,15.95 36.75,15.65 36.15,15.95 L35.925,16.1 Z"
				id="Shape"></path>
			<path
				d="M38.25,24.8 L33.975,15.35 L35.4,14.675 C35.775,14.525 36.15,14.45 36.525,14.45 C37.65,14.45 38.625,15.125 39.075,16.1 L41.025,20.45 C41.625,21.875 41.025,23.525 39.6,24.125 L38.25,24.8 Z M35.925,16.1 L39,22.85 L39.15,22.775 C39.45,22.625 39.75,22.4 39.825,22.025 C39.975,21.725 39.975,21.35 39.825,20.975 L37.875,16.625 C37.575,15.95 36.75,15.65 36.15,15.95 L35.925,16.1 Z"
				id="Shape"></path>
			<path
				d="M12.15,36.125 C11.025,36.125 10.05,35.45 9.6,34.475 L7.65,30.125 C7.35,29.45 7.35,28.7 7.575,28.025 C7.875,27.35 8.325,26.75 9.075,26.45 L10.5,25.7 L14.775,35.15 L13.35,35.825 C12.9,35.975 12.525,36.125 12.15,36.125 Z M9.75,27.65 L9.6,27.725 C9.3,27.875 9,28.1 8.925,28.475 C8.775,28.775 8.775,29.15 8.925,29.525 L10.875,33.875 C11.175,34.55 12,34.85 12.6,34.55 L12.75,34.475 L9.75,27.65 Z"
				id="Shape"></path>
			<path
				d="M15.9,27.575 C14.175,27.575 12.6,26.525 11.925,25.025 C11.475,23.975 11.4,22.775 11.85,21.65 C12.3,20.525 13.05,19.7 14.175,19.175 C14.775,18.95 15.375,18.8 15.975,18.8 C17.7,18.8 19.275,19.85 19.95,21.35 C20.925,23.525 19.95,26.15 17.775,27.125 C17.1,27.425 16.5,27.575 15.9,27.575 Z M15.9,20.225 C15.45,20.225 15.075,20.3 14.7,20.45 C14.025,20.75 13.425,21.35 13.2,22.1 C12.9,22.85 12.975,23.6 13.275,24.35 C13.725,25.4 14.775,26.075 15.975,26.075 C16.425,26.075 16.8,26 17.175,25.85 C18.675,25.175 19.275,23.45 18.675,21.95 C18.075,20.9 17.025,20.225 15.9,20.225 Z"
				id="Shape"></path>
			<path
				d="M19.425,36.275 C17.7,36.275 16.125,35.225 15.45,33.725 C15,32.675 14.925,31.475 15.375,30.35 C15.825,29.225 16.575,28.4 17.7,27.875 C18.3,27.65 18.9,27.5 19.5,27.5 C21.225,27.5 22.8,28.55 23.475,30.05 C24.45,32.225 23.475,34.85 21.3,35.825 C20.625,36.125 20.025,36.275 19.425,36.275 Z M19.425,28.925 C18.975,28.925 18.6,29 18.225,29.15 C17.55,29.45 16.95,30.05 16.725,30.8 C16.425,31.55 16.5,32.3 16.8,33.05 C17.25,34.1 18.3,34.775 19.5,34.775 C19.95,34.775 20.325,34.7 20.7,34.55 C22.2,33.875 22.8,32.15 22.2,30.65 C21.6,29.6 20.55,28.925 19.425,28.925 Z"
				id="Shape"></path>
			<path
				d="M29.580925,17.7826958 C29.0054073,17.7972449 28.481027,17.5620539 28.275,17.15 L27.3,15.05 C27.225,15.05 27.225,14.975 27.225,14.9 L25.8,15.2 C25.8,15.35 25.875,15.5 25.95,15.65 L26.925,17.75 C27.375,18.725 28.35,19.25 29.475,19.25 C29.7335444,19.25 29.9738996,19.2318108 30.2139807,19.186475 L34.5832125,28.875095 L35.9506125,28.258445 L31.5932145,18.596066 C32.8029718,17.7408616 33.2939601,16.2926602 32.775,15.125 L31.8,13.025 C31.725,12.875 31.65,12.725 31.575,12.575 L30.375,13.475 C30.375,13.55 30.45,13.55 30.45,13.625 L31.425,15.725 C31.6445273,16.1640545 31.4222925,16.7637498 30.9640083,17.2008231 L29.4141225,13.764005 L28.0467225,14.380655 L29.580925,17.7826958 Z"
				id="Combined-Shape"></path>
			<path
				d="M27,30.275 C25.275,30.275 23.7,29.225 23.025,27.725 C22.05,25.55 23.025,22.925 25.2,21.95 C25.8,21.725 26.4,21.575 27,21.575 C28.725,21.575 30.3,22.625 30.975,24.125 C31.425,25.175 31.5,26.375 31.05,27.5 C30.6,28.625 29.85,29.45 28.725,29.975 C28.275,30.125 27.675,30.275 27,30.275 Z M27,22.925 C26.55,22.925 26.175,23 25.8,23.15 C24.3,23.825 23.7,25.55 24.3,27.05 C24.75,28.1 25.8,28.775 27,28.775 C27.45,28.775 27.825,28.7 28.2,28.55 C28.875,28.25 29.475,27.65 29.7,26.9 C30,26.15 29.925,25.4 29.625,24.65 C29.175,23.6 28.125,22.925 27,22.925 Z"
				id="Shape"></path>
		</g>
	</g>
</svg>
