<?xml version="1.0" encoding="UTF-8"?>
<svg width="48px" height="48px" viewBox="0 0 48 48" version="1.1" xmlns="http://www.w3.org/2000/svg"
		 xmlns:xlink="http://www.w3.org/1999/xlink">
	<!-- Generator: Sketch 43.1 (39012) - http://www.bohemiancoding.com/sketch -->
	<title>burger</title>
	<desc>Created with Sketch.</desc>
	<defs></defs>
	<g id="UI-KIT" stroke="none" stroke-width="1" fill="none" fill-rule="evenodd">
		<g id="burger" fill-rule="nonzero" fill="#455A64">
			<path
				d="M27.0196096,24 L11.364079,24 C10.4344664,24 9.68421053,24.7673944 9.68421053,25.722654 L9.68421053,27.4202031 C9.68421053,28.3767067 10.4350805,29.1428571 11.364079,29.1428571 L36.635921,29.1428571 C37.5655336,29.1428571 38.3157895,28.3754627 38.3157895,27.4202031 L38.3157895,25.722654 C38.3157895,24.7661505 37.5649194,24 36.635921,24 L36.1382851,24 L32.1744057,28.034663 C31.8455431,28.3693981 31.3123517,28.3693981 30.983489,28.034663 L27.0196096,24 Z M29.401443,24 L31.5839966,26.2215278 L33.7604619,24 L29.401443,24 Z M36.3053256,30.8571429 L11.6946744,30.8571429 L12.2067731,32.4208726 C12.5370186,33.429301 13.7008589,34.2857143 14.7338867,34.2857143 L33.2661133,34.2857143 C34.2918739,34.2857143 35.4652381,33.4224098 35.7932269,32.4208726 L36.3053256,30.8571429 Z M38.2109198,30.459322 L37.3910093,32.9629774 C36.8340692,34.6636337 35.017741,36 33.2661133,36 L14.7338867,36 C12.9749481,36 11.1681738,34.670483 10.6089907,32.9629774 L9.78903718,30.4591909 C8.72480007,29.8834985 8,28.7413929 8,27.4202031 L8,25.722654 C8,24.4446631 8.68017918,23.3295877 9.6933961,22.7373669 C9.96682307,16.7136193 16.3093843,12 24,12 C31.690655,12 38.0332418,16.7136676 38.3066081,22.7374594 C39.3183908,23.3286259 40,24.4414337 40,25.722654 L40,27.4202031 C40,28.73802 39.2767676,29.8826093 38.2109198,30.459322 Z M36.5793424,22.2857143 C35.9975639,17.5307918 30.626427,13.7142857 24,13.7142857 C17.373573,13.7142857 12.0024361,17.5307918 11.4206576,22.2857143 L36.5793424,22.2857143 Z M17.2631579,20.5714286 C16.798076,20.5714286 16.4210526,20.1876726 16.4210526,19.7142857 C16.4210526,19.2408988 16.798076,18.8571429 17.2631579,18.8571429 C17.7282398,18.8571429 18.1052632,19.2408988 18.1052632,19.7142857 C18.1052632,20.1876726 17.7282398,20.5714286 17.2631579,20.5714286 Z M24,20.5714286 C23.5349181,20.5714286 23.1578947,20.1876726 23.1578947,19.7142857 C23.1578947,19.2408988 23.5349181,18.8571429 24,18.8571429 C24.4650819,18.8571429 24.8421053,19.2408988 24.8421053,19.7142857 C24.8421053,20.1876726 24.4650819,20.5714286 24,20.5714286 Z M20.6315789,17.1428571 C20.1664971,17.1428571 19.7894737,16.7591012 19.7894737,16.2857143 C19.7894737,15.8123274 20.1664971,15.4285714 20.6315789,15.4285714 C21.0966608,15.4285714 21.4736842,15.8123274 21.4736842,16.2857143 C21.4736842,16.7591012 21.0966608,17.1428571 20.6315789,17.1428571 Z M27.3684211,17.1428571 C26.9033392,17.1428571 26.5263158,16.7591012 26.5263158,16.2857143 C26.5263158,15.8123274 26.9033392,15.4285714 27.3684211,15.4285714 C27.8335029,15.4285714 28.2105263,15.8123274 28.2105263,16.2857143 C28.2105263,16.7591012 27.8335029,17.1428571 27.3684211,17.1428571 Z M30.7368421,20.5714286 C30.2717602,20.5714286 29.8947368,20.1876726 29.8947368,19.7142857 C29.8947368,19.2408988 30.2717602,18.8571429 30.7368421,18.8571429 C31.201924,18.8571429 31.5789474,19.2408988 31.5789474,19.7142857 C31.5789474,20.1876726 31.201924,20.5714286 30.7368421,20.5714286 Z"
				id="Combined-Shape"></path>
		</g>
	</g>
</svg>
