<?xml version="1.0" encoding="UTF-8"?>
<svg width="48px" height="48px" viewBox="0 0 48 48" version="1.1" xmlns="http://www.w3.org/2000/svg"
		 xmlns:xlink="http://www.w3.org/1999/xlink">
	<!-- Generator: Sketch 43.1 (39012) - http://www.bohemiancoding.com/sketch -->
	<title>carribean-green</title>
	<desc>Created with Sketch.</desc>
	<defs></defs>
	<g id="UI-KIT" stroke="none" stroke-width="1" fill="none" fill-rule="evenodd">
		<g id="carribean-green" fill-rule="nonzero" fill="#39CE7B">
			<path
				d="M17.6,39.0833333 L17.45,38.9333336 L17.4499997,38.7664901 C11.6633882,36.1963696 7.85,30.4477093 7.85,24 C7.85,15.0806014 15.0806014,7.85 24,7.85 C32.9193986,7.85 40.15,15.0806014 40.15,24 C40.15,30.4477093 36.3366118,36.1963696 30.5500003,38.7664901 L30.55,38.9333336 L30.4,39.0833333 L29.8101483,39.0732837 C27.9727264,39.7819987 26.0116617,40.15 24,40.15 C21.9978685,40.15 20.0458557,39.7854773 18.2159743,39.0833333 L17.6,39.0833333 Z M24.0607557,17.7163302 L23.9279241,18.078549 L23.7950924,17.7163302 L23.7487095,18.5864816 C23.2430283,19.944795 22.9066642,20.6090061 22.2756177,21.2378268 L21.8271727,21.68469 L22.4284444,21.4865435 C22.6351183,21.4184351 22.960695,21.360661 23.2110192,21.346253 L23.2110192,25.3467982 L22.244104,25.4903426 C22.1415881,24.3133366 21.9138444,23.3426293 21.4445854,21.8436069 C21.4379115,21.7935806 21.4312805,21.7802818 21.302179,21.5398444 C21.2923162,21.5214447 21.2923162,21.5214447 21.2826203,21.503171 C21.2650153,21.4698775 21.249857,21.4400188 21.2371348,21.4136015 C21.2582566,21.4209929 21.2836658,21.4299121 21.3144158,21.4407077 C21.3297927,21.4460233 21.3297927,21.4460233 21.3453397,21.4513298 C21.4287584,21.4796959 21.4908002,21.4983287 21.5382068,21.5076237 C21.5875696,21.5173023 21.6220177,21.5193862 21.664527,21.5040164 C21.7998897,21.4550745 21.7931459,21.3252601 21.7280827,21.2451823 C21.0571337,20.5494814 20.0882966,20.0513032 19.1370966,19.9032391 C18.9245625,19.8494719 18.7853073,20.0564209 18.9391182,20.2563747 C20.3717541,22.4622136 21.1331361,24.5548299 21.1255837,26.8444259 L21.2755829,26.9949207 C21.4844914,26.9949207 21.7260989,26.9599895 22.3445831,26.8531929 C22.7911187,26.7760877 23.0377428,26.7373836 23.2110192,26.7230382 L23.2110192,29.5881598 L23.3610192,29.7381598 L24.494829,29.7381598 L24.644829,29.5881598 L24.644829,26.7230382 C24.8181053,26.7373836 25.0647294,26.7760877 25.5125622,26.8534169 C26.1297492,26.9599895 26.3713568,26.9949207 26.5802652,26.9949207 L26.7302644,26.8444259 C26.7227121,24.5548299 27.4840941,22.4622136 28.9236185,20.2466425 C29.0705409,20.0564209 28.9312857,19.8494719 28.7054423,19.9059329 C27.7675516,20.0513032 26.7987145,20.5494814 26.1362722,21.235582 C26.0627021,21.3252603 26.0559587,21.4550747 26.1913211,21.5040165 C26.2338304,21.5193862 26.2682785,21.5173023 26.3176412,21.5076237 C26.3650479,21.4983287 26.4270897,21.4796959 26.5105084,21.4513299 C26.5260555,21.4460233 26.5260555,21.4460233 26.5414323,21.4407077 C26.5723169,21.4298648 26.5978137,21.4209149 26.6187334,21.41356 C26.606007,21.4399875 26.5908421,21.46986 26.5732279,21.503171 C26.563532,21.5214447 26.563532,21.5214447 26.5536692,21.5398444 C26.4245677,21.7802818 26.4179367,21.7935806 26.4063815,21.8641956 C25.9417872,23.3433211 25.7140498,24.3142325 25.6123585,25.4947361 L24.644829,25.3473007 L24.644829,21.346253 C24.8951532,21.360661 25.2207299,21.4184351 25.4274038,21.4865435 L26.0286756,21.6846901 L25.5802305,21.2378268 C24.9491839,20.6090061 24.6128201,19.9447956 24.0981638,18.5427762 L24.0996695,18.446359 L24.0607557,17.7163302 Z M17.4499991,10.7431815 C12.4545938,13.21509 9.21666667,18.3151184 9.21666667,24 C9.21666667,29.6848819 12.4545942,34.7849106 17.45,37.256819 L17.4499991,10.7431815 Z M38.7833333,24 C38.7833333,18.3151184 35.5454062,13.21509 30.5500009,10.7431815 L30.5500009,37.2568185 C35.5454062,34.78491 38.7833333,29.6848816 38.7833333,24 Z"
				id="Shape"></path>
		</g>
	</g>
</svg>
