<?xml version="1.0" encoding="UTF-8"?>
<svg width="48px" height="48px" viewBox="0 0 48 48" version="1.1" xmlns="http://www.w3.org/2000/svg"
		 xmlns:xlink="http://www.w3.org/1999/xlink">
	<!-- Generator: Sketch 43.1 (39012) - http://www.bohemiancoding.com/sketch -->
	<title>chicken-southern-green</title>
	<desc>Created with Sketch.</desc>
	<defs></defs>
	<g id="UI-KIT" stroke="none" stroke-width="1" fill="none" fill-rule="evenodd">
		<g id="chicken-southern-green" fill-rule="nonzero" fill="#39CE7B">
			<path
				d="M9.22253214,35.6769776 C8.74208029,34.544061 9.05668945,33.2352176 10.0013254,32.4352061 C10.9151252,31.6613098 12.2175569,31.5336944 13.2645893,32.1043858 L16.924997,28.470389 C16.7058834,23.7973501 20.9902843,15.3548019 25.5941084,10.8203065 C27.5428663,8.9008949 29.2738459,7.97442755 30.9040351,8.00053661 C32.5192408,8.02025829 33.7334527,8.78481583 35.5007576,10.5686086 C35.6686319,10.7380491 35.783866,10.8563236 36.1117518,11.1945125 C36.2392987,11.3215502 36.692404,11.7816348 36.7002812,11.7895816 C36.9393513,12.0307637 37.1241844,12.2114882 37.3074794,12.3807584 C40.0549976,14.9877914 40.7299467,17.2006247 40.0593785,21.4036166 C39.1456334,27.120047 29.0180674,32.449727 21.7293477,32.449727 C21.6154711,32.449727 21.5227073,32.4457004 21.3352305,32.4346053 C21.1870085,32.4258334 21.10915,32.4218564 21.0363258,32.4205373 L17.3185773,36.1151413 C17.8007507,36.9696755 17.7997197,38.0134517 17.3086944,38.8696577 C16.7981452,39.7599077 15.8382889,40.307187 14.8035257,40.2999107 C14.0013726,40.3065212 13.2333523,39.9799072 12.6878087,39.3999338 C12.1803702,38.8604703 11.9090937,38.1482198 11.9278633,37.4170134 C10.7560694,37.4389042 9.67938936,36.7542574 9.22253214,35.6769776 Z M13.9016283,33.6902933 C13.5843648,33.9938412 13.0804175,33.9938412 12.7627122,33.6898688 C12.2627774,33.2076198 11.462208,33.2076198 10.9622732,33.6898688 L10.835814,33.8118544 C10.4778628,34.2845208 10.4985663,34.95055 10.9087807,35.4021207 C11.3613154,35.9002783 12.1307525,35.9645764 12.6619409,35.5487002 C13.0604428,35.2346995 14.1213129,36.2896169 13.7933427,36.6785469 C13.3860833,37.1764556 13.4241698,37.8957255 13.8761041,38.3438575 C14.3969761,38.8074492 15.1903609,38.8074492 15.7048154,38.3499169 C16.1956952,37.858319 16.1956952,37.0707777 15.7027582,36.5770788 C15.4034378,36.2653308 15.4034378,35.7767306 15.7054726,35.4622275 L19.6276603,31.5825594 C19.5930324,31.54566 19.5650571,31.5158588 19.4975991,31.443998 C19.2538858,31.1847732 19.0867981,31.0113788 18.9176478,30.8447725 C18.5306155,30.467712 18.1731254,30.1439815 17.8075745,29.8431881 L13.9016283,33.6902933 Z M21.0131235,27.257446 C21.1327874,27.4342389 21.3196849,27.5555017 21.5310909,27.5939471 C21.7365011,27.6408902 21.9524887,27.6054953 22.131633,27.4953381 C22.312423,27.3841688 22.4407296,27.2060426 22.487676,27.000622 C23.167745,24.3028322 24.3077524,21.7347101 25.8586603,19.4082532 C27.3932693,17.2541249 29.2740704,15.3546223 31.4258988,13.7868472 C31.5798729,13.8021366 31.7968751,13.6905408 31.9419359,13.5086439 C32.1592006,13.2714565 32.218611,12.9203624 32.0873447,12.6168367 C31.9606194,12.3468816 31.7020293,12.1672123 31.4070705,12.1406301 C30.3201527,12.0563231 26.2151206,16.0055465 24.5018939,18.5318385 C22.8348556,21.0123967 21.6158588,23.7575423 20.8983918,26.6465921 C20.8505893,26.8595621 20.8923566,27.0790236 21.0131235,27.257446 Z M27.2645893,20.1542195 C26.0161365,22.012698 25.1033696,24.0698795 24.5666575,26.234824 C24.5213784,26.4443527 24.5618289,26.658335 24.6779075,26.8337732 C24.7936701,27.008734 24.9750706,27.130905 25.1819944,27.1735538 C25.2516521,27.1813802 25.3065236,27.1813802 25.3609695,27.1758831 C25.7130268,27.1799809 26.0362084,26.9331245 26.1250412,26.5791504 C26.6226848,24.6069629 27.4566716,22.7320573 28.5914451,21.0344914 C29.7016463,19.4766403 31.0579971,18.0980788 32.6077729,16.9535207 C32.7576834,16.9666601 32.9684844,16.8542751 33.1073693,16.6738697 C33.3191007,16.4472719 33.380777,16.1050608 33.2562295,15.8070178 C33.1316796,15.5380218 32.8758275,15.3594397 32.583737,15.3333413 L32.5402138,15.3327461 C31.6443565,15.3327461 28.6783984,18.0719455 27.2645893,20.1542195 Z M33.0804346,19.1200043 C32.4022564,19.1371648 30.822329,20.6513972 30.0670625,21.7581648 C29.4023305,22.7514699 28.9169449,23.8490045 28.6314852,25.003683 C28.5862296,25.2131171 28.6266801,25.4270993 28.7427586,25.6025376 C28.8585213,25.7774983 29.0399217,25.8996693 29.2468456,25.9423182 C29.3163589,25.9502803 29.3715191,25.9502803 29.426228,25.9446058 C29.7869462,25.9459949 30.1129073,25.6860953 30.1910691,25.3216281 C30.4323718,24.3633182 30.8393076,23.4473877 31.3933285,22.6180791 C31.9207641,21.8777098 32.5641971,21.2186164 33.2983711,20.6677786 C33.4216358,20.6529803 33.5814718,20.5511144 33.6935045,20.4059172 C33.8738687,20.1679966 33.9173656,19.8564194 33.8092543,19.5802949 C33.6863524,19.308716 33.4313162,19.1292905 33.1396831,19.1034596 L33.0804346,19.1200043 Z"
				id="Combined-Shape"></path>
		</g>
	</g>
</svg>
