<?xml version="1.0" encoding="UTF-8"?>
<svg width="48px" height="48px" viewBox="0 0 48 48" version="1.1" xmlns="http://www.w3.org/2000/svg"
		 xmlns:xlink="http://www.w3.org/1999/xlink">
	<!-- Generator: Sketch 43.1 (39012) - http://www.bohemiancoding.com/sketch -->
	<title>chicken-wings-green</title>
	<desc>Created with Sketch.</desc>
	<defs></defs>
	<g id="UI-KIT" stroke="none" stroke-width="1" fill="none" fill-rule="evenodd">
		<g id="chicken-wings-green" fill-rule="nonzero" fill="#39CE7B">
			<path
				d="M24.1395041,21.5111987 C24.8478062,17.5427204 25.3633754,15.3286301 26.2471003,12.9714873 C26.66895,11.8462888 27.1302809,10.9246735 27.7117839,10.1087132 C28.5478433,8.93566917 29.6798152,8.25089139 31.1043621,8.06699728 C31.2263141,8.02625233 31.2263141,8.02625233 31.3449563,8 L32.0422978,8 C32.160913,8.01920053 32.2149836,8.02995383 32.338874,8.05428523 C32.6209272,8.10966385 32.7452975,8.13554724 32.9011326,8.1735416 C33.749594,8.38024338 34.5265033,8.76194676 35.2190112,9.30777899 C37.4033089,11.0293566 38.7993096,13.2501944 39.3931818,15.946608 C39.5524896,16.6700067 39.4252421,17.4118537 39.0561488,18.1442321 C38.8379425,18.5773504 38.6170098,18.9370087 38.1709627,19.6150686 C37.9636425,19.9302709 37.7381078,20.2154772 37.4960015,20.4627766 C36.6289209,21.348351 36.1036089,22.4133952 35.6668511,23.9840363 C34.2655701,29.0235491 31.953618,33.4621427 28.6811056,37.2701888 C27.6040066,38.523579 26.6316108,39.3712363 25.4886331,39.9489841 C25.2013018,40.0942451 24.9612303,40.1774677 24.4166025,40.3398689 C24.1775959,40.4111376 24.0725531,40.4434987 23.8643837,40.5 L23.3593571,40.4923773 C22.2920654,40.2226064 21.5914651,39.56741 20.8079447,38.344143 C19.8643012,36.8707336 19.2017805,35.28222 18.4582299,32.9399522 C17.8585327,31.0507652 17.3765442,29.0767181 16.9972359,26.9935101 C16.9290946,27.1622706 16.8853133,27.270537 16.8449085,27.3699896 C16.6492109,27.8516813 16.502319,28.2004047 16.3489046,28.5413796 C15.2116526,31.0693207 13.9195282,33.0498848 12.250766,34.6501248 C11.7996522,35.0827413 11.3472468,35.422845 10.5041238,35.9977427 C10.3841627,36.0794582 10.3841627,36.0794582 10.2647444,36.1607722 C9.92800825,36.390652 9.57066352,36.4989431 9.18822964,36.5370775 C8.39980006,36.6157392 7.86037654,36.0252507 8.03189857,35.2578704 C8.11996026,34.8636679 8.20920662,34.5543426 8.42255854,33.8676147 C8.50215663,33.6113915 8.53888769,33.4918455 8.57991261,33.3542059 C9.64502618,29.7811894 10.51407,26.1234652 11.1926449,22.3768984 C11.1996698,22.3380986 11.2062483,22.2982908 11.2130253,22.2536725 C11.0821076,22.3128825 11.0821076,22.3128825 11.0228312,22.3390431 C10.4020351,22.6130719 10.136133,22.7271324 9.80170772,22.8584464 C9.43875797,23.0009948 9.07698965,22.9002292 8.80823651,22.6087556 C8.56232156,22.3419781 8.53268169,22.0119132 8.66435615,21.6498998 C8.71268694,21.5172792 8.7520598,21.4297731 8.81037377,21.3427234 C9.48621263,20.3333274 9.95073846,19.4808713 10.9389623,17.5279532 C11.3663892,16.6832766 11.558915,16.308069 11.8072986,15.843451 C12.2956295,14.929971 12.8341243,14.0018721 13.429885,13.0408449 C13.6499567,12.6858261 13.9360712,12.3545998 14.3357374,11.964857 C15.1185248,11.2012497 16.0773851,11.0855868 17.2979263,11.4392503 C18.1505424,11.6862784 18.8506718,12.2101265 19.545297,13.0312348 C20.5510356,14.2202501 21.2884989,15.5962203 22.043217,17.5134419 C22.4544789,18.5583765 22.767672,19.3997621 23.4599534,21.2954582 C23.6874903,21.9185297 23.8221853,22.2865814 23.9466413,22.6240971 C24.0358049,22.1004364 24.0817021,21.8349915 24.1395041,21.5111987 Z"
				id="Fill-1"></path>
		</g>
	</g>
</svg>
