<?xml version="1.0" encoding="UTF-8"?>
<svg width="48px" height="48px" viewBox="0 0 48 48" version="1.1" xmlns="http://www.w3.org/2000/svg"
		 xmlns:xlink="http://www.w3.org/1999/xlink">
	<!-- Generator: Sketch 43.1 (39012) - http://www.bohemiancoding.com/sketch -->
	<title>chicken-wings</title>
	<desc>Created with Sketch.</desc>
	<defs></defs>
	<g id="UI-KIT" stroke="none" stroke-width="1" fill="none" fill-rule="evenodd">
		<g id="chicken-wings" fill-rule="nonzero" fill="#455A64">
			<path
				d="M10.0094384,34.5936542 C10.0872685,34.5255646 10.1449199,34.4755284 10.2805305,34.358199 L10.3668818,34.2835366 C11.0616612,33.6827295 11.3898858,33.3785267 11.7339062,32.9908683 C13.4681073,31.0368047 14.7636516,28.6932025 15.776743,25.8415583 C15.9569812,25.3342242 16.0930047,24.8987799 16.3608357,23.9982471 C16.4467926,23.7092102 16.4780539,23.6044056 16.5176776,23.4727293 C16.6376235,23.0740215 16.9005982,22.8481939 17.3052611,22.8663745 C17.7231931,22.8850592 17.9880115,23.1461657 18.0317045,23.5637027 C18.0556545,23.6769967 18.061887,23.7086179 18.0660198,23.7474042 C18.2717964,25.6845384 18.6365872,27.6609987 19.1561054,29.7200243 C19.8869653,32.6165758 20.5963001,34.6976206 21.5995441,36.6246892 C21.902663,37.2069842 22.2865219,37.7729595 22.854803,38.5109214 C23.2096429,38.9717876 23.7017796,39.0879156 24.2614387,38.8461832 C24.90565,38.5679137 25.2248565,38.4017407 25.5211794,38.1592701 C26.4221283,37.4220408 26.9735997,36.9187866 27.4635524,36.3481433 C30.7747535,32.4916125 33.0653955,27.9871408 34.3957787,22.8474187 C34.6634997,21.8130781 35.0771279,20.9654946 35.7007441,20.231729 C35.7555748,20.1672113 35.798209,20.1174853 35.8956268,20.0042223 C36.2813235,19.5559042 36.4448903,19.3576284 36.6272458,19.1069442 C37.1029837,18.452892 37.3792935,18.042318 37.6283265,17.594171 C37.9272524,17.056355 37.9828384,16.4606729 37.8052104,15.8139675 C37.4121283,14.3829146 36.7147421,13.0753453 35.7191924,11.8715755 C35.0891029,11.1096826 34.4032526,10.5154157 33.6244193,10.079395 C31.7845384,9.04942769 29.8564724,9.51567055 28.7738285,11.267563 C28.3402386,11.9690879 27.9637527,12.7579028 27.6463424,13.6116206 C26.7582575,16.0003071 26.2980908,18.060374 25.5344106,22.4534312 C25.5197129,22.5379895 25.5197129,22.5379895 25.5050169,22.6225572 C25.4118558,23.1585849 25.3483728,23.5379037 25.2073279,24.3916035 C25.099575,25.0437974 25.0508048,25.3367458 24.9892939,25.6981055 C24.9312677,26.0387533 24.6982133,26.2616419 24.3512157,26.3042007 C23.9958334,26.3478163 23.7070203,26.2021426 23.5504242,25.8832959 C23.5142384,25.8095344 23.4855534,25.7387982 23.4450578,25.629139 C23.2483264,25.0962056 23.0849708,24.6524289 22.7418583,23.7193944 C21.9555036,21.5810372 21.6097143,20.6449339 21.1735802,19.479896 C20.4000012,17.4133997 19.8173097,16.1264996 19.0240099,14.8940611 C18.4364677,13.9812681 17.9500141,13.44954 17.2957325,13.1079248 C16.2792913,12.5772285 15.5237269,12.6464464 14.9679988,13.5096523 C14.9041787,13.6087719 14.8563453,13.6825798 14.7444302,13.8548342 C14.1707879,14.7373494 13.9343483,15.1178437 13.6758025,15.5956001 C13.0765936,16.7029824 12.6063025,17.5947887 11.5559372,19.6039311 C11.3401251,20.0167372 11.1894321,20.3048598 11.0613035,20.5494978 C11.4010336,20.3351307 11.5835633,20.227936 11.8139501,20.1120615 C12.0542739,19.99128 12.4293632,19.988881 12.6418867,20.129406 C12.8573627,20.2718918 13.0009364,20.6276336 12.9687292,20.893175 C12.8860086,21.574937 12.7723136,22.2771721 12.6087186,23.1559977 C11.8682787,27.1339999 10.9196734,31.002266 9.7547453,34.7673817 C9.87167779,34.7011369 9.94059224,34.6538738 10.0094384,34.5936542 Z M24.1395041,21.5111987 C24.8478062,17.5427204 25.3633754,15.3286301 26.2471003,12.9714873 C26.66895,11.8462888 27.1302809,10.9246735 27.7117839,10.1087132 C28.5478433,8.93566917 29.6798152,8.25089139 31.1043621,8.06699728 C31.2263141,8.02625233 31.2263141,8.02625233 31.3449563,8 L32.0422978,8 C32.160913,8.01920053 32.2149836,8.02995383 32.338874,8.05428523 C32.6209272,8.10966385 32.7452975,8.13554724 32.9011326,8.1735416 C33.749594,8.38024338 34.5265033,8.76194676 35.2190112,9.30777899 C37.4033089,11.0293566 38.7993096,13.2501944 39.3931818,15.946608 C39.5524896,16.6700067 39.4252421,17.4118537 39.0561488,18.1442321 C38.8379425,18.5773504 38.6170098,18.9370087 38.1709627,19.6150686 C37.9636425,19.9302709 37.7381078,20.2154772 37.4960015,20.4627766 C36.6289209,21.348351 36.1036089,22.4133952 35.6668511,23.9840363 C34.2655701,29.0235491 31.953618,33.4621427 28.6811056,37.2701888 C27.6040066,38.523579 26.6316108,39.3712363 25.4886331,39.9489841 C25.2013018,40.0942451 24.9612303,40.1774677 24.4166025,40.3398689 C24.1775959,40.4111376 24.0725531,40.4434987 23.8643837,40.5 L23.3593571,40.4923773 C22.2920654,40.2226064 21.5914651,39.56741 20.8079447,38.344143 C19.8643012,36.8707336 19.2017805,35.28222 18.4582299,32.9399522 C17.8585327,31.0507652 17.3765442,29.0767181 16.9972359,26.9935101 C16.9290946,27.1622706 16.8853133,27.270537 16.8449085,27.3699896 C16.6492109,27.8516813 16.502319,28.2004047 16.3489046,28.5413796 C15.2116526,31.0693207 13.9195282,33.0498848 12.250766,34.6501248 C11.7996522,35.0827413 11.3472468,35.422845 10.5041238,35.9977427 C10.3841627,36.0794582 10.3841627,36.0794582 10.2647444,36.1607722 C9.92800825,36.390652 9.57066352,36.4989431 9.18822964,36.5370775 C8.39980006,36.6157392 7.86037654,36.0252507 8.03189857,35.2578704 C8.11996026,34.8636679 8.20920662,34.5543426 8.42255854,33.8676147 C8.50215663,33.6113915 8.53888769,33.4918455 8.57991261,33.3542059 C9.64502618,29.7811894 10.51407,26.1234652 11.1926449,22.3768984 C11.1996698,22.3380986 11.2062483,22.2982908 11.2130253,22.2536725 C11.0821076,22.3128825 11.0821076,22.3128825 11.0228312,22.3390431 C10.4020351,22.6130719 10.136133,22.7271324 9.80170772,22.8584464 C9.43875797,23.0009948 9.07698965,22.9002292 8.80823651,22.6087556 C8.56232156,22.3419781 8.53268169,22.0119132 8.66435615,21.6498998 C8.71268694,21.5172792 8.7520598,21.4297731 8.81037377,21.3427234 C9.48621263,20.3333274 9.95073846,19.4808713 10.9389623,17.5279532 C11.3663892,16.6832766 11.558915,16.308069 11.8072986,15.843451 C12.2956295,14.929971 12.8341243,14.0018721 13.429885,13.0408449 C13.6499567,12.6858261 13.9360712,12.3545998 14.3357374,11.964857 C15.1185248,11.2012497 16.0773851,11.0855868 17.2979263,11.4392503 C18.1505424,11.6862784 18.8506718,12.2101265 19.545297,13.0312348 C20.5510356,14.2202501 21.2884989,15.5962203 22.043217,17.5134419 C22.4544789,18.5583765 22.767672,19.3997621 23.4599534,21.2954582 C23.6874903,21.9185297 23.8221853,22.2865814 23.9466413,22.6240971 C24.0358049,22.1004364 24.0817021,21.8349915 24.1395041,21.5111987 Z"
				id="Fill-1"></path>
		</g>
	</g>
</svg>
