<?xml version="1.0" encoding="UTF-8"?>
<svg width="48px" height="48px" viewBox="0 0 48 48" version="1.1" xmlns="http://www.w3.org/2000/svg"
		 xmlns:xlink="http://www.w3.org/1999/xlink">
	<!-- Generator: Sketch 43.1 (39012) - http://www.bohemiancoding.com/sketch -->
	<title>chinese</title>
	<desc>Created with Sketch.</desc>
	<defs></defs>
	<g id="UI-KIT" stroke="none" stroke-width="1" fill="none" fill-rule="evenodd">
		<g id="chinese" fill-rule="nonzero" fill="#455A64">
			<path
				d="M36.2158564,11.9729062 C36.3303198,11.6314748 36.6867102,11.4822716 37.0056689,11.6091274 C37.313736,11.7316513 37.4825037,12.0486163 37.3603649,12.3522201 L34.8642291,18.5714741 L33.488332,37.8377358 C33.488332,38.1498999 33.1980994,38.4 32.8835071,38.4 L15.5974822,38.4 C15.2828899,38.4 14.9926573,38.1498999 14.9932262,37.8528104 L13.549574,18.6314654 L11.0398247,12.3526325 C10.9175972,12.0488065 11.0882353,11.6906254 11.3943554,11.5688758 C11.6985039,11.4479104 12.0575658,11.6170221 12.1802593,11.9220074 L14.558943,17.8742138 L14.7282713,17.8742138 L17.7388681,13.857174 C17.8529771,13.6869868 18.028747,13.6075472 18.2288443,13.6075472 L30.4545574,13.6075472 C30.6460499,13.6075472 30.8268948,13.7219738 30.946047,13.8997165 L33.5587291,17.9144654 L33.8410885,17.9144654 L36.2158564,11.9729062 Z M16.6579696,37.2352201 L31.3919773,37.2352201 L24.1768704,29.947997 L16.6579696,37.2352201 Z M33.0578915,19.0792453 L15.3016503,19.0792453 L24.1797709,28.2124365 L33.0578915,19.0792453 Z M16.239883,17.8742138 L32.1086299,17.8742138 L30.1035696,14.8125786 L18.5313805,14.8125786 L16.239883,17.8742138 Z M16.0887399,36.1092507 L23.3300271,29.0987426 L14.9072667,20.4208704 L16.0887399,36.1092507 Z M33.4952241,20.3780157 L25.0269672,29.1013894 L32.350865,36.4593655 L33.4952241,20.3780157 Z M22.7628836,12.3572327 C21.7215846,12.3572327 20.8626189,11.5031667 20.8626189,10.4666667 C20.8626189,9.43016663 21.7215846,8.57610063 22.7628836,8.57610063 C23.1384719,8.57610063 23.4534985,8.26287103 23.4534985,7.89056604 C23.4534985,7.51826105 23.1384719,7.20503145 22.7628836,7.20503145 C22.409787,7.20503145 22.1580587,6.95473903 22.1580587,6.60251572 C22.1580587,6.25029241 22.409787,6 22.7628836,6 C23.8041826,6 24.6631484,6.854066 24.6631484,7.89056604 C24.6631484,8.92706608 23.8041826,9.78113208 22.7628836,9.78113208 C22.3872953,9.78113208 22.0722688,10.0943617 22.0722688,10.4666667 C22.0722688,10.8389717 22.3872953,11.1522013 22.7628836,11.1522013 C23.1159802,11.1522013 23.3677086,11.4024937 23.3677086,11.754717 C23.3677086,12.1069403 23.1159802,12.3572327 22.7628836,12.3572327 Z M26.2038956,12.3572327 C25.1625966,12.3572327 24.3036308,11.5031667 24.3036308,10.4666667 C24.3036308,9.43016663 25.1625966,8.57610063 26.2038956,8.57610063 C26.5794839,8.57610063 26.8945104,8.26287103 26.8945104,7.89056604 C26.8945104,7.51826105 26.5794839,7.20503145 26.2038956,7.20503145 C25.850799,7.20503145 25.5990706,6.95473903 25.5990706,6.60251572 C25.5990706,6.25029241 25.850799,6 26.2038956,6 C27.2451946,6 28.1041603,6.854066 28.1041603,7.89056604 C28.1041603,8.92706608 27.2451946,9.78113208 26.2038956,9.78113208 C25.8283073,9.78113208 25.5132807,10.0943617 25.5132807,10.4666667 C25.5132807,10.8389717 25.8283073,11.1522013 26.2038956,11.1522013 C26.5569922,11.1522013 26.8087205,11.4024937 26.8087205,11.754717 C26.8087205,12.0967427 26.5280229,12.3572327 26.2038956,12.3572327 Z"
				id="Combined-Shape"></path>
		</g>
	</g>
</svg>
