<?xml version="1.0" encoding="UTF-8"?>
<svg width="48px" height="48px" viewBox="0 0 48 48" version="1.1" xmlns="http://www.w3.org/2000/svg"
		 xmlns:xlink="http://www.w3.org/1999/xlink">
	<!-- Generator: Sketch 43.1 (39012) - http://www.bohemiancoding.com/sketch -->
	<title>creperie-green</title>
	<desc>Created with Sketch.</desc>
	<defs></defs>
	<g id="UI-KIT" stroke="none" stroke-width="1" fill="none" fill-rule="evenodd">
		<g id="creperie-green" fill-rule="nonzero" fill="#39CE7B">
			<path
				d="M17.548006,13.5864325 C17.6391349,13.6331885 18.5664879,14.1020768 18.9378669,14.29123 C19.7441949,14.7019141 20.4804583,15.0829643 21.1796877,15.4540172 C21.3501589,15.5444795 21.5164079,15.6332945 21.6782989,15.720419 C22.6055787,16.2194513 23.362659,16.6467239 23.9446382,17.007459 C24.8487971,16.3934906 25.9413814,15.8040439 27.5490088,15.0135782 C27.7874217,14.8963513 28.7511779,14.4273355 28.9921719,14.3088394 C29.5447251,14.0371507 29.9817804,13.8156396 30.4230238,13.5810627 C30.7746927,13.4041269 31.1019354,13.2403092 31.4073844,13.0884576 C31.088952,12.7898587 30.8296083,12.4490294 30.4634391,11.9113405 C30.445748,11.8853562 30.445748,11.8853562 30.4283735,11.859831 C30.3517752,11.7473154 30.3105262,11.6872946 30.2210328,11.5563399 C29.9286884,11.089169 29.7628005,10.8828536 29.7626364,10.8809081 C29.7159625,10.8561934 29.538693,10.8457884 28.9094292,10.8844863 C28.8022247,10.891055 28.8022247,10.891055 28.7194056,10.8954836 C27.800544,10.9649915 27.3154365,10.9649915 26.6189684,10.8049567 C25.971054,10.6229123 25.3849003,10.3401402 24.7723427,9.963755 L24.7083281,9.92979061 C24.0876777,9.58102265 23.9091643,9.5 23.9011532,9.5 C23.8404808,9.5 23.5936473,9.62136727 23.0629384,9.99320866 C22.4085942,10.4221941 21.8610262,10.7138681 21.1976256,10.9284609 C20.4958097,11.112504 19.988397,11.1208204 18.9458717,11.0524603 C18.2795018,11.0115038 18.0374756,11.019855 18.0391296,11.0180135 C17.9078759,11.0825506 17.7512235,11.2666604 17.1726865,12.093467 L17.3536133,11.8745086 C17.2607508,12.0118896 17.2103969,12.0861977 17.1608798,12.1581163 C16.9113501,12.5205325 16.6916661,12.8021752 16.4470919,13.0451762 C16.7684759,13.2030803 17.1328747,13.3822841 17.548006,13.5864325 Z M23.9802306,18.8481166 C22.7940692,17.8760632 17.7726524,15.3876063 16.8632619,14.9210207 C15.2026359,14.1044957 13.7397035,13.3657351 12.7512356,12.9769137 C13.383855,12.9380316 14.214168,12.8602673 15.0840198,12.2381531 C15.5189456,11.927096 15.7957166,11.4993925 16.1120264,11.0328068 C16.4678748,10.4884569 16.8237232,9.94410693 17.3772652,9.67193196 C17.8121911,9.47752126 18.4052718,9.5164034 19.0378913,9.55528554 C19.630972,9.59416768 20.2240527,9.63304982 20.8171334,9.47752126 C21.291598,9.32199271 21.7660626,9.04981774 22.2405272,8.73876063 C22.7940692,8.34993925 23.3476112,8 23.9011532,8 C24.3756178,8 24.8896211,8.31105711 25.4431631,8.62211422 C25.9571664,8.93317132 26.4711697,9.20534629 27.0247117,9.36087485 C27.538715,9.47752126 28.092257,9.43863913 28.6062603,9.39975699 C29.3179572,9.36087485 29.9505766,9.28311057 30.4645799,9.55528554 C30.8599671,9.78857837 31.1762768,10.255164 31.4925865,10.7606318 C31.8484349,11.2660996 32.1647446,11.8104496 32.6787479,12.199271 C33.0741351,12.5103281 33.7462932,12.6269745 34.4975288,12.782503 C34.7347611,12.8213852 35.0115321,12.8602673 35.2883031,12.9380316 C34.2998353,13.326853 32.7973641,14.0656136 31.0971993,14.9210207 C30.1482702,15.4264885 29.1598023,15.8930741 28.2108731,16.3596598 C26.6293245,17.1373026 25.1268534,17.9149453 23.9802306,18.8481166 Z M19.354201,17.0984204 C20.7775947,17.7982989 22.2800659,18.5370595 23.3476112,19.4313487 C22.6359143,20.1701094 22.1614498,20.9866343 22.0032949,21.9975699 C21.6869852,23.9027947 21.6869852,26.0413123 21.6474465,28.5297691 L21.6474465,28.6075334 C21.6474465,29.4240583 21.6474465,30.1239368 21.6079077,30.8626974 C21.568369,32.1069259 21.5288303,33.4289186 21.568369,35.0619684 L21.6079077,36.3061968 C17.7726524,27.363305 12.9489292,15.854192 12,13.5990279 C12.9093904,13.8712029 14.6490939,14.72661 16.4678748,15.6597813 C17.416804,16.126367 18.4052718,16.6318348 19.354201,17.0984204 Z M31.4925865,15.6597813 C33.3113674,14.72661 35.0510708,13.8712029 36,13.5601458 C34.9719934,16.0874848 29.2784185,29.6962333 25.2850082,38.8335358 C25.1268534,39.1834751 24.5337727,40 23.9406919,40 C23.5057661,40 23.0313015,39.4945322 22.5963756,38.5613609 L22.4382208,35.0230863 C22.398682,33.3900365 22.4382208,32.1069259 22.4777595,30.8626974 C22.4777595,30.1239368 22.5172982,29.3851762 22.5172982,28.6075334 C22.5568369,26.0801944 22.5963756,23.9805589 22.8731466,22.1142163 C23.2289951,19.8590522 25.7990115,18.4592953 28.6062603,17.0984204 C29.5551895,16.6318348 30.5436573,16.126367 31.4925865,15.6597813 Z"
				id="Shape"></path>
		</g>
	</g>
</svg>
