<?xml version="1.0" encoding="UTF-8"?>
<svg width="48px" height="48px" viewBox="0 0 48 48" version="1.1" xmlns="http://www.w3.org/2000/svg"
		 xmlns:xlink="http://www.w3.org/1999/xlink">
	<!-- Generator: Sketch 43.1 (39012) - http://www.bohemiancoding.com/sketch -->
	<title>cuban</title>
	<desc>Created with Sketch.</desc>
	<defs></defs>
	<g id="UI-KIT" stroke="none" stroke-width="1" fill="none" fill-rule="evenodd">
		<g id="cuban" fill-rule="nonzero" fill="#455A64">
			<polygon id="Shape"
							 points="12.999995 21 12.2813316 23.3224939 10 23.3224939 11.8466567 24.7265819 11.1631499 26.9352955 12.9732868 25.5832697 14.8366113 27 14.1369044 24.7141388 16 23.3224939 13.7109067 23.3224939 12.999995 21"></polygon>
			<polygon id="Shape" points="12.35 33.1143388 40.25 33.1143388 40.25 34.6918898 12.35 34.6918898"></polygon>
			<polygon id="Shape" points="12.35 14.122502 40.25 14.122502 40.25 15.7000531 12.35 15.7000531"></polygon>
			<polygon id="Shape"
							 points="16.4166667 20.4531143 40.25 20.4531143 40.25 22.0306653 16.4166667 22.0306653"></polygon>
			<polygon id="Shape"
							 points="16.4166667 26.7837265 40.25 26.7837265 40.25 28.3612776 16.4166667 28.3612776"></polygon>
			<path
				d="M40.25,36.7990327 C40.25,39.0166079 38.464359,40.8204612 36.2666667,40.8204612 L11.7333333,40.8204612 C9.5356409,40.8204612 7.75,39.0166079 7.75,36.7990327 L7.75,12.0153592 C7.75,9.79778394 9.5356409,7.99393061 11.7333333,7.99393061 L36.2666667,7.99393061 C38.464359,7.99393061 40.25,9.79778398 40.25,12.0153592 L40.25,36.7990327 Z M38.6833333,36.7990327 L38.6833333,12.0153592 C38.6833333,10.6511541 37.6145737,9.57148163 36.2666667,9.57148163 L11.7333333,9.57148163 C10.3854264,9.57148163 9.31666667,10.6511542 9.31666667,12.0153592 L9.31666667,36.7990327 C9.31666667,38.1632377 10.3854264,39.2429102 11.7333333,39.2429102 L36.2666667,39.2429102 C37.6145737,39.2429102 38.6833333,38.1632377 38.6833333,36.7990327 Z"
				id="Shape"></path>
			<polygon id="Shape"
							 points="8.34202962 9.94527042 9.64388104 9.06766304 19.7740903 24.4073543 9.6731449 39.6974759 8.37129443 38.8198692 17.8925764 24.4071725"></polygon>
		</g>
	</g>
</svg>
