<?xml version="1.0" encoding="UTF-8"?>
<svg width="48px" height="48px" viewBox="0 0 48 48" version="1.1" xmlns="http://www.w3.org/2000/svg"
		 xmlns:xlink="http://www.w3.org/1999/xlink">
	<!-- Generator: Sketch 43.1 (39012) - http://www.bohemiancoding.com/sketch -->
	<title>dessert</title>
	<desc>Created with Sketch.</desc>
	<defs></defs>
	<g id="UI-KIT" stroke="none" stroke-width="1" fill="none" fill-rule="evenodd">
		<g id="dessert" fill-rule="nonzero" fill="#455A64">
			<path
				d="M13.0373037,21.7726554 L12.9189245,21.8459625 C12.87367,21.8732305 12.87367,21.8732305 12.8327732,21.896545 C9.68157141,23.7587726 8,26.2184358 8,28.859925 C8,31.4987295 9.67854172,33.9563402 12.7518728,35.7827741 C15.6957033,37.5334671 19.603497,38.5 23.7483998,38.5 C27.8949265,38.5 31.8000152,37.5341361 34.7481929,35.782735 C37.8214583,33.9563402 39.5,31.4987295 39.5,28.859925 C39.5,26.2199557 37.8201611,23.7596394 34.7483533,21.9372101 C34.5525722,21.820821 34.3899799,21.7316695 34.0189607,21.5337257 L33.932832,21.4579395 L28.181186,13.3616516 C28.0724166,13.2070252 27.903575,13.1009084 27.7066049,13.0666827 C27.6252575,13.0505627 27.3227612,13.00815 26.9799343,12.971756 L26.773818,12.9498751 L26.7571366,12.743273 C26.5873517,10.6404645 24.8051595,9 22.6634913,9 C20.3976082,9 18.5546555,10.8260178 18.5546555,13.0687824 C18.5546555,13.2124151 18.5612085,13.3415491 18.5755004,13.4689948 L18.5983003,13.6723078 L18.4035154,13.734877 C16.3268693,14.401941 14.5887506,15.4273223 13.2646534,16.7717775 C13.1937093,16.8492057 13.1937093,16.8492057 13.1939852,16.8497642 C13.162836,16.8872407 13.1354642,16.9299407 13.1129052,16.9769948 C13.111988,16.9874382 13.111988,16.9874382 13.1333133,16.8802188 L13.1065046,16.9928494 C13.0695914,17.088992 13.0695914,17.088992 13.0617097,17.1189526 C13.0502695,17.1751192 13.0456618,17.1988256 13.0393075,17.2204218 C13.0388871,17.2917738 13.037984,17.3038009 13.0373037,17.3111931 L13.0373037,21.7726554 Z M22.660291,10.4247437 C24.1323817,10.4247437 25.329733,11.6110925 25.329733,13.0719533 C25.329733,14.5328141 24.1323817,15.7191629 22.660291,15.7191629 C21.1882004,15.7191629 19.9908491,14.5328141 19.9908491,13.0719533 C19.9908491,11.6110925 21.1882004,10.4247437 22.660291,10.4247437 Z M19.1510873,15.1888685 C19.8921704,16.3901273 21.2127428,17.1407357 22.660291,17.1407357 C24.3682872,17.1407357 25.8813531,16.0928518 26.4919897,14.5375088 L26.5616883,14.3599804 L26.7508687,14.3802448 C26.8139055,14.3869965 27.0261288,14.4107116 27.0679204,14.4151481 L27.2453288,14.5189558 L32.0319252,21.2560922 L15.2096421,16.9321817 L15.6597533,16.6207302 C16.6067619,15.9654539 17.6806735,15.4573023 18.8626347,15.0818615 L19.0486254,15.0227829 L19.1510873,15.1888685 Z M33.0265027,22.9838032 L33.0265027,31.8237138 L14.4734973,27.0529265 L14.4734973,18.213016 L33.0265027,22.9838032 Z M34.0049258,34.5606388 C31.277134,36.1822747 27.6364983,37.0720854 23.7483998,37.0720854 C19.8663189,37.0720854 16.2271991,36.1815969 13.491675,34.5605208 C10.8883854,33.0135514 9.43939394,30.9894545 9.43939394,28.856754 C9.43939394,26.9772272 10.5693783,25.1740444 12.6363587,23.7093242 L13.0309031,23.429739 L13.0309031,27.6010728 C13.0309031,27.9250674 13.251832,28.2089517 13.5696623,28.2912045 L33.5666075,33.4356393 C33.6207225,33.4506522 33.6808858,33.4582497 33.7429993,33.4582497 C33.901241,33.4582497 34.0594658,33.4053706 34.1865862,33.3097477 C34.362027,33.1758526 34.4658966,32.9668459 34.4658966,32.7474633 L34.4658966,23.4329099 L34.8604409,23.7124951 C36.9274214,25.1772153 38.0574057,26.9803981 38.0574057,28.859925 C38.0574057,30.9930924 36.6078145,33.017164 34.0049258,34.5606388 Z"
				id="Shape"></path>
		</g>
	</g>
</svg>
