<?xml version="1.0" encoding="UTF-8"?>
<svg width="48px" height="48px" viewBox="0 0 48 48" version="1.1" xmlns="http://www.w3.org/2000/svg"
		 xmlns:xlink="http://www.w3.org/1999/xlink">
	<!-- Generator: Sketch 43.1 (39012) - http://www.bohemiancoding.com/sketch -->
	<title>dinner-green</title>
	<desc>Created with Sketch.</desc>
	<defs></defs>
	<g id="UI-KIT" stroke="none" stroke-width="1" fill="none" fill-rule="evenodd">
		<g id="dinner-green" fill-rule="nonzero" fill="#39CE7B">
			<path
				d="M38.0632313,28.1859206 L38.0632313,28.7545126 L37.9132313,28.9045126 L10.2392425,28.9045126 L10.0892425,28.7545126 L10.0892425,28.1859206 C10.0892425,21.2873795 15.1857853,15.458884 21.969799,14.4544881 C21.926608,14.3015053 21.9059595,14.1447752 21.9059595,13.9711191 C21.9059595,12.8140199 22.8626231,11.85 24.0381184,11.85 C25.2008663,11.85 26.1702774,12.8013275 26.1702774,13.9711191 C26.1702774,14.1451363 26.149543,14.302157 26.1061681,14.4554423 C32.8775484,15.4950745 37.9872757,21.3116393 38.0632313,28.1859206 Z M24.6886057,14.0090253 C24.6886057,13.6371825 24.3747656,13.3250903 24,13.3250903 C23.6252344,13.3250903 23.3113943,13.6371825 23.3113943,14.0090253 C23.3113943,14.1310192 23.3394071,14.2525764 23.3948396,14.3518051 L24.5927164,14.3518051 C24.6649656,14.2002315 24.6886057,14.1179691 24.6886057,14.0090253 Z M14.1743625,26.5922383 C14.4772094,26.5922383 14.7677479,26.3489369 14.8178389,26.050065 C15.6040253,22.7754686 18.1981801,19.9306541 21.740905,18.4689867 C22.1127986,18.3303978 22.2783584,17.9412541 22.1263948,17.5886473 C21.9876681,17.220314 21.5972981,17.0560773 21.2437016,17.2067746 C17.2854929,18.85002 14.4233543,22.0286203 13.5329132,25.7630431 C13.4365609,26.1462596 13.6395312,26.4922707 14.0238176,26.5878072 L14.1743625,26.5922383 Z M37.4939285,34.15 L10.5060715,34.15 C10.161583,34.15 9.81299721,33.9826545 9.58718946,33.71304 L8.01813573,31.6954402 C7.83280493,31.4189923 7.7971385,31.0997823 7.93247764,30.7864085 C8.07190889,30.5090992 8.3897418,30.3247292 8.71450478,30.3247292 L39.2854952,30.3247292 C39.6102582,30.3247292 39.9280911,30.5090992 40.0675224,30.7864085 C40.2051755,31.0601814 40.1663861,31.420199 39.9756667,31.7040148 L38.4093846,33.7172826 C38.1870028,33.9826545 37.838417,34.15 37.4939285,34.15 Z"
				id="Combined-Shape"></path>
		</g>
	</g>
</svg>
