<?xml version="1.0" encoding="UTF-8"?>
<svg width="48px" height="48px" viewBox="0 0 48 48" version="1.1" xmlns="http://www.w3.org/2000/svg"
		 xmlns:xlink="http://www.w3.org/1999/xlink">
	<!-- Generator: Sketch 43.1 (39012) - http://www.bohemiancoding.com/sketch -->
	<title>donuts-green</title>
	<desc>Created with Sketch.</desc>
	<defs></defs>
	<g id="UI-KIT" stroke="none" stroke-width="1" fill="none" fill-rule="evenodd">
		<g id="donuts-green" fill-rule="nonzero" fill="#39CE7B">
			<path
				d="M36.6664048,34.0013402 C33.6171956,37.8549961 28.9923614,40.15 23.9998074,40.15 C15.0945978,40.15 7.85,32.9054022 7.85,24.0001926 C7.85,15.0949829 15.0949829,7.85 24.0001926,7.85 C32.9054624,7.85 40.15,15.094658 40.15,24.0001926 C40.15,27.5886086 38.9677104,31.0034159 36.8227339,33.8024915 C36.7800273,33.8881681 36.7200134,33.9622272 36.6664048,34.0013402 Z M27.8741193,24.0001926 C27.8741193,21.8642526 26.1357474,20.1258807 23.9998074,20.1258807 C21.86381,20.1258807 20.1258807,21.8639248 20.1258807,24.0001926 C20.1258807,26.1363048 21.8640396,27.8741193 24.0001926,27.8741193 C26.1361326,27.8741193 27.8741193,26.1361326 27.8741193,24.0001926 Z M23.9998074,38.6564559 C28.1500546,38.6564559 32.0264189,36.9113473 34.7852673,33.9097484 C34.2717638,33.678345 33.937259,33.3111317 33.6928003,32.7998648 C33.6207056,32.6490842 33.5728466,32.5286514 33.4787171,32.2741404 C33.466092,32.2399877 33.466092,32.2399877 33.4535722,32.2062459 C33.3267956,31.8652277 33.2457809,31.697777 33.1258545,31.5612906 C32.9018015,31.3064387 32.6372335,31.1804866 32.3608792,31.1880978 C32.0363908,31.2008228 31.6950297,31.407538 31.4297065,31.7614194 C31.2170178,32.0448134 31.0729478,32.3519703 30.8506444,32.9417107 C30.8269744,33.0046239 30.8269744,33.0046239 30.8031752,33.0681214 C30.466645,33.9667224 30.2755961,34.3686668 29.9038603,34.8238602 C29.1517976,35.7449945 27.8924341,36.0868794 26.8395665,35.6525511 C26.2152618,35.3947467 25.8122726,34.9356768 25.2739087,34.0405988 C25.0352868,33.6434892 24.7408248,33.3987741 24.4248861,33.3252921 C24.1698947,33.2659378 23.9014356,33.3199042 23.6445821,33.4852194 C23.3528957,33.672807 23.0273481,34.1349472 22.7642555,34.7484599 C22.1854229,36.0978165 21.5051675,36.839783 20.3236982,37.0126385 C20.176379,37.0340812 20.0327727,37.0446285 19.8931062,37.0446285 C18.5025202,37.0449094 17.7140348,36.0745695 17.1374912,34.2458872 C17.0461593,33.9562004 16.9810903,33.7240242 16.8469509,33.2242271 C16.6124606,32.3501676 16.505213,32.0102259 16.3564928,31.7444149 C16.0768352,31.2461782 15.5333947,31.0241094 14.9970874,31.1878387 C14.6701199,31.2876575 14.4899474,31.4471978 14.276877,31.7901814 C14.2316798,31.8629361 14.195481,31.9249919 14.1087409,32.0766354 C13.8674948,32.498816 13.7347554,32.7039901 13.5205315,32.9483911 C13.3284025,33.1675898 13.1043928,33.3517373 12.8506618,33.5012148 C15.619149,36.7463075 19.6576398,38.6564559 23.9998074,38.6564559 Z M23.421493,15.4591872 C23.1605444,15.7784995 23.2081232,16.2493657 23.5280098,16.5099962 L24.5977587,17.3841253 C24.7320648,17.4945661 24.8983992,17.5527706 25.0697221,17.5527706 C25.2924477,17.5527706 25.505007,17.454299 25.6484912,17.2784605 C25.9092403,16.9589103 25.8618671,16.4886042 25.5424809,16.2275072 L24.4725411,15.3532223 C24.152654,15.0921096 23.6822371,15.1396431 23.421493,15.4591872 Z M31.7857669,18.0408419 C31.4016177,17.889204 30.9677915,18.0791802 30.817619,18.4635445 L30.3135358,19.7493607 C30.1631141,20.1336111 30.3522603,20.5672016 30.7362743,20.7175308 C30.8238546,20.7519037 30.9158518,20.7690619 31.0085573,20.7690619 C31.3134761,20.7690619 31.5911393,20.5832686 31.7040053,20.2947284 L32.2081102,19.0088565 C32.3585319,18.6246062 32.1693857,18.1910157 31.7857669,18.0408419 Z M11.7447013,22.8634449 C11.9029595,22.8634449 12.058285,22.8131265 12.1882608,22.716935 L13.2989902,21.8950568 C13.6305442,21.6497647 13.700453,21.1818675 13.4551393,20.8502843 C13.2095548,20.5188175 12.7420059,20.4486405 12.4103305,20.6941477 L11.2996113,21.5160183 C10.9680572,21.7613104 10.8981484,22.2292076 11.1434622,22.5607908 C11.2866166,22.7536975 11.5094882,22.8634449 11.7447013,22.8634449 Z M18.3476926,12.5559908 C18.1089287,12.8921896 18.1879335,13.3586156 18.5245306,13.5974599 C18.6520468,13.6884095 18.8023883,13.7356632 18.9564192,13.7356632 C19.196635,13.7356632 19.4241332,13.6209352 19.5658928,13.421439 L20.3662058,12.2953008 C20.6048945,11.9587258 20.5260776,11.4923803 20.1898636,11.253466 C19.8528251,11.0147904 19.3864577,11.093611 19.1479516,11.4299287 L18.3476926,12.5559908 Z M32.2796676,26.046141 L31.0698453,26.7122745 C30.7084634,26.9112755 30.5767618,27.3657431 30.7759523,27.7265046 C30.9084658,27.9675669 31.1602757,28.1132674 31.4306691,28.1132674 C31.5553932,28.1132674 31.6785039,28.0820597 31.790121,28.0208351 L33.0004362,27.3544301 C33.361866,27.1554028 33.493439,26.7013793 33.2944173,26.3399597 C33.0954687,25.9781913 32.6404978,25.8464302 32.2796676,26.046141 Z M35.6024622,22.4180255 L36.102757,23.7066988 C36.215098,23.9965197 36.493236,24.1833145 36.7991142,24.1833145 C36.8914247,24.1833145 36.9824782,24.1665606 37.0695803,24.1326615 C37.4540801,23.9832944 37.6448406,23.5505064 37.4954597,23.165971 L36.9951764,21.8773276 C36.8452136,21.4920532 36.4125737,21.3011432 36.0281363,21.4514495 C35.6438534,21.600732 35.4530929,22.03352 35.6024622,22.4180255 Z M16.6465232,18.1614402 L17.0928987,19.4686002 C17.1969732,19.7732547 17.4828217,19.9741361 17.7998484,19.9741361 C17.8819227,19.9741361 17.9632974,19.9608976 18.0415169,19.9340391 C18.4317403,19.8005924 18.6402481,19.3759758 18.5067767,18.9856805 L18.0604225,17.6785829 C17.9263773,17.2880188 17.5021815,17.0796445 17.1119819,17.2130832 C16.7215809,17.3465907 16.5130731,17.7712073 16.6465232,18.1614402 Z M13.4652716,27.3699832 C13.4002079,27.7772339 13.6781804,28.1600426 14.085573,28.2246469 L15.450504,28.4410948 C15.4884669,28.4475055 15.527878,28.4506487 15.5683561,28.4506487 C15.933319,28.4506487 16.2476463,28.1844474 16.3053814,27.8203817 C16.3699624,27.4131362 16.0919477,27.0304747 15.6846678,26.9658883 L14.3197368,26.7494405 C13.9103842,26.6841743 13.5294931,26.961957 13.4652716,27.3699832 Z M28.6223642,13.5788409 C28.7296716,13.8785451 29.012718,14.0745851 29.3258873,14.0745851 C29.410938,14.0745851 29.4961806,14.0599302 29.5774105,14.0306497 L30.8783858,13.5659338 C31.2668344,13.4271333 31.4692355,12.9996764 31.3304406,12.6112434 C31.1920996,12.2227314 30.7653316,12.0205154 30.3759213,12.1591436 L29.0743866,12.6240598 C28.685938,12.7628603 28.4835369,13.1903172 28.6223642,13.5788409 Z"
				id="Shape"></path>
		</g>
	</g>
</svg>
