<?xml version="1.0" encoding="UTF-8"?>
<svg width="48px" height="48px" viewBox="0 0 48 48" version="1.1" xmlns="http://www.w3.org/2000/svg"
		 xmlns:xlink="http://www.w3.org/1999/xlink">
	<!-- Generator: Sketch 43.1 (39012) - http://www.bohemiancoding.com/sketch -->
	<title>donuts</title>
	<desc>Created with Sketch.</desc>
	<defs></defs>
	<g id="UI-KIT" stroke="none" stroke-width="1" fill="none" fill-rule="evenodd">
		<g id="donuts" fill-rule="nonzero" fill="#455A64">
			<path
				d="M18.6319514,24.0001926 C18.6319514,21.0400417 21.039919,18.6319514 23.9998074,18.6319514 C26.9596959,18.6319514 29.3676634,21.0400417 29.3676634,24.0001926 C29.3676634,26.9602736 26.9597657,29.3680486 23.9998074,29.3680486 C21.0399804,29.3680486 18.6319514,26.9600196 18.6319514,24.0001926 Z M27.8741193,24.0001926 C27.8741193,21.8642526 26.1357474,20.1258807 23.9998074,20.1258807 C21.86381,20.1258807 20.1258807,21.8639248 20.1258807,24.0001926 C20.1258807,26.1363048 21.8640396,27.8741193 24.0001926,27.8741193 C26.1361326,27.8741193 27.8741193,26.1361326 27.8741193,24.0001926 Z M36.6664048,34.0013402 C33.6171956,37.8549961 28.9923614,40.15 23.9998074,40.15 C15.0945978,40.15 7.85,32.9054022 7.85,24.0001926 C7.85,15.0949829 15.0949829,7.85 24.0001926,7.85 C32.9054624,7.85 40.15,15.094658 40.15,24.0001926 C40.15,27.5886086 38.9677104,31.0034159 36.8227339,33.8024915 C36.7800273,33.8881681 36.7200134,33.9622272 36.6664048,34.0013402 Z M38.6560707,24.0001926 C38.6560707,15.91887 32.08113,9.34392925 23.9998074,9.34392925 C15.9187365,9.34392925 9.34354412,15.9190035 9.34354412,24.0001926 C9.34354412,27.0508621 10.2857919,29.9647675 12.0116975,32.4156349 C12.2068032,32.3287465 12.3694292,32.210693 12.5039002,32.0573437 C12.6295231,31.9141607 12.7299504,31.7624246 12.878305,31.5050459 C12.9065375,31.4559235 12.9065375,31.4559235 12.9351047,31.4059311 C13.4394021,30.5234105 13.7988121,30.1408082 14.602065,29.8953417 C15.7574558,29.541851 16.9392486,30.020829 17.5351547,31.0834873 C17.7366801,31.4429818 17.8794222,31.8654677 18.0923952,32.6516782 C18.1223171,32.7624708 18.1223171,32.7624708 18.15232,32.8742187 C18.7500009,35.1032279 19.1875935,35.810755 20.1283343,35.675126 C20.7437974,35.5854433 21.1082043,35.1784618 21.5210826,34.2157856 C21.8744508,33.3919725 22.3325313,32.7214286 22.9118206,32.3486807 C23.4723198,31.9875978 24.1197364,31.8657819 24.7301669,32.0090254 C25.4152173,32.1685971 26.0038101,32.6325528 26.4314679,33.3445082 C26.8113326,33.9759187 27.0617986,34.2823635 27.354371,34.4034581 C27.8579284,34.6103619 28.4768187,34.4338819 28.8561606,33.9693532 C29.0957606,33.6760299 29.2509269,33.3534965 29.491934,32.7140452 C29.5144387,32.6542326 29.5144387,32.6542326 29.5370899,32.5938281 C29.6114509,32.3957662 29.6439855,32.3101948 29.6872566,32.2005897 C29.8938744,31.6772302 30.0863422,31.2996782 30.348208,30.9505238 C30.856139,30.2732825 31.5699657,29.866052 32.3089765,29.8376454 C32.9997047,29.8136847 33.6481421,30.1087813 34.14071,30.6692051 C34.2984051,30.8486234 34.4242365,31.0491135 34.534927,31.2835851 C34.6053497,31.4327587 34.6522547,31.5513438 34.7464293,31.8061198 C35.0098792,32.5181218 35.1604828,32.7064516 35.7175978,32.7899639 C37.6132681,30.2697147 38.6560707,27.211652 38.6560707,24.0001926 Z M23.9998074,38.6564559 C28.1500546,38.6564559 32.0264189,36.9113473 34.7852673,33.9097484 C34.2717638,33.678345 33.937259,33.3111317 33.6928003,32.7998648 C33.6207056,32.6490842 33.5728466,32.5286514 33.4787171,32.2741404 C33.466092,32.2399877 33.466092,32.2399877 33.4535722,32.2062459 C33.3267956,31.8652277 33.2457809,31.697777 33.1258545,31.5612906 C32.9018015,31.3064387 32.6372335,31.1804866 32.3608792,31.1880978 C32.0363908,31.2008228 31.6950297,31.407538 31.4297065,31.7614194 C31.2170178,32.0448134 31.0729478,32.3519703 30.8506444,32.9417107 C30.8269744,33.0046239 30.8269744,33.0046239 30.8031752,33.0681214 C30.466645,33.9667224 30.2755961,34.3686668 29.9038603,34.8238602 C29.1517976,35.7449945 27.8924341,36.0868794 26.8395665,35.6525511 C26.2152618,35.3947467 25.8122726,34.9356768 25.2739087,34.0405988 C25.0352868,33.6434892 24.7408248,33.3987741 24.4248861,33.3252921 C24.1698947,33.2659378 23.9014356,33.3199042 23.6445821,33.4852194 C23.3528957,33.672807 23.0273481,34.1349472 22.7642555,34.7484599 C22.1854229,36.0978165 21.5051675,36.839783 20.3236982,37.0126385 C20.176379,37.0340812 20.0327727,37.0446285 19.8931062,37.0446285 C18.5025202,37.0449094 17.7140348,36.0745695 17.1374912,34.2458872 C17.0461593,33.9562004 16.9810903,33.7240242 16.8469509,33.2242271 C16.6124606,32.3501676 16.505213,32.0102259 16.3564928,31.7444149 C16.0768352,31.2461782 15.5333947,31.0241094 14.9970874,31.1878387 C14.6701199,31.2876575 14.4899474,31.4471978 14.276877,31.7901814 C14.2316798,31.8629361 14.195481,31.9249919 14.1087409,32.0766354 C13.8674948,32.498816 13.7347554,32.7039901 13.5205315,32.9483911 C13.3284025,33.1675898 13.1043928,33.3517373 12.8506618,33.5012148 C15.619149,36.7463075 19.6576398,38.6564559 23.9998074,38.6564559 Z M23.421493,15.4591872 C23.6822371,15.1396431 24.152654,15.0921096 24.4725411,15.3532223 L25.5424809,16.2275072 C25.8618671,16.4886042 25.9092403,16.9589103 25.6484912,17.2784605 C25.505007,17.454299 25.2924477,17.5527706 25.0697221,17.5527706 C24.8983992,17.5527706 24.7320648,17.4945661 24.5977587,17.3841253 L23.5280098,16.5099962 C23.2081232,16.2493657 23.1605444,15.7784995 23.421493,15.4591872 Z M31.7857669,18.0408419 C32.1693857,18.1910157 32.3585319,18.6246062 32.2081102,19.0088565 L31.7040053,20.2947284 C31.5911393,20.5832686 31.3134761,20.7690619 31.0085573,20.7690619 C30.9158518,20.7690619 30.8238546,20.7519037 30.7362743,20.7175308 C30.3522603,20.5672016 30.1631141,20.1336111 30.3135358,19.7493607 L30.817619,18.4635445 C30.9677915,18.0791802 31.4016177,17.889204 31.7857669,18.0408419 Z M11.7447013,22.8634449 C11.5094882,22.8634449 11.2866166,22.7536975 11.1434622,22.5607908 C10.8981484,22.2292076 10.9680572,21.7613104 11.2996113,21.5160183 L12.4103305,20.6941477 C12.7420059,20.4486405 13.2095548,20.5188175 13.4551393,20.8502843 C13.700453,21.1818675 13.6305442,21.6497647 13.2989902,21.8950568 L12.1882608,22.716935 C12.058285,22.8131265 11.9029595,22.8634449 11.7447013,22.8634449 Z M18.3476926,12.5559908 L19.1479516,11.4299287 C19.3864577,11.093611 19.8528251,11.0147904 20.1898636,11.253466 C20.5260776,11.4923803 20.6048945,11.9587258 20.3662058,12.2953008 L19.5658928,13.421439 C19.4241332,13.6209352 19.196635,13.7356632 18.9564192,13.7356632 C18.8023883,13.7356632 18.6520468,13.6884095 18.5245306,13.5974599 C18.1879335,13.3586156 18.1089287,12.8921896 18.3476926,12.5559908 Z M32.2796676,26.046141 C32.6404978,25.8464302 33.0954687,25.9781913 33.2944173,26.3399597 C33.493439,26.7013793 33.361866,27.1554028 33.0004362,27.3544301 L31.790121,28.0208351 C31.6785039,28.0820597 31.5553932,28.1132674 31.4306691,28.1132674 C31.1602757,28.1132674 30.9084658,27.9675669 30.7759523,27.7265046 C30.5767618,27.3657431 30.7084634,26.9112755 31.0698453,26.7122745 L32.2796676,26.046141 Z M35.6024622,22.4180255 C35.4530929,22.03352 35.6438534,21.600732 36.0281363,21.4514495 C36.4125737,21.3011432 36.8452136,21.4920532 36.9951764,21.8773276 L37.4954597,23.165971 C37.6448406,23.5505064 37.4540801,23.9832944 37.0695803,24.1326615 C36.9824782,24.1665606 36.8914247,24.1833145 36.7991142,24.1833145 C36.493236,24.1833145 36.215098,23.9965197 36.102757,23.7066988 L35.6024622,22.4180255 Z M16.6465232,18.1614402 C16.5130731,17.7712073 16.7215809,17.3465907 17.1119819,17.2130832 C17.5021815,17.0796445 17.9263773,17.2880188 18.0604225,17.6785829 L18.5067767,18.9856805 C18.6402481,19.3759758 18.4317403,19.8005924 18.0415169,19.9340391 C17.9632974,19.9608976 17.8819227,19.9741361 17.7998484,19.9741361 C17.4828217,19.9741361 17.1969732,19.7732547 17.0928987,19.4686002 L16.6465232,18.1614402 Z M13.4652716,27.3699832 C13.5294931,26.961957 13.9103842,26.6841743 14.3197368,26.7494405 L15.6846678,26.9658883 C16.0919477,27.0304747 16.3699624,27.4131362 16.3053814,27.8203817 C16.2476463,28.1844474 15.933319,28.4506487 15.5683561,28.4506487 C15.527878,28.4506487 15.4884669,28.4475055 15.450504,28.4410948 L14.085573,28.2246469 C13.6781804,28.1600426 13.4002079,27.7772339 13.4652716,27.3699832 Z M28.6223642,13.5788409 C28.4835369,13.1903172 28.685938,12.7628603 29.0743866,12.6240598 L30.3759213,12.1591436 C30.7653316,12.0205154 31.1920996,12.2227314 31.3304406,12.6112434 C31.4692355,12.9996764 31.2668344,13.4271333 30.8783858,13.5659338 L29.5774105,14.0306497 C29.4961806,14.0599302 29.410938,14.0745851 29.3258873,14.0745851 C29.012718,14.0745851 28.7296716,13.8785451 28.6223642,13.5788409 Z"
				id="Shape"></path>
		</g>
	</g>
</svg>
