<?xml version="1.0" encoding="UTF-8"?>
<svg width="48px" height="48px" viewBox="0 0 48 48" version="1.1" xmlns="http://www.w3.org/2000/svg"
		 xmlns:xlink="http://www.w3.org/1999/xlink">
	<!-- Generator: Sketch 43.1 (39012) - http://www.bohemiancoding.com/sketch -->
	<title>electric-mixed</title>
	<desc>Created with Sketch.</desc>
	<defs></defs>
	<g id="UI-KIT" stroke="none" stroke-width="1" fill="none" fill-rule="evenodd">
		<g id="electric-mixed" fill="#455A64">
			<path
				d="M24.0003671,36.9276434 C16.089865,36.9276434 9.36467152,31.3167888 8.01003303,23.5851806 C7.97603373,23.3909896 8.02936596,23.1914599 8.15602999,23.0406448 C8.28269402,22.8898297 8.47002346,22.8030777 8.66668604,22.8030777 L39.3327148,22.8030777 C39.5300441,22.8030777 39.7167069,22.8904971 39.8433709,23.0413121 C39.9700349,23.1921272 40.0240338,23.3916569 39.9900345,23.585848 C38.6347294,31.3167888 31.9102026,36.9276434 24.0003671,36.9276434 Z M30.9807914,14.831967 L29.1754279,16.1220463 C30.038245,17.9382865 29.401438,20.4059503 27.9860394,22.796401 C26.3201294,22.8123169 26.2339942,22.8794955 26.2964297,22.8055772 C28.0528141,20.7261684 28.7164088,18.4720649 28.0755331,16.9080108 L19.8483916,22.7869737 C19.8483916,22.7869737 17.4951536,22.828596 17.5641444,22.7792941 C20.1669035,20.919322 24.2449066,18.0051175 27.2896485,15.8292976 C25.4659342,14.2929571 21.5558253,14.8226252 18.2598198,17.177542 C16.0742538,18.7391103 14.4988777,20.8327309 14.0211135,22.8024195 C14.0111189,22.8436243 13.9454956,22.8223293 12.6523814,22.8223293 C12.5524889,22.8223293 12.6769851,22.6992375 12.6906023,22.6375815 C13.2005917,20.3199676 14.9925545,17.8722256 17.4851693,16.0911396 C21.5401652,13.1933161 26.1611472,12.7933541 28.3999833,15.0358351 C29.1062556,14.5311219 29.7226022,14.0906711 30.2060637,13.745182 C30.1622728,13.2864437 30.3574727,12.8174129 30.7595598,12.5303023 L36.7587684,8.24808847 C37.3574226,7.81966689 38.1914052,7.96047212 38.618063,8.55972847 C39.0460541,9.15965215 38.9067237,9.99313899 38.3067362,10.4215606 L32.3075276,14.7037744 C32.0728658,14.8712726 31.8022048,14.9520187 31.534877,14.9520187 C31.3442073,14.9520187 31.1549335,14.9112127 30.9807914,14.831967 Z M9.48200241,24.1377244 L9.48200241,24.1377244 L38.5167318,24.1377244 C36.9727639,30.8223022 30.991555,35.593664 24.0003671,35.593664 C17.0085125,35.593664 11.0259703,30.8216349 9.48200241,24.1377244 Z M36.9340981,40 L11.0653028,40 C10.6973105,40 10.39865,39.7017065 10.39865,39.3326767 C10.39865,38.9636469 10.6973105,38.6653533 11.0653028,38.6653533 L36.9340981,38.6653533 C37.3027571,38.6653533 37.6007509,38.9636469 37.6007509,39.3326767 C37.6007509,39.7017065 37.3027571,40 36.9340981,40 Z M11.4812942,19.1408072 C11.4486282,19.1408072 11.4159622,19.1388053 11.3832962,19.1334667 C11.0193038,19.0800808 10.767309,18.7410806 10.8206412,18.3760547 C11.0766359,16.6356755 9.37133805,15.5599502 9.35400507,15.5492731 C9.04067826,15.3557493 8.94334695,14.9446781 9.13667626,14.6310362 C9.33000557,14.3173942 9.7406637,14.2206323 10.0539905,14.4134888 C10.1546551,14.4762171 12.5212725,15.9710214 12.1392805,18.5702458 C12.0906148,18.9025728 11.8059541,19.1408072 11.4812942,19.1408072 Z M13.9032438,14.2846953 C13.8885774,14.2846953 13.8739111,14.2846953 13.8592447,14.2833607 C13.491919,14.2593371 13.2132581,13.9416912 13.2372576,13.5733287 C13.2905899,12.7585269 12.8565989,12.4135207 12.8379326,12.3995069 C12.5519386,12.1786229 12.4859399,11.7642151 12.6999355,11.4719275 C12.913931,11.1789726 13.3139227,11.1062343 13.6105832,11.3117699 C14.0052417,11.5860398 14.6512282,12.3888298 14.5678966,13.660748 C14.5445638,14.0137621 14.2512365,14.2846953 13.9032438,14.2846953 Z"
				id="Combined-Shape"></path>
		</g>
	</g>
</svg>
