<?xml version="1.0" encoding="UTF-8"?>
<svg width="48px" height="48px" viewBox="0 0 48 48" version="1.1" xmlns="http://www.w3.org/2000/svg"
		 xmlns:xlink="http://www.w3.org/1999/xlink">
	<!-- Generator: Sketch 43.1 (39012) - http://www.bohemiancoding.com/sketch -->
	<title>ethopian</title>
	<desc>Created with Sketch.</desc>
	<defs></defs>
	<g id="UI-KIT" stroke="none" stroke-width="1" fill="none" fill-rule="evenodd">
		<g id="ethopian" fill-rule="nonzero" fill="#455A64">
			<polygon id="Shape"
							 points="18.941276 23.1429592 18.941276 23.1430939 21.6916667 25.1644449 20.261328 29.602002 20.3442707 29.5413898 21.0703127 29.0092143 22.191276 25.5317551 23.391406 26.4138653 23.8915367 26.0474306 19.9408853 23.1439694 18.941276 23.1439694"></polygon>
			<polygon id="Shape"
							 points="23.6182293 19.1571653 22.5722653 22.4266571 17.952474 22.4340653 18.0355467 22.4946776 18.7621093 23.0260449 22.382292 23.0193102 21.9257813 24.4459878 22.426172 24.8120184 23.928646 20.1159163 23.6182293 19.1559531"></polygon>
			<polygon id="Shape"
							 points="25.511068 25.017898 21.563672 27.9258041 21.25638 28.8867102 24.0045573 26.8623286 27.7467447 29.5988367 27.7148447 29.5003082 27.4361987 28.6390082 24.5037767 26.4945469 25.703126 25.6111571 25.5110687 25.017898"></polygon>
			<polygon id="Shape"
							 points="29.047656 22.4224143 26.11888 24.5718592 25.660156 23.1458551 25.042448 23.1458551 26.5519533 27.8396673 27.3606773 28.4332633 26.3097653 25.1655224 30.0472653 22.4224143 29.9446613 22.4224143 29.047656 22.4224143"></polygon>
			<polygon id="Shape"
							 points="29.922526 28.8377408 40.25 28.8377408 40.25 30.4152918 29.922526 30.4152918"></polygon>
			<polygon id="Shape"
							 points="29.922526 18.4326388 40.25 18.4326388 40.25 20.0101898 29.922526 20.0101898"></polygon>
			<path
				d="M32.85,24.4071286 C32.85,29.336369 28.881975,33.3448837 24,33.3448837 C19.118025,33.3448837 15.15,29.336369 15.15,24.4071286 C15.15,19.4778881 19.118025,15.4693735 24,15.4693735 C28.881975,15.4693735 32.85,19.4778881 32.85,24.4071286 Z M16.7166667,24.4071286 C16.7166667,28.4790066 19.9717785,31.7673327 24,31.7673327 C28.0282215,31.7673327 31.2833333,28.4790066 31.2833333,24.4071286 C31.2833333,20.3352505 28.0282215,17.0469245 24,17.0469245 C19.9717785,17.0469245 16.7166667,20.3352505 16.7166667,24.4071286 Z"
				id="Shape"></path>
			<polygon id="Shape"
							 points="24 17.9838469 23.96836 18.0823755 23.6911467 18.9442143 24.809766 22.4222796 23.3255213 22.4222796 23.134636 23.0158082 28.0200527 23.0158082 28.8287767 22.4222796 25.4276047 22.4222796"></polygon>
			<polygon id="Shape"
							 points="27.55612 19.2120531 25.5660153 21.9792041 25.8018227 22.1523531 27.7919273 19.385202 27.55612 19.2120531"></polygon>
			<polygon id="Shape" points="7.75 18.4326388 18.05 18.4326388 18.05 20.0101898 7.75 20.0101898"></polygon>
			<polygon id="Shape" points="7.75 28.8377408 18.05 28.8377408 18.05 30.4152918 7.75 30.4152918"></polygon>
			<polygon id="Shape"
							 points="23.8500007 27.3004204 24.1500007 27.3004204 24.1500007 30.7351143 23.8500007 30.7351143"></polygon>
			<polygon id="Shape"
							 points="26.6772887 25.4498612 26.7699933 25.1616837 30.0035853 26.2230714 29.9108807 26.511249"></polygon>
			<polygon id="Shape"
							 points="21.3227127 25.4499286 21.2300073 25.1616837 17.9964153 26.2230714 18.0891207 26.511249"></polygon>
			<polygon id="Shape"
							 points="25.806882 22.1570673 25.5641767 21.9789347 27.5626467 19.2002 27.805352 19.3783327"></polygon>
			<polygon id="Shape"
							 points="22.19312 22.1570673 22.4358253 21.9789347 20.4373553 19.2002 20.19465 19.3783327"></polygon>
			<path
				d="M36.2666667,7.99393061 C38.4643759,7.99393061 40.25,9.79777541 40.25,12.0153592 L40.25,36.7991673 C40.25,39.0167282 38.4643985,40.8204612 36.2666667,40.8204612 L11.7333332,40.8204612 C9.53560163,40.8204612 7.75000013,39.0167282 7.75000013,36.7991673 L7.75000013,12.0153592 C7.75000013,9.79777545 9.53562423,7.99393061 11.7333332,7.99393061 L36.2666667,7.99393061 Z M9.3166668,12.0153592 L9.3166668,36.7991673 C9.3166668,38.1633631 10.3854426,39.2430449 11.7333332,39.2430449 L36.2666667,39.2430449 C37.6145575,39.2430449 38.6833333,38.1633632 38.6833333,36.7991673 L38.6833333,12.0153592 C38.6833333,10.6511335 37.6145278,9.57134694 36.2666667,9.57134694 L11.7333332,9.57134694 C10.3854723,9.57134694 9.3166668,10.6511335 9.3166668,12.0153592 Z"
				id="Shape"></path>
		</g>
	</g>
</svg>
