<?xml version="1.0" encoding="UTF-8"?>
<svg width="48px" height="48px" viewBox="0 0 48 48" version="1.1" xmlns="http://www.w3.org/2000/svg"
		 xmlns:xlink="http://www.w3.org/1999/xlink">
	<!-- Generator: Sketch 43.1 (39012) - http://www.bohemiancoding.com/sketch -->
	<title>french</title>
	<desc>Created with Sketch.</desc>
	<defs></defs>
	<g id="UI-KIT" stroke="none" stroke-width="1" fill="none" fill-rule="evenodd">
		<g id="french" fill-rule="nonzero" fill="#455A64">
			<path
				d="M39.36,22.2088235 C37.6787333,22.2088235 36.31,23.5926531 36.31,25.2941176 C36.31,26.9955822 37.6787333,28.3794118 39.36,28.3794118 C39.7971333,28.3794118 40.15,28.7361704 40.15,29.1764706 L40.15,34.3529412 C40.15,34.7932413 39.7971333,35.15 39.36,35.15 L22.55232,35.15 C22.1918507,35.15 21.8773885,34.9035224 21.7874524,34.5517743 C21.2942453,32.6178752 19.5721031,31.2676471 17.6,31.2676471 C15.6278969,31.2676471 13.9057547,32.6178752 13.412525,34.5518631 C13.3226115,34.9035224 13.0081493,35.15 12.64768,35.15 L8.64,35.15 C8.20330906,35.15 7.85,34.7930408 7.85,34.3529412 L7.85,13.6470588 C7.85,13.2074057 8.20350674,12.85 8.64,12.85 L13.76,12.85 C14.1964933,12.85 14.55,13.2074057 14.55,13.6470588 C14.55,15.3485234 15.9187333,16.7323529 17.6,16.7323529 C19.2812667,16.7323529 20.65,15.3485234 20.65,13.6470588 C20.65,13.2074057 21.0035067,12.85 21.44,12.85 L39.36,12.85 C39.7969357,12.85 40.15,13.207205 40.15,13.6470588 L40.15,21.4117647 C40.15,21.8516185 39.7969357,22.2088235 39.36,22.2088235 Z M34.73,25.2941176 C34.73,23.007142 36.3708914,21.0662055 38.57,20.6827307 L38.57,14.4441176 L22.1629274,14.4441176 C21.784147,16.6668136 19.8638907,18.3264706 17.6,18.3264706 C15.3361093,18.3264706 13.415853,16.6668136 13.0370726,14.4441176 L9.43,14.4441176 L9.43,33.5558824 L12.0685486,33.5558824 C12.9263469,31.2303985 15.127322,29.6735294 17.6,29.6735294 C20.0728908,29.6735294 22.2743519,31.2306035 23.1314779,33.5558824 L38.57,33.5558824 L38.57,29.9055046 C36.3708914,29.5220298 34.73,27.5810933 34.73,25.2941176 Z M29.12,18.0264706 C30.9676933,18.0264706 32.47,19.5453469 32.47,21.4117647 C32.47,23.2781825 30.9676933,24.7970588 29.12,24.7970588 C27.2723067,24.7970588 25.77,23.2781825 25.77,21.4117647 C25.77,19.5453469 27.2723067,18.0264706 29.12,18.0264706 Z M29.12,23.2029412 C30.0953467,23.2029412 30.89,22.3995234 30.89,21.4117647 C30.89,20.424006 30.0953467,19.6205882 29.12,19.6205882 C28.1446533,19.6205882 27.35,20.424006 27.35,21.4117647 C27.35,22.3995234 28.1446533,23.2029412 29.12,23.2029412 Z M15.04,20.6147059 C16.8876933,20.6147059 18.39,22.1335822 18.39,24 C18.39,25.8664178 16.8876933,27.3852941 15.04,27.3852941 C13.1923067,27.3852941 11.69,25.8664178 11.69,24 C11.69,22.1335822 13.1923067,20.6147059 15.04,20.6147059 Z M15.04,25.7911765 C16.0153467,25.7911765 16.81,24.9877587 16.81,24 C16.81,23.0122413 16.0153467,22.2088235 15.04,22.2088235 C14.0646533,22.2088235 13.27,23.0122413 13.27,24 C13.27,24.9877587 14.0646533,25.7911765 15.04,25.7911765 Z M25.28,29.3264706 C24.4898623,29.3264706 23.85,28.679551 23.85,27.8823529 C23.85,27.0851549 24.4898623,26.4382353 25.28,26.4382353 C26.0701377,26.4382353 26.71,27.0851549 26.71,27.8823529 C26.71,28.679551 26.0701377,29.3264706 25.28,29.3264706 Z"
				id="Combined-Shape"></path>
		</g>
	</g>
</svg>
