<?xml version="1.0" encoding="UTF-8"?>
<svg width="48px" height="48px" viewBox="0 0 48 48" version="1.1" xmlns="http://www.w3.org/2000/svg"
		 xmlns:xlink="http://www.w3.org/1999/xlink">
	<!-- Generator: Sketch 43.1 (39012) - http://www.bohemiancoding.com/sketch -->
	<title>gastropub</title>
	<desc>Created with Sketch.</desc>
	<defs></defs>
	<g id="UI-KIT" stroke="none" stroke-width="1" fill="none" fill-rule="evenodd">
		<g id="gastropub" fill="#455A64">
			<path
				d="M30.1507715,9.51583248 C32.2139838,9.51583248 33.895847,11.087605 33.895847,13.0242362 C33.895847,14.3590344 33.0879179,15.5565798 31.844323,16.1494111 C31.9281685,16.3540792 31.9724228,16.5670044 31.9724228,16.7850311 L31.9724228,19.0550213 C32.0157833,19.0471953 32.0598833,19.0431795 32.1045634,19.0431795 L35.1823703,19.0431795 C36.7356653,19.0431795 38,20.2790994 38,21.7994243 L38,29.8224533 C38,31.8959661 36.2756357,33.5815767 34.1564347,33.5815767 L32.1045634,33.5815767 C32.0598833,33.5815767 32.0157833,33.5775609 31.9724228,33.569735 L31.9724228,38.2466339 C31.9724228,39.2141721 31.1685281,40 30.1807288,40 L16.8435653,40 C15.8557661,40 15.0518713,39.2141721 15.0518713,38.2466339 L15.0518713,16.7850311 C15.0518713,16.585076 15.0881433,16.3891415 15.1573558,16.2013118 C13.857163,15.6293468 13,14.3999772 13,13.0242362 C13,11.3378628 14.2832028,9.90213306 16.0192318,9.58189036 C16.3881088,6.42598535 19.266349,4 22.7032994,4 C26.1465854,4 29.0255035,6.43458103 29.3885804,9.59364208 C29.6415186,9.54205042 29.8967811,9.51583248 30.1507715,9.51583248 Z M19.5331582,11.7706379 C19.5331582,12.1857906 19.1901137,12.5211255 18.7673999,12.5211255 C18.344686,12.5211255 18.0016415,12.1857906 18.0016415,11.7706379 C18.0016415,11.3804126 17.434849,11.0168075 16.7450755,11.0168075 C15.5219996,11.0168075 14.5315167,11.9202808 14.5315167,13.0242362 C14.5315167,14.1281917 15.5219996,15.031665 16.7450755,15.031665 L30.1511819,15.031665 C31.3743494,15.031665 32.3647406,14.1285072 32.3647406,13.0246374 C32.3647406,11.9206819 31.3742578,11.0172087 30.1511819,11.0172087 C30.0140112,11.0172087 29.8716329,11.03318 29.7403654,11.0553684 C29.6650871,11.0872559 29.5825918,11.1056456 29.523748,11.1068983 C29.3435058,11.1581896 29.1740929,11.2268231 29.0141823,11.3146826 L28.4024203,11.6352055 C28.2397069,11.8517615 28.1510177,12.1057879 28.1510177,12.3723651 C28.1510177,12.7873948 27.8076894,13.1228526 27.3852594,13.1228526 C26.9628293,13.1228526 26.619501,12.7873948 26.619501,12.3723651 C26.619501,11.4370897 27.1037858,10.5821755 27.886816,10.0753877 C27.7766809,7.53368117 25.493021,5.50097502 22.7032994,5.50097502 C20.0980027,5.50097502 17.9088672,7.28071543 17.5607215,9.61662186 C18.7147196,9.90208634 19.5331582,10.7660329 19.5331582,11.7706379 Z M30.4409061,38.2466339 L30.4409061,16.7850311 C30.4409061,16.6502051 30.3206381,16.53264 30.1807288,16.53264 L16.8435653,16.53264 C16.7036561,16.53264 16.583388,16.6502051 16.583388,16.7850311 L16.583388,38.2466339 C16.583388,38.3814598 16.7036561,38.499025 16.8435653,38.499025 L30.1807288,38.499025 C30.3206381,38.499025 30.4409061,38.3814598 30.4409061,38.2466339 Z M32.1045634,32.0806017 L34.1564347,32.0806017 C35.4318495,32.0806017 36.4684833,31.0672654 36.4684833,29.8224533 L36.4684833,21.7994243 C36.4684833,21.1078001 35.891879,20.5441545 35.1823703,20.5441545 L32.1045634,20.5441545 C32.0598833,20.5441545 32.0157833,20.5401387 31.9724228,20.5323127 L31.9724228,32.0924435 C32.0157833,32.0846176 32.0598833,32.0806017 32.1045634,32.0806017 Z"
				id="Shape" fill-rule="nonzero"></path>
			<path
				d="M18.7647541,18 C19.1869136,18 19.5295082,18.3381293 19.5295082,18.7567416 L19.5295082,36.9589888 C19.5295082,37.3773206 19.1867873,37.7157303 18.7647541,37.7157303 C18.3427209,37.7157303 18,37.3773206 18,36.9589888 L18,18.7567416 C18,18.3381293 18.3425946,18 18.7647541,18 Z"
				id="Path"></path>
			<path
				d="M21.8385246,18 C22.2606841,18 22.6032787,18.3381293 22.6032787,18.7567416 L22.6032787,36.9589888 C22.6032787,37.3773206 22.2605578,37.7157303 21.8385246,37.7157303 C21.4164914,37.7157303 21.0737705,37.3773206 21.0737705,36.9589888 L21.0737705,18.7567416 C21.0737705,18.3381293 21.4163651,18 21.8385246,18 Z"
				id="Path"></path>
			<path
				d="M27.9860656,18 C28.4082251,18 28.7508197,18.3381293 28.7508197,18.7567416 L28.7508197,36.9589888 C28.7508197,37.3771965 28.4078152,37.7157303 27.9860656,37.7157303 C27.5643159,37.7157303 27.2213115,37.3771965 27.2213115,36.9589888 L27.2213115,18.7567416 C27.2213115,18.3382533 27.5641896,18 27.9860656,18 Z"
				id="Path"></path>
			<path
				d="M24.9122951,18 C25.3344546,18 25.6770492,18.3381293 25.6770492,18.7567416 L25.6770492,36.9589888 C25.6770492,37.3771965 25.3340447,37.7157303 24.9122951,37.7157303 C24.4902619,37.7157303 24.147541,37.3773206 24.147541,36.9589888 L24.147541,18.7567416 C24.147541,18.3381293 24.4901356,18 24.9122951,18 Z"
				id="Path"></path>
		</g>
	</g>
</svg>
