<?xml version="1.0" encoding="UTF-8"?>
<svg width="48px" height="48px" viewBox="0 0 48 48" version="1.1" xmlns="http://www.w3.org/2000/svg"
		 xmlns:xlink="http://www.w3.org/1999/xlink">
	<!-- Generator: Sketch 43.1 (39012) - http://www.bohemiancoding.com/sketch -->
	<title>german-green</title>
	<desc>Created with Sketch.</desc>
	<defs></defs>
	<g id="UI-KIT" stroke="none" stroke-width="1" fill="none" fill-rule="evenodd">
		<g id="german-green" fill-rule="nonzero" fill="#39CE7B">
			<path
				d="M32.3025194,11.3977802 C33.5375759,11.3977802 34.6998704,11.8792111 35.5732874,12.7526558 C38.6212859,15.8001059 40.3000041,19.8528089 40.3000041,24.1628594 C40.3000041,28.4733142 38.6214522,32.5254467 35.5732986,35.5730517 C32.5261715,38.6209212 28.4734284,40.2999319 24.1634398,40.2999319 C19.8529682,40.2999319 15.8003667,38.6212192 12.7529758,35.573086 C11.3010415,34.1217344 10.9986982,31.8993089 11.9495247,30.1218857 L8.63488404,29.4584543 C8.34916852,29.4016251 8.11846495,29.1923859 8.03396439,28.9136042 C7.94948398,28.6348889 8.02530266,28.3324811 8.23131295,28.1264642 L11.8487527,24.5089095 C12.0547646,24.3028911 12.3571675,24.2270688 12.6358783,24.3115532 C12.9145162,24.3960156 13.1244638,24.6272504 13.1813205,24.912333 L13.8440659,28.2261654 C14.5142234,27.865809 15.2583144,27.6764569 16.0249997,27.6764569 C17.260609,27.6764569 18.4229289,28.1578266 19.2964071,29.0313326 C20.5970218,30.3319886 22.3250397,31.0478108 24.1640793,31.0478108 C26.0031189,31.0478108 27.7311367,30.3319886 29.031777,29.031307 C30.3322044,27.7314641 31.0481676,26.002832 31.0481676,24.1634989 C31.0481676,22.3243975 30.3323671,20.5963222 29.0317744,19.2956881 C27.5792229,17.8437193 27.2768648,15.6212745 28.228245,13.843877 L24.9130432,13.1810565 C24.6274691,13.1242555 24.3966664,12.9144879 24.3121236,12.6355669 C24.2276432,12.3568516 24.3034619,12.0544438 24.5094722,11.848427 L28.1271157,8.2306688 C28.3331012,8.02546601 28.6345574,7.94982628 28.9141506,8.0335503 C29.1922255,8.11808141 29.4020183,8.34938753 29.4588392,8.63429062 L30.121579,11.9474922 C30.7917382,11.5871335 31.5358316,11.3977802 32.3025194,11.3977802 Z M26.6687641,11.9224343 L28.5833777,12.3049628 L28.2003534,10.3907963 L26.6687641,11.9224343 Z M10.390532,28.2005445 L12.3046376,28.583581 L11.9221213,26.6689065 L10.390532,28.2005445 Z"
				id="Shape"></path>
		</g>
	</g>
</svg>
