<?xml version="1.0" encoding="UTF-8"?>
<svg width="48px" height="48px" viewBox="0 0 48 48" version="1.1" xmlns="http://www.w3.org/2000/svg"
		 xmlns:xlink="http://www.w3.org/1999/xlink">
	<!-- Generator: Sketch 43.1 (39012) - http://www.bohemiancoding.com/sketch -->
	<title>greek-mediterranean</title>
	<desc>Created with Sketch.</desc>
	<defs></defs>
	<g id="UI-KIT" stroke="none" stroke-width="1" fill="none" fill-rule="evenodd">
		<g id="greek-mediterranean" fill-rule="nonzero" fill="#455A64">
			<path
				d="M27.3146354,26.5825638 C28.7134285,27.2887693 29.9274708,28.59443 30.7358594,30.2272613 C31.4941884,31.9119149 31.7076993,33.6563207 31.3358182,35.2332681 C30.9984067,36.8611243 30.0582105,38.103423 28.7057769,38.7277076 C28.0702558,39.0084696 27.4629022,39.15 26.8387097,39.15 C26.0204346,39.15 25.1882727,38.9303742 24.3379242,38.5010383 C23.2001369,37.9265762 22.2135293,36.972185 21.4605468,35.7389036 C20.3240498,36.795842 19.0132973,37.3630937 17.6958525,37.3630937 C17.1293285,37.3630937 16.603461,37.2762004 16.1295035,37.0921236 C14.748162,36.5496771 13.727775,35.3892552 13.2397017,33.7969186 C12.7599204,32.3062185 12.8483343,30.5305521 13.4622012,28.7871522 C14.0541448,27.1060149 15.1691859,25.6885175 16.5485035,24.8373523 C17.979495,23.962748 19.5017555,23.7631168 20.8837982,24.2671072 C21.8275567,24.6336442 22.6074845,25.3171561 23.1777643,26.2646041 C24.4599425,25.7399269 25.9332393,25.8483968 27.3146354,26.5825638 Z M20.5193456,25.2921438 C19.4718118,24.9042885 18.3036091,25.070175 17.147424,25.7633721 C15.9673436,26.4855729 15.0264538,27.6826981 14.4816305,29.1497811 C13.9423492,30.6019409 13.865674,32.1698103 14.263039,33.4830228 C14.6612323,34.7624031 15.4498234,35.6805016 16.4944793,36.0672914 C17.8805123,36.5921369 19.5481889,36.1209938 20.9304427,34.8094147 C20.1886534,33.1388691 19.9822856,31.4116333 20.3512013,29.8470937 C20.6365855,28.5502944 21.3007136,27.4936225 22.2531141,26.7849533 C21.8272916,26.0869201 21.2172066,25.56061 20.5193456,25.2921438 Z M30.2313856,35.0216765 C30.5555602,33.6757889 30.375707,32.1464112 29.7253259,30.7234591 C29.0723706,29.2948748 28.0603485,28.1688616 26.8420466,27.5175645 C26.16721,27.1589108 25.4905461,26.9767009 24.8479263,26.9767009 C24.358652,26.9767009 23.9007945,27.0813815 23.4390005,27.2965781 C22.3979163,27.80409 21.663114,28.7808931 21.3808518,30.0633694 C21.0573431,31.4063678 21.2371962,32.9357454 21.8875773,34.3586975 C22.5405327,35.7872818 23.5525547,36.913295 24.7696841,37.5639755 C25.9432654,38.1744654 27.1491108,38.2493976 28.1739027,37.7855785 C29.214987,37.2780666 29.9497893,36.3012635 30.2313856,35.0216765 Z M40.3035479,26.5520667 L40.0075638,26.5670107 L39.2698773,26.6042556 C37.691621,26.6801463 36.4450801,26.7161104 35.3548387,26.7161104 C31.9736006,26.7161104 30.6442266,26.4650534 27.2075244,25.3713679 C26.9565935,25.3080212 26.7394558,25.2391099 26.2378629,25.0702757 L26.1419258,24.8853945 L26.3631239,24.1408503 L26.5547639,24.0414059 C26.6842859,24.0850026 26.7177292,24.0949212 27.0415807,24.1883559 C27.258961,24.2510725 27.3871033,24.2913292 27.5107683,24.3383999 C28.8716081,24.7698222 29.3366571,24.9108966 29.9843593,25.0768607 C31.8941768,25.5662235 33.7498932,25.7260221 37.0466844,25.621043 C29.3701322,22.3808211 19.4384639,21.5489457 8.31173884,25.8127253 L8.11633648,25.7217812 L7.85827197,24.9772369 L7.94745522,24.7876173 C9.92315613,24.0487137 11.883332,23.4483384 13.7306245,23.0245234 C13.8043798,22.9649416 13.8644449,22.9118702 14.0004987,22.7882232 C14.1409426,22.6605865 14.2037653,22.6050785 14.2750007,22.5480933 C16.8593375,20.112436 20.3548937,16.1183983 23.418327,12.3182798 C20.4999472,14.1018107 18.4199579,16.6186382 16.2407638,20.4237119 L16.0318264,20.4768169 L15.3682319,20.0673176 L15.3165403,19.8656456 C18.0581915,15.0333773 20.8713752,11.9843937 25.1958668,10.1220861 L26.0697318,9.7587373 L26.0283836,10.0231731 L25.917854,10.730041 C25.2024156,15.3981229 23.1409153,18.0058527 19.1870749,20.5227957 C18.803374,20.7670528 18.5033416,20.9511028 17.8112657,21.3704092 C17.7096826,21.4328476 17.2904467,21.6896464 17.1834083,21.7554642 C16.944448,21.9024006 16.7560703,22.0195641 16.5780187,22.1324583 C16.3677107,22.2658047 16.1766545,22.3902881 15.999733,22.509774 C17.5419553,22.254127 18.9261732,22.0817238 20.1742067,22.0010918 C21.2135306,21.4973332 21.9841682,21.1498401 22.7392009,20.8637924 C22.6114511,20.8354997 22.5373256,20.8171872 22.4499561,20.7919522 L21.477263,20.5334748 L21.6892332,20.3479691 L22.2432919,19.8630936 C24.3134818,18.0853852 26.7679478,16.7348654 29.3852129,15.7553757 C31.0035389,15.1497307 32.5639525,14.7449045 33.1916953,14.6543909 L34.4112543,14.4491415 L34.2275109,14.7345906 L33.7287011,15.5034943 C34.3321209,14.8941681 32.426852,17.2326149 31.2606062,18.2604007 C30.6793355,18.7726614 30.0691485,19.2301618 29.4314902,19.6202454 C33.1834834,19.8193149 36.5939979,21.7308888 39.6017599,25.6915544 L40.3035479,26.5520667 Z M23.821411,19.9558739 C26.9271553,20.346799 29.679588,18.6875465 31.9100963,16.0796519 C29.1216468,16.8746123 26.2832195,18.1244036 23.821411,19.9558739 Z M24.2786679,12.8267294 C22.2578051,15.3125241 20.2865344,17.6432583 18.3860335,19.7334752 C21.6413674,17.6761372 23.3155459,15.8982736 24.2786679,12.8267294 Z M37.1200389,24.5080285 C33.9388689,21.2131632 30.4091636,20.1817227 26.4330286,20.9041022 C26.3637489,20.9215917 26.3104874,20.9299952 26.1938997,20.9447113 C26.0892892,20.9579156 26.0442405,20.9650234 25.9836112,20.9801509 C25.0598827,21.1667049 24.1565869,21.4464764 23.0696633,21.8658914 C28.5088443,21.8611952 33.3401283,22.9312378 37.1200389,24.5080285 Z M16.2426088,27.3435991 L16.8324705,27.8275529 L16.8522988,28.039858 C16.4684372,28.4979531 16.141085,29.0740656 15.9192219,29.6714885 C15.5265655,30.7168063 15.4511698,31.8397775 15.7028915,32.8202075 L15.5943189,33.0029469 L14.8569917,33.1890829 L14.6749473,33.0807865 C14.3670478,31.8759973 14.4558356,30.5411053 14.9359011,29.3111317 C15.1677874,28.6086635 15.550712,27.9245501 16.0336401,27.3618712 L16.2426088,27.3435991 Z M29.9008656,33.1832882 C29.9385474,33.792099 29.9007861,34.3640632 29.7872855,34.8989171 L29.6038378,35.0132165 L28.8665106,34.8270804 L28.7576218,34.645595 C28.8696635,34.1930413 28.8961511,33.7294288 28.8284374,33.2507934 L28.9697541,33.0799549 L29.7439476,33.0427277 L29.9008656,33.1832882 Z M27.0307611,29.5417655 L27.0202789,29.3343759 L27.5364079,28.7387405 L27.7495555,28.724976 C28.3784883,29.2853486 28.9118706,30.039393 29.3037303,30.9119019 C29.3346824,31.0056673 29.3671114,31.0960696 29.4206986,31.2403677 C29.5606895,31.6173307 29.5965808,31.7206893 29.6386916,31.8907811 L29.5365763,32.0703867 L28.7992491,32.29375 L28.6101563,32.1862407 C28.5781044,32.0567778 28.5375227,31.9285876 28.4811271,31.7732758 C28.452041,31.6931737 28.3457887,31.414545 28.3224413,31.3521608 C27.9923361,30.650085 27.5582982,30.0389528 27.0307611,29.5417655 Z"
				id="Shape"></path>
		</g>
	</g>
</svg>
