<?xml version="1.0" encoding="UTF-8"?>
<svg width="48px" height="48px" viewBox="0 0 48 48" version="1.1" xmlns="http://www.w3.org/2000/svg"
		 xmlns:xlink="http://www.w3.org/1999/xlink">
	<!-- Generator: Sketch 43.1 (39012) - http://www.bohemiancoding.com/sketch -->
	<title>hawaiian</title>
	<desc>Created with Sketch.</desc>
	<defs></defs>
	<g id="UI-KIT" stroke="none" stroke-width="1" fill="none" fill-rule="evenodd">
		<g id="hawaiian" fill-rule="nonzero" fill="#455A64">
			<path
				d="M34.7764179,28.5421175 C34.7756402,28.5316847 34.7744737,28.5208655 34.7729183,28.5104328 C34.4859555,26.322643 33.9781325,24.5637558 33.2210639,23.1352396 C32.7505694,22.242272 32.183254,21.4957496 31.5144518,20.8767388 C34.4455163,18.4687017 35,15.2129057 35,15.1819938 C35,14.8438949 34.7670857,14.5602782 34.4525154,14.4802937 C34.0193493,14.3562597 32.6972985,14.0482998 30.9743552,14.2932767 C31.5113411,12.0633694 30.9642454,10.3979907 30.8153202,10.0081144 C30.7149999,9.72681607 30.445146,9.52511592 30.127465,9.52511592 C29.9668747,9.52511592 28.7486437,9.77936631 27.4565334,10.6286708 C26.9603755,7.6557187 25.0286259,6.20788253 24.934527,6.13910355 C24.9181958,6.12712519 24.9003092,6.11939722 24.8835892,6.10896445 C24.874257,6.10316847 24.8649249,6.09775889 24.8555928,6.0923493 C24.8240969,6.07496136 24.7922121,6.06027821 24.7595497,6.04752705 C24.7471069,6.04289026 24.734664,6.03863988 24.7218324,6.03438949 C24.691503,6.02511592 24.6611736,6.01700155 24.6304553,6.01159196 C24.6121799,6.00811437 24.5942933,6.00618238 24.5760179,6.00386399 C24.5503546,6.0015456 24.5250801,6 24.4998056,6 C24.4745311,6 24.4492566,6.0015456 24.4239821,6.00425039 C24.4057067,6.00618238 24.3878201,6.00850077 24.3695447,6.01197836 C24.3384376,6.01738794 24.308497,6.02550232 24.2781676,6.03516229 C24.265336,6.03902628 24.253282,6.04327666 24.2404503,6.04791345 C24.207399,6.06027821 24.1759031,6.07534776 24.1444072,6.0927357 C24.1350751,6.09814529 24.125743,6.10355487 24.1164108,6.10935085 C24.0996908,6.11978362 24.0818042,6.12751159 24.065473,6.13948995 C23.9713741,6.20826893 22.0396245,7.6561051 21.5434666,10.6294436 C20.2513563,9.7797527 19.0323477,9.52550232 18.8717574,9.52550232 C18.5544652,9.52550232 18.2842224,9.72681607 18.1839021,10.0085008 C18.0365323,10.3937403 17.4878812,12.0606646 18.0256448,14.2936631 C16.3097006,14.0502318 14.991927,14.3543277 14.5478734,14.4806801 C14.2329143,14.5606646 14,14.8446677 14,15.1827666 C14,15.549459 14.7562909,18.6275116 17.4851593,20.875966 C16.8186902,21.4934312 16.2513748,22.2407264 15.7789361,23.1348532 C15.0218675,24.564915 14.5140445,26.3234158 14.226304,28.5108192 C14.2251375,28.5204791 14.223971,28.5312983 14.2231933,28.5417311 L14.1928639,28.7727975 C13.9455626,30.7820711 14.036162,32.6669243 14.4611624,34.375966 C14.464662,34.3952859 14.4685504,34.4146059 14.4732164,34.4335394 C15.6657841,39.2063369 19.3002574,41.9636785 24.4496454,42 L24.5491881,42 L24.5546318,42 C29.6985761,41.9636785 33.3330494,39.2063369 34.5267836,34.4335394 C34.5310608,34.4165379 34.5349492,34.3987635 34.537671,34.3802164 C34.963838,32.6719474 35.0544374,30.7855487 34.8059696,28.763524 L34.7764179,28.5421175 Z M15.7816579,33.6012365 C15.5044161,32.2735703 15.4460903,30.8261206 15.6047364,29.2886399 L18.3137741,31.5602782 C18.415261,31.6452859 18.5400781,31.6877898 18.6648953,31.6877898 C18.7897124,31.6877898 18.9145296,31.6452859 19.0156276,31.5602782 L21.5819616,29.4099691 L24.144796,31.5598918 C24.3473809,31.7302937 24.6440647,31.7299073 24.8470383,31.5602782 L27.41415,29.4095827 L29.9832059,31.5602782 C30.1861796,31.7302937 30.4824745,31.7295209 30.6850593,31.5602782 L33.3952636,29.2901855 C33.5550762,30.8477589 33.492862,32.3098918 33.2078434,33.6476043 C33.1926787,33.6580371 33.1744033,33.6615147 33.1600163,33.673493 L30.5244691,35.8809892 L27.8877553,33.673493 C27.6797267,33.4988408 27.375655,33.4996136 27.1672376,33.673493 L24.5332457,35.8806028 L21.9023645,33.6738794 C21.6939471,33.4988408 21.3898754,33.4992272 21.181458,33.673493 L18.5474661,35.8806028 L15.9154184,33.673493 C15.8745903,33.63949 15.8275409,33.6213292 15.7816579,33.6012365 Z M15.6424538,15.7295209 C16.3633603,15.6232612 17.5434851,15.566847 18.8962542,15.9586553 C19.1629974,16.0355487 19.4522932,15.9551777 19.6401022,15.7496136 C19.8271335,15.5444359 19.8804044,15.2511592 19.7773622,14.9938176 C19.1073935,13.3295981 19.2151017,11.9300618 19.3725813,11.1534003 C19.960894,11.3690108 20.858722,11.7940495 21.6453423,12.5645286 C21.8545374,12.7697063 22.16833,12.8295981 22.4385728,12.7171561 C22.7095932,12.6043277 22.8861259,12.3408037 22.8861259,12.0486862 C22.8861259,9.76661515 23.8978836,8.35085008 24.4990279,7.70865533 C25.098228,8.35046368 26.1134853,9.77202473 26.1134853,12.0486862 C26.1134853,12.3408037 26.290018,12.6043277 26.5610384,12.7171561 C26.8308923,12.8295981 27.1450738,12.7697063 27.3542689,12.5645286 C28.1401115,11.7948223 29.0383284,11.3697836 29.626641,11.1537867 C29.7841206,11.9300618 29.8922177,13.3295981 29.222249,14.9938176 C29.1188179,15.2511592 29.1720888,15.5444359 29.359509,15.7496136 C29.5469291,15.9551777 29.8362249,16.0363215 30.103357,15.9586553 C31.4561261,15.566847 32.6354732,15.6232612 33.3571574,15.7295209 C33.0184791,16.7125193 32.1715889,18.5641422 30.3125521,19.9721793 C30.0679727,19.8238022 29.8163942,19.6827666 29.549651,19.5583462 C29.075268,19.3388717 28.5623901,19.1603555 28.0110171,19.0185471 L28.8190235,17.6962906 C28.9749477,17.440881 28.8932916,17.1081917 28.6362694,16.9532457 C28.3804137,16.7986862 28.0444572,16.8794436 27.888533,17.1348532 L26.8767752,18.7905719 C26.316459,18.7051777 25.7188142,18.6522411 25.0811191,18.6306028 L25.0811191,15.5061824 C25.0811191,15.2074961 24.8373174,14.9652241 24.5367452,14.9652241 C24.2361731,14.9652241 23.9923714,15.2071097 23.9923714,15.5061824 L23.9923714,18.6286708 C23.3476772,18.6476043 22.7441998,18.6982226 22.1788287,18.7816847 L21.1732924,17.1348532 C21.0169793,16.8790572 20.6818005,16.7982998 20.4251671,16.9528594 C20.1681449,17.1078053 20.0864888,17.4404946 20.2420242,17.6959042 L21.0418649,19.005796 C20.5114893,19.1398764 20.0164979,19.307187 19.5584461,19.5127512 C19.2532079,19.6487635 18.9662451,19.8060278 18.6886144,19.9737249 C16.8276335,18.5653014 15.9807432,16.7125193 15.6424538,15.7295209 Z M20.1564797,20.8338485 C21.284889,20.3276662 22.690929,20.076507 24.4496454,20.0660742 L24.5449108,20.0660742 C26.3502879,20.076507 27.7858796,20.3400309 28.9317866,20.8709428 C30.1189105,21.4250386 31.0389024,22.2832303 31.7419223,23.4802937 L30.0287,24.9938176 L27.623734,22.8686244 C27.4172607,22.6862442 27.1065788,22.6862442 26.9001055,22.8686244 L24.496306,24.9934312 L22.0948396,22.8686244 C21.889144,22.6858578 21.5769067,22.6858578 21.3712111,22.8686244 L18.9701335,24.9934312 L17.2584665,23.4791345 C17.9817061,22.25 18.930472,21.3794436 20.1564797,20.8338485 Z M16.75181,24.4795209 L18.6081249,26.1217156 C18.8145981,26.3044822 19.1260577,26.3044822 19.3317533,26.1217156 L21.7328309,23.9969088 L24.1339086,26.1217156 C24.3396041,26.3044822 24.6510638,26.3044822 24.857537,26.1217156 L27.2617253,23.9965224 L29.6666914,26.1217156 C29.7701224,26.2129057 29.8992168,26.2585008 30.0287,26.2585008 C30.1577944,26.2585008 30.2872776,26.2129057 30.3907086,26.1217156 L32.2478012,24.4810665 C32.6922436,25.5081144 33.0278112,26.7430448 33.2486715,28.1680835 C33.1261873,28.1688563 33.0025367,28.2032457 32.9014387,28.2882535 L30.3335494,30.438949 L27.7644935,28.2882535 C27.5619086,28.1186244 27.2656137,28.1190108 27.06264,28.2882535 L24.4959172,30.4385626 L21.9326939,28.2886399 C21.7301091,28.118238 21.4334253,28.1186244 21.2304516,28.2882535 L18.6641176,30.4385626 L16.0997278,28.2882535 C15.9974633,28.202473 15.873035,28.1676971 15.7493843,28.1676971 C15.9718,26.742272 16.3077564,25.5069552 16.75181,24.4795209 Z M24.5464662,40.5502318 L24.4550892,40.5502318 C20.5041013,40.5227975 17.676079,38.738408 16.3489733,35.4907264 L18.186624,37.0312983 C18.2908327,37.1186244 18.4191494,37.1622875 18.5470772,37.1622875 C18.6753939,37.1622875 18.8033218,37.1186244 18.9075305,37.0312983 L21.5411336,34.8241886 L24.1716259,37.0309119 C24.3796545,37.2059505 24.684115,37.2055641 24.8925324,37.0312983 L27.5269132,34.8238022 L30.1640158,37.0312983 C30.3724332,37.2059505 30.6765049,37.2051777 30.8845335,37.0312983 L32.6171978,35.5799845 C31.2745385,38.7716383 28.4609032,40.5220247 24.5464662,40.5502318 Z"
				id="Shape"></path>
		</g>
	</g>
</svg>
