<?xml version="1.0" encoding="UTF-8"?>
<svg width="48px" height="48px" viewBox="0 0 48 48" version="1.1" xmlns="http://www.w3.org/2000/svg"
		 xmlns:xlink="http://www.w3.org/1999/xlink">
	<!-- Generator: Sketch 43.1 (39012) - http://www.bohemiancoding.com/sketch -->
	<title>hawaiian-green</title>
	<desc>Created with Sketch.</desc>
	<defs></defs>
	<g id="UI-KIT" stroke="none" stroke-width="1" fill="none" fill-rule="evenodd">
		<g id="hawaiian-green" fill-rule="nonzero" fill="#39CE7B">
			<path
				d="M34.7764179,28.5421175 C34.7756402,28.5316847 34.7744737,28.5208655 34.7729183,28.5104328 C34.4859555,26.322643 33.9781325,24.5637558 33.2210639,23.1352396 C32.7505694,22.242272 32.183254,21.4957496 31.5144518,20.8767388 C34.4455163,18.4687017 35,15.2129057 35,15.1819938 C35,14.8438949 34.7670857,14.5602782 34.4525154,14.4802937 C34.0193493,14.3562597 32.6972985,14.0482998 30.9743552,14.2932767 C31.5113411,12.0633694 30.9642454,10.3979907 30.8153202,10.0081144 C30.7149999,9.72681607 30.445146,9.52511592 30.127465,9.52511592 C29.9668747,9.52511592 28.7486437,9.77936631 27.4565334,10.6286708 C26.9603755,7.6557187 25.0286259,6.20788253 24.934527,6.13910355 C24.9181958,6.12712519 24.9003092,6.11939722 24.8835892,6.10896445 C24.874257,6.10316847 24.8649249,6.09775889 24.8555928,6.0923493 C24.8240969,6.07496136 24.7922121,6.06027821 24.7595497,6.04752705 C24.7471069,6.04289026 24.734664,6.03863988 24.7218324,6.03438949 C24.691503,6.02511592 24.6611736,6.01700155 24.6304553,6.01159196 C24.6121799,6.00811437 24.5942933,6.00618238 24.5760179,6.00386399 C24.5503546,6.0015456 24.5250801,6 24.4998056,6 C24.4745311,6 24.4492566,6.0015456 24.4239821,6.00425039 C24.4057067,6.00618238 24.3878201,6.00850077 24.3695447,6.01197836 C24.3384376,6.01738794 24.308497,6.02550232 24.2781676,6.03516229 C24.265336,6.03902628 24.253282,6.04327666 24.2404503,6.04791345 C24.207399,6.06027821 24.1759031,6.07534776 24.1444072,6.0927357 C24.1350751,6.09814529 24.125743,6.10355487 24.1164108,6.10935085 C24.0996908,6.11978362 24.0818042,6.12751159 24.065473,6.13948995 C23.9713741,6.20826893 22.0396245,7.6561051 21.5434666,10.6294436 C20.2513563,9.7797527 19.0323477,9.52550232 18.8717574,9.52550232 C18.5544652,9.52550232 18.2842224,9.72681607 18.1839021,10.0085008 C18.0365323,10.3937403 17.4878812,12.0606646 18.0256448,14.2936631 C16.3097006,14.0502318 14.991927,14.3543277 14.5478734,14.4806801 C14.2329143,14.5606646 14,14.8446677 14,15.1827666 C14,15.549459 14.7562909,18.6275116 17.4851593,20.875966 C16.8186902,21.4934312 16.2513748,22.2407264 15.7789361,23.1348532 C15.0218675,24.564915 14.5140445,26.3234158 14.226304,28.5108192 C14.2251375,28.5204791 14.223971,28.5312983 14.2231933,28.5417311 L14.1928639,28.7727975 C13.9455626,30.7820711 14.036162,32.6669243 14.4611624,34.375966 C14.464662,34.3952859 14.4685504,34.4146059 14.4732164,34.4335394 C15.6657841,39.2063369 19.3002574,41.9636785 24.4496454,42 L24.5491881,42 L24.5546318,42 C29.6985761,41.9636785 33.3330494,39.2063369 34.5267836,34.4335394 C34.5310608,34.4165379 34.5349492,34.3987635 34.537671,34.3802164 C34.963838,32.6719474 35.0544374,30.7855487 34.8059696,28.763524 L34.7764179,28.5421175 Z M15.6424538,15.7295209 C16.3633603,15.6232612 17.5434851,15.566847 18.8962542,15.9586553 C19.1629974,16.0355487 19.4522932,15.9551777 19.6401022,15.7496136 C19.8271335,15.5444359 19.8804044,15.2511592 19.7773622,14.9938176 C19.1073935,13.3295981 19.2151017,11.9300618 19.3725813,11.1534003 C19.960894,11.3690108 20.858722,11.7940495 21.6453423,12.5645286 C21.8545374,12.7697063 22.16833,12.8295981 22.4385728,12.7171561 C22.7095932,12.6043277 22.8861259,12.3408037 22.8861259,12.0486862 C22.8861259,9.76661515 23.8978836,8.35085008 24.4990279,7.70865533 C25.098228,8.35046368 26.1134853,9.77202473 26.1134853,12.0486862 C26.1134853,12.3408037 26.290018,12.6043277 26.5610384,12.7171561 C26.8308923,12.8295981 27.1450738,12.7697063 27.3542689,12.5645286 C28.1401115,11.7948223 29.0383284,11.3697836 29.626641,11.1537867 C29.7841206,11.9300618 29.8922177,13.3295981 29.222249,14.9938176 C29.1188179,15.2511592 29.1720888,15.5444359 29.359509,15.7496136 C29.5469291,15.9551777 29.8362249,16.0363215 30.103357,15.9586553 C31.4561261,15.566847 32.6354732,15.6232612 33.3571574,15.7295209 C33.0184791,16.7125193 32.1715889,18.5641422 30.3125521,19.9721793 C30.0679727,19.8238022 29.8163942,19.6827666 29.549651,19.5583462 C29.075268,19.3388717 28.5623901,19.1603555 28.0110171,19.0185471 L28.8190235,17.6962906 C28.9749477,17.440881 28.8932916,17.1081917 28.6362694,16.9532457 C28.3804137,16.7986862 28.0444572,16.8794436 27.888533,17.1348532 L26.8767752,18.7905719 C26.316459,18.7051777 25.7188142,18.6522411 25.0811191,18.6306028 L25.0811191,15.5061824 C25.0811191,15.2074961 24.8373174,14.9652241 24.5367452,14.9652241 C24.2361731,14.9652241 23.9923714,15.2071097 23.9923714,15.5061824 L23.9923714,18.6286708 C23.3476772,18.6476043 22.7441998,18.6982226 22.1788287,18.7816847 L21.1732924,17.1348532 C21.0169793,16.8790572 20.6818005,16.7982998 20.4251671,16.9528594 C20.1681449,17.1078053 20.0864888,17.4404946 20.2420242,17.6959042 L21.0418649,19.005796 C20.5114893,19.1398764 20.0164979,19.307187 19.5584461,19.5127512 C19.2532079,19.6487635 18.9662451,19.8060278 18.6886144,19.9737249 C16.8276335,18.5653014 15.9807432,16.7125193 15.6424538,15.7295209 Z"
				id="Shape"></path>
		</g>
	</g>
</svg>
