<?xml version="1.0" encoding="UTF-8"?>
<svg width="48px" height="48px" viewBox="0 0 48 48" version="1.1" xmlns="http://www.w3.org/2000/svg"
		 xmlns:xlink="http://www.w3.org/1999/xlink">
	<!-- Generator: Sketch 43.1 (39012) - http://www.bohemiancoding.com/sketch -->
	<title>hotdogs-green</title>
	<desc>Created with Sketch.</desc>
	<defs></defs>
	<g id="UI-KIT" stroke="none" stroke-width="1" fill="none" fill-rule="evenodd">
		<g id="hotdogs-green" fill-rule="nonzero" fill="#39CE7B">
			<path
				d="M39.2703478,16.8406384 C40.0613382,17.6770335 40.5,18.7307765 40.5,19.8473154 C40.5,20.9638544 40.0613382,22.0175974 39.2655993,22.8588785 L22.8731469,39.2721368 C22.0356983,40.0619989 20.9807118,40.5 19.8629032,40.5 C18.7060038,40.5 17.6581968,40.0767369 16.8475356,39.2671638 L15.8447621,38.2657364 C15.2043203,38.744172 14.3813673,38.9966443 13.5403226,38.9966443 C12.4760509,38.9966443 11.4687872,38.5775144 10.696998,37.8067611 C9.92514419,37.0359434 9.50537634,36.0298528 9.50537634,34.9667785 C9.50537634,34.1400759 9.76702305,33.3371929 10.2419147,32.6703905 L9.22965217,31.6593616 C8.43866176,30.8229665 8,29.7692235 8,28.6526846 C8,27.4971113 8.4239061,26.4505279 9.2344007,25.6411215 L25.6268531,9.22786321 C26.4643017,8.43800115 27.5192882,8 28.6370968,8 C29.7939962,8 30.8418032,8.42326313 31.6524644,9.23283617 L32.6606572,10.2396757 C34.2304143,9.13194553 36.4066588,9.29876988 37.803002,10.6932389 C38.5748558,11.4640566 38.9946237,12.4701472 38.9946237,13.5332215 C38.9946237,14.3599241 38.732977,15.1628071 38.2580853,15.8296095 L39.2703478,16.8406384 Z M11.6524644,36.8086751 C12.6757356,37.8698124 14.3618988,37.8698124 15.3853472,36.8084983 L36.8905464,15.375118 C37.400538,14.865811 37.6774194,14.2001395 37.6774194,13.4902685 C37.6774194,12.7803975 37.400538,12.1147259 36.8905464,11.6054189 C36.3804902,11.0960473 35.7137443,10.8194631 35.0026882,10.8194631 C34.291632,10.8194631 33.6248862,11.0960473 33.11483,11.6054189 L11.6524644,33.0389759 C11.1424728,33.548283 10.8655914,34.2139545 10.8655914,34.9238255 C10.8655914,35.6336965 11.1424728,36.299368 11.6524644,36.8086751 Z M16.4275864,32.7081035 C16.5049113,33.1732051 16.5347359,33.4461119 16.5245248,33.7543418 C16.5045929,34.3560029 16.3047471,34.860289 15.8675181,35.272533 C15.740984,35.3988972 15.5517315,35.4744966 15.3897849,35.4744966 C15.2278384,35.4744966 15.0385859,35.3988972 14.9120517,35.272533 C14.6422193,35.0030627 14.6422193,34.5868702 14.9120517,34.3173999 C15.2151635,34.014695 15.2462064,33.6922823 15.1005883,32.8196775 C15.0921283,32.7718292 15.0921283,32.7718292 15.0835224,32.7228323 C14.9824342,32.1450829 14.9538832,31.7888317 15.0143316,31.3892105 C15.0850867,30.9214522 15.2852653,30.5084457 15.6432345,30.150957 C16.0423678,29.7523595 16.4984984,29.5513955 17.0233826,29.5043537 C17.3720813,29.4731023 17.6699856,29.5017111 18.210884,29.5917957 C18.2621344,29.6003499 18.2621344,29.6003499 18.3125514,29.6087617 C19.1888933,29.7546226 19.5120329,29.7235932 19.8152776,29.4207556 C20.1183893,29.1180507 20.1494322,28.795638 20.0038141,27.9230332 C19.9953541,27.8751849 19.9953541,27.8751849 19.9867482,27.826188 C19.88566,27.2484386 19.857109,26.8921874 19.9175574,26.4925662 C19.9883125,26.0248079 20.1884911,25.6118014 20.5464603,25.2543127 C20.9455936,24.8557152 21.4017242,24.6547512 21.9266084,24.6077094 C22.2753071,24.576458 22.5732114,24.6050668 23.1141098,24.6951514 C23.1653602,24.7037056 23.1653602,24.7037056 23.2157773,24.7121174 C24.0921191,24.8579783 24.4152587,24.8269489 24.7185034,24.5241113 C25.0216151,24.2214064 25.052658,23.8989937 24.9070399,23.0263889 C24.8985799,22.9785406 24.8985799,22.9785406 24.889974,22.9295437 C24.7888858,22.3517943 24.7603349,21.9955431 24.8207832,21.5959219 C24.8915383,21.1281636 25.0917169,20.7151571 25.4496862,20.3576684 C25.8488194,19.9590709 26.30495,19.7581069 26.8298342,19.7110651 C27.1785329,19.6798137 27.4764372,19.7084225 28.0173356,19.7985072 C28.068586,19.8070613 28.068586,19.8070613 28.1190031,19.8154731 C28.9953449,19.961334 29.3184845,19.9303046 29.6217292,19.627467 C29.9248409,19.3247621 29.9558838,19.0023494 29.8102657,18.1297446 C29.8018057,18.0818963 29.8018057,18.0818963 29.7931998,18.0328994 C29.6921116,17.45515 29.6635607,17.0988988 29.724009,16.6992776 C29.7947641,16.2315193 29.9949427,15.8185128 30.352912,15.4610241 C30.7520452,15.0624266 31.2081758,14.8614626 31.73306,14.8144208 C32.0817587,14.7831694 32.379663,14.8117782 32.9205614,14.9018629 C32.9718118,14.910417 32.9718118,14.910417 33.0222289,14.9188288 C33.8985707,15.0646897 34.2217103,15.0336603 34.524955,14.7308227 C34.7946018,14.4615378 35.2107745,14.4615378 35.4804214,14.7308227 C35.7502538,15.000293 35.7502538,15.4164855 35.4804214,15.6859558 C35.0812881,16.0845533 34.6251575,16.2855173 34.1002733,16.332559 C33.7515746,16.3638105 33.4536703,16.3352017 32.912772,16.245117 C32.8615216,16.2365629 32.8615216,16.2365629 32.8111045,16.228151 C31.9347626,16.0822901 31.611623,16.1133195 31.3083784,16.4161571 C31.0052666,16.718862 30.9742237,17.0412747 31.1198418,17.9138796 C31.1283018,17.9617279 31.1283018,17.9617279 31.1369077,18.0107247 C31.2379959,18.5884741 31.2665469,18.9447254 31.2060985,19.3443465 C31.1353434,19.8121049 30.9351648,20.2251113 30.5771956,20.5826001 C30.1780623,20.9811976 29.7219317,21.1821615 29.1970475,21.2292033 C28.8483488,21.2604548 28.5504445,21.231846 28.0095462,21.1417613 C27.9582958,21.1332071 27.9582958,21.1332071 27.9078787,21.1247953 C27.0315368,20.9789344 26.7083972,21.0099638 26.4051526,21.3128014 C26.1020408,21.6155063 26.0709979,21.937919 26.216616,22.8105239 C26.225076,22.8583722 26.225076,22.8583722 26.2336819,22.907369 C26.3347701,23.4851184 26.3633211,23.8413696 26.3028727,24.2409908 C26.2321176,24.7087492 26.031939,25.1217556 25.6739698,25.4792444 C25.2748365,25.8778419 24.8187059,26.0788058 24.2938217,26.1258476 C23.945123,26.1570991 23.6472187,26.1284903 23.1063203,26.0384056 C23.05507,26.0298514 23.05507,26.0298514 23.0046529,26.0214396 C22.128311,25.8755787 21.8051714,25.9066081 21.5019268,26.2094457 C21.198815,26.5121506 21.1677721,26.8345633 21.3133902,27.7071682 C21.3218502,27.7550164 21.3218502,27.7550164 21.3304561,27.8040133 C21.4315443,28.3817627 21.4600953,28.7380139 21.3996469,29.1376351 C21.3288918,29.6053935 21.1287132,30.0183999 20.770744,30.3758887 C20.3716107,30.7744862 19.9154801,30.9754501 19.3905959,31.0224919 C19.0418972,31.0537434 18.7439929,31.0251346 18.2030945,30.9350499 C18.1518441,30.9264957 18.1518441,30.9264957 18.1014271,30.9180839 C17.2250852,30.772223 16.9019456,30.8032524 16.5987009,31.10609 C16.2955892,31.4087949 16.2645463,31.7312076 16.410568,32.6061619 C16.4190068,32.6566456 16.4190068,32.6566456 16.4275864,32.7081035 Z"
				id="Combined-Shape"></path>
		</g>
	</g>
</svg>
