<?xml version="1.0" encoding="UTF-8"?>
<svg width="48px" height="48px" viewBox="0 0 48 48" version="1.1" xmlns="http://www.w3.org/2000/svg"
		 xmlns:xlink="http://www.w3.org/1999/xlink">
	<!-- Generator: Sketch 43.1 (39012) - http://www.bohemiancoding.com/sketch -->
	<title>icecream-green</title>
	<desc>Created with Sketch.</desc>
	<defs></defs>
	<g id="UI-KIT" stroke="none" stroke-width="1" fill="none" fill-rule="evenodd">
		<g id="icecream-green" fill-rule="nonzero" fill="#39CE7B">
			<path
				d="M24.2504363,41.5 C26.1204672,41.5 27.6454867,39.9370432 27.6454867,38.0139579 L27.6454867,31.1667579 C27.6454867,30.7183064 27.2939907,30.3579789 26.8625438,30.3579789 L21.6372202,30.3579789 C21.2057732,30.3579789 20.8542773,30.7183064 20.8542773,31.1667579 L20.8542773,38.0143368 C20.8542773,39.9373971 22.3792716,41.5 24.2504363,41.5 Z M22.4205326,31.9755368 L26.0788618,31.9755368 L26.0788618,38.0139579 C26.0788618,39.0430673 25.2602621,39.8824421 24.2504363,39.8824421 C23.2402705,39.8824421 22.4205326,39.0427143 22.4205326,38.0139579 L22.4205326,31.9755368 Z M31.7164515,31.9755368 C32.1480404,31.9755368 32.4993944,31.615444 32.4993944,31.1667579 L32.4993944,14.4597263 C32.4993944,9.79431417 28.796992,6 24.2504363,6 C19.7026244,6 16,9.79408615 16,14.4597263 L16,31.1667579 C16,31.6152997 16.3515817,31.9755368 16.7829429,31.9755368 L31.7164515,31.9755368 Z M17.5662554,30.3579789 L17.5662554,18.9218107 C17.5662554,16.2087446 20,16 24,18 C28,16 31,15 30.933139,18.9218107 L30.933139,30.3579789 L17.5662554,30.3579789 Z M31.7164515,19.2664 C31.8127949,19.2664 31.9091367,19.2478099 32.0013545,19.2106621 C32.4047617,19.0479117 32.6049229,18.5767105 32.4448169,18.159167 C32.2998486,17.7833186 32.0117295,17.2557869 31.5652533,16.7419727 C30.8458221,15.9140362 29.9476002,15.4251789 28.8474942,15.4251789 C27.7656955,15.4251789 27.0773609,15.7934549 25.8736192,16.7757772 C25.0494005,17.449466 24.719911,17.6480842 24.2508059,17.6480842 C23.7811459,17.6480842 23.4531437,17.450425 22.6267915,16.7760034 C22.4332306,16.6182548 22.3477996,16.5494251 22.2356585,16.4621133 C21.3382921,15.7634342 20.5937679,15.4251789 19.6519002,15.4251789 C18.5521251,15.4251789 17.6540358,15.9140344 16.934603,16.7419727 C16.4881171,17.2557981 16.1998078,17.7835973 16.055116,18.1587277 C15.8960541,18.5734395 16.0936452,19.0397458 16.4950515,19.2049609 C16.8916195,19.3685814 17.3461029,19.1696195 17.5103639,18.7568535 C17.8740192,17.8619307 18.5504617,17.0427368 19.6519002,17.0427368 C20.1072756,17.0427368 20.5157425,17.2028766 20.977843,17.5217299 C21.1660582,17.6516 21.3105142,17.7650449 21.6547401,18.0459482 C21.7715384,18.1411584 21.8238455,18.1836108 21.889716,18.2363722 C22.7843931,18.9529969 23.4182247,19.2660211 24.2504363,19.2660211 C25.0831089,19.2660211 25.7166971,18.9525427 26.6116584,18.2343451 C26.6770197,18.1818933 26.7287461,18.1398389 26.8443942,18.0454026 C27.7773548,17.2828237 28.1904719,17.0427368 28.8471246,17.0427368 C29.9446534,17.0427368 30.62352,17.8596617 30.9899443,18.758939 C31.1108917,19.0688392 31.4002952,19.2664 31.7164515,19.2664 Z"
				id="Combined-Shape"></path>
		</g>
	</g>
</svg>
