<?xml version="1.0" encoding="UTF-8"?>
<svg width="48px" height="48px" viewBox="0 0 48 48" version="1.1" xmlns="http://www.w3.org/2000/svg"
		 xmlns:xlink="http://www.w3.org/1999/xlink">
	<!-- Generator: Sketch 43.1 (39012) - http://www.bohemiancoding.com/sketch -->
	<title>indian</title>
	<desc>Created with Sketch.</desc>
	<defs></defs>
	<g id="UI-KIT" stroke="none" stroke-width="1" fill="none" fill-rule="evenodd">
		<g id="indian" fill-rule="nonzero" fill="#455A64">
			<path
				d="M24.917405,36.1999999 C23.1408103,36.20016 21.3659612,36.0593787 19.6684437,35.8222044 C18.60733,35.6739473 17.7710699,35.5173805 17.2415384,35.3975685 C16.9522899,35.3206123 16.5006708,35.1829485 15.9416535,34.9851768 C15.0514817,34.6702478 14.1435198,34.2900941 13.2637461,33.8423692 C10.7721159,32.5743558 8.95426981,31.0063314 8.1864013,29.1064505 C7.48492978,27.3711466 7.74061377,25.5071109 8.93485332,23.5811971 C11.056408,20.1605475 14.1977787,18.1209979 17.9159179,17.1676981 C20.1560271,16.5933528 22.1476921,16.5077846 23.3324978,16.6217929 L23.5326183,16.6410495 L23.4191376,17.7592281 L23.2209688,17.7400217 C22.9606282,17.7147897 22.4207908,17.6985809 21.7379494,17.7284436 C20.6101832,17.7777643 19.4142361,17.9409072 18.2019793,18.2519003 C14.7565778,19.1357857 11.8566545,21.016884 9.90165655,24.1690538 C8.89801188,25.7876998 8.67954782,27.3028335 9.23956465,28.6884156 C9.90225444,30.3279123 11.5825655,31.73572 13.9130528,32.8989805 C15.3294259,33.6059617 16.7169097,34.0953817 17.5139234,34.306668 C17.6113055,34.3282232 17.7949998,34.3658237 18.0483935,34.413181 C18.4639705,34.4908491 18.9352653,34.5696423 19.4538698,34.6449597 C20.9271438,34.8589245 22.489716,35.0039919 24.0744569,35.0435245 C28.5726303,35.1557351 32.3630697,34.4111411 34.9186078,32.5235874 C35.1048915,32.4133929 35.3243798,32.2736096 35.6146214,32.0643191 C36.094935,31.7179694 36.5747329,31.3154987 37.0220591,30.861499 C38.094238,29.7733245 38.8100491,28.5665892 39.0093976,27.2668368 C39.2869454,25.4567692 38.5318831,23.5807408 36.7677609,21.7026581 C36.4125105,21.4194559 35.8767843,21.0288087 35.2224983,20.6097318 C34.1896588,19.9481875 33.1560147,19.4111221 32.1780899,19.0737574 L31.3093295,18.7454041 L31.7179369,17.6970193 L31.9031683,17.7671412 L32.5666558,18.0184086 C33.6685397,18.3983928 34.8129634,18.9972109 35.9386348,19.7273073 C36.6281477,20.1745168 37.173217,20.5786796 37.513254,20.8558614 C39.5950788,23.0556016 40.4660905,25.2593051 40.1296668,27.4401483 C39.8829085,29.0412756 39.0228263,30.4788177 37.7547773,31.7379363 C36.9602472,32.5268707 36.1571221,33.1068841 35.5674084,33.4450246 C32.9553543,35.3677135 29.2652085,36.1999999 24.917405,36.1999999 Z M18.1214332,33.7542569 C17.9487107,33.7542569 17.7766265,33.7208968 17.6092639,33.6549327 C16.4296261,33.1900537 15.9054921,32.2224908 15.2749174,30.0344678 C15.2429941,29.9234743 15.2429941,29.9234743 15.211283,29.8127749 C15.1234286,29.5059024 15.0790082,29.3528065 15.0262678,29.1775666 C14.8379399,28.5534771 14.4434156,27.9868376 13.918959,27.490596 C13.7334006,27.3150204 13.5444909,27.1609136 13.3624097,27.0297291 C13.2530592,26.950945 13.16976,26.8969977 13.1371722,26.8771771 C12.6125228,26.6175371 11.9332097,26.2117583 11.3218577,25.7197941 C10.3276171,24.9197137 9.78354701,24.0993332 9.91422453,23.2757545 C10.0498564,22.4191304 10.8967844,21.9432635 12.215412,21.7415834 C13.0617679,21.6121358 13.9875172,21.6090215 14.7671941,21.6699851 C15.118084,21.6357575 15.6026712,21.5573743 16.1490479,21.4170561 C16.998815,21.1988224 17.7620175,20.8851748 18.362916,20.4621627 C19.7166734,19.5095246 21.1971736,19.4142206 22.3249105,19.647145 L22.4624587,19.6908328 L22.5210271,19.7296694 C22.9720745,20.0294537 23.2516626,20.4616954 23.3461998,21.0041453 C23.4811724,21.7760275 23.2238692,22.715279 22.7009143,23.7447603 C22.3851189,24.3664306 22.0429892,24.8914725 21.8039006,25.206059 C21.678509,25.3944852 21.5071471,25.7029693 21.3339481,26.125898 C21.0428337,26.8367603 20.8694169,27.5992112 20.8722165,28.3812474 C20.8791131,30.2758579 20.0714773,32.7361863 18.948731,33.4878253 C18.6863687,33.6633216 18.4060682,33.7542569 18.1214332,33.7542569 Z M13.8865284,22.7605353 C12.3267312,22.7605353 11.0974979,23.0519774 11.0342067,23.4501818 C10.9377396,24.0582188 12.2238187,25.1652856 13.6761795,25.8897449 C14.6190773,26.4258949 15.6854247,27.4406449 16.112498,28.8562457 C16.1602147,29.014762 16.204733,29.1675084 16.2752277,29.4128902 C16.2886046,29.4594671 16.2886046,29.4594671 16.30202,29.5062017 C16.8858496,31.5456684 17.2527473,32.3054228 18.0294835,32.6114086 C18.1165269,32.6464955 18.1871869,32.6413657 18.3127531,32.5572655 C19.0386423,32.0712044 19.7423558,29.9442973 19.7370233,28.385974 C19.7310188,26.7673912 20.2814332,25.4224465 20.8660206,24.5775358 C21.6684879,23.5037101 22.3717537,22.0175293 22.2276105,21.1959498 C22.1898722,20.9793303 22.0956335,20.8196065 22.0264616,20.736471 C21.7116352,20.6871567 21.306092,20.6685038 20.8555195,20.7168856 C20.1865879,20.7887145 19.5602236,20.9980329 19.0187561,21.3790847 C17.7202402,22.2931262 16.0802621,22.6958622 14.8327511,22.792906 L14.7738887,22.7950771 C14.4781553,22.7715417 14.1863604,22.7605353 13.8865284,22.7605353 Z M28.2978645,29.3509063 C28.0790315,29.3509063 27.8437301,29.3137743 27.5809514,29.2342175 L26.2512345,28.7570782 L26.64216,27.7019967 L26.8285168,27.7689393 L27.9394232,28.1683058 C28.3945827,28.3045818 28.5811409,28.2214178 28.7198587,27.9618697 C29.1519696,27.151234 28.6732098,24.9968673 28.0715131,24.5274439 C27.5064943,24.0864261 27.0929942,23.288999 26.7954233,22.2582286 C26.609554,21.6143868 26.4994235,20.9950225 26.4471669,20.5293377 C26.2454179,18.7011957 25.6918004,16.751677 25.1563624,16.4089859 C25.1095955,16.3790951 25.0875978,16.3757317 25.0459347,16.3892086 C24.1733086,16.6647672 22.8770588,18.4388306 22.0438158,20.0860217 L21.9545647,20.2624572 L20.9382124,19.7628461 L21.0295485,19.5823211 C21.320825,19.0066158 21.7477651,18.2657015 22.263654,17.5350975 C23.0890887,16.3661136 23.9084796,15.5688484 24.7010958,15.3183387 C25.0694507,15.2027744 25.4422307,15.25409 25.7718247,15.4652083 C26.3754396,15.8516679 26.8218292,16.7959718 27.1611716,18.1261085 C27.3717299,18.9514441 27.5048044,19.7734873 27.5743729,20.4056111 C27.7188652,21.6793595 28.1825761,23.1837833 28.7733361,23.6443607 C29.8124119,24.4550983 30.4022827,27.2104763 29.7227137,28.4857318 C29.4489789,29.0024535 28.9832037,29.3505614 28.2978645,29.3509063 Z M24.0412349,27.8129627 C23.6776828,27.0644951 22.3956684,26.5810711 21.281361,26.500473 L20.7305948,26.4391642 L20.8600601,25.3230815 L21.0580122,25.3452271 L21.3856166,25.3820728 C21.7530937,25.4068548 22.3313738,25.5036813 22.9326005,25.7032674 C23.931408,26.0348363 24.6911253,26.5583656 25.0638932,27.3259321 L25.1523044,27.5079795 L24.1275845,27.990736 L24.0412349,27.8129627 Z M21.7014143,32.5839739 C21.6839257,32.583677 21.6839257,32.583677 21.6648424,32.5836727 C20.8916836,32.5836727 20.3710912,32.1374623 20.3062799,31.4066481 C20.2561113,30.8420156 20.4560895,30.3797219 20.841509,30.0335593 C20.8165093,30.0049559 20.7929294,29.9751111 20.7708199,29.9440075 C20.5510737,29.6356928 20.4917805,29.2314354 20.6731281,28.7520745 C20.8160462,28.3734794 21.0871959,28.0878468 21.4531548,27.9314486 C21.9258237,27.7289789 22.4883768,27.7532084 23.0614259,27.9089011 C23.3737974,27.5784185 23.731173,27.3607173 24.1361735,27.339587 C24.4667683,26.8395442 24.9336355,26.455824 25.5486536,26.4843859 C26.1329708,26.5111751 26.6174111,26.9460203 26.9789397,27.7144776 C27.1666509,27.985526 27.2841987,28.3297411 27.2202775,28.7103341 C27.21702,28.7309061 27.2130611,28.7517468 27.208407,28.7727953 C27.3350247,28.8921276 27.4153452,29.0368422 27.4553639,29.1714466 C27.7115855,29.6889696 27.7002847,30.1381248 27.5026766,30.4958659 C27.2955455,30.8714826 26.9253273,31.0937541 26.4884024,31.2095821 C26.270864,31.5768638 25.9787109,31.8032116 25.6205451,31.8707047 C25.394036,31.9128873 25.1721825,31.8853854 24.9588868,31.8044755 C24.8088507,31.9683049 24.627958,32.0968117 24.421545,32.1853573 C23.957986,32.3842411 23.4355968,32.3722294 22.9163215,32.235555 C22.5925939,32.4423866 22.1026414,32.5751819 21.7014143,32.5839739 Z M25.337423,27.9399101 C25.4714157,28.1078765 25.5945731,28.3102277 25.7078291,28.5472265 L25.79076,28.720767 L24.8077045,29.238627 L24.7097819,29.0788155 L24.4219453,28.6041829 C24.3396101,28.5083035 24.2713477,28.4645191 24.2303778,28.4618612 C24.1148179,28.4550952 23.8641787,28.667738 23.7333488,28.8681737 L23.4776433,29.2589327 L23.3255673,29.1979482 L23.0407292,29.0837231 C22.6758222,28.9360151 22.1601947,28.8524456 21.9019525,28.9629363 C21.8198826,28.9983297 21.7708837,29.0509686 21.7351498,29.1452565 C21.6979137,29.2437901 21.6959549,29.293972 21.6977143,29.296451 C21.742907,29.3598648 22.0237847,29.4306623 22.2529057,29.4388061 L22.4325938,29.4451928 L22.5094924,30.5305285 L22.3253907,30.5570755 C21.8391987,30.627183 21.3967453,30.8590884 21.4366089,31.3083736 C21.4455295,31.4092814 21.4545623,31.4208298 21.4999631,31.4372635 C21.6586472,31.494932 21.9944163,31.4352347 22.2085137,31.3397038 L22.2336127,30.7616113 L22.4983612,30.8727113 L22.9852103,31.0770191 C23.2812616,31.1989979 23.7213271,31.2603448 23.9710595,31.1528782 C24.0938337,31.0998411 24.1799111,31.0017801 24.2401102,30.8377535 L24.5481147,29.9977025 L24.7696696,30.222282 L25.1767615,30.63496 C25.2440005,30.7012138 25.3774724,30.7728925 25.4080423,30.7664373 C25.4305445,30.762018 25.5090031,30.6663612 25.5811637,30.4960949 L25.6652595,30.2974394 L25.8288722,30.1764662 L26.0442977,30.1542042 C26.224138,30.1341433 26.4625664,30.0369778 26.5063845,29.9568382 C26.5212668,29.9295641 26.5145041,29.8665096 26.4836181,29.7787499 L26.252266,29.9323912 L25.3701696,29.0637614 L25.5782084,28.928038 L25.9532393,28.68337 C26.0489042,28.6210306 26.0933972,28.5667046 26.1002018,28.5295712 C26.1084787,28.4831936 26.0753796,28.3936045 26.0308281,28.3323908 L25.9794814,28.2451827 C25.7931198,27.8442242 25.5979183,27.6171903 25.4930068,27.6064286 C25.4374485,27.6065941 25.3398403,27.6705541 25.2372945,27.7746269 L25.337423,27.9399101 Z M33.9854333,26.6001239 C33.6934986,26.6001239 33.3642336,26.5641584 32.9949012,26.4924989 L32.8283391,26.4390481 L32.7611652,26.3881541 C32.6126402,26.2772839 32.3043869,26.0953521 31.8735777,25.9120169 C31.154953,25.6061988 30.3371939,25.4073816 29.424292,25.370752 L29.3764988,25.3659891 L28.7851081,25.2809515 L28.9498643,24.169273 L29.1468856,24.1974969 L29.5007779,24.2492066 C30.4511703,24.2892181 31.3218336,24.4829903 32.1029563,24.7869164 C32.6357417,24.9942173 33.0604656,25.2249646 33.2895809,25.4036425 C33.9809305,25.5289581 34.4431979,25.4783851 34.5430377,25.3292547 C34.7130283,25.075274 34.3868204,24.1583896 33.9237421,23.470176 C31.9759348,21.6114178 31.2546617,19.9387961 31.2084839,18.880073 C30.9720259,16.87577 30.4988647,15.5094578 29.8846033,14.6637271 C29.5291849,14.1743779 29.1917313,13.9471905 29.0729857,13.920602 C28.7535835,13.9062084 28.3466891,14.0325538 27.9352705,14.4457077 C27.4073978,14.9758071 27.0146264,15.8743756 26.8249199,17.2250154 L26.7972134,17.4222761 L25.6737613,17.2690865 L25.7016912,17.0702324 C25.9785568,15.0990215 26.6670141,13.8681115 27.6303113,13.2413097 C28.2345192,12.8481615 28.8261473,12.7563374 29.240895,12.8112546 C29.6087579,12.8815523 30.1188341,13.1723902 30.6391683,13.8105434 C31.4582472,14.815086 32.0611878,16.4264268 32.3383236,18.7816189 C32.343793,18.848087 32.357752,18.9416532 32.3926923,19.0888631 C32.4509718,19.3344052 32.5446627,19.6134992 32.6818379,19.9212948 C33.0746682,20.8027327 33.7379428,21.7376437 34.7511749,22.7005395 L34.812241,22.7732777 C35.0316899,23.0895767 35.2809244,23.5215017 35.4688694,23.9972288 C35.7760546,24.7747768 35.8239481,25.4500318 35.4888873,25.9508099 C35.1949661,26.3881868 34.690383,26.6001239 33.9854333,26.6001239 Z M27.8334563,32.2734602 L28.0331175,32.2446977 C28.7478618,32.141734 30.0237296,31.7835986 31.3074266,31.1355506 C33.4241811,30.0669506 34.9380005,28.5100453 35.5206018,26.3744473 L35.604644,26.055806 L36.7051064,26.3287079 L36.6531896,26.5250646 L36.6164367,26.6640464 C35.9435977,29.1321947 34.2599285,30.9090668 31.9308899,32.1051987 C30.5082018,32.8358532 29.1486905,33.2156224 28.2004775,33.3565811 L28.0034551,33.3858699 L27.8334563,32.2734602 Z"
				id="Combined-Shape"></path>
		</g>
	</g>
</svg>
