<?xml version="1.0" encoding="UTF-8"?>
<svg width="48px" height="48px" viewBox="0 0 48 48" version="1.1" xmlns="http://www.w3.org/2000/svg"
		 xmlns:xlink="http://www.w3.org/1999/xlink">
	<!-- Generator: Sketch 43.1 (39012) - http://www.bohemiancoding.com/sketch -->
	<title>italian-green</title>
	<desc>Created with Sketch.</desc>
	<defs></defs>
	<g id="UI-KIT" stroke="none" stroke-width="1" fill="none" fill-rule="evenodd">
		<g id="italian-green" fill-rule="nonzero" fill="#39CE7B">
			<path
				d="M13.4765154,36.029672 C10.0575636,34.6766881 7.85,31.4524125 7.85,27.7843137 C7.85,27.3957406 8.12000311,27.1245098 8.50749636,27.1245098 L38.9572778,27.1245098 C39.344771,27.1245098 39.6147742,27.3957406 39.6147742,27.7843137 C39.6147742,31.4524125 37.4072105,34.6766881 33.9876453,36.0299132 L30.4120711,37.4267368 C30.213486,38.4330425 29.3495074,39.15 28.2998543,39.15 L19.1649199,39.15 C18.1483137,39.15 17.2513836,38.4176849 17.052844,37.4267918 L13.4765154,36.029672 Z M39.4188316,23.2431945 C39.6800883,23.5056391 39.6800883,23.9061256 39.4188316,24.1685703 L37.3888462,26.2077859 C37.2550486,26.3421919 37.1145896,26.404902 36.9272924,26.404902 C36.7399952,26.404902 36.5995362,26.3421919 36.4657386,26.2077859 C36.2044818,25.9453413 36.2044818,25.5448548 36.4657386,25.2824101 L38.495724,23.2431945 C38.7573557,22.9803731 39.1571998,22.9803731 39.4188316,23.2431945 Z M36.4246031,24.1175899 C34.9314502,25.617532 33.0184321,26.404902 30.8880857,26.404902 L24.2398834,26.404902 C23.8523902,26.404902 23.5823871,26.1336712 23.5823871,25.745098 C23.5823871,25.3565249 23.8523902,25.0852941 24.2398834,25.0852941 L30.9388353,25.0852941 C32.6522934,25.0852941 34.2956272,24.4040091 35.5522451,23.1922141 L39.05397,19.674567 C39.3156017,19.4117456 39.7154458,19.4117456 39.9770776,19.674567 C40.2342865,19.9329455 40.1947288,20.3303216 39.9263279,20.5999428 L36.4246031,24.1175899 Z M37.4807313,18.1451552 C37.742363,17.8823339 38.1422071,17.8823339 38.4038389,18.1451552 C38.6650956,18.4075999 38.6650956,18.8080863 38.4038389,19.070531 L35.4096104,22.0783742 C33.9164575,23.5783163 32.0034394,24.3656863 29.873093,24.3656863 L24.2398834,24.3656863 C23.8523902,24.3656863 23.5823871,24.0944555 23.5823871,23.7058824 C23.5823871,23.3173092 23.8523902,23.0460784 24.2398834,23.0460784 L29.9238426,23.0460784 C31.6247752,23.0460784 33.2191699,22.3746275 34.487588,21.1519083 L37.4807313,18.1451552 Z M35.9582422,16.6157435 C36.219874,16.3529221 36.6197181,16.3529221 36.8813498,16.6157435 C37.1426066,16.8781882 37.1426066,17.2786746 36.8813498,17.5411193 L34.3946176,20.0391585 C32.9014648,21.5391006 30.9884467,22.3264706 28.8581003,22.3264706 L26.2191192,22.3264706 C25.831626,22.3264706 25.5616229,22.0552398 25.5616229,21.6666667 C25.5616229,21.2780936 25.831626,21.0068627 26.2191192,21.0068627 L28.8581003,21.0068627 C30.603104,21.0068627 32.199443,20.3399755 33.4725953,19.1126926 L35.9582422,16.6157435 Z M21.0449053,25.745098 C21.0449053,21.991819 24.0553887,18.9676471 27.7923579,18.9676471 C28.1798512,18.9676471 28.4498543,19.2388779 28.4498543,19.627451 C28.4498543,20.0160241 28.1798512,20.2872549 27.7923579,20.2872549 C24.7796256,20.2872549 22.359898,22.7179849 22.359898,25.745098 C22.359898,26.1336712 22.0898949,26.404902 21.7024016,26.404902 C21.3149084,26.404902 21.0449053,26.1336712 21.0449053,25.745098 Z M19.0149199,25.745098 C19.0149199,20.8702504 22.9388967,16.9284314 27.7923579,16.9284314 C29.2604106,16.9284314 30.6667573,17.5101483 31.7048869,18.5529984 L31.8063862,18.6549592 C32.067643,18.9174038 32.067643,19.3178903 31.8063862,19.580335 C31.5447545,19.8431563 31.1449104,19.8431563 30.8832787,19.580335 L30.7817794,19.4783742 C29.9985854,18.691619 28.9206302,18.2480392 27.7923579,18.2480392 C23.6631336,18.2480392 20.3299126,21.5964163 20.3299126,25.745098 C20.3299126,26.1336712 20.0599095,26.404902 19.6724162,26.404902 C19.284923,26.404902 19.0149199,26.1336712 19.0149199,25.745098 Z M27.7923579,16.2088235 C22.5466416,16.2088235 18.2999271,20.4748476 18.2999271,25.745098 C18.2999271,26.1336712 18.029924,26.404902 17.6424308,26.404902 C17.2549375,26.404902 16.9849344,26.1336712 16.9849344,25.745098 C16.9849344,19.7486818 21.8224048,14.8892157 27.7923579,14.8892157 L27.9446068,14.8892157 C29.9771988,14.8892157 31.8891371,15.6792628 33.3288753,17.1255474 C33.5901321,17.3879921 33.5901321,17.7884785 33.3288753,18.0509232 C33.0672436,18.3137446 32.6673995,18.3137446 32.4057677,18.0509232 C31.2209862,16.8607545 29.6374748,16.2088235 27.9446068,16.2088235 L27.7923579,16.2088235 Z M14.954949,25.745098 C14.954949,18.6271132 20.7059128,12.85 27.7923579,12.85 C29.8968319,12.85 31.9582868,13.5180091 33.7160137,14.764402 L34.7845697,15.5311768 C35.0753768,15.7502738 35.1556781,16.153606 34.9245856,16.4416229 C34.7229103,16.7792768 34.3119136,16.8412067 33.9978651,16.5885392 L32.9306042,15.8227292 C31.4583982,14.7382025 29.6702865,14.1696078 27.7923579,14.1696078 C21.4301496,14.1696078 16.2699417,19.353279 16.2699417,25.745098 C16.2699417,26.1336712 15.9999386,26.404902 15.6124454,26.404902 C15.2249521,26.404902 14.954949,26.1336712 14.954949,25.745098 Z M15.104949,20.2872549 L14.3437045,20.2872549 C12.041467,20.2872549 10.1799854,22.1572006 10.1799854,24.4705882 L10.1799854,25.745098 C10.1799854,26.1336712 9.90998231,26.404902 9.52248907,26.404902 C9.13499583,26.404902 8.86499271,26.1336712 8.86499271,25.745098 L8.86499271,24.4705882 C8.86499271,21.4310347 11.3172302,18.9676471 14.3437045,18.9676471 L15.104949,18.9676471 C15.4924422,18.9676471 15.7624454,19.2388779 15.7624454,19.627451 C15.7624454,20.0160241 15.4924422,20.2872549 15.104949,20.2872549 Z M14.0899563,22.3264706 C13.0564597,22.3264706 12.2099709,23.1768084 12.2099709,24.2156863 L12.2099709,25.745098 C12.2099709,26.1336712 11.9399677,26.404902 11.5524745,26.404902 C11.1649813,26.404902 10.8949781,26.1336712 10.8949781,25.745098 L10.8949781,24.2156863 C10.8949781,22.4506426 12.3322229,21.0068627 14.0899563,21.0068627 C14.4774495,21.0068627 14.7474526,21.2780936 14.7474526,21.6666667 C14.7474526,22.0552398 14.4774495,22.3264706 14.0899563,22.3264706 Z M13.5824599,23.5558824 C13.9699532,23.5558824 14.2399563,23.8271132 14.2399563,24.2156863 L14.2399563,25.745098 C14.2399563,26.1336712 13.9699532,26.404902 13.5824599,26.404902 C13.1949667,26.404902 12.9249636,26.1336712 12.9249636,25.745098 L12.9249636,24.2156863 C12.9249636,23.8271132 13.1949667,23.5558824 13.5824599,23.5558824 Z M8.04594257,20.5999428 C7.78468581,20.3374981 7.78468581,19.9370117 8.04594257,19.674567 C9.79808304,17.9144596 12.1701987,16.9284314 14.6482023,16.9284314 L16.1199417,16.9284314 C16.507435,16.9284314 16.7774381,17.1996622 16.7774381,17.5882353 C16.7774381,17.9768084 16.507435,18.2480392 16.1199417,18.2480392 L14.6482023,18.2480392 C12.5285549,18.2480392 10.5302192,19.0822925 8.96905014,20.5999428 C8.83525256,20.7343488 8.69479357,20.7970588 8.50749636,20.7970588 C8.32019915,20.7970588 8.17974015,20.7343488 8.04594257,20.5999428 Z M8.04594257,18.0509232 C7.78468581,17.7884785 7.78468581,17.3879921 8.04594257,17.1255474 C9.49877521,15.6661088 11.3655463,14.8892157 13.430211,14.8892157 L17.6424308,14.8892157 C18.029924,14.8892157 18.2999271,15.1604465 18.2999271,15.5490196 C18.2999271,15.9375927 18.029924,16.2088235 17.6424308,16.2088235 L13.430211,16.2088235 C11.7373431,16.2088235 10.1538317,16.8607545 8.96905014,18.0509232 C8.83525256,18.1853291 8.69479357,18.2480392 8.50749636,18.2480392 C8.32019915,18.2480392 8.17974015,18.1853291 8.04594257,18.0509232 Z"
				id="Shape"></path>
		</g>
	</g>
</svg>
