<?xml version="1.0" encoding="UTF-8"?>
<svg width="48px" height="48px" viewBox="0 0 48 48" version="1.1" xmlns="http://www.w3.org/2000/svg"
		 xmlns:xlink="http://www.w3.org/1999/xlink">
	<!-- Generator: Sketch 43.1 (39012) - http://www.bohemiancoding.com/sketch -->
	<title>japanise</title>
	<desc>Created with Sketch.</desc>
	<defs></defs>
	<g id="UI-KIT" stroke="none" stroke-width="1" fill="none" fill-rule="evenodd">
		<g id="japanise" fill="#455A64">
			<path
				d="M42.7156129,23.7257143 L42.8656129,23.8757143 L42.8656129,30.2090476 L42.7156129,30.3590476 L38.4735484,30.3590476 L38.4735484,33.9288254 L38.3235484,34.0788254 L31.6839677,34.0788254 L31.5339677,33.9288254 L31.5339677,30.3590476 L16.3066774,30.3590476 L16.3066774,33.9288254 L16.1566774,34.0788254 L9.51709677,34.0788254 L9.36709677,33.9288254 L9.36709677,30.3590476 L5.12472581,30.3590476 L4.97472581,30.2090476 L4.97472581,23.8757143 L5.12472581,23.7257143 L7.60837097,23.7257143 L7.60837097,19.218 C7.60837097,18.9973331 7.63884915,18.7805003 7.69282586,18.6047507 C7.7794377,16.8417911 10.4835916,15.5243492 13.8874032,15.5243492 C17.2912149,15.5243492 19.9953688,16.8417911 20.0765076,18.5713173 C20.1358928,18.7814477 20.1664355,18.9981556 20.1664355,19.218 L20.1664355,23.7254127 L23.9548065,23.7254127 L23.9548065,22.1398529 C23.0528692,22.1404921 22.2831622,21.6146788 22.0127241,20.8188058 L21.2393968,18.4765508 C21.0862253,18.0273184 21.1353097,17.5329711 21.3758926,17.0912519 C21.6593335,16.570712 22.1779882,16.1793338 22.7978555,16.015244 C28.3672447,14.5342567 34.2553193,14.5341789 39.8255332,16.0151974 C40.4448898,16.1790899 40.9631287,16.5703125 41.2464608,17.0909774 C41.4874491,17.5337693 41.5361538,18.028427 41.3821817,18.4796871 L40.6094951,20.8203785 C40.3334482,21.632024 39.539667,22.1561123 38.6681452,22.1386442 L38.6681452,23.7257143 L42.7156129,23.7257143 Z M24.1401346,20.9060797 C28.8317188,19.6592435 33.7912295,19.6592435 38.4835382,20.9061085 C38.9011563,21.0174288 39.3263498,20.8085164 39.4528955,20.4394175 L40.2256065,18.1007664 C40.2762518,17.9522311 40.2506303,17.8042846 40.172926,17.6618897 C40.049881,17.4351973 39.8086551,17.2577662 39.509602,17.178571 C36.8368856,16.4682634 34.0789621,16.1093492 31.311629,16.1093492 C28.5435447,16.1093492 25.7862825,16.4681517 23.114471,17.1785987 C22.8148056,17.2580075 22.5733751,17.4353785 22.4499945,17.661947 C22.3729081,17.8038202 22.3470784,17.951337 22.3968888,18.0976228 L23.1704742,20.4406368 C23.2955633,20.8081363 23.7215569,21.0162356 24.1401346,20.9060797 Z M25.1741613,21.8923745 L25.1741613,24.6133968 C25.1741613,25.0991074 25.5768748,25.4954286 26.0728387,25.4954286 L36.5495,25.4954286 C37.0459953,25.4954286 37.4487903,25.0991869 37.4487903,24.6133968 L37.4487903,21.8923725 C33.4182413,20.9401451 29.205006,20.9401456 25.1741613,21.8923745 Z M13.8874032,16.7291111 C11.1315791,16.7291111 8.90433871,17.7206505 8.90433871,18.6902222 C8.90433871,19.659794 11.1315791,20.6513333 13.8874032,20.6513333 C16.6432274,20.6513333 18.8704677,19.659794 18.8704677,18.6902222 C18.8704677,17.7206505 16.6432274,16.7291111 13.8874032,16.7291111 Z M8.82772581,24.3449841 C8.82772581,25.0098375 9.37876186,25.552127 10.0567581,25.552127 L17.7180484,25.552127 C18.3960446,25.552127 18.9470806,25.0098375 18.9470806,24.3449841 L18.9470806,20.5474322 C17.809913,21.3650495 15.9546775,21.8560952 13.8874032,21.8560952 C11.819758,21.8560952 9.96446071,21.3651566 8.82772581,20.5475278 L8.82772581,24.3449841 Z M15.0873226,30.3590476 L10.5864516,30.3590476 L10.5864516,32.8740635 L15.0873226,32.8740635 L15.0873226,30.3590476 Z M37.2545,30.3590476 L32.753629,30.3590476 L32.753629,32.8740635 L37.2545,32.8740635 L37.2545,30.3590476 Z M41.646871,24.9304762 L38.642995,24.9304762 C38.4865206,25.9374352 37.6021313,26.7001905 36.5501129,26.7001905 L26.0731452,26.7001905 C25.0209757,26.7001905 24.1370075,25.9375683 23.9805658,24.9304762 L20.0921627,24.9304762 C19.8233353,25.9917889 18.8492006,26.7571905 17.7177419,26.7571905 L10.0564516,26.7571905 C8.92540663,26.7571905 7.95121008,25.9916295 7.68207085,24.9304762 L6.19408065,24.9304762 L6.19408065,29.1542857 L41.646871,29.1542857 L41.646871,24.9304762 Z"
				id="Shape" fill-rule="nonzero"></path>
			<rect id="Rectangle-path" x="12.6999032" y="18.0870476" width="2.375" height="1"></rect>
		</g>
	</g>
</svg>
