<?xml version="1.0" encoding="UTF-8"?>
<svg width="48px" height="48px" viewBox="0 0 48 48" version="1.1" xmlns="http://www.w3.org/2000/svg"
		 xmlns:xlink="http://www.w3.org/1999/xlink">
	<!-- Generator: Sketch 43.1 (39012) - http://www.bohemiancoding.com/sketch -->
	<title>juice-smoothie</title>
	<desc>Created with Sketch.</desc>
	<defs></defs>
	<g id="UI-KIT" stroke="none" stroke-width="1" fill="none" fill-rule="evenodd">
		<g id="juice-smoothie" fill="#455A64">
			<path
				d="M34.8759663,7.31205305 C34.67944,6.97919646 34.2863873,6.91262515 33.9588434,7.1123391 L28.25958,10.7737615 C28.1285624,10.8403329 27.9975449,10.9734755 27.9975449,11.1731894 L27.3424571,13.7028995 L21.1846322,13.7028995 C21.0536147,10.440905 18.3677549,7.77805227 15.0923161,7.77805227 C11.7513686,7.77805227 9,10.5740476 9,13.9691848 C9,17.2977506 11.620351,20.0271746 14.8957898,20.1603173 L16.861053,38.4008581 C16.9265618,38.7337147 17.1885969,39 17.5161408,39 L30.6178959,39 C30.9454398,39 31.2074749,38.7337147 31.2729836,38.4008581 L33.8933346,14.435184 C33.8933346,14.23547 33.8278259,14.0357561 33.7623171,13.9026134 C33.6312995,13.7694708 33.4347732,13.7028995 33.3037557,13.7028995 L28.8491589,13.7028995 L29.3732291,11.7723313 L34.8759663,8.24405149 C35.0069838,8.04433754 35.0724926,7.57833832 34.8759663,7.31205305 Z M14.3717196,18.7623196 C12.2754388,18.4960343 10.5722106,16.7651801 10.2446667,14.5683266 L14.1751933,14.5683266 L14.3717196,16.2991809 L14.3717196,18.7623196 L14.3717196,18.7623196 Z M14.3717196,13.2369003 L10.3101755,13.2369003 C10.5722106,11.1066181 12.2754388,9.37576388 14.4372284,9.04290729 L14.4372284,13.2369003 L14.3717196,13.2369003 Z M15.6818951,9.10947861 C17.7781759,9.37576388 19.4814041,11.1066181 19.8089479,13.3034716 L15.6818951,13.3034716 C15.6818951,13.3034716 15.6818951,9.10947861 15.6818951,9.10947861 Z M16.2059653,20.7594591 L15.7474039,16.2991809 L15.7474039,14.9677545 L27.0149132,14.9677545 L25.5082114,20.6928878 L16.2059653,20.7594591 C16.2059653,20.6928878 16.2059653,20.7594591 16.2059653,20.7594591 Z M29.9628081,37.6020023 L18.040211,37.6020023 L16.3369828,22.0243141 L31.6660363,22.0243141 L29.9628081,37.6020023 Z M32.4521416,14.9677545 L31.7970538,20.7594591 C31.7970538,20.7594591 31.7970538,20.7594591 31.7315451,20.7594591 L26.8183869,20.7594591 L28.3250887,15.0343258 L32.4521416,15.0343258 L32.4521416,14.9677545 Z M20.8570883,28.7480172 C19.4814041,28.7480172 18.4332637,27.6163048 18.4332637,26.2848784 C18.4332637,24.9534521 19.5469128,23.8217397 20.8570883,23.8217397 C22.1672639,23.8217397 23.280913,24.9534521 23.280913,26.2848784 C23.280913,27.6163048 22.1672639,28.7480172 20.8570883,28.7480172 Z M20.8570883,25.153166 C20.2020006,25.153166 19.7434392,25.6857366 19.7434392,26.2848784 C19.7434392,26.8840203 20.2675094,27.4165908 20.8570883,27.4165908 C21.4466673,27.4165908 21.9707375,26.8840203 21.9707375,26.2848784 C21.9707375,25.6857366 21.4466673,25.153166 20.8570883,25.153166 Z M27.3424571,31.6105838 C25.9667728,31.6105838 24.9186324,30.4788714 24.9186324,29.1474451 C24.9186324,27.8160187 26.0322816,26.6843063 27.3424571,26.6843063 C28.6526326,26.6843063 29.7662818,27.8160187 29.7662818,29.1474451 C29.7662818,30.4788714 28.6526326,31.6105838 27.3424571,31.6105838 Z M27.3424571,28.0157327 C26.6873694,28.0157327 26.2288079,28.5483032 26.2288079,29.1474451 C26.2288079,29.7465869 26.7528781,30.2791575 27.3424571,30.2791575 C27.9320361,30.2791575 28.4561063,29.7465869 28.4561063,29.1474451 C28.4561063,28.5483032 27.9320361,28.0157327 27.3424571,28.0157327 Z M19.5469128,33.9405799 C19.5469128,32.5425822 20.660562,31.4774412 21.9707375,31.4774412 C23.280913,31.4774412 24.3945622,32.6091536 24.3945622,33.9405799 C24.3945622,35.2720062 23.280913,36.4037186 21.9707375,36.4037186 C20.660562,36.4037186 19.5469128,35.2720062 19.5469128,33.9405799 Z M23.0843867,33.9405799 C23.0843867,33.2748667 22.5603165,32.8088675 21.9707375,32.8088675 C21.3811585,32.8088675 20.8570883,33.341438 20.8570883,33.9405799 C20.8570883,34.5397218 21.3811585,35.0722923 21.9707375,35.0722923 C22.5603165,35.0722923 23.0843867,34.5397218 23.0843867,33.9405799 Z"
				id="Combined-Shape"></path>
		</g>
	</g>
</svg>
