<?xml version="1.0" encoding="UTF-8"?>
<svg width="48px" height="48px" viewBox="0 0 48 48" version="1.1" xmlns="http://www.w3.org/2000/svg"
		 xmlns:xlink="http://www.w3.org/1999/xlink">
	<!-- Generator: Sketch 43.1 (39012) - http://www.bohemiancoding.com/sketch -->
	<title>korean-green</title>
	<desc>Created with Sketch.</desc>
	<defs></defs>
	<g id="UI-KIT" stroke="none" stroke-width="1" fill="none" fill-rule="evenodd">
		<g id="korean-green" fill-rule="nonzero" fill="#39CE7B">
			<path
				d="M14.5619664,32.2974366 C14.6316012,32.372297 14.7072929,32.445473 14.796179,32.5249496 C14.8199714,32.5460188 14.8199714,32.5460188 14.8470427,32.5625439 C14.8727541,32.5787083 14.8727541,32.5787083 14.896828,32.5942482 C14.9359014,32.6194531 14.9359014,32.6194531 14.9709884,32.6405652 C15.0303962,32.6753588 15.0837956,32.7022244 15.1955951,32.7552937 C15.2392287,32.7694592 15.2392287,32.7694592 15.2680493,32.7796622 C15.2957419,32.7894622 15.2957419,32.7894622 15.31753,32.796433 C15.3735717,32.8139529 15.4307122,32.8293526 15.4889338,32.8426362 C15.5126913,32.8474777 15.5126913,32.8474777 15.5454946,32.8524834 C15.5873164,32.8588924 15.5873164,32.8588924 15.5832504,32.8630475 C15.6104247,32.8587857 15.6116704,32.858562 15.6266814,32.8558666 C15.6449605,32.8530311 15.6449605,32.8530311 15.6547953,32.8522484 C15.6986906,32.8448481 15.7183669,32.8404209 15.7416981,32.8342934 C16.0039211,32.7641596 16.1408957,32.5924366 16.1986152,32.2421157 C16.2623399,31.8536916 16.736253,31.6094792 17.1176322,31.7163316 C17.5099135,31.8259213 17.7071376,32.1937855 17.6401012,32.5995505 C17.4185811,33.9460233 16.0173903,34.6311189 14.7225594,34.1357054 C13.460478,33.6530798 12.7220694,32.4957983 12.6256064,31.0447999 C12.5555449,29.9962077 12.7772168,28.8902183 13.249576,27.5586791 C13.2843217,27.4607211 13.2843217,27.4607211 13.3190823,27.3628303 C13.3470058,27.2841992 13.3470058,27.2841992 13.3749039,27.2056005 C13.957806,25.5629011 14.2184701,24.7184329 14.4082367,23.7125909 C14.4900418,23.2777669 14.5366544,22.8814221 14.5464066,22.5000083 C14.5506827,22.3214773 14.5472636,22.158238 14.5349449,22.0027437 C14.5328889,21.9816655 14.5328889,21.9816655 14.5278158,21.9351106 C14.5227167,21.8883905 14.5227167,21.8883905 14.5212734,21.8694595 C14.5093035,21.7951651 14.5011212,21.7498808 14.4906068,21.7032918 C14.4682308,21.6024443 14.4371131,21.499498 14.3955316,21.3823949 C14.376553,21.3478105 14.376553,21.3478105 14.3652373,21.3278001 C14.3423798,21.2873367 14.3423798,21.2873367 14.3197794,21.2464355 C14.316332,21.2409751 14.316332,21.2409751 14.3010312,21.2199908 C14.2733909,21.1843711 14.2719916,21.1825776 14.2548373,21.1597747 C14.2393876,21.1458955 14.2393876,21.1458955 14.224617,21.1325485 C14.1979834,21.1081834 14.1979834,21.1081834 14.2037365,21.1064656 C14.1614224,21.0830845 14.1614224,21.0830845 14.1175376,21.0594118 C14.1100026,21.055337 14.1063066,21.0533382 14.1025173,21.0512824 C14.093971,21.0481574 14.0930005,21.0477738 14.0830884,21.0438559 C14.0583829,21.0339716 14.0583829,21.0339716 14.0293703,21.0226648 C14.0213216,21.0196054 14.0213216,21.0196054 14.0133946,21.0166701 C13.9970821,21.0107818 13.9970821,21.0107818 13.9846169,21.0066928 C13.9774005,21.0044951 13.9722257,21.0034416 13.9472711,20.9990891 C13.9153453,20.996264 13.9153453,20.996264 13.8864784,20.9944383 C13.846829,20.9920625 13.846829,20.9920625 13.8213182,20.9916 C13.7984996,20.9922103 13.7984996,20.9922103 13.7671715,20.9947091 C13.7319201,20.9976103 13.7319201,20.9976103 13.7170651,20.9961076 C13.6803429,21.003174 13.6803429,21.003174 13.661358,21.0080306 C13.2390464,21.1264351 12.8763837,20.8898772 12.766851,20.4986951 C12.6574303,20.1079127 12.8438884,19.7170811 13.2645386,19.5991729 C13.8278302,19.4411888 14.4966918,19.5412832 14.9766724,19.858469 C15.8910134,20.4628939 16.1504307,21.6009521 15.9942673,23.0836975 C15.884912,24.1229221 15.6300412,25.1837006 15.2169051,26.4439111 C15.1478464,26.6546477 15.0731422,26.8692383 14.9710462,27.1533115 C14.9219944,27.2894691 14.9219944,27.2894691 14.8727919,27.425442 C14.3756005,28.7996738 14.1924235,29.4337085 14.1233627,30.2403915 C14.088674,30.6456886 14.0955999,31.0555515 14.148673,31.3339542 C14.1815731,31.5068144 14.2279634,31.6739278 14.2876709,31.8333541 C14.2949536,31.8529532 14.2974403,31.8596454 14.3003242,31.869562 C14.304788,31.8760013 14.3140554,31.8956261 14.3294134,31.9281488 C14.3657686,31.9987756 14.3936319,32.0499226 14.4224514,32.0977631 C14.455297,32.1518712 14.4926446,32.2073854 14.5327083,32.2630215 C14.5393834,32.2729154 14.5471423,32.2813402 14.5619664,32.2974366 Z M19.3650573,34.8715421 C18.0990249,36.1883538 16.2196897,36.8453253 14.5544268,36.4585105 C12.4728389,35.9750236 10.7730221,34.3374748 10.1670436,32.2824585 C10.0438798,31.8651333 10.2869301,31.5083685 10.6857623,31.401602 C11.081688,31.2956136 11.4785214,31.4762587 11.6002359,31.8887644 C12.0611726,33.4515085 13.3447566,34.6751839 14.9382081,35.0463103 C16.0397329,35.30287 17.3973589,34.7905513 18.308869,33.8424873 C18.6110366,33.527921 19.0427063,33.5543921 19.3349964,33.840814 C19.6263848,34.1263522 19.6657107,34.5587226 19.3650573,34.8715421 Z M20.164,35.4924 C20.1625825,35.0604496 20.4942501,34.7813419 20.9061326,34.78155 C21.3175705,34.7817579 21.6502364,35.0605343 21.651181,35.491895 C21.6528681,35.9929808 21.4998117,36.5358167 21.237027,36.98958 C20.8055133,37.7345962 20.061128,38.1695049 19.0968655,38.3151164 C18.9608887,38.3356628 18.8187068,38.3437926 18.6554122,38.3427566 C18.5544706,38.3421162 18.472754,38.3390748 18.2972811,38.3306895 C17.4994752,38.2925648 17.1994107,38.3572434 16.8898085,38.7489654 C16.4236525,39.3392366 16.6346044,40.2297306 17.3188992,40.5635622 C18.013888,40.9022869 18.8409675,40.5184169 19.062084,39.780547 C19.1855645,39.3684333 19.5830252,39.1884731 19.9787997,39.2947854 C20.3776434,39.4019221 20.6198548,39.7588955 20.4949051,40.1754893 C20.0844277,41.5441933 18.7029531,42.375008 17.2859168,42.0869987 C16.0562935,41.8372581 15.1385586,40.7097483 15.1477315,39.4728724 C15.1569316,38.2490417 16.0569464,37.1435124 17.2682257,36.8899908 C17.5309915,36.8349095 17.7600161,36.831259 18.2292862,36.854006 L18.2556406,36.8552867 C19.1446494,36.8985416 19.4931141,36.8320634 19.8280405,36.4363051 C19.9855475,36.2501721 20.0613293,36.0772775 20.1296034,35.7731163 C20.1394901,35.7291147 20.1481162,35.6824619 20.1567774,35.6298635 C20.1578008,35.619276 20.1578008,35.619276 20.1588856,35.6017836 C20.1598279,35.5846777 20.1598279,35.5846777 20.1608159,35.5684725 C20.1616186,35.5553076 20.1616186,35.5553076 20.1623349,35.542752 C20.1636734,35.5161884 20.1636734,35.5161884 20.164,35.4924 Z M29.6951406,25.7611926 C30.0604174,26.88393 30.4070136,27.9679725 30.7388006,29.0266889 C30.8853851,29.4901334 30.8975873,29.5392131 30.8804482,29.7275096 C30.8655542,29.8911419 30.7998299,30.0437635 30.6755847,30.1956183 C30.624428,30.2578879 30.582784,30.3067097 30.4888471,30.4154785 C29.7147692,31.3090568 28.8387578,32.1741186 27.860169,33.0225358 C27.1336484,33.6522698 26.3793836,34.241165 25.6010594,34.7853839 C25.1519497,35.0989894 24.6985465,35.3922258 24.2406133,35.6645319 C24.2085263,35.6836098 24.1779455,35.7026563 24.11078,35.7448675 C23.8539647,35.9054066 23.700973,35.972 23.5004091,35.972 C23.2998452,35.972 23.1468535,35.9054066 22.8900382,35.7448675 C22.8228726,35.7026563 22.7922918,35.6836098 22.7602501,35.6645588 C21.198689,34.7368465 19.6980798,33.5834221 18.2662774,32.2331361 C17.4689259,31.4813138 16.8576971,30.847164 16.3246337,30.1961857 C16.2063537,30.0516212 16.1416062,29.9038855 16.1239605,29.7456152 C16.102299,29.5513266 16.1214636,29.4705704 16.2547014,29.049426 C16.4226606,28.5139555 16.5896495,27.9867638 16.7646088,27.4391699 C17.0880637,26.426266 17.4266671,25.3840839 17.78573,24.2950162 C18.2984162,22.7405862 18.7813083,21.301424 19.2537978,19.9230436 C18.7598842,20.3142821 18.227467,20.7141745 17.6242084,21.1503209 C17.3605949,21.3410785 17.010009,21.2722723 16.7258503,21.0576821 C15.763512,20.3306146 15.136275,19.1998517 14.6326241,17.5993609 C14.3877146,16.8198543 14.2137604,16.0324448 14.1175552,15.2541072 C14.0864816,15.0041822 14.2470293,14.7575805 14.4794255,14.6078273 C15.5312214,13.9315989 16.5464503,13.1520134 17.5366214,12.2680882 C19.669292,10.3647301 21.4838958,8.31216791 22.8540755,6.18976551 C23.0074157,5.9525656 23.2478206,5.83670667 23.4938123,5.85140419 C23.7550575,5.83775891 23.9939904,5.95356759 24.1463692,6.1898206 C24.2743761,6.38802281 24.4075999,6.57994517 24.6119261,6.86462707 C26.8958918,10.0518268 29.5740206,12.7134111 32.5215229,14.6079111 C32.7536281,14.7574769 32.914358,15.0045004 32.8832774,15.2539913 C32.787098,16.0325165 32.6132167,16.8194943 32.3682008,17.5993396 C31.8663793,19.1973881 31.2377768,20.330259 30.2748781,21.0577498 C29.9870313,21.2748854 29.6427633,21.3428328 29.3766387,21.1503418 C28.7704103,20.7118788 28.2402314,20.3137835 27.7494114,19.9249992 C28.3773787,21.7548159 29.0155482,23.6712122 29.6951406,25.7611926 Z M33.0927727,20.9932 C33.0744565,20.9944325 33.0725737,20.9946163 33.0701955,20.9948684 C33.0400477,21.0048166 33.0082352,21.0137502 32.9650314,21.0249122 C32.94589,21.0298293 32.94589,21.0298293 32.9274298,21.0345412 C32.918486,21.0368372 32.9134753,21.0381235 32.9113266,21.0384186 C32.8817937,21.0571564 32.8490627,21.0754419 32.81943,21.0902748 C32.8049252,21.1040841 32.7996215,21.1088865 32.7772566,21.1291375 C32.7608561,21.1438493 32.7608561,21.1438493 32.7465078,21.1566448 C32.7407078,21.1619538 32.7193609,21.1886093 32.702619,21.2117998 C32.6901448,21.2274033 32.685291,21.2351187 32.6795789,21.2457168 C32.666269,21.269822 32.666269,21.269822 32.6526658,21.2943476 C32.6319853,21.3314084 32.6319853,21.3314084 32.609844,21.3700238 C32.5621913,21.4983028 32.5285077,21.6124093 32.504105,21.7255563 C32.4957317,21.7634601 32.4901317,21.7953066 32.4799087,21.8545713 C32.4769258,21.8872219 32.4769258,21.8872219 32.4716713,21.9349642 C32.4667909,21.9797789 32.4667909,21.9797789 32.4646284,22.0025698 C32.4069832,22.7349654 32.510521,23.479799 32.7691121,24.520601 C32.9142499,25.1042429 33.059638,25.5433224 33.4571045,26.6581226 C34.3306637,29.1082506 34.576014,30.2724814 34.2834382,31.7310798 C34.0440506,32.9253826 33.2006197,33.8769457 32.0450803,34.2151633 C30.8255805,34.5720064 29.5632066,33.8349757 29.3595061,32.59925 C29.2920464,32.1909228 29.4868889,31.8243542 29.8826864,31.7157303 C30.2659136,31.6107466 30.7372409,31.8537329 30.8009506,32.241563 C30.8649563,32.6291966 30.981798,32.7474504 31.3598767,32.8579245 C31.3775554,32.863157 31.3775554,32.863157 31.2994722,32.8677838 C31.3477737,32.858407 31.3477737,32.858407 31.3703453,32.8597193 C31.3875655,32.8607232 31.3875655,32.8607232 31.3994915,32.8618516 C31.4234399,32.8618852 31.4234399,32.8618852 31.4477616,32.8563067 C31.4675079,32.851733 31.4675079,32.851733 31.4869516,32.8472759 C31.5682753,32.8286109 31.6056556,32.8193475 31.6453244,32.8076647 C31.6584816,32.8038052 31.6744649,32.7981797 31.7256268,32.7794881 C31.7714473,32.7624621 31.7714473,32.7624621 31.8057917,32.7498074 C31.8206103,32.7444565 31.8206103,32.7444565 31.834249,32.7399362 C31.9222198,32.6991054 31.9845724,32.667059 32.0432723,32.6318821 C32.0755734,32.6126689 32.1058985,32.5931446 32.156741,32.5593114 C32.1685,32.5514808 32.1685,32.5514808 32.1783403,32.5449493 C32.186934,32.5394699 32.186934,32.5394699 32.2028764,32.5254188 C32.2866406,32.4516675 32.363906,32.3766871 32.4375059,32.2975643 C32.465361,32.2679929 32.465361,32.2679929 32.4877199,32.2341438 C32.540686,32.1555874 32.5633399,32.1208977 32.5887068,32.0780295 C32.6198195,32.0250607 32.6498699,31.9687206 32.6798698,31.9076859 C32.6881353,31.8905327 32.6936982,31.8791174 32.6986157,31.8697389 C32.7030277,31.8570826 32.7098973,31.8383189 32.7202127,31.8092065 C32.9528241,31.1511867 32.9522571,30.4112778 32.7626657,29.5022544 C32.6245066,28.8404726 32.4569389,28.3144854 32.0479898,27.1697691 C31.7484516,26.3313288 31.6236945,25.9626797 31.4912623,25.4948565 C31.1569876,24.3140079 30.98221,23.3815207 30.9652534,22.4736009 C30.9417863,21.1939805 31.3192643,20.1808441 32.2257486,19.7429142 C32.6860845,19.5207098 33.250943,19.4641441 33.733331,19.5991491 C34.1545947,19.717032 34.3409604,20.1077234 34.2310586,20.4985551 C34.1211534,20.889399 33.7584234,21.126038 33.3357361,21.0077866 C33.3197615,21.0037995 33.3197615,21.0037995 33.2928622,20.9991253 C33.2769969,20.9964389 33.2738586,20.9959077 33.2638248,20.9939994 C33.1771889,20.9930003 33.1454742,20.992833 33.0927727,20.9932 Z M35.3997628,31.888769 C35.5216647,31.4757354 35.918409,31.2952061 36.3143686,31.4015871 C36.7128928,31.5086571 36.9559503,31.8654327 36.832958,32.2820531 C36.2264869,34.3372923 34.5269667,35.9746688 32.4456005,36.4581042 C30.7799947,36.8452998 28.900598,36.1884228 27.6349833,34.8715843 C27.3341018,34.558772 27.3733747,34.1264484 27.6648762,33.8409384 C27.9571961,33.5546268 28.3889165,33.5281025 28.6911057,33.842461 C29.6020145,34.7902846 30.9593787,35.301995 32.061934,35.0462772 C33.6543208,34.6770206 34.9388198,33.4517175 35.3997628,31.888769 Z M30.1801707,37.0336475 C31.3498634,37.5139423 32.020978,38.7334716 31.8050277,39.9662545 C31.5920203,41.1835655 30.4788131,42.1050544 29.2045836,42.1483123 C27.9689158,42.1905892 26.8611641,41.3624261 26.5050988,40.1755022 C26.3799612,39.7583769 26.6221097,39.40143 27.0211713,39.294602 C27.4168777,39.1886723 27.8144032,39.3687855 27.9378991,39.7804909 C28.1921967,40.6280006 29.2354462,40.9701177 29.9265252,40.406549 C30.5162203,39.9257021 30.4994721,38.9988674 29.8929021,38.5378112 C29.6101171,38.3228301 29.2628683,38.2516204 28.8653684,38.3134184 C28.4262476,38.3817082 27.9961213,38.3551805 27.4986488,38.243138 C26.2381719,37.9593928 25.3444347,36.7909683 25.3484099,35.491908 C25.3498268,35.0598972 25.68269,34.7812614 26.0943005,34.7814 C26.5061415,34.7815387 26.837827,35.0607972 26.8364091,35.4924 C26.8364091,35.5177618 26.8375872,35.5374884 26.8417517,35.5901535 C26.8439758,35.6179859 26.8439758,35.6179859 26.8461019,35.6506688 C26.8448599,35.6507403 26.8448599,35.6507403 26.8499089,35.6724066 C26.857097,35.7031927 26.857097,35.7031927 26.8636832,35.7330651 C26.8666902,35.7468431 26.8666902,35.7468431 26.8696324,35.7604114 C26.8847777,35.8302483 26.8919835,35.8610904 26.9023326,35.8975577 C26.9892543,36.2047301 27.113803,36.4205085 27.3237069,36.5879991 C27.5995305,36.8083175 28.0727842,36.9304715 28.4746617,36.8976934 C28.5060146,36.8951321 28.5060146,36.8951321 28.5371911,36.8925513 C29.02383,36.8521923 29.1850482,36.8441845 29.4276299,36.8607387 C29.6912645,36.8787296 29.9343128,36.9326678 30.1801707,37.0336475 Z"
				id="Combined-Shape"></path>
		</g>
	</g>
</svg>
