<?xml version="1.0" encoding="UTF-8"?>
<svg width="48px" height="48px" viewBox="0 0 48 48" version="1.1" xmlns="http://www.w3.org/2000/svg"
		 xmlns:xlink="http://www.w3.org/1999/xlink">
	<!-- Generator: Sketch 43.1 (39012) - http://www.bohemiancoding.com/sketch -->
	<title>latinamerican</title>
	<desc>Created with Sketch.</desc>
	<defs></defs>
	<g id="UI-KIT" stroke="none" stroke-width="1" fill="none" fill-rule="evenodd">
		<g id="latinamerican" fill-rule="nonzero" fill="#455A64">
			<path
				d="M28.3236333,8.35051714 C29.0331411,8.54291246 29.5909287,9.07338623 29.7771628,9.78609019 L34.054488,26.1610123 C34.2296126,26.8301146 34.0469856,27.5431577 33.5708591,28.0473169 C33.0599091,28.5892324 32.2861493,28.8116385 31.559185,28.6269286 L22.732524,26.3860741 C22.4682839,26.3188005 22.2615638,26.1146751 22.1931468,25.8527642 L20.7681549,20.3944251 C20.6545981,19.9598357 20.159215,19.8264616 19.8372862,20.1439683 L15.6909862,24.2274899 C15.4943669,24.4203855 15.2065194,24.4903218 14.985939,24.4161926 C13.4251382,24.0255771 12.8903928,22.1026823 13.9947266,21.0158732 L26.3369079,8.85611607 C26.8173501,8.38272234 27.4838316,8.1947529 28.1344975,8.31050101 L28.3236333,8.35051714 Z M27.9379854,9.75623871 C27.7523759,9.70575873 27.5516089,9.75920078 27.3958961,9.91272941 L15.0513258,22.0725301 C14.8423854,22.2781956 14.8640601,22.5464346 15.0750553,22.7503243 L18.7806147,19.0996027 C19.883724,18.0116518 21.8284751,18.5388919 22.2185694,20.0318768 L23.5344572,25.0665506 L31.9330265,27.1975494 C32.1288291,27.2472807 32.3314701,27.189036 32.4380276,27.0948672 C32.4409105,27.0874092 32.4409105,27.0874092 32.4737852,27.0335732 C32.6008651,26.8990819 32.6484568,26.7140682 32.601744,26.5355691 L28.3244053,10.1605954 C28.2761573,9.97598576 28.1583235,9.83946556 28.005159,9.77450782 L27.9379854,9.75623871 Z"
				id="Shape"></path>
			<path
				d="M20.7650747,18.5913567 C21.4744282,18.7837678 22.0324033,19.3143868 22.2185676,20.0269198 L26.4959095,36.4019058 C26.8788496,37.8676448 25.4858274,39.2413396 24.0029715,38.865279 L7.38109412,34.6500488 C5.86926209,34.266628 5.33144648,32.3403295 6.43613287,31.2519621 L18.7783271,19.0921923 C19.3051236,18.5732488 20.0558965,18.3988585 20.7650747,18.5913567 Z M19.8373042,20.1462009 L7.4951173,32.3059637 C7.17518814,32.6211652 7.30984635,33.0982402 7.75484672,33.2110484 L24.3743515,37.4263898 C24.8102456,37.5368646 25.156194,37.1977355 25.0455002,36.7740478 L20.7658083,20.3990416 C20.7107427,20.1882681 20.5648495,20.0400567 20.3793741,19.9895988 C20.1939776,19.9391624 19.9931037,19.9927067 19.8373042,20.1462009 Z"
				id="Shape"></path>
			<path
				d="M36.3533202,19.0566505 C37.0635517,19.2491076 37.6207466,19.7776553 37.806851,20.4898583 L42.0842231,36.8673307 C42.2583117,37.5359531 42.0758783,38.2477731 41.6005327,38.7510925 C41.0895633,39.2929024 40.3157996,39.515274 39.5889289,39.3305879 L25.1582963,35.6731831 C24.8940172,35.6058837 24.6872882,35.4016927 24.6189326,35.1397773 L23.4846606,30.7975348 C23.4170478,30.5415466 23.4921097,30.269389 23.6814814,30.0829788 L27.4055812,26.4163694 C27.5925494,26.2318797 27.8636136,26.1583443 28.1197091,26.2226086 L31.9330846,27.1903364 C32.3686174,27.3011645 32.7133104,26.9607888 32.6017341,26.5355312 L31.6221669,22.7814403 C31.5544965,22.525406 31.6295626,22.2531764 31.8189612,22.0667617 L34.3665951,19.5575087 C34.8932283,19.0386016 35.6438732,18.8642717 36.3533202,19.0566505 Z M39.9603702,37.8893438 C40.1590229,37.9398098 40.3660267,37.8805861 40.5034728,37.7348469 C40.6305468,37.6003628 40.6781427,37.4153588 40.6314324,37.2369617 L36.3540939,20.8619886 C36.2992176,20.6520208 36.1541396,20.5056202 35.9676656,20.4549054 C35.7787585,20.4020348 35.577262,20.4549049 35.4232652,20.6067416 L33.1811004,22.8167016 L34.0544639,26.1609265 C34.4393566,27.6279529 33.0432094,29.0047654 31.5591572,28.6268035 L28.1606346,27.7633563 L25.0436282,30.8329633 L25.9602227,34.3393051 L39.9603702,37.8893438 Z"
				id="Shape"></path>
			<path
				d="M20.5328319,27.2788626 C20.5927882,27.6504555 20.3626487,28.0072526 19.9996493,28.1096848 L14.0162362,29.8827869 C13.7598709,29.9591068 13.4817571,29.8945491 13.2863549,29.7131541 C13.0903526,29.531202 13.0073804,29.2593299 13.0690449,29.0001993 C13.1306238,28.741428 13.3269677,28.5351129 13.583944,28.4586115 L19.5664458,26.6857841 C19.6309267,26.6661416 19.6977861,26.6552032 19.7652145,26.6532621 C20.1437054,26.6406554 20.4730392,26.9082837 20.5328319,27.2788626 Z"
				id="Shape"></path>
			<path
				d="M21.1328319,30.2418256 C21.1927882,30.6134185 20.9626487,30.9702156 20.5996493,31.0726478 L14.616236,32.8457499 C14.2197658,32.9637786 13.801085,32.7418127 13.6811328,32.3487696 C13.560944,31.9549511 13.786529,31.5398847 14.183944,31.4215744 L20.1664458,29.648747 C20.2309267,29.6291045 20.2977861,29.6181662 20.3652145,29.6162251 C20.7437054,29.6036183 21.0730392,29.8712466 21.1328319,30.2418256 Z"
				id="Shape"></path>
			<path
				d="M28.2,19.5374667 C29.2694325,19.5374667 30.15,20.407165 30.15,21.4652444 C30.15,22.5233239 29.2694325,23.3930222 28.2,23.3930222 C27.1305675,23.3930222 26.25,22.5233239 26.25,21.4652444 C26.25,20.407165 27.1305675,19.5374667 28.2,19.5374667 Z M28.2,21.0226519 C27.9439806,21.0226519 27.75,21.214255 27.75,21.4652444 C27.75,21.7163064 27.9439342,21.907837 28.2,21.907837 C28.4560658,21.907837 28.65,21.7163064 28.65,21.4652444 C28.65,21.214255 28.4560194,21.0226519 28.2,21.0226519 Z"
				id="Shape"></path>
			<path
				d="M25.21875,15.9819111 C26.2881825,15.9819111 27.16875,16.8516094 27.16875,17.9096889 C27.16875,18.9677684 26.2881825,19.8374667 25.21875,19.8374667 C24.1493175,19.8374667 23.26875,18.9677684 23.26875,17.9096889 C23.26875,16.8516094 24.1493175,15.9819111 25.21875,15.9819111 Z M25.21875,17.4670963 C24.9627306,17.4670963 24.76875,17.6586994 24.76875,17.9096889 C24.76875,18.1607508 24.9626842,18.3522815 25.21875,18.3522815 C25.4748158,18.3522815 25.66875,18.1607508 25.66875,17.9096889 C25.66875,17.6586994 25.4747694,17.4670963 25.21875,17.4670963 Z"
				id="Shape"></path>
			<path
				d="M31.748134,33.8397292 C32.1434927,33.9543053 32.4949703,34.1902914 32.7482306,34.5169227 C33.2637919,35.1819172 33.2831077,36.1053597 32.8011907,36.7858749 C32.6544885,37.0191248 32.3898283,37.1529595 32.1132569,37.1342098 C31.8365686,37.1154521 31.5926937,36.9470097 31.4795358,36.695926 C31.3661115,36.4442515 31.4027872,36.1511382 31.5697607,35.9410595 C31.6825091,35.781806 31.6775427,35.5757824 31.5568894,35.4201706 C31.4368139,35.2640804 31.2346752,35.2058675 31.0464208,35.2732756 C30.8592157,35.3399504 30.742193,35.5106581 30.7493749,35.697016 C30.7744233,35.9705194 30.6450061,36.2351877 30.4132011,36.385437 C30.182057,36.535258 29.8864572,36.5471344 29.6438248,36.4163885 C29.4005579,36.2853008 29.2498774,36.0320157 29.2524617,35.7647659 C29.2191792,34.9265305 29.7413704,34.1583658 30.5381649,33.8743827 C30.9298272,33.7355477 31.3532799,33.7249085 31.748134,33.8397292 Z"
				id="Shape"></path>
			<path
				d="M38.9658362,28.5110456 C39.3756167,28.634221 39.7353163,28.8863005 39.985047,29.2316348 C40.1302047,29.4260936 40.1706852,29.6784042 40.0934285,29.9078941 C40.0548393,30.0225227 39.989311,30.1242332 39.9042464,30.2059752 C40.0033471,30.2691874 40.0874329,30.3555286 40.1479862,30.4596237 C40.2695291,30.6685639 40.2810652,30.9229427 40.1796536,31.1401849 C39.8200069,31.935818 38.9589224,32.3971936 38.0904593,32.2589461 C37.2212157,32.1204393 36.5484214,31.4143212 36.460146,30.5472244 C36.371846,29.6800267 36.8879887,28.8579213 37.7126996,28.5511476 C38.0544395,28.4244478 38.4211374,28.3958934 38.7726564,28.4638299 L38.9658362,28.5110456 Z M38.7656383,30.0990775 C38.6457266,29.9320048 38.4359252,29.8688693 38.241507,29.9414222 C38.04732,30.0137059 37.9310707,30.1978125 37.9515721,30.3991472 C37.9721626,30.6013833 38.1230725,30.7595763 38.3274563,30.791712 C38.5329512,30.8243797 38.7279091,30.7209466 38.8107595,30.5376762 C38.8501273,30.4466418 38.9069097,30.3655374 38.9768217,30.2980938 C38.8948347,30.2466621 38.8227979,30.1793962 38.7656383,30.0990775 Z"
				id="Shape"></path>
		</g>
	</g>
</svg>
