<?xml version="1.0" encoding="UTF-8"?>
<svg width="48px" height="48px" viewBox="0 0 48 48" version="1.1" xmlns="http://www.w3.org/2000/svg"
		 xmlns:xlink="http://www.w3.org/1999/xlink">
	<!-- Generator: Sketch 43.1 (39012) - http://www.bohemiancoding.com/sketch -->
	<title>latinamerican-green</title>
	<desc>Created with Sketch.</desc>
	<defs></defs>
	<g id="UI-KIT" stroke="none" stroke-width="1" fill="none" fill-rule="evenodd">
		<g id="latinamerican-green" fill-rule="nonzero" fill="#39CE7B">
			<path
				d="M26.4720896,27.3354503 L23.9611293,26.6979843 L24.6072433,29.1715083 L26.4720896,27.3354503 Z M32.7464099,21.1532853 L34.3665951,19.5575087 C34.8932283,19.0386016 35.6438732,18.8642717 36.3533202,19.0566505 C37.0635517,19.2491076 37.6207466,19.7776553 37.806851,20.4898583 L42.0842231,36.8673307 C42.2583117,37.5359531 42.0758783,38.2477731 41.6005327,38.7510925 C41.0895633,39.2929024 40.3157996,39.515274 39.5889289,39.3305879 L26.386896,35.9845683 L26.4959095,36.4019058 C26.8788496,37.8676448 25.4858274,39.2413396 24.0029715,38.865279 L7.38109412,34.6500488 C5.86926209,34.266628 5.33144648,32.3403295 6.43613287,31.2519621 L13.9726258,23.8268627 C13.2568241,23.0651 13.1830598,21.8146597 13.9947266,21.0158732 L26.3369079,8.85611607 C26.8173501,8.38272234 27.4838316,8.1947529 28.1344975,8.31050101 L28.3236333,8.35051714 C29.0331411,8.54291246 29.5909287,9.07338623 29.7771628,9.78609019 L32.7464099,21.1532853 Z M20.5328319,27.2788626 C20.4730392,26.9082837 20.1437054,26.6406554 19.7652145,26.6532621 C19.6977861,26.6552032 19.6309267,26.6661416 19.5664458,26.6857841 L13.583944,28.4586115 C13.3269677,28.5351129 13.1306238,28.741428 13.0690449,29.0001993 C13.0073804,29.2593299 13.0903526,29.531202 13.2863549,29.7131541 C13.4817571,29.8945491 13.7598709,29.9591068 14.0162362,29.8827869 L19.9996493,28.1096848 C20.3626487,28.0072526 20.5927882,27.6504555 20.5328319,27.2788626 Z M21.1328319,30.2418256 C21.0730392,29.8712466 20.7437054,29.6036183 20.3652145,29.6162251 C20.2977861,29.6181662 20.2309267,29.6291045 20.1664458,29.648747 L14.183944,31.4215744 C13.786529,31.5398847 13.560944,31.9549511 13.6811328,32.3487696 C13.801085,32.7418127 14.2197658,32.9637786 14.616236,32.8457499 L20.5996493,31.0726478 C20.9626487,30.9702156 21.1927882,30.6134185 21.1328319,30.2418256 Z M28.2,19.5374667 C27.1305675,19.5374667 26.25,20.407165 26.25,21.4652444 C26.25,22.5233239 27.1305675,23.3930222 28.2,23.3930222 C29.2694325,23.3930222 30.15,22.5233239 30.15,21.4652444 C30.15,20.407165 29.2694325,19.5374667 28.2,19.5374667 Z M28.2,21.0226519 C28.4560194,21.0226519 28.65,21.214255 28.65,21.4652444 C28.65,21.7163064 28.4560658,21.907837 28.2,21.907837 C27.9439342,21.907837 27.75,21.7163064 27.75,21.4652444 C27.75,21.214255 27.9439806,21.0226519 28.2,21.0226519 Z M25.21875,15.9819111 C24.1493175,15.9819111 23.26875,16.8516094 23.26875,17.9096889 C23.26875,18.9677684 24.1493175,19.8374667 25.21875,19.8374667 C26.2881825,19.8374667 27.16875,18.9677684 27.16875,17.9096889 C27.16875,16.8516094 26.2881825,15.9819111 25.21875,15.9819111 Z M25.21875,17.4670963 C25.4747694,17.4670963 25.66875,17.6586994 25.66875,17.9096889 C25.66875,18.1607508 25.4748158,18.3522815 25.21875,18.3522815 C24.9626842,18.3522815 24.76875,18.1607508 24.76875,17.9096889 C24.76875,17.6586994 24.9627306,17.4670963 25.21875,17.4670963 Z M31.748134,33.8397292 C31.3532799,33.7249085 30.9298272,33.7355477 30.5381649,33.8743827 C29.7413704,34.1583658 29.2191792,34.9265305 29.2524617,35.7647659 C29.2498774,36.0320157 29.4005579,36.2853008 29.6438248,36.4163885 C29.8864572,36.5471344 30.182057,36.535258 30.4132011,36.385437 C30.6450061,36.2351877 30.7744233,35.9705194 30.7493749,35.697016 C30.742193,35.5106581 30.8592157,35.3399504 31.0464208,35.2732756 C31.2346752,35.2058675 31.4368139,35.2640804 31.5568894,35.4201706 C31.6775427,35.5757824 31.6825091,35.781806 31.5697607,35.9410595 C31.4027872,36.1511382 31.3661115,36.4442515 31.4795358,36.695926 C31.5926937,36.9470097 31.8365686,37.1154521 32.1132569,37.1342098 C32.3898283,37.1529595 32.6544885,37.0191248 32.8011907,36.7858749 C33.2831077,36.1053597 33.2637919,35.1819172 32.7482306,34.5169227 C32.4949703,34.1902914 32.1434927,33.9543053 31.748134,33.8397292 Z M38.9658362,28.5110456 L38.7726564,28.4638299 C38.4211374,28.3958934 38.0544395,28.4244478 37.7126996,28.5511476 C36.8879887,28.8579213 36.371846,29.6800267 36.460146,30.5472244 C36.5484214,31.4143212 37.2212157,32.1204393 38.0904593,32.2589461 C38.9589224,32.3971936 39.8200069,31.935818 40.1796536,31.1401849 C40.2810652,30.9229427 40.2695291,30.6685639 40.1479862,30.4596237 C40.0874329,30.3555286 40.0033471,30.2691874 39.9042464,30.2059752 C39.989311,30.1242332 40.0548393,30.0225227 40.0934285,29.9078941 C40.1706852,29.6784042 40.1302047,29.4260936 39.985047,29.2316348 C39.7353163,28.8863005 39.3756167,28.634221 38.9658362,28.5110456 Z M38.7656383,30.0990775 C38.8227979,30.1793962 38.8948347,30.2466621 38.9768217,30.2980938 C38.9069097,30.3655374 38.8501273,30.4466418 38.8107595,30.5376762 C38.7279091,30.7209466 38.5329512,30.8243797 38.3274563,30.791712 C38.1230725,30.7595763 37.9721626,30.6013833 37.9515721,30.3991472 C37.9310707,30.1978125 38.04732,30.0137059 38.241507,29.9414222 C38.4359252,29.8688693 38.6457266,29.9320048 38.7656383,30.0990775 Z"
				id="Combined-Shape"></path>
		</g>
	</g>
</svg>
