<?xml version="1.0" encoding="UTF-8"?>
<svg width="48px" height="48px" viewBox="0 0 48 48" version="1.1" xmlns="http://www.w3.org/2000/svg"
		 xmlns:xlink="http://www.w3.org/1999/xlink">
	<!-- Generator: Sketch 43.1 (39012) - http://www.bohemiancoding.com/sketch -->
	<title>mexican</title>
	<desc>Created with Sketch.</desc>
	<defs></defs>
	<g id="UI-KIT" stroke="none" stroke-width="1" fill="none" fill-rule="evenodd">
		<g id="mexican" fill="#455A64">
			<path
				d="M38.9306227,21.5008 C39.6867846,20.5072 39.9388385,19.3296 39.6507769,18.1152 C39.2546921,16.5328 37.9224068,15.1712 36.3380676,14.8032 C35.1498132,14.5088 33.9615587,14.8032 32.9173351,15.576 C32.1611732,13.9936 30.576834,13.0368 28.6684254,13 C26.7240091,13 25.1396698,13.9568 24.4915311,15.4288 C23.2672689,15.024 22.0069991,14.8032 20.6387061,14.8032 L20.3866522,14.8032 C13.5451873,14.8032 8,20.4704 8,27.4624 L8,32.3568 C8,34.3808 9.58433923,36 11.5647633,36 L35.4738825,36 C37.5983374,36 39.3267075,34.2336 39.3267075,32.0624 L39.3267075,27.2784 C39.3267075,27.2048 39.3267075,27.1312 39.2906998,27.0944 C40.3709311,25.2176 40.1908925,22.9728 38.9306227,21.5008 Z M28.6684254,14.5088 C30.0007107,14.5088 31.5130345,15.1712 31.9091193,17.048 C31.9811347,17.3056 32.1611732,17.5264 32.4492349,17.6 C32.7012889,17.6736 32.9893506,17.5632 33.1693891,17.3792 C34.2136127,16.128 35.293844,16.0912 36.0139982,16.2752 C37.0942295,16.5328 37.9944222,17.4528 38.2824839,18.52 C38.4265147,19.1456 38.4265147,20.1024 37.4543066,21.0224 C37.3102757,21.1696 37.2022526,21.3904 37.2022526,21.6112 C37.2022526,21.832 37.3102757,22.016 37.4903143,22.1632 C38.8586073,23.2672 38.8225995,25.144 38.1024454,26.432 C37.3462834,27.7568 35.6179134,28.824 33.0973737,27.8304 L33.0973737,27.536 C33.0973737,22.4208 30.1447415,18.0416 25.8958317,16.0176 C26.2919166,14.9504 27.5521864,14.5088 28.6684254,14.5088 Z M11.600771,34.6016 C10.4125166,34.6016 9.4763161,33.608 9.4763161,32.4304 L9.4763161,27.4992 C9.4763161,21.3168 14.4093723,16.312 20.4226599,16.312 L20.6747138,16.312 C26.7240091,16.312 31.6210576,21.3536 31.6210576,27.4992 L31.6210576,32.136 C31.6210576,33.056 31.945127,33.9024 32.4492349,34.6016 L11.600771,34.6016 Z M35.5098902,34.6016 L35.4378748,34.6016 C34.1055896,34.6016 33.0253583,33.4976 33.0253583,32.136 L33.0253583,29.376 C33.7095048,29.5968 34.3216358,29.6704 34.8977592,29.6704 C36.0860136,29.6704 37.0942295,29.2656 37.8863991,28.7136 L37.8863991,32.136 C37.9224068,33.4976 36.8421755,34.6016 35.5098902,34.6016 Z M15.2375497,23.5248 C14.859706,23.5248 14.5534032,23.2117575 14.5534032,22.8256 C14.5534032,22.4394425 14.859706,22.1264 15.2375497,22.1264 C15.6153933,22.1264 15.9216961,22.4394425 15.9216961,22.8256 C15.9216961,23.2117575 15.6153933,23.5248 15.2375497,23.5248 Z M21.1068063,23.5248 C20.7289627,23.5248 20.4226599,23.2117575 20.4226599,22.8256 C20.4226599,22.4394425 20.7289627,22.1264 21.1068063,22.1264 C21.48465,22.1264 21.7909528,22.4394425 21.7909528,22.8256 C21.7909528,23.2117575 21.48465,23.5248 21.1068063,23.5248 Z M17.7580893,26.9104 C17.3802457,26.9104 17.0739429,26.5973575 17.0739429,26.2112 C17.0739429,25.8250425 17.3802457,25.512 17.7580893,25.512 C18.135933,25.512 18.4422358,25.8250425 18.4422358,26.2112 C18.4422358,26.5973575 18.135933,26.9104 17.7580893,26.9104 Z M24.5635465,26.9104 C24.1857028,26.9104 23.8794,26.5973575 23.8794,26.2112 C23.8794,25.8250425 24.1857028,25.512 24.5635465,25.512 C24.9413902,25.512 25.247693,25.8250425 25.247693,26.2112 C25.247693,26.5973575 24.9413902,26.9104 24.5635465,26.9104 Z"
				id="Combined-Shape"></path>
		</g>
	</g>
</svg>
