<?xml version="1.0" encoding="UTF-8"?>
<svg width="48px" height="48px" viewBox="0 0 48 48" version="1.1" xmlns="http://www.w3.org/2000/svg"
		 xmlns:xlink="http://www.w3.org/1999/xlink">
	<!-- Generator: Sketch 43.1 (39012) - http://www.bohemiancoding.com/sketch -->
	<title>middle-eastern</title>
	<desc>Created with Sketch.</desc>
	<defs></defs>
	<g id="UI-KIT" stroke="none" stroke-width="1" fill="none" fill-rule="evenodd">
		<g id="middle-eastern" fill-rule="nonzero" fill="#455A64">
			<path
				d="M16.8324616,33.1588546 L15,17.9299924 C15,14.0932555 17.7383448,10.8120531 21.4704248,10.0569274 L21.4704248,3.511786 L18.565663,3.511786 L18.4181195,3.3628018 L18.4181195,2.1489842 L18.565663,2 L28.333965,2 L28.4815085,2.1489842 L28.4815085,3.3628018 L28.333965,3.511786 L25.4287407,3.511786 L25.4287407,9.91692509 C29.662639,10.1832127 33.0003044,13.6855223 33,17.9400703 L31.1684618,33.1416319 C31.158743,38.048229 29.1257599,40.880119 25.4287407,41.1197284 L25.4287407,44.488214 L29.5548871,44.488214 L29.7024306,44.6371982 L29.7024306,45.8510158 L29.5548871,46 L17.3447409,46 L17.1971974,45.8510158 L17.1971974,44.6371982 L17.3447409,44.488214 L21.4704248,44.488214 L21.4704248,40.9657202 C18.4624867,40.2696821 16.8406339,37.5294624 16.8324616,33.1588546 Z M23.913194,41.1442698 L22.9868964,41.1442698 L22.9868964,44.488214 L23.913194,44.488214 L23.913194,41.1442698 Z M22.9868964,9.89027422 L23.913194,9.89027422 L23.913194,3.511786 L22.9868964,3.511786 L22.9868964,9.89027422 Z M24.6707361,17.1745592 L24.8182796,17.3235434 L24.8182796,18.537361 L24.6707361,18.6863452 L16.6127192,18.6863452 L18.0378043,30.5279322 L27.1130429,30.5279322 L27.2605864,30.6769164 L27.2605864,31.8911938 L27.1130429,32.040178 L18.2205831,32.040178 L18.3478548,33.1054712 C18.3478548,37.1336251 19.7377759,39.6329436 23.0849248,39.6329436 L24.9158455,39.6329436 C27.2249391,39.6329436 28.6057204,38.4329053 29.2451986,36.2889994 L23.449814,36.2889994 L23.3022705,36.1400152 L23.3022705,34.9257378 L23.449814,34.7767536 L29.5544291,34.7767536 C29.6205975,34.2426362 29.6524714,33.6806548 29.6526993,33.0968661 L30.2886848,27.7908968 L23.449814,27.7908968 L23.3022705,27.6419126 L23.3022705,26.4285548 L23.449814,26.2795706 L30.470366,26.2795706 L31.4838384,17.8954057 C31.464391,14.3113878 28.5240898,11.40252 24.915383,11.40252 L23.0844623,11.40252 C19.7417272,11.40252 16.9450578,13.9100425 16.5646491,17.1745592 L24.6707361,17.1745592 Z M19.7865851,22.0302894 L24.6711986,22.0302894 L24.8187421,22.1792736 L24.8187421,23.393551 L24.6711986,23.5425352 L19.7865851,23.5425352 L19.6390416,23.393551 L19.6390416,22.1792736 L19.7865851,22.0302894 Z"
				id="Combined-Shape"></path>
		</g>
	</g>
</svg>
