<?xml version="1.0" encoding="UTF-8"?>
<svg width="48px" height="48px" viewBox="0 0 48 48" version="1.1" xmlns="http://www.w3.org/2000/svg"
		 xmlns:xlink="http://www.w3.org/1999/xlink">
	<!-- Generator: Sketch 43.1 (39012) - http://www.bohemiancoding.com/sketch -->
	<title>middle-eastern-green</title>
	<desc>Created with Sketch.</desc>
	<defs></defs>
	<g id="UI-KIT" stroke="none" stroke-width="1" fill="none" fill-rule="evenodd">
		<g id="middle-eastern-green">
			<polygon id="Path-7" fill="#39CE7B"
							 points="23.5048782 10.5008285 28.0091525 11.4605792 30.9561887 13.260224 32.562806 16.0797722 32.2988521 20.9094999 29.8272022 37.9654999 27.0296502 40.3181909 23.4725573 40.5044849 19.3808231 39.3077144 17.9048361 36.2780804 17.0474348 28.9156523 15.9619918 21.0639219 15.5377802 15.5410908 18.5036702 11.902298 21.8165609 10.4361867"></polygon>
			<path
				d="M21.5781528,40.9607154 L21.5781528,44.7779064 L17.2337791,44.7779064 L17.2337791,46 L21.5781528,46 L25.3023717,46 L29.6472155,46 L29.6472155,44.7779064 L25.3023717,44.7779064 L25.3023717,41.0944976 C29.0566816,40.9213677 31.1277818,38.1401789 31.1376554,33.2036612 L32.9952983,17.9617464 L33,17.8890689 C33,13.6321094 29.5781005,10.1565492 25.3023717,9.96305103 L25.3023717,3.22209363 L28.4059659,3.22209363 L28.4059659,2 L25.3023717,2 L21.5781528,2 L18.4750287,2 L18.4750287,3.22209363 L21.5781528,3.22209363 L21.5781528,10.0857233 C17.8393585,10.7768543 15,14.0103104 15,17.888606 L16.8618744,33.2031983 C16.8712778,37.6272699 18.5319193,40.3232825 21.5781528,40.9607154 Z M24.0615923,44.7779064 L22.8198725,44.7779064 L22.8198725,41.1111625 L23.0690628,41.1111625 L24.0615923,41.1111625 L24.0615923,44.7779064 Z M22.8198725,3.22209363 L24.0615923,3.22209363 L24.0615923,9.94407154 L23.0690628,9.94407154 L22.8198725,9.94407154 L22.8198725,3.22209363 Z M16.2741615,17.2780221 C16.5891756,13.8570857 19.5141051,11.1666281 23.0690628,11.1666281 L24.930467,11.1666281 C28.6828962,11.1666281 31.7380629,14.1630721 31.7582802,17.8529616 L30.7107408,26.4451131 L23.4404973,26.4451131 L23.4404973,27.6667438 L30.5626371,27.6667438 L29.9006373,33.0944135 L29.8964058,33.1675539 C29.8964058,33.7661021 29.8620834,34.3882588 29.7783931,35.0002315 L23.4404973,35.0002315 L23.4404973,36.222788 L29.5315537,36.222788 C28.9795737,38.236465 27.6898966,39.8895318 24.9309372,39.8895318 L23.069533,39.8895318 C18.9649462,39.8895318 18.1035942,36.2343609 18.1035942,33.1675539 L17.9550204,31.9449974 L27.1647163,31.9449974 L27.1647163,30.7224408 L17.8055062,30.7224408 L16.3202382,18.5001157 L24.6817469,18.5001157 L24.6817469,17.2780221 L16.2741615,17.2780221 L16.2741615,17.2780221 Z M19.7162783,22.1668595 L24.6822171,22.1668595 L24.6822171,23.3894161 L19.7162783,23.3894161 L19.7162783,22.1668595 Z"
				id="Combined-Shape" fill="#FFFFFF"></path>
			<path
				d="M21.5781528,40.9607154 L21.5781528,44.7779064 L17.2337791,44.7779064 L17.2337791,46 L21.5781528,46 L25.3023717,46 L29.6472155,46 L29.6472155,44.7779064 L25.3023717,44.7779064 L25.3023717,41.0944976 C29.0566816,40.9213677 31.1277818,38.1401789 31.1376554,33.2036612 L32.9952983,17.9617464 C33,13.6321094 29.5781005,10.1565492 25.3023717,9.96305103 L25.3023717,3.22209363 L28.4059659,3.22209363 L28.4059659,2 L25.3023717,2 L21.5781528,2 L18.4750287,2 L18.4750287,3.22209363 L21.5781528,3.22209363 L21.5781528,10.0857233 C17.8393585,10.7768543 15,14.0103104 15,17.888606 L16.8618744,33.2031983 C16.8712778,37.6272699 18.5319193,40.3232825 21.5781528,40.9607154 Z M24.0615923,44.7779064 L22.8198725,44.7779064 L22.8198725,41.1111625 L23.0690628,41.1111625 L24.0615923,41.1111625 L24.0615923,44.7779064 Z M22.8198725,3.22209363 L24.0615923,3.22209363 L24.0615923,9.94407154 L23.0690628,9.94407154 L22.8198725,9.94407154 L22.8198725,3.22209363 Z M23.0690628,11.1666281 L24.930467,11.1666281 C28.6828962,11.1666281 31.7380629,14.1630721 31.7582802,17.8529616 L30.7107408,26.4451131 L30.5626371,27.6667438 L29.9006373,33.0944135 C29.8964058,33.7661021 29.8620834,34.3882588 29.7783931,35.0002315 L29.5315537,36.222788 C28.9795737,38.236465 27.6898966,39.8895318 24.9309372,39.8895318 L23.069533,39.8895318 C18.9649462,39.8895318 18.1035942,36.2343609 18.1035942,33.1675539 L17.9550204,31.9449974 L17.8055062,30.7224408 L16.3202382,18.5001157 L16.2741615,17.2780221 C16.5891756,13.8570857 19.5141051,11.1666281 23.0690628,11.1666281 Z"
				id="Combined-Shape" fill="#39CE7B"></path>
		</g>
	</g>
</svg>
