<?xml version="1.0" encoding="UTF-8"?>
<svg width="48px" height="48px" viewBox="0 0 48 48" version="1.1" xmlns="http://www.w3.org/2000/svg"
		 xmlns:xlink="http://www.w3.org/1999/xlink">
	<!-- Generator: Sketch 43.1 (39012) - http://www.bohemiancoding.com/sketch -->
	<title>mongolian</title>
	<desc>Created with Sketch.</desc>
	<defs></defs>
	<g id="UI-KIT" stroke="none" stroke-width="1" fill="none" fill-rule="evenodd">
		<g id="mongolian" fill-rule="nonzero" fill="#455A64">
			<path
				d="M12.2096348,27.273751 C12.5058231,27.8143449 13.0680156,28.1587571 13.6880202,28.1596327 C14.3073427,28.1592286 14.8692847,27.8160286 15.1661453,27.2766469 C15.0996053,28.0466245 14.4676178,28.6522082 13.6880202,28.6522082 C12.9074425,28.6522082 12.2748161,28.0451429 12.2096348,27.273751 L12.2096348,27.273751 Z"
				id="Shape"></path>
			<path
				d="M13.6880202,25.6396449 C14.2823284,25.6396449 14.7634107,26.1256204 14.7634107,26.7260184 C14.7634113,27.326349 14.2823287,27.8123918 13.6880202,27.8123918 C13.0937117,27.8123918 12.6126294,27.326349 12.6126296,26.7260184 C12.6126297,26.1256204 13.0937119,25.6396449 13.6880202,25.6396449 L13.6880202,25.6396449 Z"
				id="Shape"></path>
			<polygon id="Shape"
							 points="12.3354161 30.1196306 15.0406247 30.1196306 15.0406247 30.6124082 12.3354161 30.6124082 12.3354161 30.1196306"></polygon>
			<polygon id="Shape"
							 points="12.3354161 34.0396939 15.0406247 34.0396939 15.0406247 34.5324714 12.3354161 34.5324714 12.3354161 34.0396939"></polygon>
			<polygon id="Shape"
							 points="12.4223953 28.999651 14.9536453 28.999651 13.6880202 29.7667327 12.4223953 28.999651"></polygon>
			<polygon id="Shape"
							 points="12.4225255 34.8798469 14.9535147 34.8798469 13.6880202 35.6468612 12.4225255 34.8798469"></polygon>
			<path
				d="M13.6880202,30.9030776 C12.9120585,30.9030776 12.2794262,31.5422 12.2794265,32.326051 C12.2794266,33.109902 12.9120589,33.7490245 13.6880202,33.7490245 C14.4639816,33.7490245 15.096614,33.109902 15.096614,32.326051 C15.096614,31.5422 14.4639819,30.9030776 13.6880202,30.9030776 Z M13.6880202,31.2440551 C14.2815353,31.2440551 14.759114,31.7264612 14.759114,32.326051 C14.759114,32.9256408 14.2815351,33.4080469 13.6880202,33.4080469 C13.0945054,33.4080469 12.6169266,32.9256408 12.6169265,32.326051 C12.6169263,31.7264612 13.0945051,31.2440551 13.6880202,31.2440551 Z"
				id="Shape"></path>
			<path
				d="M13.6880202,30.9030776 L13.6880202,31.2440551 C13.9391665,31.2440551 14.1391921,31.4460959 14.1391921,31.6997918 C14.1391921,31.9534878 13.9391665,32.1555959 13.6880202,32.1555959 C13.2542804,32.1553939 12.8988275,32.514151 12.8988275,32.9523102 C12.8988275,33.3905367 13.2543504,33.7492939 13.6881505,33.7490245 L13.6878905,33.4080469 C13.4366189,33.408249 13.2364582,33.2061408 13.2364582,32.9523102 C13.2364582,32.6984796 13.4366189,32.4963714 13.6878905,32.4965061 L13.6880238,32.4965061 C14.1216165,32.4965061 14.4766957,32.1378163 14.4766957,31.6997918 C14.4766957,31.2617673 14.1216165,30.9030776 13.6880238,30.9030776 L13.6880202,30.9030776 Z"
				id="Shape"></path>
			<path
				d="M13.6880202,31.4972122 C13.7992013,31.4972122 13.888671,31.5875245 13.8886713,31.6997918 C13.8886713,31.8121265 13.7992015,31.9025061 13.6880202,31.9025061 C13.576839,31.9025061 13.4873691,31.8121265 13.4873692,31.6997918 C13.4873695,31.5875245 13.5768392,31.4972122 13.6880202,31.4972122 L13.6880202,31.4972122 Z"
				id="Shape"></path>
			<path
				d="M13.6880202,32.7495959 C13.7992013,32.7495959 13.888671,32.8399755 13.8886713,32.9523102 C13.888671,33.0646449 13.7992013,33.1550245 13.6880202,33.1550245 C13.5768392,33.1550245 13.4873695,33.0646449 13.4873692,32.9523102 C13.4873695,32.8399755 13.5768392,32.7495959 13.6880202,32.7495959 L13.6880202,32.7495959 Z"
				id="Shape"></path>
			<path
				d="M13.7092471,22.9591694 C13.7092471,22.9591694 13.6286981,23.0204551 13.599665,23.0607959 C13.580523,23.0877347 13.5648163,23.1187143 13.5594103,23.1511755 C13.5376297,23.2824347 13.6266196,23.4165898 13.611859,23.5487918 C13.6037763,23.6211898 13.5689457,23.687998 13.5447677,23.7566245 C13.514237,23.8433673 13.4616345,23.9235102 13.4463678,24.0142265 C13.4382451,24.0627163 13.4414078,24.1130245 13.4509278,24.1610429 C13.4726025,24.2702796 13.5659623,24.3628143 13.5520728,24.4733306 C13.5456461,24.5245143 13.5088568,24.5758327 13.4635127,24.5995388 C13.4634669,24.5995388 13.4253734,24.6136816 13.4055201,24.6130082 C13.3865121,24.6126714 13.3504407,24.5981918 13.3504407,24.5981918 C13.3174867,24.5847224 13.2882614,24.5584571 13.270647,24.5274776 C13.253549,24.4971714 13.2490723,24.4597939 13.251683,24.4252449 C13.2572497,24.3515 13.3112317,24.2886653 13.3244097,24.2159306 C13.332195,24.1728286 13.336505,24.1277061 13.327543,24.0850082 C13.3094063,23.9985347 13.2164086,23.9336796 13.2152773,23.8453204 C13.2145707,23.7900959 13.2816527,23.6935878 13.2816527,23.6935878 C13.2816527,23.6935878 13.2075886,23.7454449 13.1820899,23.7814082 C13.1476092,23.8305714 13.1226912,23.8893653 13.1156245,23.9491694 C13.1064079,24.0271571 13.1378245,24.1036633 13.1252419,24.1794286 C13.1009245,24.3258408 12.9738127,24.4382429 12.9639094,24.593949 C12.9502461,24.8582184 13.0986225,25.1044388 13.3245016,25.2384592 C13.5504115,25.3724122 13.8300512,25.3739612 14.0574042,25.2451939 C14.2847431,25.1136653 14.4221556,24.8692633 14.4249738,24.6046571 C14.4252471,24.5790653 14.4277138,24.5521265 14.4248805,24.5295653 C14.4177511,24.4729939 14.3919305,24.4191837 14.3644985,24.3691449 C14.3327911,24.3112265 14.2652002,24.2742531 14.2459711,24.2110143 C14.2332518,24.1692592 14.2495645,24.123598 14.2526805,24.0800245 C14.2555871,24.0396163 14.2653338,23.9988041 14.2638625,23.9579918 C14.2628758,23.9303796 14.2613291,23.9020939 14.2504445,23.8766367 C14.2255731,23.8193918 14.1363897,23.7275306 14.1363897,23.7275306 C14.1363897,23.7275306 14.1660257,23.7954837 14.1654623,23.8315143 C14.1649557,23.8638408 14.1487963,23.8941469 14.1363897,23.9241163 C14.1148403,23.9759735 14.0846903,24.0190082 14.0699017,24.0732224 C14.0580097,24.116998 14.055873,24.1641408 14.0631923,24.2087918 C14.0734183,24.2714245 14.108441,24.3230122 14.120735,24.3849714 C14.1292317,24.4280735 14.142261,24.4769 14.1229683,24.5160286 C14.1014763,24.5598041 14.0549243,24.5943531 14.0073932,24.6046571 C14.0073932,24.6046571 13.9907952,24.6113918 13.9823825,24.6113918 C13.9737972,24.6113918 13.9568505,24.6046571 13.9568505,24.6046571 C13.9288892,24.5979224 13.9015199,24.5864735 13.8814408,24.5682898 C13.8541615,24.542698 13.8420915,24.5016163 13.8389495,24.4643735 C13.8349361,24.4165571 13.8561301,24.3700204 13.8702588,24.3242918 C13.8975855,24.2359327 13.9274261,24.1561939 13.9510341,24.0667571 C13.9636361,24.0189408 13.9701587,23.9693061 13.9711614,23.9199408 C13.9721147,23.872798 13.9691681,23.8253184 13.9577434,23.7798592 C13.9342341,23.6863143 13.890303,23.5987633 13.8459252,23.5133 C13.7864612,23.3987429 13.7120054,23.3048612 13.6622763,23.1857245 C13.6509676,23.1587857 13.6388883,23.1291531 13.6421496,23.0998571 C13.6478296,23.0486735 13.70924,22.9620653 13.70924,22.9620653 L13.7092471,22.9591694 Z"
				id="Shape"></path>
			<polygon id="Shape"
							 points="18.0499993 7.99393061 19.616666 7.99393061 19.616666 40.8203939 18.0499993 40.8203939"></polygon>
			<polygon id="Shape"
							 points="28.3499993 7.99393061 29.916666 7.99393061 29.916666 40.8203939 28.3499993 40.8203939"></polygon>
			<polygon id="Shape"
							 points="10.6723953 28.9997857 11.6390619 28.9997857 11.6390619 35.6525184 10.6723953 35.6525184"></polygon>
			<polygon id="Shape"
							 points="15.7369787 28.9997857 16.7036453 28.9997857 16.7036453 35.6525184 15.7369787 35.6525184"></polygon>
			<path
				d="M36.266666,7.99399796 C38.4643752,7.99399796 40.2499993,9.79784275 40.2499993,12.0154265 L40.2499993,36.7991673 C40.2499993,39.0167282 38.4643978,40.8204612 36.266666,40.8204612 L11.7333327,40.8204612 C9.53560088,40.8204612 7.74999933,39.0167282 7.74999933,36.7991673 L7.74999933,12.0154265 C7.74999933,9.79784275 9.53562347,7.99399796 11.7333327,7.99399796 L36.266666,7.99399796 Z M9.316666,12.0154265 L9.316666,36.7991673 C9.316666,38.1633632 10.3854419,39.2430449 11.7333327,39.2430449 L36.266666,39.2430449 C37.6145568,39.2430449 38.6833327,38.1633632 38.6833327,36.7991673 L38.6833327,12.0154265 C38.6833327,10.6511578 37.6145512,9.57141429 36.266666,9.57141429 L11.7333327,9.57141429 C10.3854475,9.57141429 9.316666,10.6511578 9.316666,12.0154265 Z"
				id="Shape"></path>
		</g>
	</g>
</svg>
