<?xml version="1.0" encoding="UTF-8"?>
<svg width="48px" height="48px" viewBox="0 0 48 48" version="1.1" xmlns="http://www.w3.org/2000/svg"
		 xmlns:xlink="http://www.w3.org/1999/xlink">
	<!-- Generator: Sketch 43.1 (39012) - http://www.bohemiancoding.com/sketch -->
	<title>moroccan</title>
	<desc>Created with Sketch.</desc>
	<defs></defs>
	<g id="UI-KIT" stroke="none" stroke-width="1" fill="none" fill-rule="evenodd">
		<g id="moroccan" fill-rule="nonzero" fill="#455A64">
			<path
				d="M40.8926907,31.5405395 C40.8669692,31.4725463 40.8465568,31.4187861 40.8351833,31.3892914 C40.7591315,31.1920667 40.6931538,31.0286993 40.6267877,30.8748807 C40.4976254,30.5754113 40.3428092,30.4840751 39.9317372,30.4866273 C37.5263728,30.5017016 35.2090192,30.5055181 31.563823,30.5039632 C30.9064791,30.5036552 30.9064791,30.5036552 30.2491862,30.5032922 C28.1187053,30.5021154 27.171901,30.5019053 25.9885383,30.502816 C25.2202535,30.5034044 24.4725332,30.5061233 23.3228749,30.5118217 C23.0882709,30.512992 23.0882709,30.512992 22.8536285,30.5141776 C21.08606,30.5231082 20.3002325,30.5260108 19.3173985,30.5256344 C18.1970794,30.5251942 17.3009764,30.5235626 15.2849351,30.5189324 C13.1407033,30.5140077 12.1878071,30.5123327 10.9969025,30.5121642 C10.2665239,30.5120609 9.58031681,30.512768 8.9180052,30.5143945 C8.78829802,30.5146495 8.62227845,30.5630564 8.66896014,30.488588 C8.51238704,30.7380832 8.36758737,31.0104608 8.18201168,31.3952658 C8.17477545,31.4102707 8.14919121,31.4642032 8.11298933,31.5405395 L40.8926907,31.5405395 Z M11.7345223,33.1543335 C12.8323722,34.8112164 13.5730666,35.6570325 14.6301225,36.3400406 C14.9289812,36.5331391 15.3630354,36.657599 15.7406175,36.6593322 C21.7231008,36.6883909 27.5240506,36.6888577 33.1932981,36.6591631 C33.6108236,36.6569764 34.0878806,36.5198135 34.4132007,36.3068896 C35.4495685,35.6286158 36.1748555,34.794813 37.2586307,33.1543335 L11.7345223,33.1543335 Z M17.0006129,38.934994 C17.0053238,38.9439613 17.1566224,39.0314228 17.1893834,39.0315807 C22.2524412,39.0554331 27.3113116,39.0553905 32.3654698,39.0314108 C32.3957781,39.0312639 32.5456691,38.9439009 32.551637,38.9326279 C32.6510239,38.7446148 32.7301582,38.5444309 32.8376639,38.2181169 L16.7172792,38.2181169 C16.8236611,38.5465911 16.9016174,38.7463513 17.0006129,38.934994 Z M36.6343961,28.8703138 C32.5702674,24.0769177 29.2308874,18.8298947 26.6215517,13.132488 C26.5550415,12.9873022 26.6130547,13.0357327 26.5658612,13.0365357 C25.9889258,13.0462344 25.5286519,13.0479346 24.4946857,13.0472351 C23.4493677,13.0465299 22.9769695,13.048406 22.4018208,13.0584981 C22.1567411,13.5784255 21.9343079,14.0176426 21.4591231,14.9690292 C20.5781438,16.7328844 20.1759538,17.5049335 19.6242667,18.4437899 C16.8005527,23.2493868 14.7495065,26.2756993 12.2706909,28.950325 L36.7037462,28.950325 C36.6807427,28.9244127 36.6577652,28.8978852 36.6343961,28.8703138 Z M21.6385115,9.38012135 L21.054591,9.5180953 L21.6038727,9.27666305 C21.6115075,9.29403138 21.6188465,9.31072709 21.6259127,9.32680209 C21.801308,9.72581046 21.8085973,9.74238911 21.9968182,10.1704776 L22.0002856,10.1783636 C22.299242,10.8582479 22.3494598,10.9724529 22.5697076,11.4734013 L26.422439,11.4734013 C26.79705,10.6303445 27.0167027,10.1360279 27.1924976,9.74049979 L27.1986849,9.72657882 C27.2897031,9.52180081 27.2982065,9.50266942 27.3739687,9.33223988 C27.3817762,9.31467665 27.390298,9.29550666 27.399698,9.27436116 L27.9479622,9.5180953 L27.3608921,9.39420563 L27.4490417,8.97649501 L28.0361119,9.10038468 L27.4846126,9.33670771 C27.4801414,9.32627337 27.475715,9.31610733 27.471325,9.30620336 C27.4492957,9.25650511 27.4281822,9.21340587 27.4069153,9.17611764 C27.3001447,8.98891247 27.1895061,8.94817537 26.9397025,8.95418863 C25.2997861,8.99377831 23.6587031,8.99390686 22.0204149,8.95452768 C21.7997621,8.94917779 21.6997643,8.98848751 21.5900995,9.17523656 C21.5669188,9.21471119 21.5433061,9.2607735 21.5180307,9.31439421 C21.5125925,9.32593103 21.5070774,9.33781775 21.501473,9.35006403 L20.9558906,9.10038468 L21.5398111,8.96241073 L21.6385115,9.38012135 Z M12.5894354,36.6492033 C11.819087,35.75725 11.2364109,34.9862202 10.0298586,33.3131378 C9.89195776,33.1217889 9.8616124,33.1042912 9.71143006,33.111272 C9.36812673,33.1273934 9.09750954,33.1287418 8.49371333,33.1233228 C8.04935883,33.119433 7.83960331,33.1195405 7.61545979,33.1247131 C6.72891888,33.1452596 6.24148306,32.5473198 6.44897085,31.6978874 C6.54980932,31.2852641 6.67770153,30.8864185 6.83176461,30.5098104 C7.31243018,29.3341558 8.12063167,28.7407795 9.32790216,28.9933375 C9.88069872,29.1089265 10.2385125,28.908257 10.9173512,28.1866493 C12.7233281,26.2667351 14.3617514,24.0543371 15.971121,21.4341505 C16.7995857,20.0853521 17.4356322,18.9818407 18.8384498,16.494617 C19.7458484,14.8857828 20.1551701,14.1665618 20.6704968,13.2846651 C21.2437718,12.3037486 21.1268977,11.4344652 20.359112,10.3545789 C20.3024942,10.2873418 20.2855375,10.2690287 20.2385255,10.2187201 C19.7888926,9.73590292 19.6346783,9.29206753 20.0392145,8.71596598 C20.0716958,8.66969749 20.1038804,8.62165309 20.152723,8.54709535 C20.7021821,7.70741581 21.118687,7.3742045 21.9625518,7.40115603 C23.5096672,7.45055177 25.1196804,7.44861652 27.1355158,7.40626231 C27.9106061,7.38993926 28.285152,7.69982425 28.7496397,8.41951613 C28.8417993,8.56228827 28.8813314,8.62089447 28.9253728,8.67908514 C29.3331028,9.21793086 29.2112957,9.63292189 28.809663,10.1258699 C28.7480837,10.2015025 28.7264395,10.2304185 28.715269,10.2495772 C28.6570883,10.3493733 28.6095246,10.4269747 28.5044003,10.5956674 C28.3404775,10.8587161 28.2715364,10.9746784 28.1996389,11.1146147 C27.8859258,11.7250544 27.865011,12.2650259 28.1455965,12.8719452 C29.6786991,16.1881796 31.6152753,19.4684856 34.047931,22.9702741 C34.8505731,24.1256733 35.5563611,25.0375704 37.1376396,27.0085006 L37.2084465,27.0967554 C37.5928883,27.5759393 37.7965484,27.8304911 38.026089,28.1194858 C38.5771901,28.813265 39.0947294,29.0856999 39.8389057,29.0083703 C41.3539109,28.8510356 42.8809681,30.7395041 42.5558307,32.2520341 C42.4574377,32.7102429 41.897669,33.0754809 41.4430458,33.1034821 C41.126217,33.1229377 40.8683902,33.1254344 40.3283047,33.1209996 C39.7685016,33.1163932 39.53096,33.1187261 39.2425027,33.1372533 C39.2014683,33.1398995 39.0709836,33.2158668 39.0186627,33.2827553 C38.7745689,33.5946321 38.5781341,33.859757 38.1613188,34.4331661 C37.4220202,35.450221 37.0826916,35.8937547 36.6194332,36.4155852 C36.2945198,36.7815972 35.9907522,37.0136367 35.3049408,37.4721434 C34.966098,37.6986855 34.8198455,37.8001751 34.6578324,37.9250628 C34.5824382,37.983185 34.5006526,38.0848417 34.4334464,38.2068227 C34.4373602,38.1997293 34.4309148,38.2259597 34.4162593,38.3176015 C34.3999877,38.419208 34.3903857,38.4712439 34.3739245,38.5367099 C33.9618104,40.1752759 33.4161005,40.5999019 31.7245919,40.5999019 C30.3151102,40.5998512 29.187526,40.5998649 26.650426,40.5999366 C22.0835807,40.6000656 20.053829,40.6000174 17.5165904,40.5995613 C16.2559472,40.5993466 15.7637912,40.2477086 15.3481886,39.0448467 C15.2783216,38.8423955 15.2213639,38.6433004 15.1452062,38.3483725 C15.1208655,38.2534596 15.112681,38.2215455 15.0991667,38.1687066 C14.1339988,38.0178156 13.3140129,37.4880244 12.5894354,36.6492033 Z"
				id="Fill-1"></path>
		</g>
	</g>
</svg>
