<?xml version="1.0" encoding="UTF-8"?>
<svg width="48px" height="48px" viewBox="0 0 48 48" version="1.1" xmlns="http://www.w3.org/2000/svg"
		 xmlns:xlink="http://www.w3.org/1999/xlink">
	<!-- Generator: Sketch 43.1 (39012) - http://www.bohemiancoding.com/sketch -->
	<title>other-asian</title>
	<desc>Created with Sketch.</desc>
	<defs></defs>
	<g id="UI-KIT" stroke="none" stroke-width="1" fill="none" fill-rule="evenodd">
		<g id="other-asian" fill="#455A64">
			<path
				d="M17.3936476,38.3913075 L12.0742903,38.3913075 C11.6352196,38.3913075 11.2788723,38.7516547 11.2788723,39.1956538 C11.2788723,39.6396529 11.6352196,40 12.0742903,40 L36.2001112,40 C36.6391819,40 36.9955291,39.6396529 36.9955291,39.1956538 C36.9955291,38.7516547 36.6391819,38.3913075 36.2001112,38.3913075 L30.8807538,38.3913075 C35.8513204,35.8789321 39.2740037,30.684062 39.2740037,24.6928891 L39.2740037,24.1483467 C39.2740037,23.7043476 38.9176565,23.3440005 38.4785858,23.3440005 L9.79541792,23.3440005 C9.35634723,23.3440005 9,23.7043476 9,24.1483467 L9,24.6928891 C9,30.684062 12.423081,35.8789321 17.3936476,38.3913075 Z M37.6811793,24.9526929 C37.543572,32.3864608 31.5210653,38.3913075 24.1372007,38.3913075 C16.7533362,38.3913075 10.7308294,32.3864608 10.5932221,24.9526929 L37.6811793,24.9526929 Z M11.6670363,22.0554378 C11.2279656,22.0554378 10.8716184,21.6950907 10.8720161,21.2506894 C10.8720161,18.8400638 12.8108473,16.8794698 15.194317,16.8794698 C15.3844219,16.8794698 15.5570276,16.9502523 15.6938395,17.0628608 C16.3778989,15.7960155 17.6652828,14.9112346 19.1622593,14.7970174 C19.1551006,14.7535827 19.1491349,14.7097459 19.1491349,14.6643003 C19.1491349,12.2540768 21.0879661,10.2934829 23.4714359,10.2934829 C25.6182689,10.2934829 27.3996073,11.8860884 27.7332851,13.9633126 C28.3143379,14.0879862 28.8556198,14.3228553 29.3340637,14.6458003 L35.2857783,3.42396393 C35.4937801,3.03305167 35.976201,2.88585631 36.3627741,3.0953885 C36.7497449,3.30532286 36.8949087,3.79275668 36.6877024,4.18447329 L30.5224181,15.808885 C30.6846833,16.0357106 30.8262677,16.2778188 30.9467735,16.5323944 L39.5893869,5.85469824 C39.8677832,5.51084022 40.3688965,5.46016641 40.7085399,5.74168759 C41.0481834,6.0228066 41.0982947,6.5299469 40.8202962,6.87340274 L32.0301327,17.7332833 C32.7841889,17.7224247 33.5398359,17.8639896 34.258496,18.1636086 C35.6528636,18.7443466 36.7398022,19.8398661 37.3196619,21.2478742 C37.4882905,21.6580908 37.2965948,22.1290355 36.8909316,22.2995569 C36.7911067,22.3417851 36.6873046,22.3614915 36.5854911,22.3614915 C36.2736873,22.3614915 35.9777919,22.1752854 35.850525,21.8660143 C35.4341237,20.8549511 34.6538187,20.0683004 33.6519899,19.6508448 C32.650161,19.2329869 31.5481095,19.2358021 30.5478714,19.6564752 C30.1430037,19.8282031 29.6768888,19.6331491 29.5078625,19.2229326 C29.3929246,18.9430201 29.4486039,18.6369663 29.6228004,18.4153689 C29.6299592,18.2721953 29.6764911,18.1318369 29.7612031,18.0067611 C29.5090556,16.5669813 28.2654197,15.4690487 26.7704317,15.4690487 C26.331361,15.4690487 25.9750138,15.1087016 25.9750138,14.6647025 C25.9750138,14.4732681 26.0438175,14.2995293 26.1547783,14.1611817 C25.9197323,12.8778473 24.8069426,11.9025775 23.4706405,11.9025775 C21.9645167,11.9025775 20.7391754,13.1416729 20.7391754,14.6647025 C20.7391754,14.7664523 20.7184945,14.8625717 20.6846892,14.9522563 C21.1166012,15.0777343 21.5286276,15.2695708 21.9064512,15.527766 C22.2703549,15.776309 22.365805,16.2766123 22.1200209,16.6446007 C21.8742367,17.012187 21.3806799,17.109915 21.0155831,16.8609699 C20.5645811,16.5525031 20.0364236,16.389623 19.4891761,16.389623 C17.9830523,16.389623 16.757711,17.6287183 16.757711,19.1517479 C16.757711,19.595747 16.4013637,19.9560941 15.962293,19.9560941 C15.5232224,19.9560941 15.1668751,19.595747 15.1668751,19.1517479 C15.1668751,18.9245201 15.1895445,18.7033249 15.2225544,18.4857492 C15.2130094,18.4861514 15.2038621,18.4885645 15.1939193,18.4885645 C13.6877955,18.4885645 12.4624542,19.7276598 12.4624542,21.2510916 C12.4624542,21.6950907 12.106107,22.0554378 11.6670363,22.0554378 Z M21.9450289,18.4559884 C22.9528234,18.3703256 23.9268127,18.6856293 24.6955841,19.3431823 C25.0312505,19.6295296 25.0734076,20.1370721 24.7902388,20.4765062 C24.5066723,20.8155381 24.0043659,20.8585706 23.669495,20.5718212 C23.2240609,20.1917676 22.6601096,20.0095832 22.0782614,20.0590505 C21.4980041,20.1085178 20.9710397,20.3836042 20.5952047,20.8340381 C20.4381097,21.0222551 20.2130064,21.1191788 19.9871077,21.1191788 C19.8057524,21.1191788 19.6236017,21.056842 19.4744609,20.9293531 C19.1387945,20.6430058 19.0966374,20.1354634 19.3798061,19.7960292 C20.0300603,19.0174221 20.9412115,18.5416513 21.9450289,18.4559884 Z"
				id="Combined-Shape"></path>
		</g>
	</g>
</svg>
