<?xml version="1.0" encoding="UTF-8"?>
<svg width="48px" height="48px" viewBox="0 0 48 48" version="1.1" xmlns="http://www.w3.org/2000/svg"
		 xmlns:xlink="http://www.w3.org/1999/xlink">
	<!-- Generator: Sketch 43.1 (39012) - http://www.bohemiancoding.com/sketch -->
	<title>other-european</title>
	<desc>Created with Sketch.</desc>
	<defs></defs>
	<g id="UI-KIT" stroke="none" stroke-width="1" fill="none" fill-rule="evenodd">
		<g id="other-european" fill="#455A64">
			<path
				d="M36.5198306,21.6225541 L35.6746458,21.6013214 C34.0926331,16.5054756 29.3811861,13 24.0000093,13 C18.6117476,13 13.9032178,16.5071409 12.3237057,21.608399 L11.6552262,21.5921622 C10.7046016,21.5634356 9.80148746,21.9181464 9.11008626,22.5759435 C8.41868505,23.2337406 8.02484892,24.1184361 8.00109373,25.0672459 C7.95274982,27.031478 9.51309106,28.6688931 11.4801879,28.7176034 L12.1032408,28.7330075 C13.2293204,32.9820436 17.0980832,36 21.5478063,36 L26.4522122,36 C30.9048526,36 34.7686143,32.9853742 35.8955274,28.7367545 L36.3447923,28.747579 C37.2983342,28.7738076 38.1985311,28.4215947 38.8899323,27.7637976 C39.5813335,27.1060005 39.9751696,26.2213051 39.9989248,25.2729116 C40.0468519,23.3086795 38.4865107,21.6712644 36.5198306,21.6225541 Z M26.4522122,34.3351072 L21.5478063,34.3351072 C17.9028425,34.3351072 14.7283983,31.8920988 13.7511012,28.4349172 C14.3791552,28.1247534 14.7971633,27.6055933 15.1301528,27.1842701 C15.6052567,26.5830935 15.8569784,26.293746 16.3841771,26.293746 C16.9080416,26.293746 17.1589298,26.5822608 17.6327835,27.1826048 C18.1399777,27.8254141 18.834713,28.7059462 20.1908429,28.7059462 C21.546556,28.7059462 22.2412913,27.8258304 22.7489023,27.1826048 C23.222756,26.5826772 23.4736442,26.293746 23.9979255,26.293746 C24.5251241,26.293746 24.7768458,26.5826772 25.2519497,27.1842701 C25.759144,27.826663 26.454296,28.7059462 27.8091756,28.7059462 C29.1653056,28.7059462 29.8600408,27.8254141 30.3672351,27.1826048 C30.8410887,26.5826772 31.0919769,26.293746 31.6158415,26.293746 C32.1430401,26.293746 32.3947618,26.5826772 32.8698657,27.1842701 C33.2028552,27.6060096 33.62128,28.1251697 34.2497508,28.4353335 C33.2728705,31.8933478 30.1009268,34.3351072 26.4522122,34.3351072 Z M37.7405142,26.5581139 C37.3712668,26.9090777 36.8861607,27.1014209 36.3856346,27.0835189 L35.4275084,27.0602045 L35.4275084,27.0406372 C34.9036438,27.0406372 34.6527556,26.7525387 34.1784852,26.1521948 C33.6704575,25.5089691 32.9744719,24.628437 31.6158415,24.628437 C30.2601283,24.628437 29.565393,25.5085528 29.057782,26.1517784 C28.5839284,26.751706 28.3330402,27.0406372 27.8087589,27.0406372 C27.2848943,27.0406372 27.0340061,26.7525387 26.5601525,26.1521948 C26.0521247,25.5093855 25.3561392,24.628437 23.9975087,24.628437 C22.6413788,24.628437 21.9466435,25.5089691 21.4394493,26.1517784 C20.9655957,26.751706 20.7147075,27.0406372 20.1908429,27.0406372 C19.6665616,27.0406372 19.4156734,26.7521224 18.9418197,26.1517784 C18.4346255,25.5085528 17.7398902,24.628437 16.3837603,24.628437 C15.0251298,24.628437 14.3291443,25.5093855 13.8211165,26.1521948 C13.3472629,26.7521224 13.0963747,27.0406372 12.5725101,27.0406372 L12.5725101,27.0789393 L11.5210302,27.0535433 C10.4733011,27.0273147 9.64186922,26.1551091 9.66770821,25.1084623 C9.68021094,24.6047063 9.89025688,24.1334238 10.2595043,23.7820436 C10.6287517,23.4310797 11.111774,23.2391529 11.6139672,23.2566386 L12.8384016,23.2870305 L13.5923165,23.3240836 L13.7581861,22.6629559 C14.9396945,17.9538782 19.1510322,14.6653091 23.9991757,14.6653091 C28.8335663,14.6653091 33.0424035,17.942221 34.233914,22.635062 L34.4027009,23.2999366 L35.0886843,23.2616345 C35.1395287,23.2587202 35.1891229,23.255806 35.2403841,23.2566386 L36.4781548,23.2870305 C37.525884,23.3132591 38.3573158,24.1854647 38.3314768,25.2321115 C38.3193908,25.7358675 38.1093449,26.2067336 37.7405142,26.5581139 Z M21.7753561,16.2215404 C19.5369499,16.7282107 17.5756876,18.3477238 16.6567367,20.4485112 C16.4725297,20.8698344 16.6650718,21.3606842 17.0868307,21.5451172 C17.1956045,21.5921622 17.3085459,21.6150602 17.420237,21.6150602 C17.7415572,21.6150602 18.0474575,21.4285456 18.184154,21.1154675 C18.8951429,19.4905421 20.412558,18.237397 22.14377,17.8456331 C22.5926181,17.7440492 22.8743464,17.2981627 22.7726575,16.8493619 C22.6709686,16.4009775 22.222954,16.1174586 21.7753561,16.2215404 Z"
				id="Combined-Shape"></path>
		</g>
	</g>
</svg>
