<?xml version="1.0" encoding="UTF-8"?>
<svg width="48px" height="48px" viewBox="0 0 48 48" version="1.1" xmlns="http://www.w3.org/2000/svg"
		 xmlns:xlink="http://www.w3.org/1999/xlink">
	<!-- Generator: Sketch 43.1 (39012) - http://www.bohemiancoding.com/sketch -->
	<title>other-european-green</title>
	<desc>Created with Sketch.</desc>
	<defs></defs>
	<g id="UI-KIT" stroke="none" stroke-width="1" fill="none" fill-rule="evenodd">
		<g id="other-european-green" fill="#39CE7B">
			<path
				d="M36.5198306,21.6225541 C38.4865107,21.6712644 40.0468519,23.3086795 39.9989248,25.2729116 C39.9751696,26.2213051 39.5813335,27.1060005 38.8899323,27.7637976 C38.1985311,28.4215947 37.2983342,28.7738076 36.3447923,28.747579 L35.8955274,28.7367545 C34.7686143,32.9853742 30.9048526,36 26.4522122,36 L21.5478063,36 C17.0980832,36 13.2293204,32.9820436 12.1032408,28.7330075 L11.4801879,28.7176034 C9.51309106,28.6688931 7.95274982,27.031478 8.00109373,25.0672459 C8.02484892,24.1184361 8.41868505,23.2337406 9.11008626,22.5759435 C9.80148746,21.9181464 10.7046016,21.5634356 11.6552262,21.5921622 L12.3237057,21.608399 C13.9032178,16.5071409 18.6117476,13 24.0000093,13 C29.3811861,13 34.0926331,16.5054756 35.6746458,21.6013214 L36.5198306,21.6225541 Z M21.7753561,16.2215404 C19.5369499,16.7282107 17.5756876,18.3477238 16.6567367,20.4485112 C16.4725297,20.8698344 16.6650718,21.3606842 17.0868307,21.5451172 C17.1956045,21.5921622 17.3085459,21.6150602 17.420237,21.6150602 C17.7415572,21.6150602 18.0474575,21.4285456 18.184154,21.1154675 C18.8951429,19.4905421 20.412558,18.237397 22.14377,17.8456331 C22.5926181,17.7440492 22.8743464,17.2981627 22.7726575,16.8493619 C22.6709686,16.4009775 22.222954,16.1174586 21.7753561,16.2215404 Z"
				id="Combined-Shape"></path>
		</g>
	</g>
</svg>
