<?xml version="1.0" encoding="UTF-8"?>
<svg width="48px" height="48px" viewBox="0 0 48 48" version="1.1" xmlns="http://www.w3.org/2000/svg"
		 xmlns:xlink="http://www.w3.org/1999/xlink">
	<!-- Generator: Sketch 43.1 (39012) - http://www.bohemiancoding.com/sketch -->
	<title>peruvean-green</title>
	<desc>Created with Sketch.</desc>
	<defs></defs>
	<g id="UI-KIT" stroke="none" stroke-width="1" fill="none" fill-rule="evenodd">
		<g id="peruvean-green" fill="#39CE7B">
			<path
				d="M35.7898743,30.4500978 L35.2675672,30.3703967 C33.7644573,30.1388839 31.1094358,30.9273557 29.0537676,31.6887861 C28.8467355,31.467236 28.591963,31.2504299 28.288505,31.0032616 C28.0781642,30.8319991 27.4476143,30.3239044 23.7730305,29.5069679 C23.696457,29.1919587 23.5839601,28.8665125 23.4156874,28.5728518 C23.2247262,28.2364941 22.9023612,27.9361917 22.4741166,27.6695724 C23.5754519,27.4451758 23.8505494,26.1452885 23.9096339,25.1466524 C24.0192947,25.1513965 24.1284829,25.1585127 24.2381437,25.1585127 C25.6689342,25.1585127 27.0259872,24.6973848 28.0573664,23.8595742 C29.3312284,22.8248829 30.4788859,21.5506138 30.2501107,19.2487695 C30.0515868,17.2562415 24.7212187,9.2239815 22.9373392,8.23008955 C22.6641324,8.07732906 22.3483848,8 21.9995499,8 C20.5177104,8 18.5438151,9.427504 16.6337311,10.8080413 C15.844362,11.3792326 15.0984792,11.918164 14.5648279,12.2122991 C12.9823084,13.0842673 12.1054943,13.9481706 11.8847546,14.8523987 C11.8190526,15.119018 11.8247247,15.3448378 11.854976,15.528435 C10.251186,16.9445532 8.86577247,19.3365356 8.26263781,21.1525826 C7.90056793,22.2413568 7.91285751,23.1764218 8.29950654,23.9312103 C8.62801641,24.5740378 9.13661586,24.8928423 9.42967503,25.0318449 C9.32095953,27.5457511 10.0536074,30.025974 10.3925162,31.0231869 C10.7952362,32.206369 11.5179579,32.6523157 12.126292,32.806025 C13.0262673,34.6182767 14.3587411,36.0528969 16.1033885,37.0629188 C16.5954443,37.3485145 17.1040438,37.4927356 17.6145339,37.4927356 C17.7015063,37.4927356 17.7809159,37.4808753 17.8626889,37.4732847 C20.233632,39.1745241 22.4840428,39.4207436 24.5694897,39.4207436 L25.3238807,39.4169483 C25.4708829,39.4169483 25.6098497,39.418846 25.7440897,39.4226413 L25.8901466,39.4245389 C26.5731635,39.4245389 27.129976,39.2746249 27.5563298,38.9823875 C29.0410053,39.5995968 31.1061271,40 32.9018235,40 C35.3706106,40 37.8327803,38.6303742 38.4983082,37.4006998 C38.6533459,37.1136808 38.6746164,36.7825417 38.5592834,36.4675325 C38.472311,36.2312756 38.2908034,35.7483247 36.8595403,35.0144102 C38.3097104,34.2581984 39.3354175,33.4958192 39.6473837,33.1585127 C40.1106063,32.6580087 40.0075629,32.1650952 39.9418609,31.9762794 C39.6256406,31.0692048 38.3711583,30.8410129 35.7898743,30.4500978 Z M36.8746659,36.8916563 C36.2828754,37.4747079 34.6994106,38.3870011 32.9022962,38.3870011 C31.4407817,38.3870011 29.6701372,38.0634525 28.4019473,37.5861946 C28.403838,37.5686414 28.4057287,37.552037 28.4076194,37.5354326 C28.4667039,37.4040206 28.5588757,37.1971773 28.6671185,36.944316 C28.6921704,36.9462136 28.7176949,36.9462136 28.7427467,36.9481112 C28.8533529,36.9566507 28.9663225,36.9599715 29.0788194,36.9656645 C29.2173135,36.9723062 29.3548622,36.9784736 29.495247,36.9803712 C29.5340065,36.9803712 29.5708752,36.9841665 29.6096346,36.9841665 C29.6899896,36.9841665 29.7693991,36.9765759 29.8497541,36.9746783 C30.0085732,36.9718318 30.166447,36.9661389 30.3271569,36.9571251 C30.4571428,36.9485857 30.5866561,36.938623 30.7156966,36.9267627 C30.8570268,36.9139536 30.9983569,36.8978236 31.1411051,36.8793216 C31.2824353,36.8617684 31.4237654,36.8432663 31.5632048,36.820969 C31.6832646,36.8024669 31.8033243,36.7792208 31.923384,36.7569234 C32.0869299,36.7270355 32.2500032,36.6966732 32.410713,36.6615667 C32.4882319,36.6440135 32.5666962,36.6245627 32.644215,36.6060606 C32.8512471,36.5567218 33.0568612,36.5069086 33.2591666,36.4504537 C33.2757103,36.4447607 33.2931993,36.4395422 33.3106883,36.4347981 C33.8637193,36.2782423 34.3964252,36.0974915 34.9050247,35.9001364 C35.9846168,36.3356461 36.5877515,36.6795944 36.8746659,36.8916563 Z M34.8289238,34.190832 L34.5982579,34.2852399 C33.748859,34.6315602 32.9160038,34.8958074 32.1091457,35.077507 C32.0831485,35.0831999 32.057624,35.0874696 32.0316268,35.0931625 C31.8080511,35.1425013 31.587784,35.1828263 31.368935,35.219356 C31.3079598,35.2293186 31.2469846,35.2388069 31.1860093,35.2473463 C30.9969389,35.2762854 30.8102319,35.2981083 30.6254155,35.3161359 C30.5578228,35.3227777 30.4916482,35.3298939 30.4240555,35.3355868 C30.2401845,35.3502935 30.0586769,35.3588329 29.877642,35.3635771 C29.8157214,35.3654747 29.7528555,35.36927 29.6904622,35.3702188 C29.5481867,35.3711676 29.4096927,35.3635771 29.2702532,35.3593074 C29.2787614,35.3341636 29.2849062,35.3118662 29.2934143,35.2871968 C29.3146848,35.2203048 29.3359552,35.1538872 29.3562803,35.0860464 C29.3766053,35.0201032 29.3959851,34.9546344 29.4134741,34.8905889 C29.4347445,34.8165807 29.4550696,34.7430469 29.4744493,34.6699875 C29.4843755,34.630137 29.493829,34.5921841 29.5032825,34.5542312 C29.5198262,34.4840183 29.5354245,34.4152286 29.5505501,34.3473878 C29.5562222,34.3193975 29.562367,34.289984 29.5680391,34.2629425 C29.5864735,34.1694835 29.6020718,34.0774477 29.6143614,33.9906304 C29.6327958,33.8535255 29.6446127,33.7263832 29.6531208,33.6044595 C29.6550115,33.577418 29.6569022,33.5499022 29.6587929,33.5238095 C29.6654104,33.403309 29.6687191,33.2885015 29.6654104,33.1817589 C31.8312122,32.3785803 33.5805863,31.9402242 34.6351266,31.9402242 C34.7811836,31.9402242 34.9121148,31.9487636 35.0246117,31.9663168 L35.5516456,32.0460179 C36.2984738,32.1589278 37.3133093,32.3131115 37.9622935,32.4786811 C37.3298529,32.9307952 36.209138,33.6063571 34.8289238,34.190832 Z"
				id="Shape"></path>
		</g>
	</g>
</svg>
