<?xml version="1.0" encoding="UTF-8"?>
<svg width="48px" height="48px" viewBox="0 0 48 48" version="1.1" xmlns="http://www.w3.org/2000/svg"
		 xmlns:xlink="http://www.w3.org/1999/xlink">
	<!-- Generator: Sketch 43.1 (39012) - http://www.bohemiancoding.com/sketch -->
	<title>peruvian</title>
	<desc>Created with Sketch.</desc>
	<defs></defs>
	<g id="UI-KIT" stroke="none" stroke-width="1" fill="none" fill-rule="evenodd">
		<g id="peruvian" fill-rule="nonzero" fill="#455A64">
			<path
				d="M22.5081992,35.5222426 C21.8660576,35.5222426 21.2768651,35.2687156 20.8076402,34.7915907 C20.164419,34.1373572 19.756712,33.0946106 19.5314858,31.8066945 C19.3897443,30.9961704 19.3421843,30.2414229 19.3446925,29.6697298 L19.3446925,24.0984706 C19.3446925,21.6123566 18.0569136,20.3747135 15.4631963,20.3747135 C15.1849213,20.3747135 14.9200376,20.3911731 14.677592,20.4185812 C14.5337209,20.4348457 14.4292827,20.4510471 14.3750596,20.461385 C14.2922812,20.4781286 14.2042952,20.4802744 14.1151789,20.4684172 L13.666632,20.4030349 C13.2840715,20.347193 13,20.0155361 13,19.6253206 L13,16.5787842 C13,16.4393828 13.0369055,16.3020999 13.106765,16.1816918 C16.3895738,10.5224667 19.9880347,7.64058881 23.8074645,7.64058881 C26.6468873,7.64058881 29.3051032,9.19775729 31.7155306,11.801314 C32.5681645,12.722263 33.3330578,13.7161868 34.0016613,14.7209975 C34.4204312,15.3503458 34.7249864,15.8656672 34.9069021,16.205538 C34.9682234,16.3201464 35,16.448061 35,16.5787842 L35,24.8111721 C35,25.2192019 34.690314,25.559751 34.2878184,25.5931332 C32.5219319,25.7426433 30.117841,28.155075 28.5908659,30.5585685 C26.1152439,33.900678 24.1411816,35.5222426 22.5081992,35.5222426 Z M15.4631963,18.8040926 C18.9046862,18.8040926 20.8992202,20.7447455 20.8992202,24.0984706 L20.8992185,29.6627599 C20.8921723,31.1749534 21.2394965,33.0030432 21.9110044,33.6849578 C22.0929321,33.8696549 22.2786473,33.9520253 22.5081992,33.9520253 C23.4572236,33.9520253 25.0284817,32.7468835 27.3137152,29.6661265 C27.6778274,29.0816745 28.4021061,28.0892661 29.2704129,27.1300615 C30.6568823,25.5984513 32.0703809,24.5277254 33.4461773,24.1562235 L33.4655589,16.8200616 C33.2096313,16.3721474 32.859699,15.8141109 32.4237752,15.1926875 C31.7876849,14.2859204 31.0832633,13.4116279 30.3195147,12.6177418 C28.2533091,10.4700036 26.0575986,9.21080612 23.8074645,9.21080612 C20.6239899,9.21080612 17.5018873,11.7648716 14.5549267,16.751915 L14.5549267,18.8518699 C14.8349134,18.8219415 15.1408238,18.8040926 15.4631963,18.8040926 Z M26.2611447,9.38918327 C24.7909924,9.38918327 23.5960355,8.18065803 23.5960355,6.69459164 C23.5960355,5.20852524 24.7909924,4 26.2611447,4 C27.7312969,4 28.9262538,5.20852524 28.9262538,6.69459164 C28.9262538,8.18065803 27.7312969,9.38918327 26.2611447,9.38918327 Z M26.2611447,5.57021731 C25.6495195,5.57021731 25.1505632,6.07483912 25.1505632,6.69418807 C25.1505632,7.31353702 25.6495195,7.81815882 26.2611447,7.81815882 C26.8729148,7.81815882 27.3717261,7.31379407 27.3717261,6.69418807 C27.3717261,6.07458206 26.8729148,5.57021731 26.2611447,5.57021731 Z M22.4854541,44 C21.0153018,44 19.8203449,42.7914748 19.8203449,41.3054084 C19.8203449,39.8191367 21.0151055,38.6104132 22.4854541,38.6104132 C23.9556717,38.6104132 25.1505632,39.8190045 25.1505632,41.3054084 C25.1505632,42.7914748 23.9556063,44 22.4854541,44 Z M22.4854541,40.1818412 C21.8734299,40.1818412 21.3748726,40.6860594 21.3748726,41.3058119 C21.3748726,41.9252161 21.8734844,42.4293791 22.4854541,42.4293791 C23.0971697,42.4293791 23.5960355,41.9250696 23.5960355,41.3058119 C23.5960355,40.6862059 23.0972242,40.1818412 22.4854541,40.1818412 Z M23.1147358,39.0958391 L21.8561723,39.0958391 L21.7081902,38.9469558 L21.7081902,34.7369322 L21.8561723,34.5880488 L23.1147358,34.5880488 L23.2627179,34.7369322 L23.2627179,38.9469558 L23.1147358,39.0958391 Z M23.9283728,15.561759 L23.5349221,15.561759 C20.0776816,15.561759 17.4884817,14.919486 15.6532458,13.8949329 C15.2776378,13.6855541 15.1415085,13.2076957 15.34897,12.8283349 C15.5559097,12.4482173 16.0294043,12.309743 16.4057043,12.5206751 C17.965691,13.3916969 20.3072064,13.9911381 23.5353211,13.9911381 L23.9287718,13.9911381 C27.4176061,13.9911381 29.8430819,13.2947568 31.3339442,12.357892 C31.6983257,12.1290013 32.1776502,12.2424837 32.4049156,12.6109356 C32.6309282,12.9789527 32.5190206,13.4630785 32.1546696,13.6916407 C30.3853528,14.8027103 27.690875,15.561759 23.9283728,15.561759 Z M23.9283728,17.5800036 L23.5349221,17.5800036 C20.1824908,17.5800036 17.2345149,16.9089343 14.7751834,15.5840538 C14.3963729,15.3797939 14.2528418,14.9044422 14.4544423,14.5225233 C14.6550993,14.1400297 15.1267825,13.994958 15.5063152,14.1976398 C17.7368661,15.3992834 20.4379468,16.0093828 23.5353211,16.0093828 L23.9287718,16.0093828 C27.0254084,16.0093828 29.7255111,15.3995707 31.9569293,14.1982597 C32.3363355,13.9951756 32.807481,14.14033 33.0083836,14.5227937 C33.2095549,14.9053299 33.0661417,15.3801374 32.68762,15.5845071 C30.2271284,16.9089808 27.2796607,17.5800036 23.9283728,17.5800036 Z"
				id="Combined-Shape"></path>
		</g>
	</g>
</svg>
