<?xml version="1.0" encoding="UTF-8"?>
<svg width="48px" height="48px" viewBox="0 0 48 48" version="1.1" xmlns="http://www.w3.org/2000/svg"
		 xmlns:xlink="http://www.w3.org/1999/xlink">
	<!-- Generator: Sketch 43.1 (39012) - http://www.bohemiancoding.com/sketch -->
	<title>peruvean</title>
	<desc>Created with Sketch.</desc>
	<defs></defs>
	<g id="UI-KIT" stroke="none" stroke-width="1" fill="none" fill-rule="evenodd">
		<g id="peruvean" fill="#455A64">
			<path
				d="M35.7898743,30.4500978 L35.2675672,30.3703967 C33.7644573,30.1388839 31.1094358,30.9273557 29.0537676,31.6887861 C28.8467355,31.467236 28.591963,31.2504299 28.288505,31.0032616 C28.0781642,30.8319991 27.4476143,30.3239044 23.7730305,29.5069679 C23.696457,29.1919587 23.5839601,28.8665125 23.4156874,28.5728518 C23.2247262,28.2364941 22.9023612,27.9361917 22.4741166,27.6695724 C23.5754519,27.4451758 23.8505494,26.1452885 23.9096339,25.1466524 C24.0192947,25.1513965 24.1284829,25.1585127 24.2381437,25.1585127 C25.6689342,25.1585127 27.0259872,24.6973848 28.0573664,23.8595742 C29.3312284,22.8248829 30.4788859,21.5506138 30.2501107,19.2487695 C30.0515868,17.2562415 24.7212187,9.2239815 22.9373392,8.23008955 C22.6641324,8.07732906 22.3483848,8 21.9995499,8 C20.5177104,8 18.5438151,9.427504 16.6337311,10.8080413 C15.844362,11.3792326 15.0984792,11.918164 14.5648279,12.2122991 C12.9823084,13.0842673 12.1054943,13.9481706 11.8847546,14.8523987 C11.8190526,15.119018 11.8247247,15.3448378 11.854976,15.528435 C10.251186,16.9445532 8.86577247,19.3365356 8.26263781,21.1525826 C7.90056793,22.2413568 7.91285751,23.1764218 8.29950654,23.9312103 C8.62801641,24.5740378 9.13661586,24.8928423 9.42967503,25.0318449 C9.32095953,27.5457511 10.0536074,30.025974 10.3925162,31.0231869 C10.7952362,32.206369 11.5179579,32.6523157 12.126292,32.806025 C13.0262673,34.6182767 14.3587411,36.0528969 16.1033885,37.0629188 C16.5954443,37.3485145 17.1040438,37.4927356 17.6145339,37.4927356 C17.7015063,37.4927356 17.7809159,37.4808753 17.8626889,37.4732847 C20.233632,39.1745241 22.4840428,39.4207436 24.5694897,39.4207436 L25.3238807,39.4169483 C25.4708829,39.4169483 25.6098497,39.418846 25.7440897,39.4226413 L25.8901466,39.4245389 C26.5731635,39.4245389 27.129976,39.2746249 27.5563298,38.9823875 C29.0410053,39.5995968 31.1061271,40 32.9018235,40 C35.3706106,40 37.8327803,38.6303742 38.4983082,37.4006998 C38.6533459,37.1136808 38.6746164,36.7825417 38.5592834,36.4675325 C38.472311,36.2312756 38.2908034,35.7483247 36.8595403,35.0144102 C38.3097104,34.2581984 39.3354175,33.4958192 39.6473837,33.1585127 C40.1106063,32.6580087 40.0075629,32.1650952 39.9418609,31.9762794 C39.6256406,31.0692048 38.3711583,30.8410129 35.7898743,30.4500978 Z M15.3385986,13.6265196 C15.958277,13.2849434 16.7429192,12.7175473 17.5738838,12.1169424 C19.0353982,11.0604282 21.0367087,9.61347328 21.9995499,9.61347328 C22.0685606,9.61347328 22.126227,9.62343592 22.1574237,9.64051474 C23.4681544,10.3711083 28.5064087,17.9493566 28.6510476,19.4091206 C28.7810335,20.7189705 28.3759501,21.52547 27.0463123,22.6057048 C26.6142864,22.9567693 25.6746063,23.5459883 24.2381437,23.5459883 C23.9805353,23.5459883 23.7200908,23.5255886 23.4591736,23.4871612 L23.2597043,23.451106 C22.6910749,23.3491075 22.1139375,23.1560221 21.5363273,22.8813378 C21.5013493,22.864259 21.4663712,22.848129 21.4299752,22.8305758 C21.2470495,22.7404376 21.0645966,22.6436577 20.8816709,22.5364407 C20.7332507,22.4496234 20.5796309,22.3490482 20.4245932,22.2437289 C20.348965,22.1915436 20.2695554,22.1346142 20.1910912,22.0776849 C20.1201898,22.025974 20.046925,21.9733144 19.9741329,21.9182826 C19.8635267,21.8343118 19.7515024,21.7484433 19.6371148,21.6564075 C19.612063,21.6364822 19.5874838,21.6160825 19.562432,21.5956829 C18.8368742,21.0074127 18.0503413,20.2734982 17.2600269,19.4750637 C17.217486,19.4323667 17.1749452,19.3896697 17.1324043,19.3469727 C17.0383418,19.2506671 16.9442792,19.1529384 16.8487987,19.0552096 C16.7169221,18.9171559 16.5836274,18.7791022 16.4545868,18.6419973 C16.4460787,18.6334579 16.4380432,18.6249185 16.4304804,18.6163791 C15.003944,17.0996857 13.8198904,15.667912 13.4521484,15.2162723 C13.5060335,15.0445354 13.7957839,14.4761905 15.3385986,13.6265196 Z M10.2856914,23.6498844 L10.2228255,23.611457 L10.2091179,23.6071873 L9.93780181,23.453478 C9.8669004,23.392279 9.78938152,23.3121034 9.72935166,23.1949238 C9.55115278,22.8452826 9.5705325,22.3158394 9.78749082,21.6630493 C10.2871094,20.1577418 11.4428024,18.1163494 12.746443,16.8895214 C13.9002453,18.2667378 16.3496527,21.0738303 18.5792658,22.872324 C18.5821018,22.8746961 18.5849379,22.8770681 18.5887193,22.8794402 C18.7532106,23.0122754 18.9162838,23.1398921 19.0788844,23.260867 C19.0845565,23.2656111 19.0907013,23.2708296 19.0973188,23.2750993 C19.2495205,23.3880093 19.3993588,23.4942774 19.5477791,23.5948526 C19.5775577,23.6152523 19.6078089,23.6351776 19.6371148,23.6551029 C19.7822264,23.750934 19.9240292,23.8429698 20.064414,23.925043 C20.0663047,23.9259918 20.0681954,23.9274151 20.0700861,23.9283639 C20.0795396,23.9340568 20.0885205,23.9383265 20.097974,23.943545 C20.2714461,24.0445947 20.4449182,24.139477 20.618863,24.2277175 C20.6410788,24.2395778 20.6642399,24.249066 20.6874011,24.2604519 C20.8518923,24.3425251 21.0168563,24.4198541 21.1813476,24.4910158 C21.1912738,24.4952855 21.2007273,24.4990808 21.2111262,24.5028761 C21.5774501,24.6599063 21.9451921,24.7870486 22.3105707,24.8880982 C22.2784287,25.6969697 22.1418254,26.0072348 22.0860496,26.1021171 C21.9825335,26.1120797 21.8000805,26.1253632 21.522147,26.132005 L21.438956,26.1329538 C21.3458388,26.1348514 21.2479949,26.1358003 21.1444788,26.1358003 L21.0929571,26.1358003 C21.004094,26.1358003 20.9100315,26.1339026 20.815969,26.132005 C20.2870444,26.1220423 19.2594467,26.0821918 17.9974015,25.9384451 C16.4087373,25.7548479 14.6248578,25.4260808 12.9908166,24.8805076 C12.9586746,24.870545 12.9279507,24.8582103 12.8958087,24.8482476 C12.7497518,24.7984344 12.6070036,24.7453004 12.4628374,24.6916919 C11.8360689,24.455435 11.2277348,24.182174 10.6624142,23.8624207 L10.2856914,23.6498844 Z M12.6906673,31.2637135 L12.6887766,31.2637135 L12.591878,31.2599182 C12.3971354,31.2338255 12.1210926,31.1100042 11.9140605,30.5018087 C11.3841906,28.9462136 11.0760058,27.2900433 11.0325196,25.8549487 C14.6938685,27.4717429 19.244321,27.7098974 20.7214337,27.7431062 L20.7086715,27.7801103 C20.7077261,27.7858032 20.7048901,27.7900729 20.7029994,27.7948171 C20.6770022,27.8659788 20.6311526,27.9513728 20.5101475,28.0386645 L20.5101475,28.0396134 C20.4676067,28.0699757 20.4170304,28.1008124 20.3541644,28.1302259 C18.5041103,29.0306588 14.0117969,30.8016367 13.96642,30.8191899 L13.8132729,30.8998399 C13.6988853,30.9776434 13.1808323,31.2637135 12.6906673,31.2637135 Z M17.8754511,35.8446303 C17.7941508,35.8650299 17.7081238,35.8797367 17.6140612,35.8797367 C17.3904855,35.8797367 17.1522567,35.808575 16.9069378,35.6657771 C15.6283491,34.9261697 14.6102048,33.9170966 13.8676307,32.6599063 C14.2183563,32.530392 14.4925085,32.3752594 14.6262758,32.2931863 C15.0611378,32.1209749 17.2122866,31.2684576 19.0670675,30.4742928 C19.3346022,30.3604341 19.5978827,30.2465753 19.846983,30.1369863 C19.864472,30.1293957 19.8810157,30.1213307 19.8985047,30.1137401 C20.3333667,29.9220779 20.7313599,29.7403783 21.0541977,29.5828737 C21.1870197,29.5188282 21.3099155,29.4457688 21.4243031,29.3651189 C21.5386907,29.284469 21.6431521,29.1967028 21.7372146,29.1018206 C21.9272304,29.2351302 21.9976591,29.3333333 22.0198749,29.3731839 C22.1640411,29.626994 22.2387239,29.967147 22.2784287,30.2755144 L22.2793741,30.2840538 C22.3006445,30.4463026 22.3105707,30.5952677 22.3152975,30.711973 L18.4341542,35.5405325 C18.390668,35.5818063 18.1779638,35.7687244 17.8754511,35.8446303 Z M28.0233337,33.7610152 C28.0223884,33.7648105 28.0223884,33.767657 28.021443,33.7719267 C28.0167163,33.802289 28.0077354,33.8388187 28.0020633,33.8701299 C27.9670853,34.0779221 27.9098915,34.3212951 27.8219737,34.6087885 C27.8101568,34.648639 27.7950312,34.6913361 27.7822689,34.7311866 C27.7435095,34.8545336 27.701914,34.9802526 27.6546464,35.1149855 C27.6343213,35.1723893 27.6130509,35.229793 27.5917805,35.2871968 C27.5426222,35.4214553 27.4911005,35.559509 27.434852,35.7042045 C27.4211444,35.7383621 27.4069641,35.7729941 27.3942019,35.8071518 C27.2093855,36.2706517 27.0368588,36.6625156 26.9465776,36.8608195 C26.9253072,36.9082607 26.9002554,36.962818 26.8827664,37.0007709 L26.881821,37.0036174 L26.7896492,37.1687126 L26.7915399,37.1948052 L26.7896492,37.1995493 L26.8061928,37.3883651 C26.8052475,37.4030718 26.8005207,37.4865682 26.746163,37.5624741 C26.7395455,37.5724367 26.7334007,37.5838226 26.7248926,37.5928364 C26.5967973,37.7327878 26.2928666,37.8124889 25.8901466,37.8124889 L25.7913573,37.8115401 C25.6434097,37.8067959 25.4874266,37.8058471 25.3243534,37.8058471 L24.5699623,37.8086936 C23.0890682,37.8086936 21.3940518,37.7085928 19.5808664,36.6701061 C19.6059182,36.6459112 19.6215165,36.6283579 19.6300247,36.6207674 L19.6484591,36.5965724 C19.6522405,36.5927771 19.6593306,36.5856609 19.6612213,36.5828144 L23.8505494,31.3718793 L23.9143606,31.2940758 L23.918142,31.193975 C26.1586266,31.7158276 27.0827083,32.1001008 27.2840684,32.2642472 C27.6900971,32.5949119 27.8980746,32.7685465 27.9959185,32.9469252 L28.0105715,32.9810828 C28.0488582,33.0707466 28.0904537,33.2495997 28.0233337,33.7610152 Z M36.8746659,36.8916563 C36.2828754,37.4747079 34.6994106,38.3870011 32.9022962,38.3870011 C31.4407817,38.3870011 29.6701372,38.0634525 28.4019473,37.5861946 C28.403838,37.5686414 28.4057287,37.552037 28.4076194,37.5354326 C28.4667039,37.4040206 28.5588757,37.1971773 28.6671185,36.944316 C28.6921704,36.9462136 28.7176949,36.9462136 28.7427467,36.9481112 C28.8533529,36.9566507 28.9663225,36.9599715 29.0788194,36.9656645 C29.2173135,36.9723062 29.3548622,36.9784736 29.495247,36.9803712 C29.5340065,36.9803712 29.5708752,36.9841665 29.6096346,36.9841665 C29.6899896,36.9841665 29.7693991,36.9765759 29.8497541,36.9746783 C30.0085732,36.9718318 30.166447,36.9661389 30.3271569,36.9571251 C30.4571428,36.9485857 30.5866561,36.938623 30.7156966,36.9267627 C30.8570268,36.9139536 30.9983569,36.8978236 31.1411051,36.8793216 C31.2824353,36.8617684 31.4237654,36.8432663 31.5632048,36.820969 C31.6832646,36.8024669 31.8033243,36.7792208 31.923384,36.7569234 C32.0869299,36.7270355 32.2500032,36.6966732 32.410713,36.6615667 C32.4882319,36.6440135 32.5666962,36.6245627 32.644215,36.6060606 C32.8512471,36.5567218 33.0568612,36.5069086 33.2591666,36.4504537 C33.2757103,36.4447607 33.2931993,36.4395422 33.3106883,36.4347981 C33.8637193,36.2782423 34.3964252,36.0974915 34.9050247,35.9001364 C35.9846168,36.3356461 36.5877515,36.6795944 36.8746659,36.8916563 Z M34.8289238,34.190832 L34.5982579,34.2852399 C33.748859,34.6315602 32.9160038,34.8958074 32.1091457,35.077507 C32.0831485,35.0831999 32.057624,35.0874696 32.0316268,35.0931625 C31.8080511,35.1425013 31.587784,35.1828263 31.368935,35.219356 C31.3079598,35.2293186 31.2469846,35.2388069 31.1860093,35.2473463 C30.9969389,35.2762854 30.8102319,35.2981083 30.6254155,35.3161359 C30.5578228,35.3227777 30.4916482,35.3298939 30.4240555,35.3355868 C30.2401845,35.3502935 30.0586769,35.3588329 29.877642,35.3635771 C29.8157214,35.3654747 29.7528555,35.36927 29.6904622,35.3702188 C29.5481867,35.3711676 29.4096927,35.3635771 29.2702532,35.3593074 C29.2787614,35.3341636 29.2849062,35.3118662 29.2934143,35.2871968 C29.3146848,35.2203048 29.3359552,35.1538872 29.3562803,35.0860464 C29.3766053,35.0201032 29.3959851,34.9546344 29.4134741,34.8905889 C29.4347445,34.8165807 29.4550696,34.7430469 29.4744493,34.6699875 C29.4843755,34.630137 29.493829,34.5921841 29.5032825,34.5542312 C29.5198262,34.4840183 29.5354245,34.4152286 29.5505501,34.3473878 C29.5562222,34.3193975 29.562367,34.289984 29.5680391,34.2629425 C29.5864735,34.1694835 29.6020718,34.0774477 29.6143614,33.9906304 C29.6327958,33.8535255 29.6446127,33.7263832 29.6531208,33.6044595 C29.6550115,33.577418 29.6569022,33.5499022 29.6587929,33.5238095 C29.6654104,33.403309 29.6687191,33.2885015 29.6654104,33.1817589 C31.8312122,32.3785803 33.5805863,31.9402242 34.6351266,31.9402242 C34.7811836,31.9402242 34.9121148,31.9487636 35.0246117,31.9663168 L35.5516456,32.0460179 C36.2984738,32.1589278 37.3133093,32.3131115 37.9622935,32.4786811 C37.3298529,32.9307952 36.209138,33.6063571 34.8289238,34.190832 Z"
				id="Shape"></path>
		</g>
	</g>
</svg>
