<?xml version="1.0" encoding="UTF-8"?>
<svg width="48px" height="48px" viewBox="0 0 48 48" version="1.1" xmlns="http://www.w3.org/2000/svg"
		 xmlns:xlink="http://www.w3.org/1999/xlink">
	<!-- Generator: Sketch 43.1 (39012) - http://www.bohemiancoding.com/sketch -->
	<title>pizza</title>
	<desc>Created with Sketch.</desc>
	<defs></defs>
	<g id="UI-KIT" stroke="none" stroke-width="1" fill="none" fill-rule="evenodd">
		<g id="pizza" fill-rule="nonzero" fill="#455A64">
			<path
				d="M39.2536424,21.8686584 C39.8618577,22.4755406 40.1113588,23.2779263 39.9540003,24.1212219 C39.7123441,25.4226444 38.65588,26.0840099 36.0381404,27.0963017 C35.9540061,27.1288792 35.9540061,27.1288792 35.8730054,27.160626 C35.831107,27.1770555 8,40 8,40 L8.16873796,39.6354369 L20.464531,13.1067604 C20.4614061,12.9924317 20.4775458,12.8902044 20.5201604,12.7952116 C20.6082996,12.5972555 20.677312,12.4247599 20.8617378,11.9502674 C21.8760417,9.34006546 22.5390452,8.28610641 23.8431557,8.04468126 C24.6844175,7.88972415 25.4966437,8.1414108 26.0999343,8.743781 L39.2536424,21.8686584 Z M17.5062482,25.4201878 C17.8380563,25.0894563 18.0204349,24.6499635 18.0204349,24.1817238 C18.0204349,23.7135828 17.8380125,23.2742969 17.506193,22.9432046 C17.4991366,22.9361637 17.4920135,22.9291725 17.4848236,22.9222307 L16.0952477,25.9247437 C16.6123932,25.9724374 17.1364844,25.7888311 17.5062482,25.4201878 Z M10.9368237,37.0689107 L24.0781766,31.0125401 C23.7760301,30.8864842 23.5005986,30.7029153 23.2654983,30.4683303 C22.2710784,29.4756878 22.2710784,27.8617985 23.2655195,26.8691348 C23.7472082,26.3885019 24.3879729,26.1236482 25.0688079,26.1236482 C25.7494493,26.1236482 26.3906504,26.3887441 26.872123,26.8691614 C27.555574,27.5514618 27.7797654,28.5469217 27.4972151,29.4374699 L33.6888716,26.5841134 L21.444662,14.3671107 L18.1055732,21.5815249 C18.2538534,21.6860839 18.3925406,21.8025493 18.5210539,21.9307809 C19.1235435,22.5319499 19.4554699,23.3317223 19.4554699,24.1821026 C19.4554699,25.0320356 19.1232124,25.8322068 18.5206743,26.4334243 C17.9181622,27.0346158 17.1163932,27.3660358 16.2644904,27.3660358 C16.0044954,27.3660358 15.7404919,27.3304484 15.4762062,27.2620615 L10.9368237,37.0689107 Z M24.2796212,29.4559278 C24.6987272,29.8741151 25.4378875,29.8741151 25.8579544,29.455968 C26.2924773,29.0220632 26.2924773,28.3161807 25.8579947,27.8823162 C25.6470084,27.6717923 25.3672368,27.556191 25.0688079,27.556191 C24.7703791,27.556191 24.4906075,27.6717923 24.2796212,27.8823162 C23.8447724,28.3162118 23.8447724,29.0220321 24.2796212,29.4559278 Z M35.5201241,25.760873 C37.51132,24.990639 38.4273008,24.485224 38.5436858,23.8595942 C38.613356,23.4851405 38.5094053,23.150734 38.2395392,22.8814595 L25.0862123,9.75658354 C24.8189587,9.48991567 24.4763669,9.38379142 24.1052811,9.45260905 C23.4776213,9.56880984 22.9708035,10.4830707 22.199924,12.468221 C22.1213197,12.6696114 22.0719206,12.7954794 22.0266066,12.9090854 L35.0793863,25.9328809 C35.1976045,25.8858515 35.3292756,25.8345628 35.5201241,25.760873 Z M14.5833733,30.9969355 C15.2197473,30.3623729 16.3206839,30.3623729 16.9569892,30.9968669 C17.2739163,31.3130993 17.4487598,31.7344209 17.4487598,32.1815011 C17.4487598,32.6292202 17.2739975,33.0502371 16.9569892,33.3661354 C16.6398919,33.6825377 16.2181032,33.8570716 15.7702156,33.8570716 C15.322328,33.8570716 14.9005394,33.6825377 14.5835108,33.3662039 C14.2665292,33.0503322 14.0916715,32.6289764 14.0916715,32.1815011 C14.0916715,31.7345187 14.2665536,31.3134762 14.5833733,30.9969355 Z M15.942374,32.3530879 C15.9888799,32.3066837 16.0141044,32.2461796 16.0141044,32.1815011 C16.0141044,32.1168227 15.9888799,32.0563186 15.9422391,32.0097794 C15.8965842,31.9639897 15.8356661,31.9388523 15.7702156,31.9388523 C15.705181,31.9388523 15.6442135,31.9640971 15.5979233,32.0100483 C15.5517706,32.0560998 15.5267065,32.1165132 15.5267065,32.1815011 C15.5267065,32.2464891 15.5517706,32.3069025 15.5980573,32.3530879 C15.6883544,32.4434181 15.8520768,32.4434181 15.942374,32.3530879 Z M24.2127483,23.9110441 C23.6351885,23.9110441 23.0908442,23.6859755 22.6820845,23.2781117 C22.2731683,22.8704981 22.0475219,22.327146 22.0475219,21.7502369 C22.0475219,21.1735345 22.2730174,20.6301815 22.6816527,20.2220354 C23.0905024,19.8140817 23.6348623,19.5890509 24.2127483,19.5890509 C24.7906999,19.5890509 25.3350703,19.8141303 25.7435148,20.2220858 C26.5875716,21.065106 26.5875716,22.4358024 25.7435164,23.2780076 C25.3350703,23.6859647 24.7906999,23.9110441 24.2127483,23.9110441 Z M23.6965136,21.2348379 C23.5583332,21.3730311 23.482621,21.5554778 23.4829365,21.7498581 C23.4829365,21.9442234 23.5587549,22.1267272 23.6968333,22.2648185 C23.9709146,22.5379862 24.4557208,22.5379862 24.7296842,22.2649362 C25.0139375,21.9809912 25.0138397,21.5186915 24.7292427,21.2347182 C24.5915616,21.0970238 24.4082783,21.0212149 24.2131279,21.0212149 C24.0179905,21.0212149 23.8346347,21.0970196 23.6965136,21.2348379 Z"
				id="Combined-Shape"></path>
		</g>
	</g>
</svg>
