<?xml version="1.0" encoding="UTF-8"?>
<svg width="48px" height="48px" viewBox="0 0 48 48" version="1.1" xmlns="http://www.w3.org/2000/svg"
		 xmlns:xlink="http://www.w3.org/1999/xlink">
	<!-- Generator: Sketch 43.1 (39012) - http://www.bohemiancoding.com/sketch -->
	<title>pizza-green</title>
	<desc>Created with Sketch.</desc>
	<defs></defs>
	<g id="UI-KIT" stroke="none" stroke-width="1" fill="none" fill-rule="evenodd">
		<g id="pizza-green" fill-rule="nonzero" fill="#39CE7B">
			<path
				d="M15.8460118,25.4408812 L14.9841854,27.3027551 L15.1504309,27.3521609 C15.4602671,27.4442399 15.7705077,27.4924626 16.0753166,27.4924626 C16.9393932,27.4924626 17.7526196,27.1563121 18.3637417,26.5465393 C18.9748902,25.9367403 19.3118957,25.1251477 19.3118957,24.263083 C19.3118957,23.4005647 18.975226,22.5893766 18.3641267,21.9796267 C18.2029887,21.8188445 18.0260808,21.6763 17.8345165,21.5522614 L17.6894573,21.4583351 L17.2047759,22.5054321 L17.353853,22.6231528 C17.4220519,22.677007 17.4863241,22.7339317 17.5466607,22.7941351 C17.9395993,23.186206 18.1563538,23.7081576 18.1563538,24.2626988 C18.1563538,24.8173394 17.9396395,25.3395651 17.5466161,25.7313071 C17.0546419,26.2217824 16.3351535,26.4353752 15.6533924,26.2964966 L15.4675441,26.2586383 L15.8460118,25.4408812 Z M40.1014793,24.1486067 C39.8588666,25.4551805 38.917418,26.1436969 36.0923031,27.2361817 C35.9775659,27.2807548 35.9775659,27.2807548 35.927765,27.3002734 C35.9141659,27.3056059 30.2460137,29.9162814 21.9992898,33.7154627 C18.9486732,35.1208506 15.682814,36.625466 12.4170525,38.1300814 C10.5664623,38.9826969 10.5664623,38.9826969 9.26018215,39.584543 C8.2804782,40.0359276 8.2804782,40.0359276 8.0627692,40.1362352 L7.69274655,40.30672 L7.86387409,39.9369941 L8.03264531,39.5723593 L20.314587,13.1108587 C20.3107689,12.9711699 20.3321679,12.8477967 20.3831295,12.7341992 C20.4667918,12.5462978 20.5305279,12.3883598 20.7219231,11.8959366 C21.8166083,9.07888191 22.5068858,8.13951122 23.8159834,7.8971629 C24.7056306,7.7332934 25.5676659,8.00035438 26.2058839,8.63759868 L39.359592,21.7624761 C40.0028621,22.4043363 40.2678991,23.2567518 40.1014793,24.1486067 Z M23.9930874,29.8245514 C24.5352437,30.3655106 25.4743599,30.3655106 26.0176843,29.8246777 C26.5759452,29.2672203 26.5759452,28.3610771 26.0178519,27.8037867 C25.7475435,27.5340752 25.3875583,27.3853321 25.0054492,27.3853321 C24.6233402,27.3853321 24.2633549,27.5340752 23.9930874,27.8037459 C23.4345545,28.3610456 23.4345545,29.2672518 23.9930874,29.8245514 Z M14.370176,31.1751887 C14.0488289,31.4962476 13.8714477,31.9232999 13.8714477,32.3766624 C13.8714477,32.8305248 14.0488041,33.2578949 14.3703154,33.5782753 C14.6918744,33.8991243 15.1196905,34.0761494 15.5739785,34.0761494 C16.0282665,34.0761494 16.4560826,33.8991243 16.7777113,33.5782057 C17.0992497,33.2577984 17.2765093,32.8307721 17.2765093,32.3766624 C17.2765093,31.9232007 17.0991673,31.4958653 16.7777113,31.1751191 C16.1323131,30.5315685 15.0156439,30.5315685 14.370176,31.1751887 Z M15.9606303,32.7629289 C15.7520129,32.9716196 15.3959441,32.9716196 15.1873267,32.7629289 C15.0841115,32.6599416 15.0269896,32.5222599 15.0269896,32.3766624 C15.0269896,32.2310649 15.0841115,32.0933832 15.1876,31.9901239 C15.2908908,31.8875897 15.4286465,31.8305501 15.5739785,31.8305501 C15.7198582,31.8305501 15.8581503,31.8876144 15.9606303,31.9903959 C16.0639363,32.0934738 16.1213525,32.2311913 16.1213525,32.3766624 C16.1213525,32.5221335 16.0639363,32.6598511 15.9606303,32.7629289 Z M24.1371563,23.9881555 C24.723367,23.9881555 25.2755165,23.7598635 25.6897994,23.3460832 C26.5459163,22.4918567 26.5459163,21.1015954 25.6897977,20.2465422 C25.2755165,19.8327637 24.723367,19.6044716 24.1371563,19.6044716 C23.5510123,19.6044716 22.9988734,19.8327145 22.5841811,20.2464911 C22.1697064,20.6604629 21.9409885,21.2115716 21.9409885,21.7965057 C21.9409885,22.3816493 22.1698594,22.9327571 22.5846191,23.3461888 C22.9992201,23.7598744 23.5513431,23.9881555 24.1371563,23.9881555 Z M23.4015258,21.0615048 C23.5979931,20.8654713 23.8601787,20.7570779 24.1375414,20.7570779 C24.4149918,20.7570779 24.6772209,20.8655381 24.8730506,21.0613837 C25.2790233,21.46646 25.2791626,22.1255788 24.8733748,22.5309199 C24.4783015,22.9246699 23.7971663,22.9246699 23.4019109,22.5307381 C23.2055024,22.3343148 23.0969154,22.0729375 23.0969156,21.7963651 C23.096466,21.5195624 23.2049876,21.2580578 23.4015258,21.0615048 Z"
				id="Combined-Shape"></path>
		</g>
	</g>
</svg>
