<?xml version="1.0" encoding="UTF-8"?>
<svg width="48px" height="48px" viewBox="0 0 48 48" version="1.1" xmlns="http://www.w3.org/2000/svg"
		 xmlns:xlink="http://www.w3.org/1999/xlink">
	<!-- Generator: Sketch 43.1 (39012) - http://www.bohemiancoding.com/sketch -->
	<title>polish-green</title>
	<desc>Created with Sketch.</desc>
	<defs></defs>
	<g id="UI-KIT" stroke="none" stroke-width="1" fill="none" fill-rule="evenodd">
		<g id="polish-green" fill-rule="nonzero" fill="#39CE7B">
			<path
				d="M39.999375,11.771375 L36.229,8.0005 L34.0689375,11.5995 C33.024,10.9779375 31.8453125,10.6669375 30.6666875,10.6669375 C28.960625,10.6669375 27.2545625,11.3178125 25.9529375,12.6195 L11.121875,27.4510625 L11.138,27.4666875 C10.972,27.6111875 10.8094375,27.7635625 10.65075,27.92175 C7.5263125,31.046625 7.1039375,35.6890625 9.707375,38.2925 C10.8548125,39.4399375 12.3976875,39.9995 14.0324375,39.9995 C16.1075625,39.9995 18.331125,39.097125 20.078125,37.349125 C20.2373125,37.1909375 20.3886875,37.0288125 20.5331875,36.8628125 L20.5498125,36.8784375 L35.380375,22.0474375 C37.5815625,19.8463125 37.921375,16.4895 36.400875,13.931 L39.999375,11.771375 Z M36.493625,10.1508125 L37.849125,11.50675 L35.604,12.854375 C35.53175,12.7748125 35.4575,12.6966875 35.380375,12.6195625 C35.3041875,12.542875 35.225125,12.4686875 35.146,12.3964375 L36.493625,10.1508125 Z M14.0324375,38.6655 C13.3679375,38.6655 12.7405,38.5541875 12.16725,38.3325 C11.589625,38.108875 11.078875,37.7788125 10.65025,37.3500625 C9.6761875,36.3755625 9.2171875,34.9810625 9.35925,33.4234375 C9.431,32.628625 9.6541875,31.837625 10.0218125,31.0700625 C10.4080625,30.2634375 10.9368125,29.52125 11.5935625,28.865125 C13.0295625,27.428625 14.8898125,26.605375 16.697375,26.605375 L16.697375,26.605375 C17.3614375,26.605375 17.9893125,26.7166875 18.5615625,26.938375 C19.1396875,27.162 19.650375,27.4920625 20.079125,27.92175 C21.0536875,28.895375 21.5116875,30.2898125 21.370125,31.8474375 C21.297875,32.642375 21.0751875,33.43325 20.708,34.2008125 C20.3213125,35.0074375 19.792,35.749625 19.1358125,36.406875 C17.7003125,37.84325 15.8395,38.6655 14.0324375,38.6655 Z"
				id="Shape"></path>
			<path
				d="M18.6670625,29.33375 C19.03525,29.33375 19.3340625,29.0350625 19.3340625,28.665875 C19.3340625,28.2986875 19.03525,27.999875 18.6670625,27.999875 C18.2989375,27.999875 18.000125,28.2986875 18.000125,28.665875 C18.0000625,29.0350625 18.2989375,29.33375 18.6670625,29.33375 Z"
				id="Shape"></path>
			<path
				d="M14.6671875,31.99975 C15.0353125,31.99975 15.3336875,31.7009375 15.3336875,31.33375 C15.3336875,30.964625 15.035375,30.66575 14.6671875,30.66575 C14.299,30.66575 14.0006875,30.9645625 14.0006875,31.33375 C14.0006875,31.7009375 14.2990625,31.99975 14.6671875,31.99975 Z"
				id="Shape"></path>
			<path
				d="M17.334125,31.99975 C17.70225,31.99975 18.000125,31.7009375 18.000125,31.33375 C18.000125,30.964625 17.70225,30.66575 17.334125,30.66575 C16.9659375,30.66575 16.667125,30.9645625 16.667125,31.33375 C16.667125,31.7009375 16.9659375,31.99975 17.334125,31.99975 Z"
				id="Shape"></path>
			<path
				d="M20,30.66575 C19.6318125,30.66575 19.334,30.9645625 19.334,31.33375 C19.334,31.7009375 19.6318125,31.99975 20,31.99975 C20.3681875,31.99975 20.6669375,31.7009375 20.6669375,31.33375 C20.667,30.964625 20.3681875,30.66575 20,30.66575 Z"
				id="Shape"></path>
			<path
				d="M12.00075,31.99975 C12.3689375,31.99975 12.66725,31.7009375 12.66725,31.33375 C12.66725,30.964625 12.3689375,30.66575 12.00075,30.66575 C11.632625,30.66575 11.3338125,30.9645625 11.3338125,31.33375 C11.3338125,31.7009375 11.632625,31.99975 12.00075,31.99975 Z"
				id="Shape"></path>
			<path
				d="M14.6671875,35.999625 C14.299,35.999625 14.0006875,36.2984375 14.0006875,36.665625 C14.0006875,37.034625 14.299,37.3335 14.6671875,37.3335 C15.0353125,37.3335 15.3336875,37.0346875 15.3336875,36.665625 C15.3336875,36.2984375 15.0353125,35.999625 14.6671875,35.999625 Z"
				id="Shape"></path>
			<path
				d="M17.334125,35.999625 C16.9659375,35.999625 16.667125,36.2984375 16.667125,36.665625 C16.667125,37.034625 16.9659375,37.3335 17.334125,37.3335 C17.70225,37.3335 18.000125,37.0346875 18.000125,36.665625 C18.0000625,36.2984375 17.70225,35.999625 17.334125,35.999625 Z"
				id="Shape"></path>
			<path
				d="M12.00075,35.999625 C11.632625,35.999625 11.3338125,36.2984375 11.3338125,36.665625 C11.3338125,37.034625 11.632625,37.3335 12.00075,37.3335 C12.3689375,37.3335 12.66725,37.0346875 12.66725,36.665625 C12.66725,36.2984375 12.3689375,35.999625 12.00075,35.999625 Z"
				id="Shape"></path>
			<path
				d="M16.000625,29.33375 C16.3688125,29.33375 16.667125,29.0350625 16.667125,28.665875 C16.667125,28.2986875 16.3688125,27.999875 16.000625,27.999875 C15.6325,27.999875 15.3336875,28.2986875 15.3336875,28.665875 C15.3336875,29.0350625 15.6325,29.33375 16.000625,29.33375 Z"
				id="Shape"></path>
			<path
				d="M13.33375,29.33375 C13.702375,29.33375 14.0006875,29.0350625 14.0006875,28.665875 C14.0006875,28.2986875 13.702375,27.999875 13.33375,27.999875 C12.9655625,27.999875 12.66725,28.2986875 12.66725,28.665875 C12.66725,29.0350625 12.9655625,29.33375 13.33375,29.33375 Z"
				id="Shape"></path>
			<path
				d="M18.6670625,33.333625 C18.2989375,33.333625 18.000125,33.6315 18.000125,33.999625 C18.000125,34.36775 18.2989375,34.665625 18.6670625,34.665625 C19.03525,34.665625 19.3340625,34.36775 19.3340625,33.999625 C19.3340625,33.6315 19.0351875,33.333625 18.6670625,33.333625 Z"
				id="Shape"></path>
			<path
				d="M16.000625,33.333625 C15.6325,33.333625 15.3336875,33.6315 15.3336875,33.999625 C15.3336875,34.36775 15.6325,34.665625 16.000625,34.665625 C16.3688125,34.665625 16.667125,34.36775 16.667125,33.999625 C16.667125,33.6315 16.3688125,33.333625 16.000625,33.333625 Z"
				id="Shape"></path>
			<path
				d="M13.33375,33.333625 C12.9655625,33.333625 12.66725,33.6315 12.66725,33.999625 C12.66725,34.36775 12.9655625,34.665625 13.33375,34.665625 C13.702375,34.665625 14.0006875,34.36775 14.0006875,33.999625 C14.0006875,33.6315 13.702375,33.333625 13.33375,33.333625 Z"
				id="Shape"></path>
			<path
				d="M10.6673125,33.333625 C10.299125,33.333625 10.0008125,33.6315 10.0008125,33.999625 C10.0008125,34.36775 10.299125,34.665625 10.6673125,34.665625 C11.0354375,34.665625 11.3338125,34.36775 11.3338125,33.999625 C11.3338125,33.6315 11.0354375,33.333625 10.6673125,33.333625 Z"
				id="Shape"></path>
		</g>
	</g>
</svg>
