<?xml version="1.0" encoding="UTF-8"?>
<svg width="48px" height="48px" viewBox="0 0 48 48" version="1.1" xmlns="http://www.w3.org/2000/svg"
		 xmlns:xlink="http://www.w3.org/1999/xlink">
	<!-- Generator: Sketch 43.1 (39012) - http://www.bohemiancoding.com/sketch -->
	<title>russian-green</title>
	<desc>Created with Sketch.</desc>
	<defs></defs>
	<g id="UI-KIT" stroke="none" stroke-width="1" fill="none" fill-rule="evenodd">
		<g id="russian-green" fill-rule="nonzero" fill="#39CE7B">
			<path
				d="M36.6966,8.73254054 C40.7231333,8.73254054 44,12.3221622 44,16.7347027 C44,20.3303784 41.8238,23.3781622 38.8385667,24.3835676 C38.8749667,24.531027 38.9113667,24.684973 38.9469,24.8471351 C39.2818667,26.3174054 39.5154333,28.1574054 39.5878,29.8905946 L39.5995,30.1747027 C39.6155333,30.5444324 39.632,30.9262703 39.5891,31.3189189 C39.5436,31.7911351 39.4404667,32.2711351 39.2836,32.7385946 C39.2134,32.9647568 39.1328,33.1991351 39.0539333,33.4274595 C38.9928333,33.6043243 38.9330333,33.7772973 38.8788667,33.9463784 C38.7432333,34.3814054 38.6583,34.6979459 38.6054333,34.9695135 C38.5564667,35.2116757 38.5157333,35.4361081 38.4810667,35.6432432 L40.2100667,37.0188108 L36.7867333,39.7427027 L33.3634,37.0188108 L35.0924,35.6432432 C35.0573,35.4365405 35.0165667,35.212973 34.9684667,34.9725405 C34.9,34.6235676 34.7856,34.2387027 34.6928667,33.9416216 C34.6404333,33.7785946 34.5806333,33.6056216 34.5199667,33.4296216 C34.4411,33.2008649 34.3600667,32.9660541 34.2855333,32.7269189 C34.133,32.2732973 34.0303,31.7932973 33.9830667,31.3124324 C33.9410333,30.9262703 33.9575,30.5444324 33.9735333,30.1751351 L33.9848,29.8962162 C34.0571667,28.1574054 34.2911667,26.3178378 34.627,24.8428108 C34.6582,24.7001081 34.6902667,24.5647568 34.7227667,24.4315676 C31.6526,23.484973 29.3927667,20.396973 29.3927667,16.7347027 C29.3927667,12.3221622 32.6692,8.73254054 36.6966,8.73254054 Z M36.7867333,38.2659459 L38.3541,37.0192432 L37.2352333,36.1288649 L37.2850667,35.7993514 C37.3314333,35.491027 37.3916667,35.1398919 37.4705333,34.7459459 C37.5312,34.4341622 37.6256667,34.0795676 37.7760333,33.5987027 C37.8341,33.4175135 37.8965,33.2363243 37.9602,33.0516757 C37.9701667,33.0231351 37.9792667,32.9928649 37.9892333,32.9643243 L35.5842333,32.9643243 C35.5942,32.9932973 35.6041667,33.0252973 35.6141333,33.0538378 C35.6774,33.2380541 35.7398,33.4183784 35.7965667,33.5943784 C35.8992667,33.9243243 36.0253667,34.3485405 36.1038,34.748973 C36.1822333,35.1398919 36.2420333,35.4905946 36.2888333,35.7989189 L36.3386667,36.1288649 L35.2193667,37.0192432 L36.7867333,38.2659459 Z M35.5010333,26.416 L35.5010333,26.4164324 L38.072,26.4164324 C37.9961667,25.9554595 37.9116667,25.5113514 37.8180667,25.0992432 C37.7834,24.9418378 37.7483,24.7930811 37.7132,24.6503784 C37.3799667,24.7018378 37.0419667,24.7372973 36.6961667,24.7372973 C36.4106,24.7372973 36.1302333,24.7143784 35.8529,24.6793514 C35.8199667,24.812973 35.7874667,24.9496216 35.7558333,25.0940541 C35.6618,25.5074595 35.5768667,25.9537297 35.5010333,26.416 Z M36.6966,11.6384865 C34.1234667,11.6384865 32.0300333,13.9247568 32.0300333,16.7347027 C32.0300333,19.5446486 34.1234667,21.8309189 36.6966,21.8309189 C39.2693,21.8309189 41.3627333,19.5446486 41.3627333,16.7347027 C41.3623,13.9247568 39.2693,11.6384865 36.6966,11.6384865 Z"
				id="Shape"></path>
			<path
				d="M25.9564333,39.0499459 L8.66426667,39.0499459 L8.66426667,35.827027 C6.38103333,33.9775135 5,31.3561081 5,28.3563243 C5,25.4836757 6.22763333,22.7801081 8.4112,20.7394595 L8.4112,16.9184865 L9.5409,16.9184865 C10.3633667,14.4116757 12.8169,12.6905946 16.1414333,12.3628108 C15.5607667,12.0735135 15.1573333,11.4806486 15.1573333,10.7904865 L15.1573333,10.0207568 C15.1573333,9.04821622 15.9503333,8.2572973 16.9244667,8.2572973 L17.6962333,8.2572973 C18.6708,8.2572973 19.4633667,9.04821622 19.4633667,10.0207568 L19.4633667,10.7904865 C19.4633667,11.4806486 19.0599333,12.0735135 18.4797,12.3628108 C21.8042333,12.6901622 24.2582,14.4116757 25.0802333,16.9184865 L26.2099333,16.9184865 L26.2099333,20.7394595 C28.3939333,22.7801081 29.6211333,25.4832432 29.6211333,28.3563243 C29.6211333,31.3561081 28.2396667,33.9775135 25.9564333,35.827027 L25.9564333,39.0499459 Z M16.3771667,10.0203243 L16.3771667,10.0203243 L16.3771667,10.7900541 C16.3771667,11.091027 16.6228667,11.3362162 16.9244667,11.3362162 L17.6962333,11.3362162 C17.9978333,11.3362162 18.2435333,11.0914595 18.2435333,10.7900541 L18.2435333,10.0203243 C18.2435333,9.71935135 17.9978333,9.47416216 17.6962333,9.47416216 L16.9244667,9.47416216 C16.6228667,9.47416216 16.3771667,9.71891892 16.3771667,10.0203243 Z M9.63103333,18.1353514 L9.63103333,20.2542703 L24.9901,20.2542703 L24.9901,18.1353514 L9.63103333,18.1353514 Z M13.0062667,29.2298378 C13.2979,29.3721081 13.6068667,29.4395676 13.9115,29.4395676 C14.6772,29.4395676 15.4143,29.0140541 15.7731,28.2828108 L15.7731,28.2828108 C16.2736,27.2605405 15.8480667,26.0224865 14.8241,25.5225946 C13.7984,25.0222703 12.5586333,25.4477838 12.0577,26.4700541 C11.5563333,27.4914595 11.9818667,28.7299459 13.0062667,29.2298378 Z M12.7874333,26.8259459 C13.0049667,26.3822703 13.4521667,26.1241081 13.9167,26.1241081 C14.1017333,26.1241081 14.2893667,26.1647568 14.4661667,26.2512432 C15.088,26.5543784 15.3458333,27.3059459 15.0420667,27.9264865 C14.7374333,28.5465946 13.983,28.8043243 13.3633333,28.5011892 C12.7419333,28.1976216 12.4832333,27.4460541 12.7874333,26.8259459 Z M18.9338333,27.3314595 C17.9077,26.8311351 16.6683667,27.2570811 16.1674333,28.2784865 C15.9247667,28.7736216 15.8901,29.3336216 16.0690667,29.8551351 C16.2484667,30.3766486 16.6202667,30.796973 17.1164333,31.0391351 C17.4080667,31.1814054 17.7170333,31.2488649 18.0216667,31.2488649 C18.7873667,31.2488649 19.5244667,30.8233514 19.8832667,30.0921081 L19.8832667,30.0921081 C20.3833333,29.0698378 19.9578,27.8313514 18.9338333,27.3314595 Z M19.1526667,29.7353514 C18.8484667,30.3554595 18.0936,30.6131892 17.4739333,30.3100541 C17.1727667,30.163027 16.947,29.9078919 16.8382333,29.5913514 C16.7290333,29.2748108 16.7507,28.9353514 16.8976,28.6348108 C17.1151333,28.1911351 17.5623333,27.932973 18.0268667,27.932973 C18.2119,27.932973 18.3995333,27.9736216 18.5763333,28.0601081 C19.1981667,28.3636757 19.456,29.1148108 19.1526667,29.7353514 Z M15.4095333,29.6255135 C14.3838333,29.1251892 13.1440667,29.5502703 12.6431333,30.572973 C12.1426333,31.5952432 12.5686,32.8337297 13.5925667,33.3331892 C13.8798667,33.4732973 14.1888333,33.5442162 14.4991,33.5442162 C14.7248667,33.5442162 14.9519333,33.5065946 15.1720667,33.4313514 C15.6946667,33.2523243 16.1158667,32.8812973 16.3585333,32.3861622 C16.6012,31.891027 16.6358667,31.331027 16.4569,30.8095135 C16.2775,30.2884324 15.9057,29.8676757 15.4095333,29.6255135 Z M15.6283667,32.0298378 L15.6283667,32.0298378 C15.4810333,32.3303784 15.2253667,32.5556757 14.9086,32.6642162 C14.5909667,32.7731892 14.2512333,32.7515676 13.9500667,32.6045405 C13.3282333,32.3014054 13.0695333,31.5498378 13.3737333,30.9292973 C13.5912667,30.4856216 14.0389,30.2274595 14.503,30.2274595 C14.6880333,30.2274595 14.8756667,30.2681081 15.0524667,30.3545946 C15.3536333,30.5016216 15.5794,30.7567568 15.6881667,31.0732973 C15.7969333,31.3894054 15.7752667,31.7292973 15.6283667,32.0298378 Z M19.6375667,27.1835676 C19.7996333,27.1835676 19.963,27.1692973 20.1263667,27.1381622 C22.0408333,26.7740541 23.0864667,24.2633514 23.1302333,24.1565405 L23.2299,23.9126486 L23.0474667,23.7228108 C22.9677333,23.6397838 21.0675667,21.6886486 19.1548333,22.0540541 C17.2408,22.4185946 16.1951667,24.9292973 16.1514,25.0356757 L16.0517333,25.2791351 L16.2341667,25.4694054 C16.3069667,25.5455135 17.9012,27.1835676 19.6375667,27.1835676 Z M19.3069333,22.851027 C20.4869,22.6248649 21.7786667,23.6596757 22.2631333,24.0972973 C21.9736667,24.6819459 21.1533667,26.1171892 19.9738333,26.3416216 C19.0434667,26.5197838 18.0403,25.9109189 17.4215,25.4322162 L19.7168667,24.9954595 C19.937,24.9535135 20.0821667,24.7407568 20.0401333,24.5210811 C19.9981,24.3014054 19.7888,24.1582703 19.5643333,24.1984865 L17.2694,24.6352432 C17.6676333,23.9623784 18.3748333,23.0287568 19.3069333,22.851027 Z"
				id="Shape"></path>
		</g>
	</g>
</svg>
