<?xml version="1.0" encoding="UTF-8"?>
<svg width="48px" height="48px" viewBox="0 0 48 48" version="1.1" xmlns="http://www.w3.org/2000/svg"
		 xmlns:xlink="http://www.w3.org/1999/xlink">
	<!-- Generator: Sketch 43.1 (39012) - http://www.bohemiancoding.com/sketch -->
	<title>sandwich-deli-green</title>
	<desc>Created with Sketch.</desc>
	<defs></defs>
	<g id="UI-KIT" stroke="none" stroke-width="1" fill="none" fill-rule="evenodd">
		<g id="sandwich-deli-green" fill="#39CE7B">
			<path
				d="M9.33333333,23.21875 C9.33333333,23.5811869 9.63181017,23.875 10,23.875 C10.3681898,23.875 10.6666667,23.5811869 10.6666667,23.21875 L10.6666667,20.59375 C10.6666667,20.2313131 10.3681898,19.9375 10,19.9375 C9.63181017,19.9375 9.33333333,20.2313131 9.33333333,20.59375 L9.33333333,23.21875 Z"
				id="Shape"></path>
			<path
				d="M37.3333333,29.78125 C37.3333333,30.1436869 37.6318101,30.4375 38,30.4375 C38.3681899,30.4375 38.6666667,30.1436869 38.6666667,29.78125 L38.6666667,27.15625 C38.6666667,26.7938131 38.3681899,26.5 38,26.5 C37.6318101,26.5 37.3333333,26.7938131 37.3333333,27.15625 L37.3333333,29.78125 Z"
				id="Shape"></path>
			<path
				d="M37.8455863,27.7946541 C38.2037637,27.8786019 38.5632572,27.6608318 38.6485375,27.308251 C38.7338177,26.9556701 38.5125911,26.6017937 38.1544137,26.5178459 L10.1544137,19.9553459 C9.79623633,19.8713981 9.43674285,20.0891682 9.35146252,20.441749 C9.2661822,20.7943299 9.48740896,21.1482063 9.84558632,21.2321541 L37.8455863,27.7946541 Z"
				id="Shape"></path>
			<path
				d="M37.4346677,27.5040618 C37.629808,27.8114077 38.0411083,27.90484 38.3533327,27.7127489 C38.6655569,27.5206577 38.7604724,27.1157841 38.5653323,26.8084382 L33.3124941,18.5352181 C32.3905803,17.0832039 30.3054741,16.1782763 28.5945889,16.4940549 L9.87714097,19.9487401 C9.51525743,20.0155331 9.27689871,20.3584602 9.34475188,20.7146894 C9.41260504,21.0709185 9.76097548,21.3055528 10.122859,21.2387599 L37.4346677,27.5040618 Z"
				id="Shape"></path>
			<path
				d="M9.33333333,28.46875 C9.33333333,28.8311869 9.63181017,29.125 10,29.125 C10.3681898,29.125 10.6666667,28.8311869 10.6666667,28.46875 L10.6666667,25.84375 C10.6666667,25.4813131 10.3681898,25.1875 10,25.1875 C9.63181017,25.1875 9.33333333,25.4813131 9.33333333,25.84375 L9.33333333,28.46875 Z"
				id="Shape"></path>
			<path
				d="M37.3333333,35.03125 C37.3333333,35.3936869 37.6318101,35.6875 38,35.6875 C38.3681899,35.6875 38.6666667,35.3936869 38.6666667,35.03125 L38.6666667,32.6934505 C38.6666667,32.3310136 38.3681899,32.0372005 38,32.0372005 C37.6318101,32.0372005 37.3333333,32.3310136 37.3333333,32.6934505 L37.3333333,35.03125 Z"
				id="Shape"></path>
			<path
				d="M37.8455863,35.6696541 C38.2037637,35.7536018 38.5632572,35.5358318 38.6485375,35.183251 C38.7338177,34.8306701 38.2037636,32.0839478 37.8455863,32 C37.8455863,32 33,31 30,31 C25,28.316749 23.9394305,29.7053891 21,29 C19.6989862,28.6877896 20.0711421,27.4718025 19,27 C17.9288579,26.5281975 15,28 13,26 C12.0012297,25.0012297 10,26 10,26 C9.64182265,25.9160522 9.43674285,27.9641682 9.35146252,28.316749 C9.2661822,28.6693299 9.48740896,29.0232063 9.84558632,29.1071541 L37.8455863,35.6696541 Z"
				id="Shape"></path>
			<path
				d="M37.8455863,30.4196541 C38.2037637,30.5036018 38.5632572,30.2858318 38.6485375,29.933251 C38.7338177,29.5806701 38.2037636,27.0839478 37.8455863,27 L9.84558632,21 C9.48740897,20.9160522 9.43674285,22.7141682 9.35146252,23.066749 C9.2661822,23.4193299 9.48740896,23.7732063 9.84558632,23.8571541 L37.8455863,30.4196541 Z"
				id="Shape"></path>
			<path
				d="M8.75974008,23.1345438 C8.07711603,23.7724001 7.78071895,24.6049413 8.17997841,25.5357004 C8.59102817,26.4939452 9.09437082,26.5640036 10.9001808,26.4087906 C11.9378755,26.3195987 12.5912709,26.3184456 13.383338,26.4574554 C13.410974,26.4623056 13.5673352,26.5997142 13.9250536,26.9872457 C14.4919503,27.6013887 14.7805936,27.8421621 15.2675155,27.9255929 C15.762984,28.0104881 16.1248094,27.9529657 17.0122582,27.7309958 C17.1576148,27.6946917 17.2184068,27.6797454 17.2979247,27.6610543 C17.742821,27.5564793 18.0308399,27.5234353 18.2643779,27.5574196 C18.6358228,27.6114721 18.928343,27.8332614 19.5268543,28.4740429 C19.5607332,28.5103341 19.5607332,28.5103341 19.5950101,28.5470694 C20.4415672,29.4540726 20.9270854,29.8226882 21.7556845,29.9445488 C22.3342673,30.0296398 22.9009548,29.963559 24.1083279,29.739245 C25.2363765,29.5293026 25.6616441,29.4723997 26.0275624,29.5031496 C26.5346005,29.5457586 27.0850476,29.890262 27.9105245,30.6276147 C27.6924108,30.4327858 28.5937355,31.2481546 28.7976412,31.4176988 C29.1599399,31.7189439 29.4554541,31.9121061 29.762498,32.0166524 C30.2912357,32.1966838 30.705274,32.1834932 32.2623844,32.0388623 C32.7894261,31.9899086 33.1053187,31.9652114 33.4395027,31.9507936 C34.0720297,31.9235042 34.58515,31.9487823 35.0153952,32.0384689 C35.4273553,32.1243439 35.8207225,32.2698303 36.3495504,32.5141676 C38.3877548,33.4558902 38.80084,33.5468349 39.5843121,32.5845748 C40.2640228,31.7497542 40.0716661,30.4161762 38.9603845,29.6669421 C38.6019056,29.425253 38.2506157,29.2596309 38.0002773,29.1669808 C37.6556409,29.0394312 37.2712172,29.2110495 37.1416429,29.5503009 C37.0120687,29.8895524 37.1864109,30.2679695 37.5310475,30.3955192 C37.6897115,30.4542405 37.9519249,30.577866 38.2069495,30.7498053 C38.7579992,31.1213272 38.8650331,31.3800468 38.5554523,31.7497543 C38.3669057,31.9749202 38.2756588,31.9542116 36.9160751,31.3260356 C36.3025463,31.0425635 35.8230492,30.8652221 35.2916208,30.7544434 C34.7343349,30.6382746 34.1163667,30.6078314 33.3811211,30.6395524 C33.0186955,30.6551888 32.6850305,30.6812752 32.1371295,30.7321666 C30.8645645,30.8503676 30.4543843,30.8634354 30.1983571,30.7762599 C29.971708,30.6990875 30.0146583,30.7347999 28.8065195,29.6556368 C27.7724781,28.7319851 27.0352021,28.2705527 26.1409751,28.1954063 C25.6023108,28.1501396 25.1301903,28.2133117 23.9358689,28.4355984 C22.8183177,28.64324 22.3233152,28.7009617 21.9527012,28.6464562 C21.5306148,28.5843808 21.2213119,28.3495514 20.5768517,27.6590754 C20.5427894,27.6225701 20.5427894,27.6225701 20.5083699,27.5856997 C19.7073333,26.7280894 19.2381575,26.3723597 18.4593646,26.2590301 C18.0165366,26.19459 17.5856355,26.2440266 16.9882497,26.3844451 C16.9007233,26.4050186 16.833166,26.4216282 16.6839033,26.4589178 C15.9964894,26.6308548 15.7318738,26.6729229 15.4961617,26.6325352 C15.4293307,26.6210842 15.2522984,26.4734118 14.9118586,26.104599 C14.2862822,25.4268858 14.0813047,25.2467535 13.6173654,25.1653309 C12.6839797,25.0015193 11.9291897,25.0028514 10.7842004,25.1012655 C9.63223949,25.2002789 9.47397481,25.1782506 9.40829515,25.0251373 C9.2567693,24.6718982 9.35926261,24.3840076 9.67769148,24.0864619 C9.82904336,23.945036 9.98289985,23.8460242 10.0666551,23.8043066 C10.3951823,23.6406703 10.5267472,23.2458543 10.3605135,22.9224603 C10.1942798,22.5990664 9.79319691,22.4695572 9.46466971,22.6331934 C9.27495162,22.7276902 9.01859816,22.8926621 8.75974008,23.1345438 Z"
				id="Shape"></path>
		</g>
	</g>
</svg>
