<?xml version="1.0" encoding="UTF-8"?>
<svg width="48px" height="48px" viewBox="0 0 48 48" version="1.1" xmlns="http://www.w3.org/2000/svg"
		 xmlns:xlink="http://www.w3.org/1999/xlink">
	<!-- Generator: Sketch 43.1 (39012) - http://www.bohemiancoding.com/sketch -->
	<title>scandinavian</title>
	<desc>Created with Sketch.</desc>
	<defs></defs>
	<g id="UI-KIT" stroke="none" stroke-width="1" fill="none" fill-rule="evenodd">
		<g id="scandinavian" fill-rule="nonzero" fill="#455A64">
			<path
				d="M25.5341057,13.9094929 C23.9747412,11.9920193 19.8640977,11.0120524 18.2359622,10.7782686 C16.9373249,11.2816692 15.5856661,11.8961901 14.3006282,12.577666 C16.1145472,13.1306288 19.2041671,14.1780663 20.17425,15.1596522 C20.2202336,15.2061811 20.2583311,15.2577024 20.2885422,15.3125038 C22.0314066,14.6648723 23.8356422,14.1971116 25.5341057,13.9094929 Z M27.0496772,13.6970711 C27.8488282,13.6091795 28.6098072,13.5652174 29.3125,13.5652174 C29.3944182,13.5652174 29.4759542,13.5659559 29.5571064,13.5674162 C28.7042695,12.0948295 26.7619712,9.44776301 23.79875,9.39130435 C23.0191921,9.39130435 21.9811362,9.57925628 20.8061537,9.91028283 C22.9494691,10.4922446 25.9155107,11.6394414 27.0496772,13.6970711 Z M18.8726648,15.8855848 C17.6727755,15.0916556 14.5323621,14.0577817 12.63375,13.5415652 C12.6272741,13.5397915 12.6208442,13.5379298 12.6144615,13.5359815 C11.7324427,14.074348 10.915479,14.6381033 10.211,15.2097391 C12.2263497,15.7789989 14.7099076,17.1433877 15.6099408,17.6590584 C16.6127276,16.9846662 17.7178692,16.3934799 18.8726648,15.8855848 Z M14.3872982,18.5669486 C13.9837413,18.3461547 13.5098666,18.0968016 13.0049209,17.8470339 C11.6031195,19.4141942 9.375,22.8930039 9.375,26.7826087 C9.375,31.026087 11.0745,33.0852174 13.29925,35.3335652 C14.362125,36.4090435 15.792125,36.7638261 17.304625,37.138087 C18.121375,37.3412174 18.954625,37.5457391 19.779625,37.8685217 C19.482625,36.672 19.42625,35.1067826 20.577125,33.9408696 C21.448875,33.0587826 21.7225,31.1833043 21.776125,29.7377391 C20.084875,31.2793043 17.93025,33.0434783 16.9375,33.0434783 C15.436,33.0434783 13.5,31.0191304 13.5,28.8695652 C13.5,26.9147826 15.484125,23.3043478 18.3125,23.3043478 C19.8635,23.3043478 21.80225,24.1001739 23.3615,24.7387826 C23.4717552,24.7839286 23.5861598,24.8308014 23.7016548,24.8777741 C23.1039877,24.215108 22.4890452,23.5979478 21.97275,23.122087 C21.69225,22.8633043 21.671625,22.4236522 21.927375,22.1398261 C22.185875,21.8546087 22.619,21.8351304 22.8995,22.093913 C23.3395,22.5001739 27.00525,25.9366957 27.487875,28.306087 C28.46825,26.9634783 28.642875,23.7926957 28.623625,22.6198261 C28.61675,22.2358261 28.920625,21.92 29.29875,21.9130435 C29.665875,21.888 29.99175,22.2121739 29.998625,22.5975652 C30.0032387,22.8870095 30.0125829,24.4505231 29.714257,26.0869565 L32.0625,26.0869565 C35.009125,26.0869565 38.116625,23.6368696 39.315625,22.5850435 L38.45075,21.709913 C38.182625,21.4386087 38.182625,20.9975652 38.45075,20.7262609 L39.378875,19.7871304 C38.237625,18.5015652 34.607625,14.9565217 29.3125,14.9565217 C22.304125,14.9565217 12.125,19.021913 12.125,25.3913043 C12.125,32.0041739 15.173375,33.8073043 15.203625,33.824 C15.53225,34.0104348 15.656,34.432 15.4745,34.765913 C15.35075,34.9982609 15.115625,35.1304348 14.87225,35.1304348 C14.763625,35.1304348 14.653625,35.104 14.551875,35.0483478 C14.395125,34.9648696 10.75,32.909913 10.75,25.3913043 C10.75,22.6356911 12.2072335,20.3605084 14.3872982,18.5669486 Z M31.1883604,13.6962575 C37.186384,14.54105 40.7012713,19.191175 40.8625,19.4086957 C41.066,19.6855652 41.039875,20.0737391 40.797875,20.3172174 L39.909625,21.2173913 L40.797875,22.1161739 C40.927125,22.2483478 41,22.4264348 41,22.6114783 C41,22.7965217 40.92575,22.9746087 40.7965,23.104 C40.616375,23.282087 36.362125,27.4782609 32.0625,27.4782609 L29.3762929,27.4782609 C29.1252388,28.2725758 28.7739093,28.9986767 28.282625,29.504 C27.80275,29.9993043 27.207375,30.2608696 26.5625,30.2608696 C26.28475,30.2608696 26.033125,30.0911304 25.92725,29.8309565 C25.821375,29.5707826 25.8805,29.2716522 26.07575,29.0726957 C26.1225,29.0253913 26.16925,28.9530435 26.165125,28.7777391 C26.1537231,28.2753504 25.7832731,27.5582991 25.2401345,26.7805847 C25.2227666,26.7819259 25.2052138,26.7826087 25.1875,26.7826087 C24.707625,26.7826087 24.0545,26.5238261 22.845875,26.0285217 C21.473625,25.4664348 19.595375,24.6956522 18.3125,24.6956522 C16.4315,24.6956522 14.875,27.4587826 14.875,28.8695652 C14.875,30.2497391 16.19775,31.6521739 16.9375,31.6521739 C17.532875,31.5756522 20.021625,29.5318261 21.9645,27.6688696 C22.157,27.4852174 22.43475,27.4281739 22.680875,27.5241739 C22.927,27.6201739 23.10025,27.8497391 23.120875,28.1168696 C23.137375,28.3130435 23.49625,32.9530435 21.5465,34.9273043 C20.194875,36.2963478 21.64275,38.9356522 21.657875,38.962087 C21.814625,39.2417391 21.761,39.5937391 21.53,39.8121739 C21.40075,39.936 21.231625,40 21.061125,40 C20.9305,40 20.80125,39.9624348 20.68575,39.885913 C19.540375,39.1248696 18.23825,38.802087 16.977375,38.4904348 C15.348,38.0869565 13.663625,37.6695652 12.327125,36.3172174 C9.959375,33.9227826 8,31.552 8,26.7826087 C8,22.7347541 10.1637044,19.1026549 11.7066149,17.2406893 C10.5606678,16.7405517 9.42167547,16.3478261 8.6875,16.3478261 C8.40975,16.3478261 8.158125,16.178087 8.05225,15.917913 C7.946375,15.6577391 8.0055,15.36 8.20075,15.1596522 C11.509,11.8149565 19.825,8 23.8125,8 C28.2216463,8.08341412 30.6149277,12.4897095 31.1883604,13.6962575 Z M32.057,24.6956522 C31.94425,24.6956522 31.830125,24.6664348 31.725625,24.6066087 C31.6555,24.5662609 30,23.5895652 30,20.5217391 C30,17.453913 31.6555,16.4772174 31.725625,16.4368696 C32.05425,16.2462609 32.475,16.3673043 32.662,16.7012174 C32.84625,17.0323478 32.7335,17.4511304 32.410375,17.6417391 C32.349875,17.682087 31.375,18.3457391 31.375,20.5217391 C31.375,22.7213913 32.3705,23.373913 32.413125,23.4017391 C32.729375,23.602087 32.838,24.0250435 32.646875,24.3506087 C32.517625,24.5704348 32.29075,24.6956522 32.057,24.6956522 Z M35.5,21.9130435 C34.7406085,21.9130435 34.125,21.2901353 34.125,20.5217391 C34.125,19.753343 34.7406085,19.1304348 35.5,19.1304348 C36.2593915,19.1304348 36.875,19.753343 36.875,20.5217391 C36.875,21.2901353 36.2593915,21.9130435 35.5,21.9130435 Z"
				id="Scandinavian"></path>
		</g>
	</g>
</svg>
