<?xml version="1.0" encoding="UTF-8"?>
<svg width="48px" height="48px" viewBox="0 0 48 48" version="1.1" xmlns="http://www.w3.org/2000/svg"
		 xmlns:xlink="http://www.w3.org/1999/xlink">
	<!-- Generator: Sketch 43.1 (39012) - http://www.bohemiancoding.com/sketch -->
	<title>seafood-green</title>
	<desc>Created with Sketch.</desc>
	<defs></defs>
	<g id="UI-KIT" stroke="none" stroke-width="1" fill="none" fill-rule="evenodd">
		<g id="seafood-green" fill="#39CE7B">
			<path
				d="M28.3925584,31.1360422 C27.1656969,33.155257 26.4858838,35.1042175 27.2204894,37.1994868 C27.2761342,37.3582345 27.2568369,37.5331552 27.1678717,37.67644 C27.0789065,37.8197247 26.9295762,37.9163907 26.7606955,37.9400174 C24.8508191,38.2095877 23.1309077,37.5341994 21.7765567,36.6413323 C20.9755233,36.1079298 20.2635201,35.453243 19.6784638,34.7032617 C19.1715866,34.0533991 18.6505584,32.9530681 18.4372395,32.4802125 C17.461385,32.218995 16.5196018,31.8526543 15.6251817,31.4290406 C14.1498175,30.7302506 12.7429007,29.843909 11.5115815,28.7723784 C10.103748,27.5473864 8.10999353,24.8258068 8.10999353,24.8258068 C7.96333549,24.6281361 7.96333549,24.3597901 8.10999353,24.1621194 C8.10999353,24.1621194 10.1037623,21.4427901 11.5115815,20.217798 C12.7429007,19.1462675 14.1498175,18.2599259 15.6251817,17.5611358 C16.4753529,17.1584635 17.3682958,16.8073957 18.2926851,16.5524483 C18.3001083,16.4945232 18.3168793,16.4367572 18.3437197,16.3811472 C18.3437197,16.3811472 19.0526476,14.8460818 19.7565838,14.0298329 C20.3495128,13.3421813 21.0783367,12.7362107 21.8949064,12.2455613 C23.2674186,11.4255997 25.0037462,10.8089409 26.9281898,11.0545468 C27.0977301,11.0765687 27.2483422,11.1721851 27.338671,11.315142 C27.4289999,11.4580988 27.4495506,11.6333691 27.3946804,11.7928273 C26.743404,13.6906199 26.6341235,15.1456918 27.383481,16.9700164 C27.4146555,17.0459334 27.4281152,17.1261691 27.4246304,17.2053201 C28.0998486,17.4631984 28.7593754,17.7524582 29.401166,18.0599983 C30.9609645,18.8072795 33.4790547,20.6836955 33.4790547,20.6836955 C33.4879417,20.6902451 33.4965991,20.6970214 33.5050216,20.7040125 C33.7540436,20.5139252 34.0281094,20.3433102 34.3272191,20.1960839 L39.1729203,17.809667 C39.2377876,17.7777469 39.3082333,17.7582739 39.3804968,17.7525127 C39.5748982,17.7363643 39.7642348,17.8189704 39.8826622,17.9716036 C40.0010895,18.1242367 40.0322415,18.3258037 39.9652845,18.5062069 L39.0211428,21.0618364 C38.8159365,21.6172907 38.6618186,22.1845583 38.559116,22.7604891 C38.559116,24 38.5315769,26.0386831 38.559116,26.2434134 C38.6617203,26.8190066 38.815845,27.3864993 39.0211428,27.9419535 L39.9652845,30.4975831 C40.0444813,30.7138398 39.982071,30.9557787 39.8076603,31.1086265 C39.6332496,31.2614744 39.3819282,31.2944798 39.1729203,31.1919853 L34.3272191,28.8078186 C33.9416039,28.6179876 33.597613,28.3892854 33.2952465,28.1301038 C32.6926089,28.5592479 30.6885279,29.9662916 29.4167903,30.6181922 C29.0796103,30.7909865 28.7384263,30.9650683 28.3925584,31.1360422 Z M13.7146301,24.5015575 C13.7146301,24.8122382 13.9704482,25.0640958 14.2860183,25.0640997 C14.6015884,25.0640958 14.8574065,24.8122382 14.8574064,24.5015575 C14.8574065,24.1908767 14.6015884,23.9390191 14.2860183,23.9390152 C13.9704482,23.9390191 13.7146301,24.1908767 13.7146301,24.5015575 L13.7146301,24.5015575 Z M17.6786338,19.4399145 C17.4572191,19.4539776 17.2640862,19.5929472 17.1832491,19.7963706 C17.1024119,19.9997941 17.148484,20.2308971 17.3014237,20.3891484 C17.3014237,20.3891484 17.5782876,20.6848206 17.9018345,21.0659993 C18.2253825,21.4471779 18.5965495,21.9322019 18.7321439,22.1910838 C19.133996,22.9588415 19.428532,23.7594517 19.428532,24.5005449 C19.428532,25.2419756 19.1342657,26.0446109 18.7321439,26.8122561 C18.596457,27.0712506 18.2253734,27.556162 17.9018345,27.9373407 C17.5782967,28.3185193 17.3014237,28.6141915 17.3014237,28.6141915 C17.1523102,28.7596178 17.0961752,28.9738176 17.1552094,29.1721155 C17.2142437,29.3704135 17.3789448,29.5208908 17.5842048,29.5640621 C17.7894647,29.6072335 18.002244,29.5361499 18.1384287,29.3789115 C18.1384287,29.3789115 18.4348481,29.0635503 18.7790166,28.6580698 C19.1231841,28.2525894 19.5136722,27.7753285 19.7477101,27.3286699 C20.1912031,26.4820438 20.5713227,25.5242593 20.5713227,24.5005449 C20.5713227,23.4768304 20.1906957,22.5209586 19.7477101,21.67467 C19.5137099,21.2278989 19.1232081,20.7507506 18.7790166,20.3452701 C18.4348241,19.9397896 18.1384287,19.6244284 18.1384287,19.6244284 C18.0217295,19.4971593 17.8524502,19.4292283 17.6786338,19.4399145 L17.6786338,19.4399145 Z"
				id="Combined-Shape"></path>
		</g>
	</g>
</svg>
