<?xml version="1.0" encoding="UTF-8"?>
<svg width="48px" height="48px" viewBox="0 0 48 48" version="1.1" xmlns="http://www.w3.org/2000/svg"
		 xmlns:xlink="http://www.w3.org/1999/xlink">
	<!-- Generator: Sketch 43.1 (39012) - http://www.bohemiancoding.com/sketch -->
	<title>seafood</title>
	<desc>Created with Sketch.</desc>
	<defs></defs>
	<g id="UI-KIT" stroke="none" stroke-width="1" fill="none" fill-rule="evenodd">
		<g id="seafood" fill="#455A64">
			<path
				d="M28.3925584,31.1360422 C27.1656969,33.155257 26.4858838,35.1042175 27.2204894,37.1994868 C27.2761342,37.3582345 27.2568369,37.5331552 27.1678717,37.67644 C27.0789065,37.8197247 26.9295762,37.9163907 26.7606955,37.9400174 C24.8508191,38.2095877 23.1309077,37.5341994 21.7788423,36.6413323 C21.7780804,36.6413338 21.7773185,36.6413338 21.7765567,36.6413323 C20.9755233,36.1079298 20.2635201,35.453243 19.6784638,34.7032617 C19.1715866,34.0533991 18.6505584,32.9530681 18.4372395,32.4802125 C17.461385,32.218995 16.5196018,31.8526543 15.6251817,31.4290406 C14.1498175,30.7302506 12.7429007,29.843909 11.5115815,28.7723784 C10.103748,27.5473864 8.10999353,24.8258068 8.10999353,24.8258068 C7.96333549,24.6281361 7.96333549,24.3597901 8.10999353,24.1621194 C8.10999353,24.1621194 10.1037623,21.4427901 11.5115815,20.217798 C12.7429007,19.1462675 14.1498175,18.2599259 15.6251817,17.5611358 C16.4754835,17.1584016 17.3685702,16.8072878 18.2931112,16.5491998 C18.3007389,16.4923641 18.317381,16.4357176 18.3437197,16.3811472 C18.3437197,16.3811472 19.0526476,14.8460818 19.7565838,14.0298329 C20.3495128,13.3421813 21.0783367,12.7362107 21.8926208,12.2455613 C21.8933827,12.2455598 21.8941445,12.2455598 21.8949064,12.2455613 C23.2674186,11.4255997 25.0037462,10.8089409 26.9280961,11.0545468 L26.9281898,11.0545468 C27.0977301,11.0765687 27.2483422,11.1721851 27.338671,11.315142 C27.4289999,11.4580988 27.4495506,11.6333691 27.3946804,11.7928273 C26.743404,13.6906199 26.6341235,15.1456918 27.383481,16.9700164 C27.4146555,17.0459334 27.4281152,17.1261691 27.4246304,17.2053201 C28.0998486,17.4631984 28.7593754,17.7524582 29.401166,18.0599983 C30.9609645,18.8072795 33.4790547,20.6836955 33.4790547,20.6836955 C33.4879417,20.6902451 33.4965991,20.6970214 33.5050216,20.7040125 C33.7540436,20.5139252 34.0281094,20.3433102 34.3272191,20.1960839 L39.1729203,17.809667 C39.2377876,17.7777469 39.3082333,17.7582739 39.3804968,17.7522877 L39.3804968,17.7525127 C39.5748982,17.7363643 39.7642348,17.8189704 39.8826622,17.9716036 C40.0010895,18.1242367 40.0322415,18.3258037 39.9652845,18.5062069 L39.0211428,21.0618364 C38.8159365,21.6172907 38.6618186,22.1845583 38.559116,22.7604891 C38.5314766,22.9651493 38.3921935,23.1384632 38.1962443,23.2120207 C38.000295,23.2855782 37.7791634,23.2475606 37.6201341,23.1129742 C37.4611048,22.9783877 37.3897295,22.7688568 37.4341814,22.5670871 C37.5483164,21.927139 37.7193614,21.294954 37.9475447,20.6772825 L38.4006429,19.446665 L34.8383505,21.202472 C32.0439027,22.5780004 32.0438821,26.4256771 34.8383505,27.801318 L38.4006429,29.5548747 L37.9475447,28.3265074 C37.7191956,27.7087235 37.5482319,27.076651 37.4341814,26.4367029 C37.3896513,26.234892 37.4610099,26.0252839 37.6200771,25.8906541 C37.7791443,25.7560243 38.0003477,25.7180164 38.1963327,25.7916402 C38.3923178,25.8652639 38.5315769,26.0386831 38.559116,26.2434134 C38.6617203,26.8190066 38.815845,27.3864993 39.0211428,27.9419535 L39.9652845,30.4975831 C40.0444813,30.7138398 39.982071,30.9557787 39.8076603,31.1086265 C39.6332496,31.2614744 39.3819282,31.2944798 39.1729203,31.1919853 L34.3272191,28.8078186 C33.9416039,28.6179876 33.597613,28.3892854 33.2952465,28.1301038 C32.6926089,28.5592479 30.6885279,29.9662916 29.4167903,30.6181922 C29.0796103,30.7909865 28.7384263,30.9650683 28.3925584,31.1360422 Z M26.6859949,31.9179981 C25.8089465,32.2798498 24.898118,32.5822177 23.9438947,32.7629409 C22.5898915,33.0150059 21.1912506,32.9784354 19.8604879,32.7778905 C20.0986254,33.2427944 20.3790363,33.7539828 20.5846614,34.0176352 C21.0924662,34.6686091 21.7140197,35.2426272 22.4149116,35.7096498 L22.4171972,35.7096498 C23.4545391,36.3943763 24.6843077,36.7955814 25.9906511,36.7798303 C25.6300948,35.0810142 25.9786034,33.4521229 26.6859949,31.9179981 Z M27.6709543,30.2296373 C27.7184548,30.1966886 27.770954,30.1709385 27.8266781,30.153462 C28.181388,29.9790378 28.5349282,29.799186 28.8878039,29.6183295 C29.9393389,29.079343 31.8247042,27.778637 32.5258628,27.287693 C31.3045792,25.5676523 31.3574627,23.1664994 32.6845266,21.505536 C32.1788081,21.1409388 30.042183,19.617421 28.9011951,19.0707743 C27.2533709,18.28119 25.5154593,17.6350539 23.7430138,17.3479323 C22.4984084,17.1439545 21.1952111,17.1512675 19.9441272,17.3479323 C18.6338091,17.5535978 17.34073,18.0049817 16.1206887,18.5829376 C14.7299123,19.2415621 13.4100611,20.0744622 12.268234,21.0681369 C11.2083039,21.9904812 9.63199363,24.0915766 9.31974469,24.502795 C9.63199465,24.9140135 11.208317,27.0151089 12.268234,27.9373407 C13.4100611,28.9310154 14.7299123,29.7639155 16.1206887,30.4226525 C17.3406797,31.0004959 18.6336514,31.4537925 19.9441272,31.6597954 C21.2047739,31.8534225 22.5092101,31.8904378 23.7273896,31.6597954 C25.0744876,31.4046728 26.38093,30.8572475 27.6709543,30.2296373 Z M26.091828,16.7468062 C25.6164595,15.1979181 25.7454493,13.7403987 26.1603373,12.2169842 C24.8133642,12.2002204 23.5468926,12.574086 22.4886753,13.205821 L22.4863897,13.205821 C21.7733946,13.6358283 21.1373436,14.1702435 20.6293548,14.7594503 C20.6285929,14.7594518 20.6278311,14.7594518 20.6270692,14.7594503 C20.3598732,15.0692537 19.9782293,15.7356513 19.7070804,16.236205 C19.7258217,16.2331711 19.7445731,16.2301812 19.7633343,16.2272356 L19.7633343,16.2382614 C21.1326284,16.0231452 22.5546577,16.0156072 23.9282705,16.2382614 C24.6628983,16.3572656 25.3848027,16.531384 26.091828,16.7468062 Z M37.2560763,24.5015575 L37.2560763,24.5015575 C37.2560762,24.1908766 37.5118945,23.9390189 37.8274648,23.9390152 C38.1430346,23.9390195 38.3988522,24.190877 38.3988521,24.5015575 C38.3988522,24.8122379 38.1430346,25.0640954 37.8274648,25.0640997 C37.5118945,25.064096 37.2560762,24.8122384 37.2560763,24.5015575 Z M13.7146301,24.5015575 L13.7146301,24.5015575 C13.7146301,24.1908767 13.9704482,23.9390191 14.2860183,23.9390152 C14.6015884,23.9390191 14.8574065,24.1908767 14.8574064,24.5015575 C14.8574065,24.8122382 14.6015884,25.0640958 14.2860183,25.0640997 C13.9704482,25.0640958 13.7146301,24.8122382 13.7146301,24.5015575 Z M17.6786338,19.4399145 L17.6786338,19.4399145 C17.8524502,19.4292283 18.0217295,19.4971593 18.1384287,19.6244284 C18.1384287,19.6244284 18.4348241,19.9397896 18.7790166,20.3452701 C19.1232081,20.7507506 19.5137099,21.2278989 19.7477101,21.67467 C20.1906957,22.5209586 20.5713227,23.4768304 20.5713227,24.5005449 C20.5713227,25.5242593 20.1912031,26.4820438 19.7477101,27.3286699 C19.5136722,27.7753285 19.1231841,28.2525894 18.7790166,28.6580698 C18.4348481,29.0635503 18.1384287,29.3789115 18.1384287,29.3789115 C18.002244,29.5361499 17.7894647,29.6072335 17.5842048,29.5640621 C17.3789448,29.5208908 17.2142437,29.3704135 17.1552094,29.1721155 C17.0961752,28.9738176 17.1523102,28.7596178 17.3014237,28.6141915 C17.3014237,28.6141915 17.5782967,28.3185193 17.9018345,27.9373407 C18.2253734,27.556162 18.596457,27.0712506 18.7321439,26.8122561 C19.1342657,26.0446109 19.428532,25.2419756 19.428532,24.5005449 C19.428532,23.7594517 19.133996,22.9588415 18.7321439,22.1910838 C18.5965495,21.9322019 18.2253825,21.4471779 17.9018345,21.0659993 C17.5782876,20.6848206 17.3014237,20.3891484 17.3014237,20.3891484 C17.148484,20.2308971 17.1024119,19.9997941 17.1832491,19.7963706 C17.2640862,19.5929472 17.4572191,19.4539776 17.6786338,19.4399145 Z"
				id="Combined-Shape"></path>
		</g>
	</g>
</svg>
