<?xml version="1.0" encoding="UTF-8"?>
<svg width="48px" height="48px" viewBox="0 0 48 48" version="1.1" xmlns="http://www.w3.org/2000/svg"
		 xmlns:xlink="http://www.w3.org/1999/xlink">
	<!-- Generator: Sketch 43.1 (39012) - http://www.bohemiancoding.com/sketch -->
	<title>soup-salad</title>
	<desc>Created with Sketch.</desc>
	<defs></defs>
	<g id="UI-KIT" stroke="none" stroke-width="1" fill="none" fill-rule="evenodd">
		<g id="soup-salad" fill="#455A64">
			<path
				d="M35.624029,16.1658945 L37.5048054,12.0845959 C37.6813585,11.7016593 37.5145208,11.2478458 37.1329383,11.0708215 C36.7500157,10.8934614 36.2977449,11.0607443 36.1215268,11.4440168 L33.9556523,16.1443963 L32.2782303,16.1443963 L34.1489562,12.0845959 C34.3255093,11.7016593 34.1586717,11.2478458 33.7770891,11.0708215 C33.3941665,10.8934614 32.9418958,11.0607443 32.7656777,11.4440168 L30.5998032,16.1443963 L22.758433,16.1443963 C20.2940598,13.881375 16.6567977,13.529678 14.6661362,13.529678 C13.8416634,13.529678 13.3096589,13.588798 13.2872129,13.5911494 L12.6838502,13.6596749 L12.615507,14.2646476 C12.6057916,14.3503045 12.528403,15.0872896 12.5582194,16.1564891 C10.024163,16.2837987 8,18.3852476 8,20.9573055 C8,29.8034781 15.1777047,37 24,37 C32.8222953,37 40,29.8031422 40,20.9573055 C40,18.446719 38.0726565,16.3822201 35.624029,16.1658945 Z M35.1998995,17.6724479 C37.0063025,17.6724479 38.476015,19.1460823 38.476015,20.9573055 C38.476015,22.7685287 37.0063025,24.242163 35.1998995,24.242163 L31.902343,24.242163 L34.9298771,17.672112 L35.1998995,17.672112 L35.1998995,17.6724479 Z M33.251115,17.6724479 L30.2235809,24.2424989 L28.5464939,24.2424989 L31.5740279,17.6724479 L33.251115,17.6724479 Z M26.8680668,24.242163 L23.5175778,24.242163 C24.457296,22.9502556 25.4988589,20.2277104 24.0127306,17.672112 L29.8959358,17.672112 L26.8680668,24.242163 Z M14.0905798,15.0684787 C14.2557424,15.0620964 14.4490463,15.0577296 14.6664712,15.0577296 C16.4856048,15.0577296 19.8461442,15.3681098 21.9205595,17.4450373 C21.9229046,17.4473887 21.9249147,17.4494041 21.9272598,17.4517555 C24.3976633,19.9334538 22.6793693,22.7648337 22.3101824,23.3069913 C21.9902427,23.5219733 20.8153437,24.2418271 19.4189996,24.2418271 C18.3291945,24.2418271 17.3341988,23.7984267 16.4621537,22.9237188 C14.1371469,20.5931797 14.0346322,16.6076153 14.0905798,15.0684787 Z M12.6694445,17.6788302 C12.9086455,19.6999968 13.5907368,22.2055446 15.3847442,24.0043392 C15.4688331,24.0886524 15.5562721,24.1635602 15.6423711,24.242163 L12.8001005,24.242163 C10.9936975,24.242163 9.52398501,22.7685287 9.52398501,20.9573055 C9.52364999,19.1900864 10.9236793,17.7483635 12.6694445,17.6788302 Z M24,35.4722843 C17.3861262,35.4722843 11.7980695,31.0003231 10.0750853,24.9149894 C10.8499759,25.4531162 11.788019,25.7702146 12.7997655,25.7702146 L27.3535041,25.7702146 L27.3548441,25.7702146 L27.3558492,25.7702146 L30.7090182,25.7702146 L30.7103583,25.7702146 L30.7113633,25.7702146 L35.1998995,25.7702146 C36.211646,25.7702146 37.1496891,25.4527803 37.9245797,24.9149894 C36.2019305,31.0003231 30.6138738,35.4722843 24,35.4722843 Z"
				id="Shape"></path>
		</g>
	</g>
</svg>
