<?xml version="1.0" encoding="UTF-8"?>
<svg width="48px" height="48px" viewBox="0 0 48 48" version="1.1" xmlns="http://www.w3.org/2000/svg"
		 xmlns:xlink="http://www.w3.org/1999/xlink">
	<!-- Generator: Sketch 43.1 (39012) - http://www.bohemiancoding.com/sketch -->
	<title>southwestern</title>
	<desc>Created with Sketch.</desc>
	<defs></defs>
	<g id="UI-KIT" stroke="none" stroke-width="1" fill="none" fill-rule="evenodd">
		<g id="southwestern" fill-rule="nonzero" fill="#455A64">
			<path
				d="M25.6914962,11.9376101 C25.8588367,11.8744767 26.0004794,11.8289576 26.2675655,11.7487219 C26.4090858,11.7016007 26.4843024,11.6799938 26.5293214,11.6768917 C26.5995263,11.6539718 26.6736717,11.6341258 26.7609742,11.6138789 C26.8133571,11.6017303 26.8702117,11.5894818 26.9735087,11.5674494 C27.0641744,11.5511866 27.1330458,11.5389609 27.1967589,11.5280529 L27.5467589,11.4616958 C27.6299672,11.4616958 27.6784286,11.4635803 27.7306525,11.474491 C27.8386274,11.4680229 27.9427514,11.4646537 28.0807409,11.4630291 C28.266368,9.72287355 28.7841715,7.96428163 29.6245349,6.09679615 C29.7273597,5.86906926 29.9450865,5.71062902 30.1868656,5.65800646 L30.2612995,5.65 C30.306734,5.64991315 30.3337345,5.65040273 30.3666749,5.6528746 C30.414567,5.65646845 30.4606322,5.66398592 30.573107,5.70057233 C30.5925238,5.70556302 30.5925238,5.70556302 30.639399,5.72591287 L32.9830657,6.81317787 C33.4460703,7.01122692 33.5696656,7.66570495 33.2088792,8.01956594 C32.2510468,8.98175225 31.8419594,9.95040924 31.2936664,12.1314179 C31.623994,12.2805688 31.9498469,12.4601379 32.2994981,12.6886856 C32.3413346,12.7161144 32.3705305,12.7354953 32.3999083,12.7552248 C32.3742633,12.73017 32.3497831,12.7128782 32.3240578,12.6997851 C32.2615944,12.6736197 32.2215668,12.6668489 32.1814036,12.6668489 L32.3348413,12.7022748 C32.4005258,12.7345356 32.4005258,12.7345356 32.4646253,12.7698229 C32.6342187,12.8851315 32.7629424,12.9931072 33.0187049,13.2232224 C33.1066183,13.2960376 33.1692339,13.3549327 33.3072766,13.4904039 C33.3968004,13.5785235 33.4337307,13.6176266 33.4505518,13.6453142 C33.5065607,13.6999931 33.5164595,13.7096996 33.5307692,13.7237699 C33.5402974,13.7331387 33.3215624,14.0089419 33.3215624,14.0089419 L33.3215624,13.6589419 C33.3657618,13.670176 33.401196,13.6791823 33.4302325,13.6872153 C33.4770881,13.7001778 33.5072843,13.7106056 33.5307692,13.7237699 C33.5661188,13.7435849 33.5862629,13.7695996 33.6251272,13.8197901 C33.6376551,13.8369602 33.6392263,13.8419223 33.7010627,14.0372153 L33.5954653,13.7866811 L33.3510627,14.0372153 L33.3510627,13.6872153 L33.7150365,13.6872153 L33.7150365,14.0513519 L33.3650365,14.0513519 L33.6274893,13.8197952 C33.6570291,13.8532764 33.6862121,13.8869851 33.7150365,13.9209161 C35.1717619,15.6357143 35.7125863,17.9180282 35.1032153,20.0822741 C34.1141629,23.712822 31.7136117,28.4067774 28.6940463,32.4878828 C25.1943102,37.1967694 21.25593,40.6359317 17.2967164,42.0922193 C16.1769061,42.4833602 14.8951241,42.4242394 13.9088971,41.9482734 C13.3734231,41.6855287 12.9689699,41.2882062 12.7700387,40.7836431 C12.5502755,40.2245737 12.6342489,39.5832611 13.0018493,39.0091664 C13.6248185,38.0184859 14.2152533,37.2280837 15.3648596,35.7876735 C15.5444964,35.5627277 15.5444964,35.5627277 15.7240098,35.3377577 C19.8472794,30.1653121 21.3469284,26.4479411 21.365025,18.1469541 C21.3504334,15.4647999 23.0077517,13.1192814 25.4960573,12.0300172 C25.5185304,12.0202196 25.6706464,11.9857632 25.6706464,11.9857632 L25.6851378,12.3357632 L25.3351378,12.3357632 C25.3351378,12.2050818 25.3975074,12.0939904 25.4960573,12.0300172 C25.55808,11.9970088 25.5826871,11.9882341 25.6085562,11.9820772 C25.65093,11.9738007 25.6746594,11.9716265 25.6991116,11.9716265 L25.6991116,12.3216265 L25.4591379,12.0668469 C25.519241,12.0179451 25.5268632,12.0130191 25.5349959,12.0081269 C25.5569403,11.9949262 25.5826018,11.981972 25.6181307,11.9646423 L25.7715683,11.9292164 C25.7433326,11.9292164 25.7135047,11.9327618 25.6827165,11.9431991 C25.6354072,11.9642688 25.6222212,11.9723034 25.6089547,11.9819826 C25.5780498,12.007458 25.6914962,11.9376101 25.6914962,11.9376101 Z M29.4987411,12.2472578 C29.4710805,12.6400191 29.0855838,12.9678759 28.6964355,12.9406625 C28.1756304,12.9108798 27.6485994,12.9609062 27.125675,13.0855067 C27.6048186,13.6091919 28.357189,14.0653609 29.1659444,14.2792805 C30.0599178,14.5137536 31.0380072,14.4523153 31.7528188,14.1702251 C31.2606715,13.767094 30.7258556,13.4572662 30.1383482,13.2445757 C29.7794007,13.1098977 29.5674833,12.710376 29.675061,12.3679632 C29.8283273,11.7270128 29.892285,11.4679992 29.986664,11.1208623 C30.362363,9.73899671 30.8085017,8.69460309 31.5004418,7.77325266 L30.7441907,7.41991673 C30.0018932,9.19026514 29.5845093,10.7537109 29.4987411,12.2472578 Z M22.8724003,18.1328174 C22.8634713,26.4703291 21.2098446,30.7947135 17.284671,35.8016823 C17.049575,36.1015719 16.2585159,37.0958284 16.1760041,37.200289 C15.3343694,38.2658067 14.7894285,39.0082954 14.2852615,39.8091909 C14.1452104,40.0289624 14.1300381,40.1301291 14.162397,40.2228417 C14.226863,40.3598483 14.3725837,40.5029466 14.5889321,40.6095285 C15.1535083,40.8798594 16.0981923,40.9220465 16.7718408,40.6812967 C20.3706457,39.3659217 24.1386395,36.0735532 27.4670751,31.6031307 C30.3639776,27.6811914 32.7060315,23.1057521 33.6483167,19.6836465 C34.0686312,18.1687014 33.7747632,16.5903826 32.879199,15.3189921 C31.7974101,15.9647086 30.2612301,16.1154808 28.7839229,15.7353665 C27.4308136,15.3716084 26.2431599,14.6024692 25.5868089,13.6461506 C23.924688,14.5663505 22.8605284,16.2534417 22.8724003,18.1328174 Z"
				id="Shape"></path>
		</g>
	</g>
</svg>
