<?xml version="1.0" encoding="UTF-8"?>
<svg width="48px" height="48px" viewBox="0 0 48 48" version="1.1" xmlns="http://www.w3.org/2000/svg"
		 xmlns:xlink="http://www.w3.org/1999/xlink">
	<!-- Generator: Sketch 43.1 (39012) - http://www.bohemiancoding.com/sketch -->
	<title>spanish</title>
	<desc>Created with Sketch.</desc>
	<defs></defs>
	<g id="UI-KIT" stroke="none" stroke-width="1" fill="none" fill-rule="evenodd">
		<g id="spanish" fill-rule="nonzero" fill="#455A64">
			<path
				d="M40.4157702,9.70537249 C40.7250139,11.0264312 38.9436182,12.5273183 36.0790273,13.6503279 C34.5559884,14.2473344 33.3393903,15.9411851 30.6009537,20.7449231 L30.1528274,21.530043 C29.2296952,23.1413817 29.0316973,24.1226161 28.9870634,26.1295897 C28.949426,27.8147848 28.8308066,28.6406876 28.3104106,29.8031674 C28.1757612,30.1148081 28.0966907,30.3262412 27.889769,30.9018102 C27.2763285,32.6099144 26.8913314,33.5085874 26.2095004,34.6040115 C24.474017,37.3922248 21.7697596,39.2997229 17.5924643,40.1411349 C16.5579462,40.349367 15.5962747,40.45 14.7050233,40.45 C11.5000396,40.45 9.46075401,39.2076936 8.36175094,37.4619486 C7.35161616,35.8562457 7.26841433,33.8801998 8.22071581,32.6086351 C8.52721608,32.2961688 9.06258824,31.7728 9.74380544,31.1217248 C10.8653602,30.049796 12.0800773,28.9208656 13.3459162,27.7856452 C16.9571312,24.5470618 20.2682367,21.8926535 22.9545311,20.2215763 C25.2294841,18.8063777 26.9890991,17.2527279 30.524896,13.782967 C34.4733687,9.90804754 35.9434883,8.73529783 37.6979566,8.5789709 C39.3176318,8.43394463 40.2165478,8.85557508 40.4157702,9.70537249 Z M36.0708775,11.9664849 C37.0115792,11.5554805 37.7566275,11.1132298 38.2799658,10.6805727 C38.5160039,10.4854339 38.6924236,10.3030232 38.800906,10.151059 C38.5850081,10.1063461 38.2629935,10.0955114 37.8361567,10.1332017 C37.2238421,10.1879604 36.4391454,10.5977454 35.4422583,11.3734607 C35.5472734,11.551655 35.6619702,11.6671254 35.7657725,11.7104576 C35.8961173,11.7649111 36.0000851,11.8558284 36.0708775,11.9664849 Z M34.4068242,12.2392424 C33.7272116,12.8390482 32.9958736,13.5414371 31.6148143,14.8969221 C30.6346514,15.8585444 30.1881001,16.2929362 29.6139703,16.8376409 C27.4290631,18.9105682 25.6278547,20.3945184 23.7764103,21.5463275 C21.2221813,23.1353687 18.0438457,25.6759122 14.5644957,28.7861374 C13.32192,29.896888 12.1206618,31.0097268 11.0003219,32.0771306 C10.2911659,32.752779 9.73384441,33.2959422 9.43708051,33.5826531 C8.95042426,34.2525136 8.98376636,35.5257762 9.67934276,36.63127 C10.804015,38.4179567 13.1553954,39.4450454 17.2845047,38.6125181 C22.679851,37.5255054 24.7116531,35.1423266 26.4235437,30.3739697 C26.6020712,29.8771023 26.6752796,29.6788313 26.7699992,29.4444037 C26.8101955,29.3449192 26.8491737,29.2528122 26.8879644,29.1660077 C27.2271406,28.4077398 27.3633832,27.7246213 27.407529,26.7964888 C27.4165931,26.6059242 27.4211351,26.4483062 27.4288603,26.1035626 C27.4793956,23.8589624 27.7267898,22.6299963 28.8006718,20.7548717 L29.2475873,19.9720534 C31.7964291,15.5011004 33.1199551,13.5482421 34.7080637,12.5922712 C34.5976343,12.4881942 34.4975366,12.3698901 34.4068242,12.2392424 Z M11.7326204,31.7662317 C13.1071878,30.60877 15.2613296,30.9469811 16.5404993,32.4759306 C17.5852595,33.7240155 17.7745663,35.4530389 16.9766008,36.6923918 C16.7760224,37.0022947 16.3608554,37.0930227 16.0518179,36.8911758 C15.741389,36.6906185 15.6524214,36.2763692 15.8524848,35.9656715 C16.3225161,35.2354487 16.1950187,34.148995 15.5146502,33.33607 C14.6925452,32.3540424 13.3779295,32.1322099 12.5934607,32.7914539 C11.8085912,33.4520831 11.7982514,34.7910777 12.6207849,35.7739207 C13.2818909,36.5634771 14.2696448,36.8834348 15.0654409,36.5938736 C15.4132866,36.4662506 15.7989662,36.6463465 15.9247215,36.9950037 C16.0499669,37.3422474 15.8710224,37.7264212 15.5236574,37.8523717 C15.1837905,37.9757943 14.8240072,38.0376612 14.4573367,38.0376612 C13.3949593,38.0376612 12.3374779,37.5210438 11.5953412,36.6341168 C10.3159868,35.1059951 10.35828,32.9226616 11.7326204,31.7662317 Z"
				id="Combined-Shape"></path>
		</g>
	</g>
</svg>
