<?xml version="1.0" encoding="UTF-8"?>
<svg width="48px" height="48px" viewBox="0 0 48 48" version="1.1" xmlns="http://www.w3.org/2000/svg"
		 xmlns:xlink="http://www.w3.org/1999/xlink">
	<!-- Generator: Sketch 43.1 (39012) - http://www.bohemiancoding.com/sketch -->
	<title>spanish-green</title>
	<desc>Created with Sketch.</desc>
	<defs></defs>
	<g id="UI-KIT" stroke="none" stroke-width="1" fill="none" fill-rule="evenodd">
		<g id="spanish-green" fill-rule="nonzero" fill="#39CE7B">
			<path
				d="M40.4157702,9.70537249 C40.7250139,11.0264312 38.9436182,12.5273183 36.0790273,13.6503279 C34.5559884,14.2473344 33.3393903,15.9411851 30.6009537,20.7449231 L30.1528274,21.530043 C29.2296952,23.1413817 29.0316973,24.1226161 28.9870634,26.1295897 C28.949426,27.8147848 28.8308066,28.6406876 28.3104106,29.8031674 C28.1757612,30.1148081 28.0966907,30.3262412 27.889769,30.9018102 C27.2763285,32.6099144 26.8913314,33.5085874 26.2095004,34.6040115 C24.474017,37.3922248 21.7697596,39.2997229 17.5924643,40.1411349 C16.5579462,40.349367 15.5962747,40.45 14.7050233,40.45 C11.5000396,40.45 9.46075401,39.2076936 8.36175094,37.4619486 C7.35161616,35.8562457 7.26841433,33.8801998 8.22071581,32.6086351 C8.52721608,32.2961688 9.06258824,31.7728 9.74380544,31.1217248 C10.8653602,30.049796 12.0800773,28.9208656 13.3459162,27.7856452 C16.9571312,24.5470618 20.2682367,21.8926535 22.9545311,20.2215763 C25.2294841,18.8063777 26.9890991,17.2527279 30.524896,13.782967 C34.4733687,9.90804754 35.9434883,8.73529783 37.6979566,8.5789709 C39.3176318,8.43394463 40.2165478,8.85557508 40.4157702,9.70537249 Z M11.7326204,31.7662317 C10.35828,32.9226616 10.3159868,35.1059951 11.5953412,36.6341168 C12.3374779,37.5210438 13.3949593,38.0376612 14.4573367,38.0376612 C14.8240072,38.0376612 15.1837905,37.9757943 15.5236574,37.8523717 C15.8710224,37.7264212 16.0499669,37.3422474 15.9247215,36.9950037 C15.7989662,36.6463465 15.4132866,36.4662506 15.0654409,36.5938736 C14.2696448,36.8834348 13.2818909,36.5634771 12.6207849,35.7739207 C11.7982514,34.7910777 11.8085912,33.4520831 12.5934607,32.7914539 C13.3779295,32.1322099 14.6925452,32.3540424 15.5146502,33.33607 C16.1950187,34.148995 16.3225161,35.2354487 15.8524848,35.9656715 C15.6524214,36.2763692 15.741389,36.6906185 16.0518179,36.8911758 C16.3608554,37.0930227 16.7760224,37.0022947 16.9766008,36.6923918 C17.7745663,35.4530389 17.5852595,33.7240155 16.5404993,32.4759306 C15.2613296,30.9469811 13.1071878,30.60877 11.7326204,31.7662317 Z"
				id="Combined-Shape"></path>
		</g>
	</g>
</svg>
