<?xml version="1.0" encoding="UTF-8"?>
<svg width="48px" height="48px" viewBox="0 0 48 48" version="1.1" xmlns="http://www.w3.org/2000/svg"
		 xmlns:xlink="http://www.w3.org/1999/xlink">
	<!-- Generator: Sketch 43.1 (39012) - http://www.bohemiancoding.com/sketch -->
	<title>sportbar</title>
	<desc>Created with Sketch.</desc>
	<defs></defs>
	<g id="UI-KIT" stroke="none" stroke-width="1" fill="none" fill-rule="evenodd">
		<g id="sportbar" fill-rule="nonzero" fill="#455A64">
			<path
				d="M18.7493913,9.10344828 C19.8198854,9.10344828 20.6830375,9.98360831 20.6830375,11.0629655 L20.6830375,17.106 C20.6830375,17.4488661 20.9056963,17.7397176 21.1763862,17.7846453 C21.5470429,17.8458791 21.8764408,17.5576378 21.8764408,17.1724138 L21.8764408,11.0629655 C21.8764408,9.98360831 22.7395929,9.10344828 23.810087,9.10344828 L29.1807886,9.10344828 L29.1807886,8.57710345 C29.1807886,7.88639435 28.692844,7.30135494 28.0862919,7.24630688 C27.5382197,7.19676152 27.0406528,7.52835895 26.8511007,8.0526289 L26.5009659,9.02104418 L25.8081715,8.25916591 C25.5777593,8.00577756 25.2660937,7.86206897 24.931913,7.86206897 C24.6329945,7.86206897 24.3504339,7.97850363 24.125816,8.18867497 L23.170273,9.08276113 L23.0824489,7.77710442 C23.0384976,7.12369348 22.5168303,6.62068966 21.8884348,6.62068966 C21.2600393,6.62068966 20.7383719,7.12369348 20.6944207,7.77710442 L20.6065822,9.08297442 L19.6509962,8.18862132 C19.4418457,7.99287296 19.1817879,7.87818539 18.9053452,7.8637194 C18.2772025,7.83115687 17.702948,8.40002271 17.6444536,9.10344828 L18.7493913,9.10344828 Z M28.1982744,6.00998877 C29.4698981,6.1253958 30.4221679,7.26715522 30.4221679,8.57710345 L30.4221679,10.3448276 L23.810087,10.3448276 C23.430668,10.3448276 23.1178201,10.66384 23.1178201,11.0629655 L23.1178201,17.1724138 C23.1178201,18.315097 22.1099116,19.1970722 20.9735892,19.0093476 C20.0761426,18.8603946 19.4416582,18.0315896 19.4416582,17.106 L19.4416582,11.0629655 C19.4416582,10.66384 19.1288103,10.3448276 18.7493913,10.3448276 L16.3981799,10.3448276 L16.3981799,9.22137931 C16.3981799,7.78184596 17.5657015,6.5512269 18.9699138,6.62402049 C19.2212446,6.63717233 19.4650623,6.68971419 19.6948916,6.77743701 C20.0904145,5.9481825 20.9237486,5.37931034 21.8884348,5.37931034 C22.8531062,5.37931034 23.6864296,5.94816509 24.0819598,6.77739895 C24.3499679,6.67507242 24.6367427,6.62068966 24.931913,6.62068966 C25.342134,6.62068966 25.7351861,6.7250398 26.0833513,6.91589617 C26.5811766,6.29327563 27.3602481,5.93423173 28.1982744,6.00998877 Z"
				id="Shape"></path>
			<path
				d="M28.0497562,38.2225398 C28.1959745,38.6300783 28.6053341,39.8812356 28.6499516,40.0100502 C28.9638478,40.9162946 29.2051927,41.3279634 29.441549,41.4291713 L32.2235862,42.6204414 L15.2052138,42.6204414 L17.987251,41.4291713 C18.2239747,41.3278061 18.4656863,40.9153094 18.7800276,40.007418 C18.8252267,39.8768723 19.2333762,38.628948 19.3790438,38.2225398 C20.538148,34.9897551 20.1714411,31.3683704 18.4811688,27.5642754 C17.6729228,25.7441398 17.1242291,23.0774461 16.7831438,19.7707526 C16.4404837,16.4487916 16.3459678,12.9889147 16.3864306,10.1071889 C16.3891367,9.91446516 16.3918567,9.77945919 16.3936985,9.70791546 L16.4092668,9.1032 L18.7495739,9.1032 C19.820068,9.1032 20.6832201,9.98336004 20.6832201,11.0627172 L20.6832201,17.1721655 C20.6832201,17.5575658 21.0126439,17.845928 21.3828153,17.7844731 C21.6541989,17.7394304 21.8766234,17.4489817 21.8766234,17.1057517 L21.8766234,11.0627172 C21.8766234,9.98332863 22.7391919,9.1032 23.8096609,9.1032 L31.0195033,9.1032 L31.0351007,9.70788476 C31.0369509,9.77961403 31.0396832,9.9149644 31.0424015,10.1081688 C31.0829493,12.9900583 30.988506,16.449419 30.6459255,19.7707499 C30.3048527,23.0774622 29.7560711,25.7441746 28.9476093,27.5643246 C27.2576422,31.3691681 26.8908211,34.9902269 28.0497562,38.2225398 Z M27.476944,40.4163453 C27.4266719,40.2712057 27.020243,39.0290055 26.8812618,38.6416382 C25.6035541,35.078064 26.002896,31.135977 27.813106,27.060415 C28.5561407,25.3875657 29.0823626,22.830479 29.4110974,19.6433828 C29.7392101,16.4623184 29.8361398,13.1380053 29.8039464,10.3445793 L23.8096609,10.3445793 C23.4304489,10.3445793 23.1180027,10.6633862 23.1180027,11.0627172 L23.1180027,17.1057517 C23.1180027,18.0317783 22.4836596,18.8601228 21.5860974,19.0090951 C20.4501105,19.1976886 19.4418408,18.3150965 19.4418408,17.1721655 L19.4418408,11.0627172 C19.4418408,10.6635917 19.1289929,10.3445793 18.7495739,10.3445793 L17.6248808,10.3445793 C17.5928039,13.1376766 17.6898205,16.4620815 18.0179713,19.6433802 C18.346722,22.8304951 18.872867,25.3876005 19.615661,27.0603408 C21.4261899,31.1350831 21.8254145,35.0775937 20.5476045,38.6414534 C20.4091855,39.0276378 20.0039122,40.2667684 19.9530853,40.4135684 C19.8230662,40.7890943 19.6987261,41.1083477 19.5695872,41.3790621 L27.8593979,41.3790621 C27.7306136,41.109017 27.6065992,40.7906706 27.476944,40.4163453 Z"
				id="Shape"></path>
			<path
				d="M24.5256893,22.679725 L23.6956522,21.4101363 L22.8656151,22.679725 L21.2414872,23.0937576 L22.5546921,24.4328385 L22.1864501,25.9348306 L23.6956522,25.1653606 L25.2048542,25.9348306 L24.8366122,24.4328385 L26.1498172,23.0937576 L24.5256893,22.679725 Z M28.545835,22.4234837 L26.206866,24.8085408 L27.0560153,28.272066 L23.6956522,26.5587774 L20.335289,28.272066 L21.1844383,24.8085408 L18.8454693,22.4234837 L22.0909066,21.596137 L23.6956522,19.1415878 L25.3003977,21.596137 L28.545835,22.4234837 Z"
				id="Shape"></path>
			<path
				d="M28.0709731,38.2758621 L28.213375,38.698269 C28.2686477,38.8622245 28.5645022,39.7675278 28.6448224,39.9994231 C28.9609761,40.9122009 29.204151,41.3275647 29.4419886,41.4295036 L32.2211889,42.6206897 L15.2080981,42.6206897 L17.9872984,41.4295036 C18.2246134,41.3277886 18.4672927,40.9136301 18.7828419,40.0033284 C18.8630916,39.7718228 19.1594312,38.8656075 19.2159839,38.6980558 L19.3584843,38.2758621 L28.0709731,38.2758621 Z M20.2526018,39.5172414 C20.1447556,39.8445119 20.0085663,40.2575454 19.9557508,40.4099083 C19.8249957,40.787113 19.7000078,41.1076455 19.5702202,41.3793103 L27.8588514,41.3793103 C27.7285489,41.1066381 27.603093,40.7847357 27.4718126,40.4057118 C27.4191355,40.253626 27.2838057,39.8429607 27.1765519,39.5172414 L20.2526018,39.5172414 Z"
				id="Shape"></path>
		</g>
	</g>
</svg>
