<?xml version="1.0" encoding="UTF-8"?>
<svg width="48px" height="48px" viewBox="0 0 48 48" version="1.1" xmlns="http://www.w3.org/2000/svg"
		 xmlns:xlink="http://www.w3.org/1999/xlink">
	<!-- Generator: Sketch 43.1 (39012) - http://www.bohemiancoding.com/sketch -->
	<title>sportbar-green</title>
	<desc>Created with Sketch.</desc>
	<defs></defs>
	<g id="UI-KIT" stroke="none" stroke-width="1" fill="none" fill-rule="evenodd">
		<g id="sportbar-green" fill-rule="nonzero" fill="#39CE7B">
			<path
				d="M18.7493913,9.10344828 C19.8198854,9.10344828 20.6830375,9.98360831 20.6830375,11.0629655 L20.6830375,17.106 C20.6830375,17.4488661 20.9056963,17.7397176 21.1763862,17.7846453 C21.5470429,17.8458791 21.8764408,17.5576378 21.8764408,17.1724138 L21.8764408,11.0629655 C21.8764408,9.98360831 22.7395929,9.10344828 23.810087,9.10344828 L29.1807886,9.10344828 L29.1807886,8.57710345 C29.1807886,7.88639435 28.692844,7.30135494 28.0862919,7.24630688 C27.5382197,7.19676152 27.0406528,7.52835895 26.8511007,8.0526289 L26.5009659,9.02104418 L25.8081715,8.25916591 C25.5777593,8.00577756 25.2660937,7.86206897 24.931913,7.86206897 C24.6329945,7.86206897 24.3504339,7.97850363 24.125816,8.18867497 L23.170273,9.08276113 L23.0824489,7.77710442 C23.0384976,7.12369348 22.5168303,6.62068966 21.8884348,6.62068966 C21.2600393,6.62068966 20.7383719,7.12369348 20.6944207,7.77710442 L20.6065822,9.08297442 L19.6509962,8.18862132 C19.4418457,7.99287296 19.1817879,7.87818539 18.9053452,7.8637194 C18.2772025,7.83115687 17.702948,8.40002271 17.6444536,9.10344828 L18.7493913,9.10344828 Z M28.1982744,6.00998877 C29.4698981,6.1253958 30.4221679,7.26715522 30.4221679,8.57710345 L30.4221679,10.3448276 L23.810087,10.3448276 C23.430668,10.3448276 23.1178201,10.66384 23.1178201,11.0629655 L23.1178201,17.1724138 C23.1178201,18.315097 22.1099116,19.1970722 20.9735892,19.0093476 C20.0761426,18.8603946 19.4416582,18.0315896 19.4416582,17.106 L19.4416582,11.0629655 C19.4416582,10.66384 19.1288103,10.3448276 18.7493913,10.3448276 L16.3981799,10.3448276 L16.3981799,9.22137931 C16.3981799,7.78184596 17.5657015,6.5512269 18.9699138,6.62402049 C19.2212446,6.63717233 19.4650623,6.68971419 19.6948916,6.77743701 C20.0904145,5.9481825 20.9237486,5.37931034 21.8884348,5.37931034 C22.8531062,5.37931034 23.6864296,5.94816509 24.0819598,6.77739895 C24.3499679,6.67507242 24.6367427,6.62068966 24.931913,6.62068966 C25.342134,6.62068966 25.7351861,6.7250398 26.0833513,6.91589617 C26.5811766,6.29327563 27.3602481,5.93423173 28.1982744,6.00998877 Z"
				id="Shape"></path>
			<path
				d="M28.0497562,38.2225398 C28.1959745,38.6300783 28.6053341,39.8812356 28.6499516,40.0100502 C28.9638478,40.9162946 29.2051927,41.3279634 29.441549,41.4291713 L32.2235862,42.6204414 L15.2052138,42.6204414 L17.987251,41.4291713 C18.2239747,41.3278061 18.4656863,40.9153094 18.7800276,40.007418 C18.8252267,39.8768723 19.2333762,38.628948 19.3790438,38.2225398 C20.538148,34.9897551 20.1714411,31.3683704 18.4811688,27.5642754 C17.6729228,25.7441398 17.1242291,23.0774461 16.7831438,19.7707526 C16.4404837,16.4487916 16.3459678,12.9889147 16.3864306,10.1071889 C16.3891367,9.91446516 16.3918567,9.77945919 16.3936985,9.70791546 L16.4092668,9.1032 L18.7495739,9.1032 C19.820068,9.1032 20.6832201,9.98336004 20.6832201,11.0627172 L20.6832201,17.1721655 C20.6832201,17.5575658 21.0126439,17.845928 21.3828153,17.7844731 C21.6541989,17.7394304 21.8766234,17.4489817 21.8766234,17.1057517 L21.8766234,11.0627172 C21.8766234,9.98332863 22.7391919,9.1032 23.8096609,9.1032 L31.0195033,9.1032 L31.0351007,9.70788476 C31.0369509,9.77961403 31.0396832,9.9149644 31.0424015,10.1081688 C31.0829493,12.9900583 30.988506,16.449419 30.6459255,19.7707499 C30.3048527,23.0774622 29.7560711,25.7441746 28.9476093,27.5643246 C27.2576422,31.3691681 26.8908211,34.9902269 28.0497562,38.2225398 Z M27.3478261,22.7586207 L24.9130435,22.137931 L23.6956522,20.2758621 L22.4782609,22.137931 L20.0434783,22.7586207 L21.8695652,24.6206897 L21.2608696,27.1034483 L23.6956522,25.862069 L26.1304348,27.1034483 L25.5217391,24.6206897 L27.3478261,22.7586207 Z"
				id="Combined-Shape"></path>
		</g>
	</g>
</svg>
