<?xml version="1.0" encoding="UTF-8"?>
<svg width="48px" height="48px" viewBox="0 0 48 48" version="1.1" xmlns="http://www.w3.org/2000/svg"
		 xmlns:xlink="http://www.w3.org/1999/xlink">
	<!-- Generator: Sketch 43.1 (39012) - http://www.bohemiancoding.com/sketch -->
	<title>steakhouse-green</title>
	<desc>Created with Sketch.</desc>
	<defs></defs>
	<g id="UI-KIT" stroke="none" stroke-width="1" fill="none" fill-rule="evenodd">
		<g id="steakhouse-green" fill-rule="nonzero" fill="#39CE7B">
			<path
				d="M40,20.8256581 L39.7027864,20.8256581 L40,20.8256581 L40,26.1867689 C40,31.112813 34.6809679,34 27.5488194,34 C24.8306779,34 23.2757948,33.6394198 20.7789628,32.6743481 C20.7199874,32.6530341 20.3332979,32.5126368 20.2210764,32.4722225 C18.3822913,31.8100212 17.2127842,31.554581 15.3881983,31.554581 C10.5110274,31.554581 8,30.1110351 8,27.2683965 L8,21.5310674 C8,17.0762996 12.7880266,14 24.7097639,14 C34.5849672,14 39.7571952,16.14988 40,20.4494398 L40,20.8256581 Z M24.7097639,15.2361123 C15.7977219,15.2361123 9.23319144,16.9890706 9.19624786,21.5780947 C9.19624786,22.1581062 9.26990916,22.5324097 9.57238975,22.9646991 C10.2983238,24.0021661 12.0869215,24.628167 15.3408807,24.628167 C17.5713396,24.628167 18.8100287,24.937925 21.1136269,25.8508765 C21.3311194,25.921415 21.3311194,25.921415 21.4970461,25.982825 C23.746062,26.8141393 25.1158775,27.1206132 27.5015018,27.1206132 C31.8268052,27.1206132 35.6625343,25.9058796 37.4725675,23.9685896 C38.3991062,23.0016926 38.847582,21.8170044 38.7567472,20.5530762 C38.5275246,17.0447053 33.8196354,15.2361123 24.7097639,15.2361123 Z M14.7189104,23.7007845 C14.5718933,23.7008316 14.5718933,23.7008316 14.4299407,23.7009729 C12.059161,23.7033544 11.4992826,23.6074822 10.6974114,22.890378 C10.6623129,22.8589898 10.6272158,22.8263826 10.5984865,22.7983453 C10.0252885,22.3073768 9.78119708,21.190134 10.177765,20.1711159 C11.1607618,17.5820318 15.6366663,15.9704433 24.8011809,15.9704433 C29.26648,15.9704433 32.9998075,16.5541393 35.4629116,17.6245312 C37.2830773,18.4040559 37.9379787,19.3180191 38.0139591,20.4897358 C38.0635818,21.4938917 37.71294,22.3989329 36.9777639,23.1545815 C35.2369917,24.925198 31.4539636,26.1182266 27.5939225,26.1182266 C25.7211133,26.1182266 24.3578507,25.8297803 22.6908073,25.2183427 C22.5352668,25.1612936 22.4174682,25.1170477 22.1440719,25.0135476 C22.0925559,24.993691 22.0408324,24.9750618 21.9799279,24.9541592 C21.901191,24.9274641 21.901191,24.9274641 21.8242643,24.9015543 C21.6933018,24.8570143 21.6070446,24.8237669 21.5326758,24.7869471 C19.3787927,24.0259289 17.8467094,23.7007845 15.4289295,23.7007845 L14.7189104,23.7007845 Z M13.062424,21.3574366 C12.8501474,21.5581881 12.9416881,21.919914 13.2342182,22.1041193 C13.3062242,22.1689119 13.3757225,22.1773399 13.5428518,22.1773399 C13.759386,22.1773399 13.9385662,22.0735544 14.0580505,21.8955906 L15.1545913,19.763706 C15.3251836,19.4820654 15.2098057,19.1192759 14.9033307,18.9975495 C14.6322433,18.8338489 14.2672083,18.948311 14.1446065,19.2526563 L13.062424,21.3574366 Z M17.9474858,21.3608391 C17.8442824,21.6494761 17.9466161,21.9793127 18.1961704,22.1085206 C18.2348572,22.1410617 18.2812407,22.1596873 18.3328463,22.1693172 C18.3684423,22.1759596 18.3988063,22.1775049 18.4386747,22.1773399 C18.6585747,22.1773399 18.8265294,22.0519747 18.9273864,21.8261288 L20.1453934,18.7471324 C20.2519302,18.4491728 20.1394384,18.1073094 19.8720695,17.9875673 C19.592061,17.8621645 19.2670717,17.9962215 19.1612771,18.2923496 L17.9474858,21.3608391 Z M22.9337694,22.2721663 C22.7720981,22.5095688 22.8740697,22.8847226 23.1486704,23.0791336 C23.1914497,23.1199347 23.2446548,23.1426341 23.3048256,23.153894 C23.3431244,23.161061 23.372527,23.1625616 23.4194976,23.1625616 C23.6570504,23.1625616 23.8381519,23.0270014 23.9477324,22.7809278 L26.0845482,17.8356362 C26.201787,17.5074924 26.0798642,17.1359212 25.7912028,17.0062779 C25.4885381,16.8703454 25.137512,17.0155517 25.0232252,17.3363542 L22.9337694,22.2721663 Z M27.8767873,23.2998237 C27.7175058,23.5239789 27.8524969,23.880026 28.1319435,24.0692751 C28.1741697,24.1078992 28.2260062,24.1291292 28.2845816,24.1396791 C28.3217867,24.1463801 28.3534955,24.1479376 28.3960278,24.1477833 C28.6275808,24.1477833 28.8053923,24.0196821 28.9133615,23.7863285 L31.0393351,18.7781226 C31.1548122,18.466614 31.0336613,18.1112555 30.7492602,17.9883204 C30.4541053,17.8607369 30.1112341,17.9972455 29.9983037,18.3023408 L27.8767873,23.2998237 Z M32.8087821,22.3173746 C32.7045349,22.6163591 32.8075004,22.9568136 33.059949,23.0907235 C33.0990752,23.1245611 33.1463491,23.1440756 33.1989899,23.1541533 C33.2353526,23.1611147 33.2663783,23.1627347 33.3070869,23.1625616 C33.5312021,23.1625616 33.7014557,23.0321856 33.8034849,22.7977915 L35.0054594,19.760562 C35.1130567,19.4519691 34.9999091,19.0991979 34.7294926,18.974951 C34.4442002,18.8438692 34.1135033,18.9838172 34.0067093,19.2904928 L32.8087821,22.3173746 Z"
				id="Combined-Shape"></path>
		</g>
	</g>
</svg>
