<?xml version="1.0" encoding="UTF-8"?>
<svg width="48px" height="48px" viewBox="0 0 48 48" version="1.1" xmlns="http://www.w3.org/2000/svg"
		 xmlns:xlink="http://www.w3.org/1999/xlink">
	<!-- Generator: Sketch 43.1 (39012) - http://www.bohemiancoding.com/sketch -->
	<title>steakhouse</title>
	<desc>Created with Sketch.</desc>
	<defs></defs>
	<g id="UI-KIT" stroke="none" stroke-width="1" fill="none" fill-rule="evenodd">
		<g id="steakhouse" fill-rule="nonzero" fill="#455A64">
			<path
				d="M40,20.8256581 L39.7027864,20.8256581 L40,20.8256581 L40,26.1867689 C40,31.112813 34.6809679,34 27.5488194,34 C24.8306779,34 23.2757948,33.6394198 20.7789628,32.6743481 C20.7199874,32.6530341 20.3332979,32.5126368 20.2210764,32.4722225 C18.3822913,31.8100212 17.2127842,31.554581 15.3881983,31.554581 C10.5110274,31.554581 8,30.1110351 8,27.2683965 L8,21.5310674 C8,17.0762996 12.7880266,14 24.7097639,14 C34.5849672,14 39.7571952,16.14988 40,20.4494398 L40,20.8256581 Z M24.7097639,15.2361123 C15.7977219,15.2361123 9.23319144,16.9890706 9.19624786,21.5780947 C9.19624786,22.1581062 9.26990916,22.5324097 9.57238975,22.9646991 C10.2983238,24.0021661 12.0869215,24.628167 15.3408807,24.628167 C17.5713396,24.628167 18.8100287,24.937925 21.1136269,25.8508765 C21.3311194,25.921415 21.3311194,25.921415 21.4970461,25.982825 C23.746062,26.8141393 25.1158775,27.1206132 27.5015018,27.1206132 C31.8268052,27.1206132 35.6625343,25.9058796 37.4725675,23.9685896 C38.3991062,23.0016926 38.847582,21.8170044 38.7567472,20.5530762 C38.5275246,17.0447053 33.8196354,15.2361123 24.7097639,15.2361123 Z M9.24356545,27.2683965 C9.24356545,27.848408 9.31722675,28.2227115 9.61970734,28.6550009 C10.3456414,29.6924679 12.1342391,30.3184688 15.3881983,30.3184688 C17.6186572,30.3184688 18.8573463,30.6282268 21.2126603,31.5504157 C21.378437,31.6117168 21.378437,31.6117168 21.5443637,31.6731268 C23.7933796,32.5044411 25.1631951,32.810915 27.5488194,32.810915 C33.9375237,32.810915 38.7564345,30.3034737 38.7564345,26.1867689 L38.7564345,24.3116501 C38.6271583,24.4896357 38.5255653,24.609552 38.3984437,24.7358193 C36.3248843,26.9404364 32.2554352,28.2626709 27.5488194,28.2626709 C24.8306779,28.2626709 23.2757948,27.9020908 20.7789628,26.937019 C20.7199874,26.915705 20.3332979,26.7753077 20.2210764,26.7348934 C18.3822913,26.0726921 17.2127842,25.817252 15.3881983,25.817252 C12.4951697,25.817252 10.4562713,25.3210337 9.24356545,24.3115646 L9.24356545,27.2683965 Z M14.7189104,23.7007845 C14.5718933,23.7008316 14.5718933,23.7008316 14.4299407,23.7009729 C12.059161,23.7033544 11.4992826,23.6074822 10.6974114,22.890378 C10.6623129,22.8589898 10.6272158,22.8263826 10.5984865,22.7983453 C10.0252885,22.3073768 9.78119708,21.190134 10.177765,20.1711159 C11.1607618,17.5820318 15.6366663,15.9704433 24.8011809,15.9704433 C29.26648,15.9704433 32.9998075,16.5541393 35.4629116,17.6245312 C37.2830773,18.4040559 37.9379787,19.3180191 38.0139591,20.4897358 C38.0635818,21.4938917 37.71294,22.3989329 36.9777639,23.1545815 C35.2369917,24.925198 31.4539636,26.1182266 27.5939225,26.1182266 C25.7211133,26.1182266 24.3578507,25.8297803 22.6908073,25.2183427 C22.5352668,25.1612936 22.4174682,25.1170477 22.1440719,25.0135476 C22.0925559,24.993691 22.0408324,24.9750618 21.9799279,24.9541592 C21.901191,24.9274641 21.901191,24.9274641 21.8242643,24.9015543 C21.6933018,24.8570143 21.6070446,24.8237669 21.5326758,24.7869471 C19.3787927,24.0259289 17.8467094,23.7007845 15.4289295,23.7007845 L14.7189104,23.7007845 Z M11.3066103,20.6435514 C11.0641057,21.2111213 11.2000762,21.8007231 11.4102175,21.9379424 C11.9691539,22.4380681 12.3461064,22.4929757 14.7189104,22.4929757 L15.4289295,22.4929757 C18.0449355,22.4929757 19.6930142,22.8498534 22.0258991,23.6936778 C22.0964218,23.727656 22.1614072,23.7509151 22.3144552,23.8000746 C22.4809158,23.8535423 22.5539896,23.8796964 22.6293237,23.91662 C22.7825018,23.9746892 22.7825018,23.9746892 22.9363125,24.0329008 C24.6948764,24.6969652 25.8141188,24.9560299 27.5939225,24.9560299 C31.0925154,24.9560299 34.5660105,23.8797089 36.0535311,22.3567502 C36.553833,21.8308272 36.7671826,21.2757452 36.7244871,20.6097686 C36.6735701,20.2663192 36.633808,20.1322164 36.4545244,19.8813036 C36.1788245,19.4954535 35.6748582,19.1197029 34.8570564,18.7552047 C32.6773417,17.772747 29.0615523,17.2238643 24.7538463,17.2238643 C15.9529871,17.2238643 12.1004494,18.6886752 11.3066103,20.6435514 Z M13.062424,21.3574366 L14.1446065,19.2526563 C14.2672083,18.948311 14.6322433,18.8338489 14.9033307,18.9975495 C15.2098057,19.1192759 15.3251836,19.4820654 15.1545913,19.763706 L14.0580505,21.8955906 C13.9385662,22.0735544 13.759386,22.1773399 13.5428518,22.1773399 C13.3757225,22.1773399 13.3062242,22.1689119 13.2342182,22.1041193 C12.9416881,21.919914 12.8501474,21.5581881 13.062424,21.3574366 Z M17.9474858,21.3608391 L19.1612771,18.2923496 C19.2670717,17.9962215 19.592061,17.8621645 19.8720695,17.9875673 C20.1394384,18.1073094 20.2519302,18.4491728 20.1453934,18.7471324 L18.9273864,21.8261288 C18.8265294,22.0519747 18.6585747,22.1773399 18.4386747,22.1773399 C18.3988063,22.1775049 18.3684423,22.1759596 18.3328463,22.1693172 C18.2812407,22.1596873 18.2348572,22.1410617 18.1961704,22.1085206 C17.9466161,21.9793127 17.8442824,21.6494761 17.9474858,21.3608391 Z M22.9337694,22.2721663 L25.0232252,17.3363542 C25.137512,17.0155517 25.4885381,16.8703454 25.7912028,17.0062779 C26.0798642,17.1359212 26.201787,17.5074924 26.0845482,17.8356362 L23.9477324,22.7809278 C23.8381519,23.0270014 23.6570504,23.1625616 23.4194976,23.1625616 C23.372527,23.1625616 23.3431244,23.161061 23.3048256,23.153894 C23.2446548,23.1426341 23.1914497,23.1199347 23.1486704,23.0791336 C22.8740697,22.8847226 22.7720981,22.5095688 22.9337694,22.2721663 Z M27.8767873,23.2998237 L29.9983037,18.3023408 C30.1112341,17.9972455 30.4541053,17.8607369 30.7492602,17.9883204 C31.0336613,18.1112555 31.1548122,18.466614 31.0393351,18.7781226 L28.9133615,23.7863285 C28.8053923,24.0196821 28.6275808,24.1477833 28.3960278,24.1477833 C28.3534955,24.1479376 28.3217867,24.1463801 28.2845816,24.1396791 C28.2260062,24.1291292 28.1741697,24.1078992 28.1319435,24.0692751 C27.8524969,23.880026 27.7175058,23.5239789 27.8767873,23.2998237 Z M32.8087821,22.3173746 L34.0067093,19.2904928 C34.1135033,18.9838172 34.4442002,18.8438692 34.7294926,18.974951 C34.9999091,19.0991979 35.1130567,19.4519691 35.0054594,19.760562 L33.8034849,22.7977915 C33.7014557,23.0321856 33.5312021,23.1625616 33.3070869,23.1625616 C33.2663783,23.1627347 33.2353526,23.1611147 33.1989899,23.1541533 C33.1463491,23.1440756 33.0990752,23.1245611 33.059949,23.0907235 C32.8075004,22.9568136 32.7045349,22.6163591 32.8087821,22.3173746 Z"
				id="Combined-Shape"></path>
		</g>
	</g>
</svg>
