<?xml version="1.0" encoding="UTF-8"?>
<svg width="48px" height="48px" viewBox="0 0 48 48" version="1.1" xmlns="http://www.w3.org/2000/svg"
		 xmlns:xlink="http://www.w3.org/1999/xlink">
	<!-- Generator: Sketch 43.1 (39012) - http://www.bohemiancoding.com/sketch -->
	<title>swiss-green</title>
	<desc>Created with Sketch.</desc>
	<defs></defs>
	<g id="UI-KIT" stroke="none" stroke-width="1" fill="none" fill-rule="evenodd">
		<g id="swiss-green" fill-rule="nonzero" fill="#39CE7B">
			<path
				d="M39.8739356,16.8258354 C39.9523356,17.1299156 40.0053346,17.3921752 40.1008227,17.9161298 C40.1510147,18.1916613 40.1707156,18.2978274 40.2,18.4668444 L40.1759115,35.429203 C40.0067027,35.7420048 39.7382685,35.9064404 39.3605548,35.9565037 C38.5145543,36.0681288 37.6624171,36.184243 36.471683,36.3491381 C36.0642061,36.405611 36.0642061,36.405611 35.6566771,36.4621796 C35.1009071,36.5393233 34.8546312,36.5734685 34.5450292,36.6162474 C33.4323035,36.7701488 32.6616905,36.8768448 30.4883985,37.1778423 C28.5613698,37.4447328 27.5708185,37.5818624 26.431082,37.7394583 C25.5847971,37.8561634 24.8812326,37.9527645 23.397738,38.1561416 C22.7599586,38.2435756 22.7599586,38.2435756 22.1221791,38.3310634 C21.11124,38.4697842 20.3104142,38.5800019 19.5368829,38.6870001 C15.7996138,39.204296 13.4878355,39.525102 11.060861,39.8638666 C10.6784411,39.9171167 10.317189,39.9708683 9.72294754,40.0617266 C9.63653785,40.0749436 9.63653785,40.0749436 9.55010309,40.0881744 C9.19242999,40.1429237 9.02976186,40.1676922 8.79929777,40.2 L7.8,40.2 L7.8,36.6005333 L7.85743642,36.4602635 C8.10000356,36.2137298 8.35706736,36.078288 8.68604458,36.0449596 C9.73428866,35.9372004 10.4569453,35.1560823 10.4627871,34.1406214 C10.4673259,33.12038 9.72842017,32.3220613 8.67115872,32.2204641 C8.28020278,32.183894 8.00663019,32.0206295 7.82566073,31.6987204 L7.8,31.6007111 L7.8,23.2668444 L7.85478132,23.1293252 C7.89170679,23.0897439 7.89170679,23.0897439 7.93008397,23.0473129 C8.02804747,22.9389282 8.07399654,22.8910414 8.13706363,22.8358294 C14.0699141,17.6419096 19.46606,12.9201273 24.6375554,8.39779365 C24.7687553,8.28354424 24.8778686,8.19775919 25.1212104,8.01299901 C25.2360537,7.92578959 25.2838498,7.88922311 25.3436582,7.84245274 L25.4668607,7.8 L26.4906693,7.80139962 C26.6015668,7.81458874 26.6919272,7.82475365 26.8906973,7.846681 C27.3542206,7.89781446 27.5593075,7.92270673 27.8151968,7.96233062 C31.4765735,8.52622981 34.5130424,9.87422488 36.9750462,12.1569744 C38.4355499,13.5109322 39.413352,15.0516011 39.8739356,16.8258354 Z M22.4056376,35.3989297 C24.2778837,35.3875943 25.8022173,33.8551995 25.7980617,31.9871107 C25.7954156,30.1404988 24.2691501,28.6138981 22.4143048,28.6014267 C20.5549286,28.589326 19.0045484,30.1319006 19.0019024,31.9961606 C18.9981215,33.8593571 20.5484417,35.4098965 22.4056376,35.3989297 Z M34.6638752,27.3989332 C36.236455,27.4008458 37.5364437,26.1001565 37.5322363,24.5285313 C37.5287946,22.9533901 36.2258218,21.6588855 34.6529469,21.6684481 C33.0781688,21.6783932 31.7840487,22.9894403 31.8024137,24.5577197 C31.8196123,26.1212452 33.1032484,27.3958732 34.6638752,27.3989332 Z M15.9936651,28.9982209 C17.2649086,29.0028916 18.3176144,27.964079 18.3320109,26.6909726 C18.3464156,25.4074103 17.2917054,24.3390034 16.0063833,24.335112 C14.7348869,24.3308322 13.6825681,25.369622 13.6681669,26.6423593 C13.6537641,27.9265289 14.7083799,28.9947189 15.9936651,28.9982209 Z M31.9897401,32.731907 C32.9884577,32.738309 33.8029066,31.9252353 33.7985047,30.9264075 C33.7957038,29.9472167 32.9886399,29.1366777 32.0118362,29.1322687 C31.01998,29.1286648 30.1990484,29.9478423 30.200249,30.9399754 C30.2014513,31.916566 31.0104494,32.726302 31.9897401,32.731907 Z M25.4065958,26.1399781 C25.4078678,26.827728 25.9850099,27.3982559 26.6739168,27.3935954 C27.3619819,27.3889378 27.9313858,26.8129455 27.9271487,26.1257003 C27.9216438,25.4358552 27.3461647,24.8667151 26.6596878,24.8730752 C25.9681055,24.8798347 25.4057498,25.4488554 25.4065958,26.1399781 Z"
				id="Shape"></path>
		</g>
	</g>
</svg>
