<?xml version="1.0" encoding="UTF-8"?>
<svg width="48px" height="48px" viewBox="0 0 48 48" version="1.1" xmlns="http://www.w3.org/2000/svg"
		 xmlns:xlink="http://www.w3.org/1999/xlink">
	<!-- Generator: Sketch 43.1 (39012) - http://www.bohemiancoding.com/sketch -->
	<title>swiss</title>
	<desc>Created with Sketch.</desc>
	<defs></defs>
	<g id="UI-KIT" stroke="none" stroke-width="1" fill="none" fill-rule="evenodd">
		<g id="swiss" fill-rule="nonzero" fill="#455A64">
			<path
				d="M39.8739356,16.8258354 C39.9523356,17.1299156 40.0053346,17.3921752 40.1008227,17.9161298 C40.1510147,18.1916613 40.1707156,18.2978274 40.2,18.4668444 L40.1759115,35.429203 C40.0067027,35.7420048 39.7382685,35.9064404 39.3605548,35.9565037 C38.5145543,36.0681288 37.6624171,36.184243 36.471683,36.3491381 C36.0642061,36.405611 36.0642061,36.405611 35.6566771,36.4621796 C35.1009071,36.5393233 34.8546312,36.5734685 34.5450292,36.6162474 C33.4323035,36.7701488 32.6616905,36.8768448 30.4883985,37.1778423 C28.5613698,37.4447328 27.5708185,37.5818624 26.431082,37.7394583 C25.5847971,37.8561634 24.8812326,37.9527645 23.397738,38.1561416 C22.7599586,38.2435756 22.7599586,38.2435756 22.1221791,38.3310634 C21.11124,38.4697842 20.3104142,38.5800019 19.5368829,38.6870001 C15.7996138,39.204296 13.4878355,39.525102 11.060861,39.8638666 C10.6784411,39.9171167 10.317189,39.9708683 9.72294754,40.0617266 C9.63653785,40.0749436 9.63653785,40.0749436 9.55010309,40.0881744 C9.19242999,40.1429237 9.02976186,40.1676922 8.79929777,40.2 L7.8,40.2 L7.8,36.6005333 L7.85743642,36.4602635 C8.10000356,36.2137298 8.35706736,36.078288 8.68604458,36.0449596 C9.73428866,35.9372004 10.4569453,35.1560823 10.4627871,34.1406214 C10.4673259,33.12038 9.72842017,32.3220613 8.67115872,32.2204641 C8.28020278,32.183894 8.00663019,32.0206295 7.82566073,31.6987204 L7.8,31.6007111 L7.8,23.2668444 L7.85478132,23.1293252 C7.89170679,23.0897439 7.89170679,23.0897439 7.93008397,23.0473129 C8.02804747,22.9389282 8.07399654,22.8910414 8.13706363,22.8358294 C14.0699141,17.6419096 19.46606,12.9201273 24.6375554,8.39779365 C24.7687553,8.28354424 24.8778686,8.19775919 25.1212104,8.01299901 C25.2360537,7.92578959 25.2838498,7.88922311 25.3436582,7.84245274 L25.4668607,7.8 L26.4906693,7.80139962 C26.6015668,7.81458874 26.6919272,7.82475365 26.8906973,7.846681 C27.3542206,7.89781446 27.5593075,7.92270673 27.8151968,7.96233062 C31.4765735,8.52622981 34.5130424,9.87422488 36.9750462,12.1569744 C38.4355499,13.5109322 39.413352,15.0516011 39.8739356,16.8258354 Z M38.7101609,27.0185115 C38.7101124,24.4828759 38.710021,22.2155831 38.7098707,20.0460188 C32.7691727,20.8656387 13.4962095,23.5250342 9.2826787,24.1063891 L9.2826787,30.8064727 C10.9809659,31.2858149 11.8821109,32.5475419 11.9265376,34.0593546 C11.9469811,34.7748675 11.7527028,35.4441579 11.3520097,36.0344479 C10.8575254,36.7630262 10.1569168,37.2350938 9.28161202,37.4537917 L9.28161202,38.6224258 C18.4955391,37.3513087 28.0822617,36.0283479 38.7102101,34.5613545 C38.7102099,30.8221325 38.7102013,29.1283847 38.7101609,27.0185115 Z M14.3987832,21.9156115 C19.5002492,21.2116832 36.5351194,18.8620845 38.7105437,18.5620162 C38.7021486,18.50363 38.6894503,18.4147794 38.6687822,18.2703362 C38.6234915,17.9538125 38.593669,17.7723132 38.5525942,17.5821872 C38.1215219,15.5889494 36.9861655,13.9482271 35.1822335,12.5487696 C32.5817234,10.5310312 29.5434568,9.46336398 26.0766994,9.28917697 C25.9640496,9.2835931 25.8052351,9.3391616 25.7192139,9.41436767 C22.7560781,11.9988572 20.2720554,14.1711644 15.1244206,18.6770121 C14.8189547,18.9443941 14.8189547,18.9443941 14.5134892,19.2117753 C13.4952687,20.1030391 13.0647918,20.4798244 12.4770771,20.9941756 C11.9761787,21.4329525 11.457088,21.8867576 10.8654674,22.403213 C12.4579011,22.1834351 12.5794223,22.1666663 14.3987832,21.9156115 Z M22.4056376,35.3989297 C20.5484417,35.4098965 18.9981215,33.8593571 19.0019024,31.9961606 C19.0045484,30.1319006 20.5549286,28.589326 22.4143048,28.6014267 C24.2691501,28.6138981 25.7954156,30.1404988 25.7980617,31.9871107 C25.8022173,33.8551995 24.2778837,35.3875943 22.4056376,35.3989297 Z M22.4566268,30.0735928 C21.4110631,30.0283155 20.5111038,30.8845633 20.4723646,31.9673117 C20.4358067,32.9915653 21.2978279,33.8903164 22.3586755,33.927064 C23.3878862,33.9642794 24.2853495,33.1102869 24.3272728,32.0489945 C24.3680417,31.0169425 23.5204662,30.1193835 22.4566268,30.0735928 Z M34.6638752,27.3989332 C33.1032484,27.3958732 31.8196123,26.1212452 31.8024137,24.5577197 C31.7840487,22.9894403 33.0781688,21.6783932 34.6529469,21.6684481 C36.2258218,21.6588855 37.5287946,22.9533901 37.5322363,24.5285313 C37.5364437,26.1001565 36.236455,27.4008458 34.6638752,27.3989332 Z M34.6968596,23.1386139 C33.9290829,23.1212282 33.2818608,23.7508563 33.2719076,24.5265711 C33.2626113,25.2755398 33.893611,25.9178665 34.6513922,25.9287275 C35.4015195,25.9383405 36.0480737,25.3092043 36.0620389,24.5547862 C36.076305,23.8024105 35.4536747,23.1559975 34.6968596,23.1386139 Z M15.9936651,28.9982209 C14.7083799,28.9947189 13.6537641,27.9265289 13.6681669,26.6423593 C13.6825681,25.369622 14.7348869,24.3308322 16.0063833,24.335112 C17.2917054,24.3390034 18.3464156,25.4074103 18.3320109,26.6909726 C18.3176144,27.964079 17.2649086,29.0028916 15.9936651,28.9982209 Z M16.0129375,25.8049703 C15.5456437,25.8000761 15.1464241,26.1892269 15.1383582,26.6573294 C15.1303224,27.1213903 15.522662,27.5241294 15.9877171,27.5287197 C16.4545716,27.5330397 16.8541158,27.1436585 16.8621752,26.6756441 C16.8702093,26.2122548 16.4771695,25.8089846 16.0129375,25.8049703 Z M31.9897401,32.731907 C31.0104494,32.726302 30.2014513,31.916566 30.200249,30.9399754 C30.1990484,29.9478423 31.01998,29.1286648 32.0118362,29.1322687 C32.9886399,29.1366777 33.7957038,29.9472167 33.7985047,30.9264075 C33.8029066,31.9252353 32.9884577,32.738309 31.9897401,32.731907 Z M31.9972619,30.604974 C31.8240613,30.6043267 31.669873,30.7593664 31.6722391,30.9314519 C31.6749018,31.1120718 31.8262282,31.2628376 32.0014148,31.2624024 C32.1795434,31.261525 32.3294236,31.1104624 32.3289838,30.9325151 C32.3287652,30.7565115 32.1774944,30.6060797 31.9972619,30.604974 Z M25.4065958,26.1399781 C25.4057498,25.4488554 25.9681055,24.8798347 26.6596878,24.8730752 C27.3461647,24.8667151 27.9216438,25.4358552 27.9271487,26.1257003 C27.9313858,26.8129455 27.3619819,27.3889378 26.6739168,27.3935954 C25.9850099,27.3982559 25.4078678,26.827728 25.4065958,26.1399781 Z"
				id="Shape"></path>
		</g>
	</g>
</svg>
