<?xml version="1.0" encoding="UTF-8"?>
<svg width="48px" height="48px" viewBox="0 0 48 48" version="1.1" xmlns="http://www.w3.org/2000/svg"
		 xmlns:xlink="http://www.w3.org/1999/xlink">
	<!-- Generator: Sketch 43.1 (39012) - http://www.bohemiancoding.com/sketch -->
	<title>tea-coffee</title>
	<desc>Created with Sketch.</desc>
	<defs></defs>
	<g id="UI-KIT" stroke="none" stroke-width="1" fill="none" fill-rule="evenodd">
		<g id="tea-coffee" fill="#455A64">
			<path
				d="M34.5273233,20.3975277 L33.8133294,20.3975277 L33.8133294,18.8426687 C33.8133294,18.4504052 33.491745,18.1329035 33.0955072,18.1329035 L14.7178222,18.1329035 C14.3215844,18.1329035 14,18.4504052 14,18.8426687 L14,26.8601763 C14,28.762347 14.5503304,30.6006388 15.5926083,32.1881469 L16.5262557,38.3948069 C16.5784175,38.7425918 16.8803814,39 17.2354641,39 L30.6127993,39 C30.9678821,39 31.2698459,38.7425918 31.3220077,38.3948069 L32.2671403,32.1157509 C32.4542526,31.8252203 32.6193518,31.5242799 32.7739228,31.2186077 L34.5273233,31.2186077 C37.5445694,31.2186077 40,28.7916839 40,25.8083043 C40,22.8249246 37.5445694,20.3975277 34.5273233,20.3975277 Z M29.9940366,37.5804696 L17.8556625,37.5804696 L17.1124772,32.638138 L30.7372218,32.638138 L29.9940366,37.5804696 Z M32.3776849,26.8601763 C32.3776849,28.4098302 31.9460345,29.9069616 31.1344168,31.2186077 L16.6789126,31.2186077 C15.8677735,29.9074348 15.4356445,28.4098302 15.4356445,26.8601763 L15.4356445,19.5524339 L32.3776849,19.5524339 L32.3776849,26.8601763 Z M34.5273233,29.7990773 L33.3544017,29.7990773 C33.6544514,28.8555628 33.8133294,27.8675696 33.8133294,26.8601763 L33.8133294,21.817058 L34.5273233,21.817058 C36.7525722,21.817058 38.5643555,23.607559 38.5643555,25.8087774 C38.5643555,28.0090495 36.7525722,29.7990773 34.5273233,29.7990773 Z M16.3219157,14.510262 C16.3219157,13.6467144 16.6822624,13.1749571 16.946421,12.8309576 C17.1612891,12.5503638 17.279012,12.3956349 17.279012,12.0081032 C17.279012,11.6200982 17.1612891,11.4648962 16.946421,11.1838292 C16.682741,10.8398297 16.3219157,10.3680724 16.3219157,9.50405158 C16.3219157,8.64003076 16.682741,8.16874667 16.946421,7.82427397 C17.1612891,7.54273378 17.279012,7.38800497 17.279012,7 L18.7146565,7 C18.7146565,7.86402082 18.3547882,8.3353049 18.0911082,8.67977761 C17.8762401,8.9613178 17.7575601,9.11604661 17.7575601,9.50405158 C17.7575601,9.89205654 17.8762401,10.0472585 18.0911082,10.3283255 C18.3547882,10.6723251 18.7146565,11.1440823 18.7146565,12.0081032 C18.7146565,12.872124 18.3538311,13.3434081 18.0911082,13.6874076 C17.8762401,13.9680014 17.7575601,14.1227302 17.7575601,14.510262 L16.3219157,14.510262 Z M22.710055,14.510262 C22.710055,13.6467144 23.0708803,13.1749571 23.3345604,12.8309576 C23.5494285,12.5503638 23.6671514,12.3956349 23.6671514,12.0081032 C23.6671514,11.6200982 23.5494285,11.4648962 23.3345604,11.1838292 C23.0708803,10.8398297 22.710055,10.3680724 22.710055,9.50405158 C22.710055,8.64003076 23.0708803,8.16874667 23.3345604,7.82427397 C23.5494285,7.54273378 23.6671514,7.38800497 23.6671514,7 L25.1027958,7 C25.1027958,7.86402082 24.7429276,8.3353049 24.4792476,8.67977761 C24.2643795,8.9613178 24.1456995,9.11604661 24.1456995,9.50405158 C24.1456995,9.89205654 24.2643795,10.0472585 24.4792476,10.3283255 C24.7429276,10.6723251 25.1027958,11.1440823 25.1027958,12.0081032 C25.1027958,12.872124 24.7419705,13.3434081 24.4792476,13.6874076 C24.2643795,13.9680014 24.1456995,14.1227302 24.1456995,14.510262 L22.710055,14.510262 Z M29.0986729,14.510262 C29.0986729,13.6467144 29.4594983,13.1749571 29.7231783,12.8309576 C29.9380464,12.5503638 30.0557693,12.3956349 30.0557693,12.0081032 C30.0557693,11.6200982 29.9380464,11.4648962 29.7231783,11.1838292 C29.4594983,10.8398297 29.0986729,10.3680724 29.0986729,9.50405158 C29.0986729,8.64003076 29.4594983,8.16874667 29.7231783,7.82427397 C29.9380464,7.54273378 30.0557693,7.38800497 30.0557693,7 L31.4914137,7 C31.4914137,7.86402082 31.1315455,8.3353049 30.8678655,8.67977761 C30.6529974,8.9613178 30.5343174,9.11604661 30.5343174,9.50405158 C30.5343174,9.89205654 30.6529974,10.0472585 30.8678655,10.3283255 C31.1315455,10.6723251 31.4914137,11.1440823 31.4914137,12.0081032 C31.4914137,12.872124 31.1305884,13.3434081 30.8678655,13.6874076 C30.6529974,13.9680014 30.5343174,14.1227302 30.5343174,14.510262 L29.0986729,14.510262 Z"
				id="Combined-Shape"></path>
		</g>
	</g>
</svg>
