<?xml version="1.0" encoding="UTF-8"?>
<svg width="48px" height="48px" viewBox="0 0 48 48" version="1.1" xmlns="http://www.w3.org/2000/svg"
		 xmlns:xlink="http://www.w3.org/1999/xlink">
	<!-- Generator: Sketch 43.1 (39012) - http://www.bohemiancoding.com/sketch -->
	<title>thai-food</title>
	<desc>Created with Sketch.</desc>
	<defs></defs>
	<g id="UI-KIT" stroke="none" stroke-width="1" fill="none" fill-rule="evenodd">
		<g id="thai-food" fill="#455A64">
			<path
				d="M31.3789589,36.3388 C31.2021781,36.3388 31.0273836,36.2584 30.9125753,36.1052 C30.7183151,35.8464 30.7695616,35.4776 31.026589,35.2816 C32.4361935,34.2098784 34.4840554,31.2968194 34.4840554,31.2968194 L35.7878898,31.334464 C35.7878898,31.334464 33.4295667,34.9279742 31.7305342,36.2196 C31.6256575,36.3 31.5017123,36.3388 31.3789589,36.3388 Z M17.1619156,30.1549082 L13.4788082,26.4464 C13.2507808,26.2172 13.2507808,25.8444 13.4788082,25.6152 C13.7068356,25.3856 14.0766849,25.3856 14.3047123,25.6152 L18.6912603,30.032 C18.7276043,30.0685309 18.7581556,30.1087097 18.7829143,30.1513736 C18.8076729,30.1940375 17.1619156,30.1549082 17.1619156,30.1549082 Z M14.134,30.1268 L10.4788082,26.4464 C10.2507808,26.2172 10.2507808,25.8444 10.4788082,25.6152 C10.7068356,25.3856 11.0766849,25.3856 11.3047123,25.6152 L15.6912603,30.032 C15.7205441,30.0614345 15.7460673,30.0932372 15.7678298,30.1268 L38.1530411,30.1268 C38.3365753,30.1268 38.5089863,30.2136 38.6198219,30.3612 C38.729863,30.5088 38.7648219,30.7 38.7139726,30.8776 C37.6167397,34.7116 34.938411,37.9068 31.3658493,39.644 C31.2867945,39.6824 31.2001918,39.7024 31.1123973,39.7024 L19.4949178,39.7024 C19.4071233,39.7024 19.3201233,39.6824 19.2410685,39.644 C15.6677123,37.9064 12.9893836,34.7112 11.8925479,30.8776 C11.8416986,30.7 11.8766575,30.5088 11.9870959,30.3612 C12.097137,30.2136 12.2699452,30.1268 12.4534795,30.1268 L14.134,30.1268 Z M27.4238169,12.3269256 C27.4579765,12.2801568 27.4996563,12.2377515 27.5485753,12.2016 C28.0169452,11.8556 28.2854932,11.3224 28.2854932,10.7392 C28.2854932,10.16 28.0070137,9.6112 27.5398356,9.2712 C27.2788356,9.0808 27.2200411,8.7132 27.4095342,8.45 C27.5986301,8.1864 27.9637123,8.128 28.2251096,8.3184 C28.9942055,8.8788 29.4534384,9.784 29.4534384,10.7392 C29.4534384,11.6868 28.9997671,12.5876 28.2398082,13.1496 C28.2070993,13.1737352 28.1727425,13.1939596 28.1372805,13.2103475 C28.1031308,13.2570873 28.0614689,13.2994673 28.0125753,13.3356 C27.5442055,13.6816 27.2756575,14.2148 27.2756575,14.798 C27.2756575,15.3772 27.554137,15.926 28.0213151,16.266 C28.2823151,16.4564 28.3411096,16.824 28.1516164,17.0872 C28.0368082,17.246 27.8584384,17.3304 27.6776849,17.3304 C27.5589041,17.3304 27.4389315,17.294 27.3356438,17.2188 C26.5665479,16.6584 26.1073151,15.7532 26.1073151,14.798 C26.1073151,13.8504 26.5609863,12.9496 27.3209452,12.3876 C27.3537644,12.3634707 27.3882406,12.3432747 27.4238169,12.3269256 Z M20.9424871,12.325879 C20.9765032,12.2795241 21.0179256,12.2374816 21.0664795,12.2016 C21.5344521,11.8556 21.803,11.3228 21.803,10.7392 C21.803,10.16 21.5245205,9.6112 21.058137,9.2708 C20.797137,9.08 20.7383425,8.7124 20.9278356,8.4496 C21.1173288,8.1868 21.4820137,8.1276 21.743411,8.3184 C22.5121096,8.8792 22.9709452,9.7844 22.9709452,10.7392 C22.9709452,11.6872 22.5176712,12.588 21.7581096,13.1496 C21.724986,13.1741348 21.6900381,13.1946281 21.6539003,13.2111583 C21.6199171,13.2574194 21.5785532,13.2993796 21.5300822,13.3352 C21.0621096,13.6812 20.7935616,14.214 20.7935616,14.7976 C20.7935616,15.3768 21.0720411,15.9256 21.5384247,16.266 C21.5540619,16.2774314 21.5689733,16.2894973 21.583149,16.3021374 C21.6390686,16.3206685 21.6931491,16.3481127 21.743411,16.3848 C22.5121096,16.9456 22.9709452,17.8508 22.9709452,18.8056 C22.9709452,19.7532 22.5176712,20.6544 21.7581096,21.2156 C21.7251138,21.2401675 21.6903075,21.2606841 21.6543182,21.2772401 C21.6202564,21.3237531 21.5787521,21.3659577 21.5300822,21.402 C21.0621096,21.748 20.7935616,22.2808 20.7935616,22.8644 C20.7935616,23.4436 21.0720411,23.9924 21.5384247,24.3328 C21.7994247,24.5236 21.8582192,24.8912 21.668726,25.154 C21.5539178,25.3128 21.3759452,25.3968 21.1951918,25.3968 C21.076411,25.3968 20.9564384,25.3604 20.8531507,25.2852 C20.0844521,24.7244 19.6256164,23.8196 19.6256164,22.8644 C19.6256164,21.9168 20.0788904,21.0156 20.8384521,20.4544 C20.8714288,20.43003 20.9061079,20.4096618 20.9419168,20.3932063 C20.9760398,20.3465169 21.0176539,20.3041576 21.0664795,20.268 C21.5344521,19.922 21.803,19.3892 21.803,18.8056 C21.803,18.2264 21.5245205,17.6776 21.058137,17.3372 C21.0425478,17.3258037 21.0276799,17.3137767 21.0135432,17.301179 C20.9575056,17.2826336 20.903357,17.2551478 20.8531507,17.2184 C20.0844521,16.6576 19.6256164,15.7524 19.6256164,14.7976 C19.6256164,13.8496 20.0788904,12.9488 20.8384521,12.3872 C20.8716038,12.3627517 20.9064761,12.3423413 20.9424871,12.325879 Z M24.9102922,16.3022163 C24.9661534,16.3207463 25.0201989,16.3481647 25.0704658,16.3848 C25.8391644,16.9456 26.298,17.8508 26.298,18.8056 C26.298,19.7532 25.844726,20.6544 25.0851644,21.2156 C25.0521686,21.2401675 25.0173623,21.2606841 24.981373,21.2772401 C24.9473112,21.3237531 24.9058069,21.3659577 24.857137,21.402 C24.3891644,21.748 24.1206164,22.2808 24.1206164,22.8644 C24.1206164,23.4436 24.3990959,23.9924 24.8654795,24.3328 C25.1264795,24.5236 25.185274,24.8912 24.9957808,25.154 C24.8809726,25.3128 24.703,25.3968 24.5222466,25.3968 C24.4034658,25.3968 24.2834932,25.3604 24.1802055,25.2852 C23.4115068,24.7244 22.9526712,23.8196 22.9526712,22.8644 C22.9526712,21.9168 23.4059452,21.0156 24.1655068,20.4544 C24.1984836,20.43003 24.2331627,20.4096618 24.2689716,20.3932063 C24.3030946,20.3465169 24.3447087,20.3041576 24.3935342,20.268 C24.8615068,19.922 25.1300548,19.3892 25.1300548,18.8056 C25.1300548,18.2264 24.8515753,17.6776 24.3851918,17.3372 C24.3696026,17.3258037 24.3547347,17.3137767 24.340598,17.301179 C24.2845604,17.2826336 24.2304118,17.2551478 24.1802055,17.2184 C23.4115068,16.6576 22.9526712,15.7524 22.9526712,14.7976 C22.9526712,13.8496 23.4059452,12.9488 24.1655068,12.3872 C24.4253151,12.1956 24.7907945,12.252 24.9818767,12.5132 C25.1725616,12.7748 25.1169452,13.1432 24.857137,13.3352 C24.3891644,13.6812 24.1206164,14.214 24.1206164,14.7976 C24.1206164,15.3768 24.3990959,15.9256 24.8654795,16.266 C24.8811492,16.2774551 24.8960901,16.2895475 24.9102922,16.3022163 Z M31.0756426,20.3937321 C31.0401462,20.410095 31.005735,20.4302889 30.9729589,20.4544 C30.213,21.016 29.7593288,21.9172 29.7593288,22.8644 C29.7593288,23.8196 30.2181644,24.7244 30.986863,25.2852 C31.0901507,25.3604 31.2101233,25.3968 31.3289041,25.3968 C31.5100548,25.3968 31.6880274,25.3128 31.8028356,25.154 C31.9923288,24.8912 31.9335342,24.5236 31.6725342,24.3328 C31.2061507,23.9924 30.9276712,23.4436 30.9276712,22.8644 C30.9276712,22.2812 31.1962192,21.7484 31.664589,21.402 C31.7134291,21.3658317 31.7550534,21.3234579 31.7891821,21.2767521 C31.8247415,21.2602815 31.8591495,21.2399267 31.8918219,21.2156 C32.6517808,20.654 33.1054521,19.7528 33.1054521,18.8056 C33.1054521,17.8504 32.6462192,16.9452 31.8771233,16.3848 C31.615726,16.1944 31.2506438,16.2528 31.0615479,16.5164 C30.8720548,16.7796 30.9308493,17.1472 31.1918493,17.3376 C31.6590274,17.6776 31.9375068,18.2264 31.9375068,18.8056 C31.9375068,19.3888 31.6689589,19.9216 31.200589,20.268 C31.1515803,20.3042933 31.1098372,20.3468349 31.0756426,20.3937321 Z M17.4511823,20.3932179 C17.415372,20.4096714 17.380695,20.4300357 17.347726,20.4544 C16.5881644,21.0156 16.1348904,21.9168 16.1348904,22.8644 C16.1348904,23.8196 16.593726,24.7244 17.3624247,25.2852 C17.4657123,25.3604 17.5856849,25.3968 17.7044658,25.3968 C17.8852192,25.3968 18.0631918,25.3128 18.178,25.154 C18.3674932,24.8912 18.3086986,24.5236 18.0476986,24.3328 C17.5813151,23.9924 17.3028356,23.4436 17.3028356,22.8644 C17.3028356,22.2808 17.5713836,21.748 18.0393562,21.402 C18.0880261,21.3659577 18.1295304,21.3237531 18.1635922,21.2772401 C18.1995815,21.2606841 18.2343877,21.2401675 18.2673836,21.2156 C19.0269452,20.6544 19.4802192,19.7532 19.4802192,18.8056 C19.4802192,17.8508 19.0213836,16.9456 18.2526849,16.3848 C17.9912877,16.194 17.6266027,16.2532 17.4371096,16.516 C17.2476164,16.7788 17.306411,17.1464 17.567411,17.3372 C18.0337945,17.6776 18.312274,18.2264 18.312274,18.8056 C18.312274,19.3892 18.043726,19.922 17.5757534,20.268 C17.5269238,20.3041606 17.4853069,20.346524 17.4511823,20.3932179 Z M19.6303836,38.5264 C16.6497397,37.0388 14.3635068,34.4384 13.2547534,31.302 L37.3525616,31.302 C36.243411,34.4384 33.9571781,37.0388 30.9773288,38.5264 L19.6303836,38.5264 Z M28.0642192,25.3968 C27.9454384,25.3968 27.8254658,25.3604 27.7221781,25.2852 C26.9534795,24.7244 26.4946438,23.8196 26.4946438,22.8644 C26.4946438,21.9168 26.9479178,21.0156 27.7074795,20.4544 C27.9672877,20.2624 28.3327671,20.3188 28.5238493,20.58 C28.7145342,20.8416 28.6589178,21.2096 28.3991096,21.402 C27.931137,21.748 27.662589,22.2808 27.662589,22.8644 C27.662589,23.4436 27.9410685,23.9924 28.4074521,24.3328 C28.6684521,24.5236 28.7272466,24.8912 28.5377534,25.154 C28.4229452,25.3128 28.2449726,25.3968 28.0642192,25.3968 Z"
				id="Combined-Shape"></path>
		</g>
	</g>
</svg>
