<?xml version="1.0" encoding="UTF-8"?>
<svg width="48px" height="48px" viewBox="0 0 48 48" version="1.1" xmlns="http://www.w3.org/2000/svg"
		 xmlns:xlink="http://www.w3.org/1999/xlink">
	<!-- Generator: Sketch 43.1 (39012) - http://www.bohemiancoding.com/sketch -->
	<title>vegetarian</title>
	<desc>Created with Sketch.</desc>
	<defs></defs>
	<g id="UI-KIT" stroke="none" stroke-width="1" fill="none" fill-rule="evenodd">
		<g id="vegetarian" fill-rule="nonzero" fill="#455A64">
			<path
				d="M40,17.4784576 C40,20.3277921 37.7203009,22.6464848 34.9152919,22.6464848 C31.2986288,23.5500038 29.4334391,25.4475985 28.7798737,28.368377 C28.2802644,30.6011265 28.4221177,32.6864943 29.1439616,37.5202996 C29.4270435,39.4183875 29.5337645,40.1981858 29.6299688,41.1838743 C29.6500659,41.3925634 29.5825601,41.6003852 29.4443755,41.7542684 C29.3059456,41.9107533 29.1079624,42 28.8996168,42 L21.7107392,42 C21.5121207,42 21.3215125,41.9181758 21.1828031,41.7733093 C21.0453296,41.6286601 20.9714242,41.4351449 20.9772264,41.2350555 C21.2710561,31.1322174 20.1600873,26.4247895 15.307578,22.3512686 C14.6117608,22.6953477 13.849964,22.8773638 13.0847081,22.8773638 C10.2804702,22.8773638 8,20.558269 8,17.7093366 C8,16.5384624 8.39295782,15.4101234 9.10204357,14.500029 C9.02365486,14.1363985 8.98388845,13.7679883 8.98388845,13.3993308 C8.98388845,10.5503916 11.2635875,8.23169901 14.0682078,8.23169901 C14.7999786,8.23169901 15.5293571,8.39596783 16.1970489,8.70897107 C17.1566026,7.494356 18.6051063,6.76972861 20.1596863,6.76972861 C20.6388133,6.76972861 21.1171678,6.84020639 21.5800364,6.97750486 C22.4446371,6.3450099 23.487322,6 24.5481164,6 C25.9630045,6 27.331942,6.61466849 28.2902463,7.66989322 C29.0660906,7.2086348 29.9491537,6.96186425 30.8677824,6.96186425 C33.6719513,6.96186425 35.9521018,9.28088864 35.9521018,12.1298914 C35.9521018,12.2238625 35.9488516,12.3203269 35.9425115,12.4221129 C38.2815448,12.9111518 40,15.0146113 40,17.4784576 Z M31.5812458,21.3799333 C31.2762768,21.1112431 31.2437725,20.6431331 31.507798,20.3337254 C31.7733795,20.021953 32.2385703,19.9883524 32.544693,20.2590698 C33.2036654,20.8399841 34.0452529,21.1597397 34.9152919,21.1597397 C36.9089142,21.1597397 38.5327872,19.5087369 38.5324182,17.4784576 C38.5324182,15.4479716 36.9087025,13.7967802 34.9152919,13.7967802 C34.3105117,13.7967802 33.7094868,13.953298 33.1786537,14.2488872 C32.8224486,14.4479122 32.3747584,14.3147322 32.1807899,13.9537108 C31.987542,13.5944765 32.1167157,13.1442353 32.4710919,12.946476 C33.0891417,12.6030089 33.7751509,12.39342 34.4786612,12.3313282 C34.482296,12.2633352 34.4841313,12.1962359 34.4841313,12.1298914 C34.4841313,10.099324 32.8607239,8.44821401 30.8673937,8.44821401 C29.155967,8.44821401 27.704274,9.63408474 27.3347932,11.3357006 C27.2479109,11.736547 26.8553537,11.9913627 26.4588288,11.901809 C26.0636351,11.8125559 25.8149482,11.4163813 25.9010923,11.0165031 C26.0993808,10.1030226 26.5277191,9.27801004 27.1388791,8.60826557 C26.46036,7.8980364 25.5183107,7.48634976 24.5481164,7.48634976 C24.0734506,7.48634976 23.6009926,7.584411 23.1598834,7.77170931 C23.3999769,7.94741147 23.6197672,8.13920103 23.8176742,8.34764907 C24.0980872,8.64251241 24.0902538,9.11120814 23.8000857,9.39661386 C23.5082988,9.6830705 23.0423137,9.67484767 22.7602421,9.37824016 C22.0826054,8.66473015 21.1341096,8.25528768 20.1596863,8.25528768 C18.3408806,8.25528768 16.7971619,9.64098963 16.5706328,11.4791396 C16.5249686,11.8517284 16.2121748,12.1304185 15.8431721,12.1304185 C15.798176,12.1296312 15.7800932,12.1285118 15.7511737,12.1245113 C15.3485983,12.0736051 15.0643458,11.7016174 15.1145721,11.2951298 C15.1696115,10.8501307 15.2830903,10.4160136 15.4504886,9.99863309 C15.011739,9.81403712 14.5402752,9.71765343 14.0685966,9.71765343 C12.1104452,9.71765343 10.5096003,11.3103428 10.4530179,13.2908584 C10.745634,13.1091113 11.0525846,12.9588206 11.3718635,12.8426856 C11.7545415,12.7028407 12.1751996,12.9054329 12.3116603,13.2926121 C12.4469933,13.6780912 12.2493473,14.1028965 11.8681093,14.2411351 C10.4324825,14.7629198 9.46719304,16.1562413 9.46719304,17.708546 C9.46719304,19.7391715 11.0906574,21.3902234 13.0843194,21.3902234 C14.0406267,21.3902234 14.9765731,20.9939778 15.6504609,20.3030186 C15.9364716,20.0110644 16.4023797,20.0093866 16.690258,20.2999923 C16.9761245,20.5891014 16.9779193,21.0577132 16.6939442,21.348665 C16.6516635,21.3920256 16.6093098,21.4331511 16.5608613,21.4779451 C21.4663601,25.7720346 22.6999517,30.7179587 22.4652607,40.5136502 L28.0803403,40.5136502 C27.9989076,39.8240131 27.9122727,39.2162636 27.693549,37.7424553 C26.9901311,33.0343717 26.8284688,30.9109614 27.2356046,28.5327649 C27.7627478,25.4535717 29.3563718,23.2487121 32.3362199,21.931078 C32.0687376,21.7711805 31.8160693,21.586924 31.5812458,21.3799333 Z M27.9125985,17.82155 C27.801695,17.4278658 28.0255393,17.0166681 28.4151214,16.9030038 C28.8058726,16.7896958 29.2120598,17.0187438 29.3233619,17.4133038 C29.5042899,18.0557413 30.0900058,18.5046306 30.7449421,18.5046306 C31.138886,18.5046306 31.5088796,18.3494125 31.787756,18.0668437 C32.0758557,17.775476 32.5424626,17.7773257 32.8269057,18.0709242 C33.111308,18.3612365 33.1101643,18.8304416 32.824392,19.1194555 C32.2685802,19.6821698 31.5295061,19.9925617 30.7441646,19.9925617 C30.3660903,19.9925617 29.9940041,19.9168108 29.6453325,19.7724973 C29.1664599,21.2821043 28.7057518,22.2965081 27.7292311,24.1854295 C27.5899183,24.4548813 27.5292,24.5726423 27.4534817,24.7207273 C26.9181473,25.7677009 26.5783595,26.5129318 26.2579976,27.3939602 C26.1516222,27.687067 25.8758793,27.8804021 25.5697122,27.8804021 C25.5197565,27.8804021 25.4705293,27.8756791 25.4212489,27.8655477 C25.0665443,27.791343 24.8187876,27.4657788 24.8367471,27.0999489 C24.9095386,25.6308451 24.9350476,24.6020534 24.9683083,22.3931027 C24.9975053,20.4652901 25.0199648,19.478612 25.074172,18.2397327 C24.6474618,18.3300617 24.2060564,18.3764084 23.7640378,18.3764084 C23.5328145,18.3764084 23.295943,18.3607936 23.0457007,18.3305641 C23.2582088,21.210359 23.3254579,22.3874142 23.4653302,25.5263297 C23.4806693,25.8571533 23.2767446,26.1590818 22.968293,26.2632687 C22.8924959,26.2900343 22.8130662,26.3029921 22.732335,26.3029921 C22.4906921,26.3029921 22.2637037,26.1827816 22.1262285,25.9786463 C21.6699458,25.3017069 21.3354656,24.7756816 20.6070809,23.6061844 C19.3459101,21.5821652 18.7439884,20.6909876 17.9464841,19.7709206 C17.7909215,19.7965185 17.6333617,19.8095189 17.4746932,19.8095189 C16.9526121,19.8095189 16.4389638,19.668548 15.9887224,19.401444 C15.6398052,19.1938211 15.5223216,18.740461 15.725225,18.3863325 C15.9291913,18.0314287 16.3801665,17.9109374 16.7305726,18.1186789 C16.9563846,18.2524957 17.2135952,18.3231692 17.4746932,18.3231692 C18.2893217,18.3231692 18.9541654,17.6470278 18.9541654,16.815471 C18.9541654,16.5885966 18.9025316,16.3603574 18.8051543,16.1563444 C18.6293271,15.7879747 18.7805972,15.3448939 19.1447449,15.1648627 C19.5107877,14.9849627 19.9505981,15.1399787 20.1269333,15.5099855 C20.3196404,15.9150708 20.4213584,16.3659806 20.4213584,16.815471 C20.4213584,17.7248516 20.0157416,18.5672257 19.3378077,19.1306663 C20.0858053,20.0432932 20.6702946,20.9211926 21.847911,22.8127014 C21.7939642,21.4100871 21.7104576,20.1564236 21.547667,17.9693362 C21.499038,17.9527224 21.4687676,17.9415679 21.4329925,17.9268668 C21.0583987,17.7714613 20.8793198,17.3389216 21.0305861,16.959709 C21.1829264,16.5791342 21.6110952,16.3953133 21.9883091,16.5508221 C22.5229814,16.772031 23.1372228,16.889268 23.7648153,16.889268 C24.5706808,16.889268 25.3522922,16.695113 25.962097,16.3451889 C26.3156564,16.1412713 26.7649377,16.2685095 26.964358,16.6276177 C27.161506,16.9845366 27.0375714,17.4362234 26.6857596,17.6377496 C26.6495231,17.6585791 26.6142363,17.677696 26.5688955,17.7011854 C26.4957871,19.1771104 26.4702871,20.2055344 26.4370104,22.4149436 C26.4297392,22.8905754 26.4243887,23.2302371 26.4194283,23.5156977 C27.4562723,21.5113487 27.9201147,20.4646918 28.4037294,18.8112668 C28.1810972,18.5159148 28.0139678,18.18104 27.9125985,17.82155 Z"
				id="Combined-Shape"></path>
		</g>
	</g>
</svg>
