<?xml version="1.0" encoding="UTF-8"?>
<svg width="48px" height="48px" viewBox="0 0 48 48" version="1.1" xmlns="http://www.w3.org/2000/svg"
		 xmlns:xlink="http://www.w3.org/1999/xlink">
	<!-- Generator: Sketch 43.1 (39012) - http://www.bohemiancoding.com/sketch -->
	<title>vegetarian-green</title>
	<desc>Created with Sketch.</desc>
	<defs></defs>
	<g id="UI-KIT" stroke="none" stroke-width="1" fill="none" fill-rule="evenodd">
		<g id="vegetarian-green" fill-rule="nonzero" fill="#39CE7B">
			<path
				d="M40,17.4784576 C40,20.3277921 37.7203009,22.6464848 34.9152919,22.6464848 C31.2986288,23.5500038 29.4334391,25.4475985 28.7798737,28.368377 C28.2802644,30.6011265 28.4221177,32.6864943 29.1439616,37.5202996 C29.4270435,39.4183875 29.5337645,40.1981858 29.6299688,41.1838743 C29.6500659,41.3925634 29.5825601,41.6003852 29.4443755,41.7542684 C29.3059456,41.9107533 29.1079624,42 28.8996168,42 L21.7107392,42 C21.5121207,42 21.3215125,41.9181758 21.1828031,41.7733093 C21.0453296,41.6286601 20.9714242,41.4351449 20.9772264,41.2350555 C21.2710561,31.1322174 20.1600873,26.4247895 15.307578,22.3512686 C14.6117608,22.6953477 13.849964,22.8773638 13.0847081,22.8773638 C10.2804702,22.8773638 8,20.558269 8,17.7093366 C8,16.5384624 8.39295782,15.4101234 9.10204357,14.500029 C9.02365486,14.1363985 8.98388845,13.7679883 8.98388845,13.3993308 C8.98388845,10.5503916 11.2635875,8.23169901 14.0682078,8.23169901 C14.7999786,8.23169901 15.5293571,8.39596783 16.1970489,8.70897107 C17.1566026,7.494356 18.6051063,6.76972861 20.1596863,6.76972861 C20.6388133,6.76972861 21.1171678,6.84020639 21.5800364,6.97750486 C22.4446371,6.3450099 23.487322,6 24.5481164,6 C25.9630045,6 27.331942,6.61466849 28.2902463,7.66989322 C29.0660906,7.2086348 29.9491537,6.96186425 30.8677824,6.96186425 C33.6719513,6.96186425 35.9521018,9.28088864 35.9521018,12.1298914 C35.9521018,12.2238625 35.9488516,12.3203269 35.9425115,12.4221129 C38.2815448,12.9111518 40,15.0146113 40,17.4784576 Z M27.9125985,17.82155 C28.0139678,18.18104 28.1810972,18.5159148 28.4037294,18.8112668 C27.9201147,20.4646918 27.4562723,21.5113487 26.4194283,23.5156977 C26.4243887,23.2302371 26.4297392,22.8905754 26.4370104,22.4149436 C26.4702871,20.2055344 26.4957871,19.1771104 26.5688955,17.7011854 C26.6142363,17.677696 26.6495231,17.6585791 26.6857596,17.6377496 C27.0375714,17.4362234 27.161506,16.9845366 26.964358,16.6276177 C26.7649377,16.2685095 26.3156564,16.1412713 25.962097,16.3451889 C25.3522922,16.695113 24.5706808,16.889268 23.7648153,16.889268 C23.1372228,16.889268 22.5229814,16.772031 21.9883091,16.5508221 C21.6110952,16.3953133 21.1829264,16.5791342 21.0305861,16.959709 C20.8793198,17.3389216 21.0583987,17.7714613 21.4329925,17.9268668 C21.4687676,17.9415679 21.499038,17.9527224 21.547667,17.9693362 C21.7104576,20.1564236 21.7939642,21.4100871 21.847911,22.8127014 C20.6702946,20.9211926 20.0858053,20.0432932 19.3378077,19.1306663 C20.0157416,18.5672257 20.4213584,17.7248516 20.4213584,16.815471 C20.4213584,16.3659806 20.3196404,15.9150708 20.1269333,15.5099855 C19.9505981,15.1399787 19.5107877,14.9849627 19.1447449,15.1648627 C18.7805972,15.3448939 18.6293271,15.7879747 18.8051543,16.1563444 C18.9025316,16.3603574 18.9541654,16.5885966 18.9541654,16.815471 C18.9541654,17.6470278 18.2893217,18.3231692 17.4746932,18.3231692 C17.2135952,18.3231692 16.9563846,18.2524957 16.7305726,18.1186789 C16.3801665,17.9109374 15.9291913,18.0314287 15.725225,18.3863325 C15.5223216,18.740461 15.6398052,19.1938211 15.9887224,19.401444 C16.4389638,19.668548 16.9526121,19.8095189 17.4746932,19.8095189 C17.6333617,19.8095189 17.7909215,19.7965185 17.9464841,19.7709206 C18.7439884,20.6909876 19.3459101,21.5821652 20.6070809,23.6061844 C21.3354656,24.7756816 21.6699458,25.3017069 22.1262285,25.9786463 C22.2637037,26.1827816 22.4906921,26.3029921 22.732335,26.3029921 C22.8130662,26.3029921 22.8924959,26.2900343 22.968293,26.2632687 C23.2767446,26.1590818 23.4806693,25.8571533 23.4653302,25.5263297 C23.3254579,22.3874142 23.2582088,21.210359 23.0457007,18.3305641 C23.295943,18.3607936 23.5328145,18.3764084 23.7640378,18.3764084 C24.2060564,18.3764084 24.6474618,18.3300617 25.074172,18.2397327 C25.0199648,19.478612 24.9975053,20.4652901 24.9683083,22.3931027 C24.9350476,24.6020534 24.9095386,25.6308451 24.8367471,27.0999489 C24.8187876,27.4657788 25.0665443,27.791343 25.4212489,27.8655477 C25.4705293,27.8756791 25.5197565,27.8804021 25.5697122,27.8804021 C25.8758793,27.8804021 26.1516222,27.687067 26.2579976,27.3939602 C26.5783595,26.5129318 26.9181473,25.7677009 27.4534817,24.7207273 C27.5292,24.5726423 27.5899183,24.4548813 27.7292311,24.1854295 C28.7057518,22.2965081 29.1664599,21.2821043 29.6453325,19.7724973 C29.9940041,19.9168108 30.3660903,19.9925617 30.7441646,19.9925617 C31.5295061,19.9925617 32.2685802,19.6821698 32.824392,19.1194555 C33.1101643,18.8304416 33.111308,18.3612365 32.8269057,18.0709242 C32.5424626,17.7773257 32.0758557,17.775476 31.787756,18.0668437 C31.5088796,18.3494125 31.138886,18.5046306 30.7449421,18.5046306 C30.0900058,18.5046306 29.5042899,18.0557413 29.3233619,17.4133038 C29.2120598,17.0187438 28.8058726,16.7896958 28.4151214,16.9030038 C28.0255393,17.0166681 27.801695,17.4278658 27.9125985,17.82155 Z"
				id="Combined-Shape"></path>
		</g>
	</g>
</svg>
