<?xml version="1.0" encoding="UTF-8"?>
<svg width="48px" height="48px" viewBox="0 0 48 48" version="1.1" xmlns="http://www.w3.org/2000/svg"
		 xmlns:xlink="http://www.w3.org/1999/xlink">
	<!-- Generator: Sketch 43.1 (39012) - http://www.bohemiancoding.com/sketch -->
	<title>winebar</title>
	<desc>Created with Sketch.</desc>
	<defs></defs>
	<g id="UI-KIT" stroke="none" stroke-width="1" fill="none" fill-rule="evenodd">
		<g id="winebar" fill-rule="nonzero" fill="#455A64">
			<path
				d="M19.6398544,8.68888889 C19.6398544,8.31043649 19.3295598,8 18.9513717,8 L14.2868376,8 C13.9086495,8 13.5983549,8.31043649 13.5983549,8.68888889 L13.5983549,12.8666667 C13.5983549,15.6523023 12.8610477,18.2675866 11.3966393,20.7855922 C10.4904827,22.426054 10,24.3888815 10,26.3333333 L10,37.5333333 C10,38.6673413 10.9322325,39.6 12.0656309,39.6 L21.1725785,39.6 C22.3059768,39.6 23.2382093,38.6673413 23.2382093,37.5333333 L23.2382093,26.3333333 C23.2382093,24.3940972 22.7500094,22.429046 21.8431668,20.7439837 C20.3556733,18.1516814 19.5975209,15.553202 19.6398544,12.8650861 L19.6398544,8.68888889 Z M18.262889,9.37777778 L18.262889,11.2888889 L14.9753203,11.2888889 L14.9753203,9.37777778 L18.262889,9.37777778 Z M16.530165,33.2 L16.530165,27.9555556 L21.8168198,27.9555556 L21.8168198,33.2 L16.530165,33.2 Z M15.8416823,26.5777778 C15.4634942,26.5777778 15.1531996,26.8882143 15.1531996,27.2666667 L15.1531996,33.8888889 C15.1531996,34.2673413 15.4634942,34.5777778 15.8416823,34.5777778 L21.8168198,34.5777778 L21.8168198,37.5777778 C21.8168198,37.9548809 21.5051766,38.2666667 21.1281543,38.2666667 L12.0327364,38.263943 C11.6660587,38.2028021 11.3769654,37.8955 11.3769654,37.5333333 L11.3769654,26.3333333 C11.3769654,24.5838446 11.7971884,22.8671495 12.6036412,21.388149 C14.1483808,18.7388133 14.9308962,15.8829805 14.9308962,12.8666667 L14.9308962,12.6666667 L18.2184649,12.6666667 L18.2184649,12.8666667 C18.2184649,15.8514488 19.0032424,18.6648537 20.5475517,21.3913586 C21.3958986,22.910147 21.8168198,24.5832202 21.8168198,26.3777778 L21.8168198,26.5777778 L15.8416823,26.5777778 Z M37.0551069,18.4865584 C37.018031,18.1156303 36.724757,17.8222222 36.3656325,17.8222222 L29.2133468,17.8222222 C28.8643631,17.8222222 28.5583461,18.1072648 28.5243682,18.4807429 L27.991186,26.0375546 C27.7753971,28.8440916 29.4584555,31.3634065 31.9225562,31.9159575 L32.0787949,31.9509925 L32.0787949,38.2222222 L30.3683743,38.2222222 C29.9901863,38.2222222 29.6798916,38.5326587 29.6798916,38.9111111 C29.6798916,39.2895635 29.9901863,39.6 30.3683743,39.6 L35.1661809,39.6 C35.5443689,39.6 35.8546636,39.2895635 35.8546636,38.9111111 C35.8546636,38.5326587 35.5443689,38.2222222 35.1661809,38.2222222 L33.4557603,38.2222222 L33.4557603,31.953032 L33.6095648,31.9165193 C36.1448366,31.3146543 37.7584765,28.9489571 37.5876177,26.0351213 L37.0551069,18.4865584 Z M29.369268,26.1854756 L29.8714388,19.2888889 L35.7074505,19.2888889 L35.7210388,19.4742681 L36.2096031,26.1396138 C36.3980074,28.495745 34.7398108,30.7108484 32.7649589,30.6223285 C30.8001121,30.6648782 29.1386858,28.491623 29.369268,26.1854756 Z"
				id="Combined-Shape"></path>
		</g>
	</g>
</svg>
