<?xml version="1.0" encoding="UTF-8"?>
<svg width="64px" height="64px" viewBox="0 0 64 64" version="1.1" xmlns="http://www.w3.org/2000/svg"
		 xmlns:xlink="http://www.w3.org/1999/xlink">
	<!-- Generator: Sketch 43.1 (39012) - http://www.bohemiancoding.com/sketch -->
	<title>add-photo</title>
	<desc>Created with Sketch.</desc>
	<defs></defs>
	<g id="UI-Kit" stroke="none" stroke-width="1" fill="none" fill-rule="evenodd">
		<g id="add-photo">
			<path
				d="M47.7696,10.2777905 L6.25188571,10.2777905 L6.25188571,38.0251429 L47.7696,38.0251429 L47.7696,10.2777905 Z M12.1904762,36.1124571 L19.2036571,25.176381 L25.2720762,34.638019 L28.8457143,29.0639238 L33.3665524,36.1118476 L12.1904762,36.1118476 L12.1904762,36.1124571 Z M45.9410286,36.197181 L35.5931429,36.197181 L28.8463238,25.6774095 L25.2726857,31.2515048 L19.2042667,21.7898667 L9.96449524,36.197181 L8.08045714,36.197181 L8.08045714,12.1063619 L45.9410286,12.1063619 L45.9410286,36.197181 Z"
				id="Shape" fill="#000000" fill-rule="nonzero"></path>
			<path
				d="M37.2315429,26.202819 C39.870781,26.202819 42.0193524,24.0548571 42.0193524,21.4150095 C42.0193524,18.7757714 39.870781,16.6278095 37.2315429,16.6278095 C34.5910857,16.6278095 32.4437333,18.7751619 32.4437333,21.4150095 C32.4431238,24.0548571 34.5904762,26.202819 37.2315429,26.202819 Z M37.2315429,18.456381 C38.8638476,18.456381 40.190781,19.7839238 40.190781,21.4150095 C40.190781,23.0473143 38.8632381,24.3742476 37.2315429,24.3742476 C35.5998476,24.3742476 34.2723048,23.0467048 34.2723048,21.4150095 C34.2716952,19.7839238 35.5992381,18.456381 37.2315429,18.456381 Z"
				id="Shape" fill="#000000" fill-rule="nonzero"></path>
			<path
				d="M53.7374476,39.3362286 C59.134781,39.7458286 63.4038857,44.2587429 63.4038857,49.7603048 C63.4038857,55.5300571 58.7099429,60.2233905 52.939581,60.2233905 C47.9609905,60.2233905 43.7912381,56.7253333 42.7398095,52.0600381 L3.39687619,52.0600381 C1.70788571,52.0600381 0.333409524,50.6861714 0.333409524,48.997181 L0.333409524,7.4496 C0.333409524,5.76182857 1.70788571,4.3879619 3.39687619,4.3879619 L50.6745905,4.3879619 C52.363581,4.3879619 53.7374476,5.76121905 53.7374476,7.4496 L53.7374476,39.3362286 Z M42.5002667,50.2314667 C42.4929524,50.0742095 42.4764952,49.918781 42.4758857,49.7603048 C42.4758857,44.3385905 46.6212571,39.8689524 51.9082667,39.348419 L51.9082667,7.4496 C51.9082667,6.76937143 51.354819,6.21653333 50.673981,6.21653333 L3.39687619,6.21653333 C2.7160381,6.21653333 2.16198095,6.76937143 2.16198095,7.4496 L2.16198095,48.997181 C2.16198095,49.678019 2.7160381,50.2314667 3.39687619,50.2314667 L42.5002667,50.2314667 Z"
				id="Shape" fill="#263238" fill-rule="nonzero"></path>
			<path
				d="M52.722785,60.8195048 C46.5055118,60.8195048 41.4471619,55.7619508 41.4471619,49.5438817 C41.4471619,43.3250166 46.5055118,38.2666667 52.722785,38.2666667 C58.9416501,38.2666667 64,43.3250166 64,49.5438817 C64,55.7611549 58.9416501,60.8195048 52.722785,60.8195048 Z"
				id="Path-Copy" fill="#39CE7B"></path>
			<polygon id="Shape" fill="#FFFFFF" fill-rule="nonzero"
							 points="53.8538667 44.8329143 52.0252952 44.8329143 52.0252952 48.846019 48.0134095 48.846019 48.0134095 50.6745905 52.0252952 50.6745905 52.0252952 54.6864762 53.8538667 54.6864762 53.8538667 50.6745905 57.8669714 50.6745905 57.8669714 48.846019 53.8538667 48.846019"></polygon>
		</g>
	</g>
</svg>
