<?xml version="1.0" encoding="UTF-8" standalone="no"?>
<svg
	xmlns:dc="http://purl.org/dc/elements/1.1/"
	xmlns:cc="http://creativecommons.org/ns#"
	xmlns:rdf="http://www.w3.org/1999/02/22-rdf-syntax-ns#"
	xmlns:svg="http://www.w3.org/2000/svg"
	xmlns="http://www.w3.org/2000/svg"
	version="1.0"
	width="72.000000pt"
	height="72.000000pt"
	viewBox="0 0 72.000000 72.000000"
	preserveAspectRatio="xMidYMid meet"
	id="svg8">
	<g
		transform="matrix(0.1,0,0,-0.1,0,72)"
		fill="currentcolor"
		stroke="none"
		id="g6">
		<path
			d="m 165,471 c -36,-54 -65,-104 -65,-111 0,-7 29,-57 65,-111 l 65,-99 h 183 c 165,0 170.08967,-6.83907 200,18 23.2498,23.07126 17,45 17,194 0,157 7.42834,168.7502 -18,191 -24.83907,21.48199 -45,17 -201,17 H 230 Z M 590,360 V 190 H 420 250 l -55,85 -55,85 55,85 55,85 h 170 170 z"
			id="path2"
		/>
		<path
			d="m 310,455 c -11,-14 -8,-21 25,-55 l 39,-40 -39,-40 c -33,-34 -36,-41 -25,-55 12,-14 18,-12 55,25 l 41,40 39,-40 c 35,-36 41,-38 54,-25 14,13 11,19 -24,55 l -39,40 39,40 c 35,36 38,42 24,55 -13,13 -19,11 -54,-25 l -39,-40 -41,40 c -37,37 -43,39 -55,25 z"
			id="path4"/>
	</g>
</svg>
