<?xml version="1.0" encoding="UTF-8"?>
<svg width="64px" height="64px" viewBox="0 0 64 64" version="1.1" xmlns="http://www.w3.org/2000/svg"
		 xmlns:xlink="http://www.w3.org/1999/xlink">
	<!-- Generator: Sketch 43.1 (39012) - http://www.bohemiancoding.com/sketch -->
	<title>card</title>
	<desc>Created with Sketch.</desc>
	<defs></defs>
	<g id="UI-Kit" stroke="none" stroke-width="1" fill="none" fill-rule="evenodd">
		<g id="card" fill-rule="nonzero" fill="#263238">
			<path
				d="M56.9915235,20.3645209 C56.9915235,17.9598645 55.0193264,16.0055599 52.5724458,16 L11.4501582,16 C9.00327758,16.0027799 7.00847649,17.9543046 7,20.3645209 L7,23.4308053 L7.00847649,23.4308053 L7.00847649,26.8501433 L7.00847649,43.641039 C7.00847649,46.0512553 9.00610307,48 11.4501582,48 L52.5724458,48 C55.0193264,48 56.9915235,46.0401355 56.9915235,43.641039 L56.9915235,27.7313874 L57,27.7313874 L57,22.5579011 L56.9915235,22.5579011 L56.9915235,20.3645209 Z M54.9345615,43.641039 C54.9345615,44.9225958 53.875,45.9734167 52.5724458,45.9761967 L11.4501582,45.9761967 C10.147604,45.9734167 9.07391501,44.9198158 9.06543852,43.641039 L9.06543852,28.8739467 L54.9345615,28.8767266 L54.9345615,43.641039 Z M54.9345615,26.8501433 L9.06543852,26.8501433 L9.06543852,23.4308053 L54.9345615,23.4308053 L54.9345615,26.8501433 Z M54.9345615,21.404222 L9.06543852,21.404222 L9.06543852,20.3645209 C9.07391501,19.088524 10.147604,18.0321432 11.4501582,18.0321432 L52.5724458,18.0321432 C53.875,18.0321432 54.9345615,19.0829641 54.9345615,20.3645209 L54.9345615,21.404222 L54.9345615,21.404222 Z M53.5029514,32.4970486 L53.5029514,35.5029514 L36.4970486,35.5029514 L36.4970486,32.4970486 L53.5029514,32.4970486 Z"
				id="Shape"></path>
		</g>
	</g>
</svg>
