<?xml version="1.0" encoding="UTF-8"?>
<svg width="64px" height="64px" viewBox="0 0 64 64" version="1.1" xmlns="http://www.w3.org/2000/svg"
		 xmlns:xlink="http://www.w3.org/1999/xlink">
	<!-- Generator: Sketch 43.1 (39012) - http://www.bohemiancoding.com/sketch -->
	<title>dish-2</title>
	<desc>Created with Sketch.</desc>
	<defs></defs>
	<g id="UI-Kit" stroke="none" stroke-width="1" fill="none" fill-rule="evenodd">
		<g id="dish-2" fill-rule="nonzero" fill="#263238">
			<path
				d="M35.2162435,18.2179193 C35.3448933,17.9077781 35.4092182,17.597637 35.4092182,17.2254677 C35.4092182,15.4266492 33.8654213,14 32.0643249,14 C30.1989036,14 28.7194316,15.4886774 28.7194316,17.2254677 C28.7194316,17.597637 28.7837565,17.9077781 28.9124062,18.2179193 C17.5269041,19.7065967 8.77872164,29.1348868 8.77872164,40.4860519 L8.77872164,41.4164752 L55.4785778,41.4164752 L55.4785778,40.4860519 C55.3499281,29.196915 46.6017457,19.7686249 35.2162435,18.2179193 Z M30.5848528,17.2874959 C30.5848528,16.5431572 31.2281016,15.922875 32,15.922875 C32.7718984,15.922875 33.4151472,16.5431572 33.4151472,17.2874959 C33.4151472,17.597637 33.2864974,17.8457499 33.1578477,18.0938628 L32,18.0938628 L30.8421523,18.0938628 C30.6491777,17.8457499 30.5848528,17.5356088 30.5848528,17.2874959 Z M10.6441429,39.6176567 C11.1587419,28.638661 20.550173,19.8926813 32.0643249,19.8926813 C43.5784767,19.8926813 52.9699079,28.638661 53.4845068,39.6176567 L10.6441429,39.6176567 Z M15.4192367,37.6327535 C15.8051859,37.6327535 16.1911351,37.3226124 16.25546,36.9504431 C17.6062823,31.4919593 22.0446984,26.7778142 28.0912362,24.3587135 C28.6058352,24.1726288 28.7988098,23.676403 28.6058352,23.2422054 C28.4128606,22.7459797 27.8982616,22.559895 27.4479875,22.7459797 C20.8225258,25.4131933 16.0624854,30.5615359 14.5830134,36.5782737 C14.4543636,37.0744995 14.7116631,37.5086971 15.2262621,37.6327535 L15.4192367,37.6327535 Z M54.7710043,50 L9.22899574,50 C8.71439677,50 8.1997978,49.7518871 7.87817345,49.3797178 L5.24085375,46.0922219 C4.98355426,45.7200525 4.91922939,45.2858549 5.11220401,44.8516574 C5.30517862,44.479488 5.75545271,44.2313751 6.20572681,44.2313751 L57.7942732,44.2313751 C58.2445473,44.2313751 58.6948214,44.479488 58.887796,44.8516574 C59.0807706,45.2238267 59.0164457,45.7200525 58.7591463,46.0922219 L56.1218266,49.3797178 C55.8002022,49.7518871 55.2856032,50 54.7710043,50 Z M9.29332061,48.2011815 L54.7066794,48.2011815 L56.5077758,45.9061372 L7.49222422,45.9061372 L9.29332061,48.2011815 Z"
				id="Combined-Shape"></path>
		</g>
	</g>
</svg>
