<?xml version="1.0" encoding="UTF-8"?>
<svg width="112px" height="112px" viewBox="0 0 112 112" version="1.1" xmlns="http://www.w3.org/2000/svg"
		 xmlns:xlink="http://www.w3.org/1999/xlink">
	<!-- Generator: Sketch 43.1 (39012) - http://www.bohemiancoding.com/sketch -->
	<title>dish</title>
	<desc>Created with Sketch.</desc>
	<defs></defs>
	<g id="UI-Kit" stroke="none" stroke-width="1" fill="none" fill-rule="evenodd">
		<g id="dish" fill-rule="nonzero" fill="#263238">
			<path
				d="M104.317804,73.443551 L104.317804,75.8471594 L8.20632451,75.8471594 L8.20632451,73.443551 C8.20632451,50.236089 25.7306073,30.6330821 49.0487155,27.2658695 C48.8982266,26.7482443 48.8262892,26.2180762 48.8262892,25.630128 C48.8262892,21.7430892 52.1062492,18.5089286 56.1310321,18.5089286 C60.1122126,18.5089286 63.4357751,21.7004094 63.4357751,25.630128 C63.4357751,26.2192475 63.3635507,26.7503565 63.2124438,27.2689625 C86.4871468,30.7548561 104.056671,50.3177872 104.317804,73.443551 Z M58.3916357,25.7576305 C58.3916357,24.5018586 57.3041302,23.4436477 56,23.4436477 C54.6958698,23.4436477 53.6083643,24.5018586 53.6083643,25.7576305 C53.6083643,26.1730361 53.7068814,26.5870228 53.9023386,26.924091 L58.0558582,26.924091 C58.3089427,26.4061864 58.3916357,26.1274473 58.3916357,25.7576305 Z M99.2471286,71.1674451 C97.9434899,49.0345754 79.0737382,31.6038053 56.1310321,31.6038053 C33.1883261,31.6038053 14.3185744,49.0345754 13.0149357,71.1674451 L99.2471286,71.1674451 Z M22.224371,68.0695092 L21.8312746,68.0695092 L21.715199,68.0555936 C20.4073447,67.7374376 19.7135409,66.5800984 20.0438426,65.2946349 C23.103958,52.7365784 32.9386092,42.0492158 46.5383693,36.5246083 C47.7376325,36.0244835 49.0618192,36.569625 49.5353735,37.7999293 C50.0561766,38.9824019 49.4894187,40.2859258 48.2215412,40.7482734 C36.0365966,45.6675476 27.115172,55.2407802 24.4118118,66.2588144 C24.2405595,67.2586496 23.2510076,68.0695092 22.224371,68.0695092 Z M102.385379,93.4910714 L9.61462094,93.4910714 C8.44021926,93.4910714 7.25011499,92.9320148 6.47854784,92.030572 L1.08551538,85.2448966 C0.449985596,84.3172813 0.327519587,83.2447776 0.79178102,82.1928586 C1.26803987,81.2659993 2.35115874,80.6511997 3.45611017,80.6511997 L108.54389,80.6511997 C109.648841,80.6511997 110.73196,81.2659993 111.208219,82.1928586 C111.680373,83.1117299 111.547175,84.3214256 110.89377,85.2729415 L105.51004,92.0444013 C104.749885,92.9320148 103.559781,93.4910714 102.385379,93.4910714 Z M102.014158,88.8113572 L104.91924,85.075909 L7.08076033,85.075909 L9.98584173,88.8113572 L102.014158,88.8113572 Z"
				id="Combined-Shape"></path>
		</g>
	</g>
</svg>
