<?xml version="1.0" standalone="no"?>
<!DOCTYPE svg PUBLIC "-//W3C//DTD SVG 20010904//EN"
	"http://www.w3.org/TR/2001/REC-SVG-20010904/DTD/svg10.dtd">
<svg version="1.0" xmlns="http://www.w3.org/2000/svg"
		 width="75.000000pt" height="75.000000pt" viewBox="0 0 75.000000 75.000000"
		 preserveAspectRatio="xMidYMid meet">

	<g transform="translate(0.000000,75.000000) scale(0.100000,-0.100000)"
		 fill="currentcolor" stroke="none">
		<path d="M145 711 c-139 -64 -169 -259 -56 -365 l31 -30 0 -148 0 -148 253 2
252 3 3 145 3 145 34 35 c109 112 78 297 -60 361 -55 25 -133 24 -188 -2 l-43
-21 -42 21 c-52 27 -132 27 -187 2z m187 -56 c33 -22 45 -25 57 -16 35 25 98
51 126 51 45 0 109 -33 135 -70 56 -78 46 -169 -26 -236 l-44 -41 0 -137 0
-136 -205 0 -205 0 0 111 0 111 36 -6 c39 -8 134 15 152 37 7 7 7 18 2 27 -7
12 -17 11 -62 -5 -74 -24 -114 -16 -171 38 -161 150 22 393 205 272z"/>
	</g>
</svg>
