<?xml version="1.0" encoding="UTF-8" standalone="no"?>
<svg
	xmlns:dc="http://purl.org/dc/elements/1.1/"
	xmlns:cc="http://creativecommons.org/ns#"
	xmlns:rdf="http://www.w3.org/1999/02/22-rdf-syntax-ns#"
	xmlns:svg="http://www.w3.org/2000/svg"
	xmlns="http://www.w3.org/2000/svg"
	xmlns:sodipodi="http://sodipodi.sourceforge.net/DTD/sodipodi-0.dtd"
	xmlns:inkscape="http://www.inkscape.org/namespaces/inkscape"
	version="1.0"
	width="75.000000pt"
	height="75.000000pt"
	viewBox="0 0 75.000000 75.000000"
	preserveAspectRatio="xMidYMid meet"
	id="svg12"
	sodipodi:docname="order-history.svg"
	inkscape:version="1.0.1 (3bc2e813f5, 2020-09-07)">
	<metadata
		id="metadata18">
		<rdf:RDF>
			<cc:Work
				rdf:about="">
				<dc:format>image/svg+xml</dc:format>
				<dc:type
					rdf:resource="http://purl.org/dc/dcmitype/StillImage"/>
			</cc:Work>
		</rdf:RDF>
	</metadata>
	<defs
		id="defs16"/>
	<sodipodi:namedview
		pagecolor="#ffffff"
		bordercolor="#666666"
		borderopacity="1"
		objecttolerance="10"
		gridtolerance="10"
		guidetolerance="10"
		inkscape:pageopacity="0"
		inkscape:pageshadow="2"
		inkscape:window-width="2558"
		inkscape:window-height="1409"
		id="namedview14"
		showgrid="false"
		inkscape:zoom="5.6568543"
		inkscape:cx="-30.138956"
		inkscape:cy="45.737837"
		inkscape:window-x="0"
		inkscape:window-y="0"
		inkscape:window-maximized="0"
		inkscape:current-layer="g10"/>
	<g
		transform="translate(0.000000,75.000000) scale(0.100000,-0.100000)"
		fill="#000000"
		stroke="none"
		id="g10">
		<path
			d="M232 739 c-129 -16 -193 -80 -217 -214 -27 -153 -13 -317 36 -405 15 -27 41 -55 69 -72 101 -62 409 -62 510 0 80 49 121 164 120 340 -1 157 -43 267 -120 314 -71 43 -236 58 -398 37z m321 -51 c108 -23 151 -112 151 -313 0 -203 -42 -288 -154 -315 -67 -16 -268 -16 -343 -1 -118 25 -161 109 -160 316 0 177 31 263 109 300 69 33 277 40 397 13z"
			id="path2"/>
		<path
			d="M423 553 l-60 -68 -38 34 c-37 32 -39 33 -52 15 -15 -20 -19 -15 60 -78 l37 -28 48 53 c93 102 102 115 90 127 -7 7 -15 12 -18 12 -4 0 -34 -30 -67 -67z"
			id="path4"/>
		<path
			d="m 170.5447,315.17881 c 0.002,-21.62756 0.009,-21.61235 200.60591,-21.60701 C 574.98365,293.56126 575.01458,293.61086 575,315 c -0.0157,23.01427 -0.0182,23.02588 -203.80049,23 -200.77555,0.002 -200.71633,0 -200.65481,-22.82119 z"
			id="path6"
			sodipodi:nodetypes="ccscc"/>
		<path
			d="m 172.69309,195.48572 c 0.0391,-24.20389 0.0339,-24.20845 198.54102,-24.13678 203.68501,0.009 203.77736,0.008 203.76589,23.65106 -0.0106,21.8206 -0.072,21.81017 -203.83133,21.77235 -198.45946,-0.0193 -198.4574,-0.0332 -198.47558,-21.28663 z"
			id="path8"
			sodipodi:nodetypes="ccscc"/>
	</g>
</svg>
