<?xml version="1.0" standalone="no"?>
<!DOCTYPE svg PUBLIC "-//W3C//DTD SVG 20010904//EN"
	"http://www.w3.org/TR/2001/REC-SVG-20010904/DTD/svg10.dtd">
<svg version="1.0" xmlns="http://www.w3.org/2000/svg"
		 width="75.000000pt" height="75.000000pt" viewBox="0 0 75.000000 75.000000"
		 preserveAspectRatio="xMidYMid meet">

	<g transform="translate(0.000000,75.000000) scale(0.100000,-0.100000)"
		 fill="#000000" stroke="none">
		<path d="M232 739 c-129 -16 -193 -80 -217 -214 -27 -153 -13 -317 36 -405 15
-27 41 -55 69 -72 101 -62 409 -62 510 0 80 49 121 164 120 340 -1 157 -43
267 -120 314 -71 43 -236 58 -398 37z m277 -132 c8 -11 -5 -32 -61 -95 -39
-45 -74 -82 -78 -82 -4 0 -30 19 -58 41 -43 35 -50 45 -41 60 13 25 18 24 57
-13 l33 -33 60 68 c34 37 64 67 69 67 4 0 13 -6 19 -13z m71 -292 l0 -25 -205
0 -205 0 0 25 0 25 205 0 205 0 0 -25z m0 -120 l0 -25 -205 0 -205 0 0 25 0
25 205 0 205 0 0 -25z"/>
	</g>
</svg>
