<?xml version="1.0" encoding="UTF-8"?>
<svg width="24px" height="24px" viewBox="0 0 24 24" version="1.1" xmlns="http://www.w3.org/2000/svg"
		 xmlns:xlink="http://www.w3.org/1999/xlink">
	<!-- Generator: Sketch 43.1 (39012) - http://www.bohemiancoding.com/sketch -->
	<title>password</title>
	<desc>Created with Sketch.</desc>
	<defs></defs>
	<g id="UI-Kit" stroke="none" stroke-width="1" fill="none" fill-rule="evenodd">
		<g id="password" fill-rule="nonzero" fill="#263238">
			<path
				d="M20.5,10.7927937 L20.5,22.5 L4.5,22.5 L4.5,10.7927937 L7.50208656,10.7927937 L7.50233184,6.75346967 C7.4407655,4.90010122 8.37797536,3.15889954 9.94910163,2.21173135 C11.5232252,1.26275622 13.4819153,1.26275622 15.0560389,2.21173135 C16.6271652,3.15889954 17.564375,4.90010122 17.5030843,6.73686952 L17.5030843,10.7927937 L20.5,10.7927937 Z M15.7477605,6.71868541 C15.7920214,5.50246867 15.180229,4.36002235 14.1550555,3.74047074 C13.1328901,3.12273709 11.8619694,3.12273709 10.839804,3.74047074 C9.81463045,4.36002235 9.20283806,5.50246867 9.24709898,6.71868541 L9.24742975,10.7927937 L15.7474659,10.7927937 L15.7477605,6.71868541 Z M18.7494859,12.577396 L6.25051405,12.577396 L6.25051405,20.7310897 L18.7494859,20.7310897 L18.7494859,12.577396 Z"
				id="Shape"></path>
		</g>
	</g>
</svg>
