<?xml version="1.0" encoding="UTF-8"?>
<svg width="32px" height="32px" viewBox="0 0 32 32" version="1.1" xmlns="http://www.w3.org/2000/svg"
		 xmlns:xlink="http://www.w3.org/1999/xlink">
	<!-- Generator: Sketch 43.1 (39012) - http://www.bohemiancoding.com/sketch -->
	<title>rating-off</title>
	<desc>Created with Sketch.</desc>
	<defs></defs>
	<g id="UI-Kit" stroke="none" stroke-width="1" fill="none" fill-rule="evenodd">
		<g id="rating-off" fill="#C7CED1">
			<path
				d="M14.885382,26.6091298 C9.51817639,26.0518293 5.33333333,21.5146259 5.33333333,16 C5.33333333,10.1089627 10.1089627,5.33333333 16,5.33333333 C21.8910373,5.33333333 26.6666667,10.1089627 26.6666667,16 C26.6666667,21.5168362 22.4784683,26.0554663 17.1081638,26.609798 L16.9309329,22.1409145 C16.9053161,21.7243771 17.0601504,21.4536826 17.2929686,21.3078397 L18.2235614,20.725016 C18.7152681,20.4125217 19,19.850324 19,19.2047093 C19,16.2896778 18.7152681,14.4782331 18.5602071,12.6666058 C18.5343635,12.2086338 18.405146,12 18.1723278,12 C17.9141195,12 17.7844486,12.2086338 17.7583784,12.6666058 L17.4482563,16.3311125 C17.4482563,16.5391987 17.2929686,16.6850415 17.0862206,16.6850415 C16.9055428,16.6850415 16.750255,16.5391987 16.750255,16.3311125 L16.3877659,12.6666058 C16.3363056,12.1874601 16.2327049,12 15.9998867,12 C15.7672951,12 15.6376242,12.1874601 15.6122341,12.6666058 L15.2499717,16.3311125 C15.1985114,16.5391987 15.0432236,16.6850415 14.8879359,16.6850415 C14.7324215,16.6850415 14.5775872,16.5391987 14.5256735,16.3311125 L14.2411682,12.6666058 C14.1899346,12.2086338 14.0863339,12 13.8274455,12 C13.5690105,12 13.4656365,12.2086338 13.4139494,12.6666058 C13.2845052,14.4780506 13,16.2894953 13,19.2045268 C13,19.8713151 13.2591151,20.4123391 13.749915,20.7248334 L14.6811879,21.3286484 C14.9137794,21.4743087 15.0688404,21.7243771 15.0432236,22.1409145 L14.885382,26.6091298 Z"
				id="Combined-Shape"></path>
		</g>
	</g>
</svg>
