<?xml version="1.0" encoding="UTF-8"?>
<svg width="32px" height="32px" viewBox="0 0 32 32" version="1.1" xmlns="http://www.w3.org/2000/svg"
		 xmlns:xlink="http://www.w3.org/1999/xlink">
	<!-- Generator: Sketch 43.1 (39012) - http://www.bohemiancoding.com/sketch -->
	<title>rating-on</title>
	<desc>Created with Sketch.</desc>
	<defs></defs>
	<g id="UI-Kit" stroke="none" stroke-width="1" fill="none" fill-rule="evenodd">
		<g id="rating-on">
			<ellipse id="Oval-2" fill="#33CF79" cx="16" cy="16" rx="10.6666667" ry="10.6666667"></ellipse>
			<path
				d="M19,19.2047093 C19,19.850324 18.7152681,20.4125217 18.2235614,20.725016 L17.2929686,21.3078397 C17.0601504,21.4536826 16.9053161,21.7243771 16.9309329,22.1409145 L17.1632977,28 L14.8362489,28 L15.0432236,22.1409145 C15.0688404,21.7243771 14.9137794,21.4743087 14.6811879,21.3286484 L13.749915,20.7248334 C13.2591151,20.4123391 13,19.8713151 13,19.2045268 C13,16.2894953 13.2845052,14.4780506 13.4139494,12.6666058 C13.4656365,12.2086338 13.5690105,12 13.8274455,12 C14.0863339,12 14.1899346,12.2086338 14.2411682,12.6666058 L14.5256735,16.3311125 C14.5775872,16.5391987 14.7324215,16.6850415 14.8879359,16.6850415 C15.0432236,16.6850415 15.1985114,16.5391987 15.2499717,16.3311125 L15.6122341,12.6666058 C15.6376242,12.1874601 15.7672951,12 15.9998867,12 C16.2327049,12 16.3363056,12.1874601 16.3877659,12.6666058 L16.750255,16.3311125 C16.750255,16.5391987 16.9055428,16.6850415 17.0862206,16.6850415 C17.2929686,16.6850415 17.4482563,16.5391987 17.4482563,16.3311125 L17.7583784,12.6666058 C17.7844486,12.2086338 17.9141195,12 18.1723278,12 C18.405146,12 18.5343635,12.2086338 18.5602071,12.6666058 C18.7152681,14.4782331 19,16.2896778 19,19.2047093 Z"
				id="Shape-Copy-2" fill="#FFFFFF" fill-rule="nonzero"></path>
		</g>
	</g>
</svg>
