<?xml version="1.0" encoding="UTF-8"?>
<svg width="64px" height="64px" viewBox="0 0 64 64" version="1.1" xmlns="http://www.w3.org/2000/svg"
		 xmlns:xlink="http://www.w3.org/1999/xlink">
	<!-- Generator: Sketch 43.1 (39012) - http://www.bohemiancoding.com/sketch -->
	<title>restaurant-menu-2</title>
	<desc>Created with Sketch.</desc>
	<defs></defs>
	<g id="UI-Kit" stroke="none" stroke-width="1" fill="none" fill-rule="evenodd">
		<g id="restaurant-menu-2" fill-rule="nonzero" fill="#263238">
			<path
				d="M52.3146613,3.7 C52.9010283,3.7 53.3728066,4.14804952 53.2938064,4.68292683 L53.2938064,59.3170732 C53.2938064,59.8402485 52.8620011,60.3 52.3146613,60.3 L11.6791451,60.3 C11.1572758,60.3 10.7,59.8657236 10.7,59.3170732 L10.7,4.68292683 C10.7,4.15975146 11.1318053,3.7 11.6791451,3.7 L52.3146613,3.7 Z M42.0313165,13.6121478 L43.1032683,12.4957748 C43.503536,12.0932783 44.1471587,12.0932783 44.5474263,12.4957748 L45.6759735,13.6306061 L45.6759735,5.66585366 L42.0313165,5.66585366 L42.0313165,13.6121478 Z M12.6582902,58.2772358 L16.1897564,58.2772358 L16.1897564,5.66585366 L12.6582902,5.66585366 L12.6582902,58.2772358 Z M51.3921116,5.66585366 L47.7474546,5.66585366 L47.7474546,16.0650407 C47.7474546,16.5192782 47.5123907,16.8630932 47.1294519,17.0159965 C47.0492579,17.0563168 46.9784845,17.0809517 46.9027895,17.0936378 C46.8444027,17.1034231 46.8067829,17.104878 46.7117141,17.104878 C46.4667489,17.104878 46.1644724,16.964589 45.989635,16.788778 L43.8819427,14.6693494 L41.7742504,16.788778 C41.4652457,17.0995035 41.055109,17.1863288 40.6572429,17.0262962 C40.2670828,16.8693631 40.0164309,16.479835 40.0164309,16.0650407 L40.0164309,5.66585366 L18.2612374,5.66585366 L18.2612374,58.3341463 L51.3921116,58.3341463 L51.3921116,5.66585366 Z M30.704918,31.884 C31.0233017,31.884 31.2655738,31.6582905 31.2655738,31.344 L31.2655738,23.672 C31.2655738,23.1527161 31.7036529,22.7 32.2540984,22.7 C32.7973242,22.7 33.2158373,23.1311615 33.3,23.728 L33.3,31.4 C33.3,32.5621268 32.4818379,33.5788856 31.3725914,33.8778604 L32.095082,41.648 L32.095082,41.76 C32.095082,43.1593384 30.9263713,44.3 29.5,44.3 C28.0736287,44.3 26.904918,43.1593384 26.904918,41.76 C26.904918,41.648 26.904918,41.648 26.906211,41.6201771 L27.6273667,33.8778491 C26.5181415,33.57886 25.7,32.5621122 25.7,31.4 L25.7,23.728 C25.7,23.2246616 26.180186,22.756 26.6885246,22.756 C27.2135123,22.756 27.6770492,23.183278 27.6770492,23.728 L27.6770492,31.4 C27.6770492,31.7037887 27.9080681,31.94 28.2377049,31.94 L28.4540984,31.94 L28.4540984,23.728 C28.4540984,23.2246616 28.9342844,22.756 29.442623,22.756 C29.9676107,22.756 30.4311475,23.183278 30.4311475,23.728 L30.4311475,31.884 L30.704918,31.884 Z M28.8819672,41.648 C28.8819672,41.9286616 29.1476828,42.188 29.442623,42.188 C29.7610066,42.188 30.0032787,41.9622905 30.0045539,41.6756314 L29.4424646,35.598841 L28.8819672,41.648 Z M41.5303334,41.6860448 C41.5303334,43.1455927 40.4487187,44.3 39.1151667,44.3 C37.7816147,44.3 36.7,43.1455927 36.7,41.7424827 L36.7,23.6823442 C36.7,23.3368329 36.8720259,23.0155274 37.1760333,22.8532938 C37.5022703,22.6791974 37.7985245,22.6396734 38.0930667,22.7968559 C38.2495666,22.8711349 38.4849907,22.9958493 38.7768961,23.1771231 C39.2591843,23.4766248 39.7368274,23.8360869 40.18396,24.2606368 C41.1053949,25.1355341 41.7805126,26.1744886 42.1019823,27.3867914 C42.5995604,29.2159924 42.1596406,31.1937879 40.7980318,33.2432414 L41.5303334,41.6860448 Z M40.3063945,27.8813961 C40.0582812,26.9734713 39.4537881,26.1457304 38.6748584,25.4812487 L38.6748584,41.7424827 C38.6748584,42.0554591 38.8837731,42.2890517 39.1680459,42.2890517 C39.4208689,42.2890517 39.6612334,42.0325106 39.6623019,41.7677804 L38.9345659,33.0840372 C38.8541201,32.8264578 38.9185375,32.5544289 39.088906,32.3588516 C40.2013853,30.6793634 40.5991719,29.1848162 40.3063945,27.8813961 Z"
				id="Shape"></path>
		</g>
	</g>
</svg>
