<?xml version="1.0" encoding="UTF-8"?>
<svg width="112px" height="112px" viewBox="0 0 112 112" version="1.1" xmlns="http://www.w3.org/2000/svg"
		 xmlns:xlink="http://www.w3.org/1999/xlink">
	<!-- Generator: Sketch 43.1 (39012) - http://www.bohemiancoding.com/sketch -->
	<title>restaurant</title>
	<desc>Created with Sketch.</desc>
	<defs></defs>
	<g id="UI-Kit" stroke="none" stroke-width="1" fill="none" fill-rule="evenodd">
		<g id="restaurant" fill-rule="nonzero" fill="#263238">
			<path
				d="M30.8085106,21 C30.2305884,21.0048405 29.7017719,21.3246256 29.4308511,21.8330963 L19.1968085,40.6512717 C19.071628,40.8764984 19.0040366,41.1289539 19,41.3863567 L19,45.3068099 C19,48.9503537 21.2927955,52.083525 24.5106383,53.343739 L24.5106383,88.4318187 C24.5107252,89.2978655 25.2155877,89.9999134 26.0851064,90 L85.9148936,90 C86.7844123,89.9999134 87.4892748,89.2978655 87.4893617,88.4318187 L87.4893617,53.343739 C90.7072045,52.083525 93,48.9503537 93,45.3068099 L93,41.3863567 C92.9959634,41.1289539 92.928372,40.8764984 92.8031915,40.6512717 L82.5691489,21.8330963 C82.2982281,21.3246256 81.7694116,21.0048405 81.1914894,21 L30.8085106,21 L30.8085106,21 Z M31.7433511,24.1363626 L38.8530585,24.1363626 L33.5884309,39.8181754 L23.2067819,39.8181754 L31.7433511,24.1363626 Z M42.1742021,24.1363626 L49.4807181,24.1363626 L47.512633,39.8181754 L36.9341755,39.8181754 L42.1742021,24.1363626 Z M52.6788564,24.1363626 L59.3211436,24.1363626 L61.2892287,39.8181754 L50.7107713,39.8181754 L52.6788564,24.1363626 Z M62.5192819,24.1363626 L69.8257979,24.1363626 L75.0658245,39.8181754 L64.487367,39.8181754 L62.5192819,24.1363626 Z M73.1469415,24.1363626 L80.2566489,24.1363626 L88.7932181,39.8181754 L78.4115691,39.8181754 L73.1469415,24.1363626 Z M22.1489362,42.954538 L33.1702128,42.954538 L33.1702128,45.3068099 C33.1702128,48.3746351 30.7396985,50.7954444 27.6595745,50.7954444 C24.5794504,50.7954444 22.1489362,48.3746351 22.1489362,45.3068099 L22.1489362,42.954538 Z M36.3191489,42.954538 L47.3404255,42.954538 L47.3404255,45.3068099 C47.3404255,48.3746351 44.9099113,50.7954444 41.8297872,50.7954444 C38.7496632,50.7954444 36.3191489,48.3746351 36.3191489,45.3068099 L36.3191489,42.954538 Z M50.4893617,42.954538 L61.5106383,42.954538 L61.5106383,45.3068099 C61.5106383,48.3746351 59.080124,50.7954444 56,50.7954444 C52.919876,50.7954444 50.4893617,48.3746351 50.4893617,45.3068099 L50.4893617,42.954538 Z M64.6595745,42.954538 L75.6808511,42.954538 L75.6808511,45.3068099 C75.6808511,48.3746351 73.2503368,50.7954444 70.1702128,50.7954444 C67.0900887,50.7954444 64.6595745,48.3746351 64.6595745,45.3068099 L64.6595745,42.954538 Z M78.8297872,42.954538 L89.8510638,42.954538 L89.8510638,45.3068099 C89.8510638,48.3746351 87.4205496,50.7954444 84.3404255,50.7954444 C81.2603015,50.7954444 78.8297872,48.3746351 78.8297872,45.3068099 L78.8297872,42.954538 Z M34.7446809,50.2563821 C36.3135989,52.4793261 38.9042366,53.9318305 41.8297872,53.9318305 C44.7553379,53.9318305 47.3459755,52.4793261 48.9148936,50.2563821 C50.4838117,52.4793261 53.0744494,53.9318305 56,53.9318305 C58.9255506,53.9318305 61.5161883,52.4793261 63.0851064,50.2563821 C64.6540245,52.4793261 67.2446621,53.9318305 70.1702128,53.9318305 C73.0957634,53.9318305 75.6864011,52.4793261 77.2553191,50.2563821 C78.8242372,52.4793261 81.4148749,53.9318305 84.3404255,53.9318305 L84.3404255,86.8636374 L52.8510638,86.8636374 L52.8510638,63.3409182 C52.8509769,62.4748714 52.1461144,61.7728235 51.2765957,61.7727369 L35.5319149,61.7727369 C34.6623962,61.7728235 33.9575337,62.4748714 33.9574468,63.3409182 L33.9574468,86.8636374 L27.6595745,86.8636374 L27.6595745,53.9318305 C30.5851251,53.9318305 33.1757628,52.4793261 34.7446809,50.2563821 Z M59.1489362,61.7727369 C58.2794175,61.7728235 57.574555,62.4748714 57.5744681,63.3409182 L57.5744681,74.3181872 C57.574555,75.1842339 58.2794175,75.8862819 59.1489362,75.8863684 L76.4680851,75.8863684 C77.3376038,75.8862819 78.0424663,75.1842339 78.0425532,74.3181872 L78.0425532,63.3409182 C78.0424663,62.4748714 77.3376038,61.7728235 76.4680851,61.7727369 L59.1489362,61.7727369 L59.1489362,61.7727369 Z M37.106383,64.9090995 L49.7021277,64.9090995 L49.7021277,86.8636374 L37.106383,86.8636374 L37.106383,64.9090995 Z M60.7234043,64.9090995 L74.893617,64.9090995 L74.893617,72.7500059 L60.7234043,72.7500059 L60.7234043,64.9090995 Z"
				id="Shape"></path>
		</g>
	</g>
</svg>
