<?xml version="1.0" encoding="UTF-8"?>
<svg width="24px" height="24px" viewBox="0 0 24 24" version="1.1" xmlns="http://www.w3.org/2000/svg"
		 xmlns:xlink="http://www.w3.org/1999/xlink">
	<!-- Generator: Sketch 43.1 (39012) - http://www.bohemiancoding.com/sketch -->
	<title>search</title>
	<desc>Created with Sketch.</desc>
	<defs></defs>
	<g id="UI-Kit" stroke="none" stroke-width="1" fill="none" fill-rule="evenodd">
		<g id="search" fill-rule="nonzero" fill="#455A64">
			<path
				d="M20.25,21.2 C19.9793877,21.2 19.7773729,21.1102157 19.5835786,20.9164214 L13.5835786,14.9164214 C13.2054738,14.5383165 13.2054738,13.9616835 13.5835786,13.5835786 C13.9616835,13.2054738 14.5383165,13.2054738 14.9164214,13.5835786 L20.9164214,19.5835786 C21.2945262,19.9616835 21.2945262,20.5383165 20.9164214,20.9164214 C20.7226271,21.1102157 20.5206123,21.2 20.25,21.2 Z M9.75,16.7 C5.88954305,16.7 2.8,13.6104569 2.8,9.75 C2.8,5.88954305 5.88954305,2.8 9.75,2.8 C13.6104569,2.8 16.7,5.88954305 16.7,9.75 C16.7,13.6104569 13.6104569,16.7 9.75,16.7 Z M9.75,4.7 C6.93545695,4.7 4.7,6.93545695 4.7,9.75 C4.7,12.5645431 6.93545695,14.8 9.75,14.8 C12.5645431,14.8 14.8,12.5645431 14.8,9.75 C14.8,6.93545695 12.5645431,4.7 9.75,4.7 Z"
				id="Combined-Shape"></path>
		</g>
	</g>
</svg>
