<?xml version="1.0" standalone="no"?>
<!DOCTYPE svg PUBLIC "-//W3C//DTD SVG 20010904//EN"
	"http://www.w3.org/TR/2001/REC-SVG-20010904/DTD/svg10.dtd">
<svg version="1.0" xmlns="http://www.w3.org/2000/svg"
		 width="72.000000pt" height="72.000000pt" viewBox="0 0 72.000000 72.000000"
		 preserveAspectRatio="xMidYMid meet">

	<g transform="translate(0.000000,72.000000) scale(0.100000,-0.100000)"
		 fill="#000000" stroke="none">
		<path d="M307 594 c-4 -4 -7 -15 -7 -25 0 -10 -14 -28 -31 -40 -26 -18 -35
-20 -55 -10 -39 17 -49 14 -72 -28 -28 -50 -28 -65 3 -79 37 -17 36 -78 -2
-108 l-28 -23 24 -45 c25 -48 35 -53 75 -35 20 10 29 8 55 -10 16 -12 31 -31
33 -44 3 -20 9 -22 58 -22 49 0 55 2 58 22 2 13 17 32 33 44 26 18 35 20 55
10 39 -17 49 -14 72 28 28 50 28 65 -3 79 -37 17 -36 78 3 108 l27 23 -24 45
c-25 48 -35 53 -75 35 -20 -10 -29 -8 -55 10 -16 12 -31 31 -33 44 -3 19 -10
22 -53 25 -28 2 -54 0 -58 -4z m81 -52 c2 -13 11 -26 20 -29 9 -4 29 -15 44
-25 22 -15 31 -16 52 -7 20 9 29 9 41 -1 21 -17 19 -35 -7 -52 -17 -12 -22
-25 -22 -68 -1 -44 3 -55 21 -68 27 -17 29 -34 8 -52 -12 -10 -21 -10 -41 -1
-21 9 -30 8 -52 -7 -15 -10 -35 -21 -44 -25 -9 -3 -18 -16 -20 -29 -4 -33 -52
-33 -56 0 -2 13 -11 26 -20 29 -9 4 -29 15 -44 25 -22 15 -31 16 -52 7 -20 -9
-29 -9 -41 1 -21 17 -19 35 7 52 17 12 22 25 22 68 1 44 -3 55 -21 68 -27 17
-29 34 -8 52 12 10 21 10 41 1 21 -9 30 -8 52 7 15 10 35 22 45 25 9 4 17 15
17 25 0 25 10 33 35 30 12 -2 21 -12 23 -26z"/>
		<path d="M305 415 c-50 -49 -15 -135 55 -135 19 0 40 9 55 25 16 15 25 36 25
55 0 19 -9 40 -25 55 -15 16 -36 25 -55 25 -19 0 -40 -9 -55 -25z m85 -25 c11
-11 20 -24 20 -30 0 -5 -9 -19 -20 -30 -11 -11 -24 -20 -30 -20 -5 0 -19 9
-30 20 -11 11 -20 25 -20 30 0 6 9 19 20 30 11 11 25 20 30 20 6 0 19 -9 30
-20z"/>
	</g>
</svg>
