<?xml version="1.0" encoding="UTF-8"?>
<svg width="120px" height="120px" viewBox="0 0 120 120" version="1.1" xmlns="http://www.w3.org/2000/svg"
		 xmlns:xlink="http://www.w3.org/1999/xlink">
	<!-- Generator: Sketch 43.1 (39012) - http://www.bohemiancoding.com/sketch -->
	<title>success</title>
	<desc>Created with Sketch.</desc>
	<defs></defs>
	<g id="UI-Kit" stroke="none" stroke-width="1" fill="none" fill-rule="evenodd">
		<g id="success" fill-rule="nonzero" fill="#263238">
			<path
				d="M59.7608696,19.1596039 C37.4322269,19.1596039 19.1596039,37.4322269 19.1596039,59.7608696 C19.1596039,82.0895123 37.4322269,100.362135 59.7608696,100.362135 C82.0895123,100.362135 100.362135,82.0895123 100.362135,59.7608696 C100.362135,37.4322269 82.0895123,19.1596039 59.7608696,19.1596039 Z M59.7608696,95.1564789 C40.3301373,95.1564789 24.3652602,79.1916019 24.3652602,59.7608696 C24.3652602,40.3301373 40.3301373,24.3652602 59.7608696,24.3652602 C79.1916019,24.3652602 95.1564789,40.3301373 95.1564789,59.7608696 C95.1564789,79.1916019 79.1916019,95.1564789 59.7608696,95.1564789 Z M77.7662515,50.559377 C77.7662515,49.8364872 77.5060684,49.2077654 76.8821509,48.5795694 C75.7908588,47.4807937 74.0503248,47.4807937 72.9590326,48.5795694 L55.392814,66.2662502 L46.5627065,57.3755893 C46.1004225,56.9101352 45.1895099,56.4868309 44.6011473,56.4868309 C43.885502,56.4868309 43.2628587,56.7480447 42.6395882,57.3755893 C42.0822825,57.9367169 41.7554876,58.5947886 41.7554876,59.3553969 C41.7554876,60.0782868 42.0156708,60.7070085 42.6395882,61.3352045 L53.1743104,71.9421697 C54.2656025,73.0409455 56.0061366,73.0409455 57.0974287,71.9421697 L76.6252065,52.2804781 L76.7537364,52.1872365 C77.491855,51.8156463 77.7662515,51.3091363 77.7662515,50.559377 Z"
				id="Shape"></path>
		</g>
	</g>
</svg>
