<?xml version="1.0" encoding="UTF-8"?>
<svg width="24px" height="24px" viewBox="0 0 24 24" version="1.1" xmlns="http://www.w3.org/2000/svg"
		 xmlns:xlink="http://www.w3.org/1999/xlink">
	<!-- Generator: Sketch 43.1 (39012) - http://www.bohemiancoding.com/sketch -->
	<title>view-on</title>
	<desc>Created with Sketch.</desc>
	<defs></defs>
	<g id="UI-Kit" stroke="none" stroke-width="1" fill="none" fill-rule="evenodd">
		<g id="view-on" fill="#263238">
			<polygon id="Path" points="4 8 8 8 8 4 4 4"></polygon>
			<polygon id="Path" points="10 20 14 20 14 16 10 16"></polygon>
			<polygon id="Path" points="4 20 8 20 8 16 4 16"></polygon>
			<polygon id="Path" points="4 14 8 14 8 10 4 10"></polygon>
			<polygon id="Path" points="10 14 14 14 14 10 10 10"></polygon>
			<polygon id="Path" points="16 4 16 8 20 8 20 4"></polygon>
			<polygon id="Path" points="10 8 14 8 14 4 10 4"></polygon>
			<polygon id="Path" points="16 14 20 14 20 10 16 10"></polygon>
			<polygon id="Path" points="16 20 20 20 20 16 16 16"></polygon>
		</g>
	</g>
</svg>
