<?xml version="1.0" encoding="UTF-8"?>
<svg width="176px" height="24px" viewBox="0 0 176 24" version="1.1" xmlns="http://www.w3.org/2000/svg"
     xmlns:xlink="http://www.w3.org/1999/xlink">
  <!-- Generator: Sketch 47.1 (45422) - http://www.bohemiancoding.com/sketch -->
  <title>logo-white</title>
  <desc>Created with Sketch.</desc>
  <defs>
    <path
      d="M3,0.793977869 L13.1306424,0.793977869 C17.7882292,0.793977869 24.78125,4.49170164 24.7481944,12.0087134 C24.7151389,19.5254314 17.7820312,23.2583912 13.1306424,23.2583912 L3,23.2583912 L3,0.793977869 Z M10.0057118,6.44172019 L10.0057118,17.6323778 C14.7202604,17.7677427 17.2622917,16.2003283 17.3059722,12.0087134 C17.3363715,9.05446903 15.5053299,6.27493649 10.0057118,6.44172019 Z M26.4839062,23.2586848 L26.4839062,0.793977869 L33.4733854,0.793977869 L33.4733854,23.2586848 L26.4839062,23.2586848 Z M54.6664236,1.99493794 L51.3632292,7.27710684 C48.3979688,5.73288947 45.2715625,5.1682327 43.8244965,5.77429177 C43.2858681,6.00009575 42.9984028,6.51248581 43.0072569,6.97613274 C43.0143403,7.34875336 43.2563542,7.71373952 43.8268576,7.89520488 C47.0013715,8.90354153 50.2357986,9.35749856 52.8985417,11.2658212 C56.4481771,13.8107407 56.7999826,20.0116881 52.1996528,22.5636549 C47.8283507,24.9884784 38.4842535,24.2226829 34.3785764,21.1721268 L37.8860069,15.6905809 C39.5830556,16.8953582 42.5252951,17.7451329 45.3432813,17.8652289 C46.692066,17.9230747 47.1462847,17.3187774 47.189375,16.8301717 C47.2805729,15.7883608 46.1617014,15.3346974 45.6133333,15.2013879 C40.8677951,14.0485837 37.6504861,12.6194706 36.2589063,9.95592317 C34.4709549,6.53333377 35.7754688,1.99405704 40.6458507,0.607520742 C44.4537326,-0.476279658 49.8671701,-0.166496558 54.6664236,1.99493794 Z M56.7568924,0.793977869 L63.7944792,0.793977869 L63.7944792,9.08471325 L71.7213194,9.08471325 L71.7213194,0.793977869 L78.7589062,0.793977869 L78.7589062,23.2583912 L71.7213194,23.2583912 L71.7213194,14.2611742 L63.7944792,14.2611742 L63.7944792,23.2583912 L56.7568924,23.2583912 L56.7568924,0.793977869 Z M102.209757,17.6820018 L102.209757,23.2583912 L79.361875,23.2583912 L89.7469271,8.7073945 C91.2984722,6.5336274 92.5513368,4.21832907 93.3452604,1.65960875 C90.8126736,5.42310637 87.9822917,6.01830101 87.1995833,6.19271918 C87.6278299,5.40695654 87.9929167,4.30318908 88.074375,3.24933927 C87.1263889,4.73688542 84.1283681,6.21209897 82.8793403,6.21209897 L82.039375,6.21209897 L82.039375,0.807778632 L94.3989063,0.793977869 L103.892344,0.793977869 L91.9867361,17.6820018 L102.209757,17.6820018 Z M104.489115,23.2586848 L104.489115,0.793977869 L111.478889,0.793977869 L111.478889,23.2586848 L104.489115,23.2586848 Z M113.812847,0.793977869 L120.802326,0.793977869 L120.802326,17.6030144 L128.26934,17.6030144 L128.26934,23.2583912 L113.812847,23.2583912 L113.812847,0.793977869 Z M130.163247,0.793977869 L137.152726,0.793977869 L137.152726,17.6030144 L144.620035,17.6030144 L144.620035,23.2583912 L130.163247,23.2583912 L130.163247,0.793977869 Z M145.510469,23.2583912 L155.405885,0.793977869 L163.104878,0.793977869 L173,23.2583912 L164.376927,23.2583912 L163.315608,20.056614 L155.195451,20.056614 L154.133837,23.2583912 L145.510469,23.2583912 Z M161.849948,15.6377269 L160.862708,12.6596983 C160.613611,11.9085844 160.396979,11.2593613 160.190677,10.4691941 L159.255382,6.89479632 L158.320382,10.4691941 C158.11408,11.2593613 157.896858,11.9085844 157.64776,12.6596983 L156.660816,15.6377269 L161.849948,15.6377269 Z"
      id="path-1"></path>
  </defs>
  <g id="UI" stroke="none" stroke-width="1" fill="none" fill-rule="evenodd">
    <g id="logo-white">
      <mask id="mask-2" fill="white">
        <use xlink:href="#path-1"></use>
      </mask>
      <use id="DISHZILLA" fill="#FFFFFF" xlink:href="#path-1"></use>
    </g>
  </g>
</svg>
