<?xml version="1.0" encoding="utf-8"?>
<!-- Generator: Adobe Illustrator 23.0.3, SVG Export Plug-In . SVG Version: 6.00 Build 0)  -->
<svg version="1.1" id="Layer_1" xmlns="http://www.w3.org/2000/svg" xmlns:xlink="http://www.w3.org/1999/xlink" x="0px" y="0px"
	 viewBox="0 0 500 500" style="enable-background:new 0 0 500 500;" xml:space="preserve">
<style type="text/css">
	.st0{fill:#FFFFFF;}
	.st1{fill-rule:evenodd;clip-rule:evenodd;fill:#F26D3A;}
	.st2{fill:#F26D3A;}
	.st3{fill:#F5C79F;}
	.st4{opacity:0.81;fill:#F26D3A;}
</style>
<g>
	<g>
		<g>
			<path class="st0" d="M411.68,152.42v203.15c0,22.75-11.98,42.7-29.99,53.89c-2.31,1.44-4.73,2.74-7.23,3.87
				c-6.85,3.13-14.36,5.05-22.26,5.54c-1.31,0.08-2.65,0.13-3.99,0.13H151.98c-1.34,0-2.67-0.04-3.99-0.13
				c-0.12,0-0.24-0.01-0.36-0.02c-7.76-0.52-15.14-2.44-21.89-5.51c-2.5-1.13-4.92-2.43-7.23-3.88c-18.01-11.18-30-31.14-30-53.89
				V152.42c0-35.03,28.42-63.42,63.46-63.42h196.24C383.27,89,411.68,117.4,411.68,152.42z"/>
		</g>
	</g>
	<rect x="150.63" y="134.61" width="199.35" height="229.83"/>
	<rect x="158.64" y="142.55" class="st0" width="183.33" height="213.96"/>
	<g>
		<path d="M303.62,223.6H197c-0.75,0-1.36-0.61-1.36-1.36v-1.64c0-0.75,0.61-1.36,1.36-1.36h106.62c0.75,0,1.36,0.61,1.36,1.36v1.64
			C304.98,222.99,304.37,223.6,303.62,223.6z"/>
		<path d="M303.62,244.72H197c-0.75,0-1.36-0.61-1.36-1.36v-1.64c0-0.75,0.61-1.36,1.36-1.36h106.62c0.75,0,1.36,0.61,1.36,1.36
			v1.64C304.98,244.11,304.37,244.72,303.62,244.72z"/>
		<path d="M303.62,265.84H197c-0.75,0-1.36-0.61-1.36-1.36v-1.64c0-0.75,0.61-1.36,1.36-1.36h106.62c0.75,0,1.36,0.61,1.36,1.36
			v1.64C304.98,265.24,304.37,265.84,303.62,265.84z"/>
		<path d="M303.62,286.97H197c-0.75,0-1.36-0.61-1.36-1.36v-1.64c0-0.75,0.61-1.36,1.36-1.36h106.62c0.75,0,1.36,0.61,1.36,1.36
			v1.64C304.98,286.36,304.37,286.97,303.62,286.97z"/>
		<path d="M303.62,308.09H197c-0.75,0-1.36-0.61-1.36-1.36v-1.64c0-0.75,0.61-1.36,1.36-1.36h106.62c0.75,0,1.36,0.61,1.36,1.36
			v1.64C304.98,307.48,304.37,308.09,303.62,308.09z"/>
		<path d="M303.62,329.21H197c-0.75,0-1.36-0.61-1.36-1.36v-1.64c0-0.75,0.61-1.36,1.36-1.36h106.62c0.75,0,1.36,0.61,1.36,1.36
			v1.64C304.98,328.6,304.37,329.21,303.62,329.21z"/>
	</g>
	<g>
		<g>
			<polygon class="st1" points="230.21,168.52 230.21,175.97 244.24,175.97 244.24,182.7 230.21,182.7 230.21,190.84 246.6,190.84 
				246.6,198.05 221.59,198.05 221.59,161.2 246.6,161.2 246.6,168.52 			"/>
		</g>
		<g>
			<polygon class="st1" points="284.34,161.2 284.34,198.05 277.37,198.05 260.51,177.27 260.51,198.05 251.9,198.05 251.9,161.2 
				258.74,161.2 275.62,182.82 275.62,161.2 			"/>
		</g>
		<g>
			<path class="st1" d="M322.43,161.2v18.53c0,2.47-0.35,4.96-0.94,7.32c-0.7,2.47-1.77,4.37-2.95,5.79
				c-1.42,1.53-3.06,2.84-5.18,3.78c-2.12,0.94-4.48,1.42-7.43,1.42c-3.06,0-5.55-0.48-7.54-1.53c-2.01-0.83-3.65-2.25-5.07-3.89
				c-1.29-1.53-2.23-3.43-2.82-5.79c-0.59-2.47-0.94-4.85-0.94-7.08V161.2h8.61v18.53c0,1.29,0.11,2.6,0.35,3.89
				c0.24,1.42,0.7,2.47,1.29,3.3c0.59,1.07,1.42,1.88,2.36,2.36c0.94,0.7,2.12,1.07,3.65,1.07c1.53,0,2.71-0.35,3.65-0.94
				c1.07-0.59,1.88-1.53,2.47-2.6c0.7-1.18,1.07-2.36,1.29-3.3c0.24-1.18,0.35-2.47,0.35-3.89V161.2H322.43z"/>
		</g>
		<path class="st2" d="M214.75,161.33l-0.08-0.13l-32.44,24.63c-1.87,1.4-3.11,3.54-3.48,6c-0.24,2.22,0.27,4.48,1.44,6.24
			l0.08,0.13l32.44-24.52c2.28-1.71,3.6-4.39,3.6-7.31C216.31,164.49,215.8,162.85,214.75,161.33z"/>
		<polygon class="st2" points="200.41,186.68 216.28,198.1 216.28,175.27 		"/>
		<polygon class="st2" points="178.88,161.2 178.88,184.03 194.77,172.61 		"/>
	</g>
	<g>
		<path class="st2" d="M374.46,399.98v13.47c-6.85,3.13-14.36,5.06-22.26,5.54h-26.69v-19.02c0-2.23,1.8-4.03,4.03-4.03h40.89
			C372.65,395.96,374.46,397.76,374.46,399.98z"/>
		<path class="st3" d="M370.27,395.96c0,0,0-43.91,0-55.14s-7.84-31.15-29.03-34.32c0,0,0.38,28.65-0.95,39.41
			c0,0-0.32,9.69-3.65,13.03c-3.34,3.34-4.13-4.45-3.81-7.71s-1.59-29.8-13.51-30.11c0,0-1.27,30.35,0,44.65
			c1.27,14.3,6.36,23.36,11.28,26.38v3.81H370.27z"/>
	</g>
	<g>
		<path class="st4" d="M174.68,399.98V419h-27.05v-0.02c-7.76-0.52-15.14-2.44-21.89-5.51v-13.48c0-2.23,1.8-4.03,4.03-4.03h40.88
			C172.88,395.96,174.68,397.76,174.68,399.98z"/>
		<path class="st3" d="M129.93,395.96c0,0,0-43.91,0-55.14s7.84-31.15,29.03-34.32c0,0-0.38,28.65,0.95,39.41
			c0,0,0.32,9.69,3.65,13.03s4.13-4.45,3.81-7.71s1.59-29.8,13.51-30.11c0,0,1.27,30.35,0,44.65s-6.36,23.36-11.28,26.38v3.81
			H129.93z"/>
	</g>
</g>
</svg>
