<?xml version="1.0" encoding="utf-8"?>
<!-- Generator: Adobe Illustrator 23.0.3, SVG Export Plug-In . SVG Version: 6.00 Build 0)  -->
<svg version="1.1" id="Layer_1" xmlns="http://www.w3.org/2000/svg" xmlns:xlink="http://www.w3.org/1999/xlink" x="0px" y="0px"
	 viewBox="0 0 500 500" style="enable-background:new 0 0 500 500;" xml:space="preserve">
<style type="text/css">
	.st0{fill:#FFFFFF;}
	.st1{fill:#F26D3A;}
	.st2{fill:#F5C79F;}
	.st3{fill:#FFFFFF;stroke:#000000;stroke-width:0.5;stroke-miterlimit:10;}
	.st4{fill-rule:evenodd;clip-rule:evenodd;fill:#F26D3A;}
	.st5{fill:#E74343;}
	.st6{fill:#9D5527;}
	.st7{fill:#D73130;}
	.st8{fill:#904E24;}
	.st9{fill:#F7963A;}
	.st10{fill:#F5851F;}
	.st11{fill:#BCD86D;}
	.st12{fill:#A5CD39;}
	.st13{fill:#FCE25A;}
	.st14{fill:#FCDE2F;}
	.st15{font-family:'Montserrat-SemiBold';}
	.st16{font-size:8.8512px;}
</style>
<g>
	<g>
x		<g>
			<path class="st0" d="M412,155.16v203.68c0,11.56-3.08,22.41-8.48,31.75v0.01c-5.26,9.08-12.68,16.73-21.58,22.26
				c-2.32,1.45-4.74,2.75-7.25,3.88c-6.87,3.13-14.4,5.07-22.32,5.56c-1.32,0.09-2.66,0.13-4,0.13H151.62c-1.34,0-2.68-0.04-4-0.13
				c-0.12,0-0.24-0.01-0.36-0.02c-7.78-0.52-15.18-2.44-21.95-5.53c-2.51-1.14-4.93-2.43-7.25-3.89
				c-10.02-6.22-18.18-15.14-23.46-25.77C90.38,378.59,88,369,88,358.84V155.16c0-35.12,28.49-63.59,63.62-63.59h196.75
				C383.52,91.57,412,120.04,412,155.16z"/>
		</g>
	</g>
	<path class="st1" d="M180.67,392.54l-18.08,29.89h-10.97c-1.34,0-2.68-0.04-4-0.13c-0.12,0-0.24-0.01-0.36-0.02
		c-7.78-0.52-15.18-2.44-21.95-5.53c-2.51-1.14-4.93-2.43-7.25-3.89c-10.02-6.22-18.18-15.14-23.46-25.77
		c8.75-13.84,16.56-26.16,16.56-26.16l6.07,2.75l56.5,25.7L180.67,392.54z"/>
	<path class="st2" d="M353.81,224.58c0,0-10.63-0.75-18.49,11.3c-0.28,0.43-0.55,0.86-0.82,1.31l-4.06-1.54l-14.88-5.66l-1.11-0.41
		l-1.17-0.45l-2.87-1.09l-12.53-4.76l-0.74-0.3c-0.01,0-0.01,0-0.01,0l-10.87-4.13l-0.08-0.02h-0.01l-1.41-0.55c0,0,0,0-0.01,0
		l-1.39-0.53c-0.01,0-0.01,0-0.01,0l-13.33-5.07c0,0-10.53-9.02-18.83-16.05c-2.3-1.94-4.42-3.72-6.1-5.12
		c-1.37-1.14-2.45-2.02-3.1-2.53c-4.34-3.39-9.36,1.21-11.38,4.6c-2.04,3.38-1.37,8.27,3.25,12.47c3.84,3.5,9.47,8.14,11.23,9.6
		c0.27,0.21,0.45,0.36,0.51,0.41c-0.06-0.02-0.24-0.09-0.51-0.16c-2.21-0.68-10.73-2.73-14.36,3.83c-4.07,7.36,4.72,14.07,5.26,14.5
		c-0.05-0.01-0.19-0.05-0.41-0.11h-0.01c-1.83-0.43-8.7-1.62-10.94,3.77c-1.87,4.53,0.21,8.71,3.25,11.69l0.01,0.01
		c0.58,0.57,1.2,1.09,1.84,1.57c0.43,0.33,0.88,0.64,1.32,0.9l0.05,0.03c0.15,0.1,0.3,0.19,0.45,0.28c0,0-0.03,0-0.1,0h-0.01
		c-1.12,0.04-10.75,0.69-10.95,10.84l-0.27,0.43l-16.87,26.84c-0.58,0.94-1.73,1.45-2.78,1.11c-0.86-0.28-1.42-1.04-0.2-2.98
		c2.03-3.19,9.78-16.16,12.37-20.51c0.94-1.57,1.42-3.39,1.22-5.21c-0.22-2.06-1.3-4.45-4.65-5.77c-6.7-2.65-11.99,2.43-15.03,6.91
		c-3.05,4.46-10.57,18.69-10.57,18.69s-2.16,0.82-2.57-0.4c-0.4-1.21,6.1-10.84,7.73-13.54c1.63-2.72,2.71-8.42-1.76-10.84
		c-4.46-2.44-9.34-0.68-15.44,6.91c-6.09,7.58-46.21,66.61-47.96,70.02c-1.58,3.07-3.19,9.13,0.53,13.56
		c0.77,0.91,0.85,2.22,0.23,3.25l-7.23,12.03l-0.18,0.3l56.64,25.47l0.04-0.07l5.33-9.33c0.51-0.87,1.62-1.21,2.51-0.74
		c1.7,0.89,4.6,1.92,7.55,0.8c4.61-1.75,16.27-5.42,31.16-19.36c14.91-13.96,23.17-20.47,29.54-24.67
		c6.37-4.2,11.64-7.31,12.87-8.81c0,0,7.59,12.84,13.58,14.97c5.99,2.14,10.05,1.53,10.05,1.53l7.1,14.47l0.5,1.01l52.9-24.41
		c0,0-0.41-0.29-0.97-0.81c-1.41-1.34-3.74-4.26-2.42-8.06c1.83-5.27,7.11-13.6,9.96-17.68c2.84-4.06,2.23-8.13,2.43-15.23
		C356.04,285.95,353.81,224.58,353.81,224.58z M219.94,300.95c-0.77-0.48-0.99-1.49-0.51-2.25l14.04-21.93
		c0.37-0.6,1.07-0.86,1.73-0.71c0.18,0.03,0.35,0.1,0.51,0.2c0.26,0.17,0.45,0.39,0.57,0.65c0.11,0.22,0.17,0.48,0.17,0.73
		c0,0.29-0.07,0.6-0.26,0.87l-14.03,21.96C221.69,301.22,220.68,301.43,219.94,300.95z M231.54,323.07c0,0,10.39-15.07,13.54-21.82
		c0.4-0.87,0.69-1.62,0.82-2.16v16.66c0,0-0.1,0.1-0.28,0.28c-0.08,0.09-0.19,0.19-0.31,0.3C243,318.58,234.45,326.46,231.54,323.07
		z"/>
	<path class="st1" d="M403.52,390.59v0.01c-5.26,9.08-12.68,16.73-21.58,22.26c-2.32,1.45-4.74,2.75-7.25,3.88
		c-6.87,3.13-14.4,5.07-22.32,5.56c-1.32,0.09-2.66,0.13-4,0.13h-19.24l-42.81-60.91l7.1-3.27l52.43-24.21l10.31-4.76L403.52,390.59
		z"/>
	<rect x="251.18" y="183.5" width="79.25" height="123.56"/>
	<path d="M307.37,176.32H273.3c-0.47,0-0.85-0.38-0.85-0.85v-0.88c0-0.47,0.38-0.85,0.85-0.85h34.07c0.47,0,0.85,0.38,0.85,0.85
		v0.88C308.22,175.94,307.84,176.32,307.37,176.32z"/>
	<path class="st3" d="M328.56,321.72h-76.73c-3.73,0-6.75-3.02-6.75-6.75V176.18c0-3.73,3.02-6.75,6.75-6.75h76.73
		c3.73,0,6.75,3.02,6.75,6.75v138.79C335.31,318.7,332.29,321.72,328.56,321.72z"/>
	<rect x="251.18" y="184.75" width="79.25" height="123.56"/>
	<path d="M307.37,177.57H273.3c-0.47,0-0.85-0.38-0.85-0.85v-0.88c0-0.47,0.38-0.85,0.85-0.85h34.07c0.47,0,0.85,0.38,0.85,0.85
		v0.88C308.22,177.19,307.84,177.57,307.37,177.57z"/>
	<g>
		<g>
			<polygon class="st4" points="284.1,197.11 284.1,199.56 288.73,199.56 288.73,201.78 284.1,201.78 284.1,204.46 289.5,204.46 
				289.5,206.84 281.26,206.84 281.26,194.7 289.5,194.7 289.5,197.11 			"/>
		</g>
		<g>
			<polygon class="st4" points="301.94,194.7 301.94,206.84 299.64,206.84 294.09,199.99 294.09,206.84 291.25,206.84 291.25,194.7 
				293.5,194.7 299.07,201.82 299.07,194.7 			"/>
		</g>
		<g>
			<path class="st4" d="M314.5,194.7v6.11c0,0.81-0.12,1.63-0.31,2.41c-0.23,0.81-0.58,1.44-0.97,1.91
				c-0.47,0.5-1.01,0.94-1.71,1.25c-0.7,0.31-1.48,0.47-2.45,0.47c-1.01,0-1.83-0.16-2.49-0.5c-0.66-0.27-1.2-0.74-1.67-1.28
				c-0.43-0.5-0.74-1.13-0.93-1.91c-0.19-0.81-0.31-1.6-0.31-2.33v-6.11h2.84v6.11c0,0.43,0.04,0.86,0.12,1.28
				c0.08,0.47,0.23,0.81,0.43,1.09c0.19,0.35,0.47,0.62,0.78,0.78c0.31,0.23,0.7,0.35,1.2,0.35c0.5,0,0.89-0.12,1.2-0.31
				c0.35-0.19,0.62-0.5,0.81-0.86c0.23-0.39,0.35-0.78,0.43-1.09c0.08-0.39,0.12-0.81,0.12-1.28v-6.07H314.5z"/>
		</g>
		<path class="st1" d="M279,194.74l-0.03-0.04l-10.69,8.12c-0.62,0.46-1.03,1.17-1.15,1.98c-0.08,0.73,0.09,1.48,0.47,2.06
			l0.03,0.04l10.69-8.08c0.75-0.56,1.19-1.45,1.19-2.41C279.52,195.78,279.35,195.24,279,194.74z"/>
		<polygon class="st1" points="274.28,203.09 279.51,206.86 279.51,199.33 		"/>
		<polygon class="st1" points="267.18,194.7 267.18,202.22 272.42,198.46 		"/>
	</g>
	<g>
		<g>
			<path class="st5" d="M313.11,258.08H268.5c-1.92,0-3.48-1.56-3.48-3.48v-0.69c0-1.92,1.56-3.48,3.48-3.48h44.61
				c1.92,0,3.48,1.56,3.48,3.48v0.69C316.59,256.52,315.04,258.08,313.11,258.08z"/>
		</g>
		<g>
			<path class="st6" d="M313.11,244.41H268.5c-1.92,0-3.48-1.56-3.48-3.48v-0.69c0-1.92,1.56-3.48,3.48-3.48h44.61
				c1.92,0,3.48,1.56,3.48,3.48v0.69C316.59,242.85,315.04,244.41,313.11,244.41z"/>
		</g>
		<g>
			<path class="st7" d="M316.59,253.91v0.69c0,1.92-1.56,3.48-3.48,3.48h-2.04c1.92,0,3.48-1.56,3.48-3.48v-0.69
				c0-1.92-1.56-3.48-3.48-3.48h2.04C315.04,250.43,316.59,251.99,316.59,253.91z"/>
		</g>
		<g>
			<path class="st8" d="M316.59,240.24v0.69c0,1.92-1.56,3.48-3.48,3.48h-2.04c1.92,0,3.48-1.56,3.48-3.48v-0.69
				c0-1.92-1.56-3.48-3.48-3.48h2.04C315.04,236.76,316.59,238.32,316.59,240.24z"/>
		</g>
		<g>
			<path class="st9" d="M290.81,217.75c-17.39,0.25-23.23,9.68-25.16,15.17c-0.66,1.88,0.75,3.84,2.74,3.84h22.42h22.42
				c2.01,0,3.4-1.99,2.73-3.88C314.02,227.4,308.16,218,290.81,217.75L290.81,217.75z"/>
		</g>
		<g>
			<path class="st10" d="M313.23,236.76h-0.25c0.68-0.75,0.95-1.85,0.58-2.92c-1.94-5.49-7.8-14.88-25.15-15.13
				c-4.49,0.06-8.21,0.74-11.29,1.81c3.49-1.6,7.97-2.68,13.69-2.77c17.36,0.25,23.21,9.65,25.15,15.13
				C316.63,234.77,315.24,236.76,313.23,236.76z"/>
		</g>
		<g>
			<path class="st9" d="M313.11,258.08h-22.31H268.5c0,0-1.54,7.43,7.22,10.35c1.5,0.5,3.07,0.73,4.64,0.73h10.45h10.45
				c1.57,0,3.14-0.23,4.64-0.73C314.65,265.51,313.11,258.08,313.11,258.08z"/>
		</g>
		<g>
			<path class="st10" d="M305.9,268.43c-1.5,0.5-3.07,0.73-4.64,0.73h-2.36c1.57,0,3.14-0.23,4.64-0.73
				c8.75-2.92,7.22-10.35,7.22-10.35h2.36C313.11,258.08,314.65,265.51,305.9,268.43z"/>
		</g>
		<g>
			<path class="st11" d="M313.19,251.82c0,1.74-2.02,2.68-3.36,1.58c-0.55-0.45-1.2-0.81-2.24-0.81c-2.8,0-2.8,2.22-5.6,2.22
				c-2.8,0-2.8-2.22-5.6-2.22c-2.8,0-2.8,2.22-5.6,2.22c-2.8,0-2.8-2.22-5.6-2.22c-2.8,0-2.8,2.22-5.6,2.22
				c-2.8,0-2.8-2.22-5.6-2.22c-1.03,0-1.68,0.36-2.24,0.81c-1.34,1.1-3.36,0.16-3.36-1.58v-4.11h44.8L313.19,251.82L313.19,251.82z"
				/>
		</g>
		<g>
			<path class="st12" d="M313.2,247.7v4.11c0,1.63-1.77,2.56-3.1,1.76c0.59-0.34,1.01-0.97,1.01-1.76v-4.11H313.2z"/>
		</g>
		<g>
			<path class="st13" d="M268.42,244.41v3.33h4.8c1,0,1.81,0.81,1.81,1.81v9.58c0,1.28,1.04,2.31,2.31,2.31
				c1.28,0,2.31-1.04,2.31-2.31v-9.58c0-1,0.81-1.81,1.81-1.81h31.73v-3.33H268.42z"/>
		</g>
		<g>
			<path class="st14" d="M311.11,244.41h2.09v3.33h-2.09V244.41z"/>
		</g>
		<g>
			<path d="M283.63,225.75c0.28,0,0.54-0.15,0.69-0.41l0.67-1.25c0.2-0.38,0.06-0.85-0.31-1.05c-0.38-0.2-0.85-0.06-1.05,0.31
				l-0.67,1.25c-0.2,0.38-0.06,0.85,0.31,1.05C283.38,225.72,283.5,225.75,283.63,225.75z"/>
			<path d="M291.58,225.05v-1.42c0-0.43-0.35-0.78-0.78-0.78s-0.78,0.35-0.78,0.78v1.42c0,0.43,0.35,0.78,0.78,0.78
				S291.58,225.48,291.58,225.05z"/>
			<path d="M297.99,225.74c0.13,0,0.27-0.03,0.39-0.11c0.37-0.22,0.5-0.69,0.28-1.06l-0.71-1.23c-0.22-0.37-0.69-0.5-1.06-0.28
				c-0.37,0.22-0.5,0.69-0.28,1.06l0.71,1.23C297.46,225.6,297.72,225.74,297.99,225.74L297.99,225.74z"/>
			<path d="M293.16,246.96h-11.69c-0.71,0-1.35,0.29-1.82,0.74c-0.47,0.47-0.77,1.13-0.77,1.84v8.54h0.78v-7.65h0.78v-0.89
				c0-0.56,0.47-1.03,1.03-1.03h11.69c0.43,0,0.78-0.35,0.78-0.78v-0.03C293.91,247.29,293.57,246.96,293.16,246.96z M317.38,240.92
				v-0.68c0-1.46-0.73-2.74-1.85-3.51c0.27-0.21,0.5-0.47,0.7-0.75c0.69-0.97,0.86-2.23,0.47-3.36c-0.28-0.8-0.65-1.7-1.14-2.65
				c-1.18-2.32-3.03-4.95-5.91-7.24c-4.7-3.71-11.03-5.65-18.83-5.77c-0.01,0-0.01,0-0.02,0c-2.65,0.04-5.14,0.3-7.45,0.75
				c-0.01,0-0.01,0-0.01,0c-0.78,0.16-1.52,0.33-2.24,0.53c-0.41,0.11-0.66,0.54-0.54,0.96v0.01c0.04,0.12,0.1,0.22,0.18,0.31
				c0.19,0.21,0.49,0.31,0.78,0.22c1.49-0.41,3.07-0.72,4.75-0.92c0.2-0.02,0.4-0.04,0.61-0.06h0.05c1.24-0.14,2.55-0.21,3.89-0.23
				c13.05,0.19,19.39,5.64,22.48,10.58c0.9,1.43,1.52,2.83,1.94,4.03c0.23,0.66,0.13,1.37-0.28,1.94c-0.34,0.49-0.87,0.81-1.47,0.88
				c-0.09,0.01-0.17,0.01-0.26,0.01h-44.85c-0.7,0-1.33-0.33-1.73-0.9c-0.4-0.56-0.5-1.25-0.28-1.9c1.38-3.92,4.55-9.23,11.82-12.28
				c0.34-0.15,0.53-0.5,0.47-0.85c-0.01-0.05-0.02-0.11-0.04-0.15v-0.01l-0.01-0.01c-0.17-0.39-0.63-0.58-1.02-0.41
				c-3.54,1.49-6.49,3.62-8.79,6.37c-1.69,2.02-3,4.31-3.89,6.83c-0.39,1.14-0.22,2.35,0.47,3.33c0.2,0.29,0.45,0.54,0.71,0.75
				c-1.12,0.77-1.85,2.05-1.85,3.51v0.68c0,2.06,1.47,3.77,3.4,4.18l-0.01,4.64c-1.93,0.4-3.39,2.13-3.39,4.17v0.69
				c0,2.05,1.47,3.77,3.4,4.18c-0.05,0.82-0.02,2.15,0.45,3.62c1.28,3.99,4.72,5.88,7.39,6.77c1.54,0.51,3.18,0.78,4.88,0.78h20.91
				c1.7,0,3.34-0.27,4.88-0.78c2.67-0.89,6.11-2.78,7.39-6.77c0.47-1.48,0.5-2.81,0.45-3.62c1.93-0.4,3.4-2.13,3.4-4.18v-0.69
				c0-2.05-1.47-3.77-3.4-4.17v-4.64C315.91,244.69,317.38,242.98,317.38,240.92z M315.81,254.6c0,1.43-1.12,2.6-2.53,2.69
				c-0.01,0-0.01,0-0.01,0c-0.05,0.01-0.11,0.01-0.16,0.01h-32.68v-1.79c1.14-0.18,1.83-0.72,2.44-1.21
				c0.66-0.53,1.19-0.95,2.32-0.95s1.66,0.41,2.32,0.95c0.72,0.56,1.62,1.28,3.28,1.28s2.53-0.68,3.28-1.28
				c0.66-0.53,1.19-0.95,2.32-0.95c1.13,0,1.65,0.41,2.32,0.95c0.75,0.6,1.6,1.28,3.28,1.28c1.67,0,2.52-0.68,3.28-1.28
				c0.66-0.53,1.18-0.95,2.32-0.95c0.85,0,1.34,0.31,1.74,0.64c0.85,0.71,2.01,0.85,3.02,0.38c0.95-0.46,1.55-1.37,1.6-2.41
				c0.01-0.04,0.01-0.1,0.01-0.15v-0.47c1.06,0.36,1.84,1.37,1.84,2.56V254.6z M304.9,267.9c-0.01,0.01-0.02,0.01-0.03,0.01
				c-1.15,0.31-2.36,0.47-3.6,0.47h-20.91c-1.53,0-3.01-0.23-4.39-0.69c-6.62-2.21-6.9-7.1-6.77-8.83h5.06v0.27
				c0,1.7,1.39,3.09,3.09,3.09c1.71,0,3.09-1.39,3.09-3.09v-0.27h31.99c0.04,0.66,0.03,1.8-0.37,3.06c-0.87,2.7-3.02,4.64-6.4,5.77
				C305.41,267.78,305.15,267.84,304.9,267.9z M265.8,253.91c0-1.18,0.77-2.18,1.82-2.55v0.46c0,1.11,0.62,2.08,1.62,2.56
				c1.01,0.47,2.16,0.33,3.02-0.38c0.4-0.33,0.89-0.64,1.74-0.64c0.1,0,0.18,0.01,0.26,0.01v3.93h-5.75c-1.49,0-2.7-1.21-2.7-2.7
				V253.91z M265.8,240.24c0-1.49,1.21-2.71,2.7-2.71h44.61c0.05,0,0.1,0,0.15,0.01h0.01c1.42,0.08,2.54,1.26,2.54,2.7v0.68
				c0,1.45-1.12,2.61-2.54,2.7h-0.01c-0.05,0.01-0.1,0.01-0.15,0.01H268.5c-1.49,0-2.7-1.21-2.7-2.71V240.24z M273.22,246.96h-4.02
				v-1.77h43.21v1.77H296.8c-0.41,0-0.75,0.33-0.78,0.74v0.03c0,0.43,0.35,0.78,0.78,0.78h15.61v3.31c0,0.51-0.27,0.94-0.72,1.15
				c-0.32,0.16-0.66,0.17-0.98,0.05c-0.14-0.04-0.27-0.13-0.38-0.22c-0.56-0.46-1.38-0.99-2.73-0.99c-1.68,0-2.53,0.68-3.28,1.28
				c-0.67,0.53-1.19,0.95-2.32,0.95c-1.14,0-1.66-0.41-2.32-0.95c-0.75-0.6-1.62-1.28-3.28-1.28c-1.67,0-2.57,0.71-3.28,1.28
				c-0.67,0.53-1.19,0.95-2.32,0.95s-1.66-0.41-2.32-0.95c-0.72-0.56-1.62-1.28-3.28-1.28c-1.67,0-2.53,0.68-3.28,1.28
				c-0.47,0.37-0.87,0.69-1.48,0.84v-4.38c0-0.56,0.47-1.03,1.03-1.03h11.69c0.43,0,0.78-0.35,0.78-0.78v-0.03
				c-0.02-0.41-0.36-0.74-0.78-0.74h-11.69c-0.71,0-1.35,0.29-1.82,0.74c-0.47,0.47-0.77,1.13-0.77,1.84v9.59
				c0,0.85-0.69,1.53-1.54,1.53c-0.84,0-1.53-0.68-1.53-1.53v-9.59c0-0.71-0.3-1.37-0.77-1.84
				C274.57,247.24,273.94,246.96,273.22,246.96z M269.18,248.51h4.04c0.57,0,1.03,0.47,1.03,1.03v2.27
				c-0.08-0.01-0.16-0.01-0.26-0.01c-1.35,0-2.17,0.53-2.73,0.99c-0.39,0.33-0.9,0.39-1.36,0.17c-0.46-0.21-0.72-0.64-0.72-1.15
				V248.51z M293.16,246.96h-11.69c-0.71,0-1.35,0.29-1.82,0.74c-0.47,0.47-0.77,1.13-0.77,1.84v8.54h0.78v-7.65h0.78v-0.89
				c0-0.56,0.47-1.03,1.03-1.03h11.69c0.43,0,0.78-0.35,0.78-0.78v-0.03C293.91,247.29,293.57,246.96,293.16,246.96z"/>
		</g>
	</g>
	<path class="st1" d="M310.62,292.77h-40.33c-1.97,0-3.57-1.6-3.57-3.57v-3.7c0-1.97,1.6-3.57,3.57-3.57h40.33
		c1.97,0,3.57,1.6,3.57,3.57v3.7C314.19,291.17,312.59,292.77,310.62,292.77z"/>
	<text transform="matrix(1 0 0 1 277.2598 289.9375)" class="st0 st15 st16">Order</text>
	<path class="st2" d="M260.73,281.69l-3.56,4.53c-1.9,2.42-5.4,2.84-7.82,0.94l-27.8-21.8c-2.42-1.9-2.84-5.4-0.94-7.82l3.56-4.53
		c1.9-2.42,5.4-2.84,7.82-0.94l27.8,21.8C262.21,275.77,262.63,279.27,260.73,281.69z"/>
	<path class="st2" d="M262.21,262.07l-3.56,4.54c-1.9,2.42-5.4,2.85-7.83,0.95L224,246.51c-2.42-1.9-2.85-5.4-0.95-7.83l3.56-4.54
		c1.9-2.42,5.4-2.85,7.83-0.95l26.83,21.04C263.69,256.15,264.11,259.65,262.21,262.07z"/>
</g>
</svg>
