<?xml version="1.0" encoding="utf-8"?>
<!-- Generator: Adobe Illustrator 23.0.3, SVG Export Plug-In . SVG Version: 6.00 Build 0)  -->
<svg version="1.1" id="Layer_1" xmlns="http://www.w3.org/2000/svg" xmlns:xlink="http://www.w3.org/1999/xlink" x="0px" y="0px"
	 viewBox="0 0 500 500" style="enable-background:new 0 0 500 500;" xml:space="preserve">
<style type="text/css">
	.st0{fill:#FFFFFF;}
	.st1{fill:#F26D45;}
	.st2{fill:#F7963A;}
	.st3{fill:#BCD86D;}
	.st4{fill:#F5C79F;}
	.st5{font-family:'NexaTextDemo-Bold';}
	.st6{font-size:3.1122px;}
	.st7{fill:#E74343;}
	.st8{fill-rule:evenodd;clip-rule:evenodd;fill:#F26D3A;}
	.st9{fill:#F26D3A;}
</style>
<g>
	<g>
		<g>
			<path class="st0" d="M412,152.36v202.82c0,22.71-11.95,42.63-29.93,53.8c-2.31,1.44-4.72,2.74-7.22,3.87
				c-2.38,1.08-4.84,2.03-7.38,2.8c-4.73,1.48-9.7,2.4-14.84,2.73c-1.32,0.09-2.65,0.13-3.98,0.13H152.74
				c-1.34,0-2.67-0.04-3.98-0.13c-0.11,0-0.24-0.01-0.35-0.02c-1.53-0.1-3.06-0.26-4.57-0.47c-6.08-0.86-11.89-2.57-17.29-5.03
				c-2.5-1.13-4.91-2.42-7.22-3.88c-8.05-4.99-14.88-11.74-19.97-19.71c-0.61-0.93-1.19-1.89-1.74-2.86
				c-5.23-9.22-8.23-19.87-8.23-31.23V152.36c0-34.98,28.37-63.32,63.35-63.32h195.91C383.64,89.04,412,117.39,412,152.36z"/>
		</g>
	</g>
	<path class="st1" d="M153.17,390.77v27.12h-9.34c-6.08-0.86-11.89-2.57-17.29-5.03c-2.5-1.13-4.91-2.42-7.22-3.88
		c-8.05-4.99-14.88-11.74-19.97-19.71h52.33C152.51,389.27,153.17,389.94,153.17,390.77z"/>
	<path class="st1" d="M373.55,343.31H141.52c-4.35,0-7.88-3.53-7.88-7.88V182.71c0-4.35,3.53-7.88,7.88-7.88h232.03
		c4.35,0,7.88,3.53,7.88,7.88v152.72C381.42,339.78,377.9,343.31,373.55,343.31z"/>
	<rect x="145.74" y="187.07" width="223.45" height="138.49"/>
	<path class="st2" d="M152.56,202.1c21.85,0,43.7,0,65.54,0c4.94,4.81,9.88,9.62,14.85,14.4c0.24,1.15,0.07,2.34,0.12,3.51
		c-0.26,2.88,0.18,5.76-0.07,8.64c-0.03,0.84,0.01,1.69-0.02,2.53c-2.18-1.34-4.57-2.31-6.97-3.18c0.01-2.63,0.05-5.25,0-7.88
		c-3.84-0.01-7.68,0.01-11.52,0c0.02-2.6-0.18-5.2-0.01-7.8c-0.04-1.09,0.09-2.18-0.1-3.26c-18.27,0.02-36.55,0-54.82,0.01
		c-0.05,30.16-0.01,60.33-0.02,90.49c0.72,0.09,1.46,0.07,2.19,0.03c1.75,0.01,3.5-0.14,5.25-0.01c2,0.13,4-0.1,6.01-0.05
		c1-0.06,2,0.16,3,0.05c1,0.11,2-0.1,3-0.05c2.26-0.05,4.51,0.19,6.77,0.02c2.56-0.12,5.12,0.2,7.68-0.02
		c2.13-0.08,4.26,0.14,6.39,0.07c2.68-0.23,5.37,0.11,8.05-0.01c2.69-0.23,5.38,0.19,8.06-0.05c2.2-0.08,4.39,0.14,6.59,0.06
		c1.16-0.12,2.33-0.05,3.5-0.07c-0.01-3.94,0-7.87,0-11.81c2.45-0.73,4.77-1.84,6.93-3.2c0.35,2.44-0.14,4.91,0.09,7.36
		c0.16,2.57-0.18,5.13,0.02,7.7c0.08,2.33-0.08,4.66-0.09,7c-26.8,0.01-53.59-0.02-80.38,0.02c-0.25-2.21,0.07-4.44-0.03-6.66
		c-0.18-2.56,0.08-5.12-0.01-7.68c-0.18-2.75,0.14-5.5-0.04-8.25c-0.07-2.26,0.12-4.51,0.04-6.77c-0.16-2.5,0.08-5,0-7.5
		c-0.17-2.5,0.09-5.01,0-7.51c-0.16-2.5,0.09-5,0-7.5c-0.16-2.5,0.09-5,0-7.51c-0.16-2.5,0.09-5,0-7.51c-0.17-2.5,0.08-5,0-7.51
		c-0.17-2.51,0.1-5.01,0-7.52c-0.15-2.49,0.09-4.98,0.01-7.48c-0.18-2.75,0.14-5.5-0.04-8.25
		C152.44,206.67,152.57,204.39,152.56,202.1z"/>
	<path class="st3" d="M169.6,224.35c0.24-0.07,0.49-0.11,0.75-0.11c4.94-0.01,9.88,0,14.82-0.01c0.83-0.02,1.72,0.22,2.27,0.88
		c1.07,1.3,0.92,3.52-0.48,4.52c-0.51,0.38-1.17,0.46-1.79,0.44c-5-0.02-10.01,0.01-15.01-0.01c-0.9,0-1.72-0.58-2.12-1.37
		C167.32,227.17,167.79,224.87,169.6,224.35z"/>
	<g>
		<path class="st1" d="M211.07,229.58c2.64-0.62,5.37-0.58,8.06-0.48c0.82,0.02,1.64,0.17,2.45,0.27
			c6.47,1.12,12.55,4.47,16.85,9.45c4.48,5.06,7.06,11.77,7.1,18.53c0.12,6.61-2.17,13.24-6.36,18.36c-1.63,2.05-3.57,3.85-5.7,5.37
			c-0.3,0.21-0.51,0.52-0.8,0.74c-1.99,1.31-4.14,2.41-6.4,3.16c-1.04,0.08-1.99,0.53-3,0.74c-1.55,0.3-3.12,0.61-4.7,0.66
			c-0.94,0.11-1.89,0.18-2.82,0.02c-0.31-0.07-0.61,0.08-0.91,0.12c-3.62-0.24-7.18-1.18-10.45-2.75c-1.38-0.98-2.93-1.7-4.29-2.71
			c-1.77-1.32-3.46-2.77-4.89-4.46c-0.84-0.93-1.52-1.98-2.36-2.9c-1-1.54-1.87-3.17-2.6-4.86c-0.52-1.49-1.04-2.98-1.37-4.52
			c-0.07-0.29-0.07-0.62-0.35-0.8c0-0.63-0.06-1.25-0.19-1.86c-0.28-2.79-0.44-5.64,0.1-8.41c1-6.73,4.57-13.01,9.76-17.4
			C201.87,232.72,206.33,230.52,211.07,229.58z M212.09,236.78c-4.44,0.99-8.51,3.49-11.49,6.92c-1.35,1.66-2.66,3.42-3.37,5.46
			c-0.92,2.03-1.48,4.22-1.77,6.43c-0.28,2.74,0.01,5.51,0.74,8.16l0.09,0.13c0.08,0.34,0.18,0.68,0.29,1.02
			c1.04,2.79,2.58,5.41,4.65,7.57c2.64,2.83,6.09,4.9,9.81,5.95c5.79,1.69,12.27,0.68,17.32-2.6c4.99-3.17,8.59-8.49,9.59-14.32
			c0.96-5.48-0.26-11.33-3.48-15.89c-0.75-1.28-1.92-2.2-2.94-3.25c-0.85-0.86-1.82-1.6-2.81-2.28c-0.97-0.68-2.06-1.14-3.01-1.85
			C221.48,236.27,216.62,235.73,212.09,236.78z"/>
	</g>
	<path class="st3" d="M169.19,233.89c0.59-0.31,1.27-0.26,1.91-0.27c4.82,0.01,9.63,0,14.45,0.01c1.03-0.03,1.99,0.68,2.35,1.63
		c0.52,1.32,0.19,3.12-1.11,3.86c-0.47,0.32-1.06,0.35-1.61,0.35c-4.87,0-9.75,0-14.62,0c-0.83,0.02-1.7-0.24-2.21-0.93
		c-0.6-0.63-0.63-1.55-0.59-2.37C167.77,235.22,168.35,234.31,169.19,233.89z"/>
	<path class="st2" d="M226.02,241.42c0.71,0.24,1.29,0.74,1.91,1.16c1.67,1.18,3.09,2.69,4.29,4.33c0.33,0.51,0.82,0.99,0.84,1.63
		c0.03,2-0.21,4.01-0.01,6.01c0.02,1.5,0.06,3.01-0.06,4.51c-0.07,1.57,0.11,3.13,0.08,4.69c0.03,1.31-0.09,2.61-0.11,3.92
		c-1.1,1.98-2.69,3.66-4.44,5.08c-0.77,0.62-1.58,1.21-2.48,1.63C226,263.39,226.03,252.4,226.02,241.42z"/>
	<path class="st3" d="M167.27,249.92c0.46-1.03,1.63-1.49,2.69-1.44c5.68-0.01,11.36,0.01,17.04-0.01
		c-0.48,1.93-1.06,3.85-1.21,5.84c-2.4-0.01-4.8,0.1-7.2,0.08c-3.31-0.21-6.64,0.22-9.95-0.15
		C167.02,253.58,166.43,251.4,167.27,249.92z"/>
	<path class="st3" d="M198.19,254.3c0.48-2.04,1.14-4.08,2.29-5.84c3.72,0.04,7.43,0.02,11.15,0.01c0.81-0.01,1.69,0.03,2.38,0.51
		c1.77,1.26,1.5,4.53-0.64,5.25c-1.56,0.26-3.16,0.14-4.73,0.17c-2.69-0.19-5.38,0.1-8.06-0.02
		C199.78,254.3,198.99,254.36,198.19,254.3z"/>
	<path class="st3" d="M167.04,259.81c0.28-1.14,1.38-1.97,2.55-1.95c4.94-0.02,9.88-0.01,14.82-0.01c0.4,0.01,0.83-0.06,1.2,0.13
		c-0.13,1.92,0.19,3.82,0.45,5.72c-2.5-0.05-4.98,0.09-7.48,0.06c-3.24-0.22-6.5,0.23-9.74-0.15
		C167.28,263.22,166.55,261.28,167.04,259.81z"/>
	<path class="st3" d="M197.87,258.48c-0.01-0.23,0.04-0.44,0.16-0.64c4.66,0.03,9.32,0.01,13.98,0.01c0.79-0.02,1.64,0.12,2.25,0.65
		c0.4,0.33,0.59,0.83,0.82,1.28c0.07,0.82,0.21,1.73-0.23,2.48c-0.37,0.72-1.07,1.33-1.89,1.4c-2.75,0.29-5.52-0.04-8.28,0.07
		c-1.96,0.13-3.93,0-5.89-0.02C198.25,262.01,197.94,260.26,197.87,258.48z"/>
	<path class="st3" d="M167.07,270.19c0.26-1.04,1.22-1.9,2.32-1.89c5.99,0,11.98-0.01,17.97,0c0.68,1.81,1.46,3.6,2.45,5.26
		c0.1,0.18,0.18,0.37,0.25,0.56c-7.01-0.01-14.02,0.01-21.03-0.01C167.35,273.74,166.52,271.74,167.07,270.19z"/>
	<path class="st3" d="M201.09,268.32c3.89-0.04,7.78-0.01,11.66-0.02c0.95-0.01,1.78,0.69,2.13,1.54c0.74,1.6,0,3.99-1.92,4.27
		c-1.96,0.06-3.93-0.02-5.9,0.04c-1.72-1.04-3.28-2.35-4.61-3.86C201.97,269.66,201.42,269.05,201.09,268.32z"/>
	<path class="st1" d="M235.55,285.01c2.18-2.05,4.33-4.14,6.5-6.21c7.11,7.38,14.18,14.8,21.28,22.19c0.14,0.12,0.22,0.27,0.25,0.45
		c-1.04,1.09-2.21,2.04-3.25,3.12c-1.06,1.01-2.08,2.06-3.19,3.01c-5.09-5.24-10.1-10.56-15.18-15.81
		C239.85,289.5,237.63,287.32,235.55,285.01z"/>
	<path class="st3" d="M196.35,283.6c0.75-0.36,1.6-0.2,2.4-0.22c3.12,2.21,6.63,3.89,10.35,4.8c1.46,0.43,2.98,0.56,4.47,0.87
		c-0.38,0.09-0.78,0.16-1.18,0.16c-5.01-0.01-10.02,0-15.02,0c-1.25,0.06-2.39-0.97-2.57-2.18
		C194.48,285.73,195.04,284.12,196.35,283.6z"/>
	<path class="st4" d="M161.37,343.31c-0.12,3.12-0.28,6-0.5,8.49c-1.57,17.75-7.89,28.99-14,32.74v4.73H99.35
		c-0.61-0.93-1.19-1.89-1.74-2.86v-65.59c0-13.94,9.73-38.67,36.03-42.61c0,0-0.14,10.43,0,22.12c0.12,9.9,0.42,20.68,1.19,26.8
		c0,0,0.37,11.37,4.21,15.81c0.1,0.13,0.21,0.25,0.32,0.36c1.5,1.51,2.59,1.19,3.34,0c1.34-2.11,1.65-6.99,1.4-9.56
		c-0.39-4.04,1.98-36.98,16.77-37.39C160.86,296.35,162.04,324.21,161.37,343.31z"/>
	<g>
		<rect x="263.68" y="283.25" class="st0" width="99.18" height="0.2"/>
		<rect x="263.68" y="271.99" class="st0" width="99.18" height="0.2"/>
		<rect x="263.68" y="260.74" class="st0" width="99.18" height="0.2"/>
		<rect x="263.68" y="249.48" class="st0" width="99.18" height="0.2"/>
		<g>
			<text transform="matrix(0.782 0 0 1 260.918 295.3584)" class="st0 st5 st6">0</text>
		</g>
		<g>
			<text transform="matrix(0.782 0 0 1 269.3916 301.0088)" class="st0 st5 st6">2016</text>
		</g>
		<g>
			<text transform="matrix(0.782 0 0 1 285.9502 301.0088)" class="st0 st5 st6">2017</text>
		</g>
		<g>
			<text transform="matrix(0.782 0 0 1 302.2148 301.0088)" class="st0 st5 st6">2018</text>
		</g>
		<g>
			<text transform="matrix(0.782 0 0 1 318.6416 301.0088)" class="st0 st5 st6">2019</text>
		</g>
		<g>
			<text transform="matrix(0.782 0 0 1 335.0703 301.0088)" class="st0 st5 st6">2020</text>
		</g>
		<g>
			<text transform="matrix(0.782 0 0 1 351.3232 301.0068)" class="st0 st5 st6">2021</text>
		</g>
		<g>
			<text transform="matrix(0.782 0 0 1 259.9287 283.9453)" class="st0 st5 st6">10</text>
		</g>
		<g>
			<text transform="matrix(0.782 0 0 1 259.4844 272.793)" class="st0 st5 st6">20</text>
		</g>
		<g>
			<text transform="matrix(0.782 0 0 1 259.4873 261.3828)" class="st0 st5 st6">30</text>
		</g>
		<g>
			<text transform="matrix(0.782 0 0 1 259.3633 250.4893)" class="st0 st5 st6">40</text>
		</g>
		<polygon class="st7" points="272.04,293.17 272.04,289.96 289.09,285.32 304.67,277.61 321.62,276.52 338.14,268.64 
			354.64,246.97 354.64,294.71 272.04,294.71 		"/>
		<polygon class="st3" points="272.04,294.6 272.04,293.17 304.84,291.17 321.51,288.82 338.01,285.57 354.64,279.77 354.64,294.71 
					"/>
		<rect x="263.68" y="294.5" class="st0" width="99.18" height="0.2"/>
		<ellipse class="st0" cx="272.04" cy="293.17" rx="0.3" ry="0.38"/>
		<ellipse class="st0" cx="289.14" cy="292.14" rx="0.33" ry="0.42"/>
		<ellipse class="st0" cx="321.62" cy="288.82" rx="0.36" ry="0.46"/>
		<ellipse class="st0" cx="354.64" cy="279.8" rx="0.36" ry="0.46"/>
		<ellipse class="st0" cx="354.64" cy="247.07" rx="0.36" ry="0.46"/>
		<ellipse class="st0" cx="337.94" cy="285.5" rx="0.36" ry="0.46"/>
		<ellipse class="st0" cx="337.94" cy="268.74" rx="0.36" ry="0.46"/>
		<ellipse class="st0" cx="321.62" cy="276.48" rx="0.36" ry="0.46"/>
		<ellipse class="st0" cx="304.68" cy="291.19" rx="0.36" ry="0.46"/>
		<ellipse class="st0" cx="272.04" cy="290.01" rx="0.3" ry="0.38"/>
		<ellipse class="st0" cx="289.14" cy="285.29" rx="0.31" ry="0.39"/>
		<ellipse class="st0" cx="304.68" cy="277.75" rx="0.31" ry="0.39"/>
	</g>
	<g>
		<path class="st4" d="M314.96,391.28v-9.47c0,0-5.33,2.17-9.07-3.55c-3.75-5.72-10.46-20.12-13.22-29.99
			c-2.76-9.86-13.81-29.39-16.97-30.97c0,0,13.02-12.23,26.87,13.85c0,0,0-58.04,0-62.58s-1.03-12.82,7.85-12.23
			c8.88,0.59,7.89,5.52,7.89,8.48c0,2.96,0.03,54.45,0.03,54.45h1.94c0,0,0-6.9,0-10.65c0-3.75,3.35-5.52,8.09-5.52
			c0,0,6.12,1.18,6.12,7.1s0,9.86,0,9.86h1.58c0,0,0-3.55,0-6.12s1.38-6.31,8.09-6.12c0,0,5.72,0.99,5.92,5.92
			c0.2,4.93,0,8.88,0,8.88s1.58-8.09,9.27-7.69c0,0,5.92,0,4.73,10.85c0,0,1.97,2.96,1.78,8.68c-0.2,5.72,1.18,28.01,0.99,32.75
			c-0.2,4.73,0.59,11.05-5.33,10.85l0.39,13.22H314.96z"/>
		<path class="st1" d="M367.63,418.5h-59.38v-28.21h56.18c0.86,0,1.56,0.67,1.62,1.52L367.63,418.5z"/>
	</g>
	<g>
		<g>
			<polygon class="st8" points="294.66,213 294.66,217.64 303.41,217.64 303.41,221.84 294.66,221.84 294.66,226.9 304.88,226.9 
				304.88,231.39 289.3,231.39 289.3,208.44 304.88,208.44 304.88,213 			"/>
		</g>
		<g>
			<polygon class="st8" points="328.38,208.44 328.38,231.39 324.04,231.39 313.54,218.45 313.54,231.39 308.17,231.39 
				308.17,208.44 312.44,208.44 322.95,221.91 322.95,208.44 			"/>
		</g>
		<g>
			<path class="st8" d="M352.11,208.44v11.54c0,1.54-0.22,3.09-0.59,4.56c-0.44,1.54-1.1,2.72-1.84,3.61
				c-0.88,0.95-1.91,1.77-3.23,2.35c-1.32,0.59-2.79,0.88-4.63,0.88c-1.91,0-3.46-0.3-4.7-0.95c-1.25-0.52-2.28-1.4-3.16-2.42
				c-0.8-0.95-1.39-2.14-1.76-3.61c-0.37-1.54-0.59-3.02-0.59-4.41v-11.55h5.37v11.54c0,0.8,0.07,1.62,0.22,2.42
				c0.15,0.88,0.44,1.54,0.8,2.06c0.37,0.67,0.88,1.17,1.47,1.47c0.59,0.44,1.32,0.67,2.28,0.67c0.95,0,1.69-0.22,2.28-0.59
				c0.67-0.37,1.17-0.95,1.54-1.62c0.44-0.74,0.67-1.47,0.8-2.06c0.15-0.74,0.22-1.54,0.22-2.42v-11.48H352.11z"/>
		</g>
		<path class="st9" d="M285.03,208.52l-0.05-0.08l-20.21,15.34c-1.16,0.87-1.94,2.21-2.17,3.74c-0.15,1.38,0.17,2.79,0.89,3.88
			l0.05,0.08l20.21-15.27c1.42-1.06,2.25-2.73,2.25-4.55C286.01,210.49,285.69,209.47,285.03,208.52z"/>
		<polygon class="st9" points="276.1,224.31 285.99,231.42 285.99,217.21 		"/>
		<polygon class="st9" points="262.69,208.44 262.69,222.66 272.59,215.55 		"/>
	</g>
</g>
</svg>
