<?xml version="1.0" encoding="UTF-8"?>
<svg width="24px" height="24px" viewBox="0 0 24 24" version="1.1" xmlns="http://www.w3.org/2000/svg"
		 xmlns:xlink="http://www.w3.org/1999/xlink">
	<!-- Generator: Sketch 43.1 (39012) - http://www.bohemiancoding.com/sketch -->
	<title>calendar</title>
	<desc>Created with Sketch.</desc>
	<defs></defs>
	<g id="UI" stroke="none" stroke-width="1" fill="none" fill-rule="evenodd">
		<g id="calendar">
			<g id="Calendar">
				<rect id="Rectangle-6" fill="#FFFFFF" x="0" y="0" width="24" height="24"></rect>
				<path
					d="M19,5 L18,5 L18,7 L15,7 L15,5 L9,5 L9,7 L6,7 L6,5 L5,5 C3.899,5 3,5.9 3,7 L3,19 C3,20.1 3.899,21 5,21 L19,21 C20.1,21 21,20.1 21,19 L21,7 C21,5.9 20.1,5 19,5 Z M19,19 L5,19 L5,11 L19,11 L19,19 Z M8.5,3 L6.5,3 L6.5,6.5 L8.5,6.5 L8.5,3 Z M17.5,3 L15.5,3 L15.5,6.5 L17.5,6.5 L17.5,3 Z"
					id="Shape" fill="#455A65" fill-rule="nonzero"></path>
			</g>
		</g>
	</g>
</svg>
