<?xml version="1.0" encoding="UTF-8"?>
<svg width="24px" height="24px" viewBox="0 0 24 24" version="1.1" xmlns="http://www.w3.org/2000/svg"
		 xmlns:xlink="http://www.w3.org/1999/xlink">
	<!-- Generator: Sketch 43.1 (39012) - http://www.bohemiancoding.com/sketch -->
	<title>dashboard</title>
	<desc>Created with Sketch.</desc>
	<defs></defs>
	<g id="UI" stroke="none" stroke-width="1" fill="none" fill-rule="evenodd">
		<g id="dashboard" fill-rule="nonzero" fill="#FFFFFF">
			<g id="Group-4" transform="translate(9.000000, 6.000000)" stroke="#FFFFFF" stroke-width="0.4">
				<path
					d="M2.9982,0 C2.688,0 2.3784,0.35530979 2.1444,1.06562775 C2.1444,1.06562775 0,7.25127561 0,8.94095765 C0,10.6303381 1.3431,12 3,12 C4.6569,12 6,10.6303381 6,8.94095765 C6,7.25127561 3.8556,1.06562775 3.8556,1.06562775 C3.6192,0.35530979 3.3084,0 2.9982,0"
					id="Shape"></path>
			</g>
			<path
				d="M12,22.3 C17.6885329,22.3 22.3,17.6885329 22.3,12 C22.3,6.31146708 17.6885329,1.7 12,1.7 C6.31146708,1.7 1.7,6.31146708 1.7,12 C1.7,17.6885329 6.31146708,22.3 12,22.3 Z M12,24 C5.372583,24 0,18.627417 0,12 C0,5.372583 5.372583,0 12,0 C18.627417,0 24,5.372583 24,12 C24,18.627417 18.627417,24 12,24 Z"
				id="Oval-2-Copy-7"></path>
		</g>
	</g>
</svg>
