<?xml version="1.0" encoding="UTF-8"?>
<svg width="112px" height="112px" viewBox="0 0 112 112" version="1.1" xmlns="http://www.w3.org/2000/svg"
		 xmlns:xlink="http://www.w3.org/1999/xlink">
	<!-- Generator: Sketch 43.2 (39069) - http://www.bohemiancoding.com/sketch -->
	<title>dish</title>
	<desc>Created with Sketch.</desc>
	<defs></defs>
	<g id="UI-Kit" stroke="none" stroke-width="1" fill="none" fill-rule="evenodd">
		<g id="dish" fill-rule="nonzero" fill="#263238">
			<path
				d="M104.826706,73.9477052 L104.826706,76.351886 L8.69631628,76.351886 L8.69631628,73.9477052 C8.69631628,50.7347164 26.2240469,31.1270409 49.546743,27.7590264 C49.3962245,27.2412779 49.324273,26.7109836 49.324273,26.1228954 C49.324273,22.2349309 52.6048783,19 56.6304531,19 C60.6124169,19 63.9366333,22.1922409 63.9366333,26.1228954 C63.9366333,26.7121552 63.8643947,27.2433907 63.713258,27.7621202 C86.9925403,31.2488439 104.565521,50.816434 104.826706,73.9477052 Z M58.8915015,26.2504282 C58.8915015,24.9943572 57.803782,23.9358944 56.4993952,23.9358944 C55.1950084,23.9358944 54.1072889,24.9943572 54.1072889,26.2504282 C54.1072889,26.6659328 54.2058254,27.0800181 54.4013211,27.4171665 L58.5556578,27.4171665 C58.8087922,26.8991386 58.8915015,26.6203331 58.8915015,26.2504282 Z M99.7550327,71.6710573 C98.4511375,49.5329166 79.5776731,32.0979953 56.6304531,32.0979953 C33.6832331,32.0979953 14.8097687,49.5329166 13.5058736,71.6710573 L99.7550327,71.6710573 Z M22.7171209,68.5723836 L22.3239471,68.5723836 L22.2078487,68.5584646 C20.8997371,68.2402329 20.2057967,67.0826181 20.5361634,65.7968484 C23.5968809,53.2358012 33.4334671,42.5458934 47.0359029,37.0199702 C48.2354021,36.5197263 49.5598493,37.0649976 50.0334967,38.2955949 C50.5544023,39.4783492 49.9875329,40.7821835 48.7194059,41.2446412 C36.5320639,46.1650869 27.6088841,55.7405994 24.904992,66.7612576 C24.733706,67.7613309 23.7439594,68.5723836 22.7171209,68.5723836 Z M102.893901,94 L10.1048898,94 C8.93025705,94 7.73991862,93.4408103 6.96819967,92.5391527 L1.57410613,85.7518613 C0.938451305,84.8240251 0.815961201,83.751266 1.28031398,82.6990965 C1.75666654,81.7720165 2.8399985,81.1570704 3.94516733,81.1570704 L109.053623,81.1570704 C110.158792,81.1570704 111.242124,81.7720165 111.718476,82.6990965 C112.190724,83.6181866 112.057499,84.8281704 111.403966,85.7799129 L106.019176,92.5529853 C105.258872,93.4408103 104.068533,94 102.893901,94 Z M102.522607,89.3191713 L105.42826,85.5828335 L7.57053064,85.5828335 L10.4761836,89.3191713 L102.522607,89.3191713 Z"
				id="Combined-Shape"></path>
		</g>
	</g>
</svg>
