<?xml version="1.0" encoding="UTF-8"?>
<svg width="64px" height="64px" viewBox="0 0 64 64" version="1.1" xmlns="http://www.w3.org/2000/svg"
		 xmlns:xlink="http://www.w3.org/1999/xlink">
	<!-- Generator: Sketch 46.2 (44496) - http://www.bohemiancoding.com/sketch -->
	<title>feedback</title>
	<desc>Created with Sketch.</desc>
	<defs></defs>
	<g id="UI-Kit" stroke="none" stroke-width="1" fill="none" fill-rule="evenodd">
		<g id="feedback" fill-rule="nonzero" fill="#263238">
			<path
				d="M18.0745098,33.3604651 C24.5176471,33.3604651 29.7137255,28.127907 29.7137255,21.6395349 C29.7137255,15.1511628 24.5176471,9.91860465 18.0745098,9.91860465 C11.6313725,9.91860465 6.43529412,15.1511628 6.43529412,21.6395349 C6.43529412,28.127907 11.6313725,33.3604651 18.0745098,33.3604651 Z M18.0745098,12.1162791 C23.3745098,12.1162791 27.6352941,16.4069767 27.6352941,21.744186 C27.6352941,27.0813953 23.3745098,31.372093 18.0745098,31.372093 C12.7745098,31.372093 8.51372549,27.0813953 8.51372549,21.744186 C8.51372549,16.4069767 12.7745098,12.1162791 18.0745098,12.1162791 Z"
				id="Shape"></path>
			<ellipse id="Oval" cx="14.3333333" cy="18.8139535" rx="1.55882353" ry="1.56976744"></ellipse>
			<ellipse id="Oval" cx="21.7117647" cy="18.8139535" rx="1.55882353" ry="1.56976744"></ellipse>
			<path
				d="M18.0745098,27.8139535 C20.4647059,27.8139535 22.5431373,26.4534884 23.6862745,24.3604651 C23.9980392,23.8372093 23.7901961,23.2093023 23.2705882,23 C22.7509804,22.6860465 22.127451,22.8953488 21.9196078,23.4186047 C21.1921569,24.8837209 19.7372549,25.7209302 18.1784314,25.7209302 C16.6196078,25.7209302 15.1647059,24.8837209 14.4372549,23.4186047 C14.1254902,22.8953488 13.5019608,22.6860465 13.0862745,23 C12.6705882,23.3139535 12.3588235,23.9418605 12.6705882,24.3604651 C13.5019608,26.4534884 15.6843137,27.8139535 18.0745098,27.8139535 Z"
				id="Shape"></path>
			<path
				d="M41.6647059,27.7093023 C41.7686275,27.8139535 41.9764706,27.8139535 42.1843137,27.8139535 C42.6,27.8139535 42.9117647,27.6046512 43.1196078,27.2906977 C43.8470588,25.8255814 45.3019608,24.9883721 46.8607843,24.9883721 C48.4196078,24.9883721 49.8745098,25.8255814 50.6019608,27.2906977 C50.9137255,27.8139535 51.5372549,28.0232558 51.9529412,27.7093023 C52.472549,27.3953488 52.6803922,26.7674419 52.3686275,26.3488372 C51.2254902,24.255814 49.1470588,22.8953488 46.7568627,22.8953488 C44.3666667,22.8953488 42.2882353,24.1511628 41.2490196,26.244186 C40.9372549,26.7674419 41.145098,27.3953488 41.6647059,27.7093023 Z"
				id="Shape"></path>
			<path
				d="M46.8607843,33.3604651 C53.3039216,33.3604651 58.5,28.127907 58.5,21.6395349 C58.5,15.1511628 53.3039216,9.91860465 46.8607843,9.91860465 C40.4176471,9.91860465 35.2215686,15.1511628 35.2215686,21.6395349 C35.2215686,28.127907 40.4176471,33.3604651 46.8607843,33.3604651 Z M46.8607843,12.1162791 C52.1607843,12.1162791 56.4215686,16.4069767 56.4215686,21.744186 C56.4215686,27.0813953 52.1607843,31.372093 46.8607843,31.372093 C41.5607843,31.372093 37.3,27.0813953 37.3,21.744186 C37.3,16.4069767 41.5607843,12.1162791 46.8607843,12.1162791 Z"
				id="Shape"></path>
			<ellipse id="Oval" cx="43.1196078" cy="18.8139535" rx="1.55882353" ry="1.56976744"></ellipse>
			<ellipse id="Oval" cx="50.4980392" cy="18.8139535" rx="1.55882353" ry="1.56976744"></ellipse>
			<path
				d="M57.4607843,39.2209302 C57.4607843,39.2209302 57.4607843,39.2209302 57.4607843,39.2209302 L37.8196078,39.3255814 C37.4039216,39.3255814 36.9882353,39.6395349 36.8843137,40.0581395 L34.3901961,47.9069767 L31.8960784,31.0581395 C31.7921569,30.6395349 31.4803922,30.2209302 30.9607843,30.2209302 C30.545098,30.1162791 30.0254902,30.4302326 29.9215686,30.8488372 L26.4921569,39.3255814 L7.57843137,39.3255814 C6.95490196,39.3255814 6.53921569,39.744186 6.53921569,40.372093 C6.53921569,41 6.95490196,41.4186047 7.57843137,41.4186047 L27.1156863,41.4186047 C27.5313725,41.4186047 27.9470588,41.2093023 28.0509804,40.7906977 L30.2333333,35.244186 L32.8313725,52.7209302 C32.9352941,53.244186 33.2470588,53.5581395 33.7666667,53.5581395 C33.7666667,53.5581395 33.8705882,53.5581395 33.8705882,53.5581395 C34.2862745,53.5581395 34.7019608,53.244186 34.9098039,52.8255814 L38.5470588,41.4186047 L57.4607843,41.3139535 C58.0843137,41.3139535 58.5,40.7906977 58.5,40.2674419 C58.5,39.744186 57.9803922,39.2209302 57.4607843,39.2209302 Z"
				id="Shape"></path>
		</g>
	</g>
</svg>
