<?xml version="1.0" encoding="UTF-8"?>
<svg width="64px" height="64px" viewBox="0 0 64 64" version="1.1" xmlns="http://www.w3.org/2000/svg"
		 xmlns:xlink="http://www.w3.org/1999/xlink">
	<!-- Generator: Sketch 46.2 (44496) - http://www.bohemiancoding.com/sketch -->
	<title>gain-market</title>
	<desc>Created with Sketch.</desc>
	<defs></defs>
	<g id="UI-Kit" stroke="none" stroke-width="1" fill="none" fill-rule="evenodd">
		<g id="gain-market" fill-rule="nonzero" fill="#263238">
			<path
				d="M43.4955743,21.0229286 C45.1466291,21.0229286 46.4899145,19.7128713 46.4899145,18.1021365 C46.4899145,16.4914018 45.1460948,15.1813445 43.4955743,15.1813445 C41.8450538,15.1813445 40.5012341,16.4914018 40.5012341,18.1021365 C40.5012341,18.6904638 40.6818349,19.2376238 40.9901387,19.6961959 L36.1438386,23.5982282 C35.6955425,23.3366337 35.17351,23.18395 34.6140749,23.18395 C33.0287417,23.18395 31.7308736,24.3918708 31.6288181,25.9129755 L27.0555566,27.2011464 C26.5137541,26.4455446 25.6166276,25.9499739 24.6019502,25.9499739 C22.9503611,25.9499739 21.6070757,27.2600313 21.6070757,28.870766 C21.6070757,29.8494007 22.1050637,30.7149557 22.8648696,31.2454403 L22.2530709,34.3230849 C20.6089623,34.3314226 19.2742261,35.6378322 19.2742261,37.2428348 C19.2742261,37.6221991 19.3511684,37.9838458 19.4868862,38.3168317 L17.8336941,39.6091714 C17.3218137,39.2115685 16.6758184,38.9723814 15.9721164,38.9723814 C14.3205273,38.9723814 12.9772419,40.2824388 12.9772419,41.8931735 C12.9772419,43.5039083 14.3210616,44.8139656 15.9721164,44.8139656 C17.6231712,44.8139656 18.9664566,43.5039083 18.9664566,41.8931735 C18.9664566,41.6331423 18.9279854,41.3824909 18.8622638,41.1422616 L20.6853703,39.7170401 C21.1454215,39.9984367 21.687224,40.1636269 22.2696349,40.1636269 C23.921224,40.1636269 25.2639751,38.8535696 25.2639751,37.2428348 C25.2639751,36.2803544 24.782551,35.427827 24.0441181,34.8957791 L24.6617943,31.7884315 C26.2583482,31.7576863 27.550873,30.5033872 27.5930845,28.9484106 L32.0963499,27.6800417 C32.6296032,28.4882751 33.5582547,29.0255341 34.6146092,29.0255341 C36.265664,29.0255341 37.6089494,27.7154768 37.6089494,26.1047421 C37.6089494,25.7034914 37.5255952,25.3210005 37.3749164,24.9729026 L42.494255,20.850964 C42.8073676,20.9598749 43.1434561,21.0229286 43.4955743,21.0229286 Z M43.4955743,17.005211 C44.1153878,17.005211 44.6197877,17.4971339 44.6197877,18.1021365 C44.6197877,18.7071391 44.1153878,19.199062 43.4955743,19.199062 C42.8757608,19.199062 42.3713609,18.7071391 42.3713609,18.1021365 C42.3713609,17.4971339 42.8757608,17.005211 43.4955743,17.005211 Z M15.9705135,42.990099 C15.3501657,42.990099 14.8457657,42.4981761 14.8457657,41.8931735 C14.8457657,41.2881709 15.3501657,40.796248 15.9705135,40.796248 C16.5903269,40.796248 17.0947268,41.2881709 17.0947268,41.8931735 C17.0947268,42.4981761 16.5908612,42.990099 15.9705135,42.990099 Z M22.2680319,38.3397603 C21.6476842,38.3397603 21.1432842,37.8478374 21.1432842,37.2428348 C21.1432842,36.6378322 21.6476842,36.1459093 22.2680319,36.1459093 C22.8878454,36.1459093 23.3922453,36.6378322 23.3922453,37.2428348 C23.3922453,37.8478374 22.8883797,38.3397603 22.2680319,38.3397603 Z M24.6014159,29.9671704 C23.9810681,29.9671704 23.4766682,29.4752475 23.4766682,28.870766 C23.4766682,28.2662845 23.9810681,27.7738405 24.6014159,27.7738405 C25.2212293,27.7738405 25.7256293,28.2657634 25.7256293,28.870766 C25.7256293,29.4757686 25.2212293,29.9671704 24.6014159,29.9671704 Z M34.6135406,27.2016675 C33.9931928,27.2016675 33.4887929,26.7097447 33.4887929,26.1047421 C33.4887929,25.4997394 33.9931928,25.0078166 34.6135406,25.0078166 C35.233354,25.0078166 35.7377539,25.4997394 35.7377539,26.1047421 C35.7377539,26.7097447 35.233354,27.2016675 34.6135406,27.2016675 Z M47.4586402,47.5747785 C47.4586402,48.0781657 47.0402661,48.4867118 46.5235768,48.4867118 L38.926053,48.4867118 L38.9671958,49.2741011 C41.4240081,49.6847316 42.5231084,51.7529964 42.7683621,52.9020323 C42.8255346,53.1709224 42.756607,53.4502345 42.5786778,53.6633663 C42.401283,53.8764982 42.1346563,54 41.853603,54 L24.9797158,54 C24.7024027,54 24.4400507,53.8801459 24.2621214,53.6732673 C24.0847266,53.4658676 24.0099215,53.1928088 24.0590791,52.9265242 C24.2765481,51.7477853 25.3206132,49.6274101 27.7464349,49.2027097 L27.7843717,48.4861907 L12.5594021,48.4861907 C11.0948257,48.4861907 10,46.9593538 10,45.5945805 L10,14.283481 C10,12.9390307 11.0526142,12 12.5594021,12 L51.927709,12 C53.4323596,12 54.525048,12.960396 54.525048,14.283481 L54.525048,41.2381449 C54.525048,41.741532 54.1066739,42.1500782 53.5899845,42.1500782 C53.0732952,42.1500782 52.6549211,41.741532 52.6549211,41.2381449 L52.6549211,14.283481 C52.6549211,13.8686816 52.1462466,13.8238666 51.927709,13.8238666 L12.5594021,13.8238666 C12.1020225,13.8238666 11.8701268,13.9786347 11.8701268,14.283481 L11.8701268,45.5951016 C11.8701268,46.124544 12.3120111,46.6628452 12.5594021,46.6628452 L28.7691271,46.6628452 C29.0250673,46.6628452 29.2703211,46.7655029 29.4471816,46.9468473 C29.6240422,47.1281918 29.7164799,47.3720688 29.7031218,47.621678 L29.5732816,50.0865034 C29.5476342,50.5711308 29.1372749,50.9515373 28.6392868,50.9515373 C27.4199642,50.9515373 26.7280172,51.5747785 26.3433054,52.1766545 L40.4274977,52.1766545 C40.0150011,51.6039604 39.2958038,51.0260552 38.0754125,51.0260552 C37.5774244,51.0260552 37.1670651,50.6456488 37.1414177,50.1605003 L37.0083715,47.6211569 C36.9955478,47.3715477 37.0879855,47.1276707 37.2643117,46.9463262 C37.440638,46.7649818 37.6858918,46.6628452 37.9423663,46.6628452 L46.5241111,46.6628452 C47.0402661,46.6628452 47.4586402,47.0713913 47.4586402,47.5747785 Z M56.4897498,47.1151641 L52.2226547,42.9536217 C52.1756344,42.9077645 52.1238051,42.8671183 52.06877,42.8322043 C51.7294755,42.6185513 51.5900175,42.5711308 51.5371196,42.5528921 C51.4393387,42.5195414 51.3244595,42.4966128 51.1930163,42.4841063 L50.9258553,42.3475769 L49.3522772,40.8436686 C50.0778864,39.6644085 50.4748876,38.2110474 50.4748876,36.7102658 C50.4748876,32.1448671 46.6641035,28.4304325 41.9802373,28.4304325 C39.7120406,28.4304325 37.5790274,29.2918187 35.9749929,30.8561751 C34.3709584,32.4205315 33.4877242,34.5007817 33.4877242,36.7128713 C33.4871899,41.2741011 37.30118,44.9854091 41.9903894,44.9854091 C43.6793811,44.9854091 45.0787702,44.6492965 46.2548128,43.9593538 L47.8321312,45.4236582 L47.9785354,45.6951537 C47.9940308,45.796248 48.015938,45.8858781 48.044257,45.965086 C48.060821,46.0109432 48.1051697,46.1328817 48.2985943,46.4413757 C48.3370655,46.5033872 48.3830172,46.5607087 48.435915,46.611777 L52.7211771,50.791037 C53.0668834,51.1287129 53.537621,51.3142262 54.0462955,51.3142262 C54.6714522,51.3142262 55.3185161,51.0323085 55.821313,50.5419489 L56.1728968,50.199062 C56.5784472,49.8040646 56.8573633,49.3017196 56.9588844,48.7853048 C57.0860531,48.1386139 56.91507,47.5294424 56.4897498,47.1151641 Z M35.3573167,36.7128713 C35.3573167,34.9880146 36.0460577,33.3658155 37.2969054,32.1459093 C38.5482874,30.9260031 40.2110973,30.2542991 41.9802373,30.2542991 C45.6333964,30.2542991 48.6047608,33.1505993 48.6047608,36.7102658 C48.6047608,37.9635227 48.2403532,39.2079208 47.6055787,40.1250651 C47.5013859,40.2761855 47.4361987,40.3559145 47.4255122,40.3689422 C47.4148258,40.3809276 47.4078796,40.3949974 47.3982618,40.4075039 C47.3897127,40.4184471 47.3790262,40.4273059 47.3710114,40.4387702 C47.2716275,40.5768629 46.9483627,41.0015633 46.640059,41.3022408 C46.2574845,41.6753517 45.951318,41.9520584 45.8204091,42.0687858 C45.7445354,42.1125586 45.6344651,42.1782178 45.4992816,42.2668056 C44.5711644,42.8770193 43.4565688,43.1610214 41.9909237,43.1610214 C38.3329556,43.1615425 35.3573167,40.2683689 35.3573167,36.7128713 Z M54.8509843,48.9088067 L54.4988662,49.2522147 C54.3305548,49.4168838 54.1504883,49.4903596 54.0462955,49.4903596 L54.0430896,49.5013028 L49.8401131,45.4017718 C49.8337013,45.3918708 49.828358,45.3819698 49.8224805,45.3720688 C49.8224805,45.3678999 49.8219462,45.3652944 49.8219462,45.3642522 C49.813397,45.2365816 49.7775974,45.1125586 49.7166847,44.9994789 L49.4158615,44.4418968 C49.3683068,44.3543512 49.3068598,44.2741011 49.2325891,44.2058364 L47.732213,42.8129234 C47.8054151,42.7430954 47.8812889,42.6701407 47.9619715,42.5914539 C48.0522719,42.5033872 48.138832,42.4106305 48.2232549,42.318395 L49.7156161,43.7446587 C49.7808034,43.8071912 49.8556085,43.8598228 49.9368254,43.9015112 L50.5064126,44.1922876 C50.6426647,44.2615946 50.7618185,44.3048463 50.9360074,44.2959875 C50.9360074,44.2959875 50.9370761,44.2954664 50.9424193,44.2959875 C50.9531057,44.3022408 50.9627235,44.3079729 50.9728756,44.3137051 L55.1304347,48.3689422 C55.1315034,48.462741 55.0631102,48.7019281 54.8509843,48.9088067 Z"
				id="Shape"></path>
		</g>
	</g>
</svg>
