<?xml version="1.0" encoding="UTF-8"?>
<svg width="64px" height="64px" viewBox="0 0 64 64" version="1.1" xmlns="http://www.w3.org/2000/svg"
		 xmlns:xlink="http://www.w3.org/1999/xlink">
	<!-- Generator: Sketch 46.2 (44496) - http://www.bohemiancoding.com/sketch -->
	<title>get-listed</title>
	<desc>Created with Sketch.</desc>
	<defs></defs>
	<g id="UI-Kit" stroke="none" stroke-width="1" fill="none" fill-rule="evenodd">
		<g id="get-listed" fill-rule="nonzero" fill="#263238">
			<path
				d="M29.3514799,48.6377531 C29.9337242,48.6377531 30.4056763,48.1733223 30.4056763,47.6019506 L30.4056763,45.2616296 L30.5056763,45.1616296 L31.179727,45.1616296 C34.0852557,45.1616296 36.4484717,42.8357301 36.4484717,39.9778765 C36.4484717,37.120023 34.0852557,34.7941235 31.179727,34.7941235 L27.5255411,34.7941235 C25.7831416,34.7941235 24.3651893,33.3985868 24.3651893,31.6819753 C24.3651893,29.9653638 25.7831416,28.5698272 27.5255411,28.5698272 L34.1604393,28.5698272 C34.7426837,28.5698272 35.2146358,28.1053964 35.2146358,27.5340247 C35.2146358,26.962653 34.7426837,26.4982222 34.1604393,26.4982222 L30.5056763,26.4982222 L30.4056763,26.3982222 L30.4056763,24.0584691 C30.4056763,23.4870974 29.9337242,23.0226667 29.3514799,23.0226667 C28.7692355,23.0226667 28.2972834,23.4870974 28.2972834,24.0584691 L28.2972834,26.3982222 L28.1972834,26.4982222 L27.5255411,26.4982222 C24.6200124,26.4982222 22.2567964,28.8241218 22.2567964,31.6819753 C22.2567964,34.4863124 24.5367447,36.7875425 27.3859292,36.8637421 C27.4150598,36.8654623 27.4150598,36.8654623 27.4464786,36.8657284 L31.179727,36.8657284 C32.9221265,36.8657284 34.3400789,38.2612651 34.3400789,39.9778765 C34.3400789,41.694488 32.9221265,43.0900247 31.179727,43.0900247 L24.2747468,43.0900247 C23.6925025,43.0900247 23.2205504,43.5544555 23.2205504,44.1258272 C23.2205504,44.6971989 23.6925025,45.1616296 24.2747468,45.1616296 L28.1972834,45.1616296 L28.2972834,45.2616296 L28.2972834,47.6019506 C28.2972834,48.1729584 28.7694423,48.6377531 29.3514799,48.6377531 Z M47.2426788,31.8160494 C46.6604345,31.8160494 46.1884824,32.2804802 46.1884824,32.8518519 L46.1884824,48.1851852 C46.1884824,50.7457888 44.072149,52.8283951 41.4716966,52.8283951 L14.9251786,52.8283951 C12.3247263,52.8283951 10.2083929,50.7457888 10.2083929,48.1851852 L10.2083929,20.9259259 C10.2083929,18.3653223 12.3247263,16.282716 14.9251786,16.282716 L36.2778127,16.282716 C36.860057,16.282716 37.3320091,15.8182853 37.3320091,15.2469136 C37.3320091,14.6755419 36.860057,14.2111111 36.2778127,14.2111111 L14.9251786,14.2111111 C11.1613918,14.2111111 8.1,17.2237147 8.1,20.9259259 L8.1,48.1851852 C8.1,51.8873964 11.1613918,54.9 14.9251786,54.9 L41.4716966,54.9 C45.2354835,54.9 48.2968753,51.8873964 48.2968753,48.1851852 L48.2968753,32.8518519 C48.2968753,32.2804802 47.8249232,31.8160494 47.2426788,31.8160494 Z M55.5918243,19.5274739 C55.1805714,19.1222562 54.5119013,19.1222562 54.1006412,19.5274811 L48.4670084,25.0701971 L48.2968753,24.9989136 L48.2968753,10.1358025 C48.2968753,9.56443077 47.8249232,9.1 47.2426788,9.1 C46.6604345,9.1 46.1884824,9.56443077 46.1884824,10.1358025 L46.1884824,24.9989136 L46.0183419,25.0701899 L40.3858633,19.5274739 C39.9740681,19.1222412 39.3059057,19.1222412 38.8941105,19.5274739 C38.4832095,19.9318265 38.4832095,20.5865933 38.8941105,20.9909459 L46.4968024,28.4724767 C46.6975299,28.6700053 46.9643759,28.7765432 47.2426788,28.7765432 C47.5209817,28.7765432 47.7878278,28.6700053 47.988558,28.4724741 L55.5918243,20.9909459 C56.0027252,20.5865933 56.0027252,19.9318265 55.5918243,19.5274739 Z"
				id="Shape"></path>
		</g>
	</g>
</svg>
