<?xml version="1.0" encoding="UTF-8"?>
<svg width="64px" height="64px" viewBox="0 0 64 64" version="1.1" xmlns="http://www.w3.org/2000/svg"
		 xmlns:xlink="http://www.w3.org/1999/xlink">
	<!-- Generator: Sketch 46.2 (44496) - http://www.bohemiancoding.com/sketch -->
	<title>manage</title>
	<desc>Created with Sketch.</desc>
	<defs></defs>
	<g id="UI-Kit" stroke="none" stroke-width="1" fill="none" fill-rule="evenodd">
		<g id="manage" fill-rule="nonzero" fill="#263238">
			<path
				d="M20.6515748,29.9968504 C13.2877327,29.9968504 7.3,35.9845831 7.3,43.3484252 C7.3,50.7122673 13.2877327,56.7 20.6515748,56.7 C28.0154169,56.7 34.0031496,50.7122673 34.0031496,43.3484252 C34.0031496,35.9845831 28.0154169,29.9968504 20.6515748,29.9968504 Z M20.6515748,54.5244094 C18.3897225,54.5244094 16.2263391,53.8439695 14.3808651,52.5928007 L14.162616,52.4448353 L14.2813479,52.2094012 C15.4940668,49.8046936 17.9522054,48.2748031 20.6515748,48.2748031 C23.3602583,48.2748031 25.8240466,49.8035566 27.0224953,52.2107854 L27.1394005,52.4456035 L26.9222845,52.5928007 C25.0768106,53.8439695 22.9134271,54.5244094 20.6515748,54.5244094 Z M28.6229091,50.5897803 C26.9456448,47.8039792 23.9352624,46.0893701 20.6515748,46.0893701 C17.3826098,46.0893701 14.369876,47.8094339 12.6898455,50.5901741 L12.4757779,50.9444928 L12.205708,50.6307589 C10.4609829,48.6039525 9.48543307,46.0480645 9.48543307,43.3385827 C9.48543307,37.1788028 14.5016374,32.1625984 20.6614173,32.1625984 C26.8211972,32.1625984 31.8374016,37.1788028 31.8373996,43.3396696 C31.8275608,46.0551703 30.8468125,48.6204072 29.106783,50.6313395 L28.8362035,50.9440452 L28.6229091,50.5897803 Z"
				id="Shape"></path>
			<path
				d="M20.6515748,35.2429134 C18.2420134,35.2429134 16.2862205,37.2015574 16.2862205,39.6082677 C16.2862205,42.0114799 18.2483626,43.973622 20.6515748,43.973622 C23.054787,43.973622 25.0169291,42.0114799 25.0169291,39.6082677 C25.0169291,37.2050555 23.054787,35.2429134 20.6515748,35.2429134 Z M20.6515748,41.807874 C19.4425823,41.807874 18.461811,40.8271027 18.461811,39.6181102 C18.461811,38.4091177 19.4425823,37.4283465 20.6515748,37.4283465 C21.8605673,37.4283465 22.8413386,38.4091177 22.8413386,39.6181102 C22.8413386,40.8204184 21.8574223,41.807874 20.6515748,41.807874 Z"
				id="Shape"></path>
			<path
				d="M43.3484252,7.3 C35.9845831,7.3 29.9968504,13.2877327 29.9968504,20.6515748 C29.9968504,28.0154169 35.9845831,34.0031496 43.3484252,34.0031496 C50.7122673,34.0031496 56.7,28.0154169 56.7,20.6515748 C56.7,13.2877327 50.7122673,7.3 43.3484252,7.3 Z M43.3484252,31.8275591 C41.0865729,31.8275591 38.9231894,31.1471191 37.0777155,29.8959503 L36.8594664,29.7479849 L36.9781983,29.5125508 C38.1909172,27.1078432 40.6490558,25.5779528 43.3484252,25.5779528 C46.0571087,25.5779528 48.520897,27.1067062 49.7193457,29.513935 L49.8359405,29.7481296 L49.6197884,29.895506 C47.7876386,31.1446991 45.6139546,31.8275591 43.3484252,31.8275591 Z M51.3197595,27.8929299 C49.6424951,25.1071288 46.6321128,23.3925197 43.3484252,23.3925197 C40.0744551,23.3925197 37.0639553,25.1071956 35.3766977,27.8935811 L35.162501,28.2473116 L34.8927159,27.9339085 C33.1488414,25.9080903 32.1724409,23.3526054 32.1724409,20.6515748 C32.1724409,14.4917949 37.1886453,9.47559055 43.3484252,9.47559055 C49.5082051,9.47559055 54.5244094,14.4917949 54.5244094,20.6515748 C54.5244094,23.3526054 53.5480089,25.9080903 51.8041345,27.9339085 L51.5336285,28.248149 L51.3197595,27.8929299 Z"
				id="Shape"></path>
			<path
				d="M43.3484252,12.546063 C40.9388638,12.546063 38.9830709,14.504707 38.9830709,16.9114173 C38.9830709,19.3209787 40.9417148,21.2767717 43.3484252,21.2767717 C45.7579866,21.2767717 47.7137795,19.3181277 47.7137795,16.9114173 C47.7137795,14.504707 45.7579866,12.546063 43.3484252,12.546063 Z M43.3484252,19.1011811 C42.1394327,19.1011811 41.1586614,18.1204098 41.1586614,16.9114173 C41.1586614,15.7024248 42.1394327,14.7216535 43.3484252,14.7216535 C44.5574177,14.7216535 45.538189,15.7024248 45.538189,16.9114173 C45.538189,18.1204098 44.5574177,19.1011811 43.3484252,19.1011811 Z"
				id="Shape"></path>
			<path
				d="M14.007874,27.1232283 C14.6099051,27.1232283 15.0956693,26.6374642 15.0956693,26.0354331 L15.0956693,15.0956693 L26.0354331,15.0956693 C26.6374642,15.0956693 27.1232283,14.6099051 27.1232283,14.007874 C27.1232283,13.4058429 26.6374642,12.9200787 26.0354331,12.9200787 L14.007874,12.9200787 C13.4058429,12.9200787 12.9200787,13.4058429 12.9200787,14.007874 L12.9200787,26.0452756 C12.9200787,26.6386531 13.4070411,27.1232283 14.007874,27.1232283 Z"
				id="Shape"></path>
			<path
				d="M49.992126,36.8767717 C49.3900949,36.8767717 48.9043307,37.3625358 48.9043307,37.9645669 L48.9043307,48.9043307 L37.9645669,48.9043307 C37.3625358,48.9043307 36.8767717,49.3900949 36.8767717,49.992126 C36.8767717,50.5941571 37.3625358,51.0799213 37.9645669,51.0799213 L49.992126,51.0799213 C50.5941571,51.0799213 51.0799213,50.5941571 51.0799213,49.992126 L51.0799213,37.9645669 C51.0799213,37.3625358 50.5941571,36.8767717 49.992126,36.8767717 Z"
				id="Shape"></path>
		</g>
	</g>
</svg>
