<?xml version="1.0" encoding="UTF-8"?>
<svg width="24px" height="24px" viewBox="0 0 24 24" version="1.1" xmlns="http://www.w3.org/2000/svg"
		 xmlns:xlink="http://www.w3.org/1999/xlink">
	<!-- Generator: Sketch 43.1 (39012) - http://www.bohemiancoding.com/sketch -->
	<title>map</title>
	<desc>Created with Sketch.</desc>
	<defs></defs>
	<g id="UI" stroke="none" stroke-width="1" fill="none" fill-rule="evenodd">
		<g id="map">
			<g>
				<rect id="Rectangle-5" x="0" y="0" width="24" height="24"></rect>
				<path
					d="M15.2386293,4.00407195 C15.2626405,4.00682862 15.28639,4.01146581 15.3096519,4.01793941 L21.6732763,5.80728907 C21.8684437,5.8635881 22.001867,6.04061382 21.9999802,6.24075902 L21.9999802,20.5555652 C21.9990372,20.6959524 21.931188,20.8277625 21.8167333,20.9115578 C21.7022785,20.9953532 21.5544933,21.0214147 21.417595,20.9819449 L15.1818113,19.2275323 L8.94602776,20.9819449 C8.86255583,21.0060184 8.77381836,21.0060184 8.69034643,20.9819449 L2.32672235,19.1925952 C2.13411951,19.1370314 2.00133609,18.9637364 2.00001843,18.7662156 L2.00001843,4.45140936 C1.99872433,4.3097948 2.06563832,4.17593992 2.18042307,4.09052755 C2.29520782,4.00511518 2.44430668,3.97823295 2.58240368,4.01805124 L8.81818709,5.77246385 L15.0539706,4.01805124 C15.1139045,4.00100778 15.1767616,3.99628735 15.2386293,4.00418378 L15.2386293,4.00407195 Z M15.6363558,5.03853972 L15.6363558,18.4237117 L21.0908908,19.9614341 L21.0908908,6.57626208 L15.6363558,5.03853972 L15.6363558,5.03853972 Z M14.7272667,5.03853972 L9.27273168,6.57626208 L9.27273168,19.9614341 L14.7272667,18.4237117 L14.7272667,5.03853972 L14.7272667,5.03853972 Z M2.9091076,5.03853972 L2.9091076,18.4237117 L8.36364251,19.9614341 L8.36364251,6.57626208 L2.9091076,5.03853972 L2.9091076,5.03853972 Z"
					id="Shape" stroke="#263238" stroke-width="0.6" fill="#263238" fill-rule="nonzero"></path>
			</g>
		</g>
	</g>
</svg>
