<?xml version="1.0" encoding="UTF-8"?>
<svg width="64px" height="64px" viewBox="0 0 64 64" version="1.1" xmlns="http://www.w3.org/2000/svg"
		 xmlns:xlink="http://www.w3.org/1999/xlink">
	<!-- Generator: Sketch 46.2 (44496) - http://www.bohemiancoding.com/sketch -->
	<title>modernize</title>
	<desc>Created with Sketch.</desc>
	<defs></defs>
	<g id="UI-Kit" stroke="none" stroke-width="1" fill="none" fill-rule="evenodd">
		<g id="modernize" stroke="#263238" fill="#263238">
			<path
				d="M46.1119638,46.0507129 C46.3678495,46.0507129 46.5746866,46.2541108 46.5746866,46.5057418 C46.5746866,46.7573728 46.3678495,46.9607708 46.1119638,46.9607708 L46.0610643,46.9607708 C45.8051786,46.9607708 45.5983416,46.7573728 45.5983416,46.5057418 C45.5983416,46.2541108 45.8051786,46.0507129 46.0610643,46.0507129 L46.1119638,46.0507129 Z M49.5032588,46.0507129 C49.7591445,46.0507129 49.9659815,46.2541108 49.9659815,46.5057418 C49.9659815,46.7573728 49.7591445,46.9607708 49.5032588,46.9607708 L49.452822,46.9607708 C49.1969363,46.9607708 48.9900993,46.7573728 48.9900993,46.5057418 C48.9900993,46.2541108 49.1969363,46.0507129 49.452822,46.0507129 L49.5032588,46.0507129 Z M52.1639146,38.840324 C52.3156876,38.840324 52.458669,38.9131287 52.5447354,39.0359865 C52.6308018,39.1588443 52.6511616,39.3144642 52.5979485,39.4546131 L51.0274675,43.5949216 C50.95991,43.7723829 50.7873144,43.8906904 50.5938963,43.8906904 L46.1443544,43.8906904 L46.1443544,44.8303252 L50.3921492,44.8303252 C50.6480349,44.8303252 50.8548719,45.0337232 50.8548719,45.2853542 C50.8548719,45.5369852 50.6480349,45.7403831 50.3921492,45.7403831 L45.6816317,45.7403831 C45.425746,45.7403831 45.2189089,45.5369852 45.2189089,45.2853542 L45.2189089,43.4356615 C45.2189089,43.4220106 45.2258498,43.4101798 45.2272379,43.396529 L43.4221565,37.8055882 L41.5050962,36.7481009 C41.2820638,36.6252431 41.2024755,36.3476754 41.3278733,36.1288065 C41.4528085,35.9085725 41.7355321,35.8316726 41.957639,35.9545304 L44.033876,37.1002933 C44.1366004,37.1567169 44.2129497,37.2495428 44.2485793,37.3592048 L44.7293482,38.8489696 C44.7584998,38.8435092 44.7885768,38.840324 44.8191165,38.840324 L52.1639146,38.840324 Z M50.272304,42.9806325 L51.4971311,39.7503819 L45.0204009,39.7503819 L46.0629152,42.9806325 L50.272304,42.9806325 Z"
				id="Combined-Shape" stroke-width="0.8"></path>
			<path
				d="M51.9833284,28.7566777 C51.1826078,28.4402257 50.3572787,28.2118839 49.5149129,28.0611039 L49.5149129,13.1009928 C49.5149129,11.9425304 48.5564459,11 47.3783958,11 L9.80762256,11 C8.62957252,11 7.67110545,11.9425304 7.67110545,13.1009928 L7.67110545,39.643866 C7.67110545,39.9510105 7.74177583,40.2407812 7.86292506,40.5038707 L4.63101702,40.5038707 C4.44487628,40.5038707 4.26756934,40.5851554 4.14768208,40.7253871 C4.02779482,40.8656187 3.97731598,41.0511464 4.00949624,41.2317102 L4.76226202,45.4330753 C4.8152648,45.7296714 5.0777548,45.9456034 5.38378279,45.9456034 L35.7404981,45.9456034 C37.8246434,50.1159437 42.1765509,53 47.2124466,53 C54.2637103,53 60,47.3597093 60,40.4263089 C60,35.2644191 56.853275,30.6833117 51.9833284,28.7566777 Z M8.93307657,13.1009928 C8.93307657,12.6269354 9.32554959,12.2409881 9.80762256,12.2409881 L47.3783958,12.2409881 C47.8604688,12.2409881 48.2529418,12.6269354 48.2529418,13.1009928 L48.2529418,27.9010164 C47.9077927,27.8737147 47.5620126,27.8526179 47.2130776,27.8526179 C40.770084,27.8526179 35.3152139,32.5869874 34.524589,38.865146 C34.4589665,39.3782945 34.4267862,39.9044735 34.4267862,40.4275499 C34.4267862,40.4536107 34.4305721,40.47781 34.4305721,40.5038707 L9.80762256,40.5038707 C9.32554959,40.5038707 8.93307657,40.1179234 8.93307657,39.643866 L8.93307657,13.1009928 Z M5.91381066,44.7058563 L5.38315181,41.7454793 L34.4980876,41.7454793 C34.6078791,42.7761198 34.8564874,43.7645668 35.2047914,44.7058563 L5.91381066,44.7058563 Z M47.2124466,51.7602529 C40.857791,51.7602529 35.6874953,46.6765453 35.6874953,40.4275499 C35.6874953,39.955354 35.7171517,39.4812965 35.7758333,39.018408 C36.488847,33.3607434 41.4054865,29.0942265 47.2124466,29.0942265 C48.6977866,29.0942265 50.1446365,29.3678643 51.5119822,29.9089351 C55.9011178,31.6450774 58.7373979,35.7744652 58.7373979,40.4281704 C58.7380289,46.6759248 53.5677332,51.7602529 47.2124466,51.7602529 Z M28.5926937,16.2594707 C29.1107328,16.2594707 29.5322312,15.8449807 29.5322312,15.3355551 C29.5322312,14.825509 29.1107328,14.411019 28.5926937,14.411019 C28.0746546,14.411019 27.6531562,14.825509 27.6531562,15.3355551 C27.6525252,15.8449807 28.0740236,16.2594707 28.5926937,16.2594707 Z"
				id="Shape" stroke-width="0.7" fill-rule="nonzero"></path>
		</g>
	</g>
</svg>
