<?xml version="1.0" encoding="UTF-8"?>
<svg width="64px" height="64px" viewBox="0 0 64 64" version="1.1" xmlns="http://www.w3.org/2000/svg"
		 xmlns:xlink="http://www.w3.org/1999/xlink">
	<!-- Generator: Sketch 46.2 (44496) - http://www.bohemiancoding.com/sketch -->
	<title>optimize</title>
	<desc>Created with Sketch.</desc>
	<defs></defs>
	<g id="UI-Kit" stroke="none" stroke-width="1" fill="none" fill-rule="evenodd">
		<g id="optimize" fill-rule="nonzero" fill="#263238">
			<path
				d="M51.9333333,26.02 L48.33,26.02 C48.0233333,26.02 47.7166667,25.79 47.64,25.4833333 C47.4866667,25.1766667 47.5633333,24.87 47.7933333,24.64 L50.3233333,22.11 C51.55,20.8833333 51.55,18.9666667 50.3233333,17.8166667 L46.26,13.7533333 C45.11,12.6033333 43.1166667,12.6033333 41.9666667,13.7533333 L39.4366667,16.2833333 C39.2066667,16.5133333 38.9,16.59 38.5166667,16.4366667 C38.21,16.2833333 37.98,16.0533333 37.98,15.7466667 L37.98,12.0666667 C37.98,10.38 36.6,9 34.9133333,9 L29.1633333,9 C27.4766667,9 26.0966667,10.38 26.0966667,12.0666667 L26.0966667,15.67 C26.0966667,15.9766667 25.8666667,16.2833333 25.56,16.36 C25.2533333,16.5133333 24.9466667,16.4366667 24.7166667,16.2066667 L22.1866667,13.6766667 C21.0366667,12.5266667 19.0433333,12.5266667 17.8933333,13.6766667 L13.83,17.74 C13.2166667,18.3533333 12.91,19.12 12.91,19.8866667 C12.91,20.6533333 13.2166667,21.4966667 13.83,22.0333333 L16.36,24.5633333 C16.59,24.7933333 16.6666667,25.1 16.5133333,25.4833333 C16.36,25.79 16.13,26.02 15.8233333,26.02 L12.0666667,26.02 C10.38,26.02 9,27.4 9,29.0866667 L9,34.8366667 C9,36.5233333 10.38,37.9033333 12.0666667,37.9033333 L15.67,37.9033333 C15.9766667,37.9033333 16.2833333,38.1333333 16.36,38.44 C16.5133333,38.7466667 16.4366667,39.0533333 16.2066667,39.2833333 L13.6766667,41.8133333 C13.0633333,42.4266667 12.7566667,43.1933333 12.7566667,43.96 C12.7566667,44.7266667 13.0633333,45.57 13.6766667,46.1066667 L17.74,50.17 C18.9666667,51.3966667 20.8833333,51.3966667 22.0333333,50.17 L24.5633333,47.64 C24.7933333,47.41 25.1,47.3333333 25.4066667,47.4866667 C25.4066667,47.4866667 25.4833333,47.4866667 25.4833333,47.4866667 C25.79,47.64 26.02,47.87 26.02,48.1766667 L26.02,51.9333333 C26.02,53.62 27.4,55 29.0866667,55 L34.8366667,55 C36.5233333,55 37.9033333,53.62 37.9033333,51.9333333 L37.9033333,48.33 C37.9033333,48.0233333 38.1333333,47.7166667 38.44,47.64 C38.7466667,47.4866667 39.0533333,47.5633333 39.2833333,47.7933333 L41.8133333,50.3233333 C43.04,51.55 44.9566667,51.55 46.1066667,50.3233333 L50.17,46.26 C51.3966667,45.0333333 51.3966667,43.1166667 50.17,41.9666667 L47.64,39.4366667 C47.41,39.2066667 47.3333333,38.9 47.4866667,38.5166667 C47.64,38.21 47.87,37.98 48.1766667,37.98 L51.9333333,37.98 C53.62,37.98 55,36.6 55,34.9133333 L55,29.1633333 C55,27.4 53.62,26.02 51.9333333,26.02 Z M52.7,34.9133333 C52.7,35.2966667 52.3933333,35.68 51.9333333,35.68 L48.33,35.68 C47.1033333,35.68 45.9533333,36.4466667 45.4933333,37.5966667 C45.0333333,38.7466667 45.2633333,40.1266667 46.1066667,40.97 L48.6366667,43.5 C48.9433333,43.8066667 48.9433333,44.2666667 48.6366667,44.5733333 L44.5733333,48.6366667 C44.2666667,48.9433333 43.8066667,48.9433333 43.5,48.6366667 L40.97,46.1066667 C40.1266667,45.2633333 38.7466667,44.9566667 37.5966667,45.4933333 C36.4466667,45.9533333 35.68,47.1033333 35.68,48.33 L35.68,51.9333333 C35.68,52.3166667 35.3733333,52.7 34.9133333,52.7 L29.1633333,52.7 C28.78,52.7 28.3966667,52.3933333 28.3966667,51.9333333 L28.3966667,48.33 C28.3966667,47.1033333 27.63,45.9533333 26.5566667,45.4933333 C26.5566667,45.4933333 26.48,45.4933333 26.48,45.4933333 C26.0966667,45.34 25.6366667,45.2633333 25.2533333,45.2633333 C24.4866667,45.2633333 23.6433333,45.57 23.1066667,46.1833333 L20.5,48.7133333 C20.1933333,49.02 19.7333333,49.02 19.4266667,48.7133333 L15.3633333,44.65 C15.21,44.42 15.1333333,44.2666667 15.1333333,44.0366667 C15.1333333,43.8066667 15.21,43.6533333 15.3633333,43.5 L17.8933333,40.97 C18.7366667,40.1266667 19.0433333,38.7466667 18.5066667,37.5966667 C18.0466667,36.4466667 16.8966667,35.68 15.67,35.68 L12.0666667,35.68 C11.6833333,35.68 11.3,35.3733333 11.3,34.9133333 L11.3,29.1633333 C11.3,28.78 11.6066667,28.3966667 12.0666667,28.3966667 L15.67,28.3966667 C16.8966667,28.3966667 18.0466667,27.63 18.5066667,26.48 C18.9666667,25.33 18.7366667,23.95 17.8933333,23.1066667 L15.2866667,20.5 C15.1333333,20.3466667 15.0566667,20.1933333 15.0566667,19.9633333 C15.0566667,19.7333333 15.1333333,19.58 15.2866667,19.4266667 L19.35,15.3633333 C19.6566667,15.0566667 20.1166667,15.0566667 20.4233333,15.3633333 L22.9533333,17.8933333 C23.7966667,18.7366667 25.1766667,19.0433333 26.3266667,18.5066667 C27.4766667,18.0466667 28.2433333,16.8966667 28.2433333,15.67 L28.2433333,12.0666667 C28.2433333,11.6833333 28.55,11.3 29.01,11.3 L34.76,11.3 C35.1433333,11.3 35.5266667,11.6066667 35.5266667,12.0666667 L35.5266667,15.67 C35.5266667,16.8966667 36.2933333,18.0466667 37.4433333,18.5066667 C38.5933333,18.9666667 39.9733333,18.7366667 40.8166667,17.8933333 L43.3466667,15.3633333 C43.6533333,15.0566667 44.1133333,15.0566667 44.42,15.3633333 L48.4833333,19.4266667 C48.79,19.7333333 48.79,20.1933333 48.4833333,20.5 L45.9533333,23.03 C45.11,23.8733333 44.8033333,25.2533333 45.34,26.4033333 C45.8,27.5533333 46.95,28.32 48.1766667,28.32 L51.9333333,28.32 C52.3166667,28.32 52.7,28.6266667 52.7,29.0866667 L52.7,34.9133333 Z M32,22.0333333 C26.48,22.0333333 22.0333333,26.48 22.0333333,32 C22.0333333,37.52 26.48,41.9666667 32,41.9666667 C37.52,41.9666667 41.9666667,37.52 41.9666667,32 C41.9666667,26.48 37.52,22.0333333 32,22.0333333 Z M32,39.6666667 C27.7833333,39.6666667 24.3333333,36.2166667 24.3333333,32 C24.3333333,27.7833333 27.7833333,24.3333333 32,24.3333333 C36.2166667,24.3333333 39.6666667,27.7833333 39.6666667,32 C39.6666667,36.2166667 36.2166667,39.6666667 32,39.6666667 Z"
				id="Shape"></path>
		</g>
	</g>
</svg>
