<?xml version="1.0" encoding="UTF-8"?>
<svg width="32px" height="32px" viewBox="0 0 32 32" version="1.1" xmlns="http://www.w3.org/2000/svg"
		 xmlns:xlink="http://www.w3.org/1999/xlink">
	<!-- Generator: Sketch 46.2 (44496) - http://www.bohemiancoding.com/sketch -->
	<title>phone</title>
	<desc>Created with Sketch.</desc>
	<defs></defs>
	<g id="UI-Kit" stroke="none" stroke-width="1" fill="none" fill-rule="evenodd">
		<g id="phone" fill-rule="nonzero" fill="#FFFFFF">
			<path
				d="M26.6666667,20.6666667 C25,20.6666667 23.4,20.4 21.9066667,19.9066667 C21.44,19.76 20.92,19.8666667 20.5466667,20.2266667 L17.6133333,23.16 C13.84,21.24 10.7466667,18.16 8.82666667,14.3733333 L11.76,11.4266667 C12.1333333,11.08 12.24,10.56 12.0933333,10.0933333 C11.6,8.6 11.3333333,7 11.3333333,5.33333333 C11.3333333,4.6 10.7333333,4 10,4 L5.33333333,4 C4.6,4 4,4.6 4,5.33333333 C4,17.8533333 14.1466667,28 26.6666667,28 C27.4,28 28,27.4 28,26.6666667 L28,22 C28,21.2666667 27.4,20.6666667 26.6666667,20.6666667 Z M25.3333333,16 L28,16 C28,9.37333333 22.6266667,4 16,4 L16,6.66666667 C21.16,6.66666667 25.3333333,10.84 25.3333333,16 Z M20,16 L22.6666667,16 C22.6666667,12.32 19.68,9.33333333 16,9.33333333 L16,12 C18.2133333,12 20,13.7866667 20,16 Z"
				id="Shape"></path>
		</g>
	</g>
</svg>
