<?xml version="1.0" encoding="UTF-8"?>
<svg width="56px" height="56px" viewBox="0 0 56 56" version="1.1" xmlns="http://www.w3.org/2000/svg"
		 xmlns:xlink="http://www.w3.org/1999/xlink">
	<!-- Generator: Sketch 43.1 (39012) - http://www.bohemiancoding.com/sketch -->
	<title>photo-placeholder</title>
	<desc>Created with Sketch.</desc>
	<defs></defs>
	<g id="UI" stroke="none" stroke-width="1" fill="none" fill-rule="evenodd">
		<g id="photo-placeholder">
			<g id="Group-2">
				<rect id="Rectangle-3" x="0" y="0" width="56" height="56"></rect>
				<path
					d="M18.7083676,5.87380805 L15.4365316,12.3461469 L6.12495484,12.3461469 C3.03799714,12.3461469 0.5,14.8805172 0.5,17.9599231 L0.5,45.2194674 C0.5,48.2989676 3.03797467,50.8333333 6.12495484,50.8333333 L49.8750452,50.8333333 C52.9620253,50.8333333 55.5,48.2989676 55.5,45.2194674 L55.5,17.9599231 C55.5,14.8805172 52.9620029,12.3461469 49.8750452,12.3461469 L40.5634684,12.3461469 L40.4247421,12.0717188 L37.2927311,5.87596852 C37.078253,5.45674824 36.6034967,5.16709772 36.1290323,5.16666667 L19.8782952,5.16666667 C19.3965166,5.18217601 18.9398464,5.49686427 18.7083676,5.87380805 Z M35.3363037,7.7564068 L35.4748137,8.03164275 L38.5821801,14.2064187 C38.7909742,14.6328984 39.2672301,14.9317679 39.7419355,14.9358871 L49.8750452,14.9358871 C51.5774519,14.9358871 52.8870968,16.2446643 52.8870968,17.9599231 L52.8870968,45.2194674 C52.8870968,46.9347935 51.5774653,48.2435932 49.8750452,48.2435932 L6.12495484,48.2435932 C4.42253473,48.2435932 3.11290323,46.9347935 3.11290323,45.2194674 L3.11290323,17.9599231 C3.11290323,16.2446643 4.42254809,14.9358871 6.12495484,14.9358871 L16.2540344,14.9359033 C16.7326526,14.9320454 17.2089392,14.6330753 17.4202572,14.2015086 L20.6636963,7.7564068 L35.3363037,7.7564068 Z M28,20.4230623 C21.811993,20.4230623 16.7580645,25.4445756 16.7580645,31.5897626 C16.7580645,37.7348349 21.8120132,42.7563283 28,42.7563283 C34.188104,42.7563283 39.2419355,37.734898 39.2419355,31.5897626 C39.2419355,25.4445125 34.1881241,20.4230623 28,20.4230623 Z M28,23.0128024 C32.7863979,23.0128024 36.6290323,26.8308302 36.6290323,31.5897626 C36.6290323,36.3486121 32.7863909,40.1665881 28,40.1665881 C23.2137289,40.1665881 19.3709677,36.3485518 19.3709677,31.5897626 C19.3709677,26.8308906 23.213722,23.0128024 28,23.0128024 Z"
					id="Shape" fill="#263238" fill-rule="nonzero"></path>
			</g>
		</g>
	</g>
</svg>
