<?xml version="1.0" encoding="UTF-8"?>
<svg width="144px" height="144px" viewBox="0 0 144 144" version="1.1" xmlns="http://www.w3.org/2000/svg"
		 xmlns:xlink="http://www.w3.org/1999/xlink">
	<!-- Generator: Sketch 43.1 (39012) - http://www.bohemiancoding.com/sketch -->
	<title>pizza-placeholder</title>
	<desc>Created with Sketch.</desc>
	<defs></defs>
	<g id="UI" stroke="none" stroke-width="1" fill="none" fill-rule="evenodd">
		<g id="pizza-placeholder" fill="#263238">
			<g id="Group-8" transform="translate(4.000000, 21.000000)">
				<path
					d="M58.26,25.992 C52.402,25.992 47.635,30.759 47.635,36.617 C47.635,42.475 52.402,47.242 58.26,47.242 C64.118,47.242 68.885,42.475 68.885,36.617 C68.885,30.759 64.118,25.992 58.26,25.992 Z M58.26,44.242 C54.055,44.242 50.635,40.822 50.635,36.617 C50.635,32.412 54.055,28.992 58.26,28.992 C62.465,28.992 65.885,32.412 65.885,36.617 C65.885,40.822 62.465,44.242 58.26,44.242 Z M72.794,53.615 C70.023,53.615 67.769,55.869 67.769,58.64 C67.769,61.411 70.023,63.665 72.794,63.665 C75.565,63.665 77.819,61.411 77.819,58.64 C77.819,55.869 75.564,53.615 72.794,53.615 Z M72.794,61.665 C71.126,61.665 69.769,60.308 69.769,58.64 C69.769,56.972 71.126,55.615 72.794,55.615 C74.462,55.615 75.819,56.972 75.819,58.64 C75.819,60.308 74.462,61.665 72.794,61.665 Z M74.403,30.695 C74.403,34.455 77.462,37.513 81.221,37.513 C84.98,37.513 88.039,34.454 88.039,30.695 C88.039,26.936 84.98,23.877 81.221,23.877 C77.462,23.877 74.403,26.936 74.403,30.695 Z M85.039,30.695 C85.039,32.8 83.326,34.513 81.221,34.513 C79.116,34.513 77.403,32.8 77.403,30.695 C77.403,28.59 79.116,26.877 81.221,26.877 C83.326,26.877 85.039,28.59 85.039,30.695 Z M103.159,19.487 C92.898,11.318 80.527,7 67.385,7 C54.514,7 42.346,11.158 32.196,19.024 C31.957,19.209 31,20.118 31,20.118 L52.825,58.428 L52.825,79.67 C52.825,82.068 54.776,84.02 57.175,84.02 C59.579,84.02 61.535,82.068 61.535,79.67 L61.535,73.71 L69.638,87.924 L74.005,79.241 L74.005,87.72 C74.005,90.124 75.961,92.08 78.365,92.08 C80.763,92.08 82.715,90.124 82.715,87.72 L82.715,61.926 L84.675,58.03 L84.675,61.14 C84.675,63.544 86.631,65.5 89.035,65.5 C91.433,65.5 93.385,63.544 93.385,61.14 L93.385,40.716 L98.619,30.314 L104.15,20.275 L103.159,19.487 Z M90.545,39.686 C90.538,39.7 90.535,39.714 90.529,39.728 C90.506,39.777 90.488,39.829 90.47,39.881 C90.455,39.925 90.439,39.969 90.429,40.014 C90.418,40.059 90.413,40.105 90.406,40.152 C90.398,40.206 90.391,40.26 90.39,40.315 C90.39,40.33 90.385,40.345 90.385,40.36 L90.385,61.14 C90.385,61.89 89.78,62.5 89.035,62.5 C88.298,62.5 87.675,61.877 87.675,61.14 L87.675,51.71 C87.675,51.68 87.668,51.653 87.666,51.623 C87.663,51.569 87.659,51.516 87.65,51.463 C87.642,51.415 87.631,51.369 87.618,51.323 C87.606,51.276 87.592,51.231 87.575,51.186 C87.558,51.139 87.537,51.095 87.515,51.051 C87.494,51.008 87.472,50.967 87.447,50.926 C87.422,50.885 87.394,50.846 87.365,50.808 C87.336,50.769 87.305,50.731 87.272,50.696 C87.239,50.66 87.203,50.627 87.167,50.595 C87.132,50.564 87.097,50.533 87.058,50.505 C87.014,50.473 86.967,50.445 86.92,50.417 C86.895,50.403 86.874,50.384 86.848,50.371 C86.834,50.364 86.819,50.361 86.806,50.355 C86.757,50.332 86.706,50.314 86.654,50.297 C86.609,50.282 86.565,50.266 86.52,50.255 C86.475,50.244 86.429,50.239 86.383,50.232 C86.329,50.224 86.276,50.217 86.22,50.216 C86.204,50.216 86.19,50.211 86.174,50.211 C86.144,50.211 86.116,50.218 86.087,50.22 C86.033,50.223 85.981,50.227 85.928,50.236 C85.879,50.244 85.833,50.256 85.786,50.268 C85.74,50.28 85.695,50.293 85.651,50.31 C85.604,50.328 85.559,50.348 85.514,50.37 C85.472,50.391 85.431,50.412 85.391,50.437 C85.349,50.463 85.31,50.491 85.271,50.52 C85.232,50.549 85.195,50.579 85.159,50.612 C85.123,50.645 85.09,50.68 85.058,50.717 C85.026,50.752 84.996,50.788 84.967,50.827 C84.935,50.871 84.907,50.917 84.88,50.964 C84.866,50.989 84.847,51.01 84.834,51.036 L79.874,60.896 C79.867,60.91 79.864,60.924 79.858,60.938 C79.835,60.988 79.817,61.039 79.799,61.092 C79.784,61.136 79.769,61.179 79.758,61.224 C79.747,61.269 79.741,61.316 79.735,61.363 C79.728,61.416 79.72,61.47 79.719,61.524 C79.719,61.54 79.714,61.554 79.714,61.57 L79.714,87.72 C79.714,88.457 79.096,89.08 78.364,89.08 C77.627,89.08 77.004,88.457 77.004,87.72 L77.004,72.92 C77.004,72.89 76.997,72.863 76.995,72.833 C76.992,72.779 76.988,72.726 76.979,72.673 C76.971,72.625 76.959,72.579 76.947,72.533 C76.935,72.487 76.921,72.441 76.905,72.396 C76.887,72.349 76.867,72.304 76.845,72.259 C76.824,72.217 76.803,72.176 76.778,72.136 C76.752,72.094 76.724,72.055 76.694,72.016 C76.665,71.978 76.635,71.941 76.603,71.906 C76.569,71.869 76.533,71.835 76.495,71.802 C76.461,71.772 76.427,71.742 76.39,71.715 C76.345,71.682 76.297,71.653 76.247,71.624 C76.223,71.61 76.203,71.592 76.178,71.58 C76.165,71.573 76.151,71.571 76.138,71.565 C76.086,71.541 76.032,71.522 75.977,71.504 C75.936,71.49 75.895,71.476 75.853,71.466 C75.804,71.454 75.754,71.448 75.704,71.441 C75.654,71.434 75.604,71.428 75.553,71.426 C75.536,71.425 75.521,71.421 75.504,71.421 C75.472,71.421 75.443,71.428 75.411,71.43 C75.36,71.433 75.31,71.437 75.26,71.445 C75.21,71.453 75.161,71.465 75.113,71.479 C75.069,71.491 75.026,71.504 74.983,71.519 C74.934,71.537 74.888,71.558 74.842,71.581 C74.801,71.601 74.761,71.622 74.722,71.646 C74.679,71.672 74.639,71.701 74.6,71.731 C74.562,71.76 74.526,71.789 74.491,71.821 C74.454,71.855 74.42,71.891 74.387,71.929 C74.357,71.963 74.327,71.998 74.3,72.035 C74.267,72.08 74.238,72.128 74.21,72.177 C74.196,72.201 74.178,72.221 74.166,72.247 L69.473,81.577 L61.339,67.308 C61.33,67.292 61.318,67.28 61.309,67.265 C61.28,67.218 61.248,67.175 61.214,67.132 C61.186,67.096 61.158,67.06 61.127,67.027 C61.093,66.991 61.057,66.959 61.02,66.927 C60.983,66.895 60.947,66.863 60.908,66.834 C60.87,66.807 60.83,66.784 60.789,66.76 C60.746,66.735 60.703,66.71 60.658,66.689 C60.617,66.67 60.575,66.656 60.532,66.641 C60.482,66.623 60.432,66.606 60.381,66.594 C60.341,66.585 60.301,66.579 60.26,66.573 C60.201,66.564 60.142,66.557 60.081,66.555 C60.066,66.555 60.051,66.55 60.036,66.55 C60.012,66.55 59.991,66.556 59.967,66.557 C59.907,66.56 59.847,66.565 59.787,66.575 C59.744,66.582 59.703,66.592 59.661,66.603 C59.611,66.616 59.561,66.631 59.511,66.65 C59.461,66.669 59.414,66.691 59.367,66.714 C59.342,66.726 59.316,66.733 59.292,66.747 C59.276,66.756 59.264,66.768 59.249,66.777 C59.202,66.806 59.159,66.838 59.116,66.872 C59.08,66.9 59.044,66.928 59.011,66.959 C58.975,66.993 58.943,67.029 58.91,67.066 C58.878,67.102 58.846,67.138 58.819,67.177 C58.791,67.216 58.767,67.259 58.742,67.301 C58.718,67.342 58.694,67.382 58.675,67.425 C58.654,67.47 58.639,67.516 58.623,67.563 C58.607,67.608 58.592,67.653 58.581,67.7 C58.57,67.745 58.564,67.792 58.557,67.838 C58.55,67.89 58.543,67.943 58.541,67.997 C58.54,68.015 58.536,68.032 58.536,68.05 L58.536,79.67 C58.536,80.415 57.926,81.02 57.176,81.02 C56.432,81.02 55.826,80.415 55.826,79.67 L55.826,62.843 L55.826,58.901 L55.826,57.632 L39.346,28.709 C43.518,25.43 48.151,22.928 53.152,21.283 L53.157,21.288 L53.441,21.195 C62.397,18.271 72.462,18.28 81.49,21.235 C86.741,22.95 91.573,25.591 95.886,29.075 L90.545,39.686 Z M97.371,26.18 C93,22.678 87.11,20.018 81.801,18.285 C72.664,15.294 62.489,15.255 53.406,18.156 L53.257,18.022 L52.997,18.282 C47.872,19.948 42.122,22.49 37.846,25.831 L34.839,20.799 C44.294,13.736 55.522,10 67.385,10 C79.419,10 90.769,13.819 100.294,21.058 L97.371,26.18 Z"
					id="Combined-Shape" fill-rule="nonzero"></path>
				<polygon id="Path-2" fill-rule="nonzero"
								 points="17.759905 92.2899217 17.759905 2.99030317 14.759905 2.99030317 14.759905 95.2899217 130.656698 95.2899217 130.656698 92.2899217"></polygon>
				<path
					d="M132.937,107.883 C132.871666,108.027667 132.792334,108.133833 132.699,108.2015 C132.605666,108.269167 132.456334,108.303 132.251,108.303 L130.627,108.303 L132.027,105.363 L129.129,98.741 L131.047,98.741 C131.215001,98.741 131.345666,98.778333 131.439,98.853 C131.532334,98.927667 131.597666,99.0163328 131.635,99.119 L132.825,102.248 C132.937001,102.537335 133.028,102.826665 133.098,103.116 C133.144667,102.966666 133.196,102.819667 133.252,102.675 C133.308,102.530333 133.361666,102.383334 133.413,102.234 L134.491,99.119 C134.528334,99.0116661 134.601833,98.9218337 134.7115,98.8495 C134.821167,98.7771663 134.938999,98.741 135.065,98.741 L136.815,98.741 L132.937,107.883 Z"
					id="y"></path>
				<path
					d="M2.565,4.248 L0.227,0.741 L2.313,0.741 C2.46700077,0.741 2.5801663,0.760833135 2.6525,0.8005 C2.72483369,0.840166865 2.78899972,0.9066662 2.845,1 L4.14,3.149 C4.16800014,3.06499958 4.20299979,2.98333373 4.245,2.904 C4.28700021,2.82466627 4.33366641,2.74066711 4.385,2.652 L5.309,1.035 C5.36966697,0.92766613 5.43733296,0.851833555 5.512,0.8075 C5.58666704,0.763166445 5.67766613,0.741 5.785,0.741 L7.773,0.741 L5.435,4.15 L7.871,8 L5.785,8 C5.63099923,8 5.5073338,7.96266704 5.414,7.888 C5.3206662,7.81333296 5.24366697,7.72466718 5.183,7.622 L3.888,5.396 C3.86466655,5.47533373 3.83666683,5.54999965 3.804,5.62 C3.77133317,5.69000035 3.73633352,5.75533303 3.699,5.816 L2.635,7.622 C2.57899972,7.72000049 2.5043338,7.80749962 2.411,7.8845 C2.3176662,7.96150038 2.2010007,8 2.061,8 L0.129,8 L2.565,4.248 Z"
					id="x"></path>
			</g>
		</g>
	</g>
</svg>
