<?xml version="1.0" encoding="UTF-8"?>
<svg width="64px" height="64px" viewBox="0 0 64 64" version="1.1" xmlns="http://www.w3.org/2000/svg"
		 xmlns:xlink="http://www.w3.org/1999/xlink">
	<!-- Generator: Sketch 46.2 (44496) - http://www.bohemiancoding.com/sketch -->
	<title>power-up</title>
	<desc>Created with Sketch.</desc>
	<defs></defs>
	<g id="UI-Kit" stroke="none" stroke-width="1" fill="none" fill-rule="evenodd">
		<g id="power-up" fill-rule="nonzero" fill="#263238">
			<path
				d="M27.9262295,44.8333565 C27.7660918,45.4056274 27.1752557,45.7394985 26.6068955,45.5778262 C26.0382896,45.4162867 25.7076617,44.8224858 25.8676295,44.250822 L27.1993458,39.4809061 L11.3351648,49.4749235 C10.8337335,49.7897113 10.1741068,49.6361621 9.86234472,49.1319741 C9.54995756,48.6286435 9.70171914,47.9657911 10.202016,47.6509985 L25.8975079,37.7637323 L21.32591,36.930263 C20.7457482,36.8246956 20.3599466,36.2641294 20.4645649,35.6804128 C20.5698901,35.0960049 21.1256787,34.7077241 21.7074123,34.8133181 L29.1312817,36.1666908 C29.4278381,36.221281 29.6877481,36.3986746 29.8470946,36.6552798 C30.006585,36.9116892 30.0508339,37.2237858 29.9701433,37.5166192 L27.9841574,44.6238929 L27.9262295,44.8333565 Z"
				id="Shape"></path>
			<path
				d="M55.7985889,47.651 C56.2989038,47.966521 56.4506577,48.62934 56.1384571,49.1316523 C55.8267184,49.6365191 55.166527,49.7898748 54.6646113,49.4747827 L39.0754582,39.6533718 L40.3938833,44.3746792 C40.553935,44.9466425 40.2229109,45.5409813 39.6540671,45.7016685 C39.085708,45.8633404 38.4954363,45.5295391 38.335256,44.9571158 L36.2522438,37.4955157 C36.1703809,37.2035906 36.2147226,36.8910309 36.3745405,36.6348116 C36.5346777,36.3766451 36.793625,36.1998409 37.0907285,36.1459991 L44.6608426,34.7653378 C45.2421393,34.6596937 45.7984377,35.0483306 45.9030337,35.6326401 C46.0075904,36.2167302 45.622472,36.7767216 45.0423308,36.8822852 L40.1277281,37.7788743 L55.7985889,47.651 Z"
				id="Shape"></path>
			<path
				d="M38.9525783,23.6308187 C39.3895259,24.0302147 39.4216636,24.7109003 39.0245647,25.1497374 L33.6171246,31.1368062 C33.4141064,31.3614643 33.1273972,31.4892857 32.825465,31.4892852 C32.5243161,31.4885662 32.2372833,31.360494 32.034452,31.1360425 L26.633094,25.143572 C26.2368505,24.704177 26.2693774,24.0250018 26.705778,23.624738 C27.1428518,23.2252932 27.818938,23.257944 28.2163586,23.6978545 L31.7879583,27.6607385 L31.7973846,8.81446429 C31.7973846,8.22098342 32.2758193,7.73935714 32.8664313,7.73935726 C33.4571602,7.74007526 33.9350769,8.22206721 33.9350769,8.81576138 L33.9256513,27.5965376 L37.4419657,23.7027358 C37.8400993,23.2624921 38.516753,23.2304283 38.9525783,23.6308187 Z"
				id="Shape"></path>
			<path
				d="M35.975469,14.1686768 C35.3915541,14.0803163 34.9896921,13.5328153 35.0771319,12.9454544 C35.1646246,12.3577374 35.7088133,11.9525992 36.2930088,12.0410023 C47.5068695,13.7388896 55.9015574,23.4801604 55.9039615,35.0199643 C55.9039615,38.0670933 55.3176598,41.0372575 54.2059359,43.744 C53.970171,44.3564026 53.3463601,44.6198526 52.7988999,44.3950385 C52.2529758,44.17027 51.9915083,43.5422374 52.2147207,42.9928589 C53.235418,40.4771512 53.7668718,37.7867664 53.7668718,35.0199363 C53.7686478,24.5521369 46.1458185,15.7083471 35.975469,14.1686768 Z"
				id="Shape"></path>
			<path
				d="M50.5347918,48.2316323 C50.9909121,48.6080485 51.0572977,49.2844796 50.6837207,49.7440653 C46.3333443,55.0938314 39.8402205,58.2600357 32.8397179,58.2600357 C25.9024973,58.2600357 19.4625203,55.1513436 15.1106456,49.884374 C14.7327995,49.4290906 14.7937775,48.7505744 15.2464859,48.3704507 C15.6999529,47.9889717 16.3754379,48.0508056 16.753069,48.5081244 C20.7100554,53.2923418 26.5420091,56.1080208 32.8391002,56.1086071 C39.1943707,56.1080207 45.0744169,53.2404334 49.0303995,48.3810087 C49.4045319,47.9214577 50.077908,47.854586 50.5347918,48.2316323 Z"
				id="Shape"></path>
			<path
				d="M12.9498922,44.5554038 C12.4053752,44.7852068 11.7791713,44.5257124 11.5511788,43.977244 C10.3832252,41.1628443 9.7730641,38.131235 9.7730641,35.0199385 C9.77486736,23.4604466 18.1993853,13.707931 29.4629487,12.0318571 C30.0227334,11.9466908 30.5662646,12.3537153 30.6523698,12.9409554 C30.738468,13.5281474 30.3353444,14.0752019 29.7511788,14.1620569 C19.5582616,15.6801904 11.9095827,24.5338994 11.911359,35.0199643 C11.911359,37.8464881 12.4642458,40.5932674 13.5246065,43.1486094 C13.750798,43.6968841 13.4943555,44.3259238 12.9498922,44.5554038 Z"
				id="Shape"></path>
		</g>
	</g>
</svg>
