<?xml version="1.0" encoding="UTF-8"?>
<svg width="64px" height="64px" viewBox="0 0 64 64" version="1.1" xmlns="http://www.w3.org/2000/svg"
		 xmlns:xlink="http://www.w3.org/1999/xlink">
	<!-- Generator: Sketch 46.2 (44496) - http://www.bohemiancoding.com/sketch -->
	<title>promote</title>
	<desc>Created with Sketch.</desc>
	<defs></defs>
	<g id="UI-Kit" stroke="none" stroke-width="1" fill="none" fill-rule="evenodd">
		<g id="promote" fill-rule="nonzero" fill="white">
			<path
				d="M43.7469618,24.5318333 C43.4255237,24.5318333 43.1202439,24.3721807 42.9386232,24.0990064 C42.645396,23.6538207 42.7673494,23.0547399 43.2122878,22.7601985 C43.9380635,22.2813229 44.4331645,21.5484012 44.6059976,20.6982446 C44.7787984,19.8482469 44.6099433,18.9805304 44.1303404,18.2559757 C43.6468726,17.5308804 42.9135608,17.0361773 42.0642616,16.8640692 C41.2207888,16.6885398 40.3487937,16.8592348 39.6170854,17.3399025 C39.1665908,17.6300792 38.5696487,17.5096928 38.2749947,17.0660064 C37.9817675,16.6208207 38.103721,16.0217399 38.5486188,15.7272253 C39.7026029,14.965008 41.0874047,14.697056 42.4496059,14.9695038 C43.8086587,15.2457412 44.9814019,16.0350179 45.7444093,17.1876342 C46.5088869,18.3424714 46.7795285,19.728305 46.5033657,21.0826465 C46.2267766,22.439078 45.436554,23.6080338 44.2786562,24.37283 C44.1168117,24.4773853 43.9333749,24.5318333 43.7469618,24.5318333 Z"
				id="Shape"></path>
			<path
				d="M38.508403,47.4196131 C40.0045884,47.9764306 40.9816798,49.4631635 40.9128653,51.0898738 C40.9104488,51.1550147 40.8900265,51.3107916 40.8751255,51.3751524 C40.7678901,51.7967161 40.5937828,52.1965221 40.3647323,52.5489375 C39.4821308,54.3705004 38.0910662,56.0598283 36.4082301,57.3487313 C36.2858909,57.4440033 36.1653835,57.524213 36.0474597,57.5869404 C35.5923301,57.8657277 35.0667329,58.009 34.5260417,58.009 C33.7529611,58.009 33.0019904,57.7177185 32.4425736,57.1909847 L18.9927171,46.8230533 C15.180287,47.5163099 11.2681344,45.8597539 9.12589907,42.6351571 C6.16134548,38.1713604 7.38689354,32.1313816 11.8580664,29.1692346 L15.8814949,26.5107406 C19.3053022,24.2479162 22.8842538,20.0967925 26.3990704,14.7942294 C27.6352753,12.9292518 28.7770765,11.0491387 29.7949139,9.25054818 C30.4180402,8.14944013 31.0005467,7.05741218 31.0987956,6.84820566 C31.2263697,6.59119121 31.4038913,6.38780395 31.6279456,6.23945829 C32.3166617,5.78336403 33.2496554,5.97700679 33.7044418,6.66624517 L40.3061685,16.6244936 C40.5993957,17.0696793 40.4774422,17.6687601 40.0317883,17.9637692 C39.5825919,18.2546737 38.9858747,18.1350754 38.689655,17.6902542 L32.4961525,8.34762869 C31.1143087,10.974165 29.2005492,14.2079412 26.9941953,17.3790297 C23.6540285,22.179694 20.2576631,25.9350692 16.9466654,28.1227361 L15.2614849,29.2375109 L23.8706157,42.2246704 L25.5411698,41.1203197 C26.3048854,40.6206356 27.8462927,39.822408 29.2055554,39.1682144 C35.2724221,36.4351218 42.9016194,35.047136 49.8885473,34.5321736 L42.5132759,23.4056731 C42.2200488,22.9604873 42.3420022,22.3614065 42.7863949,22.0672278 C43.2290557,21.7709739 43.8333756,21.8923941 44.1297871,22.3399089 L51.9138029,34.0806668 C52.1339926,34.4092659 52.2119744,34.8064582 52.1349444,35.2003085 C52.0564831,35.5919872 51.8281258,35.9300233 51.4963526,36.1523287 C51.2894371,36.3012617 51.0158055,36.3956153 50.7364724,36.4114863 C50.1302348,36.4479482 49.2772544,36.5154687 48.2447644,36.6198367 C46.704671,36.7755153 45.0705029,36.9834853 43.3891448,37.2510903 C38.8268228,37.9772296 34.6175539,39.0242157 31.1185236,40.4487652 C33.7473146,44.0479209 36.8214881,46.6804074 38.508403,47.4196131 Z M33.6959516,55.7213359 C34.1066922,56.1059117 34.6451021,56.175687 35.0690447,55.9268892 C36.6578943,54.7260396 37.8613577,53.2793449 38.6817678,51.6028809 C38.8485962,51.3367889 38.9391282,51.1332993 38.9898847,50.9338061 C39.0107361,50.2051723 38.5181322,49.4917691 37.778123,49.2148097 C35.6809524,48.2990031 32.2379745,45.362715 29.318313,41.2687776 C28.1268036,41.8627788 27.1000053,42.4137331 26.6059194,42.7369253 L22.5883207,45.3922487 C22.1710486,45.6790024 21.7110253,45.9177658 21.202479,46.124437 L33.6959516,55.7213359 Z M12.9275905,30.7812213 C11.192233,31.9298583 10.0094648,33.6835176 9.59583398,35.7205461 C9.18247065,37.7583956 9.58877102,39.8331512 10.7400055,41.5668717 C12.4698227,44.1734569 15.6472155,45.4998706 18.706535,44.9102606 C18.8466788,44.8597341 19.0160329,44.807244 19.3001695,44.7242811 C19.9834509,44.5219771 20.3039036,44.4145751 20.7141296,44.2291178 C21.0028364,44.0985976 21.2650155,43.9535541 21.5044029,43.787689 L22.2584052,43.2903757 L13.6493858,30.3033842 L12.9275905,30.7812213 Z"
				id="Shape"></path>
			<path
				d="M46.8046875,29.1425 C46.4832494,29.1425 46.1779695,28.9828474 45.9965125,28.7099207 L36.0223905,13.6643397 C35.7291633,13.219154 35.8511168,12.6200732 36.2959291,12.3256151 C36.74229,12.030132 37.3397946,12.1506319 37.6389042,12.5985793 L47.6130261,27.6441603 C47.9062533,28.089346 47.7842999,28.6884268 47.3388536,28.983301 C47.1765726,29.0889671 46.9935296,29.1425 46.8046875,29.1425 Z"
				id="Shape"></path>
			<path
				d="M48.0264757,16.6581667 C47.7050376,16.6581667 47.3997577,16.498514 47.2181371,16.2253397 C46.9249099,15.780154 47.0468633,15.1810732 47.4917149,14.8865892 L51.360402,12.3282032 C51.8002557,12.0322015 52.4069759,12.1547042 52.704172,12.6009936 C52.9973992,13.0461793 52.8754457,13.6452601 52.4305942,13.9397441 L48.5603402,16.4991633 C48.3988753,16.6034735 48.2133674,16.6581667 48.0264757,16.6581667 Z"
				id="Shape"></path>
			<path
				d="M49.2654524,19.5767865 C49.2630312,19.042561 49.6940495,18.6077498 50.2285524,18.6053352 L55.5199653,18.5728333 C56.0563685,18.5728333 56.4875149,19.0003109 56.4923601,19.5325468 C56.4947813,20.0667723 56.063763,20.5015835 55.5292601,20.5039981 L50.2378472,20.5365 C49.701444,20.5365 49.2702976,20.1090224 49.2654524,19.5767865 Z"
				id="Shape"></path>
			<path
				d="M45.4353299,13.2998333 C45.3177418,13.2998333 45.2019091,13.2791385 45.091809,13.2370393 C44.5920305,13.0481055 44.3394325,12.4890883 44.5301838,11.9900725 L46.4615631,6.89202294 C46.6507121,6.39085387 47.2059933,6.140819 47.7102743,6.33112741 C48.2100529,6.52006118 48.4626509,7.07907837 48.2718995,7.57809418 L46.3405762,12.675995 C46.1984592,13.0543674 45.8345046,13.2998333 45.4353299,13.2998333 Z"
				id="Shape"></path>
		</g>
	</g>
</svg>
