<?xml version="1.0" encoding="UTF-8"?>
<svg width="24px" height="24px" viewBox="0 0 24 24" version="1.1" xmlns="http://www.w3.org/2000/svg"
		 xmlns:xlink="http://www.w3.org/1999/xlink">
	<!-- Generator: Sketch 43.1 (39012) - http://www.bohemiancoding.com/sketch -->
	<title>rating-on</title>
	<desc>Created with Sketch.</desc>
	<defs></defs>
	<g id="UI" stroke="none" stroke-width="1" fill="none" fill-rule="evenodd">
		<g id="rating-on">
			<g id="Group-3-Copy-5" transform="translate(3.000000, 3.000000)">
				<circle id="Oval-2" fill="#33CF79" cx="9" cy="9" r="8"></circle>
				<path
					d="M9,18 C4.02943725,18 0,13.9705627 0,9 C0,4.02943725 4.02943725,0 9,0 C13.9705627,0 18,4.02943725 18,9 C18,13.9705627 13.9705627,18 9,18 Z M9,16.725 C13.2663997,16.725 16.725,13.2663997 16.725,9 C16.725,4.73360031 13.2663997,1.275 9,1.275 C4.73360031,1.275 1.275,4.73360031 1.275,9 C1.275,13.2663997 4.73360031,16.725 9,16.725 Z"
					id="Oval-2-Copy-7" fill="#FFFFFF" fill-rule="nonzero"></path>
				<path
					d="M11.25,11.403532 C11.25,11.887743 11.0364511,12.3093913 10.6676711,12.543762 L9.96972645,12.9808798 C9.79511278,13.0902619 9.67898704,13.2932828 9.69819964,13.6056859 L9.87247327,18 L8.12718669,18 L8.28241773,13.6056859 C8.30163033,13.2932828 8.18533457,13.1057315 8.01089092,12.9964863 L7.31243624,12.5436251 C6.94433634,12.3092544 6.75,11.9034864 6.75,11.4033951 C6.75,9.21712147 6.96337892,7.85853792 7.06046208,6.49995437 C7.09922734,6.15647531 7.17675785,6 7.37058412,6 C7.56475044,6 7.64245098,6.15647531 7.68087619,6.49995437 L7.89425511,9.2483344 C7.93319039,9.40439901 8.04931613,9.51378114 8.16595194,9.51378114 C8.28241773,9.51378114 8.39888352,9.40439901 8.43747875,9.2483344 L8.70917558,6.49995437 C8.72821816,6.14059505 8.82547134,6 8.99991499,6 C9.17452866,6 9.25222919,6.14059505 9.29082442,6.49995437 L9.56269128,9.2483344 C9.56269128,9.40439901 9.67915706,9.51378114 9.81466543,9.51378114 C9.96972645,9.51378114 10.0861922,9.40439901 10.0861922,9.2483344 L10.3187838,6.49995437 C10.3383364,6.15647531 10.4355896,6 10.6292459,6 C10.8038595,6 10.9007727,6.15647531 10.9201553,6.49995437 C11.0364511,7.85867482 11.25,9.21725837 11.25,11.403532 Z"
					id="Shape-Copy-2" fill="#FFFFFF" fill-rule="nonzero"></path>
			</g>
		</g>
	</g>
</svg>
