<?xml version="1.0" encoding="UTF-8"?>
<svg width="112px" height="112px" viewBox="0 0 112 112" version="1.1" xmlns="http://www.w3.org/2000/svg"
		 xmlns:xlink="http://www.w3.org/1999/xlink">
	<!-- Generator: Sketch 43.2 (39069) - http://www.bohemiancoding.com/sketch -->
	<title>restaurant-menu</title>
	<desc>Created with Sketch.</desc>
	<defs></defs>
	<g id="UI-Kit" stroke="none" stroke-width="1" fill="none" fill-rule="evenodd">
		<g id="restaurant-menu" fill-rule="nonzero" fill="#263238">
			<path
				d="M92.2897954,7 C93.3054468,7 94.1219895,7.77027876 93.9849336,8.69315895 L93.9849336,104.306841 C93.9849336,105.208447 93.2364816,106 92.2897954,106 L20.6951381,106 C19.7924786,106 19,105.252422 19,104.306841 L19,8.69315895 C19,7.7915533 19.748452,7 20.6951381,7 L92.2897954,7 Z M74.1418461,24.3920614 L76.082726,22.3842879 C76.7759998,21.6918236 77.8893889,21.6918236 78.5826627,22.3842879 L80.6232566,24.4224993 L80.6232566,10.3863179 L74.1418461,10.3863179 L74.1418461,24.3920614 Z M22.3902763,102.514085 L28.6722587,102.514085 L28.6722587,10.3863179 L22.3902763,10.3863179 L22.3902763,102.514085 Z M90.6943713,10.3863179 L84.2129608,10.3863179 L84.2129608,28.6126761 C84.2129608,29.3972063 83.8055964,29.9890446 83.139646,30.253261 C83.0010223,30.322492 82.8793105,30.3645738 82.7493581,30.3862072 C82.6489137,30.4029284 82.5837294,30.4054326 82.4181087,30.4054326 C81.9956047,30.4054326 81.4708124,30.1635036 81.1681404,29.861185 L77.4324083,26.1298146 L73.6966763,29.861185 C73.160812,30.3964236 72.4519458,30.5454843 71.7629737,30.2702173 C71.087006,30.0001459 70.6518558,29.3284263 70.6518558,28.6126761 L70.6518558,10.3863179 L32.261963,10.3863179 L32.261963,102.613682 L90.6943713,102.613682 L90.6943713,10.3863179 Z"
				id="Shape"></path>
			<path
				d="M53.5681818,55.187013 C54.1242675,55.187013 54.5530303,54.7768399 54.5530303,54.2 L54.5530303,40.6779221 C54.5530303,39.78443 55.2922562,39 56.2272727,39 C57.1508939,39 57.8584471,39.7485032 58,40.7766234 L58,54.2987013 C58,56.335717 56.5947496,58.1208902 54.6889085,58.6372861 L55.9318182,72.361039 L55.9318182,72.5584416 C55.9318182,75.0024262 53.9386251,77 51.5,77 C49.0613749,77 47.0681818,75.0024262 47.0681818,72.5584416 C47.0681818,72.361039 47.0681818,72.361039 47.0702041,72.316359 L48.3110306,58.6372696 C46.4052205,58.1208521 45,56.3356953 45,54.2987013 L45,40.7766234 C45,39.9118595 45.8113749,39.0987013 46.6742424,39.0987013 C47.565775,39.0987013 48.3484848,39.8395519 48.3484848,40.7766234 L48.3484848,54.2987013 C48.3484848,54.8560092 48.7577584,55.2857143 49.3333333,55.2857143 L49.7272727,55.2857143 L49.7272727,40.7766234 C49.7272727,39.9118595 50.5386477,39.0987013 51.4015152,39.0987013 C52.2930478,39.0987013 53.0757576,39.8395519 53.0757576,40.7766234 L53.0757576,55.187013 L53.5681818,55.187013 Z M50.4166667,72.361039 C50.4166667,72.8780932 50.8855948,73.3480519 51.4015152,73.3480519 C51.9576009,73.3480519 52.3863636,72.9378789 52.3883581,72.4054112 L51.4012851,61.4476494 L50.4166667,72.361039 Z"
				id="Shape"></path>
			<path
				d="M73.6073182,72.4254796 C73.6073182,74.9873526 71.6717642,77 69.3036591,77 C66.9355541,77 65,74.9873526 65,72.5249257 L65,40.702175 C65,40.0974213 65.3067227,39.5392772 65.838155,39.2629775 C66.4059044,38.9677961 66.9107992,38.9021705 67.4134985,39.1635314 C67.3800751,39.1461541 67.6240821,39.2647841 67.7805819,39.3455552 C68.0497653,39.4844832 68.3382149,39.6449637 68.6461099,39.8312459 C69.5147651,40.3567982 70.3752389,40.987702 71.1809101,41.7329934 C72.8425899,43.2701412 74.060608,45.0963344 74.6412513,47.2296564 C75.5413354,50.4533901 74.7450138,53.9387766 72.2827954,57.5478259 L73.6073182,72.4254796 Z M71.5224345,48.1009645 C71.0602695,46.4532852 69.9142516,44.9530468 68.4429273,43.7613953 L68.4429273,72.5249257 C68.4429273,73.086439 68.8403655,73.5193866 69.399296,73.5193866 C69.900297,73.5193866 70.3556647,73.0458816 70.3576034,72.5696547 L69.0230733,57.206004 C68.9069464,56.7713107 69.026669,56.3205528 69.3167602,55.9973265 C71.3319903,53.033951 72.0521805,50.3986266 71.5224345,48.1009645 Z"
				id="Shape"></path>
		</g>
	</g>
</svg>
