<?xml version="1.0" encoding="UTF-8"?>
<svg width="24px" height="24px" viewBox="0 0 24 24" version="1.1" xmlns="http://www.w3.org/2000/svg"
		 xmlns:xlink="http://www.w3.org/1999/xlink">
	<!-- Generator: Sketch 43.1 (39012) - http://www.bohemiancoding.com/sketch -->
	<title>settings</title>
	<desc>Created with Sketch.</desc>
	<defs></defs>
	<g id="UI" stroke="none" stroke-width="1" fill="none" fill-rule="evenodd">
		<g id="settings" fill-rule="nonzero" fill="#FFFFFF">
			<path
				d="M12.4440754,23.9344395 L12.3363391,23.95 L11.6198817,23.95 L11.2670517,23.8417183 C10.3948035,23.6037117 9.67857403,22.9838975 9.31836941,22.1560727 C9.187537,21.864574 9.02459529,21.5892246 8.83238989,21.3347005 C8.56316205,20.9771946 8.31979759,20.8348378 8.07243973,20.8348378 C7.62759169,20.7882987 7.17312682,20.8591187 6.75869182,21.0406357 C5.67507289,21.525535 4.40546959,21.2976099 3.55850656,20.46635 C2.71154509,19.6350915 2.45998706,18.370062 2.92449578,17.2780533 C3.08223103,16.9268319 3.16545812,16.5456824 3.1685002,16.1596891 C3.187907,15.9478186 3.13644158,15.7313263 3.02172613,15.5472567 C2.72866213,15.1530783 2.33182417,14.8539868 1.87605708,14.682128 C1.42129283,14.501101 1.02062261,14.2044826 0.714168124,13.8216753 C0.118298107,13.1169388 -0.0932433434,12.1659601 0.147361397,11.2764093 C0.384549234,10.3892459 1.02530014,9.66550907 1.87709008,9.32256037 C2.18644475,9.20502565 2.47133654,9.02895508 2.71553462,8.80417225 C2.92646422,8.65380553 3.08176609,8.42930145 3.15001614,8.17306104 C3.21857906,7.68817088 3.14809373,7.19990814 2.94800879,6.7595263 C2.6590426,6.09581517 2.63290518,5.34632167 2.8752043,4.66335248 C3.12000717,3.90566276 3.67959213,3.29197373 4.41027425,2.97901716 C5.162767,2.64905896 6.01857383,2.64905896 6.77067332,2.97884673 C7.1083712,3.1317976 7.47719519,3.20555647 7.84834951,3.19422969 C8.04994237,3.20490475 8.25374638,3.14997069 8.42620632,3.0373151 C8.81933907,2.74517415 9.11778706,2.34812568 9.28815664,1.89216921 C9.47117262,1.43075686 9.77201182,1.02425006 10.1605928,0.713743928 C10.8684267,0.114493802 11.8253898,-0.0955974512 12.7178065,0.151674376 C13.6022393,0.397737551 14.3224476,1.04029312 14.6673559,1.89105389 C14.7862972,2.2009181 14.9630714,2.48638971 15.1880836,2.73165942 C15.3509045,2.95968841 15.6016059,3.11839311 15.8832544,3.16945136 C16.340996,3.21657307 16.7991983,3.14316533 17.2158492,2.95711064 C17.8874916,2.66036955 18.6479417,2.63417837 19.3385977,2.88407367 C20.0908845,3.13130536 20.6990375,3.68959307 21.0089293,4.41664278 C21.338657,5.16921062 21.338657,6.02483579 21.0091283,6.77694309 C20.8569297,7.11663704 20.7816737,7.48619798 20.7889201,7.8587681 C20.7733722,8.06252498 20.8227812,8.27073169 20.9304616,8.44994093 C21.2363525,8.8611638 21.6525688,9.17010933 22.1300278,9.34240967 C22.6901113,9.55958725 23.1586097,9.96480996 23.4547641,10.4887673 C23.5778796,10.7204171 23.6827631,10.9627421 23.7677855,11.2122809 C23.797724,11.2952052 23.8308166,11.3830442 23.8669207,11.4758757 L23.9101607,11.5998816 C23.9632923,11.8615923 23.9632923,12.1314988 23.9101232,12.3933927 L23.8934776,12.4694541 L23.8635689,12.5606831 C23.8611203,12.5775448 23.8606846,12.5788146 23.8386117,12.63841 C23.6182341,13.5965374 22.932097,14.3792382 22.0119,14.7228714 C21.684729,14.854649 21.3901255,15.0532609 21.1461476,15.3061924 C20.9633907,15.4528768 20.8402514,15.6692587 20.8062147,15.9074244 C20.7596376,16.3600915 20.8304266,16.8151276 21.0114916,17.2304636 C21.2237807,17.7152093 21.2980704,18.2490724 21.2262039,18.773272 C21.1298542,19.6750278 20.6022837,20.4724744 19.8113073,20.9131584 C19.0130658,21.3565902 18.0543867,21.4053918 17.2151786,21.0452868 C16.876831,20.8952107 16.5096414,20.8192754 16.1389093,20.8228402 C15.9212698,20.8044309 15.6994156,20.863468 15.5157704,20.9900702 C15.1264584,21.2976996 14.8312047,21.7037465 14.6596197,22.1658164 C14.4985548,22.5635877 14.2449649,22.9189081 13.9200306,23.2014801 C13.4939643,23.559607 12.9876999,23.8110964 12.4440754,23.9344395 Z M12.1248474,22.3816598 C12.3956294,22.3201857 12.6488903,22.1979592 12.8641579,22.025322 C13.0048214,21.904293 13.1152519,21.7520689 13.1860578,21.5822544 C13.4609094,20.8596038 13.9267577,20.225094 14.5350809,19.7455032 C14.9926711,19.4058337 15.5527372,19.2329877 16.1195687,19.2556608 C16.7188942,19.2482282 17.3126116,19.3717712 17.8573635,19.6168641 C18.2459462,19.7731525 18.6842896,19.7459178 19.0503282,19.5428462 C19.405549,19.3435799 19.6381406,18.9804548 19.6709681,18.5711799 C19.7065559,18.3295627 19.6729048,18.0828078 19.5737961,17.8592617 C19.2874022,17.2025416 19.172886,16.4837386 19.2410962,15.7699121 C19.3063777,15.1675951 19.5873301,14.6092145 20.030208,14.1996647 C20.4290967,13.7893742 20.9102544,13.4680761 21.4434019,13.2563634 C21.8952395,13.0913613 22.2280693,12.7023593 22.322139,12.2264066 C22.3382556,12.1700029 22.3513666,12.1289814 22.3755598,12.0611945 C22.3771746,12.0397253 22.3771746,12.0181651 22.3754189,11.9929456 C22.3514761,11.9092393 22.3252363,11.8381059 22.2964216,11.7568867 C22.2387374,11.5853627 22.1683038,11.4183931 22.0866422,11.2591074 C21.9674021,11.0475736 21.7767853,10.8853596 21.5487248,10.8014222 C20.7908981,10.5194625 20.1332589,10.0199334 19.6574453,9.36423254 C19.3588153,8.9236792 19.2063456,8.40035634 19.2216098,7.87057435 C19.2122352,7.26871281 19.335861,6.67220388 19.5827878,6.1256883 C19.7216118,5.7777318 19.7140934,5.38847503 19.5612845,5.04460244 C19.431589,4.72442997 19.1682247,4.47707258 18.8383697,4.3668841 C18.5202372,4.24408094 18.1665269,4.25155309 17.854181,4.38754302 C17.1917581,4.6814055 16.4644706,4.79856553 15.7419169,4.72744264 C15.0691086,4.64272569 14.455258,4.30075069 14.0311414,3.77557766 C13.6738619,3.38466478 13.3936559,2.92977865 13.2062707,2.43729706 C13.0382804,2.05771691 12.7094251,1.77307175 12.3099387,1.6613001 C11.9041472,1.55031155 11.4697561,1.6528196 11.1540775,1.93547471 C10.975753,2.07660785 10.837855,2.26231693 10.7544654,2.47346578 C10.4733806,3.20169904 9.99040272,3.83466103 9.3610208,4.29892508 C8.9217643,4.60357321 8.39657173,4.75974537 7.86429405,4.74462968 C7.26211384,4.75268238 6.66535287,4.63002471 6.11669743,4.38576532 C5.76797891,4.24417474 5.37674564,4.25002604 5.03189302,4.40221002 C4.71225682,4.53891807 4.46888418,4.80921682 4.36531348,5.14441432 C4.24525891,5.45984886 4.25271919,5.80962527 4.38582982,6.11900683 C4.70145178,6.82486781 4.81256863,7.60514848 4.70626341,8.37277908 C4.59706262,8.9989983 4.26512967,9.56462917 3.7739887,9.96337487 C3.38374286,10.3222387 2.92861742,10.6033715 2.43530002,10.7907663 C2.05495606,10.9572192 1.77116273,11.2878587 1.66430494,11.6890553 C1.55557694,12.0960176 1.66069272,12.5303455 1.94559302,12.845064 C2.08367479,13.0191565 2.26525192,13.1537357 2.47161318,13.2350657 C3.19524893,13.5135265 3.82588246,13.9900417 4.29237668,14.611492 C4.60780468,15.0633123 4.76688129,15.6058489 4.74540868,16.1547515 C4.74234042,16.7532659 4.6167502,17.3448144 4.37683832,17.8918633 C4.17192433,18.3909994 4.29257858,18.9646426 4.68120647,19.3389601 C5.06983591,19.7132791 5.64764302,19.8123742 6.13959945,19.5885879 C6.79744712,19.3030196 7.51755528,19.190956 8.23196538,19.263208 C8.98259794,19.3526385 9.65751888,19.7632717 10.0804719,20.3867078 C10.3445082,20.7362765 10.5678844,21.1147671 10.7466069,21.5156055 C10.9220395,21.9267145 11.2812491,22.2309011 11.7179148,22.3368276 L11.867172,22.3804531 L12.1248474,22.3816598 Z M16.8310407,12.0002188 C16.8284594,14.670634 14.6695877,16.8378227 11.972513,16.8604468 C9.29777343,16.848592 7.1346586,14.6762585 7.13597242,12.0001701 C7.13988485,9.32559132 9.30521529,7.15724924 11.9800529,7.14940477 C14.6574544,7.15332979 16.8271156,9.32281661 16.8310407,12.0002188 Z M11.9847605,8.7285858 C10.6565727,8.73001726 9.46043352,9.53246591 8.95548236,10.7608227 C8.45053176,11.9891782 8.73651437,13.4007945 9.67985512,14.3359143 C10.2900975,14.9445307 11.1178125,15.2847767 11.9799063,15.2813051 C13.8031559,15.2696159 15.2600724,13.8043712 15.2613336,12.0002172 C15.2587432,10.191884 13.7953996,8.72548858 12.0356137,8.68111364 L11.9847605,8.7285858 Z"
				id="Shape"></path>
		</g>
	</g>
</svg>
