<?xml version="1.0" encoding="UTF-8"?>
<svg width="64px" height="64px" viewBox="0 0 64 64" version="1.1" xmlns="http://www.w3.org/2000/svg"
		 xmlns:xlink="http://www.w3.org/1999/xlink">
	<!-- Generator: Sketch 46.2 (44496) - http://www.bohemiancoding.com/sketch -->
	<title>streamline</title>
	<desc>Created with Sketch.</desc>
	<defs></defs>
	<g id="UI-Kit" stroke="none" stroke-width="1" fill="none" fill-rule="evenodd">
		<g id="streamline" fill-rule="nonzero">
			<path
				d="M43.4230769,4.67553191 L20.4038462,4.67553191 C18.6153846,4.67553191 17.0576923,6.19680851 17.0576923,8.06914894 L17.0576923,55.9893617 C17.0576923,57.8031915 18.5576923,59.3829787 20.4038462,59.3829787 L43.4230769,59.3829787 C45.2115385,59.3829787 46.7692308,57.8617021 46.7692308,55.9893617 L46.7692308,8.06914894 C46.7692308,6.25531915 45.2115385,4.67553191 43.4230769,4.67553191 Z M44.9230769,55.9893617 C44.9230769,56.8670213 44.2884615,57.5106383 43.4230769,57.5106383 L20.4038462,57.5106383 C19.5384615,57.5106383 18.9038462,56.8670213 18.9038462,55.9893617 L18.9038462,50.7819149 L44.9807692,50.7819149 L44.9807692,55.9893617 L44.9230769,55.9893617 Z M44.9230769,48.9680851 L18.8461538,48.9680851 L18.8461538,11.462766 L44.9230769,11.462766 L44.9230769,48.9680851 Z M44.9230769,9.59042553 L18.8461538,9.59042553 L18.8461538,8.06914894 C18.8461538,7.19148936 19.4807692,6.54787234 20.3461538,6.54787234 L28.5961538,6.54787234 C28.6538462,6.89893617 28.9423077,7.13297872 29.2884615,7.13297872 L34.3653846,7.13297872 C34.7115385,7.13297872 35,6.84042553 35.0576923,6.54787234 L43.3076923,6.54787234 C44.1730769,6.54787234 44.8076923,7.19148936 44.8076923,8.06914894 L44.8076923,9.59042553 L44.9230769,9.59042553 Z"
				id="Shape" fill="#263238"></path>
			<ellipse id="Oval" fill="#000000" cx="31.8846154" cy="54.1755319" rx="1.55769231" ry="1.57978723"></ellipse>
		</g>
	</g>
</svg>
