<?xml version="1.0" encoding="UTF-8"?>
<svg width="24px" height="24px" viewBox="0 0 24 24" version="1.1" xmlns="http://www.w3.org/2000/svg"
		 xmlns:xlink="http://www.w3.org/1999/xlink">
	<!-- Generator: Sketch 43.1 (39012) - http://www.bohemiancoding.com/sketch -->
	<title>support</title>
	<desc>Created with Sketch.</desc>
	<defs></defs>
	<g id="UI" stroke="none" stroke-width="1" fill="none" fill-rule="evenodd">
		<g id="support" fill-rule="nonzero" fill="#FFFFFF">
			<path
				d="M20.1417445,20.542 L20.1414889,20.142 L20.4243316,20.4248427 L20.1417445,20.542 Z M20.2561257,3.46489058 L20.3410031,3.51938374 L20.3972253,3.56589485 L20.1422556,3.87410003 L20.1422556,3.47410003 L20.3092748,3.47410003 L20.4266,3.59225136 C22.6352183,5.81642143 23.9002569,8.81034616 23.9,11.999968 C23.9002567,15.2022886 22.6364699,18.1973961 20.4253538,20.4240761 C18.2004802,22.6328867 15.193343,23.9 12.0000001,23.9 C8.80442887,23.9 5.79631356,22.6306655 3.56309311,20.3945476 L3.51543786,20.3318616 C1.33652705,18.1152847 0.0994879491,15.1659089 0.100000156,12.0000322 C0.099742833,8.80537009 1.36915567,5.81102546 3.58972409,3.59100177 L3.87307791,3.87333337 L3.51530703,3.69444793 L3.87333347,3.47282226 L3.87358902,3.87282226 L3.5897392,3.59099025 C5.79225611,1.37296791 8.79988906,0.100000039 11.9999676,0.10000004 C15.1369356,0.0997451055 18.0804986,1.32431793 20.289339,3.47410003 C20.3329785,3.51677845 20.3417057,3.52536701 20.3504214,3.53397011 L20.0694222,3.81864448 L20.2561257,3.46489058 Z M4.13836215,19.8339444 L4.16159604,19.8626191 L4.15651208,19.8592891 L4.13836215,19.8339444 Z M12.0000001,23.1 C14.9798512,23.1 17.785103,21.9179549 19.8578795,19.859924 C21.9217882,17.7815385 23.1002396,14.9884756 23.1,11.9999678 C23.1002397,9.02411172 21.9204783,6.23200969 19.8589334,4.1559487 L19.7884231,4.10331884 C17.7209872,2.06257428 14.9531718,0.899760042 12.0000001,0.900000039 C9.01454274,0.900000039 6.2104999,2.08689408 4.15743884,4.15465426 L4.09506375,4.21747594 C2.06026702,6.28278616 0.899762458,9.0489898 0.900000149,12.0000647 C0.899520932,14.9621062 2.05905276,17.7181745 4.10354039,19.7888997 L4.1696251,19.8776003 C6.21429661,21.9166967 9.01906617,23.1 12.0000001,23.1 Z M11.9999641,1.64187781 C9.48008039,1.64187782 7.10068497,2.54759064 5.24625305,4.1556771 L8.36766566,7.27730668 C9.39407002,6.47738322 10.6601918,6.03504596 11.9998549,6.03553339 C13.3432259,6.03504595 14.6125372,6.47959853 15.6397511,7.28304656 L18.7535679,4.15817012 C16.8857402,2.54492005 14.5176851,1.64210457 11.9999641,1.64187781 Z M12.0000001,0.841877815 C14.8631783,0.842135688 17.5488586,1.92691325 19.6072529,3.84988338 L19.9091228,4.13189282 L15.6810167,8.37501621 L15.3985859,8.12339871 C14.4706832,7.29673059 13.2756276,6.83507053 11.9998546,6.83553334 C10.7278231,6.83507061 9.53586744,7.2943127 8.60820243,8.11730808 L8.32632903,8.36737735 L4.09119701,4.13195095 L4.39190345,3.84939613 C6.43389662,1.93066429 9.13360292,0.841877815 12.0000001,0.841877815 Z M16.422589,11.9998472 C16.4225889,10.8380265 15.9668888,9.73779194 15.2454721,8.98150906 L15.2013374,8.94954409 L15.1418946,8.90021378 L15.1154807,8.87570597 C14.2976454,8.04559589 13.1971963,7.57761274 11.9999736,7.57715552 C10.8022907,7.57784134 9.70230151,8.04561977 8.88190948,8.87782051 C8.05066329,9.69659369 7.57741122,10.8127659 7.5774111,11.999439 C7.57832294,13.1934845 8.04150594,14.2793139 8.90772348,15.1502296 L8.92279678,15.1730848 C9.74275848,15.9712519 10.8278798,16.4221057 12.0000001,16.4223333 C13.1966781,16.4223333 14.3160097,15.952685 15.1344462,15.1352129 C15.9587844,14.2944639 16.4221337,13.1912302 16.422589,11.9998472 Z M8.41788133,8.23950693 L8.59727788,8.59702225 L8.239507,8.41813681 L8.31436959,8.31411396 L8.41788133,8.23950693 Z M15.7058183,8.32857818 L15.6721614,8.30479099 L15.7468119,8.36499894 C16.6841973,9.32772684 17.2225889,10.6276102 17.2225889,12 C17.222052,13.4052334 16.6734964,14.7097967 15.7034819,15.6977797 L15.5858954,15.8175445 C14.6240633,16.7119921 13.3524443,17.2223333 11.9999224,17.2223333 C10.6170777,17.2220648 9.33250926,16.6883433 8.33334339,15.7119482 L8.31414973,15.6850237 C7.32782102,14.6967012 6.77848721,13.4089104 6.77741122,11.9997445 C6.77741122,10.5971677 7.33754529,9.27608298 8.31239072,8.31596842 C9.28212986,7.33253929 10.5864464,6.77796481 11.9998972,6.77715561 C13.4131732,6.77769513 14.7182259,7.33266305 15.6606159,8.29115008 L15.7058183,8.32857818 Z M1.64187793,12.000036 C1.64233086,14.5273055 2.54183561,16.8845972 4.15805271,18.7537053 L7.28517894,15.6378597 C6.47880442,14.6022545 6.03480456,13.3410797 6.03553345,12.000329 C6.03528899,10.6677254 6.47932899,9.39543891 7.27787453,8.36819753 L4.15741817,5.24752423 C2.54471137,7.11504926 1.64210466,9.4828501 1.64187793,12.000036 Z M0.841877934,12.0000717 C0.842135798,9.13709501 1.92690158,6.45141091 3.84962664,4.39325959 L4.13214647,4.09084061 L8.36735135,8.3263399 L8.11782649,8.60816143 C7.29679325,9.53546316 6.83530149,10.7358132 6.83553339,12.000473 C6.83484228,13.2718893 7.29495901,14.4575204 8.12590309,15.3989468 L8.37506505,15.6812373 L4.13196213,19.9090339 L3.84995704,19.6073316 C1.92337998,17.5461896 0.842392846,14.873281 0.841877934,12.0000717 Z M12.0000001,22.3581222 C14.5144155,22.3581222 16.8945195,21.4565202 18.7652765,19.8551271 L15.6433686,16.7334362 C14.6127749,17.5242453 13.3387344,17.9644667 12.0000728,17.9644667 C10.6638337,17.9647097 9.39879958,17.5251988 8.3703176,16.7331716 L5.24126284,19.8511589 C7.09955523,21.4535011 9.4817551,22.3581222 12.0000001,22.3581222 Z M12.0000001,23.1581222 C9.13523138,23.1581222 6.43238858,22.0704726 4.38631995,20.1585141 L4.08345461,19.8755002 L8.32655411,15.6474085 L8.60768532,15.8934076 C9.53889811,16.7082493 10.7310985,17.1646974 12.0000001,17.1644667 C13.2724278,17.1644667 14.47547,16.7066373 15.4072557,15.8933361 L15.6888319,15.6475648 L19.9243982,19.8828367 L19.6196152,20.1652721 C17.5591713,22.0746388 14.8597353,23.1581222 12.0000001,23.1581222 Z M22.3581222,12.000036 C22.3578959,9.4849052 21.4563241,7.11416439 19.8496591,5.24325575 L16.7328815,8.37088186 C17.523344,9.40003737 17.9644667,10.6714036 17.9644667,12.0001829 C17.9647095,13.3366344 17.5250062,14.6028801 16.7314318,15.641073 L19.8557427,18.7651669 C21.459748,16.893442 22.3578959,14.5241185 22.3581222,12.000036 Z M15.6473486,15.6883967 L15.8909878,15.4069539 C16.7083027,14.4628228 17.1646971,13.2688815 17.1644667,12.0002556 C17.1644667,10.7390892 16.7058347,9.53823828 15.8931488,8.60764472 L15.6476598,8.32653928 L19.8755729,4.08391017 L20.1585191,4.38842568 C22.0741637,6.45010232 23.1578647,9.13911182 23.1581222,12.0000359 C23.157865,14.8699282 22.0783321,17.5565763 20.1657113,19.6194373 L19.8832897,19.9240436 L15.6473486,15.6883967 Z"
				id="Shape"></path>
		</g>
	</g>
</svg>
