<?xml version="1.0" encoding="UTF-8"?>
<svg width="64px" height="64px" viewBox="0 0 64 64" version="1.1" xmlns="http://www.w3.org/2000/svg"
		 xmlns:xlink="http://www.w3.org/1999/xlink">
	<!-- Generator: Sketch 46.2 (44496) - http://www.bohemiancoding.com/sketch -->
	<title>support</title>
	<desc>Created with Sketch.</desc>
	<defs></defs>
	<g id="UI-Kit" stroke="none" stroke-width="1" fill="none" fill-rule="evenodd">
		<g id="support" fill-rule="nonzero" fill="#263238">
			<path
				d="M26.8571429,27.9166667 C28.1395778,27.9166667 29.1785714,26.8840866 29.1785714,25.6111111 C29.1785714,24.3381356 28.1395778,23.3055556 26.8571429,23.3055556 C25.5747079,23.3055556 24.5357143,24.3381356 24.5357143,25.6111111 C24.5357143,26.8840866 25.5747079,27.9166667 26.8571429,27.9166667 Z"
				id="Oval"></path>
			<path
				d="M37.1428571,27.9166667 C38.4252921,27.9166667 39.4642857,26.8840866 39.4642857,25.6111111 C39.4642857,24.3381356 38.4252921,23.3055556 37.1428571,23.3055556 C35.8604222,23.3055556 34.8214286,24.3381356 34.8214286,25.6111111 C34.8214286,26.8840866 35.8604222,27.9166667 37.1428571,27.9166667 Z"
				id="Oval"></path>
			<path
				d="M36.5712729,32.7467235 C33.6481261,34.6633104 29.9353024,34.6633104 27.0113231,32.7461838 C26.5358782,32.4366794 25.8904023,32.5684314 25.5764607,33.0405422 C25.2624882,33.5126996 25.39499,34.1513983 25.8730031,34.4639935 C27.6726843,35.6430523 29.7206978,36.2656667 31.7942857,36.2656667 C33.8678736,36.2656667 35.9158871,35.6430523 37.7157443,34.4638784 C38.1925717,34.1520586 38.324438,33.5133379 38.0125307,33.0411717 C37.695766,32.5679289 37.0518035,32.4366168 36.5712729,32.7467235 Z"
				id="Shape"></path>
			<path
				d="M43.5714286,9.25 L20.4285714,9.25 C17.0219657,9.25 14.25,12.0040942 14.25,15.3888889 L14.25,35.8333333 C14.25,39.218128 17.0219657,41.9722222 20.4285714,41.9722222 L43.5714286,41.9722222 C44.9183358,41.9722222 46.199648,41.5250153 47.2780272,40.7116316 L47.6785714,40.4095151 L47.6785714,47.3333333 C47.6785714,48.881576 46.4125754,50.1388889 44.8571429,50.1388889 C44.6881466,50.1388889 44.5238727,50.1919975 44.340207,50.2990829 L44.2142857,50.3725007 L44.0883644,50.2990829 C43.9046987,50.1919975 43.7404248,50.1388889 43.5714286,50.1388889 L36.7303301,50.1388889 L36.6709512,49.9732552 C36.1613205,48.5516722 34.8168639,47.5833333 33.2857143,47.5833333 L28.1428571,47.5833333 C26.1540116,47.5833333 24.5357143,49.1916411 24.5357143,51.1666667 C24.5357143,53.1416922 26.1540116,54.75 28.1428571,54.75 L33.2857143,54.75 C34.8168639,54.75 36.1613205,53.7816612 36.6709512,52.3600782 L36.7303301,52.1944444 L43.5714286,52.1944444 C43.7404248,52.1944444 43.9046987,52.1413358 44.0883644,52.0342504 L44.2142857,51.9608326 L44.340207,52.0342504 C44.5238727,52.1413358 44.6881466,52.1944444 44.8571429,52.1944444 C47.5557027,52.1944444 49.75,50.0136922 49.75,47.3333333 L49.75,15.3888889 C49.75,12.0040942 46.9780343,9.25 43.5714286,9.25 Z M33.2857143,52.6944444 L28.1428571,52.6944444 C27.2962269,52.6944444 26.6071429,52.0086681 26.6071429,51.1666667 C26.6071429,50.3246653 27.2962269,49.6388889 28.1428571,49.6388889 L33.2857143,49.6388889 C34.1323445,49.6388889 34.8214286,50.3246653 34.8214286,51.1666667 C34.8214286,52.0086681 34.1323445,52.6944444 33.2857143,52.6944444 Z M20.4285714,11.3055556 L43.5714286,11.3055556 C45.8357258,11.3055556 47.6785714,13.1370255 47.6785714,15.3888889 L47.6785714,18.4793738 L47.2780272,18.1772573 C46.199648,17.3638736 44.9183358,16.9166667 43.5714286,16.9166667 L20.4285714,16.9166667 C19.0816642,16.9166667 17.800352,17.3638736 16.7219728,18.1772573 L16.3214286,18.4793738 L16.3214286,15.3888889 C16.3214286,13.1370255 18.1642742,11.3055556 20.4285714,11.3055556 Z M43.5714286,39.9166667 L20.4285714,39.9166667 C18.1642742,39.9166667 16.3214286,38.0851967 16.3214286,35.8333333 L16.3214286,23.0555556 C16.3214286,20.8036922 18.1642742,18.9722222 20.4285714,18.9722222 L43.5714286,18.9722222 C45.8357258,18.9722222 47.6785714,20.8036922 47.6785714,23.0555556 L47.6785714,35.8333333 C47.6785714,38.0851967 45.8357258,39.9166667 43.5714286,39.9166667 Z"
				id="Shape"></path>
		</g>
	</g>
</svg>
