<?xml version="1.0" encoding="UTF-8"?>
<svg width="24px" height="24px" viewBox="0 0 24 24" version="1.1" xmlns="http://www.w3.org/2000/svg"
		 xmlns:xlink="http://www.w3.org/1999/xlink">
	<!-- Generator: Sketch 43.1 (39012) - http://www.bohemiancoding.com/sketch -->
	<title>users</title>
	<desc>Created with Sketch.</desc>
	<defs></defs>
	<g id="UI" stroke="none" stroke-width="1" fill="none" fill-rule="evenodd">
		<g id="users" fill="#FFFFFF">
			<g id="Group-3-Copy" transform="translate(6.000000, 5.000000)">
				<path
					d="M6,10.0000041 C1.57492,10.0000041 -8.8817842e-16,11.6561706 -8.8817842e-16,16.1818186 L-8.8817842e-16,17 L0.8,17 L0.8,16.1818186 C0.8,12.0952886 2.00428,10.8181855 6,10.8181855 C9.99572,10.8181855 11.2,12.0952886 11.2,16.1818186 L11.2,17 L12,17 L12,16.1818186 C12,11.6561706 10.42508,10.0000041 6,10.0000041 Z"
					id="Shape" stroke="#FFFFFF" stroke-width="0.8" fill-rule="nonzero"></path>
				<path
					d="M5.8,0 C3.59558,0 1.8,1.8364103 1.8,4.09090723 C1.8,6.34539393 3.59558,8.18182469 5.8,8.18182469 C8.00442,8.18182469 9.8,6.34539393 9.8,4.09090723 C9.8,1.8364103 8.00442,0 5.8,0 Z"
					id="Path"></path>
			</g>
			<path
				d="M12,22.3 C17.6885329,22.3 22.3,17.6885329 22.3,12 C22.3,6.31146708 17.6885329,1.7 12,1.7 C6.31146708,1.7 1.7,6.31146708 1.7,12 C1.7,17.6885329 6.31146708,22.3 12,22.3 Z M12,24 C5.372583,24 0,18.627417 0,12 C0,5.372583 5.372583,0 12,0 C18.627417,0 24,5.372583 24,12 C24,18.627417 18.627417,24 12,24 Z"
				id="Oval-2-Copy-7" fill-rule="nonzero"></path>
		</g>
	</g>
</svg>
