<?xml version="1.0" encoding="UTF-8"?>
<svg width="96px" height="96px" viewBox="0 0 96 96" version="1.1" xmlns="http://www.w3.org/2000/svg"
     xmlns:xlink="http://www.w3.org/1999/xlink">
  <!-- Generator: Sketch 43.1 (39012) - http://www.bohemiancoding.com/sketch -->
  <title>add-member-team</title>
  <desc>Created with Sketch.</desc>
  <defs></defs>
  <g id="UI" stroke="none" stroke-width="1" fill="none" fill-rule="evenodd">
    <g id="add-member-team">
      <g id="icon">
        <g id="Group-4-Copy">
          <g id="Group-14">
            <circle id="Oval" fill="#F5F7F7" cx="48" cy="48" r="48"></circle>
            <path
              d="M59.0599742,53.4934419 C57.261473,51.3245793 55.0337244,49.780523 52.4225957,48.8920788 L52.0851396,48.7772584 L52.3643976,48.5558949 C53.5159005,47.6431164 54.4409037,46.4738859 55.0653324,45.1401838 C55.5108512,44.1850673 55.7933262,43.2508901 55.9298676,42.2835446 C56.0755691,41.2426472 55.9987857,40.0162033 55.7196836,38.9254837 C55.2634192,37.1378754 54.3953164,35.6480283 52.9828943,34.229483 C52.3638437,33.6077486 51.5796082,33.0600279 50.7772532,32.6901521 C49.7717355,32.2252589 48.7767596,32 47.7322187,32 C45.5969787,32 43.8424953,32.8536846 42.4575122,34.2148916 C41.0999083,35.5496467 40.2054965,37.0805728 39.7207021,38.8983181 C39.4390581,39.9523817 39.3603881,41.215803 39.5100965,42.2719947 C39.6452027,43.2292229 39.9274512,44.1617389 40.3739821,45.1275241 C40.9968076,46.4738846 41.8861242,47.601849 43.0802162,48.5594118 L43.3575514,48.7818116 L43.0204921,48.8951371 C40.431379,49.7656444 38.2064855,51.304905 36.3928634,53.4815512 C34.5800606,55.6562822 33.5096691,58.1295672 33.1185557,61.0481072 C33.067105,61.4262654 33.0414776,61.7733241 33.0009365,62.5193818 L33,62.9743071 C33.1159085,63.5767427 33.4338437,63.891928 33.9155127,63.9603465 C34.1088223,63.9874763 34.3243685,64 34.5690746,64 C34.7170316,64 34.837095,63.9967865 35.1186098,63.9868489 C35.1781415,63.9852387 35.1781415,63.9852387 35.2381175,63.9835271 C35.3133694,63.9813816 35.3133694,63.9813816 35.3891668,63.9794065 C35.4948337,63.976781 35.58123,63.9754517 35.6642797,63.9754517 L60.6888192,63.9755153 L60.9475907,63.9821309 C61.2819293,63.9911024 61.4379908,63.9871039 61.5904178,63.9573369 C62.0320382,63.8712058 62.3759785,63.4820517 62.44,62.994088 L62.4381354,62.5015784 C62.274832,58.9827065 61.1699948,56.0373752 59.0599742,53.4934419 Z M44.7849036,50.6156317 C45.5152141,50.4327438 46.3389265,50.3282877 47.4514739,50.2767608 C49.1489004,50.1977121 50.8524368,50.5270734 52.6326683,51.2697154 C53.9502202,51.8193936 55.1993154,52.6437378 56.3438862,53.7186136 C57.4085592,54.7149525 58.2908544,55.9044922 58.9673528,57.2556883 C59.6399195,58.6009044 60.0615743,60.0659715 60.2230257,61.6155242 L60.0295397,61.8299746 L35.4142157,61.8299746 L35.2208559,61.6143481 C35.5590795,58.549484 36.7603265,56.064336 38.9754639,53.8405541 C40.5122221,52.2952139 42.5215429,51.1803297 44.7849036,50.6156317 Z M50.2580427,34.8532458 C51.6401107,35.631724 52.7038163,36.8462422 53.3334043,38.3630281 C53.6878787,39.2166789 53.8747012,40.1690442 53.8747012,41.1189196 C53.8747012,42.9562572 53.2972575,44.4862753 52.0647377,45.9157698 C51.5619636,46.4974377 50.969107,46.9824494 50.2549027,47.3973199 C48.6384174,48.3415273 46.8104498,48.3384037 45.1837978,47.4095318 C43.7811661,46.6071867 42.7454524,45.4249814 42.1067095,43.8977561 C41.7477301,43.0371228 41.5617781,42.1145617 41.5530784,41.1543907 C41.5395519,39.3815392 42.1500119,37.7659903 43.3637873,36.3591107 C43.8929449,35.7450752 44.512076,35.2286017 45.155873,34.865383 C45.9725006,34.4060166 46.7111096,34.1797058 47.5168866,34.1468312 L47.5207857,33.8743897 L47.9098283,33.8771678 L47.9098283,34.1469783 C48.7478543,34.1835402 49.5417676,34.4489761 50.2580427,34.8532458 Z"
              id="Shape" fill="#263238" fill-rule="nonzero"></path>
            <polygon id="Path" fill="#263238"
                     points="68.4770355 41 68.4770355 46.7943633 74 46.7943633 74 48.6263048 68.4770355 48.6263048 68.4770355 54.4613779 66.4958246 54.4613779 66.4958246 48.6263048 61 48.6263048 61 46.7943633 66.4958246 46.7943633 66.4958246 41"></polygon>
          </g>
        </g>
      </g>
    </g>
  </g>
</svg>
