<?xml version="1.0" encoding="UTF-8"?>
<svg width="24px" height="24px" viewBox="0 0 24 24" version="1.1" xmlns="http://www.w3.org/2000/svg"
     xmlns:xlink="http://www.w3.org/1999/xlink">
  <!-- Generator: Sketch 43.1 (39012) - http://www.bohemiancoding.com/sketch -->
  <title>history</title>
  <desc>Created with Sketch.</desc>
  <defs></defs>
  <g id="UI" stroke="none" stroke-width="1" fill="none" fill-rule="evenodd">
    <g id="history">
      <g>
        <rect id="Rectangle-5" x="0" y="0" width="24" height="24"></rect>
        <path
          d="M12,22 C9.26666667,22 6.73333333,20.9777778 4.88888889,19.1333333 C3.02222222,17.2666667 2,14.7333333 2,12 C2,9.26666667 3.02222222,6.73333333 4.86666667,4.88888889 C6.73333333,3.02222222 9.26666667,2 12,2 C14.7333333,2 17.2666667,3.02222222 19.1111111,4.88888889 C20.9777778,6.75555556 22,9.28888889 22,12.0222222 C22,14.7555556 20.9777778,17.2888889 19.1111111,19.1333333 C17.2666667,20.9777778 14.7333333,22 12,22 Z M12,3.53333333 C9.68888889,3.53333333 7.53333333,4.4 5.97777778,5.95555556 C4.42222222,7.53333333 3.55555556,9.66666667 3.55555556,12 C3.55555556,14.3111111 4.42222222,16.4666667 5.97777778,18.0222222 C7.53333333,19.5777778 9.68888889,20.4444444 12,20.4444444 C14.3333333,20.4444444 16.4666667,19.5777778 18.0444444,18.0222222 C19.6222222,16.4666667 20.4666667,14.3111111 20.4666667,12 C20.4666667,9.66666667 19.6,7.53333333 18.0222222,5.95555556 C16.4666667,4.4 14.3111111,3.53333333 12,3.53333333 Z M15.4888889,16.8444444 C15.2888889,16.8444444 15.1111111,16.7777778 14.9777778,16.6222222 L11.1111111,12.7555556 L11.1111111,6.88888889 C11.1111111,6.46666667 11.4666667,6.11111111 11.8888889,6.11111111 C12.3111111,6.11111111 12.6666667,6.46666667 12.6666667,6.88888889 L12.6666667,12.1111111 L16.0666667,15.5333333 C16.3777778,15.8444444 16.3555556,16.3111111 16.0444444,16.6222222 C15.8888889,16.7777778 15.6888889,16.8444444 15.4888889,16.8444444 Z"
          id="Combined-Shape" fill="#263238" fill-rule="nonzero"></path>
      </g>
    </g>
  </g>
</svg>
