<?xml version="1.0" encoding="UTF-8"?>
<svg width="40px" height="16px" viewBox="0 0 40 16" version="1.1" xmlns="http://www.w3.org/2000/svg"
     xmlns:xlink="http://www.w3.org/1999/xlink">
  <!-- Generator: Sketch 43.1 (39012) - http://www.bohemiancoding.com/sketch -->
  <title>amex</title>
  <desc>Created with Sketch.</desc>
  <defs></defs>
  <g id="UI-Kit" stroke="none" stroke-width="1" fill="none" fill-rule="evenodd">
    <g id="amex" fill="#52BAE8">
      <path
        d="M39.3434839,0.771047619 L33.4803139,0.771047619 C33.3930741,0.771047619 33.2827899,0.835580952 33.2210636,0.902628571 C32.7889799,1.37028571 32.3675955,1.84967619 31.9346888,2.33241905 C31.5396408,1.85721905 31.152823,1.39794286 30.7758814,0.9328 C30.6886417,0.823847619 30.604694,0.771885714 30.4631351,0.771885714 L17.0232746,0.771885714 C16.8710166,0.771885714 16.8027062,0.834742857 16.7467411,0.973028571 L15.7237315,3.39512381 C15.3731264,2.57127619 15.0356896,1.7943619 14.7138901,1.01241905 C14.6431107,0.839771429 14.557517,0.77272381 14.3739843,0.773561905 L4.71588492,0.773561905 C4.52247602,0.773561905 4.43605929,0.842285714 4.36034176,1.02247619 L0.16295728,10.9622857 L5.19734961,10.9622857 C5.25825283,10.9622857 5.34713862,10.8700952 5.37429817,10.8055619 C5.56029991,10.3680762 5.72819529,9.92220952 5.91584307,9.4855619 C5.94464865,9.41851429 6.04752572,9.33470476 6.11912816,9.33219048 L7.24666085,9.33219048 C7.38492764,9.3288381 7.452415,9.37577143 7.50344202,9.51154286 C7.651585,9.90712381 7.82688753,10.2926476 7.9643313,10.6932571 C8.03511072,10.8985905 8.13387271,10.9614476 8.34291892,10.9614476 C15.5936949,10.9547429 22.8420017,10.9513905 30.0919547,10.9614476 C30.3882406,10.9614476 30.5775344,10.8608762 30.7627132,10.6379429 C31.1231944,10.208 31.5100122,9.76045714 31.898476,9.33051429 C32.3182145,9.8199619 32.7280767,10.3295238 33.1272398,10.8055619 C33.2177716,10.9128381 33.3066574,10.9614476 33.4457472,10.9614476 L39.1615972,10.9614476 C37.6752293,9.26430476 36.2119058,7.5688381 34.7436443,5.89264762 C36.2744551,4.19131429 39.3443069,0.771885714 39.3443069,0.771885714 L39.3434839,0.771047619 Z M20.6264412,9.53752381 L18.9269119,9.53752381 L18.9269119,3.94407619 C18.9104516,3.93904762 17.2742947,7.64678095 16.5508631,9.34979048 C16.4907829,9.49226667 16.4191805,9.54255238 16.2710375,9.53668571 L15.1887707,9.53668571 C15.0406277,9.54087619 14.9731404,9.4864 14.9138832,9.3464381 L12.5370113,3.9072 L12.5370113,9.53584762 L9.31901656,9.53584762 C9.14865214,9.53584762 9.07458065,9.47550476 9.01696949,9.32045714 C8.85648126,8.888 8.67953269,8.46308571 8.51657541,8.03230476 C8.47295554,7.91497143 8.41452136,7.87558095 8.29189189,7.87641905 C7.23020052,7.88228571 6.17015519,7.88228571 5.10928684,7.87641905 C4.98748038,7.87641905 4.92986922,7.91329524 4.88460331,8.03146667 C4.71588492,8.47565714 4.53893636,8.91817143 4.35458065,9.35565714 C4.32577507,9.42605714 4.24511944,9.53333333 4.18668527,9.53500952 C3.62127289,9.54674286 3.05503749,9.53500952 2.45835048,9.53500952 L5.39651962,2.4279619 C5.45906888,2.27710476 5.53396338,2.22933333 5.6886905,2.23100952 C6.38825458,2.23939048 7.08946469,2.23939048 7.78985179,2.23100952 C7.94622493,2.22933333 8.01782738,2.28297143 8.07955362,2.43215238 L10.8531194,9.03215238 L10.8531194,2.23100952 L13.4209311,2.23100952 C13.5690741,2.22933333 13.6373845,2.27878095 13.6991107,2.41790476 L15.8126173,7.16990476 L17.7746888,2.41455238 C17.8043173,2.34331429 17.8833269,2.23184762 17.9409381,2.23017143 L20.6297332,2.23017143 L20.6297332,9.53417143 L20.6264412,9.53752381 Z M36.0431874,9.53752381 L34.1938692,9.53752381 C33.9510793,9.54590476 33.7905911,9.46544762 33.6317489,9.27352381 C33.6317489,9.27352381 31.8400418,7.15984762 31.8046521,7.10285714 C31.8046521,7.10285714 30.1981238,8.90895238 29.7388806,9.41264762 C29.6812694,9.47634286 29.5775693,9.53668571 29.4960907,9.5383619 L22.1054019,9.5383619 L22.1054019,2.2343619 L29.6055519,2.2343619 C29.7841465,2.2343619 29.9001918,2.288 30.0154141,2.43215238 C30.603048,3.16548571 31.200558,3.88708571 31.8095902,4.6279619 L33.8687777,2.35085714 C33.9181587,2.29721905 34.0021064,2.2360381 34.0704167,2.2352 C34.7477594,2.22681905 35.425102,2.2352 36.1608788,2.2352 C35.0498065,3.47390476 33.9716548,4.67992381 32.8811578,5.8951619 C33.9263888,7.09112381 34.9716199,8.31474286 36.0431874,9.5383619 L36.0431874,9.53752381 Z M27.7801011,2.57546667 L27.7801011,3.75550476 L23.7769486,3.75550476 L23.7769486,5.04952381 L27.7801011,5.04952381 L27.7801011,6.56312381 L23.7769486,6.56312381 L23.7769486,8.01051429 L27.7801011,8.01051429 L27.7801011,9.10506667 C28.7874734,8.00464762 29.7273583,6.94529524 30.706748,5.87420952 L27.7801011,2.55032381 C27.7636408,2.55870476 27.7965615,2.56708571 27.7801011,2.57546667 L27.7801011,2.57546667 Z M5.55124673,6.36449524 L6.69688579,3.4663619 L7.84417088,6.36449524 L5.55124673,6.36449524 Z"
        id="Shape"></path>
    </g>
  </g>
</svg>
