<?xml version="1.0" encoding="UTF-8"?>
<svg width="24px" height="24px" viewBox="0 0 24 24" version="1.1" xmlns="http://www.w3.org/2000/svg"
     xmlns:xlink="http://www.w3.org/1999/xlink">
  <!-- Generator: Sketch 43.1 (39012) - http://www.bohemiancoding.com/sketch -->
  <title>camera-white</title>
  <desc>Created with Sketch.</desc>
  <defs></defs>
  <g id="UI-Kit" stroke="none" stroke-width="1" fill="none" fill-rule="evenodd">
    <g id="camera-white" fill-rule="nonzero" fill="#FFFFFF">
      <path
        d="M8.51612903,2 C8.18883871,2.00880768 7.94183226,2.23158824 7.82663226,2.42067267 L6.48387097,5.07692012 L2.62498065,5.07692012 C1.1832,5.07692012 0,6.25946898 0,7.69710991 L0,19.3797718 C0,20.8174627 1.1832,22 2.62498065,22 L21.3750194,22 C22.8168,22 24,20.8174627 24,19.3797718 L24,7.69710991 C24,6.25946898 22.8168,5.07692012 21.3750194,5.07692012 L17.516129,5.07692012 L16.1733677,2.42067267 C16.0447742,2.16932291 15.7676516,2.00025769 15.483871,2 L8.51612903,2 Z M8.98792258,3.53846006 L15.0120774,3.53846006 L16.3427613,6.18268829 C16.4679871,6.43847266 16.7459613,6.6129071 17.0322581,6.61538018 L21.3750194,6.61538018 C21.9833806,6.61538018 22.4516129,7.07745281 22.4516129,7.69710991 L22.4516129,19.3797718 C22.4516129,19.9994635 21.9833806,20.4615399 21.3750194,20.4615399 L2.62498065,20.4615399 C2.01661935,20.4615399 1.5483871,19.9994635 1.5483871,19.3797718 L1.5483871,7.69710991 C1.5483871,7.07745281 2.01661935,6.61538018 2.62498065,6.61538018 L6.96774194,6.61538018 C7.25403871,6.61307249 7.5320129,6.43847266 7.65723871,6.18268829 L8.98792258,3.53846006 Z M12,8.53845525 C9.22997419,8.53845525 6.96774194,10.7861454 6.96774194,13.5384697 C6.96774194,16.2907363 9.22997419,18.5384264 12,18.5384264 C14.7701032,18.5384264 17.0322581,16.2907363 17.0322581,13.5384697 C17.0322581,10.7861454 14.7701032,8.53845525 12,8.53845525 Z M12,10.0769153 C13.9332774,10.0769153 15.483871,11.6175869 15.483871,13.5384697 C15.483871,15.459314 13.9332774,16.9999663 12,16.9999663 C10.0668,16.9999663 8.51612903,15.459314 8.51612903,13.5384697 C8.51612903,11.6175869 10.0668,10.0769153 12,10.0769153 Z"
        id="Shape"></path>
    </g>
  </g>
</svg>
