<?xml version="1.0" encoding="UTF-8"?>
<svg width="56px" height="16px" viewBox="0 0 56 16" version="1.1" xmlns="http://www.w3.org/2000/svg"
     xmlns:xlink="http://www.w3.org/1999/xlink">
  <!-- Generator: Sketch 43.1 (39012) - http://www.bohemiancoding.com/sketch -->
  <title>discover</title>
  <desc>Created with Sketch.</desc>
  <defs></defs>
  <g id="UI-Kit" stroke="none" stroke-width="1" fill="none" fill-rule="evenodd">
    <g id="discover">
      <path
        d="M34.4393655,5.77160583 C34.4393655,8.38419903 32.3513529,10.5021201 29.7762064,10.5021201 C27.2007412,10.5021201 25.1135256,8.38419903 25.1135256,5.77160583 C25.1135256,3.15901263 27.2007412,1.04157668 29.7762064,1.04157668 C32.3513529,1.04157668 34.4393655,3.15901263 34.4393655,5.77160583 L34.4393655,5.77160583 Z"
        id="Clip-22" fill="#F46C20"></path>
      <path
        d="M5.34000339,7.97342227 C4.80281716,8.46566873 4.10495328,8.68025843 3.00029435,8.68025843 L2.54137472,8.68025843 L2.54137472,2.80014492 L3.00029435,2.80014492 C4.10495328,2.80014492 4.77539995,3.00066581 5.34000339,3.51927106 C5.93122705,4.05340051 6.2870133,4.88103432 6.2870133,5.7329247 C6.2870133,6.5865939 5.93122705,7.43945454 5.34000339,7.97342227 M3.3426908,1.29348914 L0.833058757,1.29348914 L0.833058757,10.1856205 L3.3294604,10.1856205 C4.65696393,10.1856205 5.61545081,9.86785959 6.4569363,9.15908292 C7.45686782,8.31964424 8.04809148,7.05442208 8.04809148,5.74569983 C8.04809148,3.12162519 6.11549627,1.29348914 3.3426908,1.29348914"
        id="Fill-7" fill="#231F1F"></path>
      <polygon id="Fill-9" fill="#231F1F"
               points="8.83487005 10.1856529 10.5446206 10.1856529 10.5446206 1.29352148 8.83487005 1.29352148"></polygon>
      <path
        d="M14.725125,4.70577259 C13.6992109,4.32057843 13.3977809,4.0666931 13.3977809,3.58625151 C13.3977809,3.02608669 13.9346483,2.60046492 14.6715658,2.60046492 C15.1838852,2.60046492 15.6048671,2.81408435 16.0502375,3.32072303 L16.944804,2.13231331 C16.20964,1.47997357 15.3302167,1.14652672 14.3691794,1.14652672 C12.818353,1.14652672 11.6354275,2.23904218 11.6354275,3.69443576 C11.6354275,4.91939203 12.1861629,5.54666667 13.7918237,6.13286686 C14.4611546,6.37252167 14.8017976,6.53196812 14.9737928,6.63934383 C15.3153923,6.86557668 15.4864311,7.18608669 15.4864311,7.559476 C15.4864311,8.27989582 14.9216682,8.81370185 14.1589275,8.81370185 C13.3434246,8.81370185 12.6866866,8.40004665 12.2929626,7.62771778 L11.188463,8.70664956 C11.9762299,9.87969679 12.922124,10.399434 14.2231667,10.399434 C15.9998663,10.399434 17.246234,9.20115996 17.246234,7.47975277 C17.246234,6.06688902 16.6699942,5.42732439 14.725125,4.70577259"
        id="Fill-11" fill="#231F1F"></path>
      <path
        d="M17.7855881,5.74576451 C17.7855881,8.35932797 19.8087239,10.3860444 22.4120846,10.3860444 C23.1480457,10.3860444 23.7783229,10.2393731 24.5557286,9.86792428 L24.5557286,7.82616879 C23.872211,8.5200681 23.2668005,8.7999888 22.4916264,8.7999888 C20.7696018,8.7999888 19.5476227,7.53363467 19.5476227,5.73282768 C19.5476227,4.025651 20.8083366,2.6789268 22.4120846,2.6789268 C23.2275875,2.6789268 23.8449531,2.97404828 24.5557286,3.67942904 L24.5557286,1.63864381 C23.8052619,1.25247938 23.1880557,1.09254779 22.4524134,1.09254779 C19.8622831,1.09254779 17.7855881,3.16033866 17.7855881,5.74576451"
        id="Fill-12" fill="#231F1F"></path>
      <polygon id="Fill-13" fill="#231F1F"
               points="38.1118383 7.26639207 35.7743609 1.29345679 33.9066425 1.29345679 37.6262985 10.4137616 38.5463694 10.4137616 42.3329744 1.29345679 40.4796022 1.29345679"></polygon>
      <polygon id="Fill-14" fill="#231F1F"
               points="43.1060762 10.1856205 47.9547797 10.1856205 47.9547797 8.68025843 44.8143922 8.68025843 44.8143922 6.27999098 47.8390535 6.27999098 47.8390535 4.77382033 44.8143922 4.77382033 44.8143922 2.80014492 47.9547797 2.80014492 47.9547797 1.29348914 43.1060762 1.29348914"></polygon>
      <path
        d="M51.2942449,5.38731724 L50.794837,5.38731724 L50.794837,2.69419226 L51.3213433,2.69419226 C52.3861516,2.69419226 52.9649419,3.14665796 52.9649419,4.01213201 C52.9649419,4.90606709 52.3861516,5.38731724 51.2942449,5.38731724 M54.7242666,3.9186634 C54.7242666,2.25401656 53.5939439,1.29345679 51.6222951,1.29345679 L49.0871587,1.29345679 L49.0871587,10.1855882 L50.794837,10.1855882 L50.794837,6.61356719 L51.0178411,6.61356719 L53.3843297,10.1855882 L55.4868479,10.1855882 L52.7274322,6.4395668 C54.0152446,6.17387662 54.7242666,5.28026496 54.7242666,3.9186634"
        id="Fill-15" fill="#231F1F"></path>
    </g>
  </g>
</svg>
