<?xml version="1.0" encoding="UTF-8"?>
<svg width="48px" height="48px" viewBox="0 0 48 48" version="1.1" xmlns="http://www.w3.org/2000/svg"
     xmlns:xlink="http://www.w3.org/1999/xlink">
  <!-- Generator: Sketch 43.1 (39012) - http://www.bohemiancoding.com/sketch -->
  <title>empty-image</title>
  <desc>Created with Sketch.</desc>
  <defs></defs>
  <g id="UI-Kit" stroke="none" stroke-width="1" fill="none" fill-rule="evenodd">
    <g id="empty-image" fill-rule="nonzero" fill="#DDDDDD">
      <path
        d="M3.69230769,0 C1.66807385,0 0,1.8070795 0,3.99999889 L0,44.0000011 C0,46.1929338 1.66807385,48 3.69230769,48 L44.3076923,48 C46.3319262,48 48,46.1929338 48,44.0000011 L48,3.99999889 C48,1.8070795 46.3319262,7.57912041e-14 44.3076923,7.57912041e-14 L3.69230769,7.57912041e-14 L3.69230769,0 Z M3.69230769,2.66666593 L44.3076923,2.66666593 C45.0108123,2.66666593 45.5384615,3.23828577 45.5384615,3.99999889 L45.5384615,32.7708042 L37.7884615,24.3750066 C37.5514366,24.1206932 37.2292787,23.9814955 36.8957565,23.9892874 C36.5622343,23.9970792 36.2459152,24.1511932 36.0192308,24.4163399 L28.2692308,33.3954707 L16.25,20.374661 C15.9858063,20.0928923 15.6184535,19.9551351 15.25,19.9996611 C14.9926212,20.0291591 14.7503738,20.1457967 14.5576923,20.3329944 L2.46153846,32.2913377 L2.46153846,3.99966556 C2.46153846,3.23795243 2.98918769,2.66633259 3.69230769,2.66633259 L3.69230769,2.66666593 Z M27.6923077,6.66666481 C24.3082092,6.66666481 21.5384615,9.66722398 21.5384615,13.3333296 C21.5384615,16.9994286 24.3082092,19.9999944 27.6923077,19.9999944 C31.0764062,19.9999944 33.8461538,16.9994286 33.8461538,13.3333296 C33.8461538,9.66722398 31.0764062,6.66666481 27.6923077,6.66666481 Z M27.6923077,9.33333074 C29.7460923,9.33333074 31.3846154,11.1083969 31.3846154,13.3333296 C31.3846154,15.5582557 29.7460923,17.3333285 27.6923077,17.3333285 C25.6385231,17.3333285 24,15.5582557 24,13.3333296 C24,11.1083969 25.6385231,9.33333074 27.6923077,9.33333074 Z M15.3461538,23.1666736 L27.4423077,36.2708033 C27.6793326,36.5251166 28.0014905,36.6643143 28.3350127,36.6565225 C28.6685349,36.6487306 28.9848541,36.4946166 29.2115385,36.2294699 L36.9615385,27.2500058 L45.5384615,36.5416698 L45.5384615,44.0000011 C45.5384615,44.7617342 45.0108123,45.3333341 44.3076923,45.3333341 L3.69230769,45.3333341 C2.98918769,45.3333341 2.46153846,44.7617342 2.46153846,44.0000011 L2.46153846,35.91667 L15.3461538,23.1666736 L15.3461538,23.1666736 Z"
        id="Shape"></path>
    </g>
  </g>
</svg>
