<?xml version="1.0" standalone="no"?>
<!DOCTYPE svg PUBLIC "-//W3C//DTD SVG 20010904//EN"
 "http://www.w3.org/TR/2001/REC-SVG-20010904/DTD/svg10.dtd">
<svg version="1.0" xmlns="http://www.w3.org/2000/svg"
 width="75.000000pt" height="75.000000pt" viewBox="0 0 75.000000 75.000000"
 preserveAspectRatio="xMidYMid meet">

<g transform="translate(0.000000,75.000000) scale(0.100000,-0.100000)"
fill="#000000" stroke="none">
<path d="M145 711 c-118 -54 -162 -202 -95 -318 17 -29 39 -57 50 -63 19 -10
20 -21 20 -161 l0 -149 253 2 252 3 3 145 3 145 34 35 c109 112 78 297 -60
361 -55 25 -133 24 -188 -2 l-43 -21 -42 21 c-52 27 -132 27 -187 2z"/>
</g>
</svg>
