<?xml version="1.0" encoding="UTF-8"?>
<svg width="40px" height="32px" viewBox="0 0 40 32" version="1.1" xmlns="http://www.w3.org/2000/svg"
     xmlns:xlink="http://www.w3.org/1999/xlink">
  <!-- Generator: Sketch 43.1 (39012) - http://www.bohemiancoding.com/sketch -->
  <title>mastercard</title>
  <desc>Created with Sketch.</desc>
  <defs></defs>
  <g id="UI-Kit" stroke="none" stroke-width="1" fill="none" fill-rule="evenodd">
    <g id="mastercard" fill-rule="nonzero">
      <path
        d="M7.45271183,31.2032847 L7.45271183,29.1722721 C7.45271183,28.3937172 6.98374537,27.8859641 6.17980288,27.8859641 C5.77783163,27.8859641 5.34236278,28.0213649 5.04088434,28.4614177 C4.80640111,28.0890654 4.47142507,27.8859641 3.96896101,27.8859641 C3.63398497,27.8859641 3.29900893,27.9875147 3.0310281,28.359867 L3.0310281,27.9536645 L2.32757841,27.9536645 L2.32757841,31.2032847 L3.0310281,31.2032847 L3.0310281,29.4092236 C3.0310281,28.83377 3.33250653,28.5629683 3.80147299,28.5629683 C4.27043945,28.5629683 4.50492268,28.8676202 4.50492268,29.4092236 L4.50492268,31.2032847 L5.20837236,31.2032847 L5.20837236,29.4092236 C5.20837236,28.83377 5.5433484,28.5629683 5.97881725,28.5629683 C6.44778371,28.5629683 6.68226694,28.8676202 6.68226694,29.4092236 L6.68226694,31.2032847 L7.45271183,31.2032847 L7.45271183,31.2032847 Z M17.8704667,27.9536645 L16.7315481,27.9536645 L16.7315481,26.9720084 L16.0280985,26.9720084 L16.0280985,27.9536645 L15.391644,27.9536645 L15.391644,28.5968185 L16.0280985,28.5968185 L16.0280985,30.0862278 C16.0280985,30.8309324 16.3295769,31.2709851 17.1335194,31.2709851 C17.4349978,31.2709851 17.7699739,31.1694345 18.0044571,31.0340337 L17.8034715,30.4247299 C17.6024859,30.5601307 17.3680026,30.5939809 17.2005146,30.5939809 C16.8655386,30.5939809 16.7315481,30.3908797 16.7315481,30.0523776 L16.7315481,28.5968185 L17.8704667,28.5968185 L17.8704667,27.9536645 L17.8704667,27.9536645 Z M23.8330402,27.8859641 C23.431069,27.8859641 23.1630881,28.0890654 22.9956001,28.359867 L22.9956001,27.9536645 L22.2921504,27.9536645 L22.2921504,31.2032847 L22.9956001,31.2032847 L22.9956001,29.3753734 C22.9956001,28.83377 23.2300833,28.5291181 23.6655522,28.5291181 C23.7995426,28.5291181 23.9670306,28.5629683 24.101021,28.5968185 L24.3020067,27.9198143 C24.1680162,27.8859641 23.9670306,27.8859641 23.8330402,27.8859641 L23.8330402,27.8859641 L23.8330402,27.8859641 Z M14.8221847,28.2244662 C14.4872087,27.9875147 14.0182422,27.8859641 13.5157782,27.8859641 C12.7118357,27.8859641 12.175874,28.2921666 12.175874,28.9353206 C12.175874,29.476924 12.5778452,29.7815759 13.2812949,29.8831265 L13.616271,29.9169767 C13.9847446,29.9846771 14.1857302,30.0862278 14.1857302,30.2554788 C14.1857302,30.4924303 13.9177494,30.6616813 13.448783,30.6616813 C12.9798165,30.6616813 12.6113428,30.4924303 12.3768596,30.3231792 L12.0418836,30.8647826 C12.4103572,31.1355843 12.9128213,31.2709851 13.4152853,31.2709851 C14.3532183,31.2709851 14.8891799,30.8309324 14.8891799,30.2216286 C14.8891799,29.646175 14.4537111,29.3415231 13.783759,29.2399725 L13.448783,29.2061223 C13.1473045,29.1722721 12.9128213,29.1045717 12.9128213,28.9014704 C12.9128213,28.6645189 13.1473045,28.5291181 13.5157782,28.5291181 C13.9177494,28.5291181 14.3197207,28.6983691 14.5207063,28.7999198 L14.8221847,28.2244662 L14.8221847,28.2244662 Z M33.5138478,27.8859641 C33.1118765,27.8859641 32.8438957,28.0890654 32.6764077,28.359867 L32.6764077,27.9536645 L31.972958,27.9536645 L31.972958,31.2032847 L32.6764077,31.2032847 L32.6764077,29.3753734 C32.6764077,28.83377 32.9108909,28.5291181 33.3463597,28.5291181 C33.4803502,28.5291181 33.6478382,28.5629683 33.7818286,28.5968185 L33.9828142,27.9198143 C33.8488238,27.8859641 33.6478382,27.8859641 33.5138478,27.8859641 L33.5138478,27.8859641 L33.5138478,27.8859641 Z M24.5364899,29.5784746 C24.5364899,30.5601307 25.206442,31.2709851 26.2448677,31.2709851 C26.7138341,31.2709851 27.0488102,31.1694345 27.3837862,30.8986328 L27.0488102,30.3231792 C26.7808294,30.5262805 26.5128485,30.6278311 26.2113701,30.6278311 C25.6419108,30.6278311 25.2399396,30.2216286 25.2399396,29.5784746 C25.2399396,28.9691708 25.6419108,28.5629683 26.2113701,28.5291181 C26.5128485,28.5291181 26.7808294,28.6306687 27.0488102,28.83377 L27.3837862,28.2583164 C27.0488102,27.9875147 26.7138341,27.8859641 26.2448677,27.8859641 C25.206442,27.8859641 24.5364899,28.5968185 24.5364899,29.5784746 L24.5364899,29.5784746 L24.5364899,29.5784746 Z M31.0350251,29.5784746 L31.0350251,27.9536645 L30.3315754,27.9536645 L30.3315754,28.359867 C30.0970922,28.0552151 29.7621161,27.8859641 29.3266473,27.8859641 C28.422212,27.8859641 27.7187623,28.5968185 27.7187623,29.5784746 C27.7187623,30.5601307 28.422212,31.2709851 29.3266473,31.2709851 C29.7956137,31.2709851 30.1305898,31.1017341 30.3315754,30.7970822 L30.3315754,31.2032847 L31.0350251,31.2032847 L31.0350251,29.5784746 Z M28.4557096,29.5784746 C28.4557096,29.003021 28.8241832,28.5291181 29.4271401,28.5291181 C29.9965993,28.5291181 30.3985706,28.9691708 30.3985706,29.5784746 C30.3985706,30.1539282 29.9965993,30.6278311 29.4271401,30.6278311 C28.8241832,30.5939809 28.4557096,30.1539282 28.4557096,29.5784746 L28.4557096,29.5784746 Z M20.0478109,27.8859641 C19.109878,27.8859641 18.439926,28.5629683 18.439926,29.5784746 C18.439926,30.5939809 19.109878,31.2709851 20.0813085,31.2709851 C20.550275,31.2709851 21.0192415,31.1355843 21.3877151,30.8309324 L21.0527391,30.3231792 C20.7847582,30.5262805 20.4497822,30.6616813 20.1148062,30.6616813 C19.6793373,30.6616813 19.2438684,30.4585801 19.1433756,29.8831265 L21.5217055,29.8831265 L21.5217055,29.6123248 C21.5552031,28.5629683 20.9522463,27.8859641 20.0478109,27.8859641 L20.0478109,27.8859641 L20.0478109,27.8859641 Z M20.0478109,28.4952679 C20.4832798,28.4952679 20.7847582,28.7660696 20.8517534,29.2738227 L19.1768732,29.2738227 C19.2438684,28.83377 19.5453469,28.4952679 20.0478109,28.4952679 L20.0478109,28.4952679 Z M37.5000626,29.5784746 L37.5000626,26.6673565 L36.796613,26.6673565 L36.796613,28.359867 C36.5621297,28.0552151 36.2271537,27.8859641 35.7916848,27.8859641 C34.8872495,27.8859641 34.1837998,28.5968185 34.1837998,29.5784746 C34.1837998,30.5601307 34.8872495,31.2709851 35.7916848,31.2709851 C36.2606513,31.2709851 36.5956273,31.1017341 36.796613,30.7970822 L36.796613,31.2032847 L37.5000626,31.2032847 L37.5000626,29.5784746 Z M34.9207471,29.5784746 C34.9207471,29.003021 35.2892208,28.5291181 35.8921776,28.5291181 C36.4616369,28.5291181 36.8636082,28.9691708 36.8636082,29.5784746 C36.8636082,30.1539282 36.4616369,30.6278311 35.8921776,30.6278311 C35.2892208,30.5939809 34.9207471,30.1539282 34.9207471,29.5784746 L34.9207471,29.5784746 Z M11.4054291,29.5784746 L11.4054291,27.9536645 L10.7019794,27.9536645 L10.7019794,28.359867 C10.4674962,28.0552151 10.1325202,27.8859641 9.6970513,27.8859641 C8.79261599,27.8859641 8.08916631,28.5968185 8.08916631,29.5784746 C8.08916631,30.5601307 8.79261599,31.2709851 9.6970513,31.2709851 C10.1660178,31.2709851 10.5009938,31.1017341 10.7019794,30.7970822 L10.7019794,31.2032847 L11.4054291,31.2032847 L11.4054291,29.5784746 Z M8.79261599,29.5784746 C8.79261599,29.003021 9.16108964,28.5291181 9.76404651,28.5291181 C10.3335058,28.5291181 10.735477,28.9691708 10.735477,29.5784746 C10.735477,30.1539282 10.3335058,30.6278311 9.76404651,30.6278311 C9.16108964,30.5939809 8.79261599,30.1539282 8.79261599,29.5784746 Z"
        id="XMLID_1775_" fill="#000000"></path>
      <rect id="rect19" fill="#FF5F00" x="14.5877048" y="3.27686453" width="10.5517453"
            height="19.1592184"></rect>
      <path
        d="M15.2576536,12.8564707 C15.2576536,8.96369649 17.0665242,5.51097503 19.8468253,3.27686114 C17.8034715,1.65205104 15.224156,0.670394943 12.4103572,0.670394943 C5.74433402,0.670394943 0.351219776,6.12027882 0.351219776,12.8564707 C0.351219776,19.5926625 5.74433402,25.0425464 12.4103572,25.0425464 C15.224156,25.0425464 17.8034715,24.0608903 19.8468253,22.4360802 C17.0665242,20.2358165 15.2576536,16.7492449 15.2576536,12.8564707 Z"
        id="XMLID_330_" fill="#EB001B"></path>
      <path
        d="M39.3759285,12.8564707 C39.3759285,19.5926625 33.9828142,25.0425464 27.316791,25.0425464 C24.5029923,25.0425464 21.9236768,24.0608903 19.8803229,22.4360802 C22.6941217,20.2019663 24.4694947,16.7492449 24.4694947,12.8564707 C24.4694947,8.96369649 22.6606241,5.51097503 19.8803229,3.27686114 C21.9236768,1.65205104 24.5029923,0.670394943 27.316791,0.670394943 C33.9828142,0.670394943 39.3759285,6.15412903 39.3759285,12.8564707 Z"
        id="path22" fill="#F79E1B"></path>
    </g>
  </g>
</svg>
