<?xml version="1.0" encoding="UTF-8"?>
<svg width="112px" height="112px" viewBox="0 0 112 112" version="1.1" xmlns="http://www.w3.org/2000/svg"
     xmlns:xlink="http://www.w3.org/1999/xlink">
  <!-- Generator: Sketch 43.1 (39012) - http://www.bohemiancoding.com/sketch -->
  <title>taco-empty-menu</title>
  <desc>Created with Sketch.</desc>
  <defs></defs>
  <g id="UI-Kit" stroke="none" stroke-width="1" fill="none" fill-rule="evenodd">
    <g id="taco-empty-menu" fill="#263238">
      <path
        d="M92.3933928,48.6976 C94.2365374,46.2784 94.850919,43.4112 94.1487686,40.4544 C93.1833119,36.6016 89.9358666,33.2864 86.0740397,32.3904 C83.1776696,31.6736 80.2812994,32.3904 77.7360044,34.272 C75.8928598,30.4192 72.0310329,28.0896 67.3792869,28 C62.6397721,28 58.7779452,30.3296 57.198107,33.9136 C54.213968,32.928 51.1420603,32.3904 47.8068462,32.3904 L47.1924646,32.3904 C30.516394,32.3904 17,46.1888 17,63.2128 L17,75.1296 C17,80.0576 20.8618269,84 25.6891105,84 L83.9675887,84 C89.1459474,84 93.3588495,79.6992 93.3588495,74.4128 L93.3588495,62.7648 C93.3588495,62.5856 93.3588495,62.4064 93.2710807,62.3168 C95.9041445,57.7472 95.4653005,52.2816 92.3933928,48.6976 Z M67.3792869,31.6736 C70.6267322,31.6736 74.3130215,33.2864 75.2784782,37.856 C75.4540158,38.4832 75.8928598,39.0208 76.5950101,39.2 C77.2093917,39.3792 77.911542,39.1104 78.350386,38.6624 C80.895681,35.616 83.5287447,35.5264 85.2841206,35.9744 C87.9171844,36.6016 90.1114042,38.8416 90.8135545,41.44 C91.1646297,42.9632 91.1646297,45.2928 88.7948723,47.5328 C88.4437971,47.8912 88.1804907,48.4288 88.1804907,48.9664 C88.1804907,49.504 88.4437971,49.952 88.8826411,50.3104 C92.2178552,52.9984 92.1300864,57.568 90.3747105,60.704 C88.5315659,63.9296 84.3186639,66.528 78.1748484,64.1088 L78.1748484,63.392 C78.1748484,50.9376 70.9778074,40.2752 60.6210899,35.3472 C61.5865466,32.7488 64.6584543,31.6736 67.3792869,31.6736 Z M25.7768793,80.5952 C22.8805091,80.5952 20.5985205,78.176 20.5985205,75.3088 L20.5985205,63.3024 C20.5985205,48.2496 32.6228451,36.064 47.2802334,36.064 L47.894615,36.064 C62.6397721,36.064 74.5763279,48.3392 74.5763279,63.3024 L74.5763279,74.592 C74.5763279,76.832 75.366247,78.8928 76.5950101,80.5952 L25.7768793,80.5952 Z M84.0553575,80.5952 L83.8798199,80.5952 C80.6323746,80.5952 77.9993108,77.9072 77.9993108,74.592 L77.9993108,67.872 C79.6669179,68.4096 81.1589873,68.5888 82.563288,68.5888 C85.4596582,68.5888 87.9171844,67.6032 89.8480978,66.2592 L89.8480978,74.592 C89.9358666,77.9072 87.3028028,80.5952 84.0553575,80.5952 Z M37.0790273,56.0603826 C36.1580333,56.0603826 35.4114202,55.2981922 35.4114202,54.3579826 C35.4114202,53.4177731 36.1580333,52.6555826 37.0790273,52.6555826 C38.0000212,52.6555826 38.7466344,53.4177731 38.7466344,54.3579826 C38.7466344,55.2981922 38.0000212,56.0603826 37.0790273,56.0603826 Z M57.6676071,55.7526261 C56.7466131,55.7526261 56,54.9904356 56,54.0502261 C56,53.1100165 56.7466131,52.3478261 57.6676071,52.3478261 C58.588601,52.3478261 59.3352141,53.1100165 59.3352141,54.0502261 C59.3352141,54.9904356 58.588601,55.7526261 57.6676071,55.7526261 Z M38.9375,67.1304348 C38.9375,70.6086957 40.6785714,67.1304348 45.03125,67.1304348 C49.3839286,67.1304348 51.125,70.6086957 51.125,67.1304348 C51.125,63.6521739 38.9375,63.6521739 38.9375,67.1304348 Z"
        id="Combined-Shape"></path>
    </g>
  </g>
</svg>
