<?xml version="1.0" encoding="UTF-8"?>
<svg width="40px" height="16px" viewBox="0 0 40 16" version="1.1" xmlns="http://www.w3.org/2000/svg"
     xmlns:xlink="http://www.w3.org/1999/xlink">
  <!-- Generator: Sketch 43.1 (39012) - http://www.bohemiancoding.com/sketch -->
  <title>visa</title>
  <desc>Created with Sketch.</desc>
  <defs></defs>
  <g id="UI-Kit" stroke="none" stroke-width="1" fill="none" fill-rule="evenodd">
    <g id="visa" fill="#185588">
      <polyline id="Fill-75"
                points="11.8256407 12.4863818 15.4568443 0.368018182 18.6966467 0.368018182 15.0652096 12.4863818 11.8256407 12.4863818"></polyline>
      <path
        d="M10.3770359,0.371563636 L7.46254491,5.50869091 C6.72061078,6.85407273 6.28670659,7.53361818 6.07839521,8.38381818 L6.03402395,8.38381818 C6.08563473,7.30576364 5.93710778,5.9826 5.92332934,5.23474545 L5.60128743,0.371563636 L0.147359281,0.371563636 L0.0913113772,0.697745455 C1.49250898,0.697745455 2.32341916,1.40990909 2.5520479,2.86732727 L3.61508982,12.4863818 L6.97165868,12.4863818 L13.7588263,0.371563636 L10.3770359,0.371563636"
        id="Fill-76"></path>
      <path
        d="M35.2013533,5.33827273 C35.1653892,4.44269091 35.135497,3.22707273 35.1952814,2.49150909 L35.1476407,2.49150909 C34.9507725,3.09329091 34.103515,4.89958182 33.7310299,5.78830909 L32.5255329,8.44432727 L35.3662275,8.44432727 L35.2013533,5.33827273 Z M35.5731377,12.4863818 L35.4836946,10.6843455 L31.4382036,10.6810364 L30.6105629,12.4863818 L27.0928563,12.4863818 L33.4711078,0.391418182 L37.7888982,0.391418182 L38.8687545,12.4863818 L35.5731377,12.4863818 L35.5731377,12.4863818 Z"
        id="Fill-77"></path>
      <path
        d="M22.0980539,12.8305273 C19.8105988,12.8305273 18.2926347,12.0963818 17.2090419,11.4418909 L18.7524611,9.05603636 C19.7251257,9.60676364 20.489012,10.2423455 22.2468144,10.2423455 C22.8119641,10.2423455 23.3563293,10.0936727 23.6657605,9.55169091 C24.116479,8.76341818 23.5618383,8.33938182 22.2963234,7.61421818 L21.6711557,7.20294545 C19.7951856,5.90530909 18.9836587,4.67267273 19.8668802,2.52129091 C20.4317964,1.14541818 21.9226707,0.102109091 24.3817725,0.102109091 C26.0774551,0.102109091 27.6673473,0.844527273 28.594006,1.56992727 L26.8196228,3.67616364 C25.9151497,2.93634545 25.1662096,2.56170909 24.3084431,2.56170909 C23.6246587,2.56170909 23.1052814,2.8288 22.9256946,3.18878182 C22.5882395,3.86549091 23.0347545,4.32687273 24.0209641,4.94614545 L24.7642994,5.42478182 C27.0419461,6.87889091 27.5849102,8.40367273 27.0139222,9.82894545 C26.0316826,12.2828727 24.1092395,12.8305273 22.0980539,12.8305273"
        id="Fill-78"></path>
    </g>
  </g>
</svg>
