<?xml version="1.0" encoding="UTF-8"?>
<svg width="112px" height="112px" viewBox="0 0 112 112" version="1.1" xmlns="http://www.w3.org/2000/svg"
		 xmlns:xlink="http://www.w3.org/1999/xlink">
	<!-- Generator: Sketch 43.1 (39012) - http://www.bohemiancoding.com/sketch -->
	<title>burger-search-fail</title>
	<desc>Created with Sketch.</desc>
	<defs></defs>
	<g id="UI-Kit" stroke="none" stroke-width="1" fill="none" fill-rule="evenodd">
		<g id="burger-search-fail" fill-rule="nonzero" fill="#263238">
			<path
				d="M63.57721,56 L26.8845602,56 C24.7057805,56 22.9473684,57.790587 22.9473684,60.019526 L22.9473684,63.980474 C22.9473684,66.2123156 24.70722,68 26.8845602,68 L86.1154399,68 C88.2942195,68 90.0526316,66.209413 90.0526316,63.980474 L90.0526316,60.019526 C90.0526316,57.7876844 88.2927799,56 86.1154399,56 L84.9491057,56 L75.6587634,65.4142136 C74.8879916,66.1952622 73.6383242,66.1952622 72.8675524,65.4142136 L63.57721,56 Z M69.1596321,56 L74.2749921,61.1835648 L79.3760825,56 L69.1596321,56 Z M85.3406069,72 L27.6593932,72 L28.8596244,75.6487028 C29.6336374,78.0017024 32.361388,80 34.782547,80 L78.2174532,80 C80.6215793,80 83.3716517,77.9856228 84.1403757,75.6487028 L85.3406069,72 Z M89.8068432,71.0717514 L87.8851782,76.913614 C86.5798497,80.881812 82.3228304,84 78.2174532,84 L34.782547,84 C30.6600347,84 26.4254073,80.8977936 25.1148219,76.913614 L23.1930559,71.0714453 C20.6987502,69.7281632 19,67.06325 19,63.980474 L19,60.019526 C19,57.0375471 20.5941699,54.4357046 22.9688971,53.0538561 C23.6097416,38.9984451 38.4751195,28 56.5,28 C74.5249727,28 89.3904105,38.9985576 90.0311127,53.0540718 C92.4024785,54.4334605 94,57.030012 94,60.019526 L94,63.980474 C94,67.0553801 92.3049239,69.7260883 89.8068432,71.0717514 Z M85.9828338,52 C84.6192903,40.9051808 72.0306883,32 56.5,32 C40.9693117,32 28.3807097,40.9051808 27.0171662,52 L85.9828338,52 Z M40.7105263,48 C39.6204906,48 38.7368421,47.1045695 38.7368421,46 C38.7368421,44.8954305 39.6204906,44 40.7105263,44 C41.800562,44 42.6842105,44.8954305 42.6842105,46 C42.6842105,47.1045695 41.800562,48 40.7105263,48 Z M56.5,48 C55.4099643,48 54.5263158,47.1045695 54.5263158,46 C54.5263158,44.8954305 55.4099643,44 56.5,44 C57.5900357,44 58.4736842,44.8954305 58.4736842,46 C58.4736842,47.1045695 57.5900357,48 56.5,48 Z M48.6052632,40 C47.5152275,40 46.6315789,39.1045695 46.6315789,38 C46.6315789,36.8954305 47.5152275,36 48.6052632,36 C49.6952988,36 50.5789474,36.8954305 50.5789474,38 C50.5789474,39.1045695 49.6952988,40 48.6052632,40 Z M64.3947368,40 C63.3047012,40 62.4210526,39.1045695 62.4210526,38 C62.4210526,36.8954305 63.3047012,36 64.3947368,36 C65.4847725,36 66.3684211,36.8954305 66.3684211,38 C66.3684211,39.1045695 65.4847725,40 64.3947368,40 Z M72.2894737,48 C71.199438,48 70.3157895,47.1045695 70.3157895,46 C70.3157895,44.8954305 71.199438,44 72.2894737,44 C73.3795094,44 74.2631579,44.8954305 74.2631579,46 C74.2631579,47.1045695 73.3795094,48 72.2894737,48 Z"
				id="Combined-Shape"></path>
		</g>
	</g>
</svg>
