<svg height="512pt" viewBox="0 0 512 512" width="512pt" xmlns="http://www.w3.org/2000/svg">
	<g id="filter-on" fill="#263238">
		<path
			d="m208 512c-2.582031 0-5.183594-.617188-7.550781-1.898438-5.207031-2.773437-8.449219-8.214843-8.449219-14.101562v-150.675781c0-7.9375-3.5-15.402344-9.601562-20.480469l-161.277344-134.316406c-13.441406-11.179688-21.121094-27.605469-21.121094-45.078125v-70.78125c0-8.832031 7.167969-16 16-16s16 7.167969 16 16v70.78125c0 7.9375 3.5 15.402343 9.601562 20.480469l161.277344 134.316406c13.441406 11.179687 21.121094 27.605468 21.121094 45.078125v120.789062l61.632812-41.089843c1.472657-.980469 2.367188-2.644532 2.367188-4.4375v-75.261719c0-17.472657 7.679688-33.898438 21.097656-45.078125l161.324219-134.316406c6.078125-5.078126 9.578125-12.542969 9.578125-20.480469v-70.78125c0-8.832031 7.167969-16 16-16s16 7.167969 16 16v70.78125c0 17.472656-7.679688 33.898437-21.097656 45.078125l-161.324219 134.316406c-6.078125 5.078125-9.578125 12.542969-9.578125 20.480469v75.261719c0 12.503906-6.207031 24.128906-16.617188 31.0625l-86.507812 57.664062c-2.667969 1.792969-5.761719 2.6875-8.875 2.6875zm0 0"/>
		<path
			d="m256 149.332031c-95.082031 0-256-15.722656-256-74.664062 0-58.945313 160.917969-74.667969 256-74.667969s256 15.722656 256 74.667969c0 58.941406-160.917969 74.664062-256 74.664062zm0-117.332031c-139.390625 0-219.945312 27.945312-224.019531 42.921875 4.074219 14.464844 84.628906 42.410156 224.019531 42.410156 138.625 0 219.050781-27.625 223.957031-42.664062-4.90625-15.042969-85.332031-42.667969-223.957031-42.667969zm224.019531 42.921875h.214844zm0 0"/>
	</g>
</svg>
