<?xml version="1.0" encoding="UTF-8" standalone="no"?>
<!-- Generator: Adobe Illustrator 23.0.3, SVG Export Plug-In . SVG Version: 6.00 Build 0)  -->

<svg
	version="1.1"
	id="Layer_1"
	x="0px"
	y="0px"
	viewBox="0 0 901.1615 231.89999"
	xml:space="preserve"
	width="901.1615"
	height="231.89999"
	xmlns="http://www.w3.org/2000/svg"
	xmlns:svg="http://www.w3.org/2000/svg">
  <style type="text/css" id="style1598">
	  .st0{fill-rule:evenodd;clip-rule:evenodd;}
  </style>
	<g fill="#000" id="g1618" transform="translate(-61.338481,-351.7)">
    <g id="g1602">
      <polygon
				class="st0"
				points="487.1,537.5 487.1,582.7 330.3,582.7 330.3,351.7 487.1,351.7 487.1,397.6 384.3,397.6 384.3,444.3 472.3,444.3 472.3,486.5 384.3,486.5 384.3,537.5 "
				id="polygon1600"/>
    </g>
		<g id="g1606">
    <polygon
			class="st0"
			points="669,487.2 669,351.7 723.7,351.7 723.7,582.7 680,582.7 574.3,452.4 574.3,582.7 520.3,582.7 520.3,351.7 563.2,351.7 "
			id="polygon1604"/>
  </g>
		<g id="g1610">
    <path
			class="st0"
			d="m 962.5,351.7 v 116.2 c 0,15.5 -2.2,31.1 -5.9,45.9 -4.4,15.5 -11.1,27.4 -18.5,36.3 -8.9,9.6 -19.2,17.8 -32.5,23.7 -13.3,5.9 -28.1,8.9 -46.6,8.9 -19.2,0 -34.8,-3 -47.3,-9.6 -12.6,-5.2 -22.9,-14.1 -31.8,-24.4 -8.1,-9.6 -14,-21.5 -17.7,-36.3 -3.7,-15.5 -5.9,-30.4 -5.9,-44.4 V 351.7 h 54 v 116.2 c 0,8.1 0.7,16.3 2.2,24.4 1.5,8.9 4.4,15.5 8.1,20.7 3.7,6.7 8.9,11.8 14.8,14.8 5.9,4.4 13.3,6.7 22.9,6.7 9.6,0 17,-2.2 22.9,-5.9 6.7,-3.7 11.8,-9.6 15.5,-16.3 4.4,-7.4 6.7,-14.8 8.1,-20.7 1.5,-7.4 2.2,-15.5 2.2,-24.4 V 351.7 Z"
			id="path1608"/>
  </g>
		<path
			d="m 287.4,352.5 -0.5,-0.8 -203.4,154.4 c -11.7,8.8 -19.5,22.2 -21.8,37.6 -1.5,13.9 1.7,28.1 9,39.1 l 0.5,0.8 203.4,-153.7 c 14.3,-10.7 22.6,-27.5 22.6,-45.8 0,-11.8 -3.2,-22.1 -9.8,-31.6 z"
			id="path1612"/>
		<polygon
			points="197.5,511.4 297,583 297,439.9 "
			id="polygon1614"/>
		<polygon
			points="62.5,351.7 62.5,494.8 162.1,423.2 "
			id="polygon1616"/>
  </g>
	<rect
		style="opacity:0"
		id="rect1650"
		width="16.23"
		height="93.028"
		x="1.1615182"
		y="1.2207031e-05"
		rx="238.42999"/>
</svg>
