<?xml version="1.0" encoding="UTF-8"?>
<svg width="24px" height="24px" viewBox="0 0 24 24" version="1.1" xmlns="http://www.w3.org/2000/svg"
		 xmlns:xlink="http://www.w3.org/1999/xlink">
	<!-- Generator: Sketch 43.1 (39012) - http://www.bohemiancoding.com/sketch -->
	<title>password</title>
	<desc>Created with Sketch.</desc>
	<defs></defs>
	<g id="UI" stroke="none" stroke-width="1" fill="none" fill-rule="evenodd">
		<g id="password">
			<g>
				<rect id="Rectangle-5" x="0" y="0" width="24" height="24"></rect>
				<path
					d="M19.5,10.7927937 L19.5,22.5 L3.5,22.5 L3.5,10.7927937 L6.50208656,10.7927937 L6.50233184,6.75346967 C6.4407655,4.90010122 7.37797536,3.15889954 8.94910163,2.21173135 C10.5232252,1.26275622 12.4819153,1.26275622 14.0560389,2.21173135 C15.6271652,3.15889954 16.564375,4.90010122 16.5030843,6.73686952 L16.5030843,10.7927937 L19.5,10.7927937 Z M14.7477605,6.71868541 C14.7920214,5.50246867 14.180229,4.36002235 13.1550555,3.74047074 C12.1328901,3.12273709 10.8619694,3.12273709 9.83980401,3.74047074 C8.81463045,4.36002235 8.20283806,5.50246867 8.24709898,6.71868541 L8.24742975,10.7927937 L14.7474659,10.7927937 L14.7477605,6.71868541 Z M17.7494859,12.577396 L5.25051405,12.577396 L5.25051405,20.7310897 L17.7494859,20.7310897 L17.7494859,12.577396 Z"
					id="Shape" fill="#263238" fill-rule="nonzero"></path>
			</g>
		</g>
	</g>
</svg>
