<?xml version="1.0" encoding="UTF-8"?>
<svg width="112px" height="112px" viewBox="0 0 112 112" version="1.1" xmlns="http://www.w3.org/2000/svg"
		 xmlns:xlink="http://www.w3.org/1999/xlink">
	<!-- Generator: Sketch 43.1 (39012) - http://www.bohemiancoding.com/sketch -->
	<title>restaurant-menu</title>
	<desc>Created with Sketch.</desc>
	<defs></defs>
	<g id="UI-Kit" stroke="none" stroke-width="1" fill="none" fill-rule="evenodd">
		<g id="restaurant-menu" fill-rule="nonzero" fill="#263238">
			<path
				d="M91.9,6.3 C92.9185644,6.3 93.737449,7.073391 93.6,8 L93.6,104 C93.6,104.905249 92.8494014,105.7 91.9,105.7 L20.1,105.7 C19.1947515,105.7 18.4,104.949401 18.4,104 L18.4,8 C18.4,7.0947515 19.1505986,6.3 20.1,6.3 L91.9,6.3 Z M73.7,23.7623323 L75.6464466,21.7464466 C76.3417088,21.0511845 77.4582912,21.0511845 78.1535534,21.7464466 L80.2,23.7928932 L80.2,9.7 L73.7,9.7 L73.7,23.7623323 Z M21.8,102.2 L28.1,102.2 L28.1,9.7 L21.8,9.7 L21.8,102.2 Z M90.3,9.7 L83.8,9.7 L83.8,28 C83.8,28.7877001 83.3914672,29.3819296 82.7236068,29.6472136 C82.5845854,29.7167243 82.4625246,29.7589761 82.3321995,29.780697 C82.2314669,29.7974857 82.1660957,29.8 82,29.8 C81.5762842,29.8 81.0499867,29.5570935 80.7464466,29.2535534 L77,25.5071068 L73.2535534,29.2535534 C72.7161522,29.7909546 72.0052528,29.9406176 71.3143047,29.6642383 C70.6363982,29.3930758 70.2,28.7186422 70.2,28 L70.2,9.7 L31.7,9.7 L31.7,102.3 L90.3,102.3 L90.3,9.7 Z"
				id="Shape"></path>
			<path
				d="M54,55.1 C54.5646409,55.1 55,54.6844299 55,54.1 L55,40.4 C55,39.4947515 55.7505986,38.7 56.7,38.7 C57.6378308,38.7 58.3562694,39.4583519 58.5,40.5 L58.5,54.2 C58.5,56.2638186 57.0731304,58.0724808 55.1379686,58.5956715 L56.4,72.5 L56.4,72.7 C56.4,75.1761424 54.3761424,77.2 51.9,77.2 C49.4238576,77.2 47.4,75.1761424 47.4,72.7 C47.4,72.5 47.4,72.5 47.4020534,72.4547321 L48.6619695,58.5956547 C46.7268392,58.0724423 45.3,56.2637966 45.3,54.2 L45.3,40.5 C45.3,39.6238576 46.1238576,38.8 47,38.8 C47.9052485,38.8 48.7,39.5505986 48.7,40.5 L48.7,54.2 C48.7,54.7646409 49.1155701,55.2 49.7,55.2 L50.1,55.2 L50.1,40.5 C50.1,39.6238576 50.9238576,38.8 51.8,38.8 C52.7052485,38.8 53.5,39.5505986 53.5,40.5 L53.5,55.1 L54,55.1 Z M50.8,72.5 C50.8,73.0238576 51.2761424,73.5 51.8,73.5 C52.3646409,73.5 52.8,73.0844299 52.8020251,72.5449561 L51.7997664,61.4430132 L50.8,72.5 Z"
				id="Shape"></path>
			<path
				d="M74.2,72.4 C74.2,74.9761424 72.1761424,77 69.7,77 C67.2238576,77 65.2,74.9761424 65.2,72.5 L65.2,40.5 C65.2,39.891878 65.520716,39.330625 66.0763932,39.0527864 C66.6700443,38.7559608 67.1979734,38.6899697 67.7236068,38.9527864 C67.6886585,38.9353123 67.9437976,39.0546031 68.1074372,39.135824 C68.3889012,39.2755259 68.6905104,39.4369002 69.0124522,39.6242199 C69.920737,40.1526996 70.8204672,40.7871174 71.6628946,41.53656 C73.4003833,43.0822696 74.6739697,44.9186344 75.281103,47.0638388 C76.2222506,50.3055283 75.3895993,53.8103281 72.81505,57.4394794 L74.2,72.4 Z M72.02,47.94 C71.5367501,46.2831433 70.3384488,44.7745487 68.8,43.5762598 L68.8,72.5 C68.8,73.0646409 69.2155701,73.5 69.8,73.5 C70.3238576,73.5 70.8,73.0238576 70.8020271,72.5449782 L69.4066133,57.0957536 C69.2851885,56.6586391 69.4103731,56.2053705 69.7136988,55.8803439 C71.8208674,52.9004627 72.573914,50.2504598 72.02,47.94 Z"
				id="Shape"></path>
		</g>
	</g>
</svg>
