<svg width="1440" height="500" viewBox="0 0 1440 500" fill="none" xmlns="http://www.w3.org/2000/svg">
	<g clip-path="url(#clip0)">
		<rect width="1440" height="500" fill="#263238"/>
		<g opacity="0.1">
			<path fill-rule="evenodd" clip-rule="evenodd"
						d="M270.32 409.976C274.62 421.719 268.725 434.715 257.164 438.949C243.623 448.13 238.8 458.766 240.514 471.789C241.825 481.745 245.557 490.125 255.826 508.957C259.858 516.353 261.474 519.405 263.358 523.322C263.756 524.152 263.792 525.111 263.454 525.953C263.12 526.807 262.439 527.474 261.58 527.788L231.953 538.637C231.134 538.937 230.225 538.888 229.435 538.5C228.65 538.111 228.054 537.425 227.775 536.592C213.739 494.512 202.057 476.788 175.91 467.323C173.562 469.792 170.697 471.691 167.543 472.846C155.986 477.078 143.088 470.962 138.789 459.221C137.022 454.396 136.938 449.153 138.487 444.332C137.615 442.951 136.895 441.493 136.339 439.974C132.039 428.233 137.935 415.236 149.494 411.004C152.51 409.899 155.764 409.475 158.988 409.758C161.109 403.304 165.985 398.131 172.392 395.785C174.367 395.062 176.444 394.631 178.559 394.498C181.168 390.587 184.944 387.591 189.316 385.99C195.147 383.855 201.717 384.322 207.259 387.225C209.76 384.153 213.027 381.803 216.813 380.417C228.369 376.185 241.266 382.301 245.566 394.042C245.708 394.43 245.84 394.832 245.967 395.261C256.345 393.747 266.602 399.822 270.32 409.976ZM241.512 438.761C239.849 438.114 239.009 436.233 239.63 434.56C240.254 432.874 242.121 432.034 243.791 432.687C247.383 434.087 251.334 434.135 254.92 432.821C263.136 429.813 267.337 420.558 264.271 412.191C261.207 403.823 252.023 399.468 243.808 402.477C241.315 403.39 239.075 404.942 237.333 406.961C236.165 408.319 234.119 408.446 232.775 407.25C231.437 406.062 231.289 404.011 232.452 402.661C234.48 400.313 236.991 398.414 239.797 397.096C239.709 396.811 239.616 396.531 239.515 396.258C236.451 387.889 227.269 383.535 219.054 386.543C212 389.126 207.807 396.204 208.853 403.774C209.099 405.558 207.866 407.2 206.097 407.429C204.333 407.658 202.711 406.401 202.462 404.623C201.901 400.559 202.421 396.512 203.929 392.83C200.061 390.927 195.557 390.652 191.559 392.116C189.602 392.832 187.803 393.949 186.268 395.387C187.523 395.749 188.718 396.207 189.848 396.768C191.449 397.56 192.124 399.503 191.359 401.117C190.589 402.738 188.656 403.408 187.046 402.611C183.176 400.693 178.649 400.437 174.633 401.908C167.137 404.653 162.867 412.693 164.707 420.611C165.081 422.215 164.213 423.836 162.692 424.393C162.505 424.457 162.429 424.48 162.304 424.507C160.568 424.905 158.835 423.801 158.429 422.05C157.984 420.133 157.796 418.172 157.856 416.2C155.77 416.101 153.681 416.415 151.737 417.127C143.667 420.082 139.473 429.062 142.229 437.31C143.161 436.119 144.199 435.036 145.34 434.076C146.706 432.922 148.745 433.122 149.892 434.512C151.031 435.896 150.858 437.945 149.495 439.09C144.366 443.407 142.491 450.606 144.833 457.004C147.898 465.373 157.08 469.727 165.297 466.718C169.238 465.275 172.497 462.229 174.232 458.365C174.97 456.73 176.887 456.02 178.512 456.783C180.127 457.543 180.841 459.472 180.11 461.099C180.001 461.342 179.889 461.575 179.757 461.833C206.454 472.127 219.002 490.648 232.819 531.373L255.96 522.899C254.583 520.18 253.309 517.806 250.184 512.062C240.179 493.72 236.308 485.213 234.397 474.798C231.923 461.312 235.163 449.82 245.455 439.893C244.111 439.637 242.792 439.259 241.512 438.761ZM221.702 425.09C220.268 426.146 219.966 428.179 221.017 429.634C221.978 430.962 223.172 432.09 224.535 432.972C225.037 440.516 224.705 445.529 223.457 455.354C223.047 454.17 222.556 452.762 221.868 450.791C218.671 441.636 217.224 437.359 215.298 431.166C215.449 431 215.566 430.868 215.684 430.728C216.83 429.366 216.659 427.318 215.308 426.144C213.944 424.965 211.9 425.119 210.751 426.493C208.766 428.855 205.838 430.835 202.516 432.051C199.93 432.999 197.222 433.442 194.684 433.338C192.895 433.266 191.408 434.67 191.354 436.468C191.303 438.259 192.694 439.772 194.472 439.847C194.642 439.853 194.783 439.854 195.009 439.849C198.981 448.617 201.217 453.657 203.556 459.356C195.848 453.338 192.114 450.602 187.654 447.97C189.598 444.625 189.998 440.541 188.626 436.793C187.947 434.941 186.848 433.236 185.442 431.857C184.157 430.598 182.11 430.623 180.873 431.917C179.644 433.209 179.69 435.263 180.97 436.516C181.679 437.21 182.237 438.072 182.579 439.007C183.834 442.434 182.114 446.224 178.757 447.454C177.681 447.848 176.514 447.945 175.382 447.734C173.624 447.407 171.947 448.584 171.642 450.354C171.341 452.12 172.509 453.811 174.26 454.14C176.519 454.562 178.849 454.367 181 453.579C181.654 453.34 182.284 453.049 182.886 452.708C187.562 455.297 191.387 458.061 199.64 464.499C204.406 468.22 206.579 469.883 209.481 471.984C210.355 472.618 211.472 472.771 212.468 472.406C212.801 472.284 213.109 472.111 213.381 471.886C214.495 470.991 214.879 469.439 214.317 468.099C209.003 455.374 206.95 450.624 201.728 439.077C202.805 438.824 203.805 438.53 204.758 438.181C206.579 437.514 208.328 436.657 209.951 435.641C211.597 440.829 212.993 444.929 215.783 452.918C218.979 462.072 220.427 466.35 222.344 472.514C222.822 474.049 224.334 475.017 225.908 474.788C226.126 474.755 226.336 474.7 226.542 474.625C227.804 474.163 228.649 472.95 228.645 471.581C228.635 467.467 228.911 463.883 229.537 458.76C229.626 458.035 229.698 457.458 229.866 456.138C231.04 446.879 231.407 442.003 231.103 435.059C232.758 435.128 234.405 434.878 235.963 434.308C239.2 433.123 241.778 430.728 243.219 427.57C243.96 425.948 243.257 424.012 241.647 423.245C240.032 422.464 238.106 423.161 237.358 424.796C236.635 426.382 235.345 427.58 233.721 428.175C231.022 429.163 227.931 428.197 226.215 425.822C225.161 424.364 223.142 424.033 221.702 425.09Z"
						fill="white"/>
			<path fill-rule="evenodd" clip-rule="evenodd"
						d="M1163.96 119.13L1172.3 108.181C1173.08 107.154 1172.89 105.686 1171.86 104.903C1170.84 104.118 1169.37 104.317 1168.59 105.345L1158.99 117.955L1153.97 116.839L1162.27 105.948C1163.05 104.92 1162.85 103.453 1161.83 102.67C1160.8 101.885 1159.34 102.084 1158.56 103.112L1148.96 115.722L1125.52 110.503C1119.66 102.099 1109.02 98.6267 1103.07 97.3019C1100.6 96.7533 1098.97 96.5759 1098.9 96.568L1097.05 96.3714L1096.45 98.1343C1096.36 98.3839 1095.64 100.536 1095.02 103.752C1087.36 102.446 1079.91 107.381 1078.2 115.069C1072.31 141.513 1088.98 167.803 1115.35 173.674C1141.72 179.545 1167.97 162.808 1173.85 136.365C1175.52 128.86 1171.14 121.406 1163.96 119.13ZM1161.69 123.351C1167.09 124.553 1170.5 129.936 1169.3 135.351C1168.09 140.765 1162.72 144.192 1157.32 142.99L1147.46 140.796L1160.88 123.17L1161.69 123.35L1161.69 123.351ZM1155.87 122.054L1142.44 139.679L1137.43 138.563L1150.85 120.938L1155.87 122.054ZM1132.41 137.446L1122.4 135.216C1126.07 131.979 1130.99 124.534 1128.25 115.905L1145.84 119.821L1132.41 137.446ZM1100.32 101.519C1100.82 101.61 1101.4 101.725 1102.05 101.87C1107.49 103.081 1117.33 106.245 1122.15 113.834C1122.15 113.843 1122.16 113.85 1122.16 113.858C1127.9 122.921 1120.87 130.241 1119.41 131.616C1118.31 132.046 1114.32 133.416 1110.15 132.487C1106.89 131.762 1104.21 129.774 1102.18 126.579C1096.78 118.065 1099.13 106.083 1100.32 101.519ZM1094.34 108.376C1093.71 114.577 1094.08 122.521 1098.24 129.092C1098.44 129.4 1098.65 129.682 1098.85 129.974L1090.36 128.083C1084.96 126.881 1081.55 121.498 1082.75 116.083C1083.93 110.8 1089.07 107.422 1094.34 108.376ZM1116.36 169.106C1096.59 164.705 1082.86 147.618 1081.76 128.281C1083.72 130.405 1086.31 131.977 1089.34 132.65L1132.84 142.336C1132.84 142.336 1132.85 142.336 1132.85 142.336C1132.85 142.337 1132.85 142.337 1132.85 142.337L1142.87 144.569C1142.88 144.569 1142.88 144.569 1142.88 144.569C1142.88 144.57 1142.88 144.57 1142.88 144.57L1156.3 147.557C1159.32 148.231 1162.34 147.906 1165.01 146.814C1155.81 163.859 1136.13 173.508 1116.36 169.106Z"
						fill="white"/>
			<path fill-rule="evenodd" clip-rule="evenodd"
						d="M1149.65 411.998C1146.21 414.912 1145.06 419.679 1146.81 423.805C1148.47 427.729 1152.4 430.222 1156.66 430.143C1156.6 432.806 1157.58 435.4 1159.43 437.365C1161.42 439.477 1164.22 440.667 1167.14 440.643C1170.91 440.669 1174.4 438.676 1176.26 435.433C1178.05 432.315 1178.05 428.513 1176.3 425.401L1189.84 411.944C1190.1 411.949 1190.39 411.964 1190.93 411.996C1191.61 412.036 1191.95 412.051 1192.36 412.051C1218.91 412.051 1255.8 392.639 1259.12 371.819C1261.57 356.511 1259.11 348.451 1249.1 338.956C1248.43 338.339 1247.76 337.681 1246.89 336.802L1246.81 336.725L1246.81 336.724L1246.81 336.721L1246.81 336.717L1246.81 336.717C1246.46 336.365 1245.15 335.039 1244.75 334.635C1243.55 333.403 1243.13 332.973 1242.52 332.355C1236.08 325.858 1231.66 323.074 1225.78 323.002C1219.84 322.907 1213.54 326.281 1206.44 333.272C1189.67 349.788 1174.07 380.537 1174.86 397.557L1161.53 410.793C1157.72 408.714 1152.98 409.179 1149.65 411.998ZM1253.4 370.981C1251.86 380.17 1242.36 389.706 1227.21 397.112C1214.45 403.33 1199.71 406.944 1190.15 406.291C1188.91 404.855 1187.63 403.493 1186.24 402.144C1184.5 400.431 1182.66 398.783 1180.74 397.223C1180.01 382.336 1194.45 353.179 1210.55 337.344C1216.46 331.523 1221.34 328.749 1225.72 328.749C1230.21 328.749 1233.29 331.045 1240.56 338.617C1242.33 340.515 1243.69 341.892 1245.09 343.159C1253.7 351.308 1255.55 357.48 1253.4 370.981ZM1163.86 416.569C1162.7 417.675 1160.87 417.675 1159.71 416.567C1157.89 414.811 1154.97 414.811 1153.15 416.567L1152.69 417.012C1151.39 418.733 1151.46 421.159 1152.96 422.804C1154.6 424.618 1157.41 424.852 1159.34 423.338C1160.79 422.194 1164.66 426.036 1163.46 427.453C1161.98 429.266 1162.12 431.886 1163.76 433.518C1165.66 435.207 1168.55 435.207 1170.42 433.54C1172.21 431.75 1172.21 428.881 1170.42 427.083C1169.33 425.948 1169.33 424.168 1170.43 423.023L1184.71 408.892L1184.24 408.388C1183.35 407.443 1182.74 406.812 1182.13 406.205C1180.72 404.832 1179.41 403.653 1178.08 402.557L1163.86 416.569ZM1189.34 390.914C1189.16 391.69 1189.31 392.489 1189.75 393.139C1190.19 393.783 1190.87 394.225 1191.64 394.365C1192.39 394.536 1193.18 394.407 1193.83 394.006C1194.49 393.601 1194.95 392.952 1195.12 392.204C1197.6 382.378 1201.75 373.024 1207.4 364.551C1212.99 356.705 1219.84 349.787 1227.68 344.077C1228.24 344.132 1229.03 343.726 1229.56 343.063C1230.35 342.2 1230.57 340.921 1230.09 339.815C1229.63 338.832 1228.68 338.178 1227.61 338.081C1223.65 337.774 1208.7 352.158 1202.46 361.359C1196.39 370.394 1191.95 380.392 1189.34 390.914ZM1212.52 367.268C1217.67 359.684 1228.48 349.707 1231.74 349.707L1231.9 349.709C1232.96 349.805 1233.89 350.455 1234.35 351.435C1234.8 352.52 1234.58 353.767 1233.81 354.592C1233.3 355.249 1232.53 355.658 1231.99 355.61C1226.34 359.779 1221.4 364.8 1217.36 370.474C1213.22 376.657 1210.19 383.486 1208.37 390.669C1208.05 391.958 1206.87 392.857 1205.59 392.842C1205.39 392.862 1205.19 392.862 1204.94 392.834C1204.19 392.679 1203.53 392.234 1203.1 391.596C1202.68 390.957 1202.53 390.178 1202.7 389.415C1204.65 381.53 1207.98 374.037 1212.52 367.268ZM1233.92 363.441L1233.71 363.501C1231.24 363.564 1225.48 369.079 1222.73 373.11C1220.31 376.728 1218.54 380.725 1217.5 384.931C1217.34 385.694 1217.49 386.473 1217.91 387.112C1218.33 387.749 1218.99 388.194 1219.74 388.35C1220 388.379 1220.2 388.379 1220.4 388.358C1221.71 388.363 1222.9 387.417 1223.18 386.089C1224.06 382.599 1225.54 379.263 1227.56 376.242C1229.48 373.546 1231.83 371.145 1234.5 369.139C1234.95 369.085 1235.53 368.714 1235.94 368.185C1236.6 367.318 1236.75 366.184 1236.36 365.178C1235.91 364.189 1234.98 363.535 1233.92 363.441Z"
						fill="white"/>
			<path fill-rule="evenodd" clip-rule="evenodd"
						d="M679.165 470.357C680.51 470.357 681.601 469.254 681.601 467.894C681.601 463.228 685.354 459.434 689.966 459.434C689.983 459.434 689.999 459.431 690.015 459.429C690.028 459.427 690.041 459.426 690.054 459.425C689.953 460.091 689.883 460.769 689.883 461.465C689.883 462.824 690.975 463.928 692.319 463.928C693.664 463.928 694.755 462.824 694.755 461.465C694.755 456.8 698.508 453.006 703.12 453.006C704.796 453.006 706.414 453.505 707.795 454.449C708.913 455.212 710.425 454.912 711.177 453.787C711.93 452.66 711.638 451.127 710.523 450.366C709.366 449.576 708.104 448.988 706.782 448.604C706.885 448.329 706.948 448.035 706.948 447.723C706.948 443.059 710.701 439.264 715.314 439.264C719.406 439.264 722.814 442.251 723.534 446.181C723.194 446.605 722.983 447.137 722.983 447.723C722.983 449.083 724.074 450.186 725.419 450.186C729.998 450.186 733.806 453.549 734.578 457.958C734.319 458.341 734.176 458.771 734.154 459.21C733.621 459.888 733.451 460.826 733.803 461.683C734.32 462.939 735.748 463.536 736.988 463.01C740.051 461.722 743.426 461.714 746.494 462.993C749.562 464.272 751.952 466.681 753.227 469.777C753.617 470.724 754.523 471.295 755.478 471.295C755.79 471.295 756.107 471.234 756.413 471.105C757.655 470.583 758.243 469.14 757.726 467.884C755.95 463.572 752.622 460.217 748.351 458.439C746.15 457.521 743.836 457.087 741.527 457.121L768.447 423.862C769.298 422.81 769.145 421.257 768.105 420.396C767.064 419.534 765.53 419.689 764.677 420.743L738.209 453.443C737.84 452.663 737.407 451.922 736.91 451.227L755.791 415.627C756.425 414.428 755.981 412.935 754.796 412.292C753.612 411.65 752.134 412.101 751.497 413.298L733.27 447.665C731.805 446.676 730.147 445.957 728.368 445.575C727.346 439.214 721.891 434.336 715.316 434.336C708.017 434.336 702.079 440.341 702.079 447.722C702.079 447.861 702.097 447.995 702.119 448.128C697.535 448.478 693.592 451.188 691.497 455.068C691.078 454.723 690.549 454.506 689.967 454.506C682.668 454.506 676.73 460.51 676.73 467.893C676.729 469.254 677.82 470.357 679.165 470.357ZM696.706 520.386H680.415C679.07 520.386 677.979 521.489 677.979 522.849C677.979 524.209 679.07 525.312 680.415 525.312H754.3C755.645 525.312 756.736 524.209 756.736 522.849C756.736 521.489 755.645 520.386 754.3 520.386H738.01C753.232 512.692 763.714 496.782 763.714 478.434V476.767C763.714 475.407 762.623 474.303 761.278 474.303H673.436C672.091 474.303 671 475.407 671 476.767V478.434C671 496.782 681.483 512.692 696.706 520.386ZM758.838 479.23C758.416 501.996 739.972 520.386 717.359 520.386C694.746 520.386 676.302 501.996 675.881 479.23H758.838ZM702.786 463.438C704.777 461.053 707.567 459.596 710.642 459.334C713.728 459.071 716.711 460.037 719.065 462.051C720.093 462.928 720.222 464.482 719.355 465.522C718.487 466.56 716.948 466.692 715.923 465.814C714.559 464.65 712.832 464.092 711.05 464.243C709.273 464.395 707.659 465.237 706.508 466.617C706.027 467.193 705.337 467.49 704.645 467.49C704.09 467.49 703.532 467.299 703.075 466.908C702.048 466.032 701.918 464.477 702.786 463.438Z"
						fill="white"/>
			<path fill-rule="evenodd" clip-rule="evenodd"
						d="M162.871 210.227C162.885 210.265 162.898 210.305 162.91 210.343L163.198 211.155C165.754 218.586 166.922 225.776 166.681 232.563C166.685 232.635 166.685 232.705 166.682 232.773C165.998 251.737 154.49 265.049 135.11 269.303L135.09 269.307L134.714 269.387C115.255 273.371 99.3352 265.875 91.0159 248.821C90.9832 248.753 90.953 248.683 90.9244 248.613C87.9531 242.504 86.1029 235.465 85.4281 227.686L85.3576 226.79C85.3522 226.75 85.348 226.708 85.3446 226.67C84.6799 218.187 85.1888 211.145 86.901 205.143C87.9681 201.391 89.5106 198.118 91.5313 195.255C79.4353 188.954 74.1185 177.946 73.825 176.562C73.5545 175.286 74.206 174.028 75.3304 173.474C76.9048 172.642 81.6337 170.44 88.3032 169.986C84.4871 161.99 85.2233 155.262 85.4711 153.69C85.6242 152.547 86.4828 151.571 87.68 151.317C88.286 151.189 93.089 151.173 98.6444 153.345C98.1371 141.728 104.267 134.72 104.567 134.385C104.599 134.35 104.634 134.32 104.668 134.29L104.668 134.29L104.668 134.29C104.691 134.271 104.714 134.251 104.735 134.23C104.766 134.201 104.797 134.173 104.828 134.145C104.933 134.054 105.04 133.972 105.154 133.899C105.199 133.871 105.241 133.846 105.286 133.821C105.393 133.76 105.5 133.706 105.613 133.66C105.679 133.633 105.744 133.61 105.812 133.588C105.905 133.557 105.999 133.531 106.095 133.511C106.19 133.491 106.287 133.476 106.385 133.464L106.424 133.461C106.482 133.456 106.538 133.451 106.597 133.45C106.717 133.446 106.838 133.452 106.96 133.463C107.012 133.469 107.062 133.475 107.113 133.482C107.246 133.504 107.378 133.534 107.511 133.575C107.551 133.588 107.59 133.601 107.63 133.615C107.658 133.625 107.687 133.634 107.715 133.642C107.759 133.655 107.803 133.668 107.846 133.688C108.256 133.872 116.704 137.789 120.955 148.61C125.151 144.371 129.544 142.437 130.15 142.308C131.349 142.054 132.528 142.599 133.132 143.58C134.006 144.932 137.403 150.778 137.161 159.622C143.466 157.319 148.701 157.423 150.435 157.544C151.686 157.594 152.791 158.478 153.062 159.754C153.087 159.87 153.6 172.599 144.467 184.031C147.486 185.831 150.224 188.194 152.714 191.187C156.714 195.971 160.038 202.201 162.871 210.227ZM91.1673 228.503C91.7991 234.431 93.1775 239.846 95.286 244.633L95.352 244.647C95.5197 244.681 95.6883 244.714 95.8485 244.799L107.546 251.021L115.718 240.585C116.365 239.761 117.512 239.516 118.439 240.009L130.132 246.231L138.304 235.795C138.951 234.972 140.098 234.726 141.023 235.218L152.738 241.438L160.916 230.999C160.941 230.968 160.972 230.945 161.003 230.923C161.015 230.914 161.027 230.905 161.039 230.896C161.052 230.886 161.064 230.875 161.076 230.863C161.081 225.588 160.145 220.021 158.296 214.272L149.886 225.006C149.258 225.807 148.14 226.047 147.238 225.568L135.824 219.509L127.858 229.678C127.228 230.48 126.109 230.719 125.208 230.238L113.818 224.177L105.855 234.344C105.542 234.746 105.105 235.006 104.634 235.106C104.163 235.206 103.658 235.146 103.207 234.906L91.1673 228.503ZM80.4603 177.31C83.0954 176.332 87.5032 175.175 92.921 175.571C93.989 175.648 95.0163 175.113 95.5604 174.187C96.1019 173.263 96.0682 172.114 95.4735 171.225C91.6138 165.482 90.9002 160.115 90.8729 157.059C93.2653 157.401 96.9931 158.287 100.578 160.564C101.531 161.171 102.763 161.146 103.693 160.505C104.625 159.863 105.08 158.727 104.847 157.625C103.02 149.014 105.705 142.863 107.459 139.958C110.234 141.901 115.202 146.452 117.024 155.042C117.258 156.145 118.135 156.998 119.248 157.206C120.356 157.415 121.494 156.937 122.119 155.996C124.468 152.463 127.517 150.14 129.564 148.854C130.779 151.657 132.307 156.852 131.111 163.667C130.927 164.721 131.362 165.785 132.234 166.409C133.106 167.035 134.262 167.109 135.208 166.603C139.999 164.042 144.494 163.311 147.302 163.134C146.81 167.114 145.097 174.779 139.209 181.579C138.167 181.215 137.105 180.884 135.999 180.628C134.034 180.18 131.956 179.916 129.762 179.823L131.752 174.187C132.136 173.098 131.562 171.908 130.468 171.529C129.379 171.151 128.176 171.725 127.792 172.813L125.299 179.87C123.117 179.996 120.82 180.275 118.396 180.703L115.896 168.914C115.657 167.787 114.543 167.068 113.409 167.309C112.275 167.549 111.548 168.657 111.788 169.786L114.286 181.567C111.869 182.155 109.632 182.829 107.566 183.596L102.454 178.187C101.66 177.347 100.33 177.31 99.4855 178.099C98.6397 178.889 98.5979 180.21 99.3891 181.049L103.455 185.352C101.561 186.282 99.8276 187.309 98.2637 188.452C97.2209 189.209 96.2639 190.032 95.3506 190.887C87.2016 187.062 82.5234 180.749 80.4603 177.31ZM117.159 186.626C110.531 188.073 105.427 190.145 101.575 192.958C97.3851 195.998 94.5019 200.042 92.7566 205.259L100.427 209.603L107.786 199.664C108.416 198.81 109.594 198.56 110.517 199.085L121.278 205.18L128.648 195.239C129.281 194.386 130.453 194.137 131.378 194.66L142.154 200.755L147.407 193.673C143.796 189.719 139.638 187.217 134.715 186.076C129.967 184.99 124.339 185.144 117.519 186.55L117.159 186.626ZM91.6503 209.438L99.9687 214.149C100.894 214.673 102.069 214.424 102.699 213.57L110.059 203.631L120.819 209.727C121.741 210.252 122.916 210.003 123.549 209.148L130.92 199.205L141.695 205.299C142.158 205.561 142.682 205.629 143.17 205.526C143.658 205.423 144.11 205.147 144.427 204.72L150.121 197.043C152.62 200.563 154.875 204.954 156.848 210.154C156.387 210.255 155.948 210.484 155.634 210.886L147.666 221.056L136.251 214.996C135.351 214.519 134.234 214.757 133.603 215.558L125.639 225.726L114.247 219.665C113.346 219.184 112.227 219.423 111.597 220.225L103.635 230.393L92.2377 224.331C91.7832 224.089 91.2859 224.058 90.8193 224.157C90.5179 218.6 90.797 213.67 91.6503 209.438ZM133.577 263.912L133.922 263.839C148.669 260.6 157.885 251.744 160.397 238.626L155.021 245.489C154.375 246.312 153.228 246.558 152.302 246.066L140.585 239.847L132.412 250.284C131.765 251.108 130.616 251.354 129.691 250.86L118 244.638L109.829 255.074C109.506 255.486 109.058 255.754 108.574 255.856C108.091 255.959 107.572 255.897 107.109 255.65L98.942 251.308C106.548 262.5 118.647 266.97 133.577 263.912Z"
						fill="white"/>
			<path fill-rule="evenodd" clip-rule="evenodd"
						d="M1412.83 153.179C1406.67 146.75 1399.31 144.916 1392.29 147.681C1390.68 140.456 1387.64 134.846 1383.25 131.401C1377.14 126.851 1369.46 126.829 1361.33 131.533C1353.61 136.045 1346.33 144.637 1341.29 155.761C1336.26 166.886 1333.55 178.955 1334.14 189.739C1334.64 201.041 1338.3 209.697 1344.37 214.506C1346.56 216.229 1349.08 217.207 1351.68 217.668C1358.39 218.852 1365.83 215.895 1372.98 209.147C1375.15 218.608 1378.94 226.487 1384.17 231.683C1387.77 235.255 1391.59 237.532 1395.69 238.256C1398.86 238.816 1402.02 238.306 1405.32 237.021C1412.58 234.03 1418.7 226.567 1422.34 215.731C1426.12 205.186 1427.11 193.078 1425.4 181.028C1423.4 169.463 1419.04 159.349 1412.83 153.179ZM1346.58 209.559C1341.5 205.724 1338.59 198.268 1338.14 188.845C1337.74 179.162 1340.07 168.096 1344.7 158.233C1349.32 148.371 1355.67 140.683 1362.74 136.591C1369.57 132.724 1375.94 132.516 1381.03 136.351C1384.58 139.113 1387.2 143.848 1388.47 149.68C1382.81 153.484 1377.99 160.108 1374.85 169.165C1371.07 179.71 1370.08 191.817 1371.79 203.867C1371.79 203.867 1371.75 204.126 1371.94 204.158C1362.93 212.713 1353.35 214.758 1346.58 209.559ZM1418.42 213.972C1415.29 223.029 1410.14 229.329 1404.1 231.999C1398.1 234.411 1391.86 232.774 1386.49 227.287C1380.98 221.508 1377.18 212.56 1375.61 201.87C1374.04 191.181 1375.03 180.142 1378.4 170.859C1381.53 161.801 1386.68 155.502 1392.72 152.831C1395.42 151.706 1397.98 151.357 1400.59 151.817C1403.94 152.41 1407.25 154.329 1410.33 157.544C1415.84 163.323 1419.64 172.27 1421.21 182.96C1422.78 193.65 1421.79 204.688 1418.42 213.972ZM1475.83 157.633C1464.17 123.537 1447.42 109.631 1429.77 106.246C1446.45 97.7132 1458.73 80.3928 1458.96 80.1668L1462.3 75.4165L1457.65 75.6624C1456.3 75.6909 1424.93 78.1601 1396.33 101.943L1392.94 104.815L1396.25 106.734C1397.47 107.483 1398.72 107.972 1399.94 108.72C1394.08 110.355 1388.27 112.799 1383.06 115.083C1375.1 114.478 1366.63 114.583 1357.69 115.141C1361.87 112.142 1366.56 109.5 1371.49 106.632C1390.72 95.6128 1412.52 83.1761 1425.04 40.536L1426.47 35.7156L1422.98 36.9685C1394.99 47.5096 1376.17 72.4854 1361.54 95.5302L1364.39 98.9704C1377.13 79.061 1392.79 57.7999 1414.96 46.4976C1401.84 62.0672 1373.41 94.6895 1352.8 113.476C1351.68 114.347 1350.52 115.477 1349.41 116.348C1339.36 117.777 1328.75 120.175 1317.78 123.576L1318.17 128.984C1397.59 103.5 1449.98 140.787 1466.93 155.794C1438.34 152.346 1431.48 147.664 1416.69 137.844C1415.34 136.804 1413.75 135.99 1412.22 134.917L1410.18 139.898C1411.72 140.97 1413.26 142.043 1414.66 142.824C1427.21 151.181 1434.44 155.929 1454 159.384C1459.59 160.371 1465.97 161.231 1473.89 162.096L1477.66 162.495L1475.83 157.633ZM1451.94 81.8635C1443.22 92.0705 1422.52 112.443 1401.83 103.448C1421.52 88.7711 1442.22 83.6168 1451.94 81.8635ZM1371.56 100.773C1389.19 82.5285 1407.79 60.984 1417.48 49.6139C1405.66 80.6323 1387.78 91.6231 1371.56 100.773ZM1393.44 116.116C1400 113.804 1406.7 111.782 1413.54 111.122C1414.33 110.994 1415.07 111.126 1415.86 110.999C1435.32 109.629 1454.38 118.069 1467.94 150.1C1456.31 139.77 1430.7 121.629 1393.44 116.116ZM1355.84 148.452L1358.23 152.345C1355.58 155.348 1353.17 159.195 1351.32 163.139C1347.95 170.286 1346.16 178.246 1346.23 185.466L1342.27 186.103C1342.2 177.814 1344.17 168.818 1348.1 160.702C1350.05 156.239 1352.73 151.908 1355.84 148.452ZM1417.54 200.466C1417 204.642 1416.12 208.494 1414.93 212.02L1411.43 210.067C1412.54 207.059 1413.32 203.725 1413.58 200.034L1417.54 200.466ZM1417.79 191.434L1413.79 192.33C1413.79 190.193 1413.55 188.282 1413.35 186.112C1412.55 180.897 1411.09 176.1 1408.93 171.982L1412.27 168.301C1414.75 172.744 1416.45 178.382 1417.31 184.407C1417.45 186.836 1417.79 189.297 1417.79 191.434Z"
						fill="white"/>
		</g>
		<path
			d="M477.603 306.578L477.594 308H469.647V295.103H477.594V296.525H471.393V300.809H476.415V302.177H471.393V306.578H477.603ZM480.924 300.206C481.122 299.984 481.332 299.783 481.554 299.603C481.776 299.423 482.01 299.27 482.256 299.144C482.508 299.012 482.772 298.913 483.048 298.847C483.33 298.775 483.633 298.739 483.957 298.739C484.455 298.739 484.893 298.823 485.271 298.991C485.655 299.153 485.973 299.387 486.225 299.693C486.483 299.993 486.678 300.356 486.81 300.782C486.942 301.208 487.008 301.679 487.008 302.195V308H485.397V302.195C485.397 301.505 485.238 300.971 484.92 300.593C484.608 300.209 484.131 300.017 483.489 300.017C483.015 300.017 482.571 300.131 482.157 300.359C481.749 300.587 481.371 300.896 481.023 301.286V308H479.412V298.883H480.375C480.603 298.883 480.744 298.994 480.798 299.216L480.924 300.206ZM492.125 308.144C491.405 308.144 490.85 307.943 490.46 307.541C490.076 307.139 489.884 306.56 489.884 305.804V300.224H488.786C488.69 300.224 488.609 300.197 488.543 300.143C488.477 300.083 488.444 299.993 488.444 299.873V299.234L489.938 299.045L490.307 296.228C490.325 296.138 490.364 296.066 490.424 296.012C490.49 295.952 490.574 295.922 490.676 295.922H491.486V299.063H494.123V300.224H491.486V305.696C491.486 306.08 491.579 306.365 491.765 306.551C491.951 306.737 492.191 306.83 492.485 306.83C492.653 306.83 492.797 306.809 492.917 306.767C493.043 306.719 493.151 306.668 493.241 306.614C493.331 306.56 493.406 306.512 493.466 306.47C493.532 306.422 493.589 306.398 493.637 306.398C493.721 306.398 493.796 306.449 493.862 306.551L494.33 307.316C494.054 307.574 493.721 307.778 493.331 307.928C492.941 308.072 492.539 308.144 492.125 308.144ZM501.826 302.447C501.826 302.075 501.772 301.736 501.664 301.43C501.562 301.118 501.409 300.851 501.205 300.629C501.007 300.401 500.764 300.227 500.476 300.107C500.188 299.981 499.861 299.918 499.495 299.918C498.727 299.918 498.118 300.143 497.668 300.593C497.224 301.037 496.948 301.655 496.84 302.447H501.826ZM503.122 306.722C502.924 306.962 502.687 307.172 502.411 307.352C502.135 307.526 501.838 307.67 501.52 307.784C501.208 307.898 500.884 307.982 500.548 308.036C500.212 308.096 499.879 308.126 499.549 308.126C498.919 308.126 498.337 308.021 497.803 307.811C497.275 307.595 496.816 307.283 496.426 306.875C496.042 306.461 495.742 305.951 495.526 305.345C495.31 304.739 495.202 304.043 495.202 303.257C495.202 302.621 495.298 302.027 495.49 301.475C495.688 300.923 495.97 300.446 496.336 300.044C496.702 299.636 497.149 299.318 497.677 299.09C498.205 298.856 498.799 298.739 499.459 298.739C500.005 298.739 500.509 298.832 500.971 299.018C501.439 299.198 501.841 299.462 502.177 299.81C502.519 300.152 502.786 300.578 502.978 301.088C503.17 301.592 503.266 302.168 503.266 302.816C503.266 303.068 503.239 303.236 503.185 303.32C503.131 303.404 503.029 303.446 502.879 303.446H496.786C496.804 304.022 496.882 304.523 497.02 304.949C497.164 305.375 497.362 305.732 497.614 306.02C497.866 306.302 498.166 306.515 498.514 306.659C498.862 306.797 499.252 306.866 499.684 306.866C500.086 306.866 500.431 306.821 500.719 306.731C501.013 306.635 501.265 306.533 501.475 306.425C501.685 306.317 501.859 306.218 501.997 306.128C502.141 306.032 502.264 305.984 502.366 305.984C502.498 305.984 502.6 306.035 502.672 306.137L503.122 306.722ZM506.755 300.71C507.043 300.086 507.397 299.6 507.817 299.252C508.237 298.898 508.75 298.721 509.356 298.721C509.548 298.721 509.731 298.742 509.905 298.784C510.085 298.826 510.244 298.892 510.382 298.982L510.265 300.179C510.229 300.329 510.139 300.404 509.995 300.404C509.911 300.404 509.788 300.386 509.626 300.35C509.464 300.314 509.281 300.296 509.077 300.296C508.789 300.296 508.531 300.338 508.303 300.422C508.081 300.506 507.88 300.632 507.7 300.8C507.526 300.962 507.367 301.166 507.223 301.412C507.085 301.652 506.959 301.928 506.845 302.24V308H505.234V298.883H506.152C506.326 298.883 506.446 298.916 506.512 298.982C506.578 299.048 506.623 299.162 506.647 299.324L506.755 300.71ZM520.95 303.896C520.212 303.92 519.582 303.98 519.06 304.076C518.544 304.166 518.121 304.286 517.791 304.436C517.467 304.586 517.23 304.763 517.08 304.967C516.936 305.171 516.864 305.399 516.864 305.651C516.864 305.891 516.903 306.098 516.981 306.272C517.059 306.446 517.164 306.59 517.296 306.704C517.434 306.812 517.593 306.893 517.773 306.947C517.959 306.995 518.157 307.019 518.367 307.019C518.649 307.019 518.907 306.992 519.141 306.938C519.375 306.878 519.594 306.794 519.798 306.686C520.008 306.578 520.206 306.449 520.392 306.299C520.584 306.149 520.77 305.978 520.95 305.786V303.896ZM515.775 300.17C516.279 299.684 516.822 299.321 517.404 299.081C517.986 298.841 518.631 298.721 519.339 298.721C519.849 298.721 520.302 298.805 520.698 298.973C521.094 299.141 521.427 299.375 521.697 299.675C521.967 299.975 522.171 300.338 522.309 300.764C522.447 301.19 522.516 301.658 522.516 302.168V308H521.805C521.649 308 521.529 307.976 521.445 307.928C521.361 307.874 521.295 307.772 521.247 307.622L521.067 306.758C520.827 306.98 520.593 307.178 520.365 307.352C520.137 307.52 519.897 307.664 519.645 307.784C519.393 307.898 519.123 307.985 518.835 308.045C518.553 308.111 518.238 308.144 517.89 308.144C517.536 308.144 517.203 308.096 516.891 308C516.579 307.898 516.306 307.748 516.072 307.55C515.844 307.352 515.661 307.103 515.523 306.803C515.391 306.497 515.325 306.137 515.325 305.723C515.325 305.363 515.424 305.018 515.622 304.688C515.82 304.352 516.141 304.055 516.585 303.797C517.029 303.539 517.608 303.329 518.322 303.167C519.036 302.999 519.912 302.903 520.95 302.879V302.168C520.95 301.46 520.797 300.926 520.491 300.566C520.185 300.2 519.738 300.017 519.15 300.017C518.754 300.017 518.421 300.068 518.151 300.17C517.887 300.266 517.656 300.377 517.458 300.503C517.266 300.623 517.098 300.734 516.954 300.836C516.816 300.932 516.678 300.98 516.54 300.98C516.432 300.98 516.339 300.953 516.261 300.899C516.183 300.839 516.117 300.767 516.063 300.683L515.775 300.17ZM530.897 301.052C530.597 300.65 530.273 300.371 529.925 300.215C529.577 300.053 529.187 299.972 528.755 299.972C527.909 299.972 527.258 300.275 526.802 300.881C526.346 301.487 526.118 302.351 526.118 303.473C526.118 304.067 526.169 304.577 526.271 305.003C526.373 305.423 526.523 305.771 526.721 306.047C526.919 306.317 527.162 306.515 527.45 306.641C527.738 306.767 528.065 306.83 528.431 306.83C528.959 306.83 529.418 306.71 529.808 306.47C530.204 306.23 530.567 305.891 530.897 305.453V301.052ZM532.499 294.743V308H531.545C531.317 308 531.173 307.889 531.113 307.667L530.969 306.56C530.579 307.028 530.135 307.406 529.637 307.694C529.139 307.982 528.563 308.126 527.909 308.126C527.387 308.126 526.913 308.027 526.487 307.829C526.061 307.625 525.698 307.328 525.398 306.938C525.098 306.548 524.867 306.062 524.705 305.48C524.543 304.898 524.462 304.229 524.462 303.473C524.462 302.801 524.552 302.177 524.732 301.601C524.912 301.019 525.17 300.515 525.506 300.089C525.842 299.663 526.253 299.33 526.739 299.09C527.231 298.844 527.783 298.721 528.395 298.721C528.953 298.721 529.43 298.817 529.826 299.009C530.228 299.195 530.585 299.456 530.897 299.792V294.743H532.499ZM540.969 301.052C540.669 300.65 540.345 300.371 539.997 300.215C539.649 300.053 539.259 299.972 538.827 299.972C537.981 299.972 537.33 300.275 536.874 300.881C536.418 301.487 536.19 302.351 536.19 303.473C536.19 304.067 536.241 304.577 536.343 305.003C536.445 305.423 536.595 305.771 536.793 306.047C536.991 306.317 537.234 306.515 537.522 306.641C537.81 306.767 538.137 306.83 538.503 306.83C539.031 306.83 539.49 306.71 539.88 306.47C540.276 306.23 540.639 305.891 540.969 305.453V301.052ZM542.571 294.743V308H541.617C541.389 308 541.245 307.889 541.185 307.667L541.041 306.56C540.651 307.028 540.207 307.406 539.709 307.694C539.211 307.982 538.635 308.126 537.981 308.126C537.459 308.126 536.985 308.027 536.559 307.829C536.133 307.625 535.77 307.328 535.47 306.938C535.17 306.548 534.939 306.062 534.777 305.48C534.615 304.898 534.534 304.229 534.534 303.473C534.534 302.801 534.624 302.177 534.804 301.601C534.984 301.019 535.242 300.515 535.578 300.089C535.914 299.663 536.325 299.33 536.811 299.09C537.303 298.844 537.855 298.721 538.467 298.721C539.025 298.721 539.502 298.817 539.898 299.009C540.3 299.195 540.657 299.456 540.969 299.792V294.743H542.571ZM546.622 300.71C546.91 300.086 547.264 299.6 547.684 299.252C548.104 298.898 548.617 298.721 549.223 298.721C549.415 298.721 549.598 298.742 549.772 298.784C549.952 298.826 550.111 298.892 550.249 298.982L550.132 300.179C550.096 300.329 550.006 300.404 549.862 300.404C549.778 300.404 549.655 300.386 549.493 300.35C549.331 300.314 549.148 300.296 548.944 300.296C548.656 300.296 548.398 300.338 548.17 300.422C547.948 300.506 547.747 300.632 547.567 300.8C547.393 300.962 547.234 301.166 547.09 301.412C546.952 301.652 546.826 301.928 546.712 302.24V308H545.101V298.883H546.019C546.193 298.883 546.313 298.916 546.379 298.982C546.445 299.048 546.49 299.162 546.514 299.324L546.622 300.71ZM557.391 302.447C557.391 302.075 557.337 301.736 557.229 301.43C557.127 301.118 556.974 300.851 556.77 300.629C556.572 300.401 556.329 300.227 556.041 300.107C555.753 299.981 555.426 299.918 555.06 299.918C554.292 299.918 553.683 300.143 553.233 300.593C552.789 301.037 552.513 301.655 552.405 302.447H557.391ZM558.687 306.722C558.489 306.962 558.252 307.172 557.976 307.352C557.7 307.526 557.403 307.67 557.085 307.784C556.773 307.898 556.449 307.982 556.113 308.036C555.777 308.096 555.444 308.126 555.114 308.126C554.484 308.126 553.902 308.021 553.368 307.811C552.84 307.595 552.381 307.283 551.991 306.875C551.607 306.461 551.307 305.951 551.091 305.345C550.875 304.739 550.767 304.043 550.767 303.257C550.767 302.621 550.863 302.027 551.055 301.475C551.253 300.923 551.535 300.446 551.901 300.044C552.267 299.636 552.714 299.318 553.242 299.09C553.77 298.856 554.364 298.739 555.024 298.739C555.57 298.739 556.074 298.832 556.536 299.018C557.004 299.198 557.406 299.462 557.742 299.81C558.084 300.152 558.351 300.578 558.543 301.088C558.735 301.592 558.831 302.168 558.831 302.816C558.831 303.068 558.804 303.236 558.75 303.32C558.696 303.404 558.594 303.446 558.444 303.446H552.351C552.369 304.022 552.447 304.523 552.585 304.949C552.729 305.375 552.927 305.732 553.179 306.02C553.431 306.302 553.731 306.515 554.079 306.659C554.427 306.797 554.817 306.866 555.249 306.866C555.651 306.866 555.996 306.821 556.284 306.731C556.578 306.635 556.83 306.533 557.04 306.425C557.25 306.317 557.424 306.218 557.562 306.128C557.706 306.032 557.829 305.984 557.931 305.984C558.063 305.984 558.165 306.035 558.237 306.137L558.687 306.722ZM566.108 300.386C566.036 300.518 565.925 300.584 565.775 300.584C565.685 300.584 565.583 300.551 565.469 300.485C565.355 300.419 565.214 300.347 565.046 300.269C564.884 300.185 564.689 300.11 564.461 300.044C564.233 299.972 563.963 299.936 563.651 299.936C563.381 299.936 563.138 299.972 562.922 300.044C562.706 300.11 562.52 300.203 562.364 300.323C562.214 300.443 562.097 300.584 562.013 300.746C561.935 300.902 561.896 301.073 561.896 301.259C561.896 301.493 561.962 301.688 562.094 301.844C562.232 302 562.412 302.135 562.634 302.249C562.856 302.363 563.108 302.465 563.39 302.555C563.672 302.639 563.96 302.732 564.254 302.834C564.554 302.93 564.845 303.038 565.127 303.158C565.409 303.278 565.661 303.428 565.883 303.608C566.105 303.788 566.282 304.01 566.414 304.274C566.552 304.532 566.621 304.844 566.621 305.21C566.621 305.63 566.546 306.02 566.396 306.38C566.246 306.734 566.024 307.043 565.73 307.307C565.436 307.565 565.076 307.769 564.65 307.919C564.224 308.069 563.732 308.144 563.174 308.144C562.538 308.144 561.962 308.042 561.446 307.838C560.93 307.628 560.492 307.361 560.132 307.037L560.51 306.425C560.558 306.347 560.615 306.287 560.681 306.245C560.747 306.203 560.831 306.182 560.933 306.182C561.041 306.182 561.155 306.224 561.275 306.308C561.395 306.392 561.539 306.485 561.707 306.587C561.881 306.689 562.091 306.782 562.337 306.866C562.583 306.95 562.889 306.992 563.255 306.992C563.567 306.992 563.84 306.953 564.074 306.875C564.308 306.791 564.503 306.68 564.659 306.542C564.815 306.404 564.929 306.245 565.001 306.065C565.079 305.885 565.118 305.693 565.118 305.489C565.118 305.237 565.049 305.03 564.911 304.868C564.779 304.7 564.602 304.559 564.38 304.445C564.158 304.325 563.903 304.223 563.615 304.139C563.333 304.049 563.042 303.956 562.742 303.86C562.448 303.764 562.157 303.656 561.869 303.536C561.587 303.41 561.335 303.254 561.113 303.068C560.891 302.882 560.711 302.654 560.573 302.384C560.441 302.108 560.375 301.775 560.375 301.385C560.375 301.037 560.447 300.704 560.591 300.386C560.735 300.062 560.945 299.78 561.221 299.54C561.497 299.294 561.836 299.099 562.238 298.955C562.64 298.811 563.099 298.739 563.615 298.739C564.215 298.739 564.752 298.835 565.226 299.027C565.706 299.213 566.12 299.471 566.468 299.801L566.108 300.386ZM573.895 300.386C573.823 300.518 573.712 300.584 573.562 300.584C573.472 300.584 573.37 300.551 573.256 300.485C573.142 300.419 573.001 300.347 572.833 300.269C572.671 300.185 572.476 300.11 572.248 300.044C572.02 299.972 571.75 299.936 571.438 299.936C571.168 299.936 570.925 299.972 570.709 300.044C570.493 300.11 570.307 300.203 570.151 300.323C570.001 300.443 569.884 300.584 569.8 300.746C569.722 300.902 569.683 301.073 569.683 301.259C569.683 301.493 569.749 301.688 569.881 301.844C570.019 302 570.199 302.135 570.421 302.249C570.643 302.363 570.895 302.465 571.177 302.555C571.459 302.639 571.747 302.732 572.041 302.834C572.341 302.93 572.632 303.038 572.914 303.158C573.196 303.278 573.448 303.428 573.67 303.608C573.892 303.788 574.069 304.01 574.201 304.274C574.339 304.532 574.408 304.844 574.408 305.21C574.408 305.63 574.333 306.02 574.183 306.38C574.033 306.734 573.811 307.043 573.517 307.307C573.223 307.565 572.863 307.769 572.437 307.919C572.011 308.069 571.519 308.144 570.961 308.144C570.325 308.144 569.749 308.042 569.233 307.838C568.717 307.628 568.279 307.361 567.919 307.037L568.297 306.425C568.345 306.347 568.402 306.287 568.468 306.245C568.534 306.203 568.618 306.182 568.72 306.182C568.828 306.182 568.942 306.224 569.062 306.308C569.182 306.392 569.326 306.485 569.494 306.587C569.668 306.689 569.878 306.782 570.124 306.866C570.37 306.95 570.676 306.992 571.042 306.992C571.354 306.992 571.627 306.953 571.861 306.875C572.095 306.791 572.29 306.68 572.446 306.542C572.602 306.404 572.716 306.245 572.788 306.065C572.866 305.885 572.905 305.693 572.905 305.489C572.905 305.237 572.836 305.03 572.698 304.868C572.566 304.7 572.389 304.559 572.167 304.445C571.945 304.325 571.69 304.223 571.402 304.139C571.12 304.049 570.829 303.956 570.529 303.86C570.235 303.764 569.944 303.656 569.656 303.536C569.374 303.41 569.122 303.254 568.9 303.068C568.678 302.882 568.498 302.654 568.36 302.384C568.228 302.108 568.162 301.775 568.162 301.385C568.162 301.037 568.234 300.704 568.378 300.386C568.522 300.062 568.732 299.78 569.008 299.54C569.284 299.294 569.623 299.099 570.025 298.955C570.427 298.811 570.886 298.739 571.402 298.739C572.002 298.739 572.539 298.835 573.013 299.027C573.493 299.213 573.907 299.471 574.255 299.801L573.895 300.386ZM576.274 310.178C576.226 310.136 576.193 310.097 576.175 310.061C576.157 310.025 576.148 309.98 576.148 309.926C576.148 309.884 576.16 309.842 576.184 309.8C576.214 309.758 576.247 309.719 576.283 309.683C576.343 309.617 576.418 309.53 576.508 309.422C576.604 309.314 576.7 309.185 576.796 309.035C576.892 308.891 576.979 308.729 577.057 308.549C577.141 308.375 577.201 308.189 577.237 307.991C577.219 307.997 577.198 308 577.174 308C577.156 308 577.138 308 577.12 308C576.808 308 576.553 307.898 576.355 307.694C576.163 307.484 576.067 307.217 576.067 306.893C576.067 306.611 576.163 306.371 576.355 306.173C576.553 305.975 576.814 305.876 577.138 305.876C577.318 305.876 577.477 305.909 577.615 305.975C577.753 306.041 577.867 306.134 577.957 306.254C578.053 306.368 578.125 306.503 578.173 306.659C578.221 306.809 578.245 306.974 578.245 307.154C578.245 307.424 578.206 307.706 578.128 308C578.056 308.288 577.945 308.573 577.795 308.855C577.651 309.143 577.474 309.422 577.264 309.692C577.054 309.962 576.814 310.211 576.544 310.439L576.274 310.178ZM591.401 300.503C591.353 300.569 591.305 300.62 591.257 300.656C591.209 300.692 591.143 300.71 591.059 300.71C590.969 300.71 590.87 300.674 590.762 300.602C590.654 300.524 590.519 300.44 590.357 300.35C590.201 300.26 590.006 300.179 589.772 300.107C589.544 300.029 589.262 299.99 588.926 299.99C588.476 299.99 588.08 300.071 587.738 300.233C587.396 300.389 587.108 300.617 586.874 300.917C586.646 301.217 586.472 301.58 586.352 302.006C586.238 302.432 586.181 302.909 586.181 303.437C586.181 303.989 586.244 304.481 586.37 304.913C586.496 305.339 586.673 305.699 586.901 305.993C587.135 306.281 587.414 306.503 587.738 306.659C588.068 306.809 588.437 306.884 588.845 306.884C589.235 306.884 589.556 306.839 589.808 306.749C590.06 306.653 590.267 306.548 590.429 306.434C590.597 306.32 590.735 306.218 590.843 306.128C590.957 306.032 591.068 305.984 591.176 305.984C591.308 305.984 591.41 306.035 591.482 306.137L591.932 306.722C591.734 306.968 591.509 307.178 591.257 307.352C591.005 307.526 590.732 307.673 590.438 307.793C590.15 307.907 589.847 307.991 589.529 308.045C589.211 308.099 588.887 308.126 588.557 308.126C587.987 308.126 587.456 308.021 586.964 307.811C586.478 307.601 586.055 307.298 585.695 306.902C585.335 306.5 585.053 306.008 584.849 305.426C584.645 304.844 584.543 304.181 584.543 303.437C584.543 302.759 584.636 302.132 584.822 301.556C585.014 300.98 585.29 300.485 585.65 300.071C586.016 299.651 586.463 299.324 586.991 299.09C587.525 298.856 588.137 298.739 588.827 298.739C589.469 298.739 590.033 298.844 590.519 299.054C591.011 299.258 591.446 299.549 591.824 299.927L591.401 300.503ZM595.344 298.883V308H593.742V298.883H595.344ZM595.686 296.021C595.686 296.177 595.653 296.324 595.587 296.462C595.527 296.594 595.443 296.714 595.335 296.822C595.233 296.924 595.11 297.005 594.966 297.065C594.828 297.125 594.681 297.155 594.525 297.155C594.369 297.155 594.222 297.125 594.084 297.065C593.952 297.005 593.835 296.924 593.733 296.822C593.631 296.714 593.55 296.594 593.49 296.462C593.43 296.324 593.4 296.177 593.4 296.021C593.4 295.865 593.43 295.718 593.49 295.58C593.55 295.436 593.631 295.313 593.733 295.211C593.835 295.103 593.952 295.019 594.084 294.959C594.222 294.899 594.369 294.869 594.525 294.869C594.681 294.869 594.828 294.899 594.966 294.959C595.11 295.019 595.233 295.103 595.335 295.211C595.443 295.313 595.527 295.436 595.587 295.58C595.653 295.718 595.686 295.865 595.686 296.021ZM600.775 308.144C600.055 308.144 599.5 307.943 599.11 307.541C598.726 307.139 598.534 306.56 598.534 305.804V300.224H597.436C597.34 300.224 597.259 300.197 597.193 300.143C597.127 300.083 597.094 299.993 597.094 299.873V299.234L598.588 299.045L598.957 296.228C598.975 296.138 599.014 296.066 599.074 296.012C599.14 295.952 599.224 295.922 599.326 295.922H600.136V299.063H602.773V300.224H600.136V305.696C600.136 306.08 600.229 306.365 600.415 306.551C600.601 306.737 600.841 306.83 601.135 306.83C601.303 306.83 601.447 306.809 601.567 306.767C601.693 306.719 601.801 306.668 601.891 306.614C601.981 306.56 602.056 306.512 602.116 306.47C602.182 306.422 602.239 306.398 602.287 306.398C602.371 306.398 602.446 306.449 602.512 306.551L602.98 307.316C602.704 307.574 602.371 307.778 601.981 307.928C601.591 308.072 601.189 308.144 600.775 308.144ZM612.293 298.883L607.208 310.691C607.154 310.811 607.085 310.907 607.001 310.979C606.923 311.051 606.8 311.087 606.632 311.087H605.444L607.109 307.469L603.347 298.883H604.733C604.871 298.883 604.979 298.919 605.057 298.991C605.141 299.057 605.198 299.132 605.228 299.216L607.667 304.958C607.763 305.21 607.844 305.474 607.91 305.75C607.994 305.468 608.084 305.201 608.18 304.949L610.547 299.216C610.583 299.12 610.643 299.042 610.727 298.982C610.817 298.916 610.916 298.883 611.024 298.883H612.293ZM621.717 298.739C622.383 298.739 622.983 298.85 623.517 299.072C624.051 299.294 624.507 299.609 624.885 300.017C625.263 300.425 625.551 300.92 625.749 301.502C625.953 302.078 626.055 302.723 626.055 303.437C626.055 304.157 625.953 304.805 625.749 305.381C625.551 305.957 625.263 306.449 624.885 306.857C624.507 307.265 624.051 307.58 623.517 307.802C622.983 308.018 622.383 308.126 621.717 308.126C621.045 308.126 620.439 308.018 619.899 307.802C619.365 307.58 618.909 307.265 618.531 306.857C618.153 306.449 617.862 305.957 617.658 305.381C617.46 304.805 617.361 304.157 617.361 303.437C617.361 302.723 617.46 302.078 617.658 301.502C617.862 300.92 618.153 300.425 618.531 300.017C618.909 299.609 619.365 299.294 619.899 299.072C620.439 298.85 621.045 298.739 621.717 298.739ZM621.717 306.875C622.617 306.875 623.289 306.575 623.733 305.975C624.177 305.369 624.399 304.526 624.399 303.446C624.399 302.36 624.177 301.514 623.733 300.908C623.289 300.302 622.617 299.999 621.717 299.999C621.261 299.999 620.862 300.077 620.52 300.233C620.184 300.389 619.902 300.614 619.674 300.908C619.452 301.202 619.284 301.565 619.17 301.997C619.062 302.423 619.008 302.906 619.008 303.446C619.008 304.526 619.23 305.369 619.674 305.975C620.124 306.575 620.805 306.875 621.717 306.875ZM629.608 300.71C629.896 300.086 630.25 299.6 630.67 299.252C631.09 298.898 631.603 298.721 632.209 298.721C632.401 298.721 632.584 298.742 632.758 298.784C632.938 298.826 633.097 298.892 633.235 298.982L633.118 300.179C633.082 300.329 632.992 300.404 632.848 300.404C632.764 300.404 632.641 300.386 632.479 300.35C632.317 300.314 632.134 300.296 631.93 300.296C631.642 300.296 631.384 300.338 631.156 300.422C630.934 300.506 630.733 300.632 630.553 300.8C630.379 300.962 630.22 301.166 630.076 301.412C629.938 301.652 629.812 301.928 629.698 302.24V308H628.087V298.883H629.005C629.179 298.883 629.299 298.916 629.365 298.982C629.431 299.048 629.476 299.162 629.5 299.324L629.608 300.71ZM647.845 295.751C647.845 295.949 647.785 296.141 647.665 296.327L640.366 306.578H647.737V308H638.071V307.316C638.071 307.22 638.086 307.13 638.116 307.046C638.152 306.962 638.194 306.881 638.242 306.803L645.559 296.525H638.413V295.103H647.845V295.751ZM651.815 308H650.069V295.103H651.815V308ZM658.921 301.79C659.419 301.79 659.857 301.724 660.235 301.592C660.619 301.46 660.94 301.277 661.198 301.043C661.462 300.803 661.66 300.518 661.792 300.188C661.924 299.858 661.99 299.495 661.99 299.099C661.99 298.277 661.735 297.635 661.225 297.173C660.721 296.711 659.953 296.48 658.921 296.48H656.851V301.79H658.921ZM658.921 295.103C659.737 295.103 660.445 295.199 661.045 295.391C661.651 295.577 662.152 295.844 662.548 296.192C662.944 296.54 663.238 296.96 663.43 297.452C663.628 297.944 663.727 298.493 663.727 299.099C663.727 299.699 663.622 300.248 663.412 300.746C663.202 301.244 662.893 301.673 662.485 302.033C662.083 302.393 661.582 302.675 660.982 302.879C660.388 303.077 659.701 303.176 658.921 303.176H656.851V308H655.114V295.103H658.921ZM676.005 300.503C675.957 300.569 675.909 300.62 675.861 300.656C675.813 300.692 675.747 300.71 675.663 300.71C675.573 300.71 675.474 300.674 675.366 300.602C675.258 300.524 675.123 300.44 674.961 300.35C674.805 300.26 674.61 300.179 674.376 300.107C674.148 300.029 673.866 299.99 673.53 299.99C673.08 299.99 672.684 300.071 672.342 300.233C672 300.389 671.712 300.617 671.478 300.917C671.25 301.217 671.076 301.58 670.956 302.006C670.842 302.432 670.785 302.909 670.785 303.437C670.785 303.989 670.848 304.481 670.974 304.913C671.1 305.339 671.277 305.699 671.505 305.993C671.739 306.281 672.018 306.503 672.342 306.659C672.672 306.809 673.041 306.884 673.449 306.884C673.839 306.884 674.16 306.839 674.412 306.749C674.664 306.653 674.871 306.548 675.033 306.434C675.201 306.32 675.339 306.218 675.447 306.128C675.561 306.032 675.672 305.984 675.78 305.984C675.912 305.984 676.014 306.035 676.086 306.137L676.536 306.722C676.338 306.968 676.113 307.178 675.861 307.352C675.609 307.526 675.336 307.673 675.042 307.793C674.754 307.907 674.451 307.991 674.133 308.045C673.815 308.099 673.491 308.126 673.161 308.126C672.591 308.126 672.06 308.021 671.568 307.811C671.082 307.601 670.659 307.298 670.299 306.902C669.939 306.5 669.657 306.008 669.453 305.426C669.249 304.844 669.147 304.181 669.147 303.437C669.147 302.759 669.24 302.132 669.426 301.556C669.618 300.98 669.894 300.485 670.254 300.071C670.62 299.651 671.067 299.324 671.595 299.09C672.129 298.856 672.741 298.739 673.431 298.739C674.073 298.739 674.637 298.844 675.123 299.054C675.615 299.258 676.05 299.549 676.428 299.927L676.005 300.503ZM681.94 298.739C682.606 298.739 683.206 298.85 683.74 299.072C684.274 299.294 684.73 299.609 685.108 300.017C685.486 300.425 685.774 300.92 685.972 301.502C686.176 302.078 686.278 302.723 686.278 303.437C686.278 304.157 686.176 304.805 685.972 305.381C685.774 305.957 685.486 306.449 685.108 306.857C684.73 307.265 684.274 307.58 683.74 307.802C683.206 308.018 682.606 308.126 681.94 308.126C681.268 308.126 680.662 308.018 680.122 307.802C679.588 307.58 679.132 307.265 678.754 306.857C678.376 306.449 678.085 305.957 677.881 305.381C677.683 304.805 677.584 304.157 677.584 303.437C677.584 302.723 677.683 302.078 677.881 301.502C678.085 300.92 678.376 300.425 678.754 300.017C679.132 299.609 679.588 299.294 680.122 299.072C680.662 298.85 681.268 298.739 681.94 298.739ZM681.94 306.875C682.84 306.875 683.512 306.575 683.956 305.975C684.4 305.369 684.622 304.526 684.622 303.446C684.622 302.36 684.4 301.514 683.956 300.908C683.512 300.302 682.84 299.999 681.94 299.999C681.484 299.999 681.085 300.077 680.743 300.233C680.407 300.389 680.125 300.614 679.897 300.908C679.675 301.202 679.507 301.565 679.393 301.997C679.285 302.423 679.231 302.906 679.231 303.446C679.231 304.526 679.453 305.369 679.897 305.975C680.347 306.575 681.028 306.875 681.94 306.875ZM694.25 301.052C693.95 300.65 693.626 300.371 693.278 300.215C692.93 300.053 692.54 299.972 692.108 299.972C691.262 299.972 690.611 300.275 690.155 300.881C689.699 301.487 689.471 302.351 689.471 303.473C689.471 304.067 689.522 304.577 689.624 305.003C689.726 305.423 689.876 305.771 690.074 306.047C690.272 306.317 690.515 306.515 690.803 306.641C691.091 306.767 691.418 306.83 691.784 306.83C692.312 306.83 692.771 306.71 693.161 306.47C693.557 306.23 693.92 305.891 694.25 305.453V301.052ZM695.852 294.743V308H694.898C694.67 308 694.526 307.889 694.466 307.667L694.322 306.56C693.932 307.028 693.488 307.406 692.99 307.694C692.492 307.982 691.916 308.126 691.262 308.126C690.74 308.126 690.266 308.027 689.84 307.829C689.414 307.625 689.051 307.328 688.751 306.938C688.451 306.548 688.22 306.062 688.058 305.48C687.896 304.898 687.815 304.229 687.815 303.473C687.815 302.801 687.905 302.177 688.085 301.601C688.265 301.019 688.523 300.515 688.859 300.089C689.195 299.663 689.606 299.33 690.092 299.09C690.584 298.844 691.136 298.721 691.748 298.721C692.306 298.721 692.783 298.817 693.179 299.009C693.581 299.195 693.938 299.456 694.25 299.792V294.743H695.852ZM704.484 302.447C704.484 302.075 704.43 301.736 704.322 301.43C704.22 301.118 704.067 300.851 703.863 300.629C703.665 300.401 703.422 300.227 703.134 300.107C702.846 299.981 702.519 299.918 702.153 299.918C701.385 299.918 700.776 300.143 700.326 300.593C699.882 301.037 699.606 301.655 699.498 302.447H704.484ZM705.78 306.722C705.582 306.962 705.345 307.172 705.069 307.352C704.793 307.526 704.496 307.67 704.178 307.784C703.866 307.898 703.542 307.982 703.206 308.036C702.87 308.096 702.537 308.126 702.207 308.126C701.577 308.126 700.995 308.021 700.461 307.811C699.933 307.595 699.474 307.283 699.084 306.875C698.7 306.461 698.4 305.951 698.184 305.345C697.968 304.739 697.86 304.043 697.86 303.257C697.86 302.621 697.956 302.027 698.148 301.475C698.346 300.923 698.628 300.446 698.994 300.044C699.36 299.636 699.807 299.318 700.335 299.09C700.863 298.856 701.457 298.739 702.117 298.739C702.663 298.739 703.167 298.832 703.629 299.018C704.097 299.198 704.499 299.462 704.835 299.81C705.177 300.152 705.444 300.578 705.636 301.088C705.828 301.592 705.924 302.168 705.924 302.816C705.924 303.068 705.897 303.236 705.843 303.32C705.789 303.404 705.687 303.446 705.537 303.446H699.444C699.462 304.022 699.54 304.523 699.678 304.949C699.822 305.375 700.02 305.732 700.272 306.02C700.524 306.302 700.824 306.515 701.172 306.659C701.52 306.797 701.91 306.866 702.342 306.866C702.744 306.866 703.089 306.821 703.377 306.731C703.671 306.635 703.923 306.533 704.133 306.425C704.343 306.317 704.517 306.218 704.655 306.128C704.799 306.032 704.922 305.984 705.024 305.984C705.156 305.984 705.258 306.035 705.33 306.137L705.78 306.722ZM714.109 300.098C714.499 299.684 714.931 299.354 715.405 299.108C715.879 298.862 716.425 298.739 717.043 298.739C717.541 298.739 717.979 298.823 718.357 298.991C718.741 299.153 719.059 299.387 719.311 299.693C719.569 299.993 719.764 300.356 719.896 300.782C720.028 301.208 720.094 301.679 720.094 302.195V308H718.483V302.195C718.483 301.505 718.324 300.971 718.006 300.593C717.694 300.209 717.217 300.017 716.575 300.017C716.101 300.017 715.657 300.131 715.243 300.359C714.835 300.587 714.457 300.896 714.109 301.286V308H712.498V294.743H714.109V300.098ZM728.637 302.447C728.637 302.075 728.583 301.736 728.475 301.43C728.373 301.118 728.22 300.851 728.016 300.629C727.818 300.401 727.575 300.227 727.287 300.107C726.999 299.981 726.672 299.918 726.306 299.918C725.538 299.918 724.929 300.143 724.479 300.593C724.035 301.037 723.759 301.655 723.651 302.447H728.637ZM729.933 306.722C729.735 306.962 729.498 307.172 729.222 307.352C728.946 307.526 728.649 307.67 728.331 307.784C728.019 307.898 727.695 307.982 727.359 308.036C727.023 308.096 726.69 308.126 726.36 308.126C725.73 308.126 725.148 308.021 724.614 307.811C724.086 307.595 723.627 307.283 723.237 306.875C722.853 306.461 722.553 305.951 722.337 305.345C722.121 304.739 722.013 304.043 722.013 303.257C722.013 302.621 722.109 302.027 722.301 301.475C722.499 300.923 722.781 300.446 723.147 300.044C723.513 299.636 723.96 299.318 724.488 299.09C725.016 298.856 725.61 298.739 726.27 298.739C726.816 298.739 727.32 298.832 727.782 299.018C728.25 299.198 728.652 299.462 728.988 299.81C729.33 300.152 729.597 300.578 729.789 301.088C729.981 301.592 730.077 302.168 730.077 302.816C730.077 303.068 730.05 303.236 729.996 303.32C729.942 303.404 729.84 303.446 729.69 303.446H723.597C723.615 304.022 723.693 304.523 723.831 304.949C723.975 305.375 724.173 305.732 724.425 306.02C724.677 306.302 724.977 306.515 725.325 306.659C725.673 306.797 726.063 306.866 726.495 306.866C726.897 306.866 727.242 306.821 727.53 306.731C727.824 306.635 728.076 306.533 728.286 306.425C728.496 306.317 728.67 306.218 728.808 306.128C728.952 306.032 729.075 305.984 729.177 305.984C729.309 305.984 729.411 306.035 729.483 306.137L729.933 306.722ZM733.565 300.71C733.853 300.086 734.207 299.6 734.627 299.252C735.047 298.898 735.56 298.721 736.166 298.721C736.358 298.721 736.541 298.742 736.715 298.784C736.895 298.826 737.054 298.892 737.192 298.982L737.075 300.179C737.039 300.329 736.949 300.404 736.805 300.404C736.721 300.404 736.598 300.386 736.436 300.35C736.274 300.314 736.091 300.296 735.887 300.296C735.599 300.296 735.341 300.338 735.113 300.422C734.891 300.506 734.69 300.632 734.51 300.8C734.336 300.962 734.177 301.166 734.033 301.412C733.895 301.652 733.769 301.928 733.655 302.24V308H732.044V298.883H732.962C733.136 298.883 733.256 298.916 733.322 298.982C733.388 299.048 733.433 299.162 733.457 299.324L733.565 300.71ZM744.334 302.447C744.334 302.075 744.28 301.736 744.172 301.43C744.07 301.118 743.917 300.851 743.713 300.629C743.515 300.401 743.272 300.227 742.984 300.107C742.696 299.981 742.369 299.918 742.003 299.918C741.235 299.918 740.626 300.143 740.176 300.593C739.732 301.037 739.456 301.655 739.348 302.447H744.334ZM745.63 306.722C745.432 306.962 745.195 307.172 744.919 307.352C744.643 307.526 744.346 307.67 744.028 307.784C743.716 307.898 743.392 307.982 743.056 308.036C742.72 308.096 742.387 308.126 742.057 308.126C741.427 308.126 740.845 308.021 740.311 307.811C739.783 307.595 739.324 307.283 738.934 306.875C738.55 306.461 738.25 305.951 738.034 305.345C737.818 304.739 737.71 304.043 737.71 303.257C737.71 302.621 737.806 302.027 737.998 301.475C738.196 300.923 738.478 300.446 738.844 300.044C739.21 299.636 739.657 299.318 740.185 299.09C740.713 298.856 741.307 298.739 741.967 298.739C742.513 298.739 743.017 298.832 743.479 299.018C743.947 299.198 744.349 299.462 744.685 299.81C745.027 300.152 745.294 300.578 745.486 301.088C745.678 301.592 745.774 302.168 745.774 302.816C745.774 303.068 745.747 303.236 745.693 303.32C745.639 303.404 745.537 303.446 745.387 303.446H739.294C739.312 304.022 739.39 304.523 739.528 304.949C739.672 305.375 739.87 305.732 740.122 306.02C740.374 306.302 740.674 306.515 741.022 306.659C741.37 306.797 741.76 306.866 742.192 306.866C742.594 306.866 742.939 306.821 743.227 306.731C743.521 306.635 743.773 306.533 743.983 306.425C744.193 306.317 744.367 306.218 744.505 306.128C744.649 306.032 744.772 305.984 744.874 305.984C745.006 305.984 745.108 306.035 745.18 306.137L745.63 306.722ZM747.472 307.01C747.472 306.854 747.499 306.707 747.553 306.569C747.613 306.431 747.691 306.311 747.787 306.209C747.889 306.107 748.009 306.026 748.147 305.966C748.285 305.906 748.432 305.876 748.588 305.876C748.744 305.876 748.891 305.906 749.029 305.966C749.167 306.026 749.287 306.107 749.389 306.209C749.491 306.311 749.572 306.431 749.632 306.569C749.692 306.707 749.722 306.854 749.722 307.01C749.722 307.172 749.692 307.322 749.632 307.46C749.572 307.592 749.491 307.709 749.389 307.811C749.287 307.913 749.167 307.991 749.029 308.045C748.891 308.105 748.744 308.135 748.588 308.135C748.432 308.135 748.285 308.105 748.147 308.045C748.009 307.991 747.889 307.913 747.787 307.811C747.691 307.709 747.613 307.592 747.553 307.46C747.499 307.322 747.472 307.172 747.472 307.01ZM756.733 307.01C756.733 306.854 756.76 306.707 756.814 306.569C756.874 306.431 756.952 306.311 757.048 306.209C757.15 306.107 757.27 306.026 757.408 305.966C757.546 305.906 757.693 305.876 757.849 305.876C758.005 305.876 758.152 305.906 758.29 305.966C758.428 306.026 758.548 306.107 758.65 306.209C758.752 306.311 758.833 306.431 758.893 306.569C758.953 306.707 758.983 306.854 758.983 307.01C758.983 307.172 758.953 307.322 758.893 307.46C758.833 307.592 758.752 307.709 758.65 307.811C758.548 307.913 758.428 307.991 758.29 308.045C758.152 308.105 758.005 308.135 757.849 308.135C757.693 308.135 757.546 308.105 757.408 308.045C757.27 307.991 757.15 307.913 757.048 307.811C756.952 307.709 756.874 307.592 756.814 307.46C756.76 307.322 756.733 307.172 756.733 307.01ZM752.098 307.01C752.098 306.854 752.125 306.707 752.179 306.569C752.239 306.431 752.317 306.311 752.413 306.209C752.515 306.107 752.635 306.026 752.773 305.966C752.911 305.906 753.058 305.876 753.214 305.876C753.37 305.876 753.517 305.906 753.655 305.966C753.793 306.026 753.913 306.107 754.015 306.209C754.117 306.311 754.198 306.431 754.258 306.569C754.318 306.707 754.348 306.854 754.348 307.01C754.348 307.172 754.318 307.322 754.258 307.46C754.198 307.592 754.117 307.709 754.015 307.811C753.913 307.913 753.793 307.991 753.655 308.045C753.517 308.105 753.37 308.135 753.214 308.135C753.058 308.135 752.911 308.105 752.773 308.045C752.635 307.991 752.515 307.913 752.413 307.811C752.317 307.709 752.239 307.592 752.179 307.46C752.125 307.322 752.098 307.172 752.098 307.01Z"
			fill="#263238" fill-opacity="0.44786"/>
		<path fill-rule="evenodd" clip-rule="evenodd"
					d="M432.842 298C432.842 294.13 435.872 291 439.62 291C443.367 291 446.397 294.13 446.397 298C446.397 303.25 439.62 311 439.62 311C439.62 311 432.842 303.25 432.842 298ZM437.199 298C437.199 299.38 438.283 300.5 439.62 300.5C440.956 300.5 442.04 299.38 442.04 298C442.04 296.62 440.956 295.5 439.62 295.5C438.283 295.5 437.199 296.62 437.199 298Z"
					fill="#263238"/>
		<g opacity="0.1">
			<path fill-rule="evenodd" clip-rule="evenodd"
						d="M465.764 51.2476C465.764 53.0733 467.267 54.5533 469.122 54.5533C470.977 54.5533 472.48 53.0733 472.48 51.2476V38.0247C472.48 36.199 470.977 34.719 469.122 34.719C467.267 34.719 465.764 36.199 465.764 38.0247V51.2476Z"
						fill="white"/>
			<path fill-rule="evenodd" clip-rule="evenodd"
						d="M468.344 41.2406C470.148 41.6634 471.959 40.5665 472.388 38.7904C472.818 37.0144 471.704 35.2318 469.899 34.8089L328.856 1.75178C327.051 1.32891 325.24 2.42588 324.811 4.20193C324.381 5.97798 325.496 7.76055 327.3 8.18342L468.344 41.2406Z"
						fill="white"/>
			<path fill-rule="evenodd" clip-rule="evenodd"
						d="M422.981 -9.18543C428.878 -10.2738 436.632 -6.90855 439.814 -1.89766L466.274 39.7769C467.257 41.3251 469.328 41.7957 470.901 40.8281C472.474 39.8605 472.952 37.821 471.969 36.2728L445.509 -5.40171C440.865 -12.7159 430.362 -17.2743 421.744 -15.6836L327.459 1.7186C325.636 2.05505 324.435 3.78247 324.777 5.5769C325.119 7.37132 326.874 8.55324 328.696 8.21679L422.981 -9.18543Z"
						fill="white"/>
			<path fill-rule="evenodd" clip-rule="evenodd"
						d="M324.719 44.636C324.719 46.4617 326.222 47.9417 328.077 47.9417C329.932 47.9417 331.435 46.4617 331.435 44.636V31.4131C331.435 29.5874 329.932 28.1074 328.077 28.1074C326.222 28.1074 324.719 29.5874 324.719 31.4131V44.636Z"
						fill="white"/>
			<path fill-rule="evenodd" clip-rule="evenodd"
						d="M465.764 77.6934C465.764 79.5191 467.267 80.9992 469.122 80.9992C470.977 80.9992 472.48 79.5191 472.48 77.6934V65.9173C472.48 64.0916 470.977 62.6116 469.122 62.6116C467.267 62.6116 465.764 64.0916 465.764 65.9173V77.6934Z"
						fill="white"/>
			<path fill-rule="evenodd" clip-rule="evenodd"
						d="M468.344 80.9093C470.148 81.3321 471.959 80.2352 472.388 78.4591C472.818 76.6831 471.704 74.9005 469.899 74.4776L328.856 41.4205C327.051 40.9976 325.24 42.0946 324.811 43.8706C324.381 45.6467 325.496 47.4293 327.3 47.8521L468.344 80.9093Z"
						fill="white"/>
			<path fill-rule="evenodd" clip-rule="evenodd"
						d="M468.344 54.4637C470.148 54.8866 471.959 53.7896 472.388 52.0136C472.818 50.2375 471.704 48.4549 469.899 48.0321L328.856 14.9749C327.051 14.5521 325.24 15.649 324.811 17.4251C324.381 19.2011 325.496 20.9837 327.3 21.4066L468.344 54.4637Z"
						fill="white"/>
			<path fill-rule="evenodd" clip-rule="evenodd"
						d="M321.827 17.7665C318.388 20.9796 316.895 25.1733 318.907 29.8618C320.977 34.6888 323.513 35.0417 332.609 34.2598C337.836 33.8105 341.128 33.8047 345.117 34.505C345.257 34.5294 346.044 35.2216 347.846 37.1737C350.702 40.2673 352.156 41.4801 354.609 41.9004C357.104 42.328 358.927 42.0383 363.397 40.9202C364.129 40.7373 364.436 40.662 364.836 40.5678C367.077 40.0411 368.528 39.8746 369.705 40.0458C371.576 40.3181 373.049 41.4353 376.064 44.6631C376.235 44.8459 376.235 44.8459 376.407 45.0309C380.672 49.5998 383.117 51.4566 387.291 52.0704C390.206 52.4991 393.06 52.1662 399.142 51.0363C404.824 49.9787 406.967 49.6921 408.81 49.847C411.364 50.0616 414.137 51.797 418.295 55.5112C417.196 54.5298 421.736 58.6371 422.764 59.4911C424.589 61.0086 426.077 61.9816 427.624 62.5082C430.287 63.4151 432.373 63.3486 440.216 62.6201C442.871 62.3735 444.463 62.2491 446.146 62.1765C449.332 62.039 451.917 62.1663 454.084 62.6181C456.159 63.0507 458.141 63.7835 460.805 65.0143C471.072 69.7581 473.152 70.2162 477.099 65.369C480.523 61.1638 479.554 54.4462 473.956 50.6721C472.15 49.4546 470.381 48.6203 469.12 48.1536C467.384 47.5111 465.447 48.3756 464.795 50.0845C464.142 51.7934 465.02 53.6996 466.756 54.3421C467.555 54.6379 468.876 55.2606 470.161 56.1267C472.937 57.9982 473.476 59.3014 471.916 61.1638C470.967 62.298 470.507 62.1937 463.658 59.0294C460.568 57.6014 458.152 56.7081 455.476 56.1501C452.668 55.5649 449.555 55.4116 445.852 55.5714C444.026 55.6501 442.345 55.7815 439.585 56.0379C433.175 56.6333 431.109 56.6991 429.819 56.26C428.678 55.8713 428.894 56.0512 422.808 50.6151C417.6 45.9624 413.886 43.6381 409.381 43.2595C406.668 43.0315 404.29 43.3497 398.273 44.4694C392.644 45.5154 390.151 45.8061 388.284 45.5316C386.158 45.2189 384.599 44.036 381.353 40.5579C381.182 40.374 381.182 40.374 381.008 40.1883C376.973 35.8682 374.61 34.0763 370.687 33.5054C368.456 33.1808 366.286 33.4299 363.276 34.1372C362.835 34.2408 362.495 34.3245 361.743 34.5123C358.281 35.3784 356.948 35.5903 355.76 35.3869C355.424 35.3292 354.532 34.5853 352.817 32.7275C349.666 29.3137 348.633 28.4063 346.296 27.9962C341.595 27.171 337.792 27.1777 332.025 27.6735C326.222 28.1722 325.425 28.0613 325.094 27.29C324.331 25.5106 324.847 24.0604 326.451 22.5616C327.213 21.8492 327.988 21.3505 328.41 21.1403C330.065 20.316 330.728 18.3272 329.891 16.6982C329.053 15.0692 327.033 14.4168 325.378 15.2411C324.422 15.7171 323.131 16.5481 321.827 17.7665Z"
						fill="white"/>
		</g>
	</g>
	<defs>
		<clipPath id="clip0">
			<rect width="1440" height="500" fill="white"/>
		</clipPath>
	</defs>
</svg>
