<?xml version="1.0" encoding="UTF-8"?>
<svg width="24px" height="24px" viewBox="0 0 24 24" version="1.1" xmlns="http://www.w3.org/2000/svg"
		 xmlns:xlink="http://www.w3.org/1999/xlink">
	<!-- Generator: Sketch 43.1 (39012) - http://www.bohemiancoding.com/sketch -->
	<title>show-password</title>
	<desc>Created with Sketch.</desc>
	<defs></defs>
	<g id="UI" stroke="none" stroke-width="1" fill="none" fill-rule="evenodd">
		<g id="show-password" fill-rule="nonzero" fill="#263238">
			<path
				d="M12,15.5 C10.1384615,15.5 8.61538462,13.925 8.61538462,12 C8.61538462,10.075 10.1384615,8.5 12,8.5 C13.8615385,8.5 15.3846154,10.075 15.3846154,12 C15.3846154,13.925 13.8615385,15.5 12,15.5 Z M12,10.25 C11.0692308,10.25 10.3076923,11.0375 10.3076923,12 C10.3076923,12.9625 11.0692308,13.75 12,13.75 C12.9307692,13.75 13.6923077,12.9625 13.6923077,12 C13.6923077,11.0375 12.9307692,10.25 12,10.25 Z"
				id="Shape"></path>
			<path
				d="M12,19 C5.65384615,19 2.1,12.7 1.93076923,12.4375 C1.76153846,12.175 1.76153846,11.825 1.93076923,11.5625 C2.1,11.3 5.65384615,5 12,5 C18.3461538,5 21.9,11.3 22.0692308,11.5625 C22.2384615,11.825 22.2384615,12.175 22.0692308,12.4375 C21.9,12.7 18.3461538,19 12,19 Z M3.70769231,12 C4.55384615,13.3125 7.51538462,17.25 12,17.25 C16.4846154,17.25 19.4461538,13.3125 20.2923077,12 C19.4461538,10.6875 16.4846154,6.75 12,6.75 C7.51538462,6.75 4.55384615,10.6875 3.70769231,12 Z"
				id="Shape"></path>
		</g>
	</g>
</svg>
