<?xml version="1.0" encoding="UTF-8"?>
<svg width="120px" height="120px" viewBox="0 0 120 120" version="1.1" xmlns="http://www.w3.org/2000/svg"
		 xmlns:xlink="http://www.w3.org/1999/xlink">
	<!-- Generator: Sketch 43.1 (39012) - http://www.bohemiancoding.com/sketch -->
	<title>success</title>
	<desc>Created with Sketch.</desc>
	<defs>
		<rect id="path-1" x="0" y="0" width="120" height="120" rx="60"></rect>
	</defs>
	<g id="UI" stroke="none" stroke-width="1" fill="none" fill-rule="evenodd">
		<g id="success">
			<g id="restaurants">
				<g id="Rectangle-5" opacity="0">
					<use fill="#D8D8D8" fill-rule="evenodd" xlink:href="#path-1"></use>
					<rect stroke="#979797" stroke-width="2.33333333" x="1.16666667" y="1.16666667" width="117.666667"
								height="117.666667" rx="58.8333333"></rect>
				</g>
				<g id="Group-2" transform="translate(18.260870, 18.260870)" stroke="#FFFFFF" fill="#263238"
					 fill-rule="nonzero">
					<path
						d="M41.8181818,0.194805195 C18.961039,0.194805195 0.25974026,18.8961039 0.25974026,41.7532468 C0.25974026,64.6103896 18.961039,83.3116883 41.8181818,83.3116883 C64.6753247,83.3116883 83.3766234,64.6103896 83.3766234,41.7532468 C83.3766234,18.8961039 64.6753247,0.194805195 41.8181818,0.194805195 Z M41.8181818,76.2987013 C22.8571429,76.2987013 7.27272727,60.7142857 7.27272727,41.7532468 C7.27272727,22.7922078 22.8571429,7.20779221 41.8181818,7.20779221 C60.7792208,7.20779221 76.3636364,22.7922078 76.3636364,41.7532468 C76.3636364,60.7142857 60.7792208,76.2987013 41.8181818,76.2987013 Z"
						id="Shape" stroke-width="1.8"></path>
					<path
						d="M60.2597403,31.8831169 C60.2597403,31.1038961 60,30.3246753 59.2207792,29.5454545 C57.9220779,28.2467532 55.8441558,28.2467532 54.5454545,29.5454545 L37.1428571,46.9480519 L28.5714286,38.3766234 C28.0519481,37.8571429 27.012987,37.3376623 26.2337662,37.3376623 C25.4545455,37.3376623 24.6753247,37.5974026 23.8961039,38.3766234 C23.3766234,38.8961039 22.8571429,39.6753247 22.8571429,40.7142857 C22.8571429,41.4935065 23.1168831,42.2727273 23.8961039,43.0519481 L34.5454545,53.7012987 C35.8441558,55 37.9220779,55 39.2207792,53.7012987 L58.961039,33.961039 C60,33.4415584 60.2597403,32.6623377 60.2597403,31.8831169 Z"
						id="Shape"></path>
				</g>
			</g>
		</g>
	</g>
</svg>
