<svg width="32px" height="24px" viewBox="0 0 32 24" version="1.1" xmlns="http://www.w3.org/2000/svg"
		 xmlns:xlink="http://www.w3.org/1999/xlink">
	<!-- Generator: Sketch 46.1 (44463) - http://www.bohemiancoding.com/sketch -->
	<title>yelp-logo</title>
	<desc>Created with Sketch.</desc>
	<defs></defs>
	<g id="Menus.com" stroke="none" stroke-width="1" fill="none" fill-rule="evenodd">
		<g id="yelp-logo">
			<g id="YelpEat24_logo_1_1-Copy" transform="translate(4.000000, 6.000000)">
				<path
					d="M23.8111557,8.15613699 C23.9714325,7.82367123 23.9734256,7.44131507 23.8322491,7.10030137 C23.5949066,6.52717808 23.0015502,6.37454795 23.0015502,6.37454795 C23.0015502,6.37454795 23.5925813,6.2510137 23.8565813,5.67928767 C24.0113772,5.34394521 24.0220069,4.96060274 23.8737716,4.62205479 C23.621564,4.04605479 23.2521799,3.54320548 22.775917,3.12739726 C22.5399862,2.92134247 22.2367059,2.80915068 21.9221315,2.80783562 C21.9200554,2.80783562 21.9178962,2.80783562 21.9158201,2.80783562 C21.1547128,2.80783562 20.824526,3.40865753 20.824526,3.40865753 L20.8244429,1.32230137 C20.8244429,0.616520548 20.2553356,0.0464383562 19.5330104,0.0424109589 C19.530519,0.0424109589 19.5279446,0.0424109589 19.5254533,0.0424109589 C19.2189343,0.0424109589 18.6536471,0.143424658 18.2790311,0.242712329 C17.9014256,0.34290411 17.5324567,0.477452055 17.18209,0.642739726 C16.8582145,0.79569863 16.6114048,1.07794521 16.5049412,1.41739726 C16.3983114,1.75734247 16.4402491,2.1290137 16.6200415,2.43731507 L17.6740484,4.24413699 C17.6740484,4.24413699 17.4207612,4.09520548 17.0673218,4.09520548 C16.5112526,4.09520548 16.0187958,4.44526027 15.84191,4.96619178 C15.828872,5.00457534 15.8164983,5.0429589 15.8046228,5.08150685 C15.6364567,4.92139726 15.4331626,4.77756164 15.1854394,4.66109589 C14.8483599,4.50263014 14.4709204,4.41887671 14.0940623,4.41887671 C13.8062284,4.41887671 13.5247889,4.46720548 13.2631142,4.56024658 C13.0682076,4.45873973 12.8468097,4.40210959 12.6139516,4.40210959 C12.2838478,4.40210959 11.9804014,4.51676712 11.7416471,4.70761644 L11.7416471,4.45561644 C11.7416471,3.69665753 11.1177301,3.07915068 10.3508097,3.07915068 C9.58397232,3.07915068 8.96005536,3.69665753 8.96005536,4.45561644 L8.96005536,5.21531507 C8.43604152,4.67210959 7.73746713,4.44912329 7.10682353,4.44912329 C6.63404844,4.44912329 6.00531488,4.60142466 5.47640138,5.03210959 C5.29918339,4.78693151 5.04747405,4.60627397 4.75141869,4.51561644 C4.61655363,4.47427397 4.47678893,4.45331507 4.33602768,4.45331507 C3.71692734,4.45331507 3.1779654,4.84676712 2.99485121,5.43230137 L2.93572318,5.62142466 L2.74463668,5.23372603 C2.5530519,4.81972603 2.06358478,4.44994521 1.48567474,4.44994521 C1.28703114,4.44986301 1.07792388,4.49358904 0.866823529,4.59427397 C0.528913495,4.75536986 0.276871972,5.04 0.154878893,5.3910411 C0.0328858131,5.74208219 0.0562214533,6.11917808 0.220733564,6.45271233 L1.55194464,9.15230137 C1.15764706,9.30468493 0.86466436,9.61849315 0.742089965,10.0441644 C0.624249135,10.4535616 0.698906574,10.8796438 0.946961938,11.2131781 C1.14178547,11.4751233 1.52570242,11.7909863 2.24802768,11.8082466 C2.25184775,11.8083288 2.28955017,11.8111233 2.35249827,11.8111233 C2.71822837,11.8111233 3.93882353,11.7167671 4.36002768,10.4487123 C4.47786851,10.0938082 4.60816609,9.67430137 4.74477509,9.24172603 C4.76977163,9.29687671 4.79601384,9.35087671 4.824,9.40356164 C5.26280969,10.2268767 6.06427682,10.6803288 7.0807474,10.6803288 C8.03875433,10.6803288 8.71092042,10.3601918 9.12656055,9.94380822 C9.36191003,10.3744932 9.82239446,10.6678356 10.3508097,10.6678356 C10.6809965,10.6678356 10.9844429,10.5531781 11.2231972,10.3622466 L11.2231972,10.6142466 C11.2231972,11.3732877 11.8471142,11.9907945 12.6139516,11.9907945 C13.3687474,11.9907945 13.9849412,11.3926849 14.0042907,10.6502466 C14.0052872,10.6502466 14.027128,10.6514795 14.06591,10.6514795 C14.3062422,10.6514795 15.1972318,10.6061918 15.8131765,9.95621918 C15.993218,9.76627397 16.5153218,9.24065753 16.5870727,7.89279452 C16.6967751,7.92271233 16.8119585,7.93882192 16.9307128,7.93882192 C17.0897439,7.93882192 17.2723599,7.89230137 17.2848997,7.88810959 C16.9959862,8.18843836 16.890436,8.56347945 16.9342837,8.92964384 C16.9780484,9.29556164 17.1791834,9.62506849 17.4858685,9.83358904 C18.0010796,10.1838082 18.5983391,10.4229863 19.212955,10.5251507 C19.2838754,10.5369863 19.3561246,10.5429041 19.4277924,10.5429041 C20.1278616,10.5429041 20.695308,10.000274 20.7196401,9.30764384 L20.721218,9.26350685 L20.7448858,9.30090411 C20.9826436,9.67767123 21.3928028,9.90254795 21.8419931,9.90254795 C22.1413702,9.90254795 22.4336886,9.79857534 22.6648858,9.60969863 C23.1454671,9.21715068 23.5418408,8.71454795 23.8111557,8.15613699"
					id="Fill-8" fill="#FFFFFE"></path>
				<path
					d="M10.8417716,9.29136986 C10.8417716,9.55972603 10.6220346,9.77728767 10.3508097,9.77728767 C10.0796678,9.77728767 9.85984775,9.55972603 9.85984775,9.29136986 L9.85984775,4.45561644 C9.85984775,4.18726027 10.0796678,3.96969863 10.3508097,3.96969863 C10.6220346,3.96969863 10.8417716,4.18726027 10.8417716,4.45561644 L10.8417716,9.29136986"
					id="Fill-9" fill="#0C0D0B"></path>
				<path
					d="M6.37793772,7.0699726 C6.41074048,6.39871233 6.92445675,6.28832877 7.15540484,6.28832877 C7.38776471,6.28832877 7.903391,6.40010959 7.93079585,7.08139726 C7.93079585,7.11739726 7.91128028,7.13868493 7.88977163,7.13868493 L6.42062284,7.13868493 C6.39695502,7.13868493 6.37552941,7.1150137 6.37793772,7.0699726 Z M6.59144637,7.93849315 L8.35523875,7.94030137 C8.36744637,7.94030137 8.37957093,7.93939726 8.39177855,7.93849315 C8.63642907,7.92016438 8.86845675,7.71928767 8.86937024,7.39742466 C8.86937024,7.39684932 8.86945329,7.39627397 8.86945329,7.39561644 C8.86912111,7.38715068 8.86820761,7.37934247 8.86779239,7.3709589 C8.78026298,5.59660274 7.62901038,5.33967123 7.10682353,5.33967123 C6.56387543,5.33967123 5.33439446,5.65684932 5.33439446,7.62978082 C5.3436955,8.37180822 5.5043045,9.78969863 7.0807474,9.78969863 C8.44243599,9.78969863 8.74729412,9.01134247 8.74729412,8.81284932 C8.74729412,8.51991781 8.50081661,8.27145205 8.22244983,8.36490411 C7.99648443,8.44076712 7.68672664,8.88608219 7.18746021,8.88608219 C6.47310727,8.88608219 6.38059516,8.23964384 6.38059516,8.1019726 C6.38059516,7.98838356 6.44055363,7.94416438 6.59144637,7.93849315 L6.59144637,7.93849315 Z"
					id="Fill-10" fill="#0C0D0B"></path>
				<path
					d="M2.56334948,9.1730137 L1.02942561,6.06213699 C0.907183391,5.81432877 1.01115571,5.51547945 1.26145329,5.39457534 C1.51183391,5.27358904 1.81378547,5.37649315 1.93594464,5.62421918 L3.12357093,8.03284932 L3.85444983,5.69556164 C3.93683045,5.43221918 4.21918339,5.28476712 4.48542561,5.36630137 C4.75150173,5.44783562 4.90048443,5.72736986 4.81810381,5.99079452 C4.81810381,5.99079452 3.99662284,8.64961644 3.50292042,10.1773973 C3.33965398,10.6827945 2.91155709,10.9335616 2.2700346,10.9179452 C1.63557093,10.9028219 1.53716263,10.5324658 1.60750173,10.2881918 C1.68481661,10.0196712 1.91128028,9.93846575 2.13292734,9.93969863 C2.70618685,9.94265753 2.77918339,9.59893151 2.56334948,9.1730137"
					id="Fill-11" fill="#0C0D0B"></path>
				<path
					d="M14.7197232,7.72865753 C14.7197232,8.11273973 14.7197232,8.80232877 14.014173,8.80232877 C13.3066298,8.80232877 13.3085398,8.11273973 13.3085398,7.72865753 L13.3085398,7.37778082 C13.3085398,6.99369863 13.3085398,6.30419178 14.014173,6.30419178 C14.7217163,6.30419178 14.7197232,6.99369863 14.7197232,7.37778082 L14.7197232,7.72865753 Z M15.692263,7.35969863 C15.692263,6.7219726 15.6130381,5.84810959 14.7995294,5.46558904 C14.3405398,5.24983562 13.7751696,5.25361644 13.3405121,5.50232877 C13.2533149,5.55221918 13.1670311,5.60736986 13.0906298,5.66383562 C13.0383945,5.4509589 12.8451488,5.29265753 12.6139516,5.29265753 C12.3428097,5.29265753 12.1229896,5.51021918 12.1229896,5.77857534 L12.1229896,10.6142466 C12.1229896,10.8826849 12.3428097,11.1001644 12.6139516,11.1001644 C12.8850934,11.1001644 13.1049135,10.8826849 13.1049135,10.6142466 L13.1049135,9.34520548 C13.1049135,9.34520548 13.4347682,9.74539726 13.9598616,9.7589589 C15.8246367,9.8070411 15.7023945,7.79975342 15.692263,7.35969863 L15.692263,7.35969863 Z"
					id="Fill-12" fill="#0C0D0B"></path>
				<path
					d="M17.2396401,5.02528767 L18.9541038,5.85279452 C19.2838754,6.012 19.2329689,6.492 18.876955,6.57986301 L17.0262145,7.03660274 C16.7953495,7.09356164 16.567391,6.93591781 16.5401522,6.702 C16.4819377,6.20161644 16.5394048,5.70747945 16.694782,5.25 C16.7702699,5.02783562 17.0267958,4.92254795 17.2396401,5.02528767"
					id="Fill-13" fill="#C0282B"></path>
				<path
					d="M17.92609,8.51843836 L19.2021592,7.11558904 C19.4476401,6.84567123 19.8998201,7.02649315 19.8870311,7.38945205 L19.8204291,9.27657534 C19.8121246,9.51180822 19.5963737,9.68589041 19.3619377,9.64684932 C18.8688997,9.56490411 18.402519,9.37627397 17.9953495,9.09953425 C17.7996125,8.96646575 17.7672249,8.6930137 17.92609,8.51843836"
					id="Fill-14" fill="#C0282B"></path>
				<path
					d="M20.9516678,6.65161644 L22.7655363,7.2350137 C22.9912526,7.30767123 23.1013702,7.56049315 22.9991419,7.77254795 C22.7862976,8.21367123 22.4777024,8.60786301 22.0921246,8.92282192 C21.9087612,9.07265753 21.6339654,9.02860274 21.5079862,8.8290411 L20.4969135,7.22769863 C20.3025052,6.91972603 20.6027128,6.53934247 20.9516678,6.65161644"
					id="Fill-15" fill="#C0282B"></path>
				<path
					d="M22.7961799,5.50635616 L20.9627128,6.02671233 C20.6100208,6.12682192 20.3233495,5.73632877 20.5285536,5.43526027 L21.5953495,3.87016438 C21.7277232,3.67586301 22.0030173,3.64010959 22.1806505,3.79520548 C22.5462976,4.11443836 22.8457578,4.5139726 23.0481384,4.97613699 C23.1427266,5.19213699 23.0248858,5.44150685 22.7961799,5.50635616"
					id="Fill-16" fill="#C0282B"></path>
				<path
					d="M18.5119723,1.10293151 C18.1819516,1.19046575 17.867128,1.30610959 17.5694118,1.44657534 C17.3628789,1.54405479 17.2848166,1.79589041 17.3992526,1.992 L19.1913633,5.06408219 C19.3923322,5.40871233 19.9247336,5.26758904 19.9246505,4.86961644 L19.9246505,1.32230137 C19.9246505,1.09578082 19.72991,0.916356164 19.5017855,0.934191781 C19.1730104,0.959835616 18.84191,1.01547945 18.5119723,1.10293151"
					id="Fill-17" fill="#C0282B"></path>
			</g>
		</g>
	</g>
</svg>
